; NON-PLATED HOLES START AT T1
; THROUGH (PLATED) HOLES START AT T100
M48
INCH
T1C0.125984
T100C0.038000
T101C0.030000
T102C0.032000
T103C0.035000
T104C0.015748
%
T1
X011809Y002161
X046613Y002161
X026775Y002168
X061577Y002163
T100
X004500Y005590
X051500Y005590
X004500Y006590
X022000Y009590
X021000Y005590
X055500Y009590
X004500Y004590
X017000Y005590
X002500Y005590
X020000Y009590
X053500Y005590
X022000Y005590
X051500Y009590
X004500Y003590
X019000Y005590
X018000Y009590
X002500Y002590
X017000Y009590
X021000Y009590
X020000Y005590
X052500Y005590
X054500Y009590
X018000Y005590
X002500Y003590
X019000Y009590
X004500Y002590
X054500Y005590
X055500Y005590
X002500Y004590
X056500Y005590
X002500Y006590
X052500Y009590
X056500Y009590
X053500Y009590
T101
X002000Y014588
X002000Y015590
T102
X011000Y022590
X008000Y012590
X008000Y013590
X011000Y018590
X008000Y018590
X011000Y014590
X011000Y023590
X008000Y020590
X011000Y012590
X008000Y015590
X008000Y019590
X008000Y014590
X008000Y021590
X011000Y020590
X011000Y016590
X008000Y017590
X011000Y019590
X008000Y016590
X011000Y017590
X011000Y013590
X011000Y021590
X008000Y022590
X011000Y015590
X008000Y023590
T103
X003000Y008590
X003000Y012590
T104
X012500Y008590
X012500Y023590
X051500Y011590
X014500Y008590
X019000Y016590
X006999Y010090
X016000Y019590
X007500Y002590
X008000Y001590
X016000Y021590
X001999Y018590
X020000Y017590
X006499Y016590
X018000Y015590
X004999Y023590
X020000Y002590
X054500Y014590
X019000Y003590
X023500Y005590
X017000Y014590
X006999Y011090
X055500Y015590
X012500Y017590
X016000Y018590
X008000Y005590
X013500Y018590
X052500Y012590
X050000Y007090
X015500Y004590
X055500Y007090
X005999Y021590
X019000Y021590
X014500Y011090
X053500Y013590
X021000Y001590
X006499Y013590
X009232Y018090
X021000Y018590
X006000Y007590
X009499Y020590
X056500Y016590
X057500Y018090
X010500Y005590
T00
M30
