G04 MADE WITH FRITZING*
G04 WWW.FRITZING.ORG*
G04 DOUBLE SIDED*
G04 HOLES PLATED*
G04 CONTOUR ON CENTER OF CONTOUR VECTOR*
%ASAXBY*%
%FSLAX23Y23*%
%MOIN*%
%OFA0B0*%
%SFA1.0B1.0*%
%ADD10C,0.135984*%
%ADD11C,0.049370*%
%ADD12C,0.088000*%
%ADD13C,0.062000*%
%ADD14C,0.085000*%
%ADD15C,0.080000*%
%ADD16R,0.001000X0.001000*%
%LNMASK1*%
G90*
G70*
G54D10*
X6158Y216D03*
X4661Y216D03*
X2678Y217D03*
X1181Y216D03*
G54D11*
X700Y1109D03*
X700Y1009D03*
X200Y1859D03*
X500Y2359D03*
X600Y2159D03*
X950Y2059D03*
X923Y1809D03*
X650Y1659D03*
X650Y1359D03*
X1250Y859D03*
X1450Y859D03*
X1450Y1109D03*
X800Y559D03*
X1050Y559D03*
X5000Y709D03*
X1600Y1859D03*
X2100Y1859D03*
X2000Y1759D03*
X1600Y1959D03*
X1900Y1659D03*
X1900Y2159D03*
X1600Y2159D03*
X1800Y1559D03*
X1700Y1459D03*
X5550Y709D03*
X5750Y1809D03*
X2350Y559D03*
X800Y159D03*
X750Y259D03*
X600Y759D03*
X1550Y459D03*
X2100Y159D03*
X2000Y259D03*
X1900Y359D03*
X1250Y1759D03*
X1350Y1859D03*
X5150Y1159D03*
X5250Y1259D03*
X5350Y1359D03*
X5450Y1459D03*
X5550Y1559D03*
X5650Y1659D03*
X1250Y2359D03*
G54D12*
X5150Y959D03*
X5250Y959D03*
X5350Y959D03*
X5450Y959D03*
X5550Y959D03*
X5650Y959D03*
X5150Y959D03*
X5250Y959D03*
X5350Y959D03*
X5450Y959D03*
X5550Y959D03*
X5650Y959D03*
X5650Y559D03*
X5550Y559D03*
X5450Y559D03*
X5350Y559D03*
X5250Y559D03*
X5150Y559D03*
X5650Y559D03*
X5550Y559D03*
X5450Y559D03*
X5350Y559D03*
X5250Y559D03*
X5150Y559D03*
X1700Y959D03*
X1800Y959D03*
X1900Y959D03*
X2000Y959D03*
X2100Y959D03*
X2200Y959D03*
X1700Y959D03*
X1800Y959D03*
X1900Y959D03*
X2000Y959D03*
X2100Y959D03*
X2200Y959D03*
X2200Y559D03*
X2100Y559D03*
X2000Y559D03*
X1900Y559D03*
X1800Y559D03*
X1700Y559D03*
X2200Y559D03*
X2100Y559D03*
X2000Y559D03*
X1900Y559D03*
X1800Y559D03*
X1700Y559D03*
G54D13*
X800Y2359D03*
X800Y2259D03*
X800Y1759D03*
X800Y1659D03*
X800Y2159D03*
X800Y2059D03*
X800Y1859D03*
X800Y1959D03*
X800Y1559D03*
X1100Y1559D03*
X1100Y1659D03*
X1100Y1759D03*
X1100Y1859D03*
X1100Y1959D03*
X1100Y2059D03*
X1100Y2159D03*
X1100Y2259D03*
X1100Y2359D03*
X800Y1459D03*
X800Y1359D03*
X800Y1259D03*
X1100Y1259D03*
X1100Y1359D03*
X1100Y1459D03*
X800Y2359D03*
X800Y2259D03*
X800Y1759D03*
X800Y1659D03*
X800Y2159D03*
X800Y2059D03*
X800Y1859D03*
X800Y1959D03*
X800Y1559D03*
X1100Y1559D03*
X1100Y1659D03*
X1100Y1759D03*
X1100Y1859D03*
X1100Y1959D03*
X1100Y2059D03*
X1100Y2159D03*
X1100Y2259D03*
X1100Y2359D03*
X800Y1459D03*
X800Y1359D03*
X800Y1259D03*
X1100Y1259D03*
X1100Y1359D03*
X1100Y1459D03*
G54D12*
X250Y659D03*
X250Y559D03*
X250Y459D03*
X250Y359D03*
X250Y259D03*
X450Y659D03*
X450Y559D03*
X450Y459D03*
X450Y359D03*
X450Y259D03*
G54D14*
X300Y1259D03*
X300Y859D03*
G54D15*
X200Y1459D03*
X200Y1559D03*
G54D16*
X769Y2390D02*
X830Y2390D01*
X1069Y2390D02*
X1130Y2390D01*
X765Y2389D02*
X834Y2389D01*
X1065Y2389D02*
X1134Y2389D01*
X762Y2388D02*
X837Y2388D01*
X1062Y2388D02*
X1137Y2388D01*
X760Y2387D02*
X839Y2387D01*
X1060Y2387D02*
X1139Y2387D01*
X758Y2386D02*
X841Y2386D01*
X1058Y2386D02*
X1141Y2386D01*
X756Y2385D02*
X842Y2385D01*
X1056Y2385D02*
X1142Y2385D01*
X755Y2384D02*
X844Y2384D01*
X1055Y2384D02*
X1144Y2384D01*
X754Y2383D02*
X845Y2383D01*
X1054Y2383D02*
X1145Y2383D01*
X753Y2382D02*
X846Y2382D01*
X1053Y2382D02*
X1146Y2382D01*
X752Y2381D02*
X847Y2381D01*
X1052Y2381D02*
X1147Y2381D01*
X751Y2380D02*
X848Y2380D01*
X1051Y2380D02*
X1148Y2380D01*
X750Y2379D02*
X849Y2379D01*
X1050Y2379D02*
X1149Y2379D01*
X749Y2378D02*
X850Y2378D01*
X1049Y2378D02*
X1150Y2378D01*
X748Y2377D02*
X850Y2377D01*
X1048Y2377D02*
X1150Y2377D01*
X748Y2376D02*
X851Y2376D01*
X1048Y2376D02*
X1151Y2376D01*
X747Y2375D02*
X852Y2375D01*
X1047Y2375D02*
X1152Y2375D01*
X747Y2374D02*
X852Y2374D01*
X1047Y2374D02*
X1152Y2374D01*
X746Y2373D02*
X853Y2373D01*
X1046Y2373D02*
X1153Y2373D01*
X746Y2372D02*
X853Y2372D01*
X1046Y2372D02*
X1153Y2372D01*
X745Y2371D02*
X854Y2371D01*
X1045Y2371D02*
X1154Y2371D01*
X745Y2370D02*
X796Y2370D01*
X803Y2370D02*
X854Y2370D01*
X1045Y2370D02*
X1095Y2370D01*
X1103Y2370D02*
X1154Y2370D01*
X744Y2369D02*
X793Y2369D01*
X806Y2369D02*
X854Y2369D01*
X1044Y2369D02*
X1093Y2369D01*
X1105Y2369D02*
X1154Y2369D01*
X744Y2368D02*
X792Y2368D01*
X807Y2368D02*
X855Y2368D01*
X1044Y2368D02*
X1092Y2368D01*
X1107Y2368D02*
X1155Y2368D01*
X744Y2367D02*
X791Y2367D01*
X808Y2367D02*
X855Y2367D01*
X1044Y2367D02*
X1091Y2367D01*
X1108Y2367D02*
X1155Y2367D01*
X744Y2366D02*
X790Y2366D01*
X809Y2366D02*
X855Y2366D01*
X1044Y2366D02*
X1090Y2366D01*
X1109Y2366D02*
X1155Y2366D01*
X743Y2365D02*
X789Y2365D01*
X809Y2365D02*
X855Y2365D01*
X1043Y2365D02*
X1089Y2365D01*
X1109Y2365D02*
X1155Y2365D01*
X743Y2364D02*
X789Y2364D01*
X810Y2364D02*
X856Y2364D01*
X1043Y2364D02*
X1089Y2364D01*
X1110Y2364D02*
X1155Y2364D01*
X743Y2363D02*
X788Y2363D01*
X810Y2363D02*
X856Y2363D01*
X1043Y2363D02*
X1088Y2363D01*
X1110Y2363D02*
X1156Y2363D01*
X743Y2362D02*
X788Y2362D01*
X811Y2362D02*
X856Y2362D01*
X1043Y2362D02*
X1088Y2362D01*
X1111Y2362D02*
X1156Y2362D01*
X743Y2361D02*
X788Y2361D01*
X811Y2361D02*
X856Y2361D01*
X1043Y2361D02*
X1088Y2361D01*
X1111Y2361D02*
X1156Y2361D01*
X743Y2360D02*
X788Y2360D01*
X811Y2360D02*
X856Y2360D01*
X1043Y2360D02*
X1088Y2360D01*
X1111Y2360D02*
X1156Y2360D01*
X743Y2359D02*
X788Y2359D01*
X811Y2359D02*
X856Y2359D01*
X1043Y2359D02*
X1088Y2359D01*
X1111Y2359D02*
X1156Y2359D01*
X743Y2358D02*
X788Y2358D01*
X811Y2358D02*
X856Y2358D01*
X1043Y2358D02*
X1088Y2358D01*
X1111Y2358D02*
X1156Y2358D01*
X743Y2357D02*
X788Y2357D01*
X811Y2357D02*
X856Y2357D01*
X1043Y2357D02*
X1088Y2357D01*
X1111Y2357D02*
X1156Y2357D01*
X743Y2356D02*
X788Y2356D01*
X810Y2356D02*
X856Y2356D01*
X1043Y2356D02*
X1088Y2356D01*
X1110Y2356D02*
X1156Y2356D01*
X743Y2355D02*
X789Y2355D01*
X810Y2355D02*
X856Y2355D01*
X1043Y2355D02*
X1089Y2355D01*
X1110Y2355D02*
X1155Y2355D01*
X743Y2354D02*
X789Y2354D01*
X809Y2354D02*
X855Y2354D01*
X1043Y2354D02*
X1089Y2354D01*
X1109Y2354D02*
X1155Y2354D01*
X744Y2353D02*
X790Y2353D01*
X809Y2353D02*
X855Y2353D01*
X1044Y2353D02*
X1090Y2353D01*
X1109Y2353D02*
X1155Y2353D01*
X744Y2352D02*
X791Y2352D01*
X808Y2352D02*
X855Y2352D01*
X1044Y2352D02*
X1091Y2352D01*
X1108Y2352D02*
X1155Y2352D01*
X744Y2351D02*
X792Y2351D01*
X807Y2351D02*
X855Y2351D01*
X1044Y2351D02*
X1092Y2351D01*
X1107Y2351D02*
X1155Y2351D01*
X745Y2350D02*
X793Y2350D01*
X805Y2350D02*
X854Y2350D01*
X1044Y2350D02*
X1093Y2350D01*
X1105Y2350D02*
X1154Y2350D01*
X745Y2349D02*
X796Y2349D01*
X803Y2349D02*
X854Y2349D01*
X1045Y2349D02*
X1096Y2349D01*
X1103Y2349D02*
X1154Y2349D01*
X745Y2348D02*
X854Y2348D01*
X1045Y2348D02*
X1154Y2348D01*
X746Y2347D02*
X853Y2347D01*
X1046Y2347D02*
X1153Y2347D01*
X746Y2346D02*
X853Y2346D01*
X1046Y2346D02*
X1153Y2346D01*
X747Y2345D02*
X852Y2345D01*
X1047Y2345D02*
X1152Y2345D01*
X747Y2344D02*
X852Y2344D01*
X1047Y2344D02*
X1152Y2344D01*
X748Y2343D02*
X851Y2343D01*
X1048Y2343D02*
X1151Y2343D01*
X748Y2342D02*
X850Y2342D01*
X1048Y2342D02*
X1150Y2342D01*
X749Y2341D02*
X850Y2341D01*
X1049Y2341D02*
X1150Y2341D01*
X750Y2340D02*
X849Y2340D01*
X1050Y2340D02*
X1149Y2340D01*
X751Y2339D02*
X848Y2339D01*
X1051Y2339D02*
X1148Y2339D01*
X752Y2338D02*
X847Y2338D01*
X1052Y2338D02*
X1147Y2338D01*
X753Y2337D02*
X846Y2337D01*
X1053Y2337D02*
X1146Y2337D01*
X754Y2336D02*
X845Y2336D01*
X1054Y2336D02*
X1145Y2336D01*
X755Y2335D02*
X844Y2335D01*
X1055Y2335D02*
X1144Y2335D01*
X756Y2334D02*
X842Y2334D01*
X1056Y2334D02*
X1142Y2334D01*
X758Y2333D02*
X841Y2333D01*
X1058Y2333D02*
X1141Y2333D01*
X760Y2332D02*
X839Y2332D01*
X1060Y2332D02*
X1139Y2332D01*
X762Y2331D02*
X837Y2331D01*
X1062Y2331D02*
X1137Y2331D01*
X765Y2330D02*
X834Y2330D01*
X1065Y2330D02*
X1134Y2330D01*
X769Y2329D02*
X830Y2329D01*
X1069Y2329D02*
X1130Y2329D01*
X769Y2290D02*
X830Y2290D01*
X1069Y2290D02*
X1130Y2290D01*
X765Y2289D02*
X834Y2289D01*
X1065Y2289D02*
X1134Y2289D01*
X762Y2288D02*
X837Y2288D01*
X1062Y2288D02*
X1137Y2288D01*
X760Y2287D02*
X839Y2287D01*
X1060Y2287D02*
X1139Y2287D01*
X758Y2286D02*
X841Y2286D01*
X1058Y2286D02*
X1141Y2286D01*
X756Y2285D02*
X842Y2285D01*
X1056Y2285D02*
X1142Y2285D01*
X755Y2284D02*
X844Y2284D01*
X1055Y2284D02*
X1144Y2284D01*
X754Y2283D02*
X845Y2283D01*
X1054Y2283D02*
X1145Y2283D01*
X753Y2282D02*
X846Y2282D01*
X1053Y2282D02*
X1146Y2282D01*
X752Y2281D02*
X847Y2281D01*
X1052Y2281D02*
X1147Y2281D01*
X751Y2280D02*
X848Y2280D01*
X1051Y2280D02*
X1148Y2280D01*
X750Y2279D02*
X849Y2279D01*
X1050Y2279D02*
X1149Y2279D01*
X749Y2278D02*
X850Y2278D01*
X1049Y2278D02*
X1150Y2278D01*
X748Y2277D02*
X850Y2277D01*
X1048Y2277D02*
X1150Y2277D01*
X748Y2276D02*
X851Y2276D01*
X1048Y2276D02*
X1151Y2276D01*
X747Y2275D02*
X852Y2275D01*
X1047Y2275D02*
X1152Y2275D01*
X747Y2274D02*
X852Y2274D01*
X1047Y2274D02*
X1152Y2274D01*
X746Y2273D02*
X853Y2273D01*
X1046Y2273D02*
X1153Y2273D01*
X746Y2272D02*
X853Y2272D01*
X1046Y2272D02*
X1153Y2272D01*
X745Y2271D02*
X854Y2271D01*
X1045Y2271D02*
X1154Y2271D01*
X745Y2270D02*
X796Y2270D01*
X803Y2270D02*
X854Y2270D01*
X1045Y2270D02*
X1095Y2270D01*
X1103Y2270D02*
X1154Y2270D01*
X744Y2269D02*
X793Y2269D01*
X806Y2269D02*
X854Y2269D01*
X1044Y2269D02*
X1093Y2269D01*
X1105Y2269D02*
X1154Y2269D01*
X744Y2268D02*
X792Y2268D01*
X807Y2268D02*
X855Y2268D01*
X1044Y2268D02*
X1092Y2268D01*
X1107Y2268D02*
X1155Y2268D01*
X744Y2267D02*
X791Y2267D01*
X808Y2267D02*
X855Y2267D01*
X1044Y2267D02*
X1091Y2267D01*
X1108Y2267D02*
X1155Y2267D01*
X744Y2266D02*
X790Y2266D01*
X809Y2266D02*
X855Y2266D01*
X1044Y2266D02*
X1090Y2266D01*
X1109Y2266D02*
X1155Y2266D01*
X743Y2265D02*
X789Y2265D01*
X809Y2265D02*
X855Y2265D01*
X1043Y2265D02*
X1089Y2265D01*
X1109Y2265D02*
X1155Y2265D01*
X743Y2264D02*
X789Y2264D01*
X810Y2264D02*
X856Y2264D01*
X1043Y2264D02*
X1089Y2264D01*
X1110Y2264D02*
X1155Y2264D01*
X743Y2263D02*
X788Y2263D01*
X810Y2263D02*
X856Y2263D01*
X1043Y2263D02*
X1088Y2263D01*
X1110Y2263D02*
X1156Y2263D01*
X743Y2262D02*
X788Y2262D01*
X811Y2262D02*
X856Y2262D01*
X1043Y2262D02*
X1088Y2262D01*
X1111Y2262D02*
X1156Y2262D01*
X743Y2261D02*
X788Y2261D01*
X811Y2261D02*
X856Y2261D01*
X1043Y2261D02*
X1088Y2261D01*
X1111Y2261D02*
X1156Y2261D01*
X743Y2260D02*
X788Y2260D01*
X811Y2260D02*
X856Y2260D01*
X1043Y2260D02*
X1088Y2260D01*
X1111Y2260D02*
X1156Y2260D01*
X743Y2259D02*
X788Y2259D01*
X811Y2259D02*
X856Y2259D01*
X1043Y2259D02*
X1088Y2259D01*
X1111Y2259D02*
X1156Y2259D01*
X743Y2258D02*
X788Y2258D01*
X811Y2258D02*
X856Y2258D01*
X1043Y2258D02*
X1088Y2258D01*
X1111Y2258D02*
X1156Y2258D01*
X743Y2257D02*
X788Y2257D01*
X811Y2257D02*
X856Y2257D01*
X1043Y2257D02*
X1088Y2257D01*
X1111Y2257D02*
X1156Y2257D01*
X743Y2256D02*
X788Y2256D01*
X810Y2256D02*
X856Y2256D01*
X1043Y2256D02*
X1088Y2256D01*
X1110Y2256D02*
X1156Y2256D01*
X743Y2255D02*
X789Y2255D01*
X810Y2255D02*
X856Y2255D01*
X1043Y2255D02*
X1089Y2255D01*
X1110Y2255D02*
X1155Y2255D01*
X743Y2254D02*
X789Y2254D01*
X809Y2254D02*
X855Y2254D01*
X1043Y2254D02*
X1089Y2254D01*
X1109Y2254D02*
X1155Y2254D01*
X744Y2253D02*
X790Y2253D01*
X809Y2253D02*
X855Y2253D01*
X1044Y2253D02*
X1090Y2253D01*
X1109Y2253D02*
X1155Y2253D01*
X744Y2252D02*
X791Y2252D01*
X808Y2252D02*
X855Y2252D01*
X1044Y2252D02*
X1091Y2252D01*
X1108Y2252D02*
X1155Y2252D01*
X744Y2251D02*
X792Y2251D01*
X807Y2251D02*
X855Y2251D01*
X1044Y2251D02*
X1092Y2251D01*
X1107Y2251D02*
X1155Y2251D01*
X745Y2250D02*
X793Y2250D01*
X805Y2250D02*
X854Y2250D01*
X1044Y2250D02*
X1093Y2250D01*
X1105Y2250D02*
X1154Y2250D01*
X745Y2249D02*
X796Y2249D01*
X803Y2249D02*
X854Y2249D01*
X1045Y2249D02*
X1096Y2249D01*
X1103Y2249D02*
X1154Y2249D01*
X745Y2248D02*
X854Y2248D01*
X1045Y2248D02*
X1154Y2248D01*
X746Y2247D02*
X853Y2247D01*
X1046Y2247D02*
X1153Y2247D01*
X746Y2246D02*
X853Y2246D01*
X1046Y2246D02*
X1153Y2246D01*
X747Y2245D02*
X852Y2245D01*
X1047Y2245D02*
X1152Y2245D01*
X747Y2244D02*
X852Y2244D01*
X1047Y2244D02*
X1152Y2244D01*
X748Y2243D02*
X851Y2243D01*
X1048Y2243D02*
X1151Y2243D01*
X748Y2242D02*
X850Y2242D01*
X1048Y2242D02*
X1150Y2242D01*
X749Y2241D02*
X850Y2241D01*
X1049Y2241D02*
X1150Y2241D01*
X750Y2240D02*
X849Y2240D01*
X1050Y2240D02*
X1149Y2240D01*
X751Y2239D02*
X848Y2239D01*
X1051Y2239D02*
X1148Y2239D01*
X752Y2238D02*
X847Y2238D01*
X1052Y2238D02*
X1147Y2238D01*
X753Y2237D02*
X846Y2237D01*
X1053Y2237D02*
X1146Y2237D01*
X754Y2236D02*
X845Y2236D01*
X1054Y2236D02*
X1145Y2236D01*
X755Y2235D02*
X844Y2235D01*
X1055Y2235D02*
X1144Y2235D01*
X756Y2234D02*
X842Y2234D01*
X1056Y2234D02*
X1142Y2234D01*
X758Y2233D02*
X841Y2233D01*
X1058Y2233D02*
X1141Y2233D01*
X760Y2232D02*
X839Y2232D01*
X1060Y2232D02*
X1139Y2232D01*
X762Y2231D02*
X837Y2231D01*
X1062Y2231D02*
X1137Y2231D01*
X765Y2230D02*
X834Y2230D01*
X1065Y2230D02*
X1134Y2230D01*
X769Y2229D02*
X830Y2229D01*
X1069Y2229D02*
X1130Y2229D01*
X769Y2190D02*
X830Y2190D01*
X1069Y2190D02*
X1130Y2190D01*
X765Y2189D02*
X834Y2189D01*
X1065Y2189D02*
X1134Y2189D01*
X762Y2188D02*
X837Y2188D01*
X1062Y2188D02*
X1137Y2188D01*
X760Y2187D02*
X839Y2187D01*
X1060Y2187D02*
X1139Y2187D01*
X758Y2186D02*
X841Y2186D01*
X1058Y2186D02*
X1141Y2186D01*
X756Y2185D02*
X842Y2185D01*
X1056Y2185D02*
X1142Y2185D01*
X755Y2184D02*
X844Y2184D01*
X1055Y2184D02*
X1144Y2184D01*
X754Y2183D02*
X845Y2183D01*
X1054Y2183D02*
X1145Y2183D01*
X753Y2182D02*
X846Y2182D01*
X1053Y2182D02*
X1146Y2182D01*
X752Y2181D02*
X847Y2181D01*
X1052Y2181D02*
X1147Y2181D01*
X751Y2180D02*
X848Y2180D01*
X1051Y2180D02*
X1148Y2180D01*
X750Y2179D02*
X849Y2179D01*
X1050Y2179D02*
X1149Y2179D01*
X749Y2178D02*
X850Y2178D01*
X1049Y2178D02*
X1150Y2178D01*
X748Y2177D02*
X850Y2177D01*
X1048Y2177D02*
X1150Y2177D01*
X748Y2176D02*
X851Y2176D01*
X1048Y2176D02*
X1151Y2176D01*
X747Y2175D02*
X852Y2175D01*
X1047Y2175D02*
X1152Y2175D01*
X747Y2174D02*
X852Y2174D01*
X1047Y2174D02*
X1152Y2174D01*
X746Y2173D02*
X853Y2173D01*
X1046Y2173D02*
X1153Y2173D01*
X746Y2172D02*
X853Y2172D01*
X1046Y2172D02*
X1153Y2172D01*
X745Y2171D02*
X854Y2171D01*
X1045Y2171D02*
X1154Y2171D01*
X745Y2170D02*
X796Y2170D01*
X803Y2170D02*
X854Y2170D01*
X1045Y2170D02*
X1095Y2170D01*
X1103Y2170D02*
X1154Y2170D01*
X744Y2169D02*
X793Y2169D01*
X806Y2169D02*
X854Y2169D01*
X1044Y2169D02*
X1093Y2169D01*
X1105Y2169D02*
X1154Y2169D01*
X744Y2168D02*
X792Y2168D01*
X807Y2168D02*
X855Y2168D01*
X1044Y2168D02*
X1092Y2168D01*
X1107Y2168D02*
X1155Y2168D01*
X744Y2167D02*
X791Y2167D01*
X808Y2167D02*
X855Y2167D01*
X1044Y2167D02*
X1091Y2167D01*
X1108Y2167D02*
X1155Y2167D01*
X744Y2166D02*
X790Y2166D01*
X809Y2166D02*
X855Y2166D01*
X1044Y2166D02*
X1090Y2166D01*
X1109Y2166D02*
X1155Y2166D01*
X743Y2165D02*
X789Y2165D01*
X809Y2165D02*
X855Y2165D01*
X1043Y2165D02*
X1089Y2165D01*
X1109Y2165D02*
X1155Y2165D01*
X743Y2164D02*
X789Y2164D01*
X810Y2164D02*
X856Y2164D01*
X1043Y2164D02*
X1089Y2164D01*
X1110Y2164D02*
X1155Y2164D01*
X743Y2163D02*
X788Y2163D01*
X810Y2163D02*
X856Y2163D01*
X1043Y2163D02*
X1088Y2163D01*
X1110Y2163D02*
X1156Y2163D01*
X743Y2162D02*
X788Y2162D01*
X811Y2162D02*
X856Y2162D01*
X1043Y2162D02*
X1088Y2162D01*
X1111Y2162D02*
X1156Y2162D01*
X743Y2161D02*
X788Y2161D01*
X811Y2161D02*
X856Y2161D01*
X1043Y2161D02*
X1088Y2161D01*
X1111Y2161D02*
X1156Y2161D01*
X743Y2160D02*
X788Y2160D01*
X811Y2160D02*
X856Y2160D01*
X1043Y2160D02*
X1088Y2160D01*
X1111Y2160D02*
X1156Y2160D01*
X743Y2159D02*
X788Y2159D01*
X811Y2159D02*
X856Y2159D01*
X1043Y2159D02*
X1088Y2159D01*
X1111Y2159D02*
X1156Y2159D01*
X743Y2158D02*
X788Y2158D01*
X811Y2158D02*
X856Y2158D01*
X1043Y2158D02*
X1088Y2158D01*
X1111Y2158D02*
X1156Y2158D01*
X743Y2157D02*
X788Y2157D01*
X811Y2157D02*
X856Y2157D01*
X1043Y2157D02*
X1088Y2157D01*
X1111Y2157D02*
X1156Y2157D01*
X743Y2156D02*
X788Y2156D01*
X810Y2156D02*
X856Y2156D01*
X1043Y2156D02*
X1088Y2156D01*
X1110Y2156D02*
X1156Y2156D01*
X743Y2155D02*
X789Y2155D01*
X810Y2155D02*
X856Y2155D01*
X1043Y2155D02*
X1089Y2155D01*
X1110Y2155D02*
X1155Y2155D01*
X743Y2154D02*
X789Y2154D01*
X809Y2154D02*
X855Y2154D01*
X1043Y2154D02*
X1089Y2154D01*
X1109Y2154D02*
X1155Y2154D01*
X744Y2153D02*
X790Y2153D01*
X809Y2153D02*
X855Y2153D01*
X1044Y2153D02*
X1090Y2153D01*
X1109Y2153D02*
X1155Y2153D01*
X744Y2152D02*
X791Y2152D01*
X808Y2152D02*
X855Y2152D01*
X1044Y2152D02*
X1091Y2152D01*
X1108Y2152D02*
X1155Y2152D01*
X744Y2151D02*
X792Y2151D01*
X807Y2151D02*
X855Y2151D01*
X1044Y2151D02*
X1092Y2151D01*
X1107Y2151D02*
X1155Y2151D01*
X745Y2150D02*
X793Y2150D01*
X805Y2150D02*
X854Y2150D01*
X1044Y2150D02*
X1093Y2150D01*
X1105Y2150D02*
X1154Y2150D01*
X745Y2149D02*
X796Y2149D01*
X803Y2149D02*
X854Y2149D01*
X1045Y2149D02*
X1096Y2149D01*
X1103Y2149D02*
X1154Y2149D01*
X745Y2148D02*
X854Y2148D01*
X1045Y2148D02*
X1154Y2148D01*
X746Y2147D02*
X853Y2147D01*
X1046Y2147D02*
X1153Y2147D01*
X746Y2146D02*
X853Y2146D01*
X1046Y2146D02*
X1153Y2146D01*
X747Y2145D02*
X852Y2145D01*
X1047Y2145D02*
X1152Y2145D01*
X747Y2144D02*
X852Y2144D01*
X1047Y2144D02*
X1152Y2144D01*
X748Y2143D02*
X851Y2143D01*
X1048Y2143D02*
X1151Y2143D01*
X748Y2142D02*
X850Y2142D01*
X1048Y2142D02*
X1150Y2142D01*
X749Y2141D02*
X850Y2141D01*
X1049Y2141D02*
X1150Y2141D01*
X750Y2140D02*
X849Y2140D01*
X1050Y2140D02*
X1149Y2140D01*
X751Y2139D02*
X848Y2139D01*
X1051Y2139D02*
X1148Y2139D01*
X752Y2138D02*
X847Y2138D01*
X1052Y2138D02*
X1147Y2138D01*
X753Y2137D02*
X846Y2137D01*
X1053Y2137D02*
X1146Y2137D01*
X754Y2136D02*
X845Y2136D01*
X1054Y2136D02*
X1145Y2136D01*
X755Y2135D02*
X844Y2135D01*
X1055Y2135D02*
X1144Y2135D01*
X756Y2134D02*
X842Y2134D01*
X1056Y2134D02*
X1142Y2134D01*
X758Y2133D02*
X841Y2133D01*
X1058Y2133D02*
X1141Y2133D01*
X760Y2132D02*
X839Y2132D01*
X1060Y2132D02*
X1139Y2132D01*
X762Y2131D02*
X837Y2131D01*
X1062Y2131D02*
X1137Y2131D01*
X765Y2130D02*
X834Y2130D01*
X1065Y2130D02*
X1134Y2130D01*
X769Y2129D02*
X830Y2129D01*
X1069Y2129D02*
X1130Y2129D01*
X769Y2090D02*
X830Y2090D01*
X1069Y2090D02*
X1130Y2090D01*
X765Y2089D02*
X834Y2089D01*
X1065Y2089D02*
X1134Y2089D01*
X762Y2088D02*
X837Y2088D01*
X1062Y2088D02*
X1137Y2088D01*
X760Y2087D02*
X839Y2087D01*
X1060Y2087D02*
X1139Y2087D01*
X758Y2086D02*
X841Y2086D01*
X1058Y2086D02*
X1141Y2086D01*
X756Y2085D02*
X842Y2085D01*
X1056Y2085D02*
X1142Y2085D01*
X755Y2084D02*
X844Y2084D01*
X1055Y2084D02*
X1144Y2084D01*
X754Y2083D02*
X845Y2083D01*
X1054Y2083D02*
X1145Y2083D01*
X753Y2082D02*
X846Y2082D01*
X1053Y2082D02*
X1146Y2082D01*
X752Y2081D02*
X847Y2081D01*
X1052Y2081D02*
X1147Y2081D01*
X751Y2080D02*
X848Y2080D01*
X1051Y2080D02*
X1148Y2080D01*
X750Y2079D02*
X849Y2079D01*
X1050Y2079D02*
X1149Y2079D01*
X749Y2078D02*
X850Y2078D01*
X1049Y2078D02*
X1150Y2078D01*
X748Y2077D02*
X850Y2077D01*
X1048Y2077D02*
X1150Y2077D01*
X748Y2076D02*
X851Y2076D01*
X1048Y2076D02*
X1151Y2076D01*
X747Y2075D02*
X852Y2075D01*
X1047Y2075D02*
X1152Y2075D01*
X747Y2074D02*
X852Y2074D01*
X1047Y2074D02*
X1152Y2074D01*
X746Y2073D02*
X853Y2073D01*
X1046Y2073D02*
X1153Y2073D01*
X746Y2072D02*
X853Y2072D01*
X1046Y2072D02*
X1153Y2072D01*
X745Y2071D02*
X854Y2071D01*
X1045Y2071D02*
X1154Y2071D01*
X745Y2070D02*
X796Y2070D01*
X803Y2070D02*
X854Y2070D01*
X1045Y2070D02*
X1095Y2070D01*
X1103Y2070D02*
X1154Y2070D01*
X744Y2069D02*
X793Y2069D01*
X806Y2069D02*
X854Y2069D01*
X1044Y2069D02*
X1093Y2069D01*
X1105Y2069D02*
X1154Y2069D01*
X744Y2068D02*
X792Y2068D01*
X807Y2068D02*
X855Y2068D01*
X1044Y2068D02*
X1092Y2068D01*
X1107Y2068D02*
X1155Y2068D01*
X744Y2067D02*
X791Y2067D01*
X808Y2067D02*
X855Y2067D01*
X1044Y2067D02*
X1091Y2067D01*
X1108Y2067D02*
X1155Y2067D01*
X744Y2066D02*
X790Y2066D01*
X809Y2066D02*
X855Y2066D01*
X1044Y2066D02*
X1090Y2066D01*
X1109Y2066D02*
X1155Y2066D01*
X743Y2065D02*
X789Y2065D01*
X809Y2065D02*
X855Y2065D01*
X1043Y2065D02*
X1089Y2065D01*
X1109Y2065D02*
X1155Y2065D01*
X743Y2064D02*
X789Y2064D01*
X810Y2064D02*
X856Y2064D01*
X1043Y2064D02*
X1089Y2064D01*
X1110Y2064D02*
X1155Y2064D01*
X743Y2063D02*
X788Y2063D01*
X810Y2063D02*
X856Y2063D01*
X1043Y2063D02*
X1088Y2063D01*
X1110Y2063D02*
X1156Y2063D01*
X743Y2062D02*
X788Y2062D01*
X811Y2062D02*
X856Y2062D01*
X1043Y2062D02*
X1088Y2062D01*
X1111Y2062D02*
X1156Y2062D01*
X743Y2061D02*
X788Y2061D01*
X811Y2061D02*
X856Y2061D01*
X1043Y2061D02*
X1088Y2061D01*
X1111Y2061D02*
X1156Y2061D01*
X743Y2060D02*
X788Y2060D01*
X811Y2060D02*
X856Y2060D01*
X1043Y2060D02*
X1088Y2060D01*
X1111Y2060D02*
X1156Y2060D01*
X743Y2059D02*
X788Y2059D01*
X811Y2059D02*
X856Y2059D01*
X1043Y2059D02*
X1088Y2059D01*
X1111Y2059D02*
X1156Y2059D01*
X743Y2058D02*
X788Y2058D01*
X811Y2058D02*
X856Y2058D01*
X1043Y2058D02*
X1088Y2058D01*
X1111Y2058D02*
X1156Y2058D01*
X743Y2057D02*
X788Y2057D01*
X811Y2057D02*
X856Y2057D01*
X1043Y2057D02*
X1088Y2057D01*
X1111Y2057D02*
X1156Y2057D01*
X743Y2056D02*
X788Y2056D01*
X810Y2056D02*
X856Y2056D01*
X1043Y2056D02*
X1088Y2056D01*
X1110Y2056D02*
X1156Y2056D01*
X743Y2055D02*
X789Y2055D01*
X810Y2055D02*
X856Y2055D01*
X1043Y2055D02*
X1089Y2055D01*
X1110Y2055D02*
X1155Y2055D01*
X743Y2054D02*
X789Y2054D01*
X809Y2054D02*
X855Y2054D01*
X1043Y2054D02*
X1089Y2054D01*
X1109Y2054D02*
X1155Y2054D01*
X744Y2053D02*
X790Y2053D01*
X809Y2053D02*
X855Y2053D01*
X1044Y2053D02*
X1090Y2053D01*
X1109Y2053D02*
X1155Y2053D01*
X744Y2052D02*
X791Y2052D01*
X808Y2052D02*
X855Y2052D01*
X1044Y2052D02*
X1091Y2052D01*
X1108Y2052D02*
X1155Y2052D01*
X744Y2051D02*
X792Y2051D01*
X807Y2051D02*
X855Y2051D01*
X1044Y2051D02*
X1092Y2051D01*
X1107Y2051D02*
X1155Y2051D01*
X745Y2050D02*
X793Y2050D01*
X805Y2050D02*
X854Y2050D01*
X1044Y2050D02*
X1093Y2050D01*
X1105Y2050D02*
X1154Y2050D01*
X745Y2049D02*
X796Y2049D01*
X803Y2049D02*
X854Y2049D01*
X1045Y2049D02*
X1096Y2049D01*
X1103Y2049D02*
X1154Y2049D01*
X745Y2048D02*
X854Y2048D01*
X1045Y2048D02*
X1154Y2048D01*
X746Y2047D02*
X853Y2047D01*
X1046Y2047D02*
X1153Y2047D01*
X746Y2046D02*
X853Y2046D01*
X1046Y2046D02*
X1153Y2046D01*
X747Y2045D02*
X852Y2045D01*
X1047Y2045D02*
X1152Y2045D01*
X747Y2044D02*
X852Y2044D01*
X1047Y2044D02*
X1152Y2044D01*
X748Y2043D02*
X851Y2043D01*
X1048Y2043D02*
X1151Y2043D01*
X748Y2042D02*
X850Y2042D01*
X1048Y2042D02*
X1150Y2042D01*
X749Y2041D02*
X850Y2041D01*
X1049Y2041D02*
X1150Y2041D01*
X750Y2040D02*
X849Y2040D01*
X1050Y2040D02*
X1149Y2040D01*
X751Y2039D02*
X848Y2039D01*
X1051Y2039D02*
X1148Y2039D01*
X752Y2038D02*
X847Y2038D01*
X1052Y2038D02*
X1147Y2038D01*
X753Y2037D02*
X846Y2037D01*
X1053Y2037D02*
X1146Y2037D01*
X754Y2036D02*
X845Y2036D01*
X1054Y2036D02*
X1145Y2036D01*
X755Y2035D02*
X844Y2035D01*
X1055Y2035D02*
X1144Y2035D01*
X756Y2034D02*
X842Y2034D01*
X1056Y2034D02*
X1142Y2034D01*
X758Y2033D02*
X841Y2033D01*
X1058Y2033D02*
X1141Y2033D01*
X760Y2032D02*
X839Y2032D01*
X1060Y2032D02*
X1139Y2032D01*
X762Y2031D02*
X837Y2031D01*
X1062Y2031D02*
X1137Y2031D01*
X765Y2030D02*
X834Y2030D01*
X1065Y2030D02*
X1134Y2030D01*
X769Y2029D02*
X830Y2029D01*
X1069Y2029D02*
X1130Y2029D01*
X769Y1990D02*
X830Y1990D01*
X1069Y1990D02*
X1130Y1990D01*
X765Y1989D02*
X834Y1989D01*
X1065Y1989D02*
X1134Y1989D01*
X762Y1988D02*
X837Y1988D01*
X1062Y1988D02*
X1137Y1988D01*
X760Y1987D02*
X839Y1987D01*
X1060Y1987D02*
X1139Y1987D01*
X758Y1986D02*
X841Y1986D01*
X1058Y1986D02*
X1141Y1986D01*
X756Y1985D02*
X842Y1985D01*
X1056Y1985D02*
X1142Y1985D01*
X755Y1984D02*
X844Y1984D01*
X1055Y1984D02*
X1144Y1984D01*
X754Y1983D02*
X845Y1983D01*
X1054Y1983D02*
X1145Y1983D01*
X753Y1982D02*
X846Y1982D01*
X1053Y1982D02*
X1146Y1982D01*
X752Y1981D02*
X847Y1981D01*
X1052Y1981D02*
X1147Y1981D01*
X751Y1980D02*
X848Y1980D01*
X1051Y1980D02*
X1148Y1980D01*
X750Y1979D02*
X849Y1979D01*
X1050Y1979D02*
X1149Y1979D01*
X749Y1978D02*
X850Y1978D01*
X1049Y1978D02*
X1150Y1978D01*
X748Y1977D02*
X850Y1977D01*
X1048Y1977D02*
X1150Y1977D01*
X748Y1976D02*
X851Y1976D01*
X1048Y1976D02*
X1151Y1976D01*
X747Y1975D02*
X852Y1975D01*
X1047Y1975D02*
X1152Y1975D01*
X747Y1974D02*
X852Y1974D01*
X1047Y1974D02*
X1152Y1974D01*
X746Y1973D02*
X853Y1973D01*
X1046Y1973D02*
X1153Y1973D01*
X746Y1972D02*
X853Y1972D01*
X1046Y1972D02*
X1153Y1972D01*
X745Y1971D02*
X854Y1971D01*
X1045Y1971D02*
X1154Y1971D01*
X745Y1970D02*
X795Y1970D01*
X803Y1970D02*
X854Y1970D01*
X1045Y1970D02*
X1095Y1970D01*
X1103Y1970D02*
X1154Y1970D01*
X744Y1969D02*
X793Y1969D01*
X806Y1969D02*
X854Y1969D01*
X1044Y1969D02*
X1093Y1969D01*
X1105Y1969D02*
X1154Y1969D01*
X744Y1968D02*
X792Y1968D01*
X807Y1968D02*
X855Y1968D01*
X1044Y1968D02*
X1092Y1968D01*
X1107Y1968D02*
X1155Y1968D01*
X744Y1967D02*
X791Y1967D01*
X808Y1967D02*
X855Y1967D01*
X1044Y1967D02*
X1091Y1967D01*
X1108Y1967D02*
X1155Y1967D01*
X744Y1966D02*
X790Y1966D01*
X809Y1966D02*
X855Y1966D01*
X1044Y1966D02*
X1090Y1966D01*
X1109Y1966D02*
X1155Y1966D01*
X743Y1965D02*
X789Y1965D01*
X809Y1965D02*
X855Y1965D01*
X1043Y1965D02*
X1089Y1965D01*
X1109Y1965D02*
X1155Y1965D01*
X743Y1964D02*
X789Y1964D01*
X810Y1964D02*
X856Y1964D01*
X1043Y1964D02*
X1089Y1964D01*
X1110Y1964D02*
X1155Y1964D01*
X743Y1963D02*
X788Y1963D01*
X810Y1963D02*
X856Y1963D01*
X1043Y1963D02*
X1088Y1963D01*
X1110Y1963D02*
X1156Y1963D01*
X743Y1962D02*
X788Y1962D01*
X811Y1962D02*
X856Y1962D01*
X1043Y1962D02*
X1088Y1962D01*
X1111Y1962D02*
X1156Y1962D01*
X743Y1961D02*
X788Y1961D01*
X811Y1961D02*
X856Y1961D01*
X1043Y1961D02*
X1088Y1961D01*
X1111Y1961D02*
X1156Y1961D01*
X743Y1960D02*
X788Y1960D01*
X811Y1960D02*
X856Y1960D01*
X1043Y1960D02*
X1088Y1960D01*
X1111Y1960D02*
X1156Y1960D01*
X743Y1959D02*
X788Y1959D01*
X811Y1959D02*
X856Y1959D01*
X1043Y1959D02*
X1088Y1959D01*
X1111Y1959D02*
X1156Y1959D01*
X743Y1958D02*
X788Y1958D01*
X811Y1958D02*
X856Y1958D01*
X1043Y1958D02*
X1088Y1958D01*
X1111Y1958D02*
X1156Y1958D01*
X743Y1957D02*
X788Y1957D01*
X811Y1957D02*
X856Y1957D01*
X1043Y1957D02*
X1088Y1957D01*
X1111Y1957D02*
X1156Y1957D01*
X743Y1956D02*
X788Y1956D01*
X810Y1956D02*
X856Y1956D01*
X1043Y1956D02*
X1088Y1956D01*
X1110Y1956D02*
X1156Y1956D01*
X743Y1955D02*
X789Y1955D01*
X810Y1955D02*
X856Y1955D01*
X1043Y1955D02*
X1089Y1955D01*
X1110Y1955D02*
X1155Y1955D01*
X743Y1954D02*
X789Y1954D01*
X809Y1954D02*
X855Y1954D01*
X1043Y1954D02*
X1089Y1954D01*
X1109Y1954D02*
X1155Y1954D01*
X744Y1953D02*
X790Y1953D01*
X809Y1953D02*
X855Y1953D01*
X1044Y1953D02*
X1090Y1953D01*
X1109Y1953D02*
X1155Y1953D01*
X744Y1952D02*
X791Y1952D01*
X808Y1952D02*
X855Y1952D01*
X1044Y1952D02*
X1091Y1952D01*
X1108Y1952D02*
X1155Y1952D01*
X744Y1951D02*
X792Y1951D01*
X807Y1951D02*
X855Y1951D01*
X1044Y1951D02*
X1092Y1951D01*
X1107Y1951D02*
X1155Y1951D01*
X745Y1950D02*
X793Y1950D01*
X805Y1950D02*
X854Y1950D01*
X1044Y1950D02*
X1093Y1950D01*
X1105Y1950D02*
X1154Y1950D01*
X745Y1949D02*
X796Y1949D01*
X803Y1949D02*
X854Y1949D01*
X1045Y1949D02*
X1096Y1949D01*
X1103Y1949D02*
X1154Y1949D01*
X745Y1948D02*
X854Y1948D01*
X1045Y1948D02*
X1154Y1948D01*
X746Y1947D02*
X853Y1947D01*
X1046Y1947D02*
X1153Y1947D01*
X746Y1946D02*
X853Y1946D01*
X1046Y1946D02*
X1153Y1946D01*
X747Y1945D02*
X852Y1945D01*
X1047Y1945D02*
X1152Y1945D01*
X747Y1944D02*
X852Y1944D01*
X1047Y1944D02*
X1152Y1944D01*
X748Y1943D02*
X851Y1943D01*
X1048Y1943D02*
X1151Y1943D01*
X748Y1942D02*
X850Y1942D01*
X1048Y1942D02*
X1150Y1942D01*
X749Y1941D02*
X850Y1941D01*
X1049Y1941D02*
X1150Y1941D01*
X750Y1940D02*
X849Y1940D01*
X1050Y1940D02*
X1149Y1940D01*
X751Y1939D02*
X848Y1939D01*
X1051Y1939D02*
X1148Y1939D01*
X752Y1938D02*
X847Y1938D01*
X1052Y1938D02*
X1147Y1938D01*
X753Y1937D02*
X846Y1937D01*
X1053Y1937D02*
X1146Y1937D01*
X754Y1936D02*
X845Y1936D01*
X1054Y1936D02*
X1145Y1936D01*
X755Y1935D02*
X844Y1935D01*
X1055Y1935D02*
X1144Y1935D01*
X756Y1934D02*
X842Y1934D01*
X1056Y1934D02*
X1142Y1934D01*
X758Y1933D02*
X841Y1933D01*
X1058Y1933D02*
X1141Y1933D01*
X760Y1932D02*
X839Y1932D01*
X1060Y1932D02*
X1139Y1932D01*
X762Y1931D02*
X837Y1931D01*
X1062Y1931D02*
X1137Y1931D01*
X765Y1930D02*
X834Y1930D01*
X1065Y1930D02*
X1134Y1930D01*
X769Y1929D02*
X830Y1929D01*
X1069Y1929D02*
X1130Y1929D01*
X769Y1890D02*
X830Y1890D01*
X1069Y1890D02*
X1130Y1890D01*
X765Y1889D02*
X834Y1889D01*
X1065Y1889D02*
X1134Y1889D01*
X762Y1888D02*
X837Y1888D01*
X1062Y1888D02*
X1137Y1888D01*
X760Y1887D02*
X839Y1887D01*
X1060Y1887D02*
X1139Y1887D01*
X758Y1886D02*
X841Y1886D01*
X1058Y1886D02*
X1141Y1886D01*
X756Y1885D02*
X842Y1885D01*
X1056Y1885D02*
X1142Y1885D01*
X755Y1884D02*
X844Y1884D01*
X1055Y1884D02*
X1144Y1884D01*
X754Y1883D02*
X845Y1883D01*
X1054Y1883D02*
X1145Y1883D01*
X753Y1882D02*
X846Y1882D01*
X1053Y1882D02*
X1146Y1882D01*
X752Y1881D02*
X847Y1881D01*
X1052Y1881D02*
X1147Y1881D01*
X751Y1880D02*
X848Y1880D01*
X1051Y1880D02*
X1148Y1880D01*
X750Y1879D02*
X849Y1879D01*
X1050Y1879D02*
X1149Y1879D01*
X749Y1878D02*
X850Y1878D01*
X1049Y1878D02*
X1150Y1878D01*
X748Y1877D02*
X850Y1877D01*
X1048Y1877D02*
X1150Y1877D01*
X748Y1876D02*
X851Y1876D01*
X1048Y1876D02*
X1151Y1876D01*
X747Y1875D02*
X852Y1875D01*
X1047Y1875D02*
X1152Y1875D01*
X747Y1874D02*
X852Y1874D01*
X1047Y1874D02*
X1152Y1874D01*
X746Y1873D02*
X853Y1873D01*
X1046Y1873D02*
X1153Y1873D01*
X746Y1872D02*
X853Y1872D01*
X1046Y1872D02*
X1153Y1872D01*
X745Y1871D02*
X854Y1871D01*
X1045Y1871D02*
X1154Y1871D01*
X745Y1870D02*
X795Y1870D01*
X803Y1870D02*
X854Y1870D01*
X1045Y1870D02*
X1095Y1870D01*
X1103Y1870D02*
X1154Y1870D01*
X744Y1869D02*
X793Y1869D01*
X806Y1869D02*
X854Y1869D01*
X1044Y1869D02*
X1093Y1869D01*
X1106Y1869D02*
X1154Y1869D01*
X744Y1868D02*
X792Y1868D01*
X807Y1868D02*
X855Y1868D01*
X1044Y1868D02*
X1092Y1868D01*
X1107Y1868D02*
X1155Y1868D01*
X744Y1867D02*
X791Y1867D01*
X808Y1867D02*
X855Y1867D01*
X1044Y1867D02*
X1091Y1867D01*
X1108Y1867D02*
X1155Y1867D01*
X744Y1866D02*
X790Y1866D01*
X809Y1866D02*
X855Y1866D01*
X1044Y1866D02*
X1090Y1866D01*
X1109Y1866D02*
X1155Y1866D01*
X743Y1865D02*
X789Y1865D01*
X809Y1865D02*
X855Y1865D01*
X1043Y1865D02*
X1089Y1865D01*
X1109Y1865D02*
X1155Y1865D01*
X743Y1864D02*
X789Y1864D01*
X810Y1864D02*
X856Y1864D01*
X1043Y1864D02*
X1089Y1864D01*
X1110Y1864D02*
X1155Y1864D01*
X743Y1863D02*
X788Y1863D01*
X810Y1863D02*
X856Y1863D01*
X1043Y1863D02*
X1088Y1863D01*
X1110Y1863D02*
X1156Y1863D01*
X743Y1862D02*
X788Y1862D01*
X811Y1862D02*
X856Y1862D01*
X1043Y1862D02*
X1088Y1862D01*
X1111Y1862D02*
X1156Y1862D01*
X743Y1861D02*
X788Y1861D01*
X811Y1861D02*
X856Y1861D01*
X1043Y1861D02*
X1088Y1861D01*
X1111Y1861D02*
X1156Y1861D01*
X743Y1860D02*
X788Y1860D01*
X811Y1860D02*
X856Y1860D01*
X1043Y1860D02*
X1088Y1860D01*
X1111Y1860D02*
X1156Y1860D01*
X743Y1859D02*
X788Y1859D01*
X811Y1859D02*
X856Y1859D01*
X1043Y1859D02*
X1088Y1859D01*
X1111Y1859D02*
X1156Y1859D01*
X743Y1858D02*
X788Y1858D01*
X811Y1858D02*
X856Y1858D01*
X1043Y1858D02*
X1088Y1858D01*
X1111Y1858D02*
X1156Y1858D01*
X743Y1857D02*
X788Y1857D01*
X811Y1857D02*
X856Y1857D01*
X1043Y1857D02*
X1088Y1857D01*
X1111Y1857D02*
X1156Y1857D01*
X743Y1856D02*
X788Y1856D01*
X810Y1856D02*
X856Y1856D01*
X1043Y1856D02*
X1088Y1856D01*
X1110Y1856D02*
X1156Y1856D01*
X743Y1855D02*
X789Y1855D01*
X810Y1855D02*
X856Y1855D01*
X1043Y1855D02*
X1089Y1855D01*
X1110Y1855D02*
X1155Y1855D01*
X743Y1854D02*
X789Y1854D01*
X809Y1854D02*
X855Y1854D01*
X1043Y1854D02*
X1089Y1854D01*
X1109Y1854D02*
X1155Y1854D01*
X744Y1853D02*
X790Y1853D01*
X809Y1853D02*
X855Y1853D01*
X1044Y1853D02*
X1090Y1853D01*
X1109Y1853D02*
X1155Y1853D01*
X744Y1852D02*
X791Y1852D01*
X808Y1852D02*
X855Y1852D01*
X1044Y1852D02*
X1091Y1852D01*
X1108Y1852D02*
X1155Y1852D01*
X744Y1851D02*
X792Y1851D01*
X807Y1851D02*
X855Y1851D01*
X1044Y1851D02*
X1092Y1851D01*
X1107Y1851D02*
X1155Y1851D01*
X745Y1850D02*
X793Y1850D01*
X805Y1850D02*
X854Y1850D01*
X1044Y1850D02*
X1093Y1850D01*
X1105Y1850D02*
X1154Y1850D01*
X745Y1849D02*
X796Y1849D01*
X803Y1849D02*
X854Y1849D01*
X1045Y1849D02*
X1096Y1849D01*
X1103Y1849D02*
X1154Y1849D01*
X745Y1848D02*
X854Y1848D01*
X1045Y1848D02*
X1154Y1848D01*
X746Y1847D02*
X853Y1847D01*
X1046Y1847D02*
X1153Y1847D01*
X746Y1846D02*
X853Y1846D01*
X1046Y1846D02*
X1153Y1846D01*
X747Y1845D02*
X852Y1845D01*
X1047Y1845D02*
X1152Y1845D01*
X747Y1844D02*
X852Y1844D01*
X1047Y1844D02*
X1152Y1844D01*
X748Y1843D02*
X851Y1843D01*
X1048Y1843D02*
X1151Y1843D01*
X748Y1842D02*
X850Y1842D01*
X1048Y1842D02*
X1150Y1842D01*
X749Y1841D02*
X850Y1841D01*
X1049Y1841D02*
X1150Y1841D01*
X750Y1840D02*
X849Y1840D01*
X1050Y1840D02*
X1149Y1840D01*
X751Y1839D02*
X848Y1839D01*
X1051Y1839D02*
X1148Y1839D01*
X752Y1838D02*
X847Y1838D01*
X1052Y1838D02*
X1147Y1838D01*
X753Y1837D02*
X846Y1837D01*
X1053Y1837D02*
X1146Y1837D01*
X754Y1836D02*
X845Y1836D01*
X1054Y1836D02*
X1145Y1836D01*
X755Y1835D02*
X844Y1835D01*
X1055Y1835D02*
X1144Y1835D01*
X756Y1834D02*
X842Y1834D01*
X1056Y1834D02*
X1142Y1834D01*
X758Y1833D02*
X841Y1833D01*
X1058Y1833D02*
X1141Y1833D01*
X760Y1832D02*
X839Y1832D01*
X1060Y1832D02*
X1139Y1832D01*
X762Y1831D02*
X837Y1831D01*
X1062Y1831D02*
X1137Y1831D01*
X765Y1830D02*
X834Y1830D01*
X1065Y1830D02*
X1134Y1830D01*
X769Y1829D02*
X830Y1829D01*
X1069Y1829D02*
X1130Y1829D01*
X769Y1790D02*
X830Y1790D01*
X1069Y1790D02*
X1130Y1790D01*
X765Y1789D02*
X834Y1789D01*
X1065Y1789D02*
X1134Y1789D01*
X762Y1788D02*
X837Y1788D01*
X1062Y1788D02*
X1137Y1788D01*
X760Y1787D02*
X839Y1787D01*
X1060Y1787D02*
X1139Y1787D01*
X758Y1786D02*
X841Y1786D01*
X1058Y1786D02*
X1141Y1786D01*
X756Y1785D02*
X842Y1785D01*
X1056Y1785D02*
X1142Y1785D01*
X755Y1784D02*
X844Y1784D01*
X1055Y1784D02*
X1144Y1784D01*
X754Y1783D02*
X845Y1783D01*
X1054Y1783D02*
X1145Y1783D01*
X753Y1782D02*
X846Y1782D01*
X1053Y1782D02*
X1146Y1782D01*
X752Y1781D02*
X847Y1781D01*
X1052Y1781D02*
X1147Y1781D01*
X751Y1780D02*
X848Y1780D01*
X1051Y1780D02*
X1148Y1780D01*
X750Y1779D02*
X849Y1779D01*
X1050Y1779D02*
X1149Y1779D01*
X749Y1778D02*
X850Y1778D01*
X1049Y1778D02*
X1150Y1778D01*
X748Y1777D02*
X850Y1777D01*
X1048Y1777D02*
X1150Y1777D01*
X748Y1776D02*
X851Y1776D01*
X1048Y1776D02*
X1151Y1776D01*
X747Y1775D02*
X852Y1775D01*
X1047Y1775D02*
X1152Y1775D01*
X747Y1774D02*
X852Y1774D01*
X1047Y1774D02*
X1152Y1774D01*
X746Y1773D02*
X853Y1773D01*
X1046Y1773D02*
X1153Y1773D01*
X746Y1772D02*
X853Y1772D01*
X1046Y1772D02*
X1153Y1772D01*
X745Y1771D02*
X854Y1771D01*
X1045Y1771D02*
X1154Y1771D01*
X745Y1770D02*
X795Y1770D01*
X803Y1770D02*
X854Y1770D01*
X1045Y1770D02*
X1095Y1770D01*
X1103Y1770D02*
X1154Y1770D01*
X744Y1769D02*
X793Y1769D01*
X806Y1769D02*
X854Y1769D01*
X1044Y1769D02*
X1093Y1769D01*
X1106Y1769D02*
X1154Y1769D01*
X744Y1768D02*
X792Y1768D01*
X807Y1768D02*
X855Y1768D01*
X1044Y1768D02*
X1092Y1768D01*
X1107Y1768D02*
X1155Y1768D01*
X744Y1767D02*
X791Y1767D01*
X808Y1767D02*
X855Y1767D01*
X1044Y1767D02*
X1091Y1767D01*
X1108Y1767D02*
X1155Y1767D01*
X744Y1766D02*
X790Y1766D01*
X809Y1766D02*
X855Y1766D01*
X1044Y1766D02*
X1090Y1766D01*
X1109Y1766D02*
X1155Y1766D01*
X743Y1765D02*
X789Y1765D01*
X809Y1765D02*
X855Y1765D01*
X1043Y1765D02*
X1089Y1765D01*
X1109Y1765D02*
X1155Y1765D01*
X743Y1764D02*
X789Y1764D01*
X810Y1764D02*
X856Y1764D01*
X1043Y1764D02*
X1089Y1764D01*
X1110Y1764D02*
X1155Y1764D01*
X743Y1763D02*
X788Y1763D01*
X810Y1763D02*
X856Y1763D01*
X1043Y1763D02*
X1088Y1763D01*
X1110Y1763D02*
X1156Y1763D01*
X743Y1762D02*
X788Y1762D01*
X811Y1762D02*
X856Y1762D01*
X1043Y1762D02*
X1088Y1762D01*
X1111Y1762D02*
X1156Y1762D01*
X743Y1761D02*
X788Y1761D01*
X811Y1761D02*
X856Y1761D01*
X1043Y1761D02*
X1088Y1761D01*
X1111Y1761D02*
X1156Y1761D01*
X743Y1760D02*
X788Y1760D01*
X811Y1760D02*
X856Y1760D01*
X1043Y1760D02*
X1088Y1760D01*
X1111Y1760D02*
X1156Y1760D01*
X743Y1759D02*
X788Y1759D01*
X811Y1759D02*
X856Y1759D01*
X1043Y1759D02*
X1088Y1759D01*
X1111Y1759D02*
X1156Y1759D01*
X743Y1758D02*
X788Y1758D01*
X811Y1758D02*
X856Y1758D01*
X1043Y1758D02*
X1088Y1758D01*
X1111Y1758D02*
X1156Y1758D01*
X743Y1757D02*
X788Y1757D01*
X811Y1757D02*
X856Y1757D01*
X1043Y1757D02*
X1088Y1757D01*
X1111Y1757D02*
X1156Y1757D01*
X743Y1756D02*
X788Y1756D01*
X810Y1756D02*
X856Y1756D01*
X1043Y1756D02*
X1088Y1756D01*
X1110Y1756D02*
X1156Y1756D01*
X743Y1755D02*
X789Y1755D01*
X810Y1755D02*
X856Y1755D01*
X1043Y1755D02*
X1089Y1755D01*
X1110Y1755D02*
X1155Y1755D01*
X743Y1754D02*
X789Y1754D01*
X809Y1754D02*
X855Y1754D01*
X1043Y1754D02*
X1089Y1754D01*
X1109Y1754D02*
X1155Y1754D01*
X744Y1753D02*
X790Y1753D01*
X809Y1753D02*
X855Y1753D01*
X1044Y1753D02*
X1090Y1753D01*
X1109Y1753D02*
X1155Y1753D01*
X744Y1752D02*
X791Y1752D01*
X808Y1752D02*
X855Y1752D01*
X1044Y1752D02*
X1091Y1752D01*
X1108Y1752D02*
X1155Y1752D01*
X744Y1751D02*
X792Y1751D01*
X807Y1751D02*
X855Y1751D01*
X1044Y1751D02*
X1092Y1751D01*
X1107Y1751D02*
X1155Y1751D01*
X745Y1750D02*
X793Y1750D01*
X805Y1750D02*
X854Y1750D01*
X1044Y1750D02*
X1093Y1750D01*
X1105Y1750D02*
X1154Y1750D01*
X745Y1749D02*
X796Y1749D01*
X803Y1749D02*
X854Y1749D01*
X1045Y1749D02*
X1096Y1749D01*
X1103Y1749D02*
X1154Y1749D01*
X745Y1748D02*
X854Y1748D01*
X1045Y1748D02*
X1154Y1748D01*
X746Y1747D02*
X853Y1747D01*
X1046Y1747D02*
X1153Y1747D01*
X746Y1746D02*
X853Y1746D01*
X1046Y1746D02*
X1153Y1746D01*
X747Y1745D02*
X852Y1745D01*
X1047Y1745D02*
X1152Y1745D01*
X747Y1744D02*
X852Y1744D01*
X1047Y1744D02*
X1152Y1744D01*
X748Y1743D02*
X851Y1743D01*
X1048Y1743D02*
X1151Y1743D01*
X748Y1742D02*
X850Y1742D01*
X1048Y1742D02*
X1150Y1742D01*
X749Y1741D02*
X850Y1741D01*
X1049Y1741D02*
X1150Y1741D01*
X750Y1740D02*
X849Y1740D01*
X1050Y1740D02*
X1149Y1740D01*
X751Y1739D02*
X848Y1739D01*
X1051Y1739D02*
X1148Y1739D01*
X752Y1738D02*
X847Y1738D01*
X1052Y1738D02*
X1147Y1738D01*
X753Y1737D02*
X846Y1737D01*
X1053Y1737D02*
X1146Y1737D01*
X754Y1736D02*
X845Y1736D01*
X1054Y1736D02*
X1145Y1736D01*
X755Y1735D02*
X844Y1735D01*
X1055Y1735D02*
X1144Y1735D01*
X756Y1734D02*
X842Y1734D01*
X1056Y1734D02*
X1142Y1734D01*
X758Y1733D02*
X841Y1733D01*
X1058Y1733D02*
X1141Y1733D01*
X760Y1732D02*
X839Y1732D01*
X1060Y1732D02*
X1139Y1732D01*
X762Y1731D02*
X837Y1731D01*
X1062Y1731D02*
X1137Y1731D01*
X765Y1730D02*
X834Y1730D01*
X1065Y1730D02*
X1134Y1730D01*
X769Y1729D02*
X830Y1729D01*
X1069Y1729D02*
X1130Y1729D01*
X769Y1690D02*
X830Y1690D01*
X1069Y1690D02*
X1130Y1690D01*
X765Y1689D02*
X834Y1689D01*
X1065Y1689D02*
X1134Y1689D01*
X762Y1688D02*
X837Y1688D01*
X1062Y1688D02*
X1137Y1688D01*
X760Y1687D02*
X839Y1687D01*
X1060Y1687D02*
X1139Y1687D01*
X758Y1686D02*
X841Y1686D01*
X1058Y1686D02*
X1141Y1686D01*
X756Y1685D02*
X842Y1685D01*
X1056Y1685D02*
X1142Y1685D01*
X755Y1684D02*
X844Y1684D01*
X1055Y1684D02*
X1144Y1684D01*
X754Y1683D02*
X845Y1683D01*
X1054Y1683D02*
X1145Y1683D01*
X753Y1682D02*
X846Y1682D01*
X1053Y1682D02*
X1146Y1682D01*
X752Y1681D02*
X847Y1681D01*
X1052Y1681D02*
X1147Y1681D01*
X751Y1680D02*
X848Y1680D01*
X1051Y1680D02*
X1148Y1680D01*
X750Y1679D02*
X849Y1679D01*
X1050Y1679D02*
X1149Y1679D01*
X749Y1678D02*
X850Y1678D01*
X1049Y1678D02*
X1150Y1678D01*
X748Y1677D02*
X850Y1677D01*
X1048Y1677D02*
X1150Y1677D01*
X748Y1676D02*
X851Y1676D01*
X1048Y1676D02*
X1151Y1676D01*
X747Y1675D02*
X852Y1675D01*
X1047Y1675D02*
X1152Y1675D01*
X747Y1674D02*
X852Y1674D01*
X1047Y1674D02*
X1152Y1674D01*
X746Y1673D02*
X853Y1673D01*
X1046Y1673D02*
X1153Y1673D01*
X746Y1672D02*
X853Y1672D01*
X1046Y1672D02*
X1153Y1672D01*
X745Y1671D02*
X854Y1671D01*
X1045Y1671D02*
X1154Y1671D01*
X745Y1670D02*
X795Y1670D01*
X803Y1670D02*
X854Y1670D01*
X1045Y1670D02*
X1095Y1670D01*
X1103Y1670D02*
X1154Y1670D01*
X744Y1669D02*
X793Y1669D01*
X806Y1669D02*
X854Y1669D01*
X1044Y1669D02*
X1093Y1669D01*
X1106Y1669D02*
X1154Y1669D01*
X744Y1668D02*
X792Y1668D01*
X807Y1668D02*
X855Y1668D01*
X1044Y1668D02*
X1092Y1668D01*
X1107Y1668D02*
X1155Y1668D01*
X744Y1667D02*
X791Y1667D01*
X808Y1667D02*
X855Y1667D01*
X1044Y1667D02*
X1091Y1667D01*
X1108Y1667D02*
X1155Y1667D01*
X744Y1666D02*
X790Y1666D01*
X809Y1666D02*
X855Y1666D01*
X1044Y1666D02*
X1090Y1666D01*
X1109Y1666D02*
X1155Y1666D01*
X743Y1665D02*
X789Y1665D01*
X809Y1665D02*
X855Y1665D01*
X1043Y1665D02*
X1089Y1665D01*
X1109Y1665D02*
X1155Y1665D01*
X743Y1664D02*
X789Y1664D01*
X810Y1664D02*
X856Y1664D01*
X1043Y1664D02*
X1089Y1664D01*
X1110Y1664D02*
X1155Y1664D01*
X743Y1663D02*
X788Y1663D01*
X810Y1663D02*
X856Y1663D01*
X1043Y1663D02*
X1088Y1663D01*
X1110Y1663D02*
X1156Y1663D01*
X743Y1662D02*
X788Y1662D01*
X811Y1662D02*
X856Y1662D01*
X1043Y1662D02*
X1088Y1662D01*
X1111Y1662D02*
X1156Y1662D01*
X743Y1661D02*
X788Y1661D01*
X811Y1661D02*
X856Y1661D01*
X1043Y1661D02*
X1088Y1661D01*
X1111Y1661D02*
X1156Y1661D01*
X743Y1660D02*
X788Y1660D01*
X811Y1660D02*
X856Y1660D01*
X1043Y1660D02*
X1088Y1660D01*
X1111Y1660D02*
X1156Y1660D01*
X743Y1659D02*
X788Y1659D01*
X811Y1659D02*
X856Y1659D01*
X1043Y1659D02*
X1088Y1659D01*
X1111Y1659D02*
X1156Y1659D01*
X743Y1658D02*
X788Y1658D01*
X811Y1658D02*
X856Y1658D01*
X1043Y1658D02*
X1088Y1658D01*
X1111Y1658D02*
X1156Y1658D01*
X743Y1657D02*
X788Y1657D01*
X811Y1657D02*
X856Y1657D01*
X1043Y1657D02*
X1088Y1657D01*
X1111Y1657D02*
X1156Y1657D01*
X743Y1656D02*
X788Y1656D01*
X810Y1656D02*
X856Y1656D01*
X1043Y1656D02*
X1088Y1656D01*
X1110Y1656D02*
X1156Y1656D01*
X743Y1655D02*
X789Y1655D01*
X810Y1655D02*
X856Y1655D01*
X1043Y1655D02*
X1089Y1655D01*
X1110Y1655D02*
X1155Y1655D01*
X743Y1654D02*
X789Y1654D01*
X809Y1654D02*
X855Y1654D01*
X1043Y1654D02*
X1089Y1654D01*
X1109Y1654D02*
X1155Y1654D01*
X744Y1653D02*
X790Y1653D01*
X809Y1653D02*
X855Y1653D01*
X1044Y1653D02*
X1090Y1653D01*
X1109Y1653D02*
X1155Y1653D01*
X744Y1652D02*
X791Y1652D01*
X808Y1652D02*
X855Y1652D01*
X1044Y1652D02*
X1091Y1652D01*
X1108Y1652D02*
X1155Y1652D01*
X744Y1651D02*
X792Y1651D01*
X807Y1651D02*
X855Y1651D01*
X1044Y1651D02*
X1092Y1651D01*
X1107Y1651D02*
X1155Y1651D01*
X745Y1650D02*
X793Y1650D01*
X805Y1650D02*
X854Y1650D01*
X1044Y1650D02*
X1093Y1650D01*
X1105Y1650D02*
X1154Y1650D01*
X745Y1649D02*
X796Y1649D01*
X803Y1649D02*
X854Y1649D01*
X1045Y1649D02*
X1096Y1649D01*
X1103Y1649D02*
X1154Y1649D01*
X745Y1648D02*
X854Y1648D01*
X1045Y1648D02*
X1154Y1648D01*
X746Y1647D02*
X853Y1647D01*
X1046Y1647D02*
X1153Y1647D01*
X746Y1646D02*
X853Y1646D01*
X1046Y1646D02*
X1153Y1646D01*
X747Y1645D02*
X852Y1645D01*
X1047Y1645D02*
X1152Y1645D01*
X747Y1644D02*
X852Y1644D01*
X1047Y1644D02*
X1152Y1644D01*
X748Y1643D02*
X851Y1643D01*
X1048Y1643D02*
X1151Y1643D01*
X748Y1642D02*
X850Y1642D01*
X1048Y1642D02*
X1150Y1642D01*
X749Y1641D02*
X850Y1641D01*
X1049Y1641D02*
X1150Y1641D01*
X750Y1640D02*
X849Y1640D01*
X1050Y1640D02*
X1149Y1640D01*
X751Y1639D02*
X848Y1639D01*
X1051Y1639D02*
X1148Y1639D01*
X752Y1638D02*
X847Y1638D01*
X1052Y1638D02*
X1147Y1638D01*
X753Y1637D02*
X846Y1637D01*
X1053Y1637D02*
X1146Y1637D01*
X754Y1636D02*
X845Y1636D01*
X1054Y1636D02*
X1145Y1636D01*
X755Y1635D02*
X844Y1635D01*
X1055Y1635D02*
X1144Y1635D01*
X756Y1634D02*
X842Y1634D01*
X1056Y1634D02*
X1142Y1634D01*
X758Y1633D02*
X841Y1633D01*
X1058Y1633D02*
X1141Y1633D01*
X760Y1632D02*
X839Y1632D01*
X1060Y1632D02*
X1139Y1632D01*
X762Y1631D02*
X837Y1631D01*
X1062Y1631D02*
X1137Y1631D01*
X765Y1630D02*
X834Y1630D01*
X1065Y1630D02*
X1134Y1630D01*
X769Y1629D02*
X830Y1629D01*
X1069Y1629D02*
X1130Y1629D01*
X769Y1590D02*
X830Y1590D01*
X1069Y1590D02*
X1130Y1590D01*
X765Y1589D02*
X834Y1589D01*
X1065Y1589D02*
X1134Y1589D01*
X762Y1588D02*
X837Y1588D01*
X1062Y1588D02*
X1137Y1588D01*
X760Y1587D02*
X839Y1587D01*
X1060Y1587D02*
X1139Y1587D01*
X758Y1586D02*
X841Y1586D01*
X1058Y1586D02*
X1141Y1586D01*
X756Y1585D02*
X842Y1585D01*
X1056Y1585D02*
X1142Y1585D01*
X755Y1584D02*
X844Y1584D01*
X1055Y1584D02*
X1144Y1584D01*
X754Y1583D02*
X845Y1583D01*
X1054Y1583D02*
X1145Y1583D01*
X753Y1582D02*
X846Y1582D01*
X1053Y1582D02*
X1146Y1582D01*
X752Y1581D02*
X847Y1581D01*
X1052Y1581D02*
X1147Y1581D01*
X751Y1580D02*
X848Y1580D01*
X1051Y1580D02*
X1148Y1580D01*
X750Y1579D02*
X849Y1579D01*
X1050Y1579D02*
X1149Y1579D01*
X749Y1578D02*
X850Y1578D01*
X1049Y1578D02*
X1150Y1578D01*
X748Y1577D02*
X850Y1577D01*
X1048Y1577D02*
X1150Y1577D01*
X748Y1576D02*
X851Y1576D01*
X1048Y1576D02*
X1151Y1576D01*
X747Y1575D02*
X852Y1575D01*
X1047Y1575D02*
X1152Y1575D01*
X747Y1574D02*
X852Y1574D01*
X1047Y1574D02*
X1152Y1574D01*
X746Y1573D02*
X853Y1573D01*
X1046Y1573D02*
X1153Y1573D01*
X746Y1572D02*
X853Y1572D01*
X1046Y1572D02*
X1153Y1572D01*
X745Y1571D02*
X854Y1571D01*
X1045Y1571D02*
X1154Y1571D01*
X745Y1570D02*
X795Y1570D01*
X803Y1570D02*
X854Y1570D01*
X1045Y1570D02*
X1095Y1570D01*
X1103Y1570D02*
X1154Y1570D01*
X744Y1569D02*
X793Y1569D01*
X806Y1569D02*
X854Y1569D01*
X1044Y1569D02*
X1093Y1569D01*
X1106Y1569D02*
X1154Y1569D01*
X744Y1568D02*
X792Y1568D01*
X807Y1568D02*
X855Y1568D01*
X1044Y1568D02*
X1092Y1568D01*
X1107Y1568D02*
X1155Y1568D01*
X744Y1567D02*
X791Y1567D01*
X808Y1567D02*
X855Y1567D01*
X1044Y1567D02*
X1091Y1567D01*
X1108Y1567D02*
X1155Y1567D01*
X744Y1566D02*
X790Y1566D01*
X809Y1566D02*
X855Y1566D01*
X1044Y1566D02*
X1090Y1566D01*
X1109Y1566D02*
X1155Y1566D01*
X743Y1565D02*
X789Y1565D01*
X809Y1565D02*
X855Y1565D01*
X1043Y1565D02*
X1089Y1565D01*
X1109Y1565D02*
X1155Y1565D01*
X743Y1564D02*
X789Y1564D01*
X810Y1564D02*
X856Y1564D01*
X1043Y1564D02*
X1089Y1564D01*
X1110Y1564D02*
X1155Y1564D01*
X743Y1563D02*
X788Y1563D01*
X810Y1563D02*
X856Y1563D01*
X1043Y1563D02*
X1088Y1563D01*
X1110Y1563D02*
X1156Y1563D01*
X743Y1562D02*
X788Y1562D01*
X811Y1562D02*
X856Y1562D01*
X1043Y1562D02*
X1088Y1562D01*
X1111Y1562D02*
X1156Y1562D01*
X743Y1561D02*
X788Y1561D01*
X811Y1561D02*
X856Y1561D01*
X1043Y1561D02*
X1088Y1561D01*
X1111Y1561D02*
X1156Y1561D01*
X743Y1560D02*
X788Y1560D01*
X811Y1560D02*
X856Y1560D01*
X1043Y1560D02*
X1088Y1560D01*
X1111Y1560D02*
X1156Y1560D01*
X743Y1559D02*
X788Y1559D01*
X811Y1559D02*
X856Y1559D01*
X1043Y1559D02*
X1088Y1559D01*
X1111Y1559D02*
X1156Y1559D01*
X743Y1558D02*
X788Y1558D01*
X811Y1558D02*
X856Y1558D01*
X1043Y1558D02*
X1088Y1558D01*
X1111Y1558D02*
X1156Y1558D01*
X743Y1557D02*
X788Y1557D01*
X811Y1557D02*
X856Y1557D01*
X1043Y1557D02*
X1088Y1557D01*
X1111Y1557D02*
X1156Y1557D01*
X743Y1556D02*
X788Y1556D01*
X810Y1556D02*
X856Y1556D01*
X1043Y1556D02*
X1088Y1556D01*
X1110Y1556D02*
X1156Y1556D01*
X743Y1555D02*
X789Y1555D01*
X810Y1555D02*
X856Y1555D01*
X1043Y1555D02*
X1089Y1555D01*
X1110Y1555D02*
X1155Y1555D01*
X743Y1554D02*
X789Y1554D01*
X809Y1554D02*
X855Y1554D01*
X1043Y1554D02*
X1089Y1554D01*
X1109Y1554D02*
X1155Y1554D01*
X744Y1553D02*
X790Y1553D01*
X809Y1553D02*
X855Y1553D01*
X1044Y1553D02*
X1090Y1553D01*
X1109Y1553D02*
X1155Y1553D01*
X744Y1552D02*
X791Y1552D01*
X808Y1552D02*
X855Y1552D01*
X1044Y1552D02*
X1091Y1552D01*
X1108Y1552D02*
X1155Y1552D01*
X744Y1551D02*
X792Y1551D01*
X807Y1551D02*
X855Y1551D01*
X1044Y1551D02*
X1092Y1551D01*
X1107Y1551D02*
X1155Y1551D01*
X745Y1550D02*
X793Y1550D01*
X805Y1550D02*
X854Y1550D01*
X1044Y1550D02*
X1093Y1550D01*
X1105Y1550D02*
X1154Y1550D01*
X745Y1549D02*
X796Y1549D01*
X803Y1549D02*
X854Y1549D01*
X1045Y1549D02*
X1096Y1549D01*
X1103Y1549D02*
X1154Y1549D01*
X745Y1548D02*
X854Y1548D01*
X1045Y1548D02*
X1154Y1548D01*
X746Y1547D02*
X853Y1547D01*
X1046Y1547D02*
X1153Y1547D01*
X746Y1546D02*
X853Y1546D01*
X1046Y1546D02*
X1153Y1546D01*
X747Y1545D02*
X852Y1545D01*
X1047Y1545D02*
X1152Y1545D01*
X747Y1544D02*
X852Y1544D01*
X1047Y1544D02*
X1152Y1544D01*
X748Y1543D02*
X851Y1543D01*
X1048Y1543D02*
X1151Y1543D01*
X748Y1542D02*
X850Y1542D01*
X1048Y1542D02*
X1150Y1542D01*
X749Y1541D02*
X850Y1541D01*
X1049Y1541D02*
X1150Y1541D01*
X750Y1540D02*
X849Y1540D01*
X1050Y1540D02*
X1149Y1540D01*
X751Y1539D02*
X848Y1539D01*
X1051Y1539D02*
X1148Y1539D01*
X752Y1538D02*
X847Y1538D01*
X1052Y1538D02*
X1147Y1538D01*
X753Y1537D02*
X846Y1537D01*
X1053Y1537D02*
X1146Y1537D01*
X754Y1536D02*
X845Y1536D01*
X1054Y1536D02*
X1145Y1536D01*
X755Y1535D02*
X844Y1535D01*
X1055Y1535D02*
X1144Y1535D01*
X756Y1534D02*
X842Y1534D01*
X1056Y1534D02*
X1142Y1534D01*
X758Y1533D02*
X841Y1533D01*
X1058Y1533D02*
X1141Y1533D01*
X760Y1532D02*
X839Y1532D01*
X1060Y1532D02*
X1139Y1532D01*
X762Y1531D02*
X837Y1531D01*
X1062Y1531D02*
X1137Y1531D01*
X765Y1530D02*
X834Y1530D01*
X1065Y1530D02*
X1134Y1530D01*
X769Y1529D02*
X830Y1529D01*
X1069Y1529D02*
X1130Y1529D01*
X769Y1490D02*
X830Y1490D01*
X1069Y1490D02*
X1130Y1490D01*
X765Y1489D02*
X834Y1489D01*
X1065Y1489D02*
X1134Y1489D01*
X762Y1488D02*
X837Y1488D01*
X1062Y1488D02*
X1137Y1488D01*
X760Y1487D02*
X839Y1487D01*
X1060Y1487D02*
X1139Y1487D01*
X758Y1486D02*
X841Y1486D01*
X1058Y1486D02*
X1141Y1486D01*
X756Y1485D02*
X842Y1485D01*
X1056Y1485D02*
X1142Y1485D01*
X755Y1484D02*
X844Y1484D01*
X1055Y1484D02*
X1144Y1484D01*
X754Y1483D02*
X845Y1483D01*
X1054Y1483D02*
X1145Y1483D01*
X753Y1482D02*
X846Y1482D01*
X1053Y1482D02*
X1146Y1482D01*
X752Y1481D02*
X847Y1481D01*
X1052Y1481D02*
X1147Y1481D01*
X751Y1480D02*
X848Y1480D01*
X1051Y1480D02*
X1148Y1480D01*
X750Y1479D02*
X849Y1479D01*
X1050Y1479D02*
X1149Y1479D01*
X749Y1478D02*
X850Y1478D01*
X1049Y1478D02*
X1150Y1478D01*
X748Y1477D02*
X850Y1477D01*
X1048Y1477D02*
X1150Y1477D01*
X748Y1476D02*
X851Y1476D01*
X1048Y1476D02*
X1151Y1476D01*
X747Y1475D02*
X852Y1475D01*
X1047Y1475D02*
X1152Y1475D01*
X747Y1474D02*
X852Y1474D01*
X1047Y1474D02*
X1152Y1474D01*
X746Y1473D02*
X853Y1473D01*
X1046Y1473D02*
X1153Y1473D01*
X746Y1472D02*
X853Y1472D01*
X1046Y1472D02*
X1153Y1472D01*
X745Y1471D02*
X854Y1471D01*
X1045Y1471D02*
X1154Y1471D01*
X745Y1470D02*
X795Y1470D01*
X803Y1470D02*
X854Y1470D01*
X1045Y1470D02*
X1095Y1470D01*
X1103Y1470D02*
X1154Y1470D01*
X744Y1469D02*
X793Y1469D01*
X806Y1469D02*
X854Y1469D01*
X1044Y1469D02*
X1093Y1469D01*
X1106Y1469D02*
X1154Y1469D01*
X744Y1468D02*
X792Y1468D01*
X807Y1468D02*
X855Y1468D01*
X1044Y1468D02*
X1092Y1468D01*
X1107Y1468D02*
X1155Y1468D01*
X744Y1467D02*
X791Y1467D01*
X808Y1467D02*
X855Y1467D01*
X1044Y1467D02*
X1091Y1467D01*
X1108Y1467D02*
X1155Y1467D01*
X744Y1466D02*
X790Y1466D01*
X809Y1466D02*
X855Y1466D01*
X1044Y1466D02*
X1090Y1466D01*
X1109Y1466D02*
X1155Y1466D01*
X743Y1465D02*
X789Y1465D01*
X809Y1465D02*
X855Y1465D01*
X1043Y1465D02*
X1089Y1465D01*
X1109Y1465D02*
X1155Y1465D01*
X743Y1464D02*
X789Y1464D01*
X810Y1464D02*
X856Y1464D01*
X1043Y1464D02*
X1089Y1464D01*
X1110Y1464D02*
X1155Y1464D01*
X743Y1463D02*
X788Y1463D01*
X810Y1463D02*
X856Y1463D01*
X1043Y1463D02*
X1088Y1463D01*
X1110Y1463D02*
X1156Y1463D01*
X743Y1462D02*
X788Y1462D01*
X811Y1462D02*
X856Y1462D01*
X1043Y1462D02*
X1088Y1462D01*
X1111Y1462D02*
X1156Y1462D01*
X743Y1461D02*
X788Y1461D01*
X811Y1461D02*
X856Y1461D01*
X1043Y1461D02*
X1088Y1461D01*
X1111Y1461D02*
X1156Y1461D01*
X743Y1460D02*
X788Y1460D01*
X811Y1460D02*
X856Y1460D01*
X1043Y1460D02*
X1088Y1460D01*
X1111Y1460D02*
X1156Y1460D01*
X743Y1459D02*
X788Y1459D01*
X811Y1459D02*
X856Y1459D01*
X1043Y1459D02*
X1088Y1459D01*
X1111Y1459D02*
X1156Y1459D01*
X743Y1458D02*
X788Y1458D01*
X811Y1458D02*
X856Y1458D01*
X1043Y1458D02*
X1088Y1458D01*
X1111Y1458D02*
X1156Y1458D01*
X743Y1457D02*
X788Y1457D01*
X811Y1457D02*
X856Y1457D01*
X1043Y1457D02*
X1088Y1457D01*
X1111Y1457D02*
X1156Y1457D01*
X743Y1456D02*
X788Y1456D01*
X810Y1456D02*
X856Y1456D01*
X1043Y1456D02*
X1088Y1456D01*
X1110Y1456D02*
X1156Y1456D01*
X743Y1455D02*
X789Y1455D01*
X810Y1455D02*
X856Y1455D01*
X1043Y1455D02*
X1089Y1455D01*
X1110Y1455D02*
X1155Y1455D01*
X743Y1454D02*
X789Y1454D01*
X809Y1454D02*
X855Y1454D01*
X1043Y1454D02*
X1089Y1454D01*
X1109Y1454D02*
X1155Y1454D01*
X744Y1453D02*
X790Y1453D01*
X809Y1453D02*
X855Y1453D01*
X1044Y1453D02*
X1090Y1453D01*
X1109Y1453D02*
X1155Y1453D01*
X744Y1452D02*
X791Y1452D01*
X808Y1452D02*
X855Y1452D01*
X1044Y1452D02*
X1091Y1452D01*
X1108Y1452D02*
X1155Y1452D01*
X744Y1451D02*
X792Y1451D01*
X807Y1451D02*
X855Y1451D01*
X1044Y1451D02*
X1092Y1451D01*
X1107Y1451D02*
X1155Y1451D01*
X745Y1450D02*
X793Y1450D01*
X805Y1450D02*
X854Y1450D01*
X1044Y1450D02*
X1093Y1450D01*
X1105Y1450D02*
X1154Y1450D01*
X745Y1449D02*
X796Y1449D01*
X803Y1449D02*
X854Y1449D01*
X1045Y1449D02*
X1096Y1449D01*
X1103Y1449D02*
X1154Y1449D01*
X745Y1448D02*
X854Y1448D01*
X1045Y1448D02*
X1154Y1448D01*
X746Y1447D02*
X853Y1447D01*
X1046Y1447D02*
X1153Y1447D01*
X746Y1446D02*
X853Y1446D01*
X1046Y1446D02*
X1153Y1446D01*
X747Y1445D02*
X852Y1445D01*
X1047Y1445D02*
X1152Y1445D01*
X747Y1444D02*
X852Y1444D01*
X1047Y1444D02*
X1152Y1444D01*
X748Y1443D02*
X851Y1443D01*
X1048Y1443D02*
X1151Y1443D01*
X748Y1442D02*
X850Y1442D01*
X1048Y1442D02*
X1150Y1442D01*
X749Y1441D02*
X850Y1441D01*
X1049Y1441D02*
X1150Y1441D01*
X750Y1440D02*
X849Y1440D01*
X1050Y1440D02*
X1149Y1440D01*
X751Y1439D02*
X848Y1439D01*
X1051Y1439D02*
X1148Y1439D01*
X752Y1438D02*
X847Y1438D01*
X1052Y1438D02*
X1147Y1438D01*
X753Y1437D02*
X846Y1437D01*
X1053Y1437D02*
X1146Y1437D01*
X754Y1436D02*
X845Y1436D01*
X1054Y1436D02*
X1145Y1436D01*
X755Y1435D02*
X844Y1435D01*
X1055Y1435D02*
X1144Y1435D01*
X756Y1434D02*
X842Y1434D01*
X1056Y1434D02*
X1142Y1434D01*
X758Y1433D02*
X841Y1433D01*
X1058Y1433D02*
X1141Y1433D01*
X760Y1432D02*
X839Y1432D01*
X1060Y1432D02*
X1139Y1432D01*
X762Y1431D02*
X837Y1431D01*
X1062Y1431D02*
X1137Y1431D01*
X765Y1430D02*
X834Y1430D01*
X1065Y1430D02*
X1134Y1430D01*
X769Y1429D02*
X830Y1429D01*
X1069Y1429D02*
X1130Y1429D01*
X769Y1390D02*
X830Y1390D01*
X1069Y1390D02*
X1130Y1390D01*
X765Y1389D02*
X834Y1389D01*
X1065Y1389D02*
X1134Y1389D01*
X762Y1388D02*
X837Y1388D01*
X1062Y1388D02*
X1137Y1388D01*
X760Y1387D02*
X839Y1387D01*
X1060Y1387D02*
X1139Y1387D01*
X758Y1386D02*
X841Y1386D01*
X1058Y1386D02*
X1141Y1386D01*
X756Y1385D02*
X842Y1385D01*
X1056Y1385D02*
X1142Y1385D01*
X755Y1384D02*
X844Y1384D01*
X1055Y1384D02*
X1144Y1384D01*
X754Y1383D02*
X845Y1383D01*
X1054Y1383D02*
X1145Y1383D01*
X753Y1382D02*
X846Y1382D01*
X1053Y1382D02*
X1146Y1382D01*
X752Y1381D02*
X847Y1381D01*
X1052Y1381D02*
X1147Y1381D01*
X751Y1380D02*
X848Y1380D01*
X1051Y1380D02*
X1148Y1380D01*
X750Y1379D02*
X849Y1379D01*
X1050Y1379D02*
X1149Y1379D01*
X749Y1378D02*
X850Y1378D01*
X1049Y1378D02*
X1150Y1378D01*
X748Y1377D02*
X850Y1377D01*
X1048Y1377D02*
X1150Y1377D01*
X748Y1376D02*
X851Y1376D01*
X1048Y1376D02*
X1151Y1376D01*
X747Y1375D02*
X852Y1375D01*
X1047Y1375D02*
X1152Y1375D01*
X747Y1374D02*
X852Y1374D01*
X1047Y1374D02*
X1152Y1374D01*
X746Y1373D02*
X853Y1373D01*
X1046Y1373D02*
X1153Y1373D01*
X746Y1372D02*
X853Y1372D01*
X1046Y1372D02*
X1153Y1372D01*
X745Y1371D02*
X854Y1371D01*
X1045Y1371D02*
X1154Y1371D01*
X745Y1370D02*
X795Y1370D01*
X803Y1370D02*
X854Y1370D01*
X1045Y1370D02*
X1095Y1370D01*
X1103Y1370D02*
X1154Y1370D01*
X744Y1369D02*
X793Y1369D01*
X806Y1369D02*
X854Y1369D01*
X1044Y1369D02*
X1093Y1369D01*
X1106Y1369D02*
X1154Y1369D01*
X744Y1368D02*
X792Y1368D01*
X807Y1368D02*
X855Y1368D01*
X1044Y1368D02*
X1092Y1368D01*
X1107Y1368D02*
X1155Y1368D01*
X744Y1367D02*
X791Y1367D01*
X808Y1367D02*
X855Y1367D01*
X1044Y1367D02*
X1091Y1367D01*
X1108Y1367D02*
X1155Y1367D01*
X744Y1366D02*
X790Y1366D01*
X809Y1366D02*
X855Y1366D01*
X1044Y1366D02*
X1090Y1366D01*
X1109Y1366D02*
X1155Y1366D01*
X743Y1365D02*
X789Y1365D01*
X809Y1365D02*
X855Y1365D01*
X1043Y1365D02*
X1089Y1365D01*
X1109Y1365D02*
X1155Y1365D01*
X743Y1364D02*
X789Y1364D01*
X810Y1364D02*
X856Y1364D01*
X1043Y1364D02*
X1089Y1364D01*
X1110Y1364D02*
X1155Y1364D01*
X743Y1363D02*
X788Y1363D01*
X810Y1363D02*
X856Y1363D01*
X1043Y1363D02*
X1088Y1363D01*
X1110Y1363D02*
X1156Y1363D01*
X743Y1362D02*
X788Y1362D01*
X811Y1362D02*
X856Y1362D01*
X1043Y1362D02*
X1088Y1362D01*
X1111Y1362D02*
X1156Y1362D01*
X743Y1361D02*
X788Y1361D01*
X811Y1361D02*
X856Y1361D01*
X1043Y1361D02*
X1088Y1361D01*
X1111Y1361D02*
X1156Y1361D01*
X743Y1360D02*
X788Y1360D01*
X811Y1360D02*
X856Y1360D01*
X1043Y1360D02*
X1088Y1360D01*
X1111Y1360D02*
X1156Y1360D01*
X743Y1359D02*
X788Y1359D01*
X811Y1359D02*
X856Y1359D01*
X1043Y1359D02*
X1088Y1359D01*
X1111Y1359D02*
X1156Y1359D01*
X743Y1358D02*
X788Y1358D01*
X811Y1358D02*
X856Y1358D01*
X1043Y1358D02*
X1088Y1358D01*
X1111Y1358D02*
X1156Y1358D01*
X743Y1357D02*
X788Y1357D01*
X811Y1357D02*
X856Y1357D01*
X1043Y1357D02*
X1088Y1357D01*
X1111Y1357D02*
X1156Y1357D01*
X743Y1356D02*
X788Y1356D01*
X810Y1356D02*
X856Y1356D01*
X1043Y1356D02*
X1088Y1356D01*
X1110Y1356D02*
X1156Y1356D01*
X743Y1355D02*
X789Y1355D01*
X810Y1355D02*
X856Y1355D01*
X1043Y1355D02*
X1089Y1355D01*
X1110Y1355D02*
X1155Y1355D01*
X743Y1354D02*
X789Y1354D01*
X809Y1354D02*
X855Y1354D01*
X1043Y1354D02*
X1089Y1354D01*
X1109Y1354D02*
X1155Y1354D01*
X744Y1353D02*
X790Y1353D01*
X809Y1353D02*
X855Y1353D01*
X1044Y1353D02*
X1090Y1353D01*
X1109Y1353D02*
X1155Y1353D01*
X744Y1352D02*
X791Y1352D01*
X808Y1352D02*
X855Y1352D01*
X1044Y1352D02*
X1091Y1352D01*
X1108Y1352D02*
X1155Y1352D01*
X744Y1351D02*
X792Y1351D01*
X807Y1351D02*
X855Y1351D01*
X1044Y1351D02*
X1092Y1351D01*
X1107Y1351D02*
X1155Y1351D01*
X745Y1350D02*
X793Y1350D01*
X805Y1350D02*
X854Y1350D01*
X1044Y1350D02*
X1093Y1350D01*
X1105Y1350D02*
X1154Y1350D01*
X745Y1349D02*
X796Y1349D01*
X803Y1349D02*
X854Y1349D01*
X1045Y1349D02*
X1096Y1349D01*
X1103Y1349D02*
X1154Y1349D01*
X745Y1348D02*
X854Y1348D01*
X1045Y1348D02*
X1154Y1348D01*
X746Y1347D02*
X853Y1347D01*
X1046Y1347D02*
X1153Y1347D01*
X746Y1346D02*
X853Y1346D01*
X1046Y1346D02*
X1153Y1346D01*
X747Y1345D02*
X852Y1345D01*
X1047Y1345D02*
X1152Y1345D01*
X747Y1344D02*
X852Y1344D01*
X1047Y1344D02*
X1152Y1344D01*
X748Y1343D02*
X851Y1343D01*
X1048Y1343D02*
X1151Y1343D01*
X748Y1342D02*
X850Y1342D01*
X1048Y1342D02*
X1150Y1342D01*
X749Y1341D02*
X850Y1341D01*
X1049Y1341D02*
X1150Y1341D01*
X750Y1340D02*
X849Y1340D01*
X1050Y1340D02*
X1149Y1340D01*
X751Y1339D02*
X848Y1339D01*
X1051Y1339D02*
X1148Y1339D01*
X752Y1338D02*
X847Y1338D01*
X1052Y1338D02*
X1147Y1338D01*
X753Y1337D02*
X846Y1337D01*
X1053Y1337D02*
X1146Y1337D01*
X754Y1336D02*
X845Y1336D01*
X1054Y1336D02*
X1145Y1336D01*
X755Y1335D02*
X844Y1335D01*
X1055Y1335D02*
X1144Y1335D01*
X756Y1334D02*
X842Y1334D01*
X1056Y1334D02*
X1142Y1334D01*
X758Y1333D02*
X841Y1333D01*
X1058Y1333D02*
X1141Y1333D01*
X760Y1332D02*
X839Y1332D01*
X1060Y1332D02*
X1139Y1332D01*
X762Y1331D02*
X837Y1331D01*
X1062Y1331D02*
X1137Y1331D01*
X765Y1330D02*
X834Y1330D01*
X1065Y1330D02*
X1134Y1330D01*
X769Y1329D02*
X830Y1329D01*
X1069Y1329D02*
X1130Y1329D01*
X769Y1290D02*
X830Y1290D01*
X1069Y1290D02*
X1130Y1290D01*
X765Y1289D02*
X834Y1289D01*
X1065Y1289D02*
X1134Y1289D01*
X762Y1288D02*
X837Y1288D01*
X1062Y1288D02*
X1137Y1288D01*
X760Y1287D02*
X839Y1287D01*
X1060Y1287D02*
X1139Y1287D01*
X758Y1286D02*
X841Y1286D01*
X1058Y1286D02*
X1141Y1286D01*
X756Y1285D02*
X842Y1285D01*
X1056Y1285D02*
X1142Y1285D01*
X755Y1284D02*
X844Y1284D01*
X1055Y1284D02*
X1144Y1284D01*
X754Y1283D02*
X845Y1283D01*
X1054Y1283D02*
X1145Y1283D01*
X753Y1282D02*
X846Y1282D01*
X1053Y1282D02*
X1146Y1282D01*
X752Y1281D02*
X847Y1281D01*
X1052Y1281D02*
X1147Y1281D01*
X751Y1280D02*
X848Y1280D01*
X1051Y1280D02*
X1148Y1280D01*
X750Y1279D02*
X849Y1279D01*
X1050Y1279D02*
X1149Y1279D01*
X749Y1278D02*
X850Y1278D01*
X1049Y1278D02*
X1150Y1278D01*
X748Y1277D02*
X850Y1277D01*
X1048Y1277D02*
X1150Y1277D01*
X748Y1276D02*
X851Y1276D01*
X1048Y1276D02*
X1151Y1276D01*
X747Y1275D02*
X852Y1275D01*
X1047Y1275D02*
X1152Y1275D01*
X747Y1274D02*
X852Y1274D01*
X1047Y1274D02*
X1152Y1274D01*
X746Y1273D02*
X853Y1273D01*
X1046Y1273D02*
X1153Y1273D01*
X746Y1272D02*
X853Y1272D01*
X1046Y1272D02*
X1153Y1272D01*
X745Y1271D02*
X854Y1271D01*
X1045Y1271D02*
X1154Y1271D01*
X745Y1270D02*
X795Y1270D01*
X803Y1270D02*
X854Y1270D01*
X1045Y1270D02*
X1095Y1270D01*
X1103Y1270D02*
X1154Y1270D01*
X744Y1269D02*
X793Y1269D01*
X806Y1269D02*
X854Y1269D01*
X1044Y1269D02*
X1093Y1269D01*
X1106Y1269D02*
X1154Y1269D01*
X744Y1268D02*
X792Y1268D01*
X807Y1268D02*
X855Y1268D01*
X1044Y1268D02*
X1092Y1268D01*
X1107Y1268D02*
X1155Y1268D01*
X744Y1267D02*
X791Y1267D01*
X808Y1267D02*
X855Y1267D01*
X1044Y1267D02*
X1091Y1267D01*
X1108Y1267D02*
X1155Y1267D01*
X744Y1266D02*
X790Y1266D01*
X809Y1266D02*
X855Y1266D01*
X1044Y1266D02*
X1090Y1266D01*
X1109Y1266D02*
X1155Y1266D01*
X743Y1265D02*
X789Y1265D01*
X809Y1265D02*
X855Y1265D01*
X1043Y1265D02*
X1089Y1265D01*
X1109Y1265D02*
X1155Y1265D01*
X743Y1264D02*
X789Y1264D01*
X810Y1264D02*
X856Y1264D01*
X1043Y1264D02*
X1089Y1264D01*
X1110Y1264D02*
X1155Y1264D01*
X743Y1263D02*
X788Y1263D01*
X810Y1263D02*
X856Y1263D01*
X1043Y1263D02*
X1088Y1263D01*
X1110Y1263D02*
X1156Y1263D01*
X743Y1262D02*
X788Y1262D01*
X811Y1262D02*
X856Y1262D01*
X1043Y1262D02*
X1088Y1262D01*
X1111Y1262D02*
X1156Y1262D01*
X743Y1261D02*
X788Y1261D01*
X811Y1261D02*
X856Y1261D01*
X1043Y1261D02*
X1088Y1261D01*
X1111Y1261D02*
X1156Y1261D01*
X743Y1260D02*
X788Y1260D01*
X811Y1260D02*
X856Y1260D01*
X1043Y1260D02*
X1088Y1260D01*
X1111Y1260D02*
X1156Y1260D01*
X743Y1259D02*
X788Y1259D01*
X811Y1259D02*
X856Y1259D01*
X1043Y1259D02*
X1088Y1259D01*
X1111Y1259D02*
X1156Y1259D01*
X743Y1258D02*
X788Y1258D01*
X811Y1258D02*
X856Y1258D01*
X1043Y1258D02*
X1088Y1258D01*
X1111Y1258D02*
X1156Y1258D01*
X743Y1257D02*
X788Y1257D01*
X811Y1257D02*
X856Y1257D01*
X1043Y1257D02*
X1088Y1257D01*
X1111Y1257D02*
X1156Y1257D01*
X743Y1256D02*
X788Y1256D01*
X810Y1256D02*
X856Y1256D01*
X1043Y1256D02*
X1088Y1256D01*
X1110Y1256D02*
X1156Y1256D01*
X743Y1255D02*
X789Y1255D01*
X810Y1255D02*
X856Y1255D01*
X1043Y1255D02*
X1089Y1255D01*
X1110Y1255D02*
X1155Y1255D01*
X743Y1254D02*
X789Y1254D01*
X809Y1254D02*
X855Y1254D01*
X1043Y1254D02*
X1089Y1254D01*
X1109Y1254D02*
X1155Y1254D01*
X744Y1253D02*
X790Y1253D01*
X809Y1253D02*
X855Y1253D01*
X1044Y1253D02*
X1090Y1253D01*
X1109Y1253D02*
X1155Y1253D01*
X744Y1252D02*
X791Y1252D01*
X808Y1252D02*
X855Y1252D01*
X1044Y1252D02*
X1091Y1252D01*
X1108Y1252D02*
X1155Y1252D01*
X744Y1251D02*
X792Y1251D01*
X807Y1251D02*
X855Y1251D01*
X1044Y1251D02*
X1092Y1251D01*
X1107Y1251D02*
X1155Y1251D01*
X745Y1250D02*
X793Y1250D01*
X805Y1250D02*
X854Y1250D01*
X1044Y1250D02*
X1093Y1250D01*
X1105Y1250D02*
X1154Y1250D01*
X745Y1249D02*
X796Y1249D01*
X803Y1249D02*
X854Y1249D01*
X1045Y1249D02*
X1096Y1249D01*
X1103Y1249D02*
X1154Y1249D01*
X745Y1248D02*
X854Y1248D01*
X1045Y1248D02*
X1154Y1248D01*
X746Y1247D02*
X853Y1247D01*
X1046Y1247D02*
X1153Y1247D01*
X746Y1246D02*
X853Y1246D01*
X1046Y1246D02*
X1153Y1246D01*
X747Y1245D02*
X852Y1245D01*
X1047Y1245D02*
X1152Y1245D01*
X747Y1244D02*
X852Y1244D01*
X1047Y1244D02*
X1152Y1244D01*
X748Y1243D02*
X851Y1243D01*
X1048Y1243D02*
X1151Y1243D01*
X748Y1242D02*
X850Y1242D01*
X1048Y1242D02*
X1150Y1242D01*
X749Y1241D02*
X850Y1241D01*
X1049Y1241D02*
X1150Y1241D01*
X750Y1240D02*
X849Y1240D01*
X1050Y1240D02*
X1149Y1240D01*
X751Y1239D02*
X848Y1239D01*
X1051Y1239D02*
X1148Y1239D01*
X752Y1238D02*
X847Y1238D01*
X1052Y1238D02*
X1147Y1238D01*
X753Y1237D02*
X846Y1237D01*
X1053Y1237D02*
X1146Y1237D01*
X754Y1236D02*
X845Y1236D01*
X1054Y1236D02*
X1145Y1236D01*
X755Y1235D02*
X844Y1235D01*
X1055Y1235D02*
X1144Y1235D01*
X756Y1234D02*
X842Y1234D01*
X1056Y1234D02*
X1142Y1234D01*
X758Y1233D02*
X841Y1233D01*
X1058Y1233D02*
X1141Y1233D01*
X760Y1232D02*
X839Y1232D01*
X1060Y1232D02*
X1139Y1232D01*
X762Y1231D02*
X837Y1231D01*
X1062Y1231D02*
X1137Y1231D01*
X765Y1230D02*
X834Y1230D01*
X1065Y1230D02*
X1134Y1230D01*
X769Y1229D02*
X830Y1229D01*
X1069Y1229D02*
X1130Y1229D01*
D02*
G04 End of Mask1*
M02*