; NON-PLATED HOLES START AT T1
; THROUGH (PLATED) HOLES START AT T100
M48
INCH
T1C0.157480
T100C0.054079
T101C0.015748
T102C0.038000
T103C0.054037
T104C0.054134
T105C0.035000
T106C0.054121
T107C0.030000
T108C0.054093
%
T1
X004325Y012003
X004333Y002959
X028347Y002966
X044495Y012003
T100
X005107Y008966
X037107Y008966
X008107Y008966
X033107Y008966
X023107Y008966
X009107Y008966
X041107Y008966
X027107Y008966
X036107Y008966
X019107Y008966
X022107Y008966
X013106Y008966
T101
X046607Y010466
X023107Y012716
X029107Y009966
X037107Y007966
X012607Y011716
X029107Y011466
X002857Y001216
X011607Y005966
X023107Y006966
X015107Y007966
X034107Y007966
X011107Y004216
X033607Y012466
X021607Y005966
X032607Y011466
X025107Y012466
X040107Y007966
X016607Y011966
X042607Y010466
X021107Y008466
X025107Y011466
X028107Y010466
X016607Y012966
T102
X030107Y013466
X009107Y002966
X013107Y002966
X028107Y012466
X015107Y001966
X015107Y002966
X027107Y012466
X029107Y013466
X010107Y001966
X027107Y013466
X009107Y001966
X031107Y012466
X010107Y002966
X012107Y002966
X031107Y013466
X030107Y012466
X012107Y001966
X011107Y002966
X011107Y001966
X029107Y012466
X014107Y002966
X013107Y001966
X014107Y001966
X028107Y013466
T103
X030107Y008966
X016107Y008966
X044107Y008966
T104
X029107Y008966
X043107Y008966
X015107Y008966
T105
X022607Y002466
X020857Y003216
X000857Y001216
X017357Y012966
X017357Y014216
X021357Y014216
X020857Y001966
X022607Y001216
X026607Y001216
X002107Y005966
X016857Y003216
X016857Y001966
X026607Y003966
X022607Y003966
X021357Y012966
X026607Y002466
X002107Y005216
X002107Y001216
X000857Y005216
X002107Y009966
T106
X038107Y008966
X034107Y005967
X024107Y008966
X020107Y008966
X038107Y005967
X020107Y005967
X006106Y008966
X006106Y005966
X024107Y005967
X034107Y008966
X010107Y005966
X012107Y008966
X010107Y008966
X032107Y008966
X004106Y008966
X040107Y008966
X018107Y008966
X026107Y008966
T107
X012607Y014216
X013608Y014216
X012605Y012966
X013607Y012966
T108
X041107Y005967
X011107Y008966
X027107Y005967
X025107Y008966
X013106Y005967
X039107Y008966
T00
M30
