G04 MADE WITH FRITZING*
G04 WWW.FRITZING.ORG*
G04 DOUBLE SIDED*
G04 HOLES PLATED*
G04 CONTOUR ON CENTER OF CONTOUR VECTOR*
%ASAXBY*%
%FSLAX23Y23*%
%MOIN*%
%OFA0B0*%
%SFA1.0B1.0*%
%ADD10C,0.088000*%
%ADD11C,0.049370*%
%ADD12C,0.085000*%
%ADD13C,0.080000*%
%ADD14C,0.167480*%
%ADD15R,0.001000X0.001000*%
%LNMASK0*%
G90*
G70*
G54D10*
X2711Y1347D03*
X2811Y1347D03*
X2911Y1347D03*
X3011Y1347D03*
X3111Y1347D03*
X2711Y1347D03*
X2811Y1347D03*
X2911Y1347D03*
X3011Y1347D03*
X3111Y1347D03*
X3111Y1247D03*
X3011Y1247D03*
X2911Y1247D03*
X2811Y1247D03*
X2711Y1247D03*
X2711Y1347D03*
X2811Y1347D03*
X2911Y1347D03*
X3011Y1347D03*
X3111Y1347D03*
X2711Y1347D03*
X2811Y1347D03*
X2911Y1347D03*
X3011Y1347D03*
X3111Y1347D03*
X3111Y1247D03*
X3011Y1247D03*
X2911Y1247D03*
X2811Y1247D03*
X2711Y1247D03*
G54D11*
X1161Y597D03*
X1261Y1172D03*
X1661Y1297D03*
X286Y122D03*
X1111Y422D03*
G54D10*
X911Y297D03*
X1011Y297D03*
X1111Y297D03*
X1211Y297D03*
X1311Y297D03*
X1411Y297D03*
X1511Y297D03*
X911Y297D03*
X1011Y297D03*
X1111Y297D03*
X1211Y297D03*
X1311Y297D03*
X1411Y297D03*
X1511Y297D03*
X1511Y197D03*
X1411Y197D03*
X1311Y197D03*
X1211Y197D03*
X1111Y197D03*
X1011Y197D03*
X911Y197D03*
X911Y297D03*
X1011Y297D03*
X1111Y297D03*
X1211Y297D03*
X1311Y297D03*
X1411Y297D03*
X1511Y297D03*
X911Y297D03*
X1011Y297D03*
X1111Y297D03*
X1211Y297D03*
X1311Y297D03*
X1411Y297D03*
X1511Y297D03*
X1511Y197D03*
X1411Y197D03*
X1311Y197D03*
X1211Y197D03*
X1111Y197D03*
X1011Y197D03*
X911Y197D03*
G54D12*
X2136Y1422D03*
X1736Y1422D03*
X2136Y1422D03*
X1736Y1422D03*
X2136Y1297D03*
X1736Y1297D03*
X2136Y1297D03*
X1736Y1297D03*
G54D13*
X1361Y1297D03*
X1261Y1297D03*
X1361Y1297D03*
X1261Y1297D03*
X1261Y1422D03*
X1361Y1422D03*
X1261Y1422D03*
X1361Y1422D03*
G54D12*
X211Y122D03*
X211Y522D03*
X211Y122D03*
X211Y522D03*
X211Y597D03*
X211Y997D03*
X211Y597D03*
X211Y997D03*
X86Y522D03*
X86Y122D03*
X86Y522D03*
X86Y122D03*
X2261Y122D03*
X2661Y122D03*
X2261Y122D03*
X2661Y122D03*
X1686Y197D03*
X2086Y197D03*
X1686Y197D03*
X2086Y197D03*
X2086Y322D03*
X1686Y322D03*
X2086Y322D03*
X1686Y322D03*
X2661Y247D03*
X2261Y247D03*
X2661Y247D03*
X2261Y247D03*
X2261Y397D03*
X2661Y397D03*
X2261Y397D03*
X2661Y397D03*
G54D14*
X433Y1200D03*
X433Y296D03*
X2835Y297D03*
X4450Y1200D03*
G54D11*
X2811Y1047D03*
X4011Y797D03*
X2911Y997D03*
X4261Y1047D03*
X1511Y797D03*
X2111Y847D03*
X1661Y1197D03*
X3411Y797D03*
X2311Y697D03*
X2161Y597D03*
X3711Y797D03*
X2511Y1147D03*
X4661Y1047D03*
X3361Y1247D03*
X2311Y1272D03*
X3261Y1147D03*
X2511Y1247D03*
X2911Y1147D03*
G54D15*
X402Y948D02*
X418Y948D01*
X502Y948D02*
X518Y948D01*
X602Y948D02*
X618Y948D01*
X802Y948D02*
X818Y948D01*
X902Y948D02*
X918Y948D01*
X1002Y948D02*
X1019Y948D01*
X1102Y948D02*
X1118Y948D01*
X1202Y948D02*
X1218Y948D01*
X1302Y948D02*
X1318Y948D01*
X1501Y948D02*
X1519Y948D01*
X1602Y948D02*
X1618Y948D01*
X1801Y948D02*
X1818Y948D01*
X1902Y948D02*
X1918Y948D01*
X2001Y948D02*
X2018Y948D01*
X2202Y948D02*
X2218Y948D01*
X2302Y948D02*
X2318Y948D01*
X2401Y948D02*
X2419Y948D01*
X2501Y948D02*
X2518Y948D01*
X2601Y948D02*
X2618Y948D01*
X2701Y948D02*
X2718Y948D01*
X2901Y948D02*
X2918Y948D01*
X3002Y948D02*
X3018Y948D01*
X3201Y948D02*
X3218Y948D01*
X3301Y948D02*
X3318Y948D01*
X3401Y948D02*
X3418Y948D01*
X3601Y948D02*
X3618Y948D01*
X3701Y948D02*
X3718Y948D01*
X3801Y948D02*
X3818Y948D01*
X3901Y948D02*
X3918Y948D01*
X4001Y948D02*
X4018Y948D01*
X4101Y948D02*
X4118Y948D01*
X4301Y948D02*
X4318Y948D01*
X4401Y948D02*
X4418Y948D01*
X397Y947D02*
X423Y947D01*
X497Y947D02*
X523Y947D01*
X597Y947D02*
X623Y947D01*
X797Y947D02*
X823Y947D01*
X897Y947D02*
X923Y947D01*
X997Y947D02*
X1023Y947D01*
X1097Y947D02*
X1123Y947D01*
X1197Y947D02*
X1223Y947D01*
X1297Y947D02*
X1323Y947D01*
X1497Y947D02*
X1523Y947D01*
X1597Y947D02*
X1623Y947D01*
X1797Y947D02*
X1823Y947D01*
X1897Y947D02*
X1923Y947D01*
X1997Y947D02*
X2023Y947D01*
X2197Y947D02*
X2223Y947D01*
X2297Y947D02*
X2323Y947D01*
X2397Y947D02*
X2423Y947D01*
X2497Y947D02*
X2523Y947D01*
X2597Y947D02*
X2623Y947D01*
X2697Y947D02*
X2723Y947D01*
X2897Y947D02*
X2923Y947D01*
X2997Y947D02*
X3023Y947D01*
X3197Y947D02*
X3223Y947D01*
X3297Y947D02*
X3323Y947D01*
X3397Y947D02*
X3423Y947D01*
X3597Y947D02*
X3623Y947D01*
X3697Y947D02*
X3723Y947D01*
X3797Y947D02*
X3823Y947D01*
X3897Y947D02*
X3923Y947D01*
X3997Y947D02*
X4023Y947D01*
X4097Y947D02*
X4123Y947D01*
X4297Y947D02*
X4323Y947D01*
X4397Y947D02*
X4422Y947D01*
X394Y946D02*
X426Y946D01*
X494Y946D02*
X526Y946D01*
X594Y946D02*
X626Y946D01*
X794Y946D02*
X826Y946D01*
X894Y946D02*
X926Y946D01*
X994Y946D02*
X1026Y946D01*
X1094Y946D02*
X1126Y946D01*
X1194Y946D02*
X1226Y946D01*
X1294Y946D02*
X1326Y946D01*
X1494Y946D02*
X1526Y946D01*
X1594Y946D02*
X1626Y946D01*
X1794Y946D02*
X1826Y946D01*
X1894Y946D02*
X1926Y946D01*
X1994Y946D02*
X2026Y946D01*
X2194Y946D02*
X2226Y946D01*
X2294Y946D02*
X2326Y946D01*
X2393Y946D02*
X2426Y946D01*
X2494Y946D02*
X2526Y946D01*
X2593Y946D02*
X2626Y946D01*
X2693Y946D02*
X2726Y946D01*
X2893Y946D02*
X2926Y946D01*
X2994Y946D02*
X3026Y946D01*
X3193Y946D02*
X3226Y946D01*
X3293Y946D02*
X3326Y946D01*
X3393Y946D02*
X3426Y946D01*
X3593Y946D02*
X3626Y946D01*
X3693Y946D02*
X3726Y946D01*
X3793Y946D02*
X3826Y946D01*
X3893Y946D02*
X3926Y946D01*
X3993Y946D02*
X4026Y946D01*
X4093Y946D02*
X4126Y946D01*
X4293Y946D02*
X4326Y946D01*
X4393Y946D02*
X4426Y946D01*
X391Y945D02*
X429Y945D01*
X491Y945D02*
X529Y945D01*
X591Y945D02*
X629Y945D01*
X791Y945D02*
X829Y945D01*
X891Y945D02*
X929Y945D01*
X991Y945D02*
X1029Y945D01*
X1091Y945D02*
X1129Y945D01*
X1191Y945D02*
X1229Y945D01*
X1291Y945D02*
X1329Y945D01*
X1491Y945D02*
X1529Y945D01*
X1591Y945D02*
X1629Y945D01*
X1791Y945D02*
X1829Y945D01*
X1891Y945D02*
X1929Y945D01*
X1991Y945D02*
X2029Y945D01*
X2191Y945D02*
X2229Y945D01*
X2291Y945D02*
X2329Y945D01*
X2391Y945D02*
X2429Y945D01*
X2491Y945D02*
X2529Y945D01*
X2591Y945D02*
X2629Y945D01*
X2691Y945D02*
X2729Y945D01*
X2891Y945D02*
X2929Y945D01*
X2991Y945D02*
X3029Y945D01*
X3191Y945D02*
X3229Y945D01*
X3291Y945D02*
X3329Y945D01*
X3391Y945D02*
X3429Y945D01*
X3591Y945D02*
X3629Y945D01*
X3691Y945D02*
X3729Y945D01*
X3790Y945D02*
X3829Y945D01*
X3891Y945D02*
X3929Y945D01*
X3991Y945D02*
X4029Y945D01*
X4091Y945D02*
X4129Y945D01*
X4290Y945D02*
X4329Y945D01*
X4391Y945D02*
X4429Y945D01*
X389Y944D02*
X431Y944D01*
X489Y944D02*
X531Y944D01*
X589Y944D02*
X631Y944D01*
X789Y944D02*
X831Y944D01*
X889Y944D02*
X931Y944D01*
X989Y944D02*
X1031Y944D01*
X1089Y944D02*
X1131Y944D01*
X1189Y944D02*
X1231Y944D01*
X1289Y944D02*
X1331Y944D01*
X1489Y944D02*
X1531Y944D01*
X1589Y944D02*
X1631Y944D01*
X1789Y944D02*
X1831Y944D01*
X1889Y944D02*
X1931Y944D01*
X1989Y944D02*
X2031Y944D01*
X2189Y944D02*
X2231Y944D01*
X2289Y944D02*
X2331Y944D01*
X2389Y944D02*
X2431Y944D01*
X2489Y944D02*
X2531Y944D01*
X2589Y944D02*
X2631Y944D01*
X2689Y944D02*
X2731Y944D01*
X2888Y944D02*
X2931Y944D01*
X2989Y944D02*
X3031Y944D01*
X3188Y944D02*
X3231Y944D01*
X3288Y944D02*
X3331Y944D01*
X3388Y944D02*
X3431Y944D01*
X3588Y944D02*
X3631Y944D01*
X3688Y944D02*
X3731Y944D01*
X3788Y944D02*
X3831Y944D01*
X3888Y944D02*
X3931Y944D01*
X3988Y944D02*
X4031Y944D01*
X4088Y944D02*
X4131Y944D01*
X4288Y944D02*
X4331Y944D01*
X4388Y944D02*
X4431Y944D01*
X387Y943D02*
X433Y943D01*
X487Y943D02*
X533Y943D01*
X587Y943D02*
X633Y943D01*
X787Y943D02*
X833Y943D01*
X887Y943D02*
X933Y943D01*
X987Y943D02*
X1033Y943D01*
X1087Y943D02*
X1133Y943D01*
X1187Y943D02*
X1233Y943D01*
X1287Y943D02*
X1333Y943D01*
X1487Y943D02*
X1533Y943D01*
X1587Y943D02*
X1633Y943D01*
X1787Y943D02*
X1833Y943D01*
X1887Y943D02*
X1933Y943D01*
X1987Y943D02*
X2033Y943D01*
X2187Y943D02*
X2233Y943D01*
X2287Y943D02*
X2333Y943D01*
X2386Y943D02*
X2433Y943D01*
X2487Y943D02*
X2533Y943D01*
X2587Y943D02*
X2633Y943D01*
X2687Y943D02*
X2733Y943D01*
X2886Y943D02*
X2933Y943D01*
X2987Y943D02*
X3033Y943D01*
X3186Y943D02*
X3233Y943D01*
X3286Y943D02*
X3333Y943D01*
X3386Y943D02*
X3433Y943D01*
X3586Y943D02*
X3633Y943D01*
X3686Y943D02*
X3733Y943D01*
X3786Y943D02*
X3833Y943D01*
X3886Y943D02*
X3933Y943D01*
X3986Y943D02*
X4033Y943D01*
X4086Y943D02*
X4133Y943D01*
X4286Y943D02*
X4333Y943D01*
X4386Y943D02*
X4433Y943D01*
X385Y942D02*
X435Y942D01*
X485Y942D02*
X535Y942D01*
X585Y942D02*
X635Y942D01*
X785Y942D02*
X835Y942D01*
X885Y942D02*
X935Y942D01*
X985Y942D02*
X1035Y942D01*
X1085Y942D02*
X1135Y942D01*
X1185Y942D02*
X1235Y942D01*
X1285Y942D02*
X1335Y942D01*
X1485Y942D02*
X1535Y942D01*
X1585Y942D02*
X1635Y942D01*
X1785Y942D02*
X1835Y942D01*
X1885Y942D02*
X1935Y942D01*
X1985Y942D02*
X2035Y942D01*
X2185Y942D02*
X2235Y942D01*
X2285Y942D02*
X2335Y942D01*
X2385Y942D02*
X2435Y942D01*
X2485Y942D02*
X2535Y942D01*
X2585Y942D02*
X2635Y942D01*
X2685Y942D02*
X2735Y942D01*
X2885Y942D02*
X2935Y942D01*
X2985Y942D02*
X3035Y942D01*
X3185Y942D02*
X3235Y942D01*
X3285Y942D02*
X3335Y942D01*
X3385Y942D02*
X3435Y942D01*
X3585Y942D02*
X3635Y942D01*
X3685Y942D02*
X3735Y942D01*
X3785Y942D02*
X3835Y942D01*
X3885Y942D02*
X3935Y942D01*
X3985Y942D02*
X4035Y942D01*
X4085Y942D02*
X4135Y942D01*
X4285Y942D02*
X4335Y942D01*
X4385Y942D02*
X4435Y942D01*
X383Y941D02*
X437Y941D01*
X483Y941D02*
X537Y941D01*
X583Y941D02*
X637Y941D01*
X783Y941D02*
X837Y941D01*
X883Y941D02*
X937Y941D01*
X983Y941D02*
X1037Y941D01*
X1083Y941D02*
X1137Y941D01*
X1183Y941D02*
X1237Y941D01*
X1283Y941D02*
X1337Y941D01*
X1483Y941D02*
X1537Y941D01*
X1583Y941D02*
X1637Y941D01*
X1783Y941D02*
X1837Y941D01*
X1883Y941D02*
X1937Y941D01*
X1983Y941D02*
X2037Y941D01*
X2183Y941D02*
X2237Y941D01*
X2283Y941D02*
X2337Y941D01*
X2383Y941D02*
X2437Y941D01*
X2483Y941D02*
X2537Y941D01*
X2583Y941D02*
X2637Y941D01*
X2683Y941D02*
X2737Y941D01*
X2883Y941D02*
X2937Y941D01*
X2983Y941D02*
X3036Y941D01*
X3183Y941D02*
X3237Y941D01*
X3283Y941D02*
X3336Y941D01*
X3383Y941D02*
X3436Y941D01*
X3583Y941D02*
X3636Y941D01*
X3683Y941D02*
X3736Y941D01*
X3783Y941D02*
X3836Y941D01*
X3883Y941D02*
X3936Y941D01*
X3983Y941D02*
X4036Y941D01*
X4083Y941D02*
X4136Y941D01*
X4283Y941D02*
X4336Y941D01*
X4383Y941D02*
X4436Y941D01*
X382Y940D02*
X438Y940D01*
X482Y940D02*
X538Y940D01*
X582Y940D02*
X638Y940D01*
X782Y940D02*
X838Y940D01*
X882Y940D02*
X938Y940D01*
X982Y940D02*
X1038Y940D01*
X1082Y940D02*
X1138Y940D01*
X1182Y940D02*
X1238Y940D01*
X1282Y940D02*
X1338Y940D01*
X1482Y940D02*
X1538Y940D01*
X1582Y940D02*
X1638Y940D01*
X1782Y940D02*
X1838Y940D01*
X1882Y940D02*
X1938Y940D01*
X1982Y940D02*
X2038Y940D01*
X2182Y940D02*
X2238Y940D01*
X2282Y940D02*
X2338Y940D01*
X2381Y940D02*
X2438Y940D01*
X2482Y940D02*
X2538Y940D01*
X2582Y940D02*
X2638Y940D01*
X2682Y940D02*
X2738Y940D01*
X2881Y940D02*
X2938Y940D01*
X2982Y940D02*
X3038Y940D01*
X3181Y940D02*
X3238Y940D01*
X3281Y940D02*
X3338Y940D01*
X3381Y940D02*
X3438Y940D01*
X3581Y940D02*
X3638Y940D01*
X3681Y940D02*
X3738Y940D01*
X3781Y940D02*
X3838Y940D01*
X3881Y940D02*
X3938Y940D01*
X3981Y940D02*
X4038Y940D01*
X4081Y940D02*
X4138Y940D01*
X4281Y940D02*
X4338Y940D01*
X4381Y940D02*
X4438Y940D01*
X380Y939D02*
X440Y939D01*
X480Y939D02*
X540Y939D01*
X580Y939D02*
X640Y939D01*
X780Y939D02*
X840Y939D01*
X880Y939D02*
X940Y939D01*
X980Y939D02*
X1040Y939D01*
X1080Y939D02*
X1140Y939D01*
X1180Y939D02*
X1240Y939D01*
X1280Y939D02*
X1340Y939D01*
X1480Y939D02*
X1540Y939D01*
X1580Y939D02*
X1640Y939D01*
X1780Y939D02*
X1840Y939D01*
X1880Y939D02*
X1940Y939D01*
X1980Y939D02*
X2040Y939D01*
X2180Y939D02*
X2240Y939D01*
X2280Y939D02*
X2340Y939D01*
X2380Y939D02*
X2440Y939D01*
X2480Y939D02*
X2540Y939D01*
X2580Y939D02*
X2640Y939D01*
X2680Y939D02*
X2740Y939D01*
X2880Y939D02*
X2940Y939D01*
X2980Y939D02*
X3039Y939D01*
X3180Y939D02*
X3240Y939D01*
X3280Y939D02*
X3339Y939D01*
X3380Y939D02*
X3439Y939D01*
X3580Y939D02*
X3639Y939D01*
X3680Y939D02*
X3739Y939D01*
X3780Y939D02*
X3839Y939D01*
X3880Y939D02*
X3939Y939D01*
X3980Y939D02*
X4039Y939D01*
X4080Y939D02*
X4139Y939D01*
X4280Y939D02*
X4339Y939D01*
X4380Y939D02*
X4439Y939D01*
X379Y938D02*
X441Y938D01*
X479Y938D02*
X541Y938D01*
X579Y938D02*
X641Y938D01*
X779Y938D02*
X841Y938D01*
X879Y938D02*
X941Y938D01*
X979Y938D02*
X1041Y938D01*
X1079Y938D02*
X1141Y938D01*
X1179Y938D02*
X1241Y938D01*
X1279Y938D02*
X1341Y938D01*
X1479Y938D02*
X1541Y938D01*
X1579Y938D02*
X1641Y938D01*
X1779Y938D02*
X1841Y938D01*
X1879Y938D02*
X1941Y938D01*
X1979Y938D02*
X2041Y938D01*
X2179Y938D02*
X2241Y938D01*
X2279Y938D02*
X2341Y938D01*
X2379Y938D02*
X2441Y938D01*
X2479Y938D02*
X2541Y938D01*
X2579Y938D02*
X2641Y938D01*
X2679Y938D02*
X2741Y938D01*
X2879Y938D02*
X2941Y938D01*
X2979Y938D02*
X3041Y938D01*
X3179Y938D02*
X3241Y938D01*
X3279Y938D02*
X3341Y938D01*
X3379Y938D02*
X3441Y938D01*
X3579Y938D02*
X3641Y938D01*
X3679Y938D02*
X3741Y938D01*
X3779Y938D02*
X3841Y938D01*
X3879Y938D02*
X3941Y938D01*
X3979Y938D02*
X4041Y938D01*
X4079Y938D02*
X4141Y938D01*
X4279Y938D02*
X4341Y938D01*
X4379Y938D02*
X4441Y938D01*
X378Y937D02*
X443Y937D01*
X478Y937D02*
X543Y937D01*
X578Y937D02*
X642Y937D01*
X778Y937D02*
X842Y937D01*
X878Y937D02*
X942Y937D01*
X978Y937D02*
X1042Y937D01*
X1078Y937D02*
X1142Y937D01*
X1178Y937D02*
X1242Y937D01*
X1278Y937D02*
X1342Y937D01*
X1478Y937D02*
X1542Y937D01*
X1578Y937D02*
X1642Y937D01*
X1778Y937D02*
X1842Y937D01*
X1878Y937D02*
X1942Y937D01*
X1978Y937D02*
X2042Y937D01*
X2178Y937D02*
X2242Y937D01*
X2278Y937D02*
X2342Y937D01*
X2377Y937D02*
X2442Y937D01*
X2478Y937D02*
X2542Y937D01*
X2577Y937D02*
X2642Y937D01*
X2677Y937D02*
X2742Y937D01*
X2877Y937D02*
X2942Y937D01*
X2977Y937D02*
X3042Y937D01*
X3177Y937D02*
X3242Y937D01*
X3277Y937D02*
X3342Y937D01*
X3377Y937D02*
X3442Y937D01*
X3577Y937D02*
X3642Y937D01*
X3677Y937D02*
X3742Y937D01*
X3777Y937D02*
X3842Y937D01*
X3877Y937D02*
X3942Y937D01*
X3977Y937D02*
X4042Y937D01*
X4077Y937D02*
X4142Y937D01*
X4277Y937D02*
X4342Y937D01*
X4377Y937D02*
X4442Y937D01*
X377Y936D02*
X444Y936D01*
X477Y936D02*
X544Y936D01*
X577Y936D02*
X644Y936D01*
X777Y936D02*
X844Y936D01*
X877Y936D02*
X944Y936D01*
X977Y936D02*
X1044Y936D01*
X1077Y936D02*
X1144Y936D01*
X1177Y936D02*
X1244Y936D01*
X1277Y936D02*
X1344Y936D01*
X1476Y936D02*
X1544Y936D01*
X1576Y936D02*
X1643Y936D01*
X1776Y936D02*
X1844Y936D01*
X1876Y936D02*
X1943Y936D01*
X1976Y936D02*
X2043Y936D01*
X2176Y936D02*
X2243Y936D01*
X2276Y936D02*
X2343Y936D01*
X2376Y936D02*
X2443Y936D01*
X2476Y936D02*
X2543Y936D01*
X2576Y936D02*
X2643Y936D01*
X2676Y936D02*
X2743Y936D01*
X2876Y936D02*
X2943Y936D01*
X2976Y936D02*
X3043Y936D01*
X3176Y936D02*
X3243Y936D01*
X3276Y936D02*
X3343Y936D01*
X3376Y936D02*
X3443Y936D01*
X3576Y936D02*
X3643Y936D01*
X3676Y936D02*
X3743Y936D01*
X3776Y936D02*
X3843Y936D01*
X3876Y936D02*
X3943Y936D01*
X3976Y936D02*
X4043Y936D01*
X4076Y936D02*
X4143Y936D01*
X4276Y936D02*
X4343Y936D01*
X4376Y936D02*
X4443Y936D01*
X375Y935D02*
X445Y935D01*
X476Y935D02*
X545Y935D01*
X575Y935D02*
X645Y935D01*
X775Y935D02*
X845Y935D01*
X875Y935D02*
X945Y935D01*
X975Y935D02*
X1045Y935D01*
X1075Y935D02*
X1145Y935D01*
X1175Y935D02*
X1245Y935D01*
X1275Y935D02*
X1345Y935D01*
X1475Y935D02*
X1545Y935D01*
X1575Y935D02*
X1645Y935D01*
X1775Y935D02*
X1845Y935D01*
X1875Y935D02*
X1945Y935D01*
X1975Y935D02*
X2045Y935D01*
X2175Y935D02*
X2245Y935D01*
X2275Y935D02*
X2345Y935D01*
X2375Y935D02*
X2445Y935D01*
X2475Y935D02*
X2545Y935D01*
X2575Y935D02*
X2645Y935D01*
X2675Y935D02*
X2744Y935D01*
X2875Y935D02*
X2945Y935D01*
X2975Y935D02*
X3044Y935D01*
X3175Y935D02*
X3244Y935D01*
X3275Y935D02*
X3344Y935D01*
X3375Y935D02*
X3444Y935D01*
X3575Y935D02*
X3644Y935D01*
X3675Y935D02*
X3744Y935D01*
X3775Y935D02*
X3844Y935D01*
X3875Y935D02*
X3944Y935D01*
X3975Y935D02*
X4044Y935D01*
X4075Y935D02*
X4144Y935D01*
X4275Y935D02*
X4344Y935D01*
X4375Y935D02*
X4444Y935D01*
X374Y934D02*
X446Y934D01*
X474Y934D02*
X546Y934D01*
X574Y934D02*
X646Y934D01*
X774Y934D02*
X846Y934D01*
X874Y934D02*
X946Y934D01*
X974Y934D02*
X1046Y934D01*
X1074Y934D02*
X1146Y934D01*
X1174Y934D02*
X1246Y934D01*
X1274Y934D02*
X1346Y934D01*
X1474Y934D02*
X1546Y934D01*
X1574Y934D02*
X1646Y934D01*
X1774Y934D02*
X1846Y934D01*
X1874Y934D02*
X1946Y934D01*
X1974Y934D02*
X2046Y934D01*
X2174Y934D02*
X2246Y934D01*
X2274Y934D02*
X2346Y934D01*
X2374Y934D02*
X2446Y934D01*
X2474Y934D02*
X2546Y934D01*
X2574Y934D02*
X2646Y934D01*
X2674Y934D02*
X2746Y934D01*
X2874Y934D02*
X2946Y934D01*
X2974Y934D02*
X3046Y934D01*
X3174Y934D02*
X3246Y934D01*
X3274Y934D02*
X3346Y934D01*
X3374Y934D02*
X3446Y934D01*
X3574Y934D02*
X3646Y934D01*
X3674Y934D02*
X3745Y934D01*
X3774Y934D02*
X3845Y934D01*
X3874Y934D02*
X3945Y934D01*
X3974Y934D02*
X4045Y934D01*
X4074Y934D02*
X4145Y934D01*
X4274Y934D02*
X4345Y934D01*
X4374Y934D02*
X4445Y934D01*
X373Y933D02*
X447Y933D01*
X473Y933D02*
X547Y933D01*
X573Y933D02*
X647Y933D01*
X773Y933D02*
X847Y933D01*
X873Y933D02*
X947Y933D01*
X973Y933D02*
X1047Y933D01*
X1073Y933D02*
X1147Y933D01*
X1173Y933D02*
X1247Y933D01*
X1273Y933D02*
X1347Y933D01*
X1473Y933D02*
X1547Y933D01*
X1573Y933D02*
X1647Y933D01*
X1773Y933D02*
X1847Y933D01*
X1873Y933D02*
X1947Y933D01*
X1973Y933D02*
X2047Y933D01*
X2173Y933D02*
X2247Y933D01*
X2273Y933D02*
X2347Y933D01*
X2373Y933D02*
X2447Y933D01*
X2473Y933D02*
X2547Y933D01*
X2573Y933D02*
X2647Y933D01*
X2673Y933D02*
X2747Y933D01*
X2873Y933D02*
X2947Y933D01*
X2973Y933D02*
X3047Y933D01*
X3173Y933D02*
X3247Y933D01*
X3273Y933D02*
X3347Y933D01*
X3373Y933D02*
X3447Y933D01*
X3573Y933D02*
X3646Y933D01*
X3673Y933D02*
X3746Y933D01*
X3773Y933D02*
X3846Y933D01*
X3873Y933D02*
X3946Y933D01*
X3973Y933D02*
X4046Y933D01*
X4073Y933D02*
X4146Y933D01*
X4273Y933D02*
X4346Y933D01*
X4373Y933D02*
X4446Y933D01*
X373Y932D02*
X448Y932D01*
X473Y932D02*
X548Y932D01*
X572Y932D02*
X648Y932D01*
X772Y932D02*
X848Y932D01*
X872Y932D02*
X948Y932D01*
X972Y932D02*
X1048Y932D01*
X1072Y932D02*
X1148Y932D01*
X1172Y932D02*
X1248Y932D01*
X1272Y932D02*
X1348Y932D01*
X1472Y932D02*
X1548Y932D01*
X1572Y932D02*
X1648Y932D01*
X1772Y932D02*
X1848Y932D01*
X1872Y932D02*
X1948Y932D01*
X1972Y932D02*
X2048Y932D01*
X2172Y932D02*
X2248Y932D01*
X2272Y932D02*
X2348Y932D01*
X2372Y932D02*
X2448Y932D01*
X2472Y932D02*
X2548Y932D01*
X2572Y932D02*
X2647Y932D01*
X2672Y932D02*
X2747Y932D01*
X2872Y932D02*
X2948Y932D01*
X2972Y932D02*
X3047Y932D01*
X3172Y932D02*
X3247Y932D01*
X3272Y932D02*
X3347Y932D01*
X3372Y932D02*
X3447Y932D01*
X3572Y932D02*
X3647Y932D01*
X3672Y932D02*
X3747Y932D01*
X3772Y932D02*
X3847Y932D01*
X3872Y932D02*
X3947Y932D01*
X3972Y932D02*
X4047Y932D01*
X4072Y932D02*
X4147Y932D01*
X4272Y932D02*
X4347Y932D01*
X4372Y932D02*
X4447Y932D01*
X372Y931D02*
X449Y931D01*
X472Y931D02*
X549Y931D01*
X572Y931D02*
X649Y931D01*
X772Y931D02*
X849Y931D01*
X872Y931D02*
X949Y931D01*
X972Y931D02*
X1049Y931D01*
X1072Y931D02*
X1149Y931D01*
X1172Y931D02*
X1249Y931D01*
X1272Y931D02*
X1349Y931D01*
X1471Y931D02*
X1549Y931D01*
X1572Y931D02*
X1648Y931D01*
X1771Y931D02*
X1848Y931D01*
X1871Y931D02*
X1948Y931D01*
X1971Y931D02*
X2048Y931D01*
X2171Y931D02*
X2248Y931D01*
X2271Y931D02*
X2348Y931D01*
X2371Y931D02*
X2448Y931D01*
X2471Y931D02*
X2548Y931D01*
X2571Y931D02*
X2648Y931D01*
X2671Y931D02*
X2748Y931D01*
X2871Y931D02*
X2948Y931D01*
X2971Y931D02*
X3048Y931D01*
X3171Y931D02*
X3248Y931D01*
X3271Y931D02*
X3348Y931D01*
X3371Y931D02*
X3448Y931D01*
X3571Y931D02*
X3648Y931D01*
X3671Y931D02*
X3748Y931D01*
X3771Y931D02*
X3848Y931D01*
X3871Y931D02*
X3948Y931D01*
X3971Y931D02*
X4048Y931D01*
X4071Y931D02*
X4148Y931D01*
X4271Y931D02*
X4348Y931D01*
X4371Y931D02*
X4448Y931D01*
X371Y930D02*
X450Y930D01*
X471Y930D02*
X550Y930D01*
X571Y930D02*
X649Y930D01*
X771Y930D02*
X849Y930D01*
X871Y930D02*
X949Y930D01*
X971Y930D02*
X1049Y930D01*
X1071Y930D02*
X1149Y930D01*
X1171Y930D02*
X1249Y930D01*
X1271Y930D02*
X1349Y930D01*
X1471Y930D02*
X1549Y930D01*
X1571Y930D02*
X1649Y930D01*
X1771Y930D02*
X1849Y930D01*
X1871Y930D02*
X1949Y930D01*
X1971Y930D02*
X2049Y930D01*
X2171Y930D02*
X2249Y930D01*
X2271Y930D02*
X2349Y930D01*
X2371Y930D02*
X2449Y930D01*
X2471Y930D02*
X2549Y930D01*
X2571Y930D02*
X2649Y930D01*
X2670Y930D02*
X2749Y930D01*
X2870Y930D02*
X2949Y930D01*
X2970Y930D02*
X3049Y930D01*
X3170Y930D02*
X3249Y930D01*
X3270Y930D02*
X3349Y930D01*
X3370Y930D02*
X3449Y930D01*
X3570Y930D02*
X3649Y930D01*
X3670Y930D02*
X3749Y930D01*
X3770Y930D02*
X3849Y930D01*
X3870Y930D02*
X3949Y930D01*
X3970Y930D02*
X4049Y930D01*
X4070Y930D02*
X4149Y930D01*
X4270Y930D02*
X4349Y930D01*
X4370Y930D02*
X4449Y930D01*
X370Y929D02*
X450Y929D01*
X470Y929D02*
X550Y929D01*
X570Y929D02*
X650Y929D01*
X770Y929D02*
X850Y929D01*
X870Y929D02*
X950Y929D01*
X970Y929D02*
X1050Y929D01*
X1070Y929D02*
X1150Y929D01*
X1170Y929D02*
X1250Y929D01*
X1270Y929D02*
X1350Y929D01*
X1470Y929D02*
X1550Y929D01*
X1570Y929D02*
X1650Y929D01*
X1770Y929D02*
X1850Y929D01*
X1870Y929D02*
X1950Y929D01*
X1970Y929D02*
X2050Y929D01*
X2170Y929D02*
X2250Y929D01*
X2270Y929D02*
X2350Y929D01*
X2370Y929D02*
X2450Y929D01*
X2470Y929D02*
X2550Y929D01*
X2570Y929D02*
X2650Y929D01*
X2670Y929D02*
X2750Y929D01*
X2870Y929D02*
X2950Y929D01*
X2970Y929D02*
X3050Y929D01*
X3170Y929D02*
X3250Y929D01*
X3270Y929D02*
X3350Y929D01*
X3370Y929D02*
X3450Y929D01*
X3570Y929D02*
X3650Y929D01*
X3670Y929D02*
X3750Y929D01*
X3770Y929D02*
X3850Y929D01*
X3870Y929D02*
X3950Y929D01*
X3970Y929D02*
X4050Y929D01*
X4070Y929D02*
X4150Y929D01*
X4270Y929D02*
X4350Y929D01*
X4370Y929D02*
X4450Y929D01*
X369Y928D02*
X451Y928D01*
X469Y928D02*
X551Y928D01*
X569Y928D02*
X651Y928D01*
X769Y928D02*
X851Y928D01*
X869Y928D02*
X951Y928D01*
X969Y928D02*
X1051Y928D01*
X1069Y928D02*
X1151Y928D01*
X1169Y928D02*
X1251Y928D01*
X1269Y928D02*
X1351Y928D01*
X1469Y928D02*
X1551Y928D01*
X1569Y928D02*
X1651Y928D01*
X1769Y928D02*
X1851Y928D01*
X1869Y928D02*
X1951Y928D01*
X1969Y928D02*
X2051Y928D01*
X2169Y928D02*
X2251Y928D01*
X2269Y928D02*
X2351Y928D01*
X2369Y928D02*
X2451Y928D01*
X2469Y928D02*
X2551Y928D01*
X2569Y928D02*
X2651Y928D01*
X2669Y928D02*
X2751Y928D01*
X2869Y928D02*
X2951Y928D01*
X2969Y928D02*
X3051Y928D01*
X3169Y928D02*
X3251Y928D01*
X3269Y928D02*
X3351Y928D01*
X3369Y928D02*
X3451Y928D01*
X3569Y928D02*
X3651Y928D01*
X3669Y928D02*
X3751Y928D01*
X3769Y928D02*
X3851Y928D01*
X3869Y928D02*
X3951Y928D01*
X3969Y928D02*
X4051Y928D01*
X4069Y928D02*
X4151Y928D01*
X4269Y928D02*
X4351Y928D01*
X4369Y928D02*
X4451Y928D01*
X369Y927D02*
X452Y927D01*
X469Y927D02*
X552Y927D01*
X569Y927D02*
X652Y927D01*
X769Y927D02*
X852Y927D01*
X868Y927D02*
X952Y927D01*
X968Y927D02*
X1052Y927D01*
X1068Y927D02*
X1152Y927D01*
X1168Y927D02*
X1252Y927D01*
X1268Y927D02*
X1352Y927D01*
X1468Y927D02*
X1552Y927D01*
X1568Y927D02*
X1652Y927D01*
X1768Y927D02*
X1852Y927D01*
X1868Y927D02*
X1952Y927D01*
X1968Y927D02*
X2052Y927D01*
X2168Y927D02*
X2252Y927D01*
X2268Y927D02*
X2352Y927D01*
X2368Y927D02*
X2452Y927D01*
X2468Y927D02*
X2551Y927D01*
X2568Y927D02*
X2651Y927D01*
X2668Y927D02*
X2751Y927D01*
X2868Y927D02*
X2951Y927D01*
X2968Y927D02*
X3051Y927D01*
X3168Y927D02*
X3251Y927D01*
X3268Y927D02*
X3351Y927D01*
X3368Y927D02*
X3451Y927D01*
X3568Y927D02*
X3651Y927D01*
X3668Y927D02*
X3751Y927D01*
X3768Y927D02*
X3851Y927D01*
X3868Y927D02*
X3951Y927D01*
X3968Y927D02*
X4051Y927D01*
X4068Y927D02*
X4151Y927D01*
X4268Y927D02*
X4351Y927D01*
X4368Y927D02*
X4451Y927D01*
X368Y926D02*
X452Y926D01*
X468Y926D02*
X552Y926D01*
X568Y926D02*
X652Y926D01*
X768Y926D02*
X852Y926D01*
X868Y926D02*
X952Y926D01*
X968Y926D02*
X1052Y926D01*
X1068Y926D02*
X1152Y926D01*
X1168Y926D02*
X1252Y926D01*
X1268Y926D02*
X1352Y926D01*
X1468Y926D02*
X1552Y926D01*
X1568Y926D02*
X1652Y926D01*
X1768Y926D02*
X1852Y926D01*
X1868Y926D02*
X1952Y926D01*
X1968Y926D02*
X2052Y926D01*
X2168Y926D02*
X2252Y926D01*
X2268Y926D02*
X2352Y926D01*
X2368Y926D02*
X2452Y926D01*
X2468Y926D02*
X2552Y926D01*
X2568Y926D02*
X2652Y926D01*
X2668Y926D02*
X2752Y926D01*
X2868Y926D02*
X2952Y926D01*
X2968Y926D02*
X3052Y926D01*
X3167Y926D02*
X3252Y926D01*
X3267Y926D02*
X3352Y926D01*
X3367Y926D02*
X3452Y926D01*
X3567Y926D02*
X3652Y926D01*
X3667Y926D02*
X3752Y926D01*
X3767Y926D02*
X3852Y926D01*
X3867Y926D02*
X3952Y926D01*
X3967Y926D02*
X4052Y926D01*
X4067Y926D02*
X4152Y926D01*
X4267Y926D02*
X4352Y926D01*
X4367Y926D02*
X4452Y926D01*
X367Y925D02*
X453Y925D01*
X467Y925D02*
X553Y925D01*
X567Y925D02*
X653Y925D01*
X767Y925D02*
X853Y925D01*
X867Y925D02*
X953Y925D01*
X967Y925D02*
X1053Y925D01*
X1067Y925D02*
X1153Y925D01*
X1167Y925D02*
X1253Y925D01*
X1267Y925D02*
X1353Y925D01*
X1467Y925D02*
X1553Y925D01*
X1567Y925D02*
X1653Y925D01*
X1767Y925D02*
X1853Y925D01*
X1867Y925D02*
X1953Y925D01*
X1967Y925D02*
X2053Y925D01*
X2167Y925D02*
X2253Y925D01*
X2267Y925D02*
X2353Y925D01*
X2367Y925D02*
X2453Y925D01*
X2467Y925D02*
X2553Y925D01*
X2567Y925D02*
X2653Y925D01*
X2667Y925D02*
X2753Y925D01*
X2867Y925D02*
X2953Y925D01*
X2967Y925D02*
X3053Y925D01*
X3167Y925D02*
X3253Y925D01*
X3267Y925D02*
X3353Y925D01*
X3367Y925D02*
X3453Y925D01*
X3567Y925D02*
X3653Y925D01*
X3667Y925D02*
X3753Y925D01*
X3767Y925D02*
X3853Y925D01*
X3867Y925D02*
X3953Y925D01*
X3967Y925D02*
X4053Y925D01*
X4067Y925D02*
X4153Y925D01*
X4267Y925D02*
X4353Y925D01*
X4367Y925D02*
X4453Y925D01*
X367Y924D02*
X454Y924D01*
X467Y924D02*
X554Y924D01*
X567Y924D02*
X654Y924D01*
X767Y924D02*
X854Y924D01*
X867Y924D02*
X954Y924D01*
X966Y924D02*
X1054Y924D01*
X1067Y924D02*
X1154Y924D01*
X1166Y924D02*
X1254Y924D01*
X1266Y924D02*
X1354Y924D01*
X1466Y924D02*
X1554Y924D01*
X1566Y924D02*
X1654Y924D01*
X1766Y924D02*
X1854Y924D01*
X1866Y924D02*
X1954Y924D01*
X1966Y924D02*
X2054Y924D01*
X2166Y924D02*
X2254Y924D01*
X2266Y924D02*
X2353Y924D01*
X2366Y924D02*
X2453Y924D01*
X2466Y924D02*
X2553Y924D01*
X2566Y924D02*
X2653Y924D01*
X2666Y924D02*
X2753Y924D01*
X2866Y924D02*
X2953Y924D01*
X2966Y924D02*
X3053Y924D01*
X3166Y924D02*
X3253Y924D01*
X3266Y924D02*
X3353Y924D01*
X3366Y924D02*
X3453Y924D01*
X3566Y924D02*
X3653Y924D01*
X3666Y924D02*
X3753Y924D01*
X3766Y924D02*
X3853Y924D01*
X3866Y924D02*
X3953Y924D01*
X3966Y924D02*
X4053Y924D01*
X4066Y924D02*
X4153Y924D01*
X4266Y924D02*
X4353Y924D01*
X4366Y924D02*
X4453Y924D01*
X366Y923D02*
X454Y923D01*
X466Y923D02*
X554Y923D01*
X566Y923D02*
X654Y923D01*
X766Y923D02*
X854Y923D01*
X866Y923D02*
X954Y923D01*
X966Y923D02*
X1054Y923D01*
X1066Y923D02*
X1154Y923D01*
X1166Y923D02*
X1254Y923D01*
X1266Y923D02*
X1354Y923D01*
X1466Y923D02*
X1554Y923D01*
X1566Y923D02*
X1654Y923D01*
X1766Y923D02*
X1854Y923D01*
X1866Y923D02*
X1954Y923D01*
X1966Y923D02*
X2054Y923D01*
X2166Y923D02*
X2254Y923D01*
X2266Y923D02*
X2354Y923D01*
X2366Y923D02*
X2454Y923D01*
X2466Y923D02*
X2554Y923D01*
X2566Y923D02*
X2654Y923D01*
X2666Y923D02*
X2754Y923D01*
X2866Y923D02*
X2954Y923D01*
X2966Y923D02*
X3054Y923D01*
X3166Y923D02*
X3254Y923D01*
X3266Y923D02*
X3354Y923D01*
X3366Y923D02*
X3454Y923D01*
X3566Y923D02*
X3654Y923D01*
X3666Y923D02*
X3754Y923D01*
X3766Y923D02*
X3854Y923D01*
X3866Y923D02*
X3954Y923D01*
X3966Y923D02*
X4054Y923D01*
X4065Y923D02*
X4154Y923D01*
X4265Y923D02*
X4354Y923D01*
X4365Y923D02*
X4454Y923D01*
X365Y922D02*
X455Y922D01*
X465Y922D02*
X555Y922D01*
X565Y922D02*
X655Y922D01*
X765Y922D02*
X855Y922D01*
X865Y922D02*
X955Y922D01*
X965Y922D02*
X1055Y922D01*
X1065Y922D02*
X1155Y922D01*
X1165Y922D02*
X1255Y922D01*
X1265Y922D02*
X1355Y922D01*
X1465Y922D02*
X1555Y922D01*
X1565Y922D02*
X1655Y922D01*
X1765Y922D02*
X1855Y922D01*
X1865Y922D02*
X1955Y922D01*
X1965Y922D02*
X2055Y922D01*
X2165Y922D02*
X2255Y922D01*
X2265Y922D02*
X2355Y922D01*
X2365Y922D02*
X2455Y922D01*
X2465Y922D02*
X2555Y922D01*
X2565Y922D02*
X2655Y922D01*
X2665Y922D02*
X2755Y922D01*
X2865Y922D02*
X2955Y922D01*
X2965Y922D02*
X3055Y922D01*
X3165Y922D02*
X3255Y922D01*
X3265Y922D02*
X3355Y922D01*
X3365Y922D02*
X3455Y922D01*
X3565Y922D02*
X3655Y922D01*
X3665Y922D02*
X3755Y922D01*
X3765Y922D02*
X3855Y922D01*
X3865Y922D02*
X3955Y922D01*
X3965Y922D02*
X4055Y922D01*
X4065Y922D02*
X4154Y922D01*
X4265Y922D02*
X4355Y922D01*
X4365Y922D02*
X4454Y922D01*
X365Y921D02*
X455Y921D01*
X465Y921D02*
X555Y921D01*
X565Y921D02*
X655Y921D01*
X765Y921D02*
X855Y921D01*
X865Y921D02*
X955Y921D01*
X965Y921D02*
X1055Y921D01*
X1065Y921D02*
X1155Y921D01*
X1165Y921D02*
X1255Y921D01*
X1265Y921D02*
X1355Y921D01*
X1465Y921D02*
X1555Y921D01*
X1565Y921D02*
X1655Y921D01*
X1765Y921D02*
X1855Y921D01*
X1865Y921D02*
X1955Y921D01*
X1965Y921D02*
X2055Y921D01*
X2165Y921D02*
X2255Y921D01*
X2265Y921D02*
X2355Y921D01*
X2365Y921D02*
X2455Y921D01*
X2465Y921D02*
X2555Y921D01*
X2565Y921D02*
X2655Y921D01*
X2665Y921D02*
X2755Y921D01*
X2865Y921D02*
X2955Y921D01*
X2965Y921D02*
X3055Y921D01*
X3164Y921D02*
X3255Y921D01*
X3264Y921D02*
X3355Y921D01*
X3364Y921D02*
X3455Y921D01*
X3564Y921D02*
X3655Y921D01*
X3664Y921D02*
X3755Y921D01*
X3764Y921D02*
X3855Y921D01*
X3864Y921D02*
X3955Y921D01*
X3964Y921D02*
X4055Y921D01*
X4064Y921D02*
X4155Y921D01*
X4264Y921D02*
X4355Y921D01*
X4364Y921D02*
X4455Y921D01*
X364Y920D02*
X456Y920D01*
X464Y920D02*
X556Y920D01*
X564Y920D02*
X656Y920D01*
X764Y920D02*
X856Y920D01*
X864Y920D02*
X956Y920D01*
X964Y920D02*
X1056Y920D01*
X1064Y920D02*
X1156Y920D01*
X1164Y920D02*
X1256Y920D01*
X1264Y920D02*
X1356Y920D01*
X1464Y920D02*
X1556Y920D01*
X1564Y920D02*
X1656Y920D01*
X1764Y920D02*
X1856Y920D01*
X1864Y920D02*
X1956Y920D01*
X1964Y920D02*
X2056Y920D01*
X2164Y920D02*
X2256Y920D01*
X2264Y920D02*
X2356Y920D01*
X2364Y920D02*
X2456Y920D01*
X2464Y920D02*
X2556Y920D01*
X2564Y920D02*
X2656Y920D01*
X2664Y920D02*
X2756Y920D01*
X2864Y920D02*
X2956Y920D01*
X2964Y920D02*
X3056Y920D01*
X3164Y920D02*
X3256Y920D01*
X3264Y920D02*
X3356Y920D01*
X3364Y920D02*
X3456Y920D01*
X3564Y920D02*
X3656Y920D01*
X3664Y920D02*
X3756Y920D01*
X3764Y920D02*
X3856Y920D01*
X3864Y920D02*
X3956Y920D01*
X3964Y920D02*
X4056Y920D01*
X4064Y920D02*
X4156Y920D01*
X4264Y920D02*
X4356Y920D01*
X4364Y920D02*
X4455Y920D01*
X364Y919D02*
X456Y919D01*
X464Y919D02*
X556Y919D01*
X564Y919D02*
X656Y919D01*
X764Y919D02*
X856Y919D01*
X864Y919D02*
X956Y919D01*
X964Y919D02*
X1056Y919D01*
X1064Y919D02*
X1156Y919D01*
X1164Y919D02*
X1256Y919D01*
X1264Y919D02*
X1356Y919D01*
X1464Y919D02*
X1556Y919D01*
X1564Y919D02*
X1656Y919D01*
X1764Y919D02*
X1856Y919D01*
X1864Y919D02*
X1956Y919D01*
X1964Y919D02*
X2056Y919D01*
X2164Y919D02*
X2256Y919D01*
X2264Y919D02*
X2356Y919D01*
X2364Y919D02*
X2456Y919D01*
X2464Y919D02*
X2556Y919D01*
X2564Y919D02*
X2656Y919D01*
X2664Y919D02*
X2756Y919D01*
X2864Y919D02*
X2956Y919D01*
X2964Y919D02*
X3056Y919D01*
X3163Y919D02*
X3256Y919D01*
X3263Y919D02*
X3356Y919D01*
X3363Y919D02*
X3456Y919D01*
X3563Y919D02*
X3656Y919D01*
X3663Y919D02*
X3756Y919D01*
X3763Y919D02*
X3856Y919D01*
X3863Y919D02*
X3956Y919D01*
X3963Y919D02*
X4056Y919D01*
X4063Y919D02*
X4156Y919D01*
X4263Y919D02*
X4356Y919D01*
X4363Y919D02*
X4456Y919D01*
X363Y918D02*
X457Y918D01*
X463Y918D02*
X557Y918D01*
X563Y918D02*
X657Y918D01*
X763Y918D02*
X857Y918D01*
X863Y918D02*
X957Y918D01*
X963Y918D02*
X1057Y918D01*
X1063Y918D02*
X1157Y918D01*
X1163Y918D02*
X1257Y918D01*
X1263Y918D02*
X1357Y918D01*
X1463Y918D02*
X1557Y918D01*
X1563Y918D02*
X1657Y918D01*
X1763Y918D02*
X1857Y918D01*
X1863Y918D02*
X1957Y918D01*
X1963Y918D02*
X2057Y918D01*
X2163Y918D02*
X2257Y918D01*
X2263Y918D02*
X2357Y918D01*
X2363Y918D02*
X2457Y918D01*
X2463Y918D02*
X2557Y918D01*
X2563Y918D02*
X2657Y918D01*
X2663Y918D02*
X2757Y918D01*
X2863Y918D02*
X2957Y918D01*
X2963Y918D02*
X3057Y918D01*
X3163Y918D02*
X3257Y918D01*
X3263Y918D02*
X3357Y918D01*
X3363Y918D02*
X3457Y918D01*
X3563Y918D02*
X3657Y918D01*
X3663Y918D02*
X3757Y918D01*
X3763Y918D02*
X3857Y918D01*
X3863Y918D02*
X3957Y918D01*
X3963Y918D02*
X4057Y918D01*
X4063Y918D02*
X4156Y918D01*
X4263Y918D02*
X4357Y918D01*
X4363Y918D02*
X4456Y918D01*
X363Y917D02*
X457Y917D01*
X463Y917D02*
X557Y917D01*
X563Y917D02*
X657Y917D01*
X763Y917D02*
X857Y917D01*
X863Y917D02*
X957Y917D01*
X963Y917D02*
X1057Y917D01*
X1063Y917D02*
X1157Y917D01*
X1163Y917D02*
X1257Y917D01*
X1263Y917D02*
X1357Y917D01*
X1463Y917D02*
X1557Y917D01*
X1563Y917D02*
X1657Y917D01*
X1763Y917D02*
X1857Y917D01*
X1863Y917D02*
X1957Y917D01*
X1963Y917D02*
X2057Y917D01*
X2163Y917D02*
X2257Y917D01*
X2263Y917D02*
X2357Y917D01*
X2363Y917D02*
X2457Y917D01*
X2463Y917D02*
X2557Y917D01*
X2563Y917D02*
X2657Y917D01*
X2663Y917D02*
X2757Y917D01*
X2863Y917D02*
X2957Y917D01*
X2963Y917D02*
X3057Y917D01*
X3163Y917D02*
X3257Y917D01*
X3263Y917D02*
X3357Y917D01*
X3363Y917D02*
X3457Y917D01*
X3563Y917D02*
X3657Y917D01*
X3662Y917D02*
X3757Y917D01*
X3762Y917D02*
X3857Y917D01*
X3862Y917D02*
X3957Y917D01*
X3962Y917D02*
X4057Y917D01*
X4062Y917D02*
X4157Y917D01*
X4262Y917D02*
X4357Y917D01*
X4362Y917D02*
X4457Y917D01*
X363Y916D02*
X458Y916D01*
X463Y916D02*
X558Y916D01*
X562Y916D02*
X658Y916D01*
X762Y916D02*
X858Y916D01*
X862Y916D02*
X958Y916D01*
X962Y916D02*
X1058Y916D01*
X1062Y916D02*
X1158Y916D01*
X1162Y916D02*
X1258Y916D01*
X1262Y916D02*
X1358Y916D01*
X1462Y916D02*
X1558Y916D01*
X1562Y916D02*
X1658Y916D01*
X1762Y916D02*
X1858Y916D01*
X1862Y916D02*
X1958Y916D01*
X1962Y916D02*
X2058Y916D01*
X2162Y916D02*
X2258Y916D01*
X2262Y916D02*
X2358Y916D01*
X2362Y916D02*
X2458Y916D01*
X2462Y916D02*
X2558Y916D01*
X2562Y916D02*
X2658Y916D01*
X2662Y916D02*
X2757Y916D01*
X2862Y916D02*
X2958Y916D01*
X2962Y916D02*
X3057Y916D01*
X3162Y916D02*
X3257Y916D01*
X3262Y916D02*
X3357Y916D01*
X3362Y916D02*
X3457Y916D01*
X3562Y916D02*
X3657Y916D01*
X3662Y916D02*
X3757Y916D01*
X3762Y916D02*
X3857Y916D01*
X3862Y916D02*
X3957Y916D01*
X3962Y916D02*
X4057Y916D01*
X4062Y916D02*
X4157Y916D01*
X4262Y916D02*
X4357Y916D01*
X4362Y916D02*
X4457Y916D01*
X362Y915D02*
X458Y915D01*
X462Y915D02*
X558Y915D01*
X562Y915D02*
X658Y915D01*
X762Y915D02*
X858Y915D01*
X862Y915D02*
X958Y915D01*
X962Y915D02*
X1058Y915D01*
X1062Y915D02*
X1158Y915D01*
X1162Y915D02*
X1258Y915D01*
X1262Y915D02*
X1358Y915D01*
X1462Y915D02*
X1558Y915D01*
X1562Y915D02*
X1658Y915D01*
X1762Y915D02*
X1858Y915D01*
X1862Y915D02*
X1958Y915D01*
X1962Y915D02*
X2058Y915D01*
X2162Y915D02*
X2258Y915D01*
X2262Y915D02*
X2358Y915D01*
X2362Y915D02*
X2458Y915D01*
X2462Y915D02*
X2558Y915D01*
X2562Y915D02*
X2658Y915D01*
X2662Y915D02*
X2758Y915D01*
X2862Y915D02*
X2958Y915D01*
X2962Y915D02*
X3058Y915D01*
X3162Y915D02*
X3258Y915D01*
X3262Y915D02*
X3358Y915D01*
X3362Y915D02*
X3458Y915D01*
X3562Y915D02*
X3658Y915D01*
X3662Y915D02*
X3758Y915D01*
X3762Y915D02*
X3858Y915D01*
X3862Y915D02*
X3958Y915D01*
X3962Y915D02*
X4058Y915D01*
X4062Y915D02*
X4158Y915D01*
X4262Y915D02*
X4358Y915D01*
X4362Y915D02*
X4458Y915D01*
X362Y914D02*
X458Y914D01*
X462Y914D02*
X558Y914D01*
X562Y914D02*
X658Y914D01*
X762Y914D02*
X858Y914D01*
X862Y914D02*
X958Y914D01*
X962Y914D02*
X1058Y914D01*
X1062Y914D02*
X1158Y914D01*
X1162Y914D02*
X1258Y914D01*
X1262Y914D02*
X1358Y914D01*
X1462Y914D02*
X1558Y914D01*
X1562Y914D02*
X1658Y914D01*
X1762Y914D02*
X1858Y914D01*
X1862Y914D02*
X1958Y914D01*
X1962Y914D02*
X2058Y914D01*
X2162Y914D02*
X2258Y914D01*
X2262Y914D02*
X2358Y914D01*
X2362Y914D02*
X2458Y914D01*
X2462Y914D02*
X2558Y914D01*
X2562Y914D02*
X2658Y914D01*
X2662Y914D02*
X2758Y914D01*
X2862Y914D02*
X2958Y914D01*
X2962Y914D02*
X3058Y914D01*
X3161Y914D02*
X3258Y914D01*
X3261Y914D02*
X3358Y914D01*
X3361Y914D02*
X3458Y914D01*
X3561Y914D02*
X3658Y914D01*
X3661Y914D02*
X3758Y914D01*
X3761Y914D02*
X3858Y914D01*
X3861Y914D02*
X3958Y914D01*
X3961Y914D02*
X4058Y914D01*
X4061Y914D02*
X4158Y914D01*
X4261Y914D02*
X4358Y914D01*
X4361Y914D02*
X4458Y914D01*
X361Y913D02*
X459Y913D01*
X461Y913D02*
X559Y913D01*
X561Y913D02*
X659Y913D01*
X761Y913D02*
X859Y913D01*
X861Y913D02*
X959Y913D01*
X961Y913D02*
X1059Y913D01*
X1061Y913D02*
X1159Y913D01*
X1161Y913D02*
X1259Y913D01*
X1261Y913D02*
X1359Y913D01*
X1461Y913D02*
X1559Y913D01*
X1561Y913D02*
X1659Y913D01*
X1761Y913D02*
X1859Y913D01*
X1861Y913D02*
X1959Y913D01*
X1961Y913D02*
X2059Y913D01*
X2161Y913D02*
X2259Y913D01*
X2261Y913D02*
X2359Y913D01*
X2361Y913D02*
X2459Y913D01*
X2461Y913D02*
X2559Y913D01*
X2561Y913D02*
X2659Y913D01*
X2661Y913D02*
X2759Y913D01*
X2861Y913D02*
X2959Y913D01*
X2961Y913D02*
X3059Y913D01*
X3161Y913D02*
X3259Y913D01*
X3261Y913D02*
X3359Y913D01*
X3361Y913D02*
X3458Y913D01*
X3561Y913D02*
X3658Y913D01*
X3661Y913D02*
X3758Y913D01*
X3761Y913D02*
X3858Y913D01*
X3861Y913D02*
X3958Y913D01*
X3961Y913D02*
X4058Y913D01*
X4061Y913D02*
X4158Y913D01*
X4261Y913D02*
X4358Y913D01*
X4361Y913D02*
X4458Y913D01*
X361Y912D02*
X459Y912D01*
X461Y912D02*
X559Y912D01*
X561Y912D02*
X659Y912D01*
X761Y912D02*
X859Y912D01*
X861Y912D02*
X959Y912D01*
X961Y912D02*
X1059Y912D01*
X1061Y912D02*
X1159Y912D01*
X1161Y912D02*
X1259Y912D01*
X1261Y912D02*
X1359Y912D01*
X1461Y912D02*
X1559Y912D01*
X1561Y912D02*
X1659Y912D01*
X1761Y912D02*
X1859Y912D01*
X1861Y912D02*
X1959Y912D01*
X1961Y912D02*
X2059Y912D01*
X2161Y912D02*
X2259Y912D01*
X2261Y912D02*
X2359Y912D01*
X2361Y912D02*
X2459Y912D01*
X2461Y912D02*
X2559Y912D01*
X2561Y912D02*
X2659Y912D01*
X2661Y912D02*
X2759Y912D01*
X2861Y912D02*
X2959Y912D01*
X2961Y912D02*
X3059Y912D01*
X3161Y912D02*
X3259Y912D01*
X3261Y912D02*
X3359Y912D01*
X3361Y912D02*
X3459Y912D01*
X3561Y912D02*
X3659Y912D01*
X3661Y912D02*
X3759Y912D01*
X3761Y912D02*
X3859Y912D01*
X3861Y912D02*
X3959Y912D01*
X3961Y912D02*
X4059Y912D01*
X4061Y912D02*
X4159Y912D01*
X4261Y912D02*
X4359Y912D01*
X4361Y912D02*
X4459Y912D01*
X361Y911D02*
X459Y911D01*
X461Y911D02*
X559Y911D01*
X561Y911D02*
X659Y911D01*
X761Y911D02*
X859Y911D01*
X861Y911D02*
X959Y911D01*
X961Y911D02*
X1059Y911D01*
X1061Y911D02*
X1159Y911D01*
X1161Y911D02*
X1259Y911D01*
X1261Y911D02*
X1359Y911D01*
X1461Y911D02*
X1559Y911D01*
X1561Y911D02*
X1659Y911D01*
X1761Y911D02*
X1859Y911D01*
X1861Y911D02*
X1959Y911D01*
X1961Y911D02*
X2059Y911D01*
X2161Y911D02*
X2259Y911D01*
X2261Y911D02*
X2359Y911D01*
X2361Y911D02*
X2459Y911D01*
X2461Y911D02*
X2559Y911D01*
X2561Y911D02*
X2659Y911D01*
X2661Y911D02*
X2759Y911D01*
X2861Y911D02*
X2959Y911D01*
X2961Y911D02*
X3059Y911D01*
X3161Y911D02*
X3259Y911D01*
X3261Y911D02*
X3359Y911D01*
X3361Y911D02*
X3459Y911D01*
X3561Y911D02*
X3659Y911D01*
X3661Y911D02*
X4159Y911D01*
X4260Y911D02*
X4459Y911D01*
X361Y910D02*
X660Y910D01*
X761Y910D02*
X1360Y910D01*
X1461Y910D02*
X1659Y910D01*
X1760Y910D02*
X2059Y910D01*
X2160Y910D02*
X2759Y910D01*
X2860Y910D02*
X3059Y910D01*
X3160Y910D02*
X3459Y910D01*
X3560Y910D02*
X4159Y910D01*
X4260Y910D02*
X4459Y910D01*
X360Y909D02*
X660Y909D01*
X760Y909D02*
X1360Y909D01*
X1460Y909D02*
X1660Y909D01*
X1760Y909D02*
X2060Y909D01*
X2160Y909D02*
X2760Y909D01*
X2860Y909D02*
X3060Y909D01*
X3160Y909D02*
X3460Y909D01*
X3560Y909D02*
X4159Y909D01*
X4260Y909D02*
X4459Y909D01*
X360Y908D02*
X660Y908D01*
X760Y908D02*
X1360Y908D01*
X1460Y908D02*
X1660Y908D01*
X1760Y908D02*
X2060Y908D01*
X2160Y908D02*
X2760Y908D01*
X2860Y908D02*
X3060Y908D01*
X3160Y908D02*
X3460Y908D01*
X3560Y908D02*
X4160Y908D01*
X4260Y908D02*
X4460Y908D01*
X360Y907D02*
X660Y907D01*
X760Y907D02*
X1360Y907D01*
X1460Y907D02*
X1660Y907D01*
X1760Y907D02*
X2060Y907D01*
X2160Y907D02*
X2760Y907D01*
X2860Y907D02*
X3060Y907D01*
X3160Y907D02*
X3460Y907D01*
X3560Y907D02*
X4160Y907D01*
X4259Y907D02*
X4460Y907D01*
X360Y906D02*
X660Y906D01*
X760Y906D02*
X1360Y906D01*
X1460Y906D02*
X1660Y906D01*
X1760Y906D02*
X2060Y906D01*
X2160Y906D02*
X2760Y906D01*
X2860Y906D02*
X3060Y906D01*
X3159Y906D02*
X3460Y906D01*
X3559Y906D02*
X4160Y906D01*
X4259Y906D02*
X4460Y906D01*
X360Y905D02*
X661Y905D01*
X760Y905D02*
X1361Y905D01*
X1460Y905D02*
X1661Y905D01*
X1759Y905D02*
X2060Y905D01*
X2159Y905D02*
X2760Y905D01*
X2859Y905D02*
X3060Y905D01*
X3159Y905D02*
X3460Y905D01*
X3559Y905D02*
X4160Y905D01*
X4259Y905D02*
X4460Y905D01*
X359Y904D02*
X661Y904D01*
X759Y904D02*
X1361Y904D01*
X1459Y904D02*
X1661Y904D01*
X1759Y904D02*
X2061Y904D01*
X2159Y904D02*
X2761Y904D01*
X2859Y904D02*
X3061Y904D01*
X3159Y904D02*
X3460Y904D01*
X3559Y904D02*
X4160Y904D01*
X4259Y904D02*
X4460Y904D01*
X359Y903D02*
X661Y903D01*
X759Y903D02*
X1361Y903D01*
X1459Y903D02*
X1661Y903D01*
X1759Y903D02*
X2061Y903D01*
X2159Y903D02*
X2761Y903D01*
X2859Y903D02*
X3061Y903D01*
X3159Y903D02*
X3461Y903D01*
X3559Y903D02*
X4161Y903D01*
X4259Y903D02*
X4460Y903D01*
X359Y902D02*
X661Y902D01*
X759Y902D02*
X1361Y902D01*
X1459Y902D02*
X1661Y902D01*
X1759Y902D02*
X2061Y902D01*
X2159Y902D02*
X2761Y902D01*
X2859Y902D02*
X3061Y902D01*
X3159Y902D02*
X3461Y902D01*
X3559Y902D02*
X4161Y902D01*
X4259Y902D02*
X4461Y902D01*
X359Y901D02*
X661Y901D01*
X759Y901D02*
X1361Y901D01*
X1459Y901D02*
X1661Y901D01*
X1759Y901D02*
X2061Y901D01*
X2159Y901D02*
X2761Y901D01*
X2859Y901D02*
X3061Y901D01*
X3159Y901D02*
X3461Y901D01*
X3559Y901D02*
X4161Y901D01*
X4259Y901D02*
X4461Y901D01*
X359Y900D02*
X661Y900D01*
X759Y900D02*
X1361Y900D01*
X1459Y900D02*
X1661Y900D01*
X1759Y900D02*
X2061Y900D01*
X2159Y900D02*
X2761Y900D01*
X2859Y900D02*
X3061Y900D01*
X3159Y900D02*
X3461Y900D01*
X3559Y900D02*
X4161Y900D01*
X4259Y900D02*
X4461Y900D01*
X359Y899D02*
X661Y899D01*
X759Y899D02*
X1361Y899D01*
X1459Y899D02*
X1661Y899D01*
X1759Y899D02*
X2061Y899D01*
X2159Y899D02*
X2761Y899D01*
X2859Y899D02*
X3061Y899D01*
X3159Y899D02*
X3461Y899D01*
X3559Y899D02*
X4161Y899D01*
X4259Y899D02*
X4461Y899D01*
X359Y898D02*
X661Y898D01*
X759Y898D02*
X1361Y898D01*
X1459Y898D02*
X1661Y898D01*
X1759Y898D02*
X2061Y898D01*
X2159Y898D02*
X2761Y898D01*
X2859Y898D02*
X3061Y898D01*
X3159Y898D02*
X3461Y898D01*
X3559Y898D02*
X4161Y898D01*
X4258Y898D02*
X4461Y898D01*
X359Y897D02*
X661Y897D01*
X759Y897D02*
X1361Y897D01*
X1459Y897D02*
X1661Y897D01*
X1759Y897D02*
X2061Y897D01*
X2159Y897D02*
X2761Y897D01*
X2859Y897D02*
X3061Y897D01*
X3159Y897D02*
X3461Y897D01*
X3559Y897D02*
X4161Y897D01*
X4258Y897D02*
X4461Y897D01*
X359Y896D02*
X661Y896D01*
X759Y896D02*
X1361Y896D01*
X1459Y896D02*
X1661Y896D01*
X1759Y896D02*
X2061Y896D01*
X2159Y896D02*
X2761Y896D01*
X2859Y896D02*
X3061Y896D01*
X3159Y896D02*
X3461Y896D01*
X3559Y896D02*
X4161Y896D01*
X4259Y896D02*
X4461Y896D01*
X359Y895D02*
X661Y895D01*
X759Y895D02*
X1361Y895D01*
X1459Y895D02*
X1661Y895D01*
X1759Y895D02*
X2061Y895D01*
X2159Y895D02*
X2761Y895D01*
X2859Y895D02*
X3061Y895D01*
X3159Y895D02*
X3461Y895D01*
X3559Y895D02*
X4161Y895D01*
X4259Y895D02*
X4461Y895D01*
X359Y894D02*
X661Y894D01*
X759Y894D02*
X1361Y894D01*
X1459Y894D02*
X1661Y894D01*
X1759Y894D02*
X2061Y894D01*
X2159Y894D02*
X2761Y894D01*
X2859Y894D02*
X3061Y894D01*
X3159Y894D02*
X3461Y894D01*
X3559Y894D02*
X4161Y894D01*
X4259Y894D02*
X4461Y894D01*
X359Y893D02*
X661Y893D01*
X759Y893D02*
X1361Y893D01*
X1459Y893D02*
X1661Y893D01*
X1759Y893D02*
X2061Y893D01*
X2159Y893D02*
X2761Y893D01*
X2859Y893D02*
X3061Y893D01*
X3159Y893D02*
X3461Y893D01*
X3559Y893D02*
X4161Y893D01*
X4259Y893D02*
X4461Y893D01*
X359Y892D02*
X661Y892D01*
X759Y892D02*
X1361Y892D01*
X1459Y892D02*
X1661Y892D01*
X1759Y892D02*
X2061Y892D01*
X2159Y892D02*
X2761Y892D01*
X2859Y892D02*
X3061Y892D01*
X3159Y892D02*
X3461Y892D01*
X3559Y892D02*
X4161Y892D01*
X4259Y892D02*
X4461Y892D01*
X359Y891D02*
X661Y891D01*
X759Y891D02*
X1361Y891D01*
X1459Y891D02*
X1661Y891D01*
X1759Y891D02*
X2061Y891D01*
X2159Y891D02*
X2761Y891D01*
X2859Y891D02*
X3061Y891D01*
X3159Y891D02*
X3461Y891D01*
X3559Y891D02*
X4160Y891D01*
X4259Y891D02*
X4460Y891D01*
X360Y890D02*
X661Y890D01*
X759Y890D02*
X1361Y890D01*
X1459Y890D02*
X1661Y890D01*
X1759Y890D02*
X2061Y890D01*
X2159Y890D02*
X2760Y890D01*
X2859Y890D02*
X3060Y890D01*
X3159Y890D02*
X3460Y890D01*
X3559Y890D02*
X4160Y890D01*
X4259Y890D02*
X4460Y890D01*
X360Y889D02*
X661Y889D01*
X760Y889D02*
X1360Y889D01*
X1460Y889D02*
X1660Y889D01*
X1759Y889D02*
X2060Y889D01*
X2159Y889D02*
X2760Y889D01*
X2859Y889D02*
X3060Y889D01*
X3159Y889D02*
X3460Y889D01*
X3559Y889D02*
X4160Y889D01*
X4259Y889D02*
X4460Y889D01*
X360Y888D02*
X660Y888D01*
X760Y888D02*
X1360Y888D01*
X1460Y888D02*
X1660Y888D01*
X1760Y888D02*
X2060Y888D01*
X2160Y888D02*
X2760Y888D01*
X2860Y888D02*
X3060Y888D01*
X3159Y888D02*
X3460Y888D01*
X3559Y888D02*
X4160Y888D01*
X4259Y888D02*
X4460Y888D01*
X360Y887D02*
X660Y887D01*
X760Y887D02*
X1360Y887D01*
X1460Y887D02*
X1660Y887D01*
X1760Y887D02*
X2060Y887D01*
X2160Y887D02*
X2760Y887D01*
X2860Y887D02*
X3060Y887D01*
X3160Y887D02*
X3460Y887D01*
X3560Y887D02*
X4160Y887D01*
X4260Y887D02*
X4460Y887D01*
X360Y886D02*
X660Y886D01*
X760Y886D02*
X1360Y886D01*
X1460Y886D02*
X1660Y886D01*
X1760Y886D02*
X2060Y886D01*
X2160Y886D02*
X2760Y886D01*
X2860Y886D02*
X3060Y886D01*
X3160Y886D02*
X3460Y886D01*
X3560Y886D02*
X4160Y886D01*
X4260Y886D02*
X4460Y886D01*
X360Y885D02*
X660Y885D01*
X760Y885D02*
X1360Y885D01*
X1460Y885D02*
X1660Y885D01*
X1760Y885D02*
X2060Y885D01*
X2160Y885D02*
X2760Y885D01*
X2860Y885D02*
X3060Y885D01*
X3160Y885D02*
X3459Y885D01*
X3560Y885D02*
X4159Y885D01*
X4260Y885D02*
X4459Y885D01*
X361Y884D02*
X660Y884D01*
X761Y884D02*
X1159Y884D01*
X1161Y884D02*
X1259Y884D01*
X1261Y884D02*
X1359Y884D01*
X1461Y884D02*
X1559Y884D01*
X1561Y884D02*
X1659Y884D01*
X1761Y884D02*
X1859Y884D01*
X1861Y884D02*
X1959Y884D01*
X1961Y884D02*
X2059Y884D01*
X2161Y884D02*
X2759Y884D01*
X2860Y884D02*
X3059Y884D01*
X3160Y884D02*
X3459Y884D01*
X3560Y884D02*
X4159Y884D01*
X4260Y884D02*
X4459Y884D01*
X361Y883D02*
X459Y883D01*
X461Y883D02*
X559Y883D01*
X561Y883D02*
X659Y883D01*
X761Y883D02*
X859Y883D01*
X861Y883D02*
X959Y883D01*
X961Y883D02*
X1059Y883D01*
X1061Y883D02*
X1159Y883D01*
X1161Y883D02*
X1259Y883D01*
X1261Y883D02*
X1359Y883D01*
X1461Y883D02*
X1559Y883D01*
X1561Y883D02*
X1659Y883D01*
X1761Y883D02*
X1859Y883D01*
X1861Y883D02*
X1959Y883D01*
X1961Y883D02*
X2059Y883D01*
X2161Y883D02*
X2259Y883D01*
X2261Y883D02*
X2359Y883D01*
X2361Y883D02*
X2459Y883D01*
X2461Y883D02*
X2559Y883D01*
X2561Y883D02*
X2659Y883D01*
X2661Y883D02*
X2759Y883D01*
X2861Y883D02*
X2959Y883D01*
X2961Y883D02*
X3059Y883D01*
X3161Y883D02*
X3259Y883D01*
X3261Y883D02*
X3359Y883D01*
X3361Y883D02*
X3459Y883D01*
X3561Y883D02*
X3659Y883D01*
X3661Y883D02*
X3759Y883D01*
X3761Y883D02*
X3859Y883D01*
X3861Y883D02*
X3959Y883D01*
X3961Y883D02*
X4159Y883D01*
X4261Y883D02*
X4459Y883D01*
X361Y882D02*
X459Y882D01*
X461Y882D02*
X559Y882D01*
X561Y882D02*
X659Y882D01*
X761Y882D02*
X859Y882D01*
X861Y882D02*
X959Y882D01*
X961Y882D02*
X1059Y882D01*
X1061Y882D02*
X1159Y882D01*
X1161Y882D02*
X1259Y882D01*
X1261Y882D02*
X1359Y882D01*
X1461Y882D02*
X1559Y882D01*
X1561Y882D02*
X1659Y882D01*
X1761Y882D02*
X1859Y882D01*
X1861Y882D02*
X1959Y882D01*
X1961Y882D02*
X2059Y882D01*
X2161Y882D02*
X2259Y882D01*
X2261Y882D02*
X2359Y882D01*
X2361Y882D02*
X2459Y882D01*
X2461Y882D02*
X2559Y882D01*
X2561Y882D02*
X2659Y882D01*
X2661Y882D02*
X2759Y882D01*
X2861Y882D02*
X2959Y882D01*
X2961Y882D02*
X3059Y882D01*
X3161Y882D02*
X3259Y882D01*
X3261Y882D02*
X3359Y882D01*
X3361Y882D02*
X3459Y882D01*
X3561Y882D02*
X3659Y882D01*
X3661Y882D02*
X3759Y882D01*
X3761Y882D02*
X3859Y882D01*
X3861Y882D02*
X3959Y882D01*
X3961Y882D02*
X4059Y882D01*
X4061Y882D02*
X4159Y882D01*
X4261Y882D02*
X4359Y882D01*
X4361Y882D02*
X4459Y882D01*
X362Y881D02*
X459Y881D01*
X462Y881D02*
X559Y881D01*
X561Y881D02*
X659Y881D01*
X761Y881D02*
X859Y881D01*
X861Y881D02*
X959Y881D01*
X961Y881D02*
X1059Y881D01*
X1061Y881D02*
X1159Y881D01*
X1161Y881D02*
X1259Y881D01*
X1261Y881D02*
X1359Y881D01*
X1461Y881D02*
X1559Y881D01*
X1561Y881D02*
X1659Y881D01*
X1761Y881D02*
X1859Y881D01*
X1861Y881D02*
X1959Y881D01*
X1961Y881D02*
X2059Y881D01*
X2161Y881D02*
X2259Y881D01*
X2261Y881D02*
X2359Y881D01*
X2361Y881D02*
X2459Y881D01*
X2461Y881D02*
X2558Y881D01*
X2561Y881D02*
X2658Y881D01*
X2661Y881D02*
X2758Y881D01*
X2861Y881D02*
X2958Y881D01*
X2961Y881D02*
X3058Y881D01*
X3161Y881D02*
X3258Y881D01*
X3261Y881D02*
X3358Y881D01*
X3361Y881D02*
X3458Y881D01*
X3561Y881D02*
X3658Y881D01*
X3661Y881D02*
X3758Y881D01*
X3761Y881D02*
X3858Y881D01*
X3861Y881D02*
X3958Y881D01*
X3961Y881D02*
X4058Y881D01*
X4061Y881D02*
X4158Y881D01*
X4261Y881D02*
X4358Y881D01*
X4361Y881D02*
X4458Y881D01*
X362Y880D02*
X458Y880D01*
X462Y880D02*
X558Y880D01*
X562Y880D02*
X658Y880D01*
X762Y880D02*
X858Y880D01*
X862Y880D02*
X958Y880D01*
X962Y880D02*
X1058Y880D01*
X1062Y880D02*
X1158Y880D01*
X1162Y880D02*
X1258Y880D01*
X1262Y880D02*
X1358Y880D01*
X1462Y880D02*
X1558Y880D01*
X1562Y880D02*
X1658Y880D01*
X1762Y880D02*
X1858Y880D01*
X1862Y880D02*
X1958Y880D01*
X1962Y880D02*
X2058Y880D01*
X2162Y880D02*
X2258Y880D01*
X2262Y880D02*
X2358Y880D01*
X2362Y880D02*
X2458Y880D01*
X2462Y880D02*
X2558Y880D01*
X2562Y880D02*
X2658Y880D01*
X2662Y880D02*
X2758Y880D01*
X2862Y880D02*
X2958Y880D01*
X2962Y880D02*
X3058Y880D01*
X3162Y880D02*
X3258Y880D01*
X3262Y880D02*
X3358Y880D01*
X3362Y880D02*
X3458Y880D01*
X3562Y880D02*
X3658Y880D01*
X3661Y880D02*
X3758Y880D01*
X3761Y880D02*
X3858Y880D01*
X3861Y880D02*
X3958Y880D01*
X3961Y880D02*
X4058Y880D01*
X4061Y880D02*
X4158Y880D01*
X4261Y880D02*
X4358Y880D01*
X4361Y880D02*
X4458Y880D01*
X362Y879D02*
X458Y879D01*
X462Y879D02*
X558Y879D01*
X562Y879D02*
X658Y879D01*
X762Y879D02*
X858Y879D01*
X862Y879D02*
X958Y879D01*
X962Y879D02*
X1058Y879D01*
X1062Y879D02*
X1158Y879D01*
X1162Y879D02*
X1258Y879D01*
X1262Y879D02*
X1358Y879D01*
X1462Y879D02*
X1558Y879D01*
X1562Y879D02*
X1658Y879D01*
X1762Y879D02*
X1858Y879D01*
X1862Y879D02*
X1958Y879D01*
X1962Y879D02*
X2058Y879D01*
X2162Y879D02*
X2258Y879D01*
X2262Y879D02*
X2358Y879D01*
X2362Y879D02*
X2458Y879D01*
X2462Y879D02*
X2558Y879D01*
X2562Y879D02*
X2658Y879D01*
X2662Y879D02*
X2758Y879D01*
X2862Y879D02*
X2958Y879D01*
X2962Y879D02*
X3058Y879D01*
X3162Y879D02*
X3258Y879D01*
X3262Y879D02*
X3358Y879D01*
X3362Y879D02*
X3458Y879D01*
X3562Y879D02*
X3658Y879D01*
X3662Y879D02*
X3758Y879D01*
X3762Y879D02*
X3858Y879D01*
X3862Y879D02*
X3958Y879D01*
X3962Y879D02*
X4058Y879D01*
X4062Y879D02*
X4158Y879D01*
X4262Y879D02*
X4358Y879D01*
X4362Y879D02*
X4458Y879D01*
X363Y878D02*
X458Y878D01*
X463Y878D02*
X558Y878D01*
X563Y878D02*
X658Y878D01*
X763Y878D02*
X858Y878D01*
X863Y878D02*
X958Y878D01*
X963Y878D02*
X1058Y878D01*
X1063Y878D02*
X1158Y878D01*
X1163Y878D02*
X1258Y878D01*
X1262Y878D02*
X1358Y878D01*
X1462Y878D02*
X1558Y878D01*
X1562Y878D02*
X1658Y878D01*
X1762Y878D02*
X1858Y878D01*
X1862Y878D02*
X1958Y878D01*
X1962Y878D02*
X2057Y878D01*
X2162Y878D02*
X2257Y878D01*
X2262Y878D02*
X2357Y878D01*
X2362Y878D02*
X2457Y878D01*
X2462Y878D02*
X2557Y878D01*
X2562Y878D02*
X2657Y878D01*
X2662Y878D02*
X2757Y878D01*
X2862Y878D02*
X2957Y878D01*
X2962Y878D02*
X3057Y878D01*
X3162Y878D02*
X3257Y878D01*
X3262Y878D02*
X3357Y878D01*
X3362Y878D02*
X3457Y878D01*
X3562Y878D02*
X3657Y878D01*
X3662Y878D02*
X3757Y878D01*
X3762Y878D02*
X3857Y878D01*
X3862Y878D02*
X3957Y878D01*
X3962Y878D02*
X4057Y878D01*
X4062Y878D02*
X4157Y878D01*
X4262Y878D02*
X4357Y878D01*
X4362Y878D02*
X4457Y878D01*
X363Y877D02*
X457Y877D01*
X463Y877D02*
X557Y877D01*
X563Y877D02*
X657Y877D01*
X763Y877D02*
X857Y877D01*
X863Y877D02*
X957Y877D01*
X963Y877D02*
X1057Y877D01*
X1063Y877D02*
X1157Y877D01*
X1163Y877D02*
X1257Y877D01*
X1263Y877D02*
X1357Y877D01*
X1463Y877D02*
X1557Y877D01*
X1563Y877D02*
X1657Y877D01*
X1763Y877D02*
X1857Y877D01*
X1863Y877D02*
X1957Y877D01*
X1963Y877D02*
X2057Y877D01*
X2163Y877D02*
X2257Y877D01*
X2263Y877D02*
X2357Y877D01*
X2363Y877D02*
X2457Y877D01*
X2463Y877D02*
X2557Y877D01*
X2563Y877D02*
X2657Y877D01*
X2663Y877D02*
X2757Y877D01*
X2863Y877D02*
X2957Y877D01*
X2963Y877D02*
X3057Y877D01*
X3163Y877D02*
X3257Y877D01*
X3263Y877D02*
X3357Y877D01*
X3363Y877D02*
X3457Y877D01*
X3563Y877D02*
X3657Y877D01*
X3663Y877D02*
X3757Y877D01*
X3763Y877D02*
X3857Y877D01*
X3863Y877D02*
X3957Y877D01*
X3963Y877D02*
X4057Y877D01*
X4063Y877D02*
X4157Y877D01*
X4263Y877D02*
X4357Y877D01*
X4362Y877D02*
X4457Y877D01*
X363Y876D02*
X457Y876D01*
X463Y876D02*
X557Y876D01*
X563Y876D02*
X657Y876D01*
X763Y876D02*
X857Y876D01*
X863Y876D02*
X957Y876D01*
X963Y876D02*
X1057Y876D01*
X1063Y876D02*
X1157Y876D01*
X1163Y876D02*
X1257Y876D01*
X1263Y876D02*
X1357Y876D01*
X1463Y876D02*
X1557Y876D01*
X1563Y876D02*
X1657Y876D01*
X1763Y876D02*
X1857Y876D01*
X1863Y876D02*
X1957Y876D01*
X1963Y876D02*
X2057Y876D01*
X2163Y876D02*
X2257Y876D01*
X2263Y876D02*
X2357Y876D01*
X2363Y876D02*
X2457Y876D01*
X2463Y876D02*
X2557Y876D01*
X2563Y876D02*
X2657Y876D01*
X2663Y876D02*
X2757Y876D01*
X2863Y876D02*
X2957Y876D01*
X2963Y876D02*
X3057Y876D01*
X3163Y876D02*
X3256Y876D01*
X3263Y876D02*
X3356Y876D01*
X3363Y876D02*
X3456Y876D01*
X3563Y876D02*
X3656Y876D01*
X3663Y876D02*
X3756Y876D01*
X3763Y876D02*
X3856Y876D01*
X3863Y876D02*
X3956Y876D01*
X3963Y876D02*
X4056Y876D01*
X4063Y876D02*
X4156Y876D01*
X4263Y876D02*
X4356Y876D01*
X4363Y876D02*
X4456Y876D01*
X364Y875D02*
X456Y875D01*
X464Y875D02*
X556Y875D01*
X564Y875D02*
X656Y875D01*
X764Y875D02*
X856Y875D01*
X864Y875D02*
X956Y875D01*
X964Y875D02*
X1056Y875D01*
X1064Y875D02*
X1156Y875D01*
X1164Y875D02*
X1256Y875D01*
X1264Y875D02*
X1356Y875D01*
X1464Y875D02*
X1556Y875D01*
X1564Y875D02*
X1656Y875D01*
X1764Y875D02*
X1856Y875D01*
X1864Y875D02*
X1956Y875D01*
X1964Y875D02*
X2056Y875D01*
X2164Y875D02*
X2256Y875D01*
X2264Y875D02*
X2356Y875D01*
X2364Y875D02*
X2456Y875D01*
X2464Y875D02*
X2556Y875D01*
X2564Y875D02*
X2656Y875D01*
X2664Y875D02*
X2756Y875D01*
X2864Y875D02*
X2956Y875D01*
X2964Y875D02*
X3056Y875D01*
X3164Y875D02*
X3256Y875D01*
X3264Y875D02*
X3356Y875D01*
X3364Y875D02*
X3456Y875D01*
X3564Y875D02*
X3656Y875D01*
X3664Y875D02*
X3756Y875D01*
X3764Y875D02*
X3856Y875D01*
X3864Y875D02*
X3956Y875D01*
X3963Y875D02*
X4056Y875D01*
X4063Y875D02*
X4156Y875D01*
X4263Y875D02*
X4356Y875D01*
X4363Y875D02*
X4456Y875D01*
X364Y874D02*
X456Y874D01*
X464Y874D02*
X556Y874D01*
X564Y874D02*
X656Y874D01*
X764Y874D02*
X856Y874D01*
X864Y874D02*
X956Y874D01*
X964Y874D02*
X1056Y874D01*
X1064Y874D02*
X1156Y874D01*
X1164Y874D02*
X1256Y874D01*
X1264Y874D02*
X1356Y874D01*
X1464Y874D02*
X1556Y874D01*
X1564Y874D02*
X1656Y874D01*
X1764Y874D02*
X1856Y874D01*
X1864Y874D02*
X1956Y874D01*
X1964Y874D02*
X2056Y874D01*
X2164Y874D02*
X2256Y874D01*
X2264Y874D02*
X2356Y874D01*
X2364Y874D02*
X2456Y874D01*
X2464Y874D02*
X2556Y874D01*
X2564Y874D02*
X2656Y874D01*
X2664Y874D02*
X2756Y874D01*
X2864Y874D02*
X2956Y874D01*
X2964Y874D02*
X3056Y874D01*
X3164Y874D02*
X3256Y874D01*
X3264Y874D02*
X3356Y874D01*
X3364Y874D02*
X3455Y874D01*
X3564Y874D02*
X3655Y874D01*
X3664Y874D02*
X3755Y874D01*
X3764Y874D02*
X3855Y874D01*
X3864Y874D02*
X3955Y874D01*
X3964Y874D02*
X4055Y874D01*
X4064Y874D02*
X4155Y874D01*
X4264Y874D02*
X4355Y874D01*
X4364Y874D02*
X4455Y874D01*
X365Y873D02*
X455Y873D01*
X465Y873D02*
X555Y873D01*
X565Y873D02*
X655Y873D01*
X765Y873D02*
X855Y873D01*
X865Y873D02*
X955Y873D01*
X965Y873D02*
X1055Y873D01*
X1065Y873D02*
X1155Y873D01*
X1165Y873D02*
X1255Y873D01*
X1265Y873D02*
X1355Y873D01*
X1465Y873D02*
X1555Y873D01*
X1565Y873D02*
X1655Y873D01*
X1765Y873D02*
X1855Y873D01*
X1865Y873D02*
X1955Y873D01*
X1965Y873D02*
X2055Y873D01*
X2165Y873D02*
X2255Y873D01*
X2265Y873D02*
X2355Y873D01*
X2365Y873D02*
X2455Y873D01*
X2465Y873D02*
X2555Y873D01*
X2565Y873D02*
X2655Y873D01*
X2665Y873D02*
X2755Y873D01*
X2865Y873D02*
X2955Y873D01*
X2965Y873D02*
X3055Y873D01*
X3165Y873D02*
X3255Y873D01*
X3265Y873D02*
X3355Y873D01*
X3365Y873D02*
X3455Y873D01*
X3565Y873D02*
X3655Y873D01*
X3665Y873D02*
X3755Y873D01*
X3765Y873D02*
X3855Y873D01*
X3865Y873D02*
X3955Y873D01*
X3964Y873D02*
X4055Y873D01*
X4064Y873D02*
X4155Y873D01*
X4264Y873D02*
X4355Y873D01*
X4364Y873D02*
X4455Y873D01*
X365Y872D02*
X455Y872D01*
X465Y872D02*
X555Y872D01*
X565Y872D02*
X655Y872D01*
X765Y872D02*
X855Y872D01*
X865Y872D02*
X955Y872D01*
X965Y872D02*
X1055Y872D01*
X1065Y872D02*
X1155Y872D01*
X1165Y872D02*
X1255Y872D01*
X1265Y872D02*
X1355Y872D01*
X1465Y872D02*
X1555Y872D01*
X1565Y872D02*
X1655Y872D01*
X1765Y872D02*
X1855Y872D01*
X1865Y872D02*
X1955Y872D01*
X1965Y872D02*
X2055Y872D01*
X2165Y872D02*
X2255Y872D01*
X2265Y872D02*
X2355Y872D01*
X2365Y872D02*
X2455Y872D01*
X2465Y872D02*
X2555Y872D01*
X2565Y872D02*
X2655Y872D01*
X2665Y872D02*
X2754Y872D01*
X2865Y872D02*
X2955Y872D01*
X2965Y872D02*
X3054Y872D01*
X3165Y872D02*
X3254Y872D01*
X3265Y872D02*
X3354Y872D01*
X3365Y872D02*
X3454Y872D01*
X3565Y872D02*
X3654Y872D01*
X3665Y872D02*
X3754Y872D01*
X3765Y872D02*
X3854Y872D01*
X3865Y872D02*
X3954Y872D01*
X3965Y872D02*
X4054Y872D01*
X4065Y872D02*
X4154Y872D01*
X4265Y872D02*
X4354Y872D01*
X4365Y872D02*
X4454Y872D01*
X366Y871D02*
X454Y871D01*
X466Y871D02*
X554Y871D01*
X566Y871D02*
X654Y871D01*
X766Y871D02*
X854Y871D01*
X866Y871D02*
X954Y871D01*
X966Y871D02*
X1054Y871D01*
X1066Y871D02*
X1154Y871D01*
X1166Y871D02*
X1254Y871D01*
X1266Y871D02*
X1354Y871D01*
X1466Y871D02*
X1554Y871D01*
X1566Y871D02*
X1654Y871D01*
X1766Y871D02*
X1854Y871D01*
X1866Y871D02*
X1954Y871D01*
X1966Y871D02*
X2054Y871D01*
X2166Y871D02*
X2254Y871D01*
X2266Y871D02*
X2354Y871D01*
X2366Y871D02*
X2454Y871D01*
X2466Y871D02*
X2554Y871D01*
X2566Y871D02*
X2654Y871D01*
X2666Y871D02*
X2754Y871D01*
X2866Y871D02*
X2954Y871D01*
X2966Y871D02*
X3054Y871D01*
X3166Y871D02*
X3254Y871D01*
X3266Y871D02*
X3354Y871D01*
X3366Y871D02*
X3454Y871D01*
X3566Y871D02*
X3654Y871D01*
X3666Y871D02*
X3754Y871D01*
X3766Y871D02*
X3854Y871D01*
X3866Y871D02*
X3954Y871D01*
X3966Y871D02*
X4054Y871D01*
X4066Y871D02*
X4154Y871D01*
X4266Y871D02*
X4354Y871D01*
X4366Y871D02*
X4454Y871D01*
X367Y870D02*
X454Y870D01*
X467Y870D02*
X554Y870D01*
X567Y870D02*
X654Y870D01*
X767Y870D02*
X854Y870D01*
X867Y870D02*
X954Y870D01*
X967Y870D02*
X1054Y870D01*
X1067Y870D02*
X1153Y870D01*
X1167Y870D02*
X1253Y870D01*
X1267Y870D02*
X1353Y870D01*
X1467Y870D02*
X1553Y870D01*
X1567Y870D02*
X1653Y870D01*
X1767Y870D02*
X1853Y870D01*
X1867Y870D02*
X1953Y870D01*
X1967Y870D02*
X2053Y870D01*
X2167Y870D02*
X2253Y870D01*
X2266Y870D02*
X2353Y870D01*
X2366Y870D02*
X2453Y870D01*
X2466Y870D02*
X2553Y870D01*
X2566Y870D02*
X2653Y870D01*
X2666Y870D02*
X2753Y870D01*
X2866Y870D02*
X2953Y870D01*
X2966Y870D02*
X3053Y870D01*
X3166Y870D02*
X3253Y870D01*
X3266Y870D02*
X3353Y870D01*
X3366Y870D02*
X3453Y870D01*
X3566Y870D02*
X3653Y870D01*
X3666Y870D02*
X3753Y870D01*
X3766Y870D02*
X3853Y870D01*
X3866Y870D02*
X3953Y870D01*
X3966Y870D02*
X4053Y870D01*
X4066Y870D02*
X4153Y870D01*
X4266Y870D02*
X4353Y870D01*
X4366Y870D02*
X4453Y870D01*
X367Y869D02*
X453Y869D01*
X467Y869D02*
X553Y869D01*
X567Y869D02*
X653Y869D01*
X767Y869D02*
X853Y869D01*
X867Y869D02*
X953Y869D01*
X967Y869D02*
X1053Y869D01*
X1067Y869D02*
X1153Y869D01*
X1167Y869D02*
X1253Y869D01*
X1267Y869D02*
X1353Y869D01*
X1467Y869D02*
X1553Y869D01*
X1567Y869D02*
X1653Y869D01*
X1767Y869D02*
X1853Y869D01*
X1867Y869D02*
X1953Y869D01*
X1967Y869D02*
X2053Y869D01*
X2167Y869D02*
X2253Y869D01*
X2267Y869D02*
X2353Y869D01*
X2367Y869D02*
X2453Y869D01*
X2467Y869D02*
X2553Y869D01*
X2567Y869D02*
X2653Y869D01*
X2667Y869D02*
X2753Y869D01*
X2867Y869D02*
X2953Y869D01*
X2967Y869D02*
X3053Y869D01*
X3167Y869D02*
X3253Y869D01*
X3267Y869D02*
X3353Y869D01*
X3367Y869D02*
X3453Y869D01*
X3567Y869D02*
X3653Y869D01*
X3667Y869D02*
X3753Y869D01*
X3767Y869D02*
X3853Y869D01*
X3867Y869D02*
X3953Y869D01*
X3967Y869D02*
X4053Y869D01*
X4067Y869D02*
X4152Y869D01*
X4267Y869D02*
X4353Y869D01*
X4367Y869D02*
X4452Y869D01*
X368Y868D02*
X452Y868D01*
X468Y868D02*
X552Y868D01*
X568Y868D02*
X652Y868D01*
X768Y868D02*
X852Y868D01*
X868Y868D02*
X952Y868D01*
X968Y868D02*
X1052Y868D01*
X1068Y868D02*
X1152Y868D01*
X1168Y868D02*
X1252Y868D01*
X1268Y868D02*
X1352Y868D01*
X1468Y868D02*
X1552Y868D01*
X1568Y868D02*
X1652Y868D01*
X1768Y868D02*
X1852Y868D01*
X1868Y868D02*
X1952Y868D01*
X1968Y868D02*
X2052Y868D01*
X2168Y868D02*
X2252Y868D01*
X2268Y868D02*
X2352Y868D01*
X2368Y868D02*
X2452Y868D01*
X2468Y868D02*
X2552Y868D01*
X2568Y868D02*
X2652Y868D01*
X2668Y868D02*
X2752Y868D01*
X2868Y868D02*
X2952Y868D01*
X2968Y868D02*
X3052Y868D01*
X3168Y868D02*
X3252Y868D01*
X3268Y868D02*
X3352Y868D01*
X3368Y868D02*
X3452Y868D01*
X3568Y868D02*
X3652Y868D01*
X3668Y868D02*
X3752Y868D01*
X3768Y868D02*
X3852Y868D01*
X3868Y868D02*
X3952Y868D01*
X3968Y868D02*
X4052Y868D01*
X4067Y868D02*
X4152Y868D01*
X4268Y868D02*
X4352Y868D01*
X4367Y868D02*
X4452Y868D01*
X369Y867D02*
X452Y867D01*
X469Y867D02*
X552Y867D01*
X569Y867D02*
X652Y867D01*
X769Y867D02*
X852Y867D01*
X869Y867D02*
X951Y867D01*
X969Y867D02*
X1052Y867D01*
X1069Y867D02*
X1151Y867D01*
X1169Y867D02*
X1251Y867D01*
X1269Y867D02*
X1351Y867D01*
X1469Y867D02*
X1551Y867D01*
X1569Y867D02*
X1651Y867D01*
X1769Y867D02*
X1851Y867D01*
X1869Y867D02*
X1951Y867D01*
X1969Y867D02*
X2051Y867D01*
X2169Y867D02*
X2251Y867D01*
X2268Y867D02*
X2351Y867D01*
X2368Y867D02*
X2451Y867D01*
X2468Y867D02*
X2551Y867D01*
X2568Y867D02*
X2651Y867D01*
X2668Y867D02*
X2751Y867D01*
X2868Y867D02*
X2951Y867D01*
X2968Y867D02*
X3051Y867D01*
X3168Y867D02*
X3251Y867D01*
X3268Y867D02*
X3351Y867D01*
X3368Y867D02*
X3451Y867D01*
X3568Y867D02*
X3651Y867D01*
X3668Y867D02*
X3751Y867D01*
X3768Y867D02*
X3851Y867D01*
X3868Y867D02*
X3951Y867D01*
X3968Y867D02*
X4051Y867D01*
X4068Y867D02*
X4151Y867D01*
X4268Y867D02*
X4351Y867D01*
X4368Y867D02*
X4451Y867D01*
X369Y866D02*
X451Y866D01*
X469Y866D02*
X551Y866D01*
X569Y866D02*
X651Y866D01*
X769Y866D02*
X851Y866D01*
X869Y866D02*
X951Y866D01*
X969Y866D02*
X1051Y866D01*
X1069Y866D02*
X1151Y866D01*
X1169Y866D02*
X1251Y866D01*
X1269Y866D02*
X1351Y866D01*
X1469Y866D02*
X1551Y866D01*
X1569Y866D02*
X1651Y866D01*
X1769Y866D02*
X1851Y866D01*
X1869Y866D02*
X1951Y866D01*
X1969Y866D02*
X2051Y866D01*
X2169Y866D02*
X2251Y866D01*
X2269Y866D02*
X2351Y866D01*
X2369Y866D02*
X2451Y866D01*
X2469Y866D02*
X2551Y866D01*
X2569Y866D02*
X2651Y866D01*
X2669Y866D02*
X2751Y866D01*
X2869Y866D02*
X2951Y866D01*
X2969Y866D02*
X3050Y866D01*
X3169Y866D02*
X3250Y866D01*
X3269Y866D02*
X3350Y866D01*
X3369Y866D02*
X3450Y866D01*
X3569Y866D02*
X3650Y866D01*
X3669Y866D02*
X3750Y866D01*
X3769Y866D02*
X3850Y866D01*
X3869Y866D02*
X3950Y866D01*
X3969Y866D02*
X4050Y866D01*
X4069Y866D02*
X4150Y866D01*
X4269Y866D02*
X4350Y866D01*
X4369Y866D02*
X4450Y866D01*
X370Y865D02*
X450Y865D01*
X470Y865D02*
X550Y865D01*
X570Y865D02*
X650Y865D01*
X770Y865D02*
X850Y865D01*
X870Y865D02*
X950Y865D01*
X970Y865D02*
X1050Y865D01*
X1070Y865D02*
X1150Y865D01*
X1170Y865D02*
X1250Y865D01*
X1270Y865D02*
X1350Y865D01*
X1470Y865D02*
X1550Y865D01*
X1570Y865D02*
X1650Y865D01*
X1770Y865D02*
X1850Y865D01*
X1870Y865D02*
X1950Y865D01*
X1970Y865D02*
X2050Y865D01*
X2170Y865D02*
X2250Y865D01*
X2270Y865D02*
X2350Y865D01*
X2370Y865D02*
X2450Y865D01*
X2470Y865D02*
X2550Y865D01*
X2570Y865D02*
X2650Y865D01*
X2670Y865D02*
X2750Y865D01*
X2870Y865D02*
X2950Y865D01*
X2970Y865D02*
X3050Y865D01*
X3170Y865D02*
X3250Y865D01*
X3270Y865D02*
X3350Y865D01*
X3370Y865D02*
X3450Y865D01*
X3570Y865D02*
X3650Y865D01*
X3670Y865D02*
X3750Y865D01*
X3770Y865D02*
X3850Y865D01*
X3870Y865D02*
X3950Y865D01*
X3970Y865D02*
X4050Y865D01*
X4070Y865D02*
X4150Y865D01*
X4270Y865D02*
X4350Y865D01*
X4370Y865D02*
X4450Y865D01*
X371Y864D02*
X449Y864D01*
X471Y864D02*
X549Y864D01*
X571Y864D02*
X649Y864D01*
X771Y864D02*
X849Y864D01*
X871Y864D02*
X949Y864D01*
X971Y864D02*
X1049Y864D01*
X1071Y864D02*
X1149Y864D01*
X1171Y864D02*
X1249Y864D01*
X1271Y864D02*
X1349Y864D01*
X1471Y864D02*
X1549Y864D01*
X1571Y864D02*
X1649Y864D01*
X1771Y864D02*
X1849Y864D01*
X1871Y864D02*
X1949Y864D01*
X1971Y864D02*
X2049Y864D01*
X2171Y864D02*
X2249Y864D01*
X2271Y864D02*
X2349Y864D01*
X2371Y864D02*
X2449Y864D01*
X2471Y864D02*
X2549Y864D01*
X2571Y864D02*
X2649Y864D01*
X2671Y864D02*
X2749Y864D01*
X2871Y864D02*
X2949Y864D01*
X2971Y864D02*
X3049Y864D01*
X3171Y864D02*
X3249Y864D01*
X3271Y864D02*
X3349Y864D01*
X3371Y864D02*
X3449Y864D01*
X3571Y864D02*
X3649Y864D01*
X3671Y864D02*
X3749Y864D01*
X3771Y864D02*
X3849Y864D01*
X3871Y864D02*
X3949Y864D01*
X3971Y864D02*
X4049Y864D01*
X4070Y864D02*
X4149Y864D01*
X4270Y864D02*
X4349Y864D01*
X4370Y864D02*
X4449Y864D01*
X372Y863D02*
X448Y863D01*
X472Y863D02*
X548Y863D01*
X572Y863D02*
X648Y863D01*
X772Y863D02*
X848Y863D01*
X872Y863D02*
X948Y863D01*
X972Y863D02*
X1048Y863D01*
X1072Y863D02*
X1148Y863D01*
X1172Y863D02*
X1248Y863D01*
X1272Y863D02*
X1348Y863D01*
X1472Y863D02*
X1548Y863D01*
X1572Y863D02*
X1648Y863D01*
X1772Y863D02*
X1848Y863D01*
X1872Y863D02*
X1948Y863D01*
X1972Y863D02*
X2048Y863D01*
X2172Y863D02*
X2248Y863D01*
X2272Y863D02*
X2348Y863D01*
X2372Y863D02*
X2448Y863D01*
X2472Y863D02*
X2548Y863D01*
X2572Y863D02*
X2648Y863D01*
X2672Y863D02*
X2748Y863D01*
X2872Y863D02*
X2948Y863D01*
X2972Y863D02*
X3048Y863D01*
X3171Y863D02*
X3248Y863D01*
X3271Y863D02*
X3348Y863D01*
X3371Y863D02*
X3448Y863D01*
X3571Y863D02*
X3648Y863D01*
X3671Y863D02*
X3748Y863D01*
X3771Y863D02*
X3848Y863D01*
X3871Y863D02*
X3948Y863D01*
X3971Y863D02*
X4048Y863D01*
X4071Y863D02*
X4148Y863D01*
X4271Y863D02*
X4348Y863D01*
X4371Y863D02*
X4448Y863D01*
X373Y862D02*
X448Y862D01*
X473Y862D02*
X548Y862D01*
X573Y862D02*
X648Y862D01*
X773Y862D02*
X847Y862D01*
X873Y862D02*
X947Y862D01*
X973Y862D02*
X1047Y862D01*
X1073Y862D02*
X1147Y862D01*
X1173Y862D02*
X1247Y862D01*
X1273Y862D02*
X1347Y862D01*
X1473Y862D02*
X1547Y862D01*
X1573Y862D02*
X1647Y862D01*
X1773Y862D02*
X1847Y862D01*
X1873Y862D02*
X1947Y862D01*
X1973Y862D02*
X2047Y862D01*
X2173Y862D02*
X2247Y862D01*
X2273Y862D02*
X2347Y862D01*
X2372Y862D02*
X2447Y862D01*
X2473Y862D02*
X2547Y862D01*
X2572Y862D02*
X2647Y862D01*
X2672Y862D02*
X2747Y862D01*
X2872Y862D02*
X2947Y862D01*
X2972Y862D02*
X3047Y862D01*
X3172Y862D02*
X3247Y862D01*
X3272Y862D02*
X3347Y862D01*
X3372Y862D02*
X3447Y862D01*
X3572Y862D02*
X3647Y862D01*
X3672Y862D02*
X3747Y862D01*
X3772Y862D02*
X3847Y862D01*
X3872Y862D02*
X3947Y862D01*
X3972Y862D02*
X4047Y862D01*
X4072Y862D02*
X4147Y862D01*
X4272Y862D02*
X4347Y862D01*
X4372Y862D02*
X4447Y862D01*
X374Y861D02*
X447Y861D01*
X474Y861D02*
X547Y861D01*
X574Y861D02*
X647Y861D01*
X774Y861D02*
X847Y861D01*
X874Y861D02*
X947Y861D01*
X974Y861D02*
X1047Y861D01*
X1074Y861D02*
X1147Y861D01*
X1174Y861D02*
X1247Y861D01*
X1274Y861D02*
X1346Y861D01*
X1473Y861D02*
X1547Y861D01*
X1573Y861D02*
X1646Y861D01*
X1773Y861D02*
X1846Y861D01*
X1873Y861D02*
X1946Y861D01*
X1973Y861D02*
X2046Y861D01*
X2173Y861D02*
X2246Y861D01*
X2273Y861D02*
X2346Y861D01*
X2373Y861D02*
X2446Y861D01*
X2473Y861D02*
X2546Y861D01*
X2573Y861D02*
X2646Y861D01*
X2673Y861D02*
X2746Y861D01*
X2873Y861D02*
X2946Y861D01*
X2973Y861D02*
X3046Y861D01*
X3173Y861D02*
X3246Y861D01*
X3273Y861D02*
X3346Y861D01*
X3373Y861D02*
X3446Y861D01*
X3573Y861D02*
X3646Y861D01*
X3673Y861D02*
X3746Y861D01*
X3773Y861D02*
X3846Y861D01*
X3873Y861D02*
X3946Y861D01*
X3973Y861D02*
X4046Y861D01*
X4073Y861D02*
X4146Y861D01*
X4273Y861D02*
X4346Y861D01*
X4373Y861D02*
X4446Y861D01*
X375Y860D02*
X446Y860D01*
X475Y860D02*
X546Y860D01*
X575Y860D02*
X646Y860D01*
X775Y860D02*
X846Y860D01*
X875Y860D02*
X946Y860D01*
X975Y860D02*
X1046Y860D01*
X1075Y860D02*
X1146Y860D01*
X1175Y860D02*
X1246Y860D01*
X1275Y860D02*
X1345Y860D01*
X1475Y860D02*
X1546Y860D01*
X1575Y860D02*
X1645Y860D01*
X1774Y860D02*
X1845Y860D01*
X1874Y860D02*
X1945Y860D01*
X1974Y860D02*
X2045Y860D01*
X2174Y860D02*
X2245Y860D01*
X2274Y860D02*
X2345Y860D01*
X2374Y860D02*
X2445Y860D01*
X2474Y860D02*
X2545Y860D01*
X2574Y860D02*
X2645Y860D01*
X2674Y860D02*
X2745Y860D01*
X2874Y860D02*
X2945Y860D01*
X2974Y860D02*
X3045Y860D01*
X3174Y860D02*
X3245Y860D01*
X3274Y860D02*
X3345Y860D01*
X3374Y860D02*
X3445Y860D01*
X3574Y860D02*
X3645Y860D01*
X3674Y860D02*
X3745Y860D01*
X3774Y860D02*
X3845Y860D01*
X3874Y860D02*
X3945Y860D01*
X3974Y860D02*
X4045Y860D01*
X4074Y860D02*
X4145Y860D01*
X4274Y860D02*
X4345Y860D01*
X4374Y860D02*
X4445Y860D01*
X376Y859D02*
X445Y859D01*
X476Y859D02*
X544Y859D01*
X576Y859D02*
X644Y859D01*
X776Y859D02*
X844Y859D01*
X876Y859D02*
X944Y859D01*
X976Y859D02*
X1044Y859D01*
X1076Y859D02*
X1144Y859D01*
X1176Y859D02*
X1244Y859D01*
X1276Y859D02*
X1344Y859D01*
X1476Y859D02*
X1544Y859D01*
X1576Y859D02*
X1644Y859D01*
X1776Y859D02*
X1844Y859D01*
X1876Y859D02*
X1944Y859D01*
X1976Y859D02*
X2044Y859D01*
X2176Y859D02*
X2244Y859D01*
X2276Y859D02*
X2344Y859D01*
X2376Y859D02*
X2444Y859D01*
X2476Y859D02*
X2544Y859D01*
X2575Y859D02*
X2644Y859D01*
X2675Y859D02*
X2744Y859D01*
X2875Y859D02*
X2944Y859D01*
X2975Y859D02*
X3044Y859D01*
X3175Y859D02*
X3244Y859D01*
X3275Y859D02*
X3344Y859D01*
X3375Y859D02*
X3444Y859D01*
X3575Y859D02*
X3644Y859D01*
X3675Y859D02*
X3744Y859D01*
X3775Y859D02*
X3844Y859D01*
X3875Y859D02*
X3944Y859D01*
X3975Y859D02*
X4044Y859D01*
X4075Y859D02*
X4144Y859D01*
X4275Y859D02*
X4344Y859D01*
X4375Y859D02*
X4444Y859D01*
X377Y858D02*
X443Y858D01*
X477Y858D02*
X543Y858D01*
X577Y858D02*
X643Y858D01*
X777Y858D02*
X843Y858D01*
X877Y858D02*
X943Y858D01*
X977Y858D02*
X1043Y858D01*
X1077Y858D02*
X1143Y858D01*
X1177Y858D02*
X1243Y858D01*
X1277Y858D02*
X1343Y858D01*
X1477Y858D02*
X1543Y858D01*
X1577Y858D02*
X1643Y858D01*
X1777Y858D02*
X1843Y858D01*
X1877Y858D02*
X1943Y858D01*
X1977Y858D02*
X2043Y858D01*
X2177Y858D02*
X2243Y858D01*
X2277Y858D02*
X2343Y858D01*
X2377Y858D02*
X2443Y858D01*
X2477Y858D02*
X2543Y858D01*
X2577Y858D02*
X2643Y858D01*
X2677Y858D02*
X2743Y858D01*
X2877Y858D02*
X2943Y858D01*
X2977Y858D02*
X3043Y858D01*
X3177Y858D02*
X3243Y858D01*
X3277Y858D02*
X3343Y858D01*
X3377Y858D02*
X3443Y858D01*
X3577Y858D02*
X3643Y858D01*
X3676Y858D02*
X3743Y858D01*
X3776Y858D02*
X3843Y858D01*
X3876Y858D02*
X3943Y858D01*
X3976Y858D02*
X4043Y858D01*
X4076Y858D02*
X4143Y858D01*
X4276Y858D02*
X4343Y858D01*
X4376Y858D02*
X4443Y858D01*
X378Y857D02*
X442Y857D01*
X478Y857D02*
X542Y857D01*
X578Y857D02*
X642Y857D01*
X778Y857D02*
X842Y857D01*
X878Y857D02*
X942Y857D01*
X978Y857D02*
X1042Y857D01*
X1078Y857D02*
X1142Y857D01*
X1178Y857D02*
X1242Y857D01*
X1278Y857D02*
X1342Y857D01*
X1478Y857D02*
X1542Y857D01*
X1578Y857D02*
X1642Y857D01*
X1778Y857D02*
X1842Y857D01*
X1878Y857D02*
X1942Y857D01*
X1978Y857D02*
X2042Y857D01*
X2178Y857D02*
X2242Y857D01*
X2278Y857D02*
X2342Y857D01*
X2378Y857D02*
X2442Y857D01*
X2478Y857D02*
X2542Y857D01*
X2578Y857D02*
X2642Y857D01*
X2678Y857D02*
X2742Y857D01*
X2878Y857D02*
X2942Y857D01*
X2978Y857D02*
X3042Y857D01*
X3178Y857D02*
X3242Y857D01*
X3278Y857D02*
X3342Y857D01*
X3378Y857D02*
X3442Y857D01*
X3578Y857D02*
X3642Y857D01*
X3678Y857D02*
X3742Y857D01*
X3778Y857D02*
X3842Y857D01*
X3878Y857D02*
X3942Y857D01*
X3978Y857D02*
X4042Y857D01*
X4078Y857D02*
X4142Y857D01*
X4278Y857D02*
X4342Y857D01*
X4378Y857D02*
X4442Y857D01*
X379Y856D02*
X441Y856D01*
X479Y856D02*
X541Y856D01*
X579Y856D02*
X641Y856D01*
X779Y856D02*
X841Y856D01*
X879Y856D02*
X941Y856D01*
X979Y856D02*
X1041Y856D01*
X1079Y856D02*
X1141Y856D01*
X1179Y856D02*
X1241Y856D01*
X1279Y856D02*
X1341Y856D01*
X1479Y856D02*
X1541Y856D01*
X1579Y856D02*
X1641Y856D01*
X1779Y856D02*
X1841Y856D01*
X1879Y856D02*
X1941Y856D01*
X1979Y856D02*
X2041Y856D01*
X2179Y856D02*
X2241Y856D01*
X2279Y856D02*
X2341Y856D01*
X2379Y856D02*
X2441Y856D01*
X2479Y856D02*
X2541Y856D01*
X2579Y856D02*
X2641Y856D01*
X2679Y856D02*
X2740Y856D01*
X2879Y856D02*
X2941Y856D01*
X2979Y856D02*
X3040Y856D01*
X3179Y856D02*
X3240Y856D01*
X3279Y856D02*
X3340Y856D01*
X3379Y856D02*
X3440Y856D01*
X3579Y856D02*
X3640Y856D01*
X3679Y856D02*
X3740Y856D01*
X3779Y856D02*
X3840Y856D01*
X3879Y856D02*
X3940Y856D01*
X3979Y856D02*
X4040Y856D01*
X4079Y856D02*
X4140Y856D01*
X4279Y856D02*
X4340Y856D01*
X4379Y856D02*
X4440Y856D01*
X381Y855D02*
X439Y855D01*
X481Y855D02*
X539Y855D01*
X581Y855D02*
X639Y855D01*
X781Y855D02*
X839Y855D01*
X881Y855D02*
X939Y855D01*
X981Y855D02*
X1039Y855D01*
X1081Y855D02*
X1139Y855D01*
X1181Y855D02*
X1239Y855D01*
X1281Y855D02*
X1339Y855D01*
X1481Y855D02*
X1539Y855D01*
X1581Y855D02*
X1639Y855D01*
X1781Y855D02*
X1839Y855D01*
X1881Y855D02*
X1939Y855D01*
X1981Y855D02*
X2039Y855D01*
X2181Y855D02*
X2239Y855D01*
X2281Y855D02*
X2339Y855D01*
X2381Y855D02*
X2439Y855D01*
X2481Y855D02*
X2539Y855D01*
X2581Y855D02*
X2639Y855D01*
X2681Y855D02*
X2739Y855D01*
X2880Y855D02*
X2939Y855D01*
X2980Y855D02*
X3039Y855D01*
X3180Y855D02*
X3239Y855D01*
X3280Y855D02*
X3339Y855D01*
X3380Y855D02*
X3439Y855D01*
X3580Y855D02*
X3639Y855D01*
X3680Y855D02*
X3739Y855D01*
X3780Y855D02*
X3839Y855D01*
X3880Y855D02*
X3939Y855D01*
X3980Y855D02*
X4039Y855D01*
X4080Y855D02*
X4139Y855D01*
X4280Y855D02*
X4339Y855D01*
X4380Y855D02*
X4439Y855D01*
X382Y854D02*
X438Y854D01*
X482Y854D02*
X538Y854D01*
X582Y854D02*
X638Y854D01*
X782Y854D02*
X838Y854D01*
X882Y854D02*
X938Y854D01*
X982Y854D02*
X1038Y854D01*
X1082Y854D02*
X1138Y854D01*
X1182Y854D02*
X1238Y854D01*
X1282Y854D02*
X1338Y854D01*
X1482Y854D02*
X1538Y854D01*
X1582Y854D02*
X1638Y854D01*
X1782Y854D02*
X1838Y854D01*
X1882Y854D02*
X1938Y854D01*
X1982Y854D02*
X2038Y854D01*
X2182Y854D02*
X2238Y854D01*
X2282Y854D02*
X2338Y854D01*
X2382Y854D02*
X2438Y854D01*
X2482Y854D02*
X2538Y854D01*
X2582Y854D02*
X2638Y854D01*
X2682Y854D02*
X2738Y854D01*
X2882Y854D02*
X2938Y854D01*
X2982Y854D02*
X3038Y854D01*
X3182Y854D02*
X3238Y854D01*
X3282Y854D02*
X3338Y854D01*
X3382Y854D02*
X3438Y854D01*
X3582Y854D02*
X3638Y854D01*
X3682Y854D02*
X3738Y854D01*
X3782Y854D02*
X3838Y854D01*
X3882Y854D02*
X3938Y854D01*
X3982Y854D02*
X4038Y854D01*
X4082Y854D02*
X4138Y854D01*
X4282Y854D02*
X4338Y854D01*
X4382Y854D02*
X4437Y854D01*
X384Y853D02*
X436Y853D01*
X484Y853D02*
X536Y853D01*
X584Y853D02*
X636Y853D01*
X784Y853D02*
X836Y853D01*
X884Y853D02*
X936Y853D01*
X984Y853D02*
X1036Y853D01*
X1084Y853D02*
X1136Y853D01*
X1184Y853D02*
X1236Y853D01*
X1284Y853D02*
X1336Y853D01*
X1484Y853D02*
X1536Y853D01*
X1584Y853D02*
X1636Y853D01*
X1784Y853D02*
X1836Y853D01*
X1884Y853D02*
X1936Y853D01*
X1984Y853D02*
X2036Y853D01*
X2184Y853D02*
X2236Y853D01*
X2284Y853D02*
X2336Y853D01*
X2384Y853D02*
X2436Y853D01*
X2484Y853D02*
X2536Y853D01*
X2584Y853D02*
X2636Y853D01*
X2684Y853D02*
X2736Y853D01*
X2884Y853D02*
X2936Y853D01*
X2984Y853D02*
X3036Y853D01*
X3183Y853D02*
X3236Y853D01*
X3284Y853D02*
X3336Y853D01*
X3383Y853D02*
X3436Y853D01*
X3583Y853D02*
X3636Y853D01*
X3683Y853D02*
X3736Y853D01*
X3783Y853D02*
X3836Y853D01*
X3883Y853D02*
X3936Y853D01*
X3983Y853D02*
X4036Y853D01*
X4083Y853D02*
X4136Y853D01*
X4283Y853D02*
X4336Y853D01*
X4383Y853D02*
X4436Y853D01*
X385Y852D02*
X435Y852D01*
X485Y852D02*
X535Y852D01*
X585Y852D02*
X635Y852D01*
X785Y852D02*
X835Y852D01*
X885Y852D02*
X935Y852D01*
X985Y852D02*
X1035Y852D01*
X1085Y852D02*
X1135Y852D01*
X1185Y852D02*
X1235Y852D01*
X1285Y852D02*
X1335Y852D01*
X1485Y852D02*
X1535Y852D01*
X1585Y852D02*
X1635Y852D01*
X1785Y852D02*
X1835Y852D01*
X1885Y852D02*
X1935Y852D01*
X1985Y852D02*
X2035Y852D01*
X2185Y852D02*
X2235Y852D01*
X2285Y852D02*
X2335Y852D01*
X2385Y852D02*
X2435Y852D01*
X2485Y852D02*
X2535Y852D01*
X2585Y852D02*
X2635Y852D01*
X2685Y852D02*
X2734Y852D01*
X2885Y852D02*
X2935Y852D01*
X2985Y852D02*
X3034Y852D01*
X3185Y852D02*
X3234Y852D01*
X3285Y852D02*
X3334Y852D01*
X3385Y852D02*
X3434Y852D01*
X3585Y852D02*
X3634Y852D01*
X3685Y852D02*
X3734Y852D01*
X3785Y852D02*
X3834Y852D01*
X3885Y852D02*
X3934Y852D01*
X3985Y852D02*
X4034Y852D01*
X4085Y852D02*
X4134Y852D01*
X4285Y852D02*
X4334Y852D01*
X4385Y852D02*
X4434Y852D01*
X387Y851D02*
X433Y851D01*
X487Y851D02*
X533Y851D01*
X587Y851D02*
X633Y851D01*
X787Y851D02*
X833Y851D01*
X887Y851D02*
X933Y851D01*
X987Y851D02*
X1033Y851D01*
X1087Y851D02*
X1133Y851D01*
X1187Y851D02*
X1233Y851D01*
X1287Y851D02*
X1333Y851D01*
X1487Y851D02*
X1533Y851D01*
X1587Y851D02*
X1633Y851D01*
X1787Y851D02*
X1833Y851D01*
X1887Y851D02*
X1933Y851D01*
X1987Y851D02*
X2033Y851D01*
X2187Y851D02*
X2233Y851D01*
X2287Y851D02*
X2333Y851D01*
X2387Y851D02*
X2433Y851D01*
X2487Y851D02*
X2533Y851D01*
X2587Y851D02*
X2633Y851D01*
X2687Y851D02*
X2733Y851D01*
X2887Y851D02*
X2933Y851D01*
X2987Y851D02*
X3032Y851D01*
X3187Y851D02*
X3233Y851D01*
X3287Y851D02*
X3332Y851D01*
X3387Y851D02*
X3433Y851D01*
X3587Y851D02*
X3632Y851D01*
X3687Y851D02*
X3732Y851D01*
X3787Y851D02*
X3833Y851D01*
X3887Y851D02*
X3932Y851D01*
X3987Y851D02*
X4032Y851D01*
X4087Y851D02*
X4132Y851D01*
X4287Y851D02*
X4333Y851D01*
X4387Y851D02*
X4432Y851D01*
X389Y850D02*
X431Y850D01*
X489Y850D02*
X531Y850D01*
X589Y850D02*
X631Y850D01*
X789Y850D02*
X831Y850D01*
X889Y850D02*
X931Y850D01*
X989Y850D02*
X1031Y850D01*
X1089Y850D02*
X1131Y850D01*
X1189Y850D02*
X1231Y850D01*
X1289Y850D02*
X1331Y850D01*
X1489Y850D02*
X1531Y850D01*
X1589Y850D02*
X1631Y850D01*
X1789Y850D02*
X1831Y850D01*
X1889Y850D02*
X1931Y850D01*
X1989Y850D02*
X2031Y850D01*
X2189Y850D02*
X2231Y850D01*
X2289Y850D02*
X2331Y850D01*
X2389Y850D02*
X2431Y850D01*
X2489Y850D02*
X2531Y850D01*
X2589Y850D02*
X2631Y850D01*
X2689Y850D02*
X2730Y850D01*
X2889Y850D02*
X2931Y850D01*
X2989Y850D02*
X3030Y850D01*
X3189Y850D02*
X3230Y850D01*
X3289Y850D02*
X3330Y850D01*
X3389Y850D02*
X3430Y850D01*
X3589Y850D02*
X3630Y850D01*
X3689Y850D02*
X3730Y850D01*
X3789Y850D02*
X3831Y850D01*
X3889Y850D02*
X3930Y850D01*
X3989Y850D02*
X4030Y850D01*
X4089Y850D02*
X4130Y850D01*
X4289Y850D02*
X4330Y850D01*
X4389Y850D02*
X4430Y850D01*
X392Y849D02*
X428Y849D01*
X492Y849D02*
X528Y849D01*
X592Y849D02*
X628Y849D01*
X792Y849D02*
X828Y849D01*
X892Y849D02*
X928Y849D01*
X992Y849D02*
X1028Y849D01*
X1092Y849D02*
X1128Y849D01*
X1192Y849D02*
X1228Y849D01*
X1292Y849D02*
X1328Y849D01*
X1492Y849D02*
X1528Y849D01*
X1592Y849D02*
X1628Y849D01*
X1792Y849D02*
X1828Y849D01*
X1892Y849D02*
X1928Y849D01*
X1992Y849D02*
X2028Y849D01*
X2192Y849D02*
X2228Y849D01*
X2292Y849D02*
X2328Y849D01*
X2392Y849D02*
X2428Y849D01*
X2492Y849D02*
X2528Y849D01*
X2592Y849D02*
X2628Y849D01*
X2692Y849D02*
X2728Y849D01*
X2891Y849D02*
X2928Y849D01*
X2992Y849D02*
X3028Y849D01*
X3191Y849D02*
X3228Y849D01*
X3292Y849D02*
X3328Y849D01*
X3391Y849D02*
X3428Y849D01*
X3591Y849D02*
X3628Y849D01*
X3691Y849D02*
X3728Y849D01*
X3791Y849D02*
X3828Y849D01*
X3891Y849D02*
X3928Y849D01*
X3991Y849D02*
X4028Y849D01*
X4091Y849D02*
X4128Y849D01*
X4291Y849D02*
X4328Y849D01*
X4391Y849D02*
X4428Y849D01*
X395Y848D02*
X426Y848D01*
X495Y848D02*
X526Y848D01*
X595Y848D02*
X626Y848D01*
X795Y848D02*
X826Y848D01*
X895Y848D02*
X926Y848D01*
X994Y848D02*
X1026Y848D01*
X1094Y848D02*
X1126Y848D01*
X1194Y848D02*
X1226Y848D01*
X1294Y848D02*
X1325Y848D01*
X1494Y848D02*
X1526Y848D01*
X1594Y848D02*
X1625Y848D01*
X1794Y848D02*
X1825Y848D01*
X1894Y848D02*
X1925Y848D01*
X1994Y848D02*
X2025Y848D01*
X2194Y848D02*
X2225Y848D01*
X2294Y848D02*
X2325Y848D01*
X2394Y848D02*
X2426Y848D01*
X2494Y848D02*
X2525Y848D01*
X2594Y848D02*
X2625Y848D01*
X2694Y848D02*
X2725Y848D01*
X2894Y848D02*
X2925Y848D01*
X2994Y848D02*
X3025Y848D01*
X3194Y848D02*
X3225Y848D01*
X3294Y848D02*
X3325Y848D01*
X3394Y848D02*
X3425Y848D01*
X3594Y848D02*
X3625Y848D01*
X3694Y848D02*
X3725Y848D01*
X3794Y848D02*
X3825Y848D01*
X3894Y848D02*
X3925Y848D01*
X3994Y848D02*
X4025Y848D01*
X4094Y848D02*
X4125Y848D01*
X4294Y848D02*
X4325Y848D01*
X4394Y848D02*
X4425Y848D01*
X398Y847D02*
X422Y847D01*
X498Y847D02*
X522Y847D01*
X598Y847D02*
X622Y847D01*
X798Y847D02*
X822Y847D01*
X898Y847D02*
X922Y847D01*
X998Y847D02*
X1022Y847D01*
X1098Y847D02*
X1122Y847D01*
X1198Y847D02*
X1222Y847D01*
X1298Y847D02*
X1322Y847D01*
X1498Y847D02*
X1522Y847D01*
X1598Y847D02*
X1622Y847D01*
X1798Y847D02*
X1822Y847D01*
X1898Y847D02*
X1922Y847D01*
X1998Y847D02*
X2022Y847D01*
X2198Y847D02*
X2222Y847D01*
X2298Y847D02*
X2322Y847D01*
X2398Y847D02*
X2422Y847D01*
X2498Y847D02*
X2522Y847D01*
X2598Y847D02*
X2622Y847D01*
X2698Y847D02*
X2721Y847D01*
X2898Y847D02*
X2922Y847D01*
X2998Y847D02*
X3021Y847D01*
X3198Y847D02*
X3222Y847D01*
X3298Y847D02*
X3321Y847D01*
X3398Y847D02*
X3422Y847D01*
X3598Y847D02*
X3621Y847D01*
X3698Y847D02*
X3721Y847D01*
X3798Y847D02*
X3822Y847D01*
X3898Y847D02*
X3921Y847D01*
X3998Y847D02*
X4021Y847D01*
X4098Y847D02*
X4121Y847D01*
X4298Y847D02*
X4322Y847D01*
X4398Y847D02*
X4421Y847D01*
X403Y846D02*
X417Y846D01*
X504Y846D02*
X517Y846D01*
X603Y846D02*
X617Y846D01*
X804Y846D02*
X817Y846D01*
X904Y846D02*
X916Y846D01*
X1003Y846D02*
X1017Y846D01*
X1103Y846D02*
X1117Y846D01*
X1203Y846D02*
X1217Y846D01*
X1304Y846D02*
X1316Y846D01*
X1503Y846D02*
X1517Y846D01*
X1604Y846D02*
X1616Y846D01*
X1803Y846D02*
X1817Y846D01*
X1904Y846D02*
X1916Y846D01*
X2003Y846D02*
X2016Y846D01*
X2203Y846D02*
X2216Y846D01*
X2304Y846D02*
X2316Y846D01*
X2403Y846D02*
X2417Y846D01*
X2503Y846D02*
X2516Y846D01*
X2603Y846D02*
X2616Y846D01*
X2703Y846D02*
X2716Y846D01*
X2903Y846D02*
X2917Y846D01*
X3004Y846D02*
X3016Y846D01*
X3203Y846D02*
X3216Y846D01*
X3303Y846D02*
X3316Y846D01*
X3403Y846D02*
X3416Y846D01*
X3603Y846D02*
X3616Y846D01*
X3703Y846D02*
X3716Y846D01*
X3803Y846D02*
X3816Y846D01*
X3903Y846D02*
X3916Y846D01*
X4003Y846D02*
X4016Y846D01*
X4103Y846D02*
X4116Y846D01*
X4303Y846D02*
X4316Y846D01*
X4403Y846D02*
X4416Y846D01*
X602Y648D02*
X619Y648D01*
X1001Y648D02*
X1019Y648D01*
X1301Y648D02*
X1318Y648D01*
X2001Y648D02*
X2018Y648D01*
X2401Y648D02*
X2419Y648D01*
X2701Y648D02*
X2718Y648D01*
X3401Y648D02*
X3418Y648D01*
X3801Y648D02*
X3818Y648D01*
X4101Y648D02*
X4118Y648D01*
X597Y647D02*
X623Y647D01*
X997Y647D02*
X1023Y647D01*
X1297Y647D02*
X1323Y647D01*
X1997Y647D02*
X2023Y647D01*
X2397Y647D02*
X2423Y647D01*
X2697Y647D02*
X2723Y647D01*
X3397Y647D02*
X3423Y647D01*
X3797Y647D02*
X3823Y647D01*
X4097Y647D02*
X4123Y647D01*
X594Y646D02*
X626Y646D01*
X994Y646D02*
X1026Y646D01*
X1294Y646D02*
X1326Y646D01*
X1994Y646D02*
X2026Y646D01*
X2393Y646D02*
X2426Y646D01*
X2693Y646D02*
X2726Y646D01*
X3393Y646D02*
X3426Y646D01*
X3793Y646D02*
X3826Y646D01*
X4093Y646D02*
X4126Y646D01*
X591Y645D02*
X629Y645D01*
X991Y645D02*
X1029Y645D01*
X1291Y645D02*
X1329Y645D01*
X1991Y645D02*
X2029Y645D01*
X2391Y645D02*
X2429Y645D01*
X2691Y645D02*
X2729Y645D01*
X3391Y645D02*
X3429Y645D01*
X3790Y645D02*
X3829Y645D01*
X4090Y645D02*
X4129Y645D01*
X589Y644D02*
X631Y644D01*
X989Y644D02*
X1031Y644D01*
X1289Y644D02*
X1331Y644D01*
X1989Y644D02*
X2031Y644D01*
X2389Y644D02*
X2431Y644D01*
X2688Y644D02*
X2731Y644D01*
X3388Y644D02*
X3431Y644D01*
X3788Y644D02*
X3831Y644D01*
X4088Y644D02*
X4131Y644D01*
X587Y643D02*
X633Y643D01*
X987Y643D02*
X1033Y643D01*
X1287Y643D02*
X1333Y643D01*
X1987Y643D02*
X2033Y643D01*
X2386Y643D02*
X2433Y643D01*
X2686Y643D02*
X2733Y643D01*
X3386Y643D02*
X3433Y643D01*
X3786Y643D02*
X3833Y643D01*
X4086Y643D02*
X4133Y643D01*
X585Y642D02*
X635Y642D01*
X985Y642D02*
X1035Y642D01*
X1285Y642D02*
X1335Y642D01*
X1985Y642D02*
X2035Y642D01*
X2385Y642D02*
X2435Y642D01*
X2685Y642D02*
X2735Y642D01*
X3385Y642D02*
X3435Y642D01*
X3785Y642D02*
X3835Y642D01*
X4085Y642D02*
X4135Y642D01*
X583Y641D02*
X637Y641D01*
X983Y641D02*
X1037Y641D01*
X1283Y641D02*
X1337Y641D01*
X1983Y641D02*
X2037Y641D01*
X2383Y641D02*
X2437Y641D01*
X2683Y641D02*
X2737Y641D01*
X3383Y641D02*
X3437Y641D01*
X3783Y641D02*
X3837Y641D01*
X4083Y641D02*
X4136Y641D01*
X582Y640D02*
X638Y640D01*
X982Y640D02*
X1038Y640D01*
X1282Y640D02*
X1338Y640D01*
X1982Y640D02*
X2038Y640D01*
X2382Y640D02*
X2438Y640D01*
X2681Y640D02*
X2738Y640D01*
X3381Y640D02*
X3438Y640D01*
X3781Y640D02*
X3838Y640D01*
X4081Y640D02*
X4138Y640D01*
X580Y639D02*
X640Y639D01*
X980Y639D02*
X1040Y639D01*
X1280Y639D02*
X1340Y639D01*
X1980Y639D02*
X2040Y639D01*
X2380Y639D02*
X2440Y639D01*
X2680Y639D02*
X2740Y639D01*
X3380Y639D02*
X3439Y639D01*
X3780Y639D02*
X3839Y639D01*
X4080Y639D02*
X4139Y639D01*
X579Y638D02*
X641Y638D01*
X979Y638D02*
X1041Y638D01*
X1279Y638D02*
X1341Y638D01*
X1979Y638D02*
X2041Y638D01*
X2379Y638D02*
X2441Y638D01*
X2679Y638D02*
X2741Y638D01*
X3379Y638D02*
X3441Y638D01*
X3779Y638D02*
X3841Y638D01*
X4079Y638D02*
X4141Y638D01*
X578Y637D02*
X643Y637D01*
X978Y637D02*
X1042Y637D01*
X1278Y637D02*
X1342Y637D01*
X1978Y637D02*
X2042Y637D01*
X2377Y637D02*
X2442Y637D01*
X2677Y637D02*
X2742Y637D01*
X3377Y637D02*
X3442Y637D01*
X3777Y637D02*
X3842Y637D01*
X4077Y637D02*
X4142Y637D01*
X577Y636D02*
X644Y636D01*
X976Y636D02*
X1044Y636D01*
X1276Y636D02*
X1344Y636D01*
X1976Y636D02*
X2044Y636D01*
X2376Y636D02*
X2443Y636D01*
X2676Y636D02*
X2743Y636D01*
X3376Y636D02*
X3443Y636D01*
X3776Y636D02*
X3843Y636D01*
X4076Y636D02*
X4143Y636D01*
X575Y635D02*
X645Y635D01*
X975Y635D02*
X1045Y635D01*
X1275Y635D02*
X1345Y635D01*
X1975Y635D02*
X2045Y635D01*
X2375Y635D02*
X2445Y635D01*
X2675Y635D02*
X2745Y635D01*
X3375Y635D02*
X3444Y635D01*
X3775Y635D02*
X3844Y635D01*
X4075Y635D02*
X4144Y635D01*
X574Y634D02*
X646Y634D01*
X974Y634D02*
X1046Y634D01*
X1274Y634D02*
X1346Y634D01*
X1974Y634D02*
X2046Y634D01*
X2374Y634D02*
X2446Y634D01*
X2674Y634D02*
X2746Y634D01*
X3374Y634D02*
X3446Y634D01*
X3774Y634D02*
X3846Y634D01*
X4074Y634D02*
X4145Y634D01*
X573Y633D02*
X647Y633D01*
X973Y633D02*
X1047Y633D01*
X1273Y633D02*
X1347Y633D01*
X1973Y633D02*
X2047Y633D01*
X2373Y633D02*
X2447Y633D01*
X2673Y633D02*
X2747Y633D01*
X3373Y633D02*
X3447Y633D01*
X3773Y633D02*
X3846Y633D01*
X4073Y633D02*
X4146Y633D01*
X572Y632D02*
X648Y632D01*
X972Y632D02*
X1048Y632D01*
X1272Y632D02*
X1348Y632D01*
X1972Y632D02*
X2048Y632D01*
X2372Y632D02*
X2448Y632D01*
X2672Y632D02*
X2747Y632D01*
X3372Y632D02*
X3447Y632D01*
X3772Y632D02*
X3847Y632D01*
X4072Y632D02*
X4147Y632D01*
X572Y631D02*
X649Y631D01*
X972Y631D02*
X1049Y631D01*
X1271Y631D02*
X1349Y631D01*
X1971Y631D02*
X2048Y631D01*
X2371Y631D02*
X2448Y631D01*
X2671Y631D02*
X2748Y631D01*
X3371Y631D02*
X3448Y631D01*
X3771Y631D02*
X3848Y631D01*
X4071Y631D02*
X4148Y631D01*
X571Y630D02*
X650Y630D01*
X971Y630D02*
X1049Y630D01*
X1271Y630D02*
X1349Y630D01*
X1971Y630D02*
X2049Y630D01*
X2370Y630D02*
X2449Y630D01*
X2670Y630D02*
X2749Y630D01*
X3370Y630D02*
X3449Y630D01*
X3770Y630D02*
X3849Y630D01*
X4070Y630D02*
X4149Y630D01*
X570Y629D02*
X650Y629D01*
X970Y629D02*
X1050Y629D01*
X1270Y629D02*
X1350Y629D01*
X1970Y629D02*
X2050Y629D01*
X2370Y629D02*
X2450Y629D01*
X2670Y629D02*
X2750Y629D01*
X3370Y629D02*
X3450Y629D01*
X3770Y629D02*
X3850Y629D01*
X4070Y629D02*
X4150Y629D01*
X569Y628D02*
X651Y628D01*
X969Y628D02*
X1051Y628D01*
X1269Y628D02*
X1351Y628D01*
X1969Y628D02*
X2051Y628D01*
X2369Y628D02*
X2451Y628D01*
X2669Y628D02*
X2751Y628D01*
X3369Y628D02*
X3451Y628D01*
X3769Y628D02*
X3851Y628D01*
X4069Y628D02*
X4151Y628D01*
X568Y627D02*
X652Y627D01*
X968Y627D02*
X1052Y627D01*
X1268Y627D02*
X1352Y627D01*
X1968Y627D02*
X2052Y627D01*
X2368Y627D02*
X2452Y627D01*
X2668Y627D02*
X2751Y627D01*
X3368Y627D02*
X3451Y627D01*
X3768Y627D02*
X3851Y627D01*
X4068Y627D02*
X4151Y627D01*
X568Y626D02*
X652Y626D01*
X968Y626D02*
X1052Y626D01*
X1268Y626D02*
X1352Y626D01*
X1968Y626D02*
X2052Y626D01*
X2368Y626D02*
X2452Y626D01*
X2667Y626D02*
X2752Y626D01*
X3367Y626D02*
X3452Y626D01*
X3767Y626D02*
X3852Y626D01*
X4067Y626D02*
X4152Y626D01*
X567Y625D02*
X653Y625D01*
X967Y625D02*
X1053Y625D01*
X1267Y625D02*
X1353Y625D01*
X1967Y625D02*
X2053Y625D01*
X2367Y625D02*
X2453Y625D01*
X2667Y625D02*
X2753Y625D01*
X3367Y625D02*
X3453Y625D01*
X3767Y625D02*
X3853Y625D01*
X4067Y625D02*
X4153Y625D01*
X567Y624D02*
X654Y624D01*
X966Y624D02*
X1054Y624D01*
X1266Y624D02*
X1354Y624D01*
X1966Y624D02*
X2054Y624D01*
X2366Y624D02*
X2454Y624D01*
X2666Y624D02*
X2753Y624D01*
X3366Y624D02*
X3453Y624D01*
X3766Y624D02*
X3853Y624D01*
X4066Y624D02*
X4153Y624D01*
X566Y623D02*
X654Y623D01*
X966Y623D02*
X1054Y623D01*
X1266Y623D02*
X1354Y623D01*
X1966Y623D02*
X2054Y623D01*
X2366Y623D02*
X2454Y623D01*
X2666Y623D02*
X2754Y623D01*
X3366Y623D02*
X3454Y623D01*
X3766Y623D02*
X3854Y623D01*
X4065Y623D02*
X4154Y623D01*
X565Y622D02*
X655Y622D01*
X965Y622D02*
X1055Y622D01*
X1265Y622D02*
X1355Y622D01*
X1965Y622D02*
X2055Y622D01*
X2365Y622D02*
X2455Y622D01*
X2665Y622D02*
X2755Y622D01*
X3365Y622D02*
X3455Y622D01*
X3765Y622D02*
X3855Y622D01*
X4065Y622D02*
X4154Y622D01*
X565Y621D02*
X655Y621D01*
X965Y621D02*
X1055Y621D01*
X1265Y621D02*
X1355Y621D01*
X1965Y621D02*
X2055Y621D01*
X2365Y621D02*
X2455Y621D01*
X2664Y621D02*
X2755Y621D01*
X3364Y621D02*
X3455Y621D01*
X3764Y621D02*
X3855Y621D01*
X4064Y621D02*
X4155Y621D01*
X564Y620D02*
X656Y620D01*
X964Y620D02*
X1056Y620D01*
X1264Y620D02*
X1356Y620D01*
X1964Y620D02*
X2056Y620D01*
X2364Y620D02*
X2456Y620D01*
X2664Y620D02*
X2756Y620D01*
X3364Y620D02*
X3456Y620D01*
X3764Y620D02*
X3856Y620D01*
X4064Y620D02*
X4156Y620D01*
X564Y619D02*
X656Y619D01*
X964Y619D02*
X1056Y619D01*
X1264Y619D02*
X1356Y619D01*
X1964Y619D02*
X2056Y619D01*
X2364Y619D02*
X2456Y619D01*
X2664Y619D02*
X2756Y619D01*
X3363Y619D02*
X3456Y619D01*
X3763Y619D02*
X3856Y619D01*
X4063Y619D02*
X4156Y619D01*
X563Y618D02*
X657Y618D01*
X963Y618D02*
X1057Y618D01*
X1263Y618D02*
X1357Y618D01*
X1963Y618D02*
X2057Y618D01*
X2363Y618D02*
X2457Y618D01*
X2663Y618D02*
X2757Y618D01*
X3363Y618D02*
X3457Y618D01*
X3763Y618D02*
X3857Y618D01*
X4063Y618D02*
X4157Y618D01*
X563Y617D02*
X657Y617D01*
X963Y617D02*
X1057Y617D01*
X1263Y617D02*
X1357Y617D01*
X1963Y617D02*
X2057Y617D01*
X2363Y617D02*
X2457Y617D01*
X2663Y617D02*
X2757Y617D01*
X3362Y617D02*
X3457Y617D01*
X3762Y617D02*
X3857Y617D01*
X4062Y617D02*
X4157Y617D01*
X562Y616D02*
X658Y616D01*
X962Y616D02*
X1058Y616D01*
X1262Y616D02*
X1358Y616D01*
X1962Y616D02*
X2058Y616D01*
X2362Y616D02*
X2458Y616D01*
X2662Y616D02*
X2757Y616D01*
X3362Y616D02*
X3457Y616D01*
X3762Y616D02*
X3857Y616D01*
X4062Y616D02*
X4157Y616D01*
X562Y615D02*
X658Y615D01*
X962Y615D02*
X1058Y615D01*
X1262Y615D02*
X1358Y615D01*
X1962Y615D02*
X2058Y615D01*
X2362Y615D02*
X2458Y615D01*
X2662Y615D02*
X2758Y615D01*
X3362Y615D02*
X3458Y615D01*
X3762Y615D02*
X3858Y615D01*
X4062Y615D02*
X4158Y615D01*
X562Y614D02*
X658Y614D01*
X962Y614D02*
X1058Y614D01*
X1262Y614D02*
X1358Y614D01*
X1962Y614D02*
X2058Y614D01*
X2362Y614D02*
X2458Y614D01*
X2662Y614D02*
X2758Y614D01*
X3361Y614D02*
X3458Y614D01*
X3761Y614D02*
X3858Y614D01*
X4061Y614D02*
X4158Y614D01*
X561Y613D02*
X659Y613D01*
X961Y613D02*
X1059Y613D01*
X1261Y613D02*
X1359Y613D01*
X1961Y613D02*
X2059Y613D01*
X2361Y613D02*
X2459Y613D01*
X2661Y613D02*
X2759Y613D01*
X3361Y613D02*
X3458Y613D01*
X3761Y613D02*
X3858Y613D01*
X4061Y613D02*
X4158Y613D01*
X561Y612D02*
X659Y612D01*
X961Y612D02*
X1059Y612D01*
X1261Y612D02*
X1359Y612D01*
X1961Y612D02*
X2059Y612D01*
X2361Y612D02*
X2459Y612D01*
X2661Y612D02*
X2759Y612D01*
X3361Y612D02*
X3459Y612D01*
X3761Y612D02*
X3859Y612D01*
X4061Y612D02*
X4159Y612D01*
X561Y611D02*
X659Y611D01*
X961Y611D02*
X1059Y611D01*
X1261Y611D02*
X1359Y611D01*
X1961Y611D02*
X2059Y611D01*
X2361Y611D02*
X2459Y611D01*
X2661Y611D02*
X2759Y611D01*
X3361Y611D02*
X3459Y611D01*
X3760Y611D02*
X3859Y611D01*
X4060Y611D02*
X4159Y611D01*
X561Y610D02*
X660Y610D01*
X961Y610D02*
X1060Y610D01*
X1261Y610D02*
X1360Y610D01*
X1960Y610D02*
X2059Y610D01*
X2360Y610D02*
X2459Y610D01*
X2660Y610D02*
X2759Y610D01*
X3360Y610D02*
X3459Y610D01*
X3760Y610D02*
X3859Y610D01*
X4060Y610D02*
X4159Y610D01*
X560Y609D02*
X660Y609D01*
X960Y609D02*
X1060Y609D01*
X1260Y609D02*
X1360Y609D01*
X1960Y609D02*
X2060Y609D01*
X2360Y609D02*
X2460Y609D01*
X2660Y609D02*
X2760Y609D01*
X3360Y609D02*
X3460Y609D01*
X3760Y609D02*
X3859Y609D01*
X4060Y609D02*
X4159Y609D01*
X560Y608D02*
X660Y608D01*
X960Y608D02*
X1060Y608D01*
X1260Y608D02*
X1360Y608D01*
X1960Y608D02*
X2060Y608D01*
X2360Y608D02*
X2460Y608D01*
X2660Y608D02*
X2760Y608D01*
X3360Y608D02*
X3460Y608D01*
X3760Y608D02*
X3860Y608D01*
X4060Y608D02*
X4160Y608D01*
X560Y607D02*
X660Y607D01*
X960Y607D02*
X1060Y607D01*
X1260Y607D02*
X1360Y607D01*
X1960Y607D02*
X2060Y607D01*
X2360Y607D02*
X2460Y607D01*
X2660Y607D02*
X2760Y607D01*
X3360Y607D02*
X3460Y607D01*
X3760Y607D02*
X3860Y607D01*
X4059Y607D02*
X4160Y607D01*
X560Y606D02*
X660Y606D01*
X960Y606D02*
X1060Y606D01*
X1260Y606D02*
X1360Y606D01*
X1960Y606D02*
X2060Y606D01*
X2360Y606D02*
X2460Y606D01*
X2659Y606D02*
X2760Y606D01*
X3359Y606D02*
X3460Y606D01*
X3759Y606D02*
X3860Y606D01*
X4059Y606D02*
X4160Y606D01*
X560Y605D02*
X661Y605D01*
X960Y605D02*
X1061Y605D01*
X1259Y605D02*
X1361Y605D01*
X1959Y605D02*
X2060Y605D01*
X2359Y605D02*
X2460Y605D01*
X2659Y605D02*
X2760Y605D01*
X3359Y605D02*
X3460Y605D01*
X3759Y605D02*
X3860Y605D01*
X4059Y605D02*
X4160Y605D01*
X559Y604D02*
X661Y604D01*
X959Y604D02*
X1061Y604D01*
X1259Y604D02*
X1361Y604D01*
X1959Y604D02*
X2061Y604D01*
X2359Y604D02*
X2461Y604D01*
X2659Y604D02*
X2761Y604D01*
X3359Y604D02*
X3460Y604D01*
X3759Y604D02*
X3860Y604D01*
X4059Y604D02*
X4160Y604D01*
X559Y603D02*
X661Y603D01*
X959Y603D02*
X1061Y603D01*
X1259Y603D02*
X1361Y603D01*
X1959Y603D02*
X2061Y603D01*
X2359Y603D02*
X2461Y603D01*
X2659Y603D02*
X2761Y603D01*
X3359Y603D02*
X3461Y603D01*
X3759Y603D02*
X3861Y603D01*
X4059Y603D02*
X4161Y603D01*
X559Y602D02*
X661Y602D01*
X959Y602D02*
X1061Y602D01*
X1259Y602D02*
X1361Y602D01*
X1959Y602D02*
X2061Y602D01*
X2359Y602D02*
X2461Y602D01*
X2659Y602D02*
X2761Y602D01*
X3359Y602D02*
X3461Y602D01*
X3759Y602D02*
X3861Y602D01*
X4059Y602D02*
X4161Y602D01*
X559Y601D02*
X661Y601D01*
X959Y601D02*
X1061Y601D01*
X1259Y601D02*
X1361Y601D01*
X1959Y601D02*
X2061Y601D01*
X2359Y601D02*
X2461Y601D01*
X2659Y601D02*
X2761Y601D01*
X3359Y601D02*
X3461Y601D01*
X3759Y601D02*
X3861Y601D01*
X4059Y601D02*
X4161Y601D01*
X559Y600D02*
X661Y600D01*
X959Y600D02*
X1061Y600D01*
X1259Y600D02*
X1361Y600D01*
X1959Y600D02*
X2061Y600D01*
X2359Y600D02*
X2461Y600D01*
X2659Y600D02*
X2761Y600D01*
X3359Y600D02*
X3461Y600D01*
X3759Y600D02*
X3861Y600D01*
X4059Y600D02*
X4161Y600D01*
X559Y599D02*
X661Y599D01*
X959Y599D02*
X1061Y599D01*
X1259Y599D02*
X1361Y599D01*
X1959Y599D02*
X2061Y599D01*
X2359Y599D02*
X2461Y599D01*
X2659Y599D02*
X2761Y599D01*
X3359Y599D02*
X3461Y599D01*
X3759Y599D02*
X3861Y599D01*
X4059Y599D02*
X4161Y599D01*
X559Y598D02*
X661Y598D01*
X959Y598D02*
X1061Y598D01*
X1259Y598D02*
X1361Y598D01*
X1959Y598D02*
X2061Y598D01*
X2359Y598D02*
X2461Y598D01*
X2659Y598D02*
X2761Y598D01*
X3359Y598D02*
X3461Y598D01*
X3759Y598D02*
X3861Y598D01*
X4058Y598D02*
X4161Y598D01*
X559Y597D02*
X661Y597D01*
X959Y597D02*
X1061Y597D01*
X1259Y597D02*
X1361Y597D01*
X1959Y597D02*
X2061Y597D01*
X2359Y597D02*
X2461Y597D01*
X2659Y597D02*
X2761Y597D01*
X3359Y597D02*
X3461Y597D01*
X3759Y597D02*
X3861Y597D01*
X4058Y597D02*
X4161Y597D01*
X559Y596D02*
X661Y596D01*
X959Y596D02*
X1061Y596D01*
X1259Y596D02*
X1361Y596D01*
X1959Y596D02*
X2061Y596D01*
X2359Y596D02*
X2461Y596D01*
X2659Y596D02*
X2761Y596D01*
X3359Y596D02*
X3461Y596D01*
X3759Y596D02*
X3861Y596D01*
X4059Y596D02*
X4161Y596D01*
X559Y595D02*
X661Y595D01*
X959Y595D02*
X1061Y595D01*
X1259Y595D02*
X1361Y595D01*
X1959Y595D02*
X2061Y595D01*
X2359Y595D02*
X2461Y595D01*
X2659Y595D02*
X2761Y595D01*
X3359Y595D02*
X3461Y595D01*
X3759Y595D02*
X3861Y595D01*
X4059Y595D02*
X4161Y595D01*
X559Y594D02*
X661Y594D01*
X959Y594D02*
X1061Y594D01*
X1259Y594D02*
X1361Y594D01*
X1959Y594D02*
X2061Y594D01*
X2359Y594D02*
X2461Y594D01*
X2659Y594D02*
X2761Y594D01*
X3359Y594D02*
X3461Y594D01*
X3759Y594D02*
X3861Y594D01*
X4059Y594D02*
X4161Y594D01*
X559Y593D02*
X661Y593D01*
X959Y593D02*
X1061Y593D01*
X1259Y593D02*
X1361Y593D01*
X1959Y593D02*
X2061Y593D01*
X2359Y593D02*
X2461Y593D01*
X2659Y593D02*
X2761Y593D01*
X3359Y593D02*
X3461Y593D01*
X3759Y593D02*
X3861Y593D01*
X4059Y593D02*
X4161Y593D01*
X559Y592D02*
X661Y592D01*
X959Y592D02*
X1061Y592D01*
X1259Y592D02*
X1361Y592D01*
X1959Y592D02*
X2061Y592D01*
X2359Y592D02*
X2461Y592D01*
X2659Y592D02*
X2761Y592D01*
X3359Y592D02*
X3461Y592D01*
X3759Y592D02*
X3861Y592D01*
X4059Y592D02*
X4161Y592D01*
X559Y591D02*
X661Y591D01*
X959Y591D02*
X1061Y591D01*
X1259Y591D02*
X1361Y591D01*
X1959Y591D02*
X2061Y591D01*
X2359Y591D02*
X2461Y591D01*
X2659Y591D02*
X2761Y591D01*
X3359Y591D02*
X3461Y591D01*
X3759Y591D02*
X3861Y591D01*
X4059Y591D02*
X4160Y591D01*
X559Y590D02*
X661Y590D01*
X959Y590D02*
X1061Y590D01*
X1259Y590D02*
X1361Y590D01*
X1959Y590D02*
X2061Y590D01*
X2359Y590D02*
X2461Y590D01*
X2659Y590D02*
X2760Y590D01*
X3359Y590D02*
X3460Y590D01*
X3759Y590D02*
X3860Y590D01*
X4059Y590D02*
X4160Y590D01*
X560Y589D02*
X661Y589D01*
X960Y589D02*
X1061Y589D01*
X1260Y589D02*
X1360Y589D01*
X1959Y589D02*
X2060Y589D01*
X2359Y589D02*
X2460Y589D01*
X2659Y589D02*
X2760Y589D01*
X3359Y589D02*
X3460Y589D01*
X3759Y589D02*
X3860Y589D01*
X4059Y589D02*
X4160Y589D01*
X560Y588D02*
X660Y588D01*
X960Y588D02*
X1060Y588D01*
X1260Y588D02*
X1360Y588D01*
X1960Y588D02*
X2060Y588D01*
X2360Y588D02*
X2460Y588D01*
X2660Y588D02*
X2760Y588D01*
X3359Y588D02*
X3460Y588D01*
X3759Y588D02*
X3860Y588D01*
X4059Y588D02*
X4160Y588D01*
X560Y587D02*
X660Y587D01*
X960Y587D02*
X1060Y587D01*
X1260Y587D02*
X1360Y587D01*
X1960Y587D02*
X2060Y587D01*
X2360Y587D02*
X2460Y587D01*
X2660Y587D02*
X2760Y587D01*
X3360Y587D02*
X3460Y587D01*
X3760Y587D02*
X3860Y587D01*
X4060Y587D02*
X4160Y587D01*
X560Y586D02*
X660Y586D01*
X960Y586D02*
X1060Y586D01*
X1260Y586D02*
X1360Y586D01*
X1960Y586D02*
X2060Y586D01*
X2360Y586D02*
X2460Y586D01*
X2660Y586D02*
X2760Y586D01*
X3360Y586D02*
X3460Y586D01*
X3760Y586D02*
X3860Y586D01*
X4060Y586D02*
X4160Y586D01*
X560Y585D02*
X660Y585D01*
X960Y585D02*
X1060Y585D01*
X1260Y585D02*
X1360Y585D01*
X1960Y585D02*
X2060Y585D01*
X2360Y585D02*
X2460Y585D01*
X2660Y585D02*
X2760Y585D01*
X3360Y585D02*
X3459Y585D01*
X3760Y585D02*
X3859Y585D01*
X4060Y585D02*
X4159Y585D01*
X561Y584D02*
X660Y584D01*
X961Y584D02*
X1059Y584D01*
X1261Y584D02*
X1359Y584D01*
X1961Y584D02*
X2059Y584D01*
X2360Y584D02*
X2459Y584D01*
X2660Y584D02*
X2759Y584D01*
X3360Y584D02*
X3459Y584D01*
X3760Y584D02*
X3859Y584D01*
X4060Y584D02*
X4159Y584D01*
X561Y583D02*
X659Y583D01*
X961Y583D02*
X1059Y583D01*
X1261Y583D02*
X1359Y583D01*
X1961Y583D02*
X2059Y583D01*
X2361Y583D02*
X2459Y583D01*
X2661Y583D02*
X2759Y583D01*
X3361Y583D02*
X3459Y583D01*
X3761Y583D02*
X3859Y583D01*
X4061Y583D02*
X4159Y583D01*
X561Y582D02*
X659Y582D01*
X961Y582D02*
X1059Y582D01*
X1261Y582D02*
X1359Y582D01*
X1961Y582D02*
X2059Y582D01*
X2361Y582D02*
X2459Y582D01*
X2661Y582D02*
X2759Y582D01*
X3361Y582D02*
X3459Y582D01*
X3761Y582D02*
X3859Y582D01*
X4061Y582D02*
X4159Y582D01*
X562Y581D02*
X659Y581D01*
X961Y581D02*
X1059Y581D01*
X1261Y581D02*
X1359Y581D01*
X1961Y581D02*
X2059Y581D01*
X2361Y581D02*
X2459Y581D01*
X2661Y581D02*
X2758Y581D01*
X3361Y581D02*
X3458Y581D01*
X3761Y581D02*
X3858Y581D01*
X4061Y581D02*
X4158Y581D01*
X562Y580D02*
X658Y580D01*
X962Y580D02*
X1058Y580D01*
X1262Y580D02*
X1358Y580D01*
X1962Y580D02*
X2058Y580D01*
X2362Y580D02*
X2458Y580D01*
X2662Y580D02*
X2758Y580D01*
X3362Y580D02*
X3458Y580D01*
X3761Y580D02*
X3858Y580D01*
X4061Y580D02*
X4158Y580D01*
X562Y579D02*
X658Y579D01*
X962Y579D02*
X1058Y579D01*
X1262Y579D02*
X1358Y579D01*
X1962Y579D02*
X2058Y579D01*
X2362Y579D02*
X2458Y579D01*
X2662Y579D02*
X2758Y579D01*
X3362Y579D02*
X3458Y579D01*
X3762Y579D02*
X3858Y579D01*
X4062Y579D02*
X4158Y579D01*
X563Y578D02*
X658Y578D01*
X963Y578D02*
X1058Y578D01*
X1262Y578D02*
X1358Y578D01*
X1962Y578D02*
X2057Y578D01*
X2362Y578D02*
X2457Y578D01*
X2662Y578D02*
X2757Y578D01*
X3362Y578D02*
X3457Y578D01*
X3762Y578D02*
X3857Y578D01*
X4062Y578D02*
X4157Y578D01*
X563Y577D02*
X657Y577D01*
X963Y577D02*
X1057Y577D01*
X1263Y577D02*
X1357Y577D01*
X1963Y577D02*
X2057Y577D01*
X2363Y577D02*
X2457Y577D01*
X2663Y577D02*
X2757Y577D01*
X3363Y577D02*
X3457Y577D01*
X3763Y577D02*
X3857Y577D01*
X4063Y577D02*
X4157Y577D01*
X563Y576D02*
X657Y576D01*
X963Y576D02*
X1057Y576D01*
X1263Y576D02*
X1357Y576D01*
X1963Y576D02*
X2057Y576D01*
X2363Y576D02*
X2457Y576D01*
X2663Y576D02*
X2757Y576D01*
X3363Y576D02*
X3456Y576D01*
X3763Y576D02*
X3856Y576D01*
X4063Y576D02*
X4156Y576D01*
X564Y575D02*
X656Y575D01*
X964Y575D02*
X1056Y575D01*
X1264Y575D02*
X1356Y575D01*
X1964Y575D02*
X2056Y575D01*
X2364Y575D02*
X2456Y575D01*
X2664Y575D02*
X2756Y575D01*
X3364Y575D02*
X3456Y575D01*
X3764Y575D02*
X3856Y575D01*
X4063Y575D02*
X4156Y575D01*
X564Y574D02*
X656Y574D01*
X964Y574D02*
X1056Y574D01*
X1264Y574D02*
X1356Y574D01*
X1964Y574D02*
X2056Y574D01*
X2364Y574D02*
X2456Y574D01*
X2664Y574D02*
X2756Y574D01*
X3364Y574D02*
X3455Y574D01*
X3764Y574D02*
X3855Y574D01*
X4064Y574D02*
X4155Y574D01*
X565Y573D02*
X655Y573D01*
X965Y573D02*
X1055Y573D01*
X1265Y573D02*
X1355Y573D01*
X1965Y573D02*
X2055Y573D01*
X2365Y573D02*
X2455Y573D01*
X2665Y573D02*
X2755Y573D01*
X3365Y573D02*
X3455Y573D01*
X3765Y573D02*
X3855Y573D01*
X4064Y573D02*
X4155Y573D01*
X565Y572D02*
X655Y572D01*
X965Y572D02*
X1055Y572D01*
X1265Y572D02*
X1355Y572D01*
X1965Y572D02*
X2055Y572D01*
X2365Y572D02*
X2455Y572D01*
X2665Y572D02*
X2754Y572D01*
X3365Y572D02*
X3454Y572D01*
X3765Y572D02*
X3854Y572D01*
X4065Y572D02*
X4154Y572D01*
X566Y571D02*
X654Y571D01*
X966Y571D02*
X1054Y571D01*
X1266Y571D02*
X1354Y571D01*
X1966Y571D02*
X2054Y571D01*
X2366Y571D02*
X2454Y571D01*
X2666Y571D02*
X2754Y571D01*
X3366Y571D02*
X3454Y571D01*
X3766Y571D02*
X3854Y571D01*
X4066Y571D02*
X4154Y571D01*
X567Y570D02*
X654Y570D01*
X967Y570D02*
X1053Y570D01*
X1267Y570D02*
X1353Y570D01*
X1967Y570D02*
X2053Y570D01*
X2366Y570D02*
X2453Y570D01*
X2666Y570D02*
X2753Y570D01*
X3366Y570D02*
X3453Y570D01*
X3766Y570D02*
X3853Y570D01*
X4066Y570D02*
X4153Y570D01*
X567Y569D02*
X653Y569D01*
X967Y569D02*
X1053Y569D01*
X1267Y569D02*
X1353Y569D01*
X1967Y569D02*
X2053Y569D01*
X2367Y569D02*
X2453Y569D01*
X2667Y569D02*
X2753Y569D01*
X3367Y569D02*
X3453Y569D01*
X3767Y569D02*
X3853Y569D01*
X4067Y569D02*
X4152Y569D01*
X568Y568D02*
X652Y568D01*
X968Y568D02*
X1052Y568D01*
X1268Y568D02*
X1352Y568D01*
X1968Y568D02*
X2052Y568D01*
X2368Y568D02*
X2452Y568D01*
X2668Y568D02*
X2752Y568D01*
X3368Y568D02*
X3452Y568D01*
X3768Y568D02*
X3852Y568D01*
X4068Y568D02*
X4152Y568D01*
X569Y567D02*
X652Y567D01*
X969Y567D02*
X1052Y567D01*
X1269Y567D02*
X1351Y567D01*
X1969Y567D02*
X2051Y567D01*
X2368Y567D02*
X2451Y567D01*
X2668Y567D02*
X2751Y567D01*
X3368Y567D02*
X3451Y567D01*
X3768Y567D02*
X3851Y567D01*
X4068Y567D02*
X4151Y567D01*
X569Y566D02*
X651Y566D01*
X969Y566D02*
X1051Y566D01*
X1269Y566D02*
X1351Y566D01*
X1969Y566D02*
X2051Y566D01*
X2369Y566D02*
X2451Y566D01*
X2669Y566D02*
X2751Y566D01*
X3369Y566D02*
X3450Y566D01*
X3769Y566D02*
X3850Y566D01*
X4069Y566D02*
X4150Y566D01*
X570Y565D02*
X650Y565D01*
X970Y565D02*
X1050Y565D01*
X1270Y565D02*
X1350Y565D01*
X1970Y565D02*
X2050Y565D01*
X2370Y565D02*
X2450Y565D01*
X2670Y565D02*
X2750Y565D01*
X3370Y565D02*
X3450Y565D01*
X3770Y565D02*
X3850Y565D01*
X4070Y565D02*
X4150Y565D01*
X571Y564D02*
X649Y564D01*
X971Y564D02*
X1049Y564D01*
X1271Y564D02*
X1349Y564D01*
X1971Y564D02*
X2049Y564D01*
X2371Y564D02*
X2449Y564D01*
X2671Y564D02*
X2749Y564D01*
X3371Y564D02*
X3449Y564D01*
X3771Y564D02*
X3849Y564D01*
X4071Y564D02*
X4149Y564D01*
X572Y563D02*
X648Y563D01*
X972Y563D02*
X1048Y563D01*
X1272Y563D02*
X1348Y563D01*
X1972Y563D02*
X2048Y563D01*
X2372Y563D02*
X2448Y563D01*
X2672Y563D02*
X2748Y563D01*
X3371Y563D02*
X3448Y563D01*
X3771Y563D02*
X3848Y563D01*
X4071Y563D02*
X4148Y563D01*
X573Y562D02*
X647Y562D01*
X973Y562D02*
X1047Y562D01*
X1273Y562D02*
X1347Y562D01*
X1973Y562D02*
X2047Y562D01*
X2373Y562D02*
X2447Y562D01*
X2672Y562D02*
X2747Y562D01*
X3372Y562D02*
X3447Y562D01*
X3772Y562D02*
X3847Y562D01*
X4072Y562D02*
X4147Y562D01*
X574Y561D02*
X647Y561D01*
X974Y561D02*
X1047Y561D01*
X1274Y561D02*
X1346Y561D01*
X1973Y561D02*
X2046Y561D01*
X2373Y561D02*
X2446Y561D01*
X2673Y561D02*
X2746Y561D01*
X3373Y561D02*
X3446Y561D01*
X3773Y561D02*
X3846Y561D01*
X4073Y561D02*
X4146Y561D01*
X575Y560D02*
X646Y560D01*
X975Y560D02*
X1046Y560D01*
X1275Y560D02*
X1345Y560D01*
X1974Y560D02*
X2045Y560D01*
X2374Y560D02*
X2445Y560D01*
X2674Y560D02*
X2745Y560D01*
X3374Y560D02*
X3445Y560D01*
X3774Y560D02*
X3845Y560D01*
X4074Y560D02*
X4145Y560D01*
X576Y559D02*
X644Y559D01*
X976Y559D02*
X1044Y559D01*
X1276Y559D02*
X1344Y559D01*
X1976Y559D02*
X2044Y559D01*
X2376Y559D02*
X2444Y559D01*
X2676Y559D02*
X2744Y559D01*
X3375Y559D02*
X3444Y559D01*
X3775Y559D02*
X3844Y559D01*
X4075Y559D02*
X4144Y559D01*
X577Y558D02*
X643Y558D01*
X977Y558D02*
X1043Y558D01*
X1277Y558D02*
X1343Y558D01*
X1977Y558D02*
X2043Y558D01*
X2377Y558D02*
X2443Y558D01*
X2677Y558D02*
X2743Y558D01*
X3377Y558D02*
X3443Y558D01*
X3776Y558D02*
X3843Y558D01*
X4076Y558D02*
X4143Y558D01*
X578Y557D02*
X642Y557D01*
X978Y557D02*
X1042Y557D01*
X1278Y557D02*
X1342Y557D01*
X1978Y557D02*
X2042Y557D01*
X2378Y557D02*
X2442Y557D01*
X2678Y557D02*
X2742Y557D01*
X3378Y557D02*
X3442Y557D01*
X3778Y557D02*
X3842Y557D01*
X4078Y557D02*
X4142Y557D01*
X579Y556D02*
X641Y556D01*
X979Y556D02*
X1041Y556D01*
X1279Y556D02*
X1341Y556D01*
X1979Y556D02*
X2041Y556D01*
X2379Y556D02*
X2441Y556D01*
X2679Y556D02*
X2740Y556D01*
X3379Y556D02*
X3440Y556D01*
X3779Y556D02*
X3840Y556D01*
X4079Y556D02*
X4140Y556D01*
X581Y555D02*
X639Y555D01*
X981Y555D02*
X1039Y555D01*
X1281Y555D02*
X1339Y555D01*
X1981Y555D02*
X2039Y555D01*
X2381Y555D02*
X2439Y555D01*
X2681Y555D02*
X2739Y555D01*
X3380Y555D02*
X3439Y555D01*
X3780Y555D02*
X3839Y555D01*
X4080Y555D02*
X4139Y555D01*
X582Y554D02*
X638Y554D01*
X982Y554D02*
X1038Y554D01*
X1282Y554D02*
X1338Y554D01*
X1982Y554D02*
X2038Y554D01*
X2382Y554D02*
X2438Y554D01*
X2682Y554D02*
X2738Y554D01*
X3382Y554D02*
X3438Y554D01*
X3782Y554D02*
X3838Y554D01*
X4082Y554D02*
X4137Y554D01*
X584Y553D02*
X636Y553D01*
X984Y553D02*
X1036Y553D01*
X1284Y553D02*
X1336Y553D01*
X1984Y553D02*
X2036Y553D01*
X2384Y553D02*
X2436Y553D01*
X2684Y553D02*
X2736Y553D01*
X3384Y553D02*
X3436Y553D01*
X3783Y553D02*
X3836Y553D01*
X4083Y553D02*
X4136Y553D01*
X585Y552D02*
X635Y552D01*
X985Y552D02*
X1035Y552D01*
X1285Y552D02*
X1335Y552D01*
X1985Y552D02*
X2035Y552D01*
X2385Y552D02*
X2435Y552D01*
X2685Y552D02*
X2734Y552D01*
X3385Y552D02*
X3434Y552D01*
X3785Y552D02*
X3834Y552D01*
X4085Y552D02*
X4134Y552D01*
X587Y551D02*
X633Y551D01*
X987Y551D02*
X1033Y551D01*
X1287Y551D02*
X1333Y551D01*
X1987Y551D02*
X2033Y551D01*
X2387Y551D02*
X2433Y551D01*
X2687Y551D02*
X2732Y551D01*
X3387Y551D02*
X3432Y551D01*
X3787Y551D02*
X3832Y551D01*
X4087Y551D02*
X4132Y551D01*
X589Y550D02*
X631Y550D01*
X989Y550D02*
X1031Y550D01*
X1289Y550D02*
X1331Y550D01*
X1989Y550D02*
X2031Y550D01*
X2389Y550D02*
X2431Y550D01*
X2689Y550D02*
X2730Y550D01*
X3389Y550D02*
X3430Y550D01*
X3789Y550D02*
X3830Y550D01*
X4089Y550D02*
X4130Y550D01*
X592Y549D02*
X628Y549D01*
X992Y549D02*
X1028Y549D01*
X1292Y549D02*
X1328Y549D01*
X1992Y549D02*
X2028Y549D01*
X2392Y549D02*
X2428Y549D01*
X2692Y549D02*
X2728Y549D01*
X3391Y549D02*
X3428Y549D01*
X3791Y549D02*
X3828Y549D01*
X4091Y549D02*
X4128Y549D01*
X595Y548D02*
X626Y548D01*
X994Y548D02*
X1026Y548D01*
X1295Y548D02*
X1325Y548D01*
X1994Y548D02*
X2025Y548D01*
X2394Y548D02*
X2425Y548D01*
X2694Y548D02*
X2725Y548D01*
X3394Y548D02*
X3425Y548D01*
X3794Y548D02*
X3825Y548D01*
X4094Y548D02*
X4125Y548D01*
X598Y547D02*
X622Y547D01*
X998Y547D02*
X1022Y547D01*
X1298Y547D02*
X1322Y547D01*
X1998Y547D02*
X2022Y547D01*
X2398Y547D02*
X2422Y547D01*
X2698Y547D02*
X2721Y547D01*
X3398Y547D02*
X3421Y547D01*
X3798Y547D02*
X3822Y547D01*
X4098Y547D02*
X4121Y547D01*
X604Y546D02*
X617Y546D01*
X1003Y546D02*
X1017Y546D01*
X1304Y546D02*
X1316Y546D01*
X2004Y546D02*
X2016Y546D01*
X2403Y546D02*
X2416Y546D01*
X2704Y546D02*
X2716Y546D01*
X3403Y546D02*
X3416Y546D01*
X3803Y546D02*
X3816Y546D01*
X4103Y546D02*
X4116Y546D01*
D02*
G04 End of Mask0*
M02*