G04 MADE WITH FRITZING*
G04 WWW.FRITZING.ORG*
G04 DOUBLE SIDED*
G04 HOLES PLATED*
G04 CONTOUR ON CENTER OF CONTOUR VECTOR*
%ASAXBY*%
%FSLAX23Y23*%
%MOIN*%
%OFA0B0*%
%SFA1.0B1.0*%
%ADD10C,0.010000*%
%ADD11R,0.001000X0.001000*%
%LNSILK0*%
G90*
G70*
G54D10*
X2661Y1397D02*
X3161Y1397D01*
D02*
X3161Y1397D02*
X3161Y1197D01*
D02*
X3161Y1197D02*
X2661Y1197D01*
D02*
X2661Y1197D02*
X2661Y1397D01*
D02*
X861Y347D02*
X1561Y347D01*
D02*
X1561Y347D02*
X1561Y147D01*
D02*
X1561Y147D02*
X861Y147D01*
D02*
X861Y147D02*
X861Y347D01*
D02*
X2026Y1455D02*
X1826Y1455D01*
D02*
X1826Y1455D02*
X1826Y1389D01*
D02*
X1826Y1389D02*
X2026Y1389D01*
D02*
X2026Y1389D02*
X2026Y1455D01*
D02*
X2026Y1330D02*
X1826Y1330D01*
D02*
X1826Y1330D02*
X1826Y1264D01*
D02*
X1826Y1264D02*
X2026Y1264D01*
D02*
X2026Y1264D02*
X2026Y1330D01*
D02*
X244Y231D02*
X244Y431D01*
D02*
X244Y431D02*
X178Y431D01*
D02*
X178Y431D02*
X178Y231D01*
D02*
X178Y231D02*
X244Y231D01*
D02*
X244Y706D02*
X244Y906D01*
D02*
X244Y906D02*
X178Y906D01*
D02*
X178Y906D02*
X178Y706D01*
D02*
X178Y706D02*
X244Y706D01*
D02*
X53Y412D02*
X53Y212D01*
D02*
X53Y212D02*
X119Y212D01*
D02*
X119Y212D02*
X119Y412D01*
D02*
X119Y412D02*
X53Y412D01*
D02*
X2370Y89D02*
X2570Y89D01*
D02*
X2570Y89D02*
X2570Y155D01*
D02*
X2570Y155D02*
X2370Y155D01*
D02*
X2370Y155D02*
X2370Y89D01*
D02*
X1795Y164D02*
X1995Y164D01*
D02*
X1995Y164D02*
X1995Y230D01*
D02*
X1995Y230D02*
X1795Y230D01*
D02*
X1795Y230D02*
X1795Y164D01*
D02*
X1976Y355D02*
X1776Y355D01*
D02*
X1776Y355D02*
X1776Y289D01*
D02*
X1776Y289D02*
X1976Y289D01*
D02*
X1976Y289D02*
X1976Y355D01*
D02*
X2551Y280D02*
X2351Y280D01*
D02*
X2351Y280D02*
X2351Y214D01*
D02*
X2351Y214D02*
X2551Y214D01*
D02*
X2551Y214D02*
X2551Y280D01*
D02*
X2370Y364D02*
X2570Y364D01*
D02*
X2570Y364D02*
X2570Y430D01*
D02*
X2570Y430D02*
X2370Y430D01*
D02*
X2370Y430D02*
X2370Y364D01*
G54D11*
X1427Y1465D02*
X1455Y1465D01*
X1474Y1465D02*
X1492Y1465D01*
X1426Y1464D02*
X1456Y1464D01*
X1473Y1464D02*
X1494Y1464D01*
X1425Y1463D02*
X1456Y1463D01*
X1473Y1463D02*
X1495Y1463D01*
X1424Y1462D02*
X1456Y1462D01*
X1473Y1462D02*
X1496Y1462D01*
X3663Y1462D02*
X3665Y1462D01*
X1423Y1461D02*
X1456Y1461D01*
X1473Y1461D02*
X1497Y1461D01*
X3659Y1461D02*
X3669Y1461D01*
X1423Y1460D02*
X1456Y1460D01*
X1474Y1460D02*
X1498Y1460D01*
X3657Y1460D02*
X3671Y1460D01*
X1423Y1459D02*
X1454Y1459D01*
X1475Y1459D02*
X1498Y1459D01*
X3655Y1459D02*
X3673Y1459D01*
X3733Y1459D02*
X3743Y1459D01*
X1423Y1458D02*
X1429Y1458D01*
X1491Y1458D02*
X1499Y1458D01*
X3653Y1458D02*
X3675Y1458D01*
X3730Y1458D02*
X3744Y1458D01*
X1423Y1457D02*
X1429Y1457D01*
X1492Y1457D02*
X1499Y1457D01*
X3651Y1457D02*
X3662Y1457D01*
X3666Y1457D02*
X3677Y1457D01*
X3728Y1457D02*
X3744Y1457D01*
X1423Y1456D02*
X1429Y1456D01*
X1493Y1456D02*
X1500Y1456D01*
X3649Y1456D02*
X3660Y1456D01*
X3668Y1456D02*
X3678Y1456D01*
X3725Y1456D02*
X3744Y1456D01*
X1303Y1455D02*
X1317Y1455D01*
X1423Y1455D02*
X1429Y1455D01*
X1493Y1455D02*
X1500Y1455D01*
X3648Y1455D02*
X3658Y1455D01*
X3670Y1455D02*
X3680Y1455D01*
X3722Y1455D02*
X3743Y1455D01*
X1299Y1454D02*
X1321Y1454D01*
X1423Y1454D02*
X1429Y1454D01*
X1494Y1454D02*
X1501Y1454D01*
X3647Y1454D02*
X3656Y1454D01*
X3672Y1454D02*
X3681Y1454D01*
X3720Y1454D02*
X3733Y1454D01*
X1297Y1453D02*
X1323Y1453D01*
X1423Y1453D02*
X1429Y1453D01*
X1494Y1453D02*
X1501Y1453D01*
X3646Y1453D02*
X3654Y1453D01*
X3674Y1453D02*
X3682Y1453D01*
X3717Y1453D02*
X3730Y1453D01*
X1295Y1452D02*
X1325Y1452D01*
X1423Y1452D02*
X1429Y1452D01*
X1495Y1452D02*
X1502Y1452D01*
X3646Y1452D02*
X3652Y1452D01*
X3676Y1452D02*
X3682Y1452D01*
X3715Y1452D02*
X3728Y1452D01*
X1293Y1451D02*
X1327Y1451D01*
X1423Y1451D02*
X1429Y1451D01*
X1495Y1451D02*
X1502Y1451D01*
X3645Y1451D02*
X3650Y1451D01*
X3678Y1451D02*
X3683Y1451D01*
X3712Y1451D02*
X3725Y1451D01*
X1292Y1450D02*
X1329Y1450D01*
X1423Y1450D02*
X1429Y1450D01*
X1496Y1450D02*
X1503Y1450D01*
X3645Y1450D02*
X3649Y1450D01*
X3679Y1450D02*
X3683Y1450D01*
X3710Y1450D02*
X3722Y1450D01*
X1290Y1449D02*
X1330Y1449D01*
X1423Y1449D02*
X1429Y1449D01*
X1496Y1449D02*
X1503Y1449D01*
X3645Y1449D02*
X3649Y1449D01*
X3679Y1449D02*
X3683Y1449D01*
X3707Y1449D02*
X3720Y1449D01*
X1291Y1448D02*
X1306Y1448D01*
X1314Y1448D02*
X1329Y1448D01*
X1423Y1448D02*
X1429Y1448D01*
X1497Y1448D02*
X1504Y1448D01*
X3645Y1448D02*
X3649Y1448D01*
X3679Y1448D02*
X3683Y1448D01*
X3706Y1448D02*
X3717Y1448D01*
X1292Y1447D02*
X1302Y1447D01*
X1318Y1447D02*
X1328Y1447D01*
X1423Y1447D02*
X1429Y1447D01*
X1497Y1447D02*
X1504Y1447D01*
X3645Y1447D02*
X3683Y1447D01*
X3706Y1447D02*
X3715Y1447D01*
X1293Y1446D02*
X1299Y1446D01*
X1321Y1446D02*
X1328Y1446D01*
X1423Y1446D02*
X1429Y1446D01*
X1498Y1446D02*
X1505Y1446D01*
X3645Y1446D02*
X3683Y1446D01*
X3706Y1446D02*
X3717Y1446D01*
X1293Y1445D02*
X1297Y1445D01*
X1323Y1445D02*
X1327Y1445D01*
X1423Y1445D02*
X1429Y1445D01*
X1498Y1445D02*
X1505Y1445D01*
X3645Y1445D02*
X3683Y1445D01*
X3707Y1445D02*
X3720Y1445D01*
X1294Y1444D02*
X1296Y1444D01*
X1324Y1444D02*
X1326Y1444D01*
X1423Y1444D02*
X1429Y1444D01*
X1499Y1444D02*
X1505Y1444D01*
X3645Y1444D02*
X3683Y1444D01*
X3709Y1444D02*
X3722Y1444D01*
X1326Y1443D02*
X1326Y1443D01*
X1423Y1443D02*
X1429Y1443D01*
X1499Y1443D02*
X1506Y1443D01*
X3645Y1443D02*
X3683Y1443D01*
X3712Y1443D02*
X3725Y1443D01*
X1423Y1442D02*
X1450Y1442D01*
X1500Y1442D02*
X1506Y1442D01*
X3645Y1442D02*
X3649Y1442D01*
X3679Y1442D02*
X3683Y1442D01*
X3714Y1442D02*
X3727Y1442D01*
X1423Y1441D02*
X1453Y1441D01*
X1500Y1441D02*
X1506Y1441D01*
X3645Y1441D02*
X3649Y1441D01*
X3679Y1441D02*
X3683Y1441D01*
X3717Y1441D02*
X3730Y1441D01*
X1423Y1440D02*
X1454Y1440D01*
X1500Y1440D02*
X1506Y1440D01*
X3645Y1440D02*
X3649Y1440D01*
X3679Y1440D02*
X3683Y1440D01*
X3719Y1440D02*
X3732Y1440D01*
X1424Y1439D02*
X1455Y1439D01*
X1500Y1439D02*
X1506Y1439D01*
X1895Y1439D02*
X1914Y1439D01*
X1929Y1439D02*
X1945Y1439D01*
X3645Y1439D02*
X3649Y1439D01*
X3679Y1439D02*
X3683Y1439D01*
X3722Y1439D02*
X3743Y1439D01*
X1424Y1438D02*
X1456Y1438D01*
X1500Y1438D02*
X1506Y1438D01*
X1895Y1438D02*
X1915Y1438D01*
X1928Y1438D02*
X1945Y1438D01*
X3646Y1438D02*
X3648Y1438D01*
X3680Y1438D02*
X3682Y1438D01*
X3725Y1438D02*
X3744Y1438D01*
X1425Y1437D02*
X1456Y1437D01*
X1500Y1437D02*
X1506Y1437D01*
X1895Y1437D02*
X1915Y1437D01*
X1927Y1437D02*
X1945Y1437D01*
X3727Y1437D02*
X3744Y1437D01*
X1427Y1436D02*
X1456Y1436D01*
X1500Y1436D02*
X1506Y1436D01*
X1895Y1436D02*
X1915Y1436D01*
X1926Y1436D02*
X1945Y1436D01*
X3730Y1436D02*
X3744Y1436D01*
X1450Y1435D02*
X1456Y1435D01*
X1500Y1435D02*
X1506Y1435D01*
X1895Y1435D02*
X1899Y1435D01*
X1912Y1435D02*
X1915Y1435D01*
X1926Y1435D02*
X1929Y1435D01*
X1942Y1435D02*
X1945Y1435D01*
X3732Y1435D02*
X3743Y1435D01*
X1450Y1434D02*
X1456Y1434D01*
X1499Y1434D02*
X1506Y1434D01*
X1895Y1434D02*
X1899Y1434D01*
X1913Y1434D02*
X1914Y1434D01*
X1925Y1434D02*
X1929Y1434D01*
X1942Y1434D02*
X1945Y1434D01*
X1450Y1433D02*
X1456Y1433D01*
X1499Y1433D02*
X1505Y1433D01*
X1895Y1433D02*
X1899Y1433D01*
X1925Y1433D02*
X1929Y1433D01*
X1942Y1433D02*
X1945Y1433D01*
X1450Y1432D02*
X1456Y1432D01*
X1498Y1432D02*
X1505Y1432D01*
X1895Y1432D02*
X1899Y1432D01*
X1925Y1432D02*
X1929Y1432D01*
X1942Y1432D02*
X1945Y1432D01*
X1450Y1431D02*
X1456Y1431D01*
X1498Y1431D02*
X1505Y1431D01*
X1895Y1431D02*
X1899Y1431D01*
X1925Y1431D02*
X1929Y1431D01*
X1942Y1431D02*
X1945Y1431D01*
X1450Y1430D02*
X1456Y1430D01*
X1497Y1430D02*
X1504Y1430D01*
X1895Y1430D02*
X1899Y1430D01*
X1925Y1430D02*
X1929Y1430D01*
X1942Y1430D02*
X1945Y1430D01*
X1450Y1429D02*
X1456Y1429D01*
X1497Y1429D02*
X1504Y1429D01*
X1895Y1429D02*
X1899Y1429D01*
X1926Y1429D02*
X1945Y1429D01*
X1450Y1428D02*
X1456Y1428D01*
X1496Y1428D02*
X1503Y1428D01*
X1895Y1428D02*
X1899Y1428D01*
X1926Y1428D02*
X1945Y1428D01*
X1450Y1427D02*
X1456Y1427D01*
X1496Y1427D02*
X1503Y1427D01*
X1778Y1427D02*
X1825Y1427D01*
X1895Y1427D02*
X1900Y1427D01*
X1927Y1427D02*
X1945Y1427D01*
X2026Y1427D02*
X2092Y1427D01*
X3591Y1427D02*
X3592Y1427D01*
X3625Y1427D02*
X3626Y1427D01*
X1450Y1426D02*
X1456Y1426D01*
X1495Y1426D02*
X1502Y1426D01*
X1778Y1426D02*
X1825Y1426D01*
X1896Y1426D02*
X1901Y1426D01*
X1928Y1426D02*
X1945Y1426D01*
X2026Y1426D02*
X2092Y1426D01*
X3590Y1426D02*
X3593Y1426D01*
X3624Y1426D02*
X3627Y1426D01*
X3645Y1426D02*
X3682Y1426D01*
X1450Y1425D02*
X1456Y1425D01*
X1495Y1425D02*
X1502Y1425D01*
X1778Y1425D02*
X1825Y1425D01*
X1896Y1425D02*
X1902Y1425D01*
X1930Y1425D02*
X1945Y1425D01*
X2026Y1425D02*
X2092Y1425D01*
X3590Y1425D02*
X3593Y1425D01*
X3623Y1425D02*
X3627Y1425D01*
X3645Y1425D02*
X3683Y1425D01*
X1450Y1424D02*
X1456Y1424D01*
X1494Y1424D02*
X1501Y1424D01*
X1778Y1424D02*
X1825Y1424D01*
X1898Y1424D02*
X1903Y1424D01*
X1934Y1424D02*
X1937Y1424D01*
X1942Y1424D02*
X1945Y1424D01*
X2026Y1424D02*
X2092Y1424D01*
X3535Y1424D02*
X3550Y1424D01*
X3589Y1424D02*
X3594Y1424D01*
X3623Y1424D02*
X3627Y1424D01*
X3645Y1424D02*
X3683Y1424D01*
X1450Y1423D02*
X1456Y1423D01*
X1494Y1423D02*
X1501Y1423D01*
X1778Y1423D02*
X1825Y1423D01*
X1899Y1423D02*
X1904Y1423D01*
X1933Y1423D02*
X1937Y1423D01*
X1942Y1423D02*
X1945Y1423D01*
X2026Y1423D02*
X2092Y1423D01*
X3534Y1423D02*
X3550Y1423D01*
X3589Y1423D02*
X3594Y1423D01*
X3623Y1423D02*
X3627Y1423D01*
X3645Y1423D02*
X3683Y1423D01*
X3709Y1423D02*
X3724Y1423D01*
X3741Y1423D02*
X3743Y1423D01*
X1450Y1422D02*
X1456Y1422D01*
X1493Y1422D02*
X1500Y1422D01*
X1778Y1422D02*
X1825Y1422D01*
X1900Y1422D02*
X1905Y1422D01*
X1932Y1422D02*
X1936Y1422D01*
X1942Y1422D02*
X1945Y1422D01*
X2026Y1422D02*
X2092Y1422D01*
X3534Y1422D02*
X3551Y1422D01*
X3589Y1422D02*
X3594Y1422D01*
X3623Y1422D02*
X3627Y1422D01*
X3645Y1422D02*
X3682Y1422D01*
X3708Y1422D02*
X3725Y1422D01*
X3740Y1422D02*
X3744Y1422D01*
X1450Y1421D02*
X1456Y1421D01*
X1493Y1421D02*
X1500Y1421D01*
X1778Y1421D02*
X1825Y1421D01*
X1901Y1421D02*
X1906Y1421D01*
X1932Y1421D02*
X1936Y1421D01*
X1942Y1421D02*
X1945Y1421D01*
X2026Y1421D02*
X2092Y1421D01*
X3478Y1421D02*
X3511Y1421D01*
X3534Y1421D02*
X3550Y1421D01*
X3589Y1421D02*
X3594Y1421D01*
X3623Y1421D02*
X3627Y1421D01*
X3645Y1421D02*
X3654Y1421D01*
X3707Y1421D02*
X3726Y1421D01*
X3740Y1421D02*
X3744Y1421D01*
X1450Y1420D02*
X1456Y1420D01*
X1492Y1420D02*
X1499Y1420D01*
X1778Y1420D02*
X1825Y1420D01*
X1902Y1420D02*
X1907Y1420D01*
X1931Y1420D02*
X1935Y1420D01*
X1942Y1420D02*
X1945Y1420D01*
X2026Y1420D02*
X2092Y1420D01*
X3477Y1420D02*
X3512Y1420D01*
X3534Y1420D02*
X3549Y1420D01*
X3589Y1420D02*
X3594Y1420D01*
X3623Y1420D02*
X3627Y1420D01*
X3645Y1420D02*
X3656Y1420D01*
X3706Y1420D02*
X3727Y1420D01*
X3740Y1420D02*
X3744Y1420D01*
X1450Y1419D02*
X1456Y1419D01*
X1491Y1419D02*
X1499Y1419D01*
X1778Y1419D02*
X1825Y1419D01*
X1903Y1419D02*
X1907Y1419D01*
X1931Y1419D02*
X1935Y1419D01*
X1942Y1419D02*
X1945Y1419D01*
X2026Y1419D02*
X2092Y1419D01*
X3476Y1419D02*
X3513Y1419D01*
X3534Y1419D02*
X3538Y1419D01*
X3589Y1419D02*
X3594Y1419D01*
X3623Y1419D02*
X3627Y1419D01*
X3647Y1419D02*
X3658Y1419D01*
X3706Y1419D02*
X3727Y1419D01*
X3740Y1419D02*
X3744Y1419D01*
X1425Y1418D02*
X1456Y1418D01*
X1475Y1418D02*
X1498Y1418D01*
X1778Y1418D02*
X1825Y1418D01*
X1904Y1418D02*
X1907Y1418D01*
X1930Y1418D02*
X1934Y1418D01*
X1942Y1418D02*
X1945Y1418D01*
X2026Y1418D02*
X2092Y1418D01*
X3476Y1418D02*
X3513Y1418D01*
X3534Y1418D02*
X3538Y1418D01*
X3589Y1418D02*
X3594Y1418D01*
X3623Y1418D02*
X3627Y1418D01*
X3649Y1418D02*
X3661Y1418D01*
X3706Y1418D02*
X3710Y1418D01*
X3723Y1418D02*
X3727Y1418D01*
X3740Y1418D02*
X3744Y1418D01*
X1424Y1417D02*
X1456Y1417D01*
X1474Y1417D02*
X1497Y1417D01*
X1904Y1417D02*
X1907Y1417D01*
X1929Y1417D02*
X1933Y1417D01*
X1942Y1417D02*
X1945Y1417D01*
X3476Y1417D02*
X3513Y1417D01*
X3534Y1417D02*
X3538Y1417D01*
X3589Y1417D02*
X3594Y1417D01*
X3623Y1417D02*
X3627Y1417D01*
X3651Y1417D02*
X3663Y1417D01*
X3706Y1417D02*
X3710Y1417D01*
X3723Y1417D02*
X3727Y1417D01*
X3740Y1417D02*
X3744Y1417D01*
X1423Y1416D02*
X1456Y1416D01*
X1473Y1416D02*
X1497Y1416D01*
X1904Y1416D02*
X1907Y1416D01*
X1929Y1416D02*
X1933Y1416D01*
X1942Y1416D02*
X1945Y1416D01*
X3476Y1416D02*
X3480Y1416D01*
X3509Y1416D02*
X3513Y1416D01*
X3534Y1416D02*
X3538Y1416D01*
X3590Y1416D02*
X3594Y1416D01*
X3623Y1416D02*
X3627Y1416D01*
X3654Y1416D02*
X3665Y1416D01*
X3706Y1416D02*
X3710Y1416D01*
X3723Y1416D02*
X3727Y1416D01*
X3740Y1416D02*
X3744Y1416D01*
X1423Y1415D02*
X1456Y1415D01*
X1473Y1415D02*
X1496Y1415D01*
X1904Y1415D02*
X1907Y1415D01*
X1928Y1415D02*
X1932Y1415D01*
X1942Y1415D02*
X1945Y1415D01*
X3476Y1415D02*
X3480Y1415D01*
X3509Y1415D02*
X3513Y1415D01*
X3534Y1415D02*
X3538Y1415D01*
X3590Y1415D02*
X3594Y1415D01*
X3623Y1415D02*
X3627Y1415D01*
X3656Y1415D02*
X3667Y1415D01*
X3706Y1415D02*
X3710Y1415D01*
X3723Y1415D02*
X3727Y1415D01*
X3740Y1415D02*
X3744Y1415D01*
X1423Y1414D02*
X1456Y1414D01*
X1473Y1414D02*
X1495Y1414D01*
X1904Y1414D02*
X1907Y1414D01*
X1928Y1414D02*
X1932Y1414D01*
X1942Y1414D02*
X1945Y1414D01*
X3476Y1414D02*
X3480Y1414D01*
X3509Y1414D02*
X3513Y1414D01*
X3534Y1414D02*
X3572Y1414D01*
X3590Y1414D02*
X3594Y1414D01*
X3623Y1414D02*
X3627Y1414D01*
X3658Y1414D02*
X3670Y1414D01*
X3706Y1414D02*
X3710Y1414D01*
X3723Y1414D02*
X3727Y1414D01*
X3740Y1414D02*
X3744Y1414D01*
X1424Y1413D02*
X1456Y1413D01*
X1474Y1413D02*
X1494Y1413D01*
X1904Y1413D02*
X1907Y1413D01*
X1927Y1413D02*
X1931Y1413D01*
X1942Y1413D02*
X1945Y1413D01*
X3476Y1413D02*
X3480Y1413D01*
X3509Y1413D02*
X3513Y1413D01*
X3534Y1413D02*
X3572Y1413D01*
X3590Y1413D02*
X3596Y1413D01*
X3621Y1413D02*
X3627Y1413D01*
X3660Y1413D02*
X3672Y1413D01*
X3706Y1413D02*
X3710Y1413D01*
X3723Y1413D02*
X3727Y1413D01*
X3740Y1413D02*
X3744Y1413D01*
X1425Y1412D02*
X1456Y1412D01*
X1475Y1412D02*
X1491Y1412D01*
X1904Y1412D02*
X1907Y1412D01*
X1927Y1412D02*
X1930Y1412D01*
X1942Y1412D02*
X1945Y1412D01*
X3476Y1412D02*
X3480Y1412D01*
X3509Y1412D02*
X3513Y1412D01*
X3534Y1412D02*
X3572Y1412D01*
X3591Y1412D02*
X3598Y1412D01*
X3619Y1412D02*
X3626Y1412D01*
X3663Y1412D02*
X3674Y1412D01*
X3706Y1412D02*
X3710Y1412D01*
X3723Y1412D02*
X3727Y1412D01*
X3740Y1412D02*
X3744Y1412D01*
X1904Y1411D02*
X1907Y1411D01*
X1926Y1411D02*
X1930Y1411D01*
X1942Y1411D02*
X1945Y1411D01*
X3476Y1411D02*
X3480Y1411D01*
X3509Y1411D02*
X3513Y1411D01*
X3534Y1411D02*
X3572Y1411D01*
X3591Y1411D02*
X3600Y1411D01*
X3617Y1411D02*
X3626Y1411D01*
X3665Y1411D02*
X3677Y1411D01*
X3706Y1411D02*
X3710Y1411D01*
X3723Y1411D02*
X3727Y1411D01*
X3740Y1411D02*
X3744Y1411D01*
X1904Y1410D02*
X1907Y1410D01*
X1925Y1410D02*
X1929Y1410D01*
X1942Y1410D02*
X1945Y1410D01*
X3476Y1410D02*
X3480Y1410D01*
X3509Y1410D02*
X3513Y1410D01*
X3534Y1410D02*
X3572Y1410D01*
X3592Y1410D02*
X3602Y1410D01*
X3615Y1410D02*
X3625Y1410D01*
X3667Y1410D02*
X3679Y1410D01*
X3706Y1410D02*
X3710Y1410D01*
X3723Y1410D02*
X3727Y1410D01*
X3740Y1410D02*
X3744Y1410D01*
X1904Y1409D02*
X1907Y1409D01*
X1925Y1409D02*
X1929Y1409D01*
X1942Y1409D02*
X1945Y1409D01*
X3476Y1409D02*
X3480Y1409D01*
X3509Y1409D02*
X3513Y1409D01*
X3534Y1409D02*
X3538Y1409D01*
X3568Y1409D02*
X3572Y1409D01*
X3594Y1409D02*
X3604Y1409D01*
X3613Y1409D02*
X3623Y1409D01*
X3670Y1409D02*
X3681Y1409D01*
X3706Y1409D02*
X3710Y1409D01*
X3723Y1409D02*
X3727Y1409D01*
X3740Y1409D02*
X3744Y1409D01*
X1904Y1408D02*
X1906Y1408D01*
X1926Y1408D02*
X1928Y1408D01*
X1942Y1408D02*
X1945Y1408D01*
X3476Y1408D02*
X3480Y1408D01*
X3509Y1408D02*
X3513Y1408D01*
X3534Y1408D02*
X3538Y1408D01*
X3568Y1408D02*
X3572Y1408D01*
X3596Y1408D02*
X3606Y1408D01*
X3611Y1408D02*
X3621Y1408D01*
X3672Y1408D02*
X3683Y1408D01*
X3706Y1408D02*
X3710Y1408D01*
X3723Y1408D02*
X3744Y1408D01*
X3476Y1407D02*
X3480Y1407D01*
X3509Y1407D02*
X3513Y1407D01*
X3534Y1407D02*
X3538Y1407D01*
X3568Y1407D02*
X3572Y1407D01*
X3597Y1407D02*
X3619Y1407D01*
X3674Y1407D02*
X3683Y1407D01*
X3706Y1407D02*
X3710Y1407D01*
X3723Y1407D02*
X3744Y1407D01*
X3476Y1406D02*
X3480Y1406D01*
X3509Y1406D02*
X3513Y1406D01*
X3534Y1406D02*
X3538Y1406D01*
X3568Y1406D02*
X3572Y1406D01*
X3599Y1406D02*
X3617Y1406D01*
X3646Y1406D02*
X3683Y1406D01*
X3706Y1406D02*
X3710Y1406D01*
X3723Y1406D02*
X3744Y1406D01*
X3476Y1405D02*
X3480Y1405D01*
X3509Y1405D02*
X3513Y1405D01*
X3534Y1405D02*
X3538Y1405D01*
X3568Y1405D02*
X3572Y1405D01*
X3601Y1405D02*
X3615Y1405D01*
X3645Y1405D02*
X3683Y1405D01*
X3706Y1405D02*
X3711Y1405D01*
X3723Y1405D02*
X3744Y1405D01*
X3476Y1404D02*
X3480Y1404D01*
X3509Y1404D02*
X3513Y1404D01*
X3534Y1404D02*
X3538Y1404D01*
X3568Y1404D02*
X3572Y1404D01*
X3603Y1404D02*
X3613Y1404D01*
X3645Y1404D02*
X3683Y1404D01*
X3707Y1404D02*
X3711Y1404D01*
X3723Y1404D02*
X3744Y1404D01*
X3476Y1403D02*
X3480Y1403D01*
X3509Y1403D02*
X3513Y1403D01*
X3534Y1403D02*
X3538Y1403D01*
X3568Y1403D02*
X3572Y1403D01*
X3606Y1403D02*
X3611Y1403D01*
X3645Y1403D02*
X3683Y1403D01*
X3707Y1403D02*
X3712Y1403D01*
X3476Y1402D02*
X3513Y1402D01*
X3534Y1402D02*
X3538Y1402D01*
X3568Y1402D02*
X3572Y1402D01*
X3646Y1402D02*
X3683Y1402D01*
X3708Y1402D02*
X3712Y1402D01*
X1294Y1401D02*
X1295Y1401D01*
X1325Y1401D02*
X1326Y1401D01*
X3476Y1401D02*
X3513Y1401D01*
X3534Y1401D02*
X3537Y1401D01*
X3568Y1401D02*
X3571Y1401D01*
X3708Y1401D02*
X3712Y1401D01*
X1294Y1400D02*
X1296Y1400D01*
X1324Y1400D02*
X1326Y1400D01*
X3476Y1400D02*
X3513Y1400D01*
X3709Y1400D02*
X3712Y1400D01*
X1293Y1399D02*
X1298Y1399D01*
X1322Y1399D02*
X1327Y1399D01*
X3477Y1399D02*
X3512Y1399D01*
X3710Y1399D02*
X3711Y1399D01*
X1292Y1398D02*
X1300Y1398D01*
X1320Y1398D02*
X1328Y1398D01*
X2693Y1398D02*
X2693Y1398D01*
X3478Y1398D02*
X3511Y1398D01*
X1292Y1397D02*
X1303Y1397D01*
X1318Y1397D02*
X1329Y1397D01*
X2692Y1397D02*
X2694Y1397D01*
X1291Y1396D02*
X1308Y1396D01*
X1312Y1396D02*
X1330Y1396D01*
X2691Y1396D02*
X2695Y1396D01*
X1291Y1395D02*
X1330Y1395D01*
X2690Y1395D02*
X2696Y1395D01*
X4818Y1395D02*
X4840Y1395D01*
X1292Y1394D02*
X1328Y1394D01*
X2689Y1394D02*
X2695Y1394D01*
X4815Y1394D02*
X4843Y1394D01*
X1293Y1393D02*
X1327Y1393D01*
X2688Y1393D02*
X2694Y1393D01*
X4814Y1393D02*
X4844Y1393D01*
X1295Y1392D02*
X1325Y1392D01*
X2687Y1392D02*
X2693Y1392D01*
X4814Y1392D02*
X4845Y1392D01*
X1297Y1391D02*
X1323Y1391D01*
X2686Y1391D02*
X2692Y1391D01*
X3589Y1391D02*
X3626Y1391D01*
X4813Y1391D02*
X4845Y1391D01*
X1300Y1390D02*
X1320Y1390D01*
X2685Y1390D02*
X2691Y1390D01*
X3589Y1390D02*
X3627Y1390D01*
X3650Y1390D02*
X3662Y1390D01*
X3680Y1390D02*
X3682Y1390D01*
X4813Y1390D02*
X4845Y1390D01*
X1304Y1389D02*
X1316Y1389D01*
X2684Y1389D02*
X2690Y1389D01*
X3589Y1389D02*
X3627Y1389D01*
X3648Y1389D02*
X3662Y1389D01*
X3679Y1389D02*
X3683Y1389D01*
X4813Y1389D02*
X4845Y1389D01*
X2683Y1388D02*
X2689Y1388D01*
X3535Y1388D02*
X3539Y1388D01*
X3589Y1388D02*
X3627Y1388D01*
X3647Y1388D02*
X3662Y1388D01*
X3679Y1388D02*
X3683Y1388D01*
X4813Y1388D02*
X4845Y1388D01*
X2682Y1387D02*
X2688Y1387D01*
X3534Y1387D02*
X3542Y1387D01*
X3589Y1387D02*
X3626Y1387D01*
X3646Y1387D02*
X3662Y1387D01*
X3679Y1387D02*
X3683Y1387D01*
X3724Y1387D02*
X3726Y1387D01*
X4813Y1387D02*
X4845Y1387D01*
X2606Y1386D02*
X2620Y1386D01*
X2681Y1386D02*
X2687Y1386D01*
X3534Y1386D02*
X3546Y1386D01*
X3589Y1386D02*
X3599Y1386D01*
X3646Y1386D02*
X3662Y1386D01*
X3679Y1386D02*
X3683Y1386D01*
X3723Y1386D02*
X3727Y1386D01*
X4813Y1386D02*
X4845Y1386D01*
X2605Y1385D02*
X2622Y1385D01*
X2680Y1385D02*
X2686Y1385D01*
X3476Y1385D02*
X3481Y1385D01*
X3534Y1385D02*
X3549Y1385D01*
X3590Y1385D02*
X3601Y1385D01*
X3645Y1385D02*
X3650Y1385D01*
X3658Y1385D02*
X3662Y1385D01*
X3679Y1385D02*
X3683Y1385D01*
X3723Y1385D02*
X3727Y1385D01*
X4813Y1385D02*
X4822Y1385D01*
X4837Y1385D02*
X4845Y1385D01*
X2605Y1384D02*
X2623Y1384D01*
X2679Y1384D02*
X2685Y1384D01*
X3476Y1384D02*
X3484Y1384D01*
X3536Y1384D02*
X3553Y1384D01*
X3592Y1384D02*
X3603Y1384D01*
X3645Y1384D02*
X3649Y1384D01*
X3658Y1384D02*
X3662Y1384D01*
X3679Y1384D02*
X3683Y1384D01*
X3723Y1384D02*
X3727Y1384D01*
X4813Y1384D02*
X4822Y1384D01*
X4837Y1384D02*
X4845Y1384D01*
X2605Y1383D02*
X2623Y1383D01*
X2678Y1383D02*
X2684Y1383D01*
X3476Y1383D02*
X3488Y1383D01*
X3539Y1383D02*
X3556Y1383D01*
X3594Y1383D02*
X3605Y1383D01*
X3645Y1383D02*
X3649Y1383D01*
X3658Y1383D02*
X3662Y1383D01*
X3679Y1383D02*
X3683Y1383D01*
X3723Y1383D02*
X3727Y1383D01*
X4813Y1383D02*
X4822Y1383D01*
X4837Y1383D02*
X4845Y1383D01*
X2605Y1382D02*
X2623Y1382D01*
X2677Y1382D02*
X2683Y1382D01*
X3476Y1382D02*
X3491Y1382D01*
X3542Y1382D02*
X3559Y1382D01*
X3596Y1382D02*
X3608Y1382D01*
X3645Y1382D02*
X3649Y1382D01*
X3658Y1382D02*
X3662Y1382D01*
X3679Y1382D02*
X3683Y1382D01*
X3723Y1382D02*
X3727Y1382D01*
X4813Y1382D02*
X4822Y1382D01*
X4837Y1382D02*
X4845Y1382D01*
X2605Y1381D02*
X2622Y1381D01*
X2676Y1381D02*
X2681Y1381D01*
X3478Y1381D02*
X3495Y1381D01*
X3542Y1381D02*
X3563Y1381D01*
X3598Y1381D02*
X3610Y1381D01*
X3645Y1381D02*
X3649Y1381D01*
X3658Y1381D02*
X3662Y1381D01*
X3679Y1381D02*
X3683Y1381D01*
X3723Y1381D02*
X3727Y1381D01*
X4813Y1381D02*
X4822Y1381D01*
X4837Y1381D02*
X4845Y1381D01*
X2605Y1380D02*
X2621Y1380D01*
X2675Y1380D02*
X2680Y1380D01*
X3481Y1380D02*
X3498Y1380D01*
X3542Y1380D02*
X3546Y1380D01*
X3549Y1380D02*
X3566Y1380D01*
X3601Y1380D02*
X3612Y1380D01*
X3645Y1380D02*
X3649Y1380D01*
X3658Y1380D02*
X3662Y1380D01*
X3679Y1380D02*
X3683Y1380D01*
X3723Y1380D02*
X3727Y1380D01*
X4813Y1380D02*
X4822Y1380D01*
X4837Y1380D02*
X4845Y1380D01*
X2605Y1379D02*
X2611Y1379D01*
X2674Y1379D02*
X2679Y1379D01*
X3484Y1379D02*
X3501Y1379D01*
X3542Y1379D02*
X3546Y1379D01*
X3553Y1379D02*
X3570Y1379D01*
X3603Y1379D02*
X3615Y1379D01*
X3645Y1379D02*
X3649Y1379D01*
X3658Y1379D02*
X3661Y1379D01*
X3678Y1379D02*
X3683Y1379D01*
X3723Y1379D02*
X3727Y1379D01*
X4813Y1379D02*
X4822Y1379D01*
X4837Y1379D02*
X4845Y1379D01*
X2605Y1378D02*
X2611Y1378D01*
X2673Y1378D02*
X2678Y1378D01*
X3484Y1378D02*
X3505Y1378D01*
X3542Y1378D02*
X3546Y1378D01*
X3556Y1378D02*
X3571Y1378D01*
X3605Y1378D02*
X3617Y1378D01*
X3645Y1378D02*
X3649Y1378D01*
X3677Y1378D02*
X3682Y1378D01*
X3723Y1378D02*
X3727Y1378D01*
X4813Y1378D02*
X4822Y1378D01*
X4837Y1378D02*
X4845Y1378D01*
X2605Y1377D02*
X2611Y1377D01*
X2672Y1377D02*
X2677Y1377D01*
X3484Y1377D02*
X3488Y1377D01*
X3491Y1377D02*
X3508Y1377D01*
X3542Y1377D02*
X3546Y1377D01*
X3559Y1377D02*
X3572Y1377D01*
X3608Y1377D02*
X3619Y1377D01*
X3645Y1377D02*
X3649Y1377D01*
X3676Y1377D02*
X3682Y1377D01*
X3714Y1377D02*
X3736Y1377D01*
X4813Y1377D02*
X4822Y1377D01*
X4837Y1377D02*
X4845Y1377D01*
X2605Y1376D02*
X2611Y1376D01*
X2671Y1376D02*
X2676Y1376D01*
X3484Y1376D02*
X3488Y1376D01*
X3495Y1376D02*
X3512Y1376D01*
X3542Y1376D02*
X3546Y1376D01*
X3560Y1376D02*
X3572Y1376D01*
X3610Y1376D02*
X3621Y1376D01*
X3645Y1376D02*
X3649Y1376D01*
X3675Y1376D02*
X3681Y1376D01*
X3713Y1376D02*
X3737Y1376D01*
X4813Y1376D02*
X4822Y1376D01*
X4837Y1376D02*
X4845Y1376D01*
X2605Y1375D02*
X2611Y1375D01*
X2670Y1375D02*
X2675Y1375D01*
X3484Y1375D02*
X3488Y1375D01*
X3498Y1375D02*
X3513Y1375D01*
X3542Y1375D02*
X3546Y1375D01*
X3556Y1375D02*
X3571Y1375D01*
X3612Y1375D02*
X3624Y1375D01*
X3645Y1375D02*
X3649Y1375D01*
X3673Y1375D02*
X3680Y1375D01*
X3713Y1375D02*
X3737Y1375D01*
X4813Y1375D02*
X4822Y1375D01*
X4837Y1375D02*
X4845Y1375D01*
X2605Y1374D02*
X2611Y1374D01*
X2669Y1374D02*
X2675Y1374D01*
X3484Y1374D02*
X3488Y1374D01*
X3502Y1374D02*
X3513Y1374D01*
X3542Y1374D02*
X3546Y1374D01*
X3553Y1374D02*
X3570Y1374D01*
X3614Y1374D02*
X3626Y1374D01*
X3645Y1374D02*
X3649Y1374D01*
X3672Y1374D02*
X3679Y1374D01*
X3714Y1374D02*
X3737Y1374D01*
X4813Y1374D02*
X4822Y1374D01*
X4837Y1374D02*
X4845Y1374D01*
X2605Y1373D02*
X2611Y1373D01*
X2668Y1373D02*
X2674Y1373D01*
X3484Y1373D02*
X3488Y1373D01*
X3501Y1373D02*
X3513Y1373D01*
X3542Y1373D02*
X3546Y1373D01*
X3549Y1373D02*
X3566Y1373D01*
X3617Y1373D02*
X3627Y1373D01*
X3645Y1373D02*
X3649Y1373D01*
X3671Y1373D02*
X3678Y1373D01*
X3715Y1373D02*
X3735Y1373D01*
X4813Y1373D02*
X4822Y1373D01*
X4837Y1373D02*
X4845Y1373D01*
X2605Y1372D02*
X2611Y1372D01*
X2667Y1372D02*
X2673Y1372D01*
X3484Y1372D02*
X3488Y1372D01*
X3497Y1372D02*
X3513Y1372D01*
X3542Y1372D02*
X3563Y1372D01*
X3618Y1372D02*
X3627Y1372D01*
X3645Y1372D02*
X3650Y1372D01*
X3669Y1372D02*
X3677Y1372D01*
X3723Y1372D02*
X3727Y1372D01*
X4813Y1372D02*
X4822Y1372D01*
X4837Y1372D02*
X4845Y1372D01*
X2605Y1371D02*
X2611Y1371D01*
X2666Y1371D02*
X2672Y1371D01*
X3484Y1371D02*
X3488Y1371D01*
X3494Y1371D02*
X3511Y1371D01*
X3542Y1371D02*
X3559Y1371D01*
X3590Y1371D02*
X3627Y1371D01*
X3645Y1371D02*
X3651Y1371D01*
X3667Y1371D02*
X3675Y1371D01*
X3723Y1371D02*
X3727Y1371D01*
X4813Y1371D02*
X4822Y1371D01*
X4837Y1371D02*
X4845Y1371D01*
X2605Y1370D02*
X2611Y1370D01*
X2665Y1370D02*
X2671Y1370D01*
X3484Y1370D02*
X3488Y1370D01*
X3491Y1370D02*
X3508Y1370D01*
X3539Y1370D02*
X3556Y1370D01*
X3590Y1370D02*
X3627Y1370D01*
X3646Y1370D02*
X3674Y1370D01*
X3723Y1370D02*
X3727Y1370D01*
X4813Y1370D02*
X4822Y1370D01*
X4837Y1370D02*
X4845Y1370D01*
X2605Y1369D02*
X2611Y1369D01*
X2664Y1369D02*
X2670Y1369D01*
X3484Y1369D02*
X3504Y1369D01*
X3536Y1369D02*
X3553Y1369D01*
X3590Y1369D02*
X3627Y1369D01*
X3646Y1369D02*
X3673Y1369D01*
X3723Y1369D02*
X3727Y1369D01*
X4813Y1369D02*
X4822Y1369D01*
X4837Y1369D02*
X4845Y1369D01*
X2605Y1368D02*
X2611Y1368D01*
X2663Y1368D02*
X2669Y1368D01*
X3484Y1368D02*
X3501Y1368D01*
X3534Y1368D02*
X3549Y1368D01*
X3590Y1368D02*
X3627Y1368D01*
X3647Y1368D02*
X3671Y1368D01*
X3723Y1368D02*
X3727Y1368D01*
X4813Y1368D02*
X4822Y1368D01*
X4837Y1368D02*
X4845Y1368D01*
X2605Y1367D02*
X2611Y1367D01*
X2662Y1367D02*
X2668Y1367D01*
X3480Y1367D02*
X3497Y1367D01*
X3534Y1367D02*
X3546Y1367D01*
X3591Y1367D02*
X3627Y1367D01*
X3648Y1367D02*
X3670Y1367D01*
X3723Y1367D02*
X3727Y1367D01*
X4813Y1367D02*
X4822Y1367D01*
X4837Y1367D02*
X4845Y1367D01*
X2605Y1366D02*
X2611Y1366D01*
X2661Y1366D02*
X2667Y1366D01*
X3477Y1366D02*
X3494Y1366D01*
X3534Y1366D02*
X3542Y1366D01*
X3651Y1366D02*
X3667Y1366D01*
X3723Y1366D02*
X3727Y1366D01*
X4813Y1366D02*
X4822Y1366D01*
X4837Y1366D02*
X4845Y1366D01*
X2605Y1365D02*
X2611Y1365D01*
X2660Y1365D02*
X2666Y1365D01*
X3476Y1365D02*
X3490Y1365D01*
X3535Y1365D02*
X3539Y1365D01*
X3723Y1365D02*
X3727Y1365D01*
X4813Y1365D02*
X4822Y1365D01*
X4837Y1365D02*
X4845Y1365D01*
X2605Y1364D02*
X2611Y1364D01*
X2659Y1364D02*
X2665Y1364D01*
X3476Y1364D02*
X3487Y1364D01*
X3724Y1364D02*
X3727Y1364D01*
X4813Y1364D02*
X4822Y1364D01*
X4837Y1364D02*
X4845Y1364D01*
X2605Y1363D02*
X2611Y1363D01*
X2659Y1363D02*
X2664Y1363D01*
X3476Y1363D02*
X3484Y1363D01*
X3725Y1363D02*
X3725Y1363D01*
X4813Y1363D02*
X4822Y1363D01*
X4837Y1363D02*
X4845Y1363D01*
X2605Y1362D02*
X2611Y1362D01*
X2660Y1362D02*
X2663Y1362D01*
X3476Y1362D02*
X3480Y1362D01*
X4813Y1362D02*
X4822Y1362D01*
X4837Y1362D02*
X4845Y1362D01*
X4879Y1362D02*
X4882Y1362D01*
X2605Y1361D02*
X2611Y1361D01*
X2661Y1361D02*
X2662Y1361D01*
X4813Y1361D02*
X4822Y1361D01*
X4837Y1361D02*
X4845Y1361D01*
X4878Y1361D02*
X4884Y1361D01*
X2605Y1360D02*
X2611Y1360D01*
X4813Y1360D02*
X4822Y1360D01*
X4837Y1360D02*
X4845Y1360D01*
X4877Y1360D02*
X4884Y1360D01*
X2595Y1359D02*
X2596Y1359D01*
X2605Y1359D02*
X2611Y1359D01*
X4813Y1359D02*
X4822Y1359D01*
X4837Y1359D02*
X4845Y1359D01*
X4877Y1359D02*
X4885Y1359D01*
X2593Y1358D02*
X2597Y1358D01*
X2605Y1358D02*
X2611Y1358D01*
X4813Y1358D02*
X4822Y1358D01*
X4837Y1358D02*
X4846Y1358D01*
X4877Y1358D02*
X4885Y1358D01*
X2593Y1357D02*
X2598Y1357D01*
X2605Y1357D02*
X2611Y1357D01*
X4813Y1357D02*
X4885Y1357D01*
X2593Y1356D02*
X2598Y1356D01*
X2605Y1356D02*
X2611Y1356D01*
X4813Y1356D02*
X4885Y1356D01*
X2593Y1355D02*
X2598Y1355D01*
X2605Y1355D02*
X2611Y1355D01*
X4813Y1355D02*
X4885Y1355D01*
X2593Y1354D02*
X2598Y1354D01*
X2605Y1354D02*
X2611Y1354D01*
X4813Y1354D02*
X4885Y1354D01*
X2593Y1353D02*
X2598Y1353D01*
X2605Y1353D02*
X2611Y1353D01*
X4813Y1353D02*
X4885Y1353D01*
X2593Y1352D02*
X2598Y1352D01*
X2605Y1352D02*
X2611Y1352D01*
X4813Y1352D02*
X4885Y1352D01*
X2593Y1351D02*
X2598Y1351D01*
X2605Y1351D02*
X2611Y1351D01*
X4814Y1351D02*
X4885Y1351D01*
X2593Y1350D02*
X2598Y1350D01*
X2605Y1350D02*
X2611Y1350D01*
X4815Y1350D02*
X4884Y1350D01*
X2593Y1349D02*
X2598Y1349D01*
X2605Y1349D02*
X2611Y1349D01*
X4816Y1349D02*
X4882Y1349D01*
X2593Y1348D02*
X2598Y1348D01*
X2605Y1348D02*
X2611Y1348D01*
X2593Y1347D02*
X2598Y1347D01*
X2605Y1347D02*
X2611Y1347D01*
X2593Y1346D02*
X2598Y1346D01*
X2605Y1346D02*
X2611Y1346D01*
X2593Y1345D02*
X2598Y1345D01*
X2605Y1345D02*
X2611Y1345D01*
X2593Y1344D02*
X2598Y1344D01*
X2605Y1344D02*
X2611Y1344D01*
X2593Y1343D02*
X2621Y1343D01*
X2593Y1342D02*
X2622Y1342D01*
X2593Y1341D02*
X2623Y1341D01*
X1429Y1340D02*
X1448Y1340D01*
X1467Y1340D02*
X1485Y1340D01*
X2593Y1340D02*
X2623Y1340D01*
X1429Y1339D02*
X1449Y1339D01*
X1466Y1339D02*
X1487Y1339D01*
X2593Y1339D02*
X2623Y1339D01*
X1429Y1338D02*
X1449Y1338D01*
X1466Y1338D02*
X1488Y1338D01*
X2594Y1338D02*
X2622Y1338D01*
X1429Y1337D02*
X1449Y1337D01*
X1466Y1337D02*
X1489Y1337D01*
X2596Y1337D02*
X2620Y1337D01*
X1429Y1336D02*
X1449Y1336D01*
X1466Y1336D02*
X1490Y1336D01*
X1429Y1335D02*
X1448Y1335D01*
X1466Y1335D02*
X1490Y1335D01*
X1429Y1334D02*
X1447Y1334D01*
X1468Y1334D02*
X1491Y1334D01*
X1429Y1333D02*
X1435Y1333D01*
X1484Y1333D02*
X1491Y1333D01*
X1429Y1332D02*
X1435Y1332D01*
X1485Y1332D02*
X1492Y1332D01*
X1429Y1331D02*
X1435Y1331D01*
X1485Y1331D02*
X1492Y1331D01*
X1303Y1330D02*
X1317Y1330D01*
X1429Y1330D02*
X1435Y1330D01*
X1486Y1330D02*
X1493Y1330D01*
X1299Y1329D02*
X1321Y1329D01*
X1429Y1329D02*
X1435Y1329D01*
X1486Y1329D02*
X1493Y1329D01*
X1297Y1328D02*
X1323Y1328D01*
X1429Y1328D02*
X1435Y1328D01*
X1487Y1328D02*
X1494Y1328D01*
X1295Y1327D02*
X1325Y1327D01*
X1429Y1327D02*
X1435Y1327D01*
X1487Y1327D02*
X1494Y1327D01*
X4823Y1327D02*
X4876Y1327D01*
X1293Y1326D02*
X1327Y1326D01*
X1429Y1326D02*
X1435Y1326D01*
X1488Y1326D02*
X1495Y1326D01*
X4818Y1326D02*
X4880Y1326D01*
X1292Y1325D02*
X1329Y1325D01*
X1429Y1325D02*
X1435Y1325D01*
X1488Y1325D02*
X1495Y1325D01*
X4817Y1325D02*
X4881Y1325D01*
X1290Y1324D02*
X1330Y1324D01*
X1429Y1324D02*
X1435Y1324D01*
X1489Y1324D02*
X1496Y1324D01*
X4816Y1324D02*
X4882Y1324D01*
X1291Y1323D02*
X1306Y1323D01*
X1314Y1323D02*
X1329Y1323D01*
X1429Y1323D02*
X1435Y1323D01*
X1489Y1323D02*
X1496Y1323D01*
X4815Y1323D02*
X4883Y1323D01*
X1292Y1322D02*
X1302Y1322D01*
X1318Y1322D02*
X1328Y1322D01*
X1429Y1322D02*
X1435Y1322D01*
X1490Y1322D02*
X1497Y1322D01*
X4814Y1322D02*
X4884Y1322D01*
X1292Y1321D02*
X1299Y1321D01*
X1321Y1321D02*
X1328Y1321D01*
X1429Y1321D02*
X1435Y1321D01*
X1490Y1321D02*
X1497Y1321D01*
X4814Y1321D02*
X4884Y1321D01*
X1293Y1320D02*
X1297Y1320D01*
X1323Y1320D02*
X1327Y1320D01*
X1429Y1320D02*
X1435Y1320D01*
X1491Y1320D02*
X1498Y1320D01*
X4814Y1320D02*
X4885Y1320D01*
X1294Y1319D02*
X1296Y1319D01*
X1324Y1319D02*
X1326Y1319D01*
X1429Y1319D02*
X1435Y1319D01*
X1491Y1319D02*
X1498Y1319D01*
X4813Y1319D02*
X4885Y1319D01*
X1294Y1318D02*
X1294Y1318D01*
X1326Y1318D02*
X1326Y1318D01*
X1429Y1318D02*
X1435Y1318D01*
X1492Y1318D02*
X1498Y1318D01*
X4813Y1318D02*
X4885Y1318D01*
X1429Y1317D02*
X1435Y1317D01*
X1492Y1317D02*
X1499Y1317D01*
X4813Y1317D02*
X4822Y1317D01*
X4877Y1317D02*
X4885Y1317D01*
X1429Y1316D02*
X1435Y1316D01*
X1493Y1316D02*
X1499Y1316D01*
X4813Y1316D02*
X4822Y1316D01*
X4877Y1316D02*
X4885Y1316D01*
X1429Y1315D02*
X1435Y1315D01*
X1493Y1315D02*
X1499Y1315D01*
X4813Y1315D02*
X4822Y1315D01*
X4877Y1315D02*
X4885Y1315D01*
X1429Y1314D02*
X1435Y1314D01*
X1493Y1314D02*
X1499Y1314D01*
X4813Y1314D02*
X4822Y1314D01*
X4877Y1314D02*
X4885Y1314D01*
X1429Y1313D02*
X1435Y1313D01*
X1493Y1313D02*
X1499Y1313D01*
X4813Y1313D02*
X4822Y1313D01*
X4877Y1313D02*
X4885Y1313D01*
X1429Y1312D02*
X1435Y1312D01*
X1493Y1312D02*
X1499Y1312D01*
X4813Y1312D02*
X4822Y1312D01*
X4877Y1312D02*
X4885Y1312D01*
X1418Y1311D02*
X1419Y1311D01*
X1429Y1311D02*
X1435Y1311D01*
X1493Y1311D02*
X1499Y1311D01*
X4813Y1311D02*
X4822Y1311D01*
X4877Y1311D02*
X4885Y1311D01*
X1416Y1310D02*
X1421Y1310D01*
X1429Y1310D02*
X1435Y1310D01*
X1492Y1310D02*
X1499Y1310D01*
X1904Y1310D02*
X1915Y1310D01*
X1929Y1310D02*
X1945Y1310D01*
X4813Y1310D02*
X4822Y1310D01*
X4877Y1310D02*
X4885Y1310D01*
X1416Y1309D02*
X1421Y1309D01*
X1429Y1309D02*
X1435Y1309D01*
X1492Y1309D02*
X1498Y1309D01*
X1904Y1309D02*
X1915Y1309D01*
X1927Y1309D02*
X1945Y1309D01*
X4813Y1309D02*
X4822Y1309D01*
X4877Y1309D02*
X4885Y1309D01*
X1416Y1308D02*
X1421Y1308D01*
X1429Y1308D02*
X1435Y1308D01*
X1491Y1308D02*
X1498Y1308D01*
X1904Y1308D02*
X1915Y1308D01*
X1926Y1308D02*
X1945Y1308D01*
X4813Y1308D02*
X4822Y1308D01*
X4877Y1308D02*
X4885Y1308D01*
X1416Y1307D02*
X1422Y1307D01*
X1429Y1307D02*
X1435Y1307D01*
X1491Y1307D02*
X1498Y1307D01*
X1904Y1307D02*
X1914Y1307D01*
X1926Y1307D02*
X1945Y1307D01*
X4813Y1307D02*
X4822Y1307D01*
X4877Y1307D02*
X4885Y1307D01*
X1416Y1306D02*
X1422Y1306D01*
X1429Y1306D02*
X1435Y1306D01*
X1490Y1306D02*
X1497Y1306D01*
X1904Y1306D02*
X1907Y1306D01*
X1925Y1306D02*
X1929Y1306D01*
X1942Y1306D02*
X1945Y1306D01*
X4813Y1306D02*
X4822Y1306D01*
X4877Y1306D02*
X4885Y1306D01*
X1416Y1305D02*
X1422Y1305D01*
X1429Y1305D02*
X1435Y1305D01*
X1490Y1305D02*
X1497Y1305D01*
X1904Y1305D02*
X1907Y1305D01*
X1925Y1305D02*
X1929Y1305D01*
X1942Y1305D02*
X1945Y1305D01*
X4813Y1305D02*
X4822Y1305D01*
X4877Y1305D02*
X4885Y1305D01*
X1416Y1304D02*
X1422Y1304D01*
X1429Y1304D02*
X1435Y1304D01*
X1489Y1304D02*
X1496Y1304D01*
X1904Y1304D02*
X1907Y1304D01*
X1925Y1304D02*
X1929Y1304D01*
X1942Y1304D02*
X1945Y1304D01*
X4813Y1304D02*
X4822Y1304D01*
X4877Y1304D02*
X4885Y1304D01*
X1416Y1303D02*
X1422Y1303D01*
X1429Y1303D02*
X1435Y1303D01*
X1489Y1303D02*
X1496Y1303D01*
X1904Y1303D02*
X1907Y1303D01*
X1925Y1303D02*
X1929Y1303D01*
X1942Y1303D02*
X1945Y1303D01*
X4813Y1303D02*
X4822Y1303D01*
X4877Y1303D02*
X4885Y1303D01*
X1416Y1302D02*
X1422Y1302D01*
X1429Y1302D02*
X1435Y1302D01*
X1488Y1302D02*
X1495Y1302D01*
X1778Y1302D02*
X1825Y1302D01*
X1904Y1302D02*
X1907Y1302D01*
X1925Y1302D02*
X1929Y1302D01*
X1942Y1302D02*
X1945Y1302D01*
X2026Y1302D02*
X2092Y1302D01*
X3709Y1302D02*
X3745Y1302D01*
X4813Y1302D02*
X4822Y1302D01*
X4877Y1302D02*
X4885Y1302D01*
X1416Y1301D02*
X1422Y1301D01*
X1429Y1301D02*
X1435Y1301D01*
X1488Y1301D02*
X1495Y1301D01*
X1778Y1301D02*
X1825Y1301D01*
X1904Y1301D02*
X1907Y1301D01*
X1925Y1301D02*
X1929Y1301D01*
X1942Y1301D02*
X1945Y1301D01*
X2026Y1301D02*
X2092Y1301D01*
X3597Y1301D02*
X3597Y1301D01*
X3631Y1301D02*
X3631Y1301D01*
X3709Y1301D02*
X3746Y1301D01*
X4813Y1301D02*
X4822Y1301D01*
X4877Y1301D02*
X4885Y1301D01*
X1416Y1300D02*
X1422Y1300D01*
X1429Y1300D02*
X1435Y1300D01*
X1487Y1300D02*
X1494Y1300D01*
X1778Y1300D02*
X1825Y1300D01*
X1904Y1300D02*
X1907Y1300D01*
X1926Y1300D02*
X1945Y1300D01*
X2026Y1300D02*
X2092Y1300D01*
X3596Y1300D02*
X3599Y1300D01*
X3629Y1300D02*
X3632Y1300D01*
X3709Y1300D02*
X3747Y1300D01*
X4813Y1300D02*
X4822Y1300D01*
X4877Y1300D02*
X4885Y1300D01*
X1416Y1299D02*
X1422Y1299D01*
X1429Y1299D02*
X1435Y1299D01*
X1487Y1299D02*
X1494Y1299D01*
X1778Y1299D02*
X1825Y1299D01*
X1904Y1299D02*
X1907Y1299D01*
X1926Y1299D02*
X1945Y1299D01*
X2026Y1299D02*
X2092Y1299D01*
X3595Y1299D02*
X3599Y1299D01*
X3628Y1299D02*
X3633Y1299D01*
X3658Y1299D02*
X3659Y1299D01*
X3685Y1299D02*
X3686Y1299D01*
X3709Y1299D02*
X3747Y1299D01*
X4813Y1299D02*
X4822Y1299D01*
X4877Y1299D02*
X4885Y1299D01*
X1416Y1298D02*
X1422Y1298D01*
X1429Y1298D02*
X1435Y1298D01*
X1486Y1298D02*
X1493Y1298D01*
X1778Y1298D02*
X1825Y1298D01*
X1904Y1298D02*
X1907Y1298D01*
X1927Y1298D02*
X1945Y1298D01*
X2026Y1298D02*
X2092Y1298D01*
X3507Y1298D02*
X3513Y1298D01*
X3595Y1298D02*
X3600Y1298D01*
X3628Y1298D02*
X3633Y1298D01*
X3656Y1298D02*
X3661Y1298D01*
X3683Y1298D02*
X3688Y1298D01*
X3709Y1298D02*
X3746Y1298D01*
X4813Y1298D02*
X4822Y1298D01*
X4877Y1298D02*
X4885Y1298D01*
X1416Y1297D02*
X1422Y1297D01*
X1429Y1297D02*
X1435Y1297D01*
X1486Y1297D02*
X1493Y1297D01*
X1778Y1297D02*
X1825Y1297D01*
X1904Y1297D02*
X1907Y1297D01*
X1929Y1297D02*
X1945Y1297D01*
X2026Y1297D02*
X2092Y1297D01*
X3506Y1297D02*
X3513Y1297D01*
X3596Y1297D02*
X3601Y1297D01*
X3627Y1297D02*
X3632Y1297D01*
X3655Y1297D02*
X3663Y1297D01*
X3683Y1297D02*
X3689Y1297D01*
X3709Y1297D02*
X3718Y1297D01*
X4813Y1297D02*
X4822Y1297D01*
X4877Y1297D02*
X4885Y1297D01*
X1416Y1296D02*
X1422Y1296D01*
X1429Y1296D02*
X1435Y1296D01*
X1485Y1296D02*
X1492Y1296D01*
X1778Y1296D02*
X1825Y1296D01*
X1904Y1296D02*
X1907Y1296D01*
X1934Y1296D02*
X1938Y1296D01*
X1942Y1296D02*
X1945Y1296D01*
X2026Y1296D02*
X2092Y1296D01*
X3505Y1296D02*
X3513Y1296D01*
X3532Y1296D02*
X3534Y1296D01*
X3566Y1296D02*
X3568Y1296D01*
X3596Y1296D02*
X3602Y1296D01*
X3626Y1296D02*
X3632Y1296D01*
X3654Y1296D02*
X3664Y1296D01*
X3683Y1296D02*
X3690Y1296D01*
X3709Y1296D02*
X3720Y1296D01*
X4813Y1296D02*
X4822Y1296D01*
X4877Y1296D02*
X4885Y1296D01*
X1416Y1295D02*
X1422Y1295D01*
X1429Y1295D02*
X1435Y1295D01*
X1485Y1295D02*
X1492Y1295D01*
X1778Y1295D02*
X1825Y1295D01*
X1904Y1295D02*
X1907Y1295D01*
X1933Y1295D02*
X1937Y1295D01*
X1942Y1295D02*
X1945Y1295D01*
X2026Y1295D02*
X2092Y1295D01*
X3505Y1295D02*
X3513Y1295D01*
X3531Y1295D02*
X3535Y1295D01*
X3565Y1295D02*
X3569Y1295D01*
X3597Y1295D02*
X3603Y1295D01*
X3625Y1295D02*
X3631Y1295D01*
X3654Y1295D02*
X3665Y1295D01*
X3684Y1295D02*
X3691Y1295D01*
X3710Y1295D02*
X3722Y1295D01*
X4813Y1295D02*
X4822Y1295D01*
X4877Y1295D02*
X4885Y1295D01*
X1416Y1294D02*
X1422Y1294D01*
X1429Y1294D02*
X1435Y1294D01*
X1484Y1294D02*
X1491Y1294D01*
X1778Y1294D02*
X1825Y1294D01*
X1904Y1294D02*
X1907Y1294D01*
X1933Y1294D02*
X1937Y1294D01*
X1942Y1294D02*
X1945Y1294D01*
X2026Y1294D02*
X2092Y1294D01*
X3506Y1294D02*
X3513Y1294D01*
X3531Y1294D02*
X3535Y1294D01*
X3565Y1294D02*
X3569Y1294D01*
X3598Y1294D02*
X3604Y1294D01*
X3624Y1294D02*
X3630Y1294D01*
X3653Y1294D02*
X3667Y1294D01*
X3686Y1294D02*
X3691Y1294D01*
X3713Y1294D02*
X3724Y1294D01*
X4813Y1294D02*
X4822Y1294D01*
X4877Y1294D02*
X4885Y1294D01*
X1416Y1293D02*
X1447Y1293D01*
X1467Y1293D02*
X1491Y1293D01*
X1778Y1293D02*
X1825Y1293D01*
X1896Y1293D02*
X1897Y1293D01*
X1904Y1293D02*
X1907Y1293D01*
X1932Y1293D02*
X1936Y1293D01*
X1942Y1293D02*
X1945Y1293D01*
X2026Y1293D02*
X2092Y1293D01*
X3509Y1293D02*
X3513Y1293D01*
X3531Y1293D02*
X3535Y1293D01*
X3565Y1293D02*
X3569Y1293D01*
X3599Y1293D02*
X3605Y1293D01*
X3623Y1293D02*
X3629Y1293D01*
X3653Y1293D02*
X3657Y1293D01*
X3661Y1293D02*
X3668Y1293D01*
X3687Y1293D02*
X3691Y1293D01*
X3715Y1293D02*
X3727Y1293D01*
X4813Y1293D02*
X4822Y1293D01*
X4877Y1293D02*
X4885Y1293D01*
X1416Y1292D02*
X1448Y1292D01*
X1466Y1292D02*
X1490Y1292D01*
X1896Y1292D02*
X1898Y1292D01*
X1904Y1292D02*
X1907Y1292D01*
X1932Y1292D02*
X1936Y1292D01*
X1942Y1292D02*
X1945Y1292D01*
X3509Y1292D02*
X3513Y1292D01*
X3531Y1292D02*
X3535Y1292D01*
X3565Y1292D02*
X3569Y1292D01*
X3600Y1292D02*
X3605Y1292D01*
X3622Y1292D02*
X3628Y1292D01*
X3653Y1292D02*
X3657Y1292D01*
X3662Y1292D02*
X3669Y1292D01*
X3687Y1292D02*
X3691Y1292D01*
X3717Y1292D02*
X3729Y1292D01*
X4813Y1292D02*
X4822Y1292D01*
X4877Y1292D02*
X4885Y1292D01*
X1416Y1291D02*
X1449Y1291D01*
X1466Y1291D02*
X1489Y1291D01*
X1895Y1291D02*
X1898Y1291D01*
X1904Y1291D02*
X1907Y1291D01*
X1931Y1291D02*
X1935Y1291D01*
X1942Y1291D02*
X1945Y1291D01*
X3509Y1291D02*
X3513Y1291D01*
X3531Y1291D02*
X3535Y1291D01*
X3565Y1291D02*
X3569Y1291D01*
X3601Y1291D02*
X3606Y1291D01*
X3622Y1291D02*
X3627Y1291D01*
X3653Y1291D02*
X3657Y1291D01*
X3663Y1291D02*
X3671Y1291D01*
X3687Y1291D02*
X3691Y1291D01*
X3720Y1291D02*
X3731Y1291D01*
X4813Y1291D02*
X4822Y1291D01*
X4877Y1291D02*
X4885Y1291D01*
X1416Y1290D02*
X1449Y1290D01*
X1466Y1290D02*
X1489Y1290D01*
X1895Y1290D02*
X1899Y1290D01*
X1904Y1290D02*
X1907Y1290D01*
X1930Y1290D02*
X1934Y1290D01*
X1942Y1290D02*
X1945Y1290D01*
X3509Y1290D02*
X3513Y1290D01*
X3531Y1290D02*
X3535Y1290D01*
X3565Y1290D02*
X3569Y1290D01*
X3602Y1290D02*
X3607Y1290D01*
X3621Y1290D02*
X3626Y1290D01*
X3653Y1290D02*
X3657Y1290D01*
X3664Y1290D02*
X3672Y1290D01*
X3687Y1290D02*
X3691Y1290D01*
X3722Y1290D02*
X3733Y1290D01*
X4813Y1290D02*
X4822Y1290D01*
X4876Y1290D02*
X4885Y1290D01*
X1416Y1289D02*
X1449Y1289D01*
X1466Y1289D02*
X1488Y1289D01*
X1895Y1289D02*
X1899Y1289D01*
X1904Y1289D02*
X1907Y1289D01*
X1930Y1289D02*
X1934Y1289D01*
X1942Y1289D02*
X1945Y1289D01*
X3509Y1289D02*
X3513Y1289D01*
X3531Y1289D02*
X3535Y1289D01*
X3565Y1289D02*
X3569Y1289D01*
X3602Y1289D02*
X3608Y1289D01*
X3620Y1289D02*
X3626Y1289D01*
X3653Y1289D02*
X3657Y1289D01*
X3666Y1289D02*
X3673Y1289D01*
X3687Y1289D02*
X3691Y1289D01*
X3724Y1289D02*
X3736Y1289D01*
X4813Y1289D02*
X4885Y1289D01*
X1416Y1288D02*
X1448Y1288D01*
X1466Y1288D02*
X1486Y1288D01*
X1895Y1288D02*
X1899Y1288D01*
X1904Y1288D02*
X1907Y1288D01*
X1929Y1288D02*
X1933Y1288D01*
X1942Y1288D02*
X1945Y1288D01*
X3477Y1288D02*
X3513Y1288D01*
X3531Y1288D02*
X3535Y1288D01*
X3565Y1288D02*
X3569Y1288D01*
X3603Y1288D02*
X3609Y1288D01*
X3619Y1288D02*
X3625Y1288D01*
X3653Y1288D02*
X3657Y1288D01*
X3667Y1288D02*
X3674Y1288D01*
X3687Y1288D02*
X3691Y1288D01*
X3726Y1288D02*
X3738Y1288D01*
X4813Y1288D02*
X4885Y1288D01*
X1417Y1287D02*
X1447Y1287D01*
X1467Y1287D02*
X1484Y1287D01*
X1895Y1287D02*
X1899Y1287D01*
X1904Y1287D02*
X1907Y1287D01*
X1929Y1287D02*
X1933Y1287D01*
X1942Y1287D02*
X1945Y1287D01*
X3476Y1287D02*
X3513Y1287D01*
X3531Y1287D02*
X3535Y1287D01*
X3565Y1287D02*
X3569Y1287D01*
X3604Y1287D02*
X3610Y1287D01*
X3618Y1287D02*
X3624Y1287D01*
X3653Y1287D02*
X3657Y1287D01*
X3668Y1287D02*
X3676Y1287D01*
X3687Y1287D02*
X3691Y1287D01*
X3729Y1287D02*
X3740Y1287D01*
X4814Y1287D02*
X4885Y1287D01*
X1895Y1286D02*
X1899Y1286D01*
X1904Y1286D02*
X1907Y1286D01*
X1928Y1286D02*
X1932Y1286D01*
X1942Y1286D02*
X1945Y1286D01*
X3476Y1286D02*
X3513Y1286D01*
X3531Y1286D02*
X3535Y1286D01*
X3549Y1286D02*
X3551Y1286D01*
X3565Y1286D02*
X3569Y1286D01*
X3605Y1286D02*
X3611Y1286D01*
X3617Y1286D02*
X3623Y1286D01*
X3653Y1286D02*
X3657Y1286D01*
X3670Y1286D02*
X3677Y1286D01*
X3687Y1286D02*
X3691Y1286D01*
X3731Y1286D02*
X3743Y1286D01*
X4814Y1286D02*
X4884Y1286D01*
X1895Y1285D02*
X1899Y1285D01*
X1904Y1285D02*
X1907Y1285D01*
X1928Y1285D02*
X1931Y1285D01*
X1942Y1285D02*
X1945Y1285D01*
X3476Y1285D02*
X3513Y1285D01*
X3531Y1285D02*
X3535Y1285D01*
X3548Y1285D02*
X3552Y1285D01*
X3565Y1285D02*
X3569Y1285D01*
X3606Y1285D02*
X3611Y1285D01*
X3616Y1285D02*
X3622Y1285D01*
X3653Y1285D02*
X3657Y1285D01*
X3671Y1285D02*
X3678Y1285D01*
X3687Y1285D02*
X3691Y1285D01*
X3733Y1285D02*
X3745Y1285D01*
X4815Y1285D02*
X4884Y1285D01*
X1895Y1284D02*
X1899Y1284D01*
X1904Y1284D02*
X1907Y1284D01*
X1927Y1284D02*
X1931Y1284D01*
X1942Y1284D02*
X1945Y1284D01*
X3477Y1284D02*
X3513Y1284D01*
X3531Y1284D02*
X3535Y1284D01*
X3548Y1284D02*
X3552Y1284D01*
X3565Y1284D02*
X3569Y1284D01*
X3607Y1284D02*
X3612Y1284D01*
X3616Y1284D02*
X3621Y1284D01*
X3653Y1284D02*
X3657Y1284D01*
X3672Y1284D02*
X3680Y1284D01*
X3687Y1284D02*
X3691Y1284D01*
X3736Y1284D02*
X3747Y1284D01*
X4815Y1284D02*
X4883Y1284D01*
X1895Y1283D02*
X1899Y1283D01*
X1903Y1283D02*
X1907Y1283D01*
X1926Y1283D02*
X1930Y1283D01*
X1942Y1283D02*
X1945Y1283D01*
X3509Y1283D02*
X3513Y1283D01*
X3531Y1283D02*
X3535Y1283D01*
X3548Y1283D02*
X3552Y1283D01*
X3565Y1283D02*
X3569Y1283D01*
X3608Y1283D02*
X3613Y1283D01*
X3615Y1283D02*
X3620Y1283D01*
X3653Y1283D02*
X3657Y1283D01*
X3673Y1283D02*
X3681Y1283D01*
X3687Y1283D02*
X3691Y1283D01*
X3738Y1283D02*
X3747Y1283D01*
X4816Y1283D02*
X4882Y1283D01*
X1895Y1282D02*
X1914Y1282D01*
X1926Y1282D02*
X1930Y1282D01*
X1942Y1282D02*
X1945Y1282D01*
X3509Y1282D02*
X3513Y1282D01*
X3531Y1282D02*
X3535Y1282D01*
X3548Y1282D02*
X3552Y1282D01*
X3565Y1282D02*
X3569Y1282D01*
X3608Y1282D02*
X3620Y1282D01*
X3653Y1282D02*
X3657Y1282D01*
X3675Y1282D02*
X3682Y1282D01*
X3687Y1282D02*
X3691Y1282D01*
X3710Y1282D02*
X3747Y1282D01*
X4818Y1282D02*
X4881Y1282D01*
X1895Y1281D02*
X1915Y1281D01*
X1925Y1281D02*
X1929Y1281D01*
X1942Y1281D02*
X1945Y1281D01*
X3509Y1281D02*
X3513Y1281D01*
X3531Y1281D02*
X3535Y1281D01*
X3548Y1281D02*
X3552Y1281D01*
X3565Y1281D02*
X3569Y1281D01*
X3596Y1281D02*
X3631Y1281D01*
X3653Y1281D02*
X3657Y1281D01*
X3676Y1281D02*
X3683Y1281D01*
X3687Y1281D02*
X3691Y1281D01*
X3709Y1281D02*
X3747Y1281D01*
X4820Y1281D02*
X4879Y1281D01*
X1895Y1280D02*
X1915Y1280D01*
X1925Y1280D02*
X1929Y1280D01*
X1942Y1280D02*
X1945Y1280D01*
X3509Y1280D02*
X3513Y1280D01*
X3531Y1280D02*
X3535Y1280D01*
X3548Y1280D02*
X3552Y1280D01*
X3565Y1280D02*
X3569Y1280D01*
X3595Y1280D02*
X3633Y1280D01*
X3653Y1280D02*
X3658Y1280D01*
X3677Y1280D02*
X3685Y1280D01*
X3687Y1280D02*
X3691Y1280D01*
X3709Y1280D02*
X3747Y1280D01*
X1896Y1279D02*
X1914Y1279D01*
X1926Y1279D02*
X1928Y1279D01*
X1943Y1279D02*
X1944Y1279D01*
X3509Y1279D02*
X3513Y1279D01*
X3531Y1279D02*
X3535Y1279D01*
X3548Y1279D02*
X3552Y1279D01*
X3565Y1279D02*
X3569Y1279D01*
X3595Y1279D02*
X3633Y1279D01*
X3654Y1279D02*
X3660Y1279D01*
X3679Y1279D02*
X3691Y1279D01*
X3709Y1279D02*
X3747Y1279D01*
X3212Y1278D02*
X3218Y1278D01*
X3506Y1278D02*
X3513Y1278D01*
X3531Y1278D02*
X3535Y1278D01*
X3548Y1278D02*
X3552Y1278D01*
X3565Y1278D02*
X3569Y1278D01*
X3595Y1278D02*
X3633Y1278D01*
X3654Y1278D02*
X3661Y1278D01*
X3680Y1278D02*
X3691Y1278D01*
X3710Y1278D02*
X3747Y1278D01*
X3211Y1277D02*
X3219Y1277D01*
X3505Y1277D02*
X3513Y1277D01*
X3531Y1277D02*
X3536Y1277D01*
X3548Y1277D02*
X3552Y1277D01*
X3565Y1277D02*
X3569Y1277D01*
X3596Y1277D02*
X3632Y1277D01*
X3655Y1277D02*
X3662Y1277D01*
X3681Y1277D02*
X3690Y1277D01*
X1294Y1276D02*
X1295Y1276D01*
X1325Y1276D02*
X1326Y1276D01*
X3211Y1276D02*
X3219Y1276D01*
X3505Y1276D02*
X3513Y1276D01*
X3531Y1276D02*
X3569Y1276D01*
X3656Y1276D02*
X3661Y1276D01*
X3683Y1276D02*
X3689Y1276D01*
X1294Y1275D02*
X1296Y1275D01*
X1324Y1275D02*
X1326Y1275D01*
X3211Y1275D02*
X3219Y1275D01*
X3505Y1275D02*
X3513Y1275D01*
X3531Y1275D02*
X3569Y1275D01*
X3658Y1275D02*
X3661Y1275D01*
X3684Y1275D02*
X3688Y1275D01*
X1293Y1274D02*
X1298Y1274D01*
X1322Y1274D02*
X1327Y1274D01*
X3211Y1274D02*
X3219Y1274D01*
X3506Y1274D02*
X3513Y1274D01*
X3531Y1274D02*
X3569Y1274D01*
X1292Y1273D02*
X1300Y1273D01*
X1320Y1273D02*
X1328Y1273D01*
X3212Y1273D02*
X3219Y1273D01*
X3531Y1273D02*
X3569Y1273D01*
X1291Y1272D02*
X1303Y1272D01*
X1317Y1272D02*
X1328Y1272D01*
X3214Y1272D02*
X3219Y1272D01*
X3531Y1272D02*
X3569Y1272D01*
X1291Y1271D02*
X1308Y1271D01*
X1312Y1271D02*
X1329Y1271D01*
X3214Y1271D02*
X3219Y1271D01*
X1290Y1270D02*
X1330Y1270D01*
X3214Y1270D02*
X3219Y1270D01*
X1292Y1269D02*
X1328Y1269D01*
X3214Y1269D02*
X3219Y1269D01*
X1293Y1268D02*
X1327Y1268D01*
X3214Y1268D02*
X3219Y1268D01*
X1295Y1267D02*
X1325Y1267D01*
X3214Y1267D02*
X3219Y1267D01*
X1297Y1266D02*
X1323Y1266D01*
X3214Y1266D02*
X3219Y1266D01*
X3710Y1266D02*
X3712Y1266D01*
X3744Y1266D02*
X3746Y1266D01*
X1300Y1265D02*
X1320Y1265D01*
X3214Y1265D02*
X3219Y1265D01*
X3597Y1265D02*
X3597Y1265D01*
X3630Y1265D02*
X3631Y1265D01*
X3709Y1265D02*
X3713Y1265D01*
X3743Y1265D02*
X3746Y1265D01*
X1304Y1264D02*
X1316Y1264D01*
X3214Y1264D02*
X3219Y1264D01*
X3595Y1264D02*
X3599Y1264D01*
X3629Y1264D02*
X3632Y1264D01*
X3709Y1264D02*
X3713Y1264D01*
X3743Y1264D02*
X3747Y1264D01*
X3214Y1263D02*
X3219Y1263D01*
X3595Y1263D02*
X3599Y1263D01*
X3629Y1263D02*
X3633Y1263D01*
X3655Y1263D02*
X3656Y1263D01*
X3680Y1263D02*
X3686Y1263D01*
X3709Y1263D02*
X3713Y1263D01*
X3743Y1263D02*
X3747Y1263D01*
X3214Y1262D02*
X3219Y1262D01*
X3477Y1262D02*
X3478Y1262D01*
X3511Y1262D02*
X3512Y1262D01*
X3595Y1262D02*
X3599Y1262D01*
X3629Y1262D02*
X3633Y1262D01*
X3654Y1262D02*
X3658Y1262D01*
X3678Y1262D02*
X3688Y1262D01*
X3709Y1262D02*
X3713Y1262D01*
X3743Y1262D02*
X3747Y1262D01*
X3214Y1261D02*
X3219Y1261D01*
X3476Y1261D02*
X3479Y1261D01*
X3510Y1261D02*
X3513Y1261D01*
X3595Y1261D02*
X3599Y1261D01*
X3629Y1261D02*
X3633Y1261D01*
X3653Y1261D02*
X3660Y1261D01*
X3677Y1261D02*
X3689Y1261D01*
X3709Y1261D02*
X3713Y1261D01*
X3743Y1261D02*
X3747Y1261D01*
X3214Y1260D02*
X3219Y1260D01*
X3476Y1260D02*
X3480Y1260D01*
X3509Y1260D02*
X3513Y1260D01*
X3532Y1260D02*
X3534Y1260D01*
X3566Y1260D02*
X3568Y1260D01*
X3595Y1260D02*
X3599Y1260D01*
X3629Y1260D02*
X3633Y1260D01*
X3654Y1260D02*
X3661Y1260D01*
X3676Y1260D02*
X3690Y1260D01*
X3709Y1260D02*
X3713Y1260D01*
X3743Y1260D02*
X3747Y1260D01*
X3214Y1259D02*
X3219Y1259D01*
X3476Y1259D02*
X3480Y1259D01*
X3509Y1259D02*
X3513Y1259D01*
X3531Y1259D02*
X3535Y1259D01*
X3565Y1259D02*
X3569Y1259D01*
X3595Y1259D02*
X3599Y1259D01*
X3629Y1259D02*
X3633Y1259D01*
X3654Y1259D02*
X3663Y1259D01*
X3675Y1259D02*
X3690Y1259D01*
X3709Y1259D02*
X3713Y1259D01*
X3743Y1259D02*
X3747Y1259D01*
X3214Y1258D02*
X3219Y1258D01*
X3476Y1258D02*
X3480Y1258D01*
X3509Y1258D02*
X3513Y1258D01*
X3531Y1258D02*
X3535Y1258D01*
X3565Y1258D02*
X3569Y1258D01*
X3595Y1258D02*
X3599Y1258D01*
X3629Y1258D02*
X3633Y1258D01*
X3656Y1258D02*
X3665Y1258D01*
X3675Y1258D02*
X3680Y1258D01*
X3686Y1258D02*
X3691Y1258D01*
X3709Y1258D02*
X3713Y1258D01*
X3743Y1258D02*
X3747Y1258D01*
X3214Y1257D02*
X3219Y1257D01*
X3476Y1257D02*
X3480Y1257D01*
X3509Y1257D02*
X3513Y1257D01*
X3531Y1257D02*
X3535Y1257D01*
X3565Y1257D02*
X3569Y1257D01*
X3595Y1257D02*
X3599Y1257D01*
X3629Y1257D02*
X3633Y1257D01*
X3657Y1257D02*
X3667Y1257D01*
X3675Y1257D02*
X3679Y1257D01*
X3687Y1257D02*
X3691Y1257D01*
X3709Y1257D02*
X3713Y1257D01*
X3743Y1257D02*
X3747Y1257D01*
X2569Y1256D02*
X2588Y1256D01*
X2610Y1256D02*
X2614Y1256D01*
X3214Y1256D02*
X3219Y1256D01*
X3476Y1256D02*
X3480Y1256D01*
X3509Y1256D02*
X3513Y1256D01*
X3531Y1256D02*
X3535Y1256D01*
X3565Y1256D02*
X3569Y1256D01*
X3595Y1256D02*
X3599Y1256D01*
X3629Y1256D02*
X3633Y1256D01*
X3659Y1256D02*
X3668Y1256D01*
X3675Y1256D02*
X3679Y1256D01*
X3687Y1256D02*
X3691Y1256D01*
X3709Y1256D02*
X3747Y1256D01*
X2569Y1255D02*
X2589Y1255D01*
X2609Y1255D02*
X2614Y1255D01*
X3214Y1255D02*
X3219Y1255D01*
X3476Y1255D02*
X3480Y1255D01*
X3509Y1255D02*
X3513Y1255D01*
X3531Y1255D02*
X3535Y1255D01*
X3565Y1255D02*
X3569Y1255D01*
X3595Y1255D02*
X3599Y1255D01*
X3629Y1255D02*
X3633Y1255D01*
X3661Y1255D02*
X3670Y1255D01*
X3674Y1255D02*
X3679Y1255D01*
X3687Y1255D02*
X3691Y1255D01*
X3709Y1255D02*
X3747Y1255D01*
X2569Y1254D02*
X2589Y1254D01*
X2609Y1254D02*
X2615Y1254D01*
X3214Y1254D02*
X3219Y1254D01*
X3476Y1254D02*
X3480Y1254D01*
X3509Y1254D02*
X3513Y1254D01*
X3531Y1254D02*
X3535Y1254D01*
X3565Y1254D02*
X3569Y1254D01*
X3595Y1254D02*
X3599Y1254D01*
X3629Y1254D02*
X3633Y1254D01*
X3663Y1254D02*
X3672Y1254D01*
X3674Y1254D02*
X3679Y1254D01*
X3687Y1254D02*
X3691Y1254D01*
X3709Y1254D02*
X3747Y1254D01*
X2569Y1253D02*
X2589Y1253D01*
X2609Y1253D02*
X2615Y1253D01*
X3214Y1253D02*
X3219Y1253D01*
X3476Y1253D02*
X3480Y1253D01*
X3509Y1253D02*
X3513Y1253D01*
X3531Y1253D02*
X3535Y1253D01*
X3565Y1253D02*
X3569Y1253D01*
X3595Y1253D02*
X3599Y1253D01*
X3629Y1253D02*
X3633Y1253D01*
X3664Y1253D02*
X3679Y1253D01*
X3687Y1253D02*
X3691Y1253D01*
X3709Y1253D02*
X3747Y1253D01*
X2569Y1252D02*
X2589Y1252D01*
X2609Y1252D02*
X2615Y1252D01*
X3214Y1252D02*
X3219Y1252D01*
X3476Y1252D02*
X3480Y1252D01*
X3494Y1252D02*
X3496Y1252D01*
X3509Y1252D02*
X3513Y1252D01*
X3531Y1252D02*
X3535Y1252D01*
X3565Y1252D02*
X3569Y1252D01*
X3595Y1252D02*
X3600Y1252D01*
X3628Y1252D02*
X3633Y1252D01*
X3666Y1252D02*
X3679Y1252D01*
X3687Y1252D02*
X3691Y1252D01*
X3709Y1252D02*
X3747Y1252D01*
X2569Y1251D02*
X2588Y1251D01*
X2609Y1251D02*
X2615Y1251D01*
X3190Y1251D02*
X3219Y1251D01*
X3476Y1251D02*
X3480Y1251D01*
X3493Y1251D02*
X3496Y1251D01*
X3509Y1251D02*
X3513Y1251D01*
X3531Y1251D02*
X3535Y1251D01*
X3565Y1251D02*
X3569Y1251D01*
X3596Y1251D02*
X3601Y1251D01*
X3627Y1251D02*
X3632Y1251D01*
X3668Y1251D02*
X3679Y1251D01*
X3687Y1251D02*
X3691Y1251D01*
X3709Y1251D02*
X3713Y1251D01*
X3743Y1251D02*
X3747Y1251D01*
X2569Y1250D02*
X2585Y1250D01*
X2609Y1250D02*
X2615Y1250D01*
X3189Y1250D02*
X3219Y1250D01*
X3476Y1250D02*
X3480Y1250D01*
X3493Y1250D02*
X3497Y1250D01*
X3509Y1250D02*
X3513Y1250D01*
X3531Y1250D02*
X3535Y1250D01*
X3565Y1250D02*
X3569Y1250D01*
X3596Y1250D02*
X3603Y1250D01*
X3625Y1250D02*
X3632Y1250D01*
X3669Y1250D02*
X3679Y1250D01*
X3687Y1250D02*
X3691Y1250D01*
X3709Y1250D02*
X3713Y1250D01*
X3743Y1250D02*
X3747Y1250D01*
X2569Y1249D02*
X2575Y1249D01*
X2609Y1249D02*
X2615Y1249D01*
X3189Y1249D02*
X3219Y1249D01*
X3476Y1249D02*
X3480Y1249D01*
X3493Y1249D02*
X3497Y1249D01*
X3509Y1249D02*
X3513Y1249D01*
X3531Y1249D02*
X3535Y1249D01*
X3565Y1249D02*
X3569Y1249D01*
X3597Y1249D02*
X3605Y1249D01*
X3623Y1249D02*
X3631Y1249D01*
X3671Y1249D02*
X3679Y1249D01*
X3687Y1249D02*
X3691Y1249D01*
X3709Y1249D02*
X3713Y1249D01*
X3743Y1249D02*
X3747Y1249D01*
X2569Y1248D02*
X2575Y1248D01*
X2609Y1248D02*
X2615Y1248D01*
X3189Y1248D02*
X3219Y1248D01*
X3476Y1248D02*
X3480Y1248D01*
X3493Y1248D02*
X3497Y1248D01*
X3509Y1248D02*
X3513Y1248D01*
X3531Y1248D02*
X3535Y1248D01*
X3565Y1248D02*
X3569Y1248D01*
X3597Y1248D02*
X3607Y1248D01*
X3621Y1248D02*
X3631Y1248D01*
X3673Y1248D02*
X3679Y1248D01*
X3687Y1248D02*
X3691Y1248D01*
X3709Y1248D02*
X3713Y1248D01*
X3743Y1248D02*
X3747Y1248D01*
X2569Y1247D02*
X2575Y1247D01*
X2609Y1247D02*
X2615Y1247D01*
X3189Y1247D02*
X3219Y1247D01*
X3476Y1247D02*
X3480Y1247D01*
X3493Y1247D02*
X3497Y1247D01*
X3509Y1247D02*
X3513Y1247D01*
X3531Y1247D02*
X3536Y1247D01*
X3564Y1247D02*
X3569Y1247D01*
X3599Y1247D02*
X3609Y1247D01*
X3619Y1247D02*
X3629Y1247D01*
X3674Y1247D02*
X3679Y1247D01*
X3687Y1247D02*
X3691Y1247D01*
X3709Y1247D02*
X3713Y1247D01*
X3743Y1247D02*
X3747Y1247D01*
X2569Y1246D02*
X2575Y1246D01*
X2609Y1246D02*
X2615Y1246D01*
X3189Y1246D02*
X3219Y1246D01*
X3476Y1246D02*
X3480Y1246D01*
X3493Y1246D02*
X3497Y1246D01*
X3509Y1246D02*
X3513Y1246D01*
X3532Y1246D02*
X3538Y1246D01*
X3562Y1246D02*
X3568Y1246D01*
X3601Y1246D02*
X3611Y1246D01*
X3617Y1246D02*
X3627Y1246D01*
X3674Y1246D02*
X3679Y1246D01*
X3687Y1246D02*
X3691Y1246D01*
X3709Y1246D02*
X3713Y1246D01*
X3743Y1246D02*
X3747Y1246D01*
X2569Y1245D02*
X2575Y1245D01*
X2609Y1245D02*
X2615Y1245D01*
X3189Y1245D02*
X3194Y1245D01*
X3214Y1245D02*
X3219Y1245D01*
X3476Y1245D02*
X3480Y1245D01*
X3493Y1245D02*
X3497Y1245D01*
X3509Y1245D02*
X3513Y1245D01*
X3532Y1245D02*
X3540Y1245D01*
X3560Y1245D02*
X3568Y1245D01*
X3603Y1245D02*
X3625Y1245D01*
X3674Y1245D02*
X3679Y1245D01*
X3687Y1245D02*
X3691Y1245D01*
X3709Y1245D02*
X3713Y1245D01*
X3743Y1245D02*
X3747Y1245D01*
X4829Y1245D02*
X4837Y1245D01*
X2569Y1244D02*
X2575Y1244D01*
X2609Y1244D02*
X2615Y1244D01*
X3189Y1244D02*
X3194Y1244D01*
X3214Y1244D02*
X3219Y1244D01*
X3476Y1244D02*
X3480Y1244D01*
X3493Y1244D02*
X3497Y1244D01*
X3509Y1244D02*
X3513Y1244D01*
X3533Y1244D02*
X3542Y1244D01*
X3558Y1244D02*
X3567Y1244D01*
X3605Y1244D02*
X3623Y1244D01*
X3674Y1244D02*
X3679Y1244D01*
X3687Y1244D02*
X3691Y1244D01*
X3709Y1244D02*
X3713Y1244D01*
X3743Y1244D02*
X3747Y1244D01*
X4827Y1244D02*
X4840Y1244D01*
X2569Y1243D02*
X2575Y1243D01*
X2609Y1243D02*
X2615Y1243D01*
X3189Y1243D02*
X3194Y1243D01*
X3214Y1243D02*
X3219Y1243D01*
X3476Y1243D02*
X3480Y1243D01*
X3492Y1243D02*
X3497Y1243D01*
X3509Y1243D02*
X3513Y1243D01*
X3534Y1243D02*
X3544Y1243D01*
X3556Y1243D02*
X3566Y1243D01*
X3607Y1243D02*
X3621Y1243D01*
X3654Y1243D02*
X3691Y1243D01*
X3709Y1243D02*
X3713Y1243D01*
X3743Y1243D02*
X3746Y1243D01*
X4826Y1243D02*
X4841Y1243D01*
X2569Y1242D02*
X2575Y1242D01*
X2609Y1242D02*
X2615Y1242D01*
X3189Y1242D02*
X3194Y1242D01*
X3214Y1242D02*
X3219Y1242D01*
X3476Y1242D02*
X3513Y1242D01*
X3536Y1242D02*
X3546Y1242D01*
X3554Y1242D02*
X3564Y1242D01*
X3609Y1242D02*
X3619Y1242D01*
X3654Y1242D02*
X3691Y1242D01*
X3710Y1242D02*
X3712Y1242D01*
X3744Y1242D02*
X3745Y1242D01*
X4825Y1242D02*
X4841Y1242D01*
X2569Y1241D02*
X2575Y1241D01*
X2609Y1241D02*
X2615Y1241D01*
X3189Y1241D02*
X3194Y1241D01*
X3214Y1241D02*
X3219Y1241D01*
X3476Y1241D02*
X3513Y1241D01*
X3538Y1241D02*
X3562Y1241D01*
X3611Y1241D02*
X3617Y1241D01*
X3653Y1241D02*
X3691Y1241D01*
X4825Y1241D02*
X4841Y1241D01*
X2569Y1240D02*
X2575Y1240D01*
X2609Y1240D02*
X2615Y1240D01*
X3189Y1240D02*
X3194Y1240D01*
X3214Y1240D02*
X3219Y1240D01*
X3476Y1240D02*
X3513Y1240D01*
X3540Y1240D02*
X3560Y1240D01*
X3654Y1240D02*
X3691Y1240D01*
X4825Y1240D02*
X4841Y1240D01*
X2569Y1239D02*
X2575Y1239D01*
X2609Y1239D02*
X2615Y1239D01*
X3189Y1239D02*
X3194Y1239D01*
X3214Y1239D02*
X3219Y1239D01*
X3476Y1239D02*
X3513Y1239D01*
X3542Y1239D02*
X3558Y1239D01*
X3655Y1239D02*
X3691Y1239D01*
X4825Y1239D02*
X4841Y1239D01*
X2569Y1238D02*
X2575Y1238D01*
X2609Y1238D02*
X2615Y1238D01*
X3189Y1238D02*
X3194Y1238D01*
X3214Y1238D02*
X3219Y1238D01*
X3476Y1238D02*
X3513Y1238D01*
X3544Y1238D02*
X3556Y1238D01*
X4825Y1238D02*
X4841Y1238D01*
X2569Y1237D02*
X2575Y1237D01*
X2609Y1237D02*
X2615Y1237D01*
X3189Y1237D02*
X3194Y1237D01*
X3214Y1237D02*
X3219Y1237D01*
X3546Y1237D02*
X3554Y1237D01*
X4825Y1237D02*
X4841Y1237D01*
X2569Y1236D02*
X2575Y1236D01*
X2609Y1236D02*
X2615Y1236D01*
X3189Y1236D02*
X3195Y1236D01*
X3214Y1236D02*
X3219Y1236D01*
X4825Y1236D02*
X4841Y1236D01*
X2569Y1235D02*
X2575Y1235D01*
X2609Y1235D02*
X2615Y1235D01*
X3189Y1235D02*
X3219Y1235D01*
X4825Y1235D02*
X4841Y1235D01*
X2569Y1234D02*
X2575Y1234D01*
X2609Y1234D02*
X2615Y1234D01*
X3189Y1234D02*
X3219Y1234D01*
X4825Y1234D02*
X4841Y1234D01*
X2569Y1233D02*
X2575Y1233D01*
X2609Y1233D02*
X2615Y1233D01*
X3189Y1233D02*
X3219Y1233D01*
X4825Y1233D02*
X4841Y1233D01*
X2569Y1232D02*
X2575Y1232D01*
X2609Y1232D02*
X2615Y1232D01*
X3189Y1232D02*
X3219Y1232D01*
X4825Y1232D02*
X4841Y1232D01*
X2569Y1231D02*
X2575Y1231D01*
X2609Y1231D02*
X2615Y1231D01*
X3190Y1231D02*
X3219Y1231D01*
X4825Y1231D02*
X4841Y1231D01*
X2569Y1230D02*
X2575Y1230D01*
X2609Y1230D02*
X2615Y1230D01*
X3191Y1230D02*
X3218Y1230D01*
X3710Y1230D02*
X3713Y1230D01*
X4825Y1230D02*
X4841Y1230D01*
X2569Y1229D02*
X2575Y1229D01*
X2609Y1229D02*
X2615Y1229D01*
X3612Y1229D02*
X3616Y1229D01*
X3709Y1229D02*
X3716Y1229D01*
X4826Y1229D02*
X4841Y1229D01*
X2569Y1228D02*
X2575Y1228D01*
X2609Y1228D02*
X2615Y1228D01*
X3609Y1228D02*
X3619Y1228D01*
X3709Y1228D02*
X3720Y1228D01*
X4826Y1228D02*
X4840Y1228D01*
X2557Y1227D02*
X2560Y1227D01*
X2569Y1227D02*
X2575Y1227D01*
X2609Y1227D02*
X2615Y1227D01*
X2631Y1227D02*
X2634Y1227D01*
X3607Y1227D02*
X3621Y1227D01*
X3709Y1227D02*
X3723Y1227D01*
X4828Y1227D02*
X4839Y1227D01*
X2556Y1226D02*
X2561Y1226D01*
X2569Y1226D02*
X2575Y1226D01*
X2609Y1226D02*
X2615Y1226D01*
X2630Y1226D02*
X2635Y1226D01*
X3479Y1226D02*
X3483Y1226D01*
X3506Y1226D02*
X3509Y1226D01*
X3605Y1226D02*
X3623Y1226D01*
X3710Y1226D02*
X3727Y1226D01*
X2556Y1225D02*
X2561Y1225D01*
X2569Y1225D02*
X2575Y1225D01*
X2609Y1225D02*
X2615Y1225D01*
X2630Y1225D02*
X2635Y1225D01*
X3477Y1225D02*
X3484Y1225D01*
X3505Y1225D02*
X3511Y1225D01*
X3603Y1225D02*
X3625Y1225D01*
X3713Y1225D02*
X3730Y1225D01*
X2555Y1224D02*
X2561Y1224D01*
X2569Y1224D02*
X2575Y1224D01*
X2609Y1224D02*
X2615Y1224D01*
X2630Y1224D02*
X2636Y1224D01*
X3477Y1224D02*
X3486Y1224D01*
X3505Y1224D02*
X3512Y1224D01*
X3601Y1224D02*
X3612Y1224D01*
X3616Y1224D02*
X3627Y1224D01*
X3717Y1224D02*
X3733Y1224D01*
X2555Y1223D02*
X2561Y1223D01*
X2569Y1223D02*
X2575Y1223D01*
X2609Y1223D02*
X2615Y1223D01*
X2630Y1223D02*
X2636Y1223D01*
X3476Y1223D02*
X3487Y1223D01*
X3505Y1223D02*
X3513Y1223D01*
X3599Y1223D02*
X3609Y1223D01*
X3619Y1223D02*
X3629Y1223D01*
X3717Y1223D02*
X3737Y1223D01*
X2555Y1222D02*
X2561Y1222D01*
X2569Y1222D02*
X2575Y1222D01*
X2609Y1222D02*
X2615Y1222D01*
X2630Y1222D02*
X2636Y1222D01*
X3476Y1222D02*
X3488Y1222D01*
X3506Y1222D02*
X3513Y1222D01*
X3597Y1222D02*
X3607Y1222D01*
X3621Y1222D02*
X3630Y1222D01*
X3717Y1222D02*
X3740Y1222D01*
X2555Y1221D02*
X2561Y1221D01*
X2569Y1221D02*
X2575Y1221D01*
X2609Y1221D02*
X2615Y1221D01*
X2630Y1221D02*
X2636Y1221D01*
X3476Y1221D02*
X3480Y1221D01*
X3482Y1221D02*
X3489Y1221D01*
X3509Y1221D02*
X3513Y1221D01*
X3597Y1221D02*
X3605Y1221D01*
X3623Y1221D02*
X3631Y1221D01*
X3717Y1221D02*
X3721Y1221D01*
X3727Y1221D02*
X3744Y1221D01*
X2555Y1220D02*
X2561Y1220D01*
X2569Y1220D02*
X2575Y1220D01*
X2609Y1220D02*
X2615Y1220D01*
X2630Y1220D02*
X2636Y1220D01*
X3476Y1220D02*
X3480Y1220D01*
X3483Y1220D02*
X3491Y1220D01*
X3509Y1220D02*
X3513Y1220D01*
X3596Y1220D02*
X3603Y1220D01*
X3625Y1220D02*
X3632Y1220D01*
X3717Y1220D02*
X3721Y1220D01*
X3730Y1220D02*
X3746Y1220D01*
X2555Y1219D02*
X2561Y1219D01*
X2569Y1219D02*
X2575Y1219D01*
X2609Y1219D02*
X2615Y1219D01*
X2630Y1219D02*
X2636Y1219D01*
X3476Y1219D02*
X3480Y1219D01*
X3485Y1219D02*
X3492Y1219D01*
X3509Y1219D02*
X3513Y1219D01*
X3595Y1219D02*
X3601Y1219D01*
X3627Y1219D02*
X3633Y1219D01*
X3717Y1219D02*
X3721Y1219D01*
X3734Y1219D02*
X3747Y1219D01*
X2555Y1218D02*
X2561Y1218D01*
X2569Y1218D02*
X2575Y1218D01*
X2609Y1218D02*
X2615Y1218D01*
X2630Y1218D02*
X2636Y1218D01*
X3476Y1218D02*
X3480Y1218D01*
X3486Y1218D02*
X3493Y1218D01*
X3509Y1218D02*
X3513Y1218D01*
X3595Y1218D02*
X3600Y1218D01*
X3628Y1218D02*
X3633Y1218D01*
X3717Y1218D02*
X3721Y1218D01*
X3735Y1218D02*
X3747Y1218D01*
X2555Y1217D02*
X2561Y1217D01*
X2569Y1217D02*
X2575Y1217D01*
X2609Y1217D02*
X2615Y1217D01*
X2630Y1217D02*
X2636Y1217D01*
X3476Y1217D02*
X3480Y1217D01*
X3487Y1217D02*
X3495Y1217D01*
X3509Y1217D02*
X3513Y1217D01*
X3595Y1217D02*
X3599Y1217D01*
X3629Y1217D02*
X3633Y1217D01*
X3717Y1217D02*
X3721Y1217D01*
X3732Y1217D02*
X3746Y1217D01*
X2555Y1216D02*
X2561Y1216D01*
X2569Y1216D02*
X2575Y1216D01*
X2609Y1216D02*
X2615Y1216D01*
X2630Y1216D02*
X2636Y1216D01*
X3476Y1216D02*
X3480Y1216D01*
X3488Y1216D02*
X3496Y1216D01*
X3509Y1216D02*
X3513Y1216D01*
X3595Y1216D02*
X3600Y1216D01*
X3628Y1216D02*
X3633Y1216D01*
X3717Y1216D02*
X3721Y1216D01*
X3729Y1216D02*
X3745Y1216D01*
X2555Y1215D02*
X2561Y1215D01*
X2569Y1215D02*
X2575Y1215D01*
X2609Y1215D02*
X2615Y1215D01*
X2630Y1215D02*
X2636Y1215D01*
X3476Y1215D02*
X3480Y1215D01*
X3490Y1215D02*
X3497Y1215D01*
X3509Y1215D02*
X3513Y1215D01*
X3595Y1215D02*
X3601Y1215D01*
X3627Y1215D02*
X3633Y1215D01*
X3717Y1215D02*
X3721Y1215D01*
X3725Y1215D02*
X3742Y1215D01*
X2555Y1214D02*
X2561Y1214D01*
X2569Y1214D02*
X2575Y1214D01*
X2609Y1214D02*
X2615Y1214D01*
X2630Y1214D02*
X2636Y1214D01*
X3476Y1214D02*
X3480Y1214D01*
X3491Y1214D02*
X3498Y1214D01*
X3509Y1214D02*
X3513Y1214D01*
X3596Y1214D02*
X3603Y1214D01*
X3625Y1214D02*
X3632Y1214D01*
X3717Y1214D02*
X3739Y1214D01*
X2555Y1213D02*
X2561Y1213D01*
X2569Y1213D02*
X2575Y1213D01*
X2609Y1213D02*
X2615Y1213D01*
X2629Y1213D02*
X2636Y1213D01*
X3476Y1213D02*
X3480Y1213D01*
X3492Y1213D02*
X3500Y1213D01*
X3509Y1213D02*
X3513Y1213D01*
X3596Y1213D02*
X3605Y1213D01*
X3623Y1213D02*
X3631Y1213D01*
X3717Y1213D02*
X3735Y1213D01*
X2555Y1212D02*
X2561Y1212D01*
X2569Y1212D02*
X2575Y1212D01*
X2609Y1212D02*
X2615Y1212D01*
X2629Y1212D02*
X2635Y1212D01*
X3476Y1212D02*
X3480Y1212D01*
X3494Y1212D02*
X3501Y1212D01*
X3509Y1212D02*
X3513Y1212D01*
X3597Y1212D02*
X3607Y1212D01*
X3621Y1212D02*
X3631Y1212D01*
X3715Y1212D02*
X3732Y1212D01*
X2555Y1211D02*
X2561Y1211D01*
X2569Y1211D02*
X2575Y1211D01*
X2609Y1211D02*
X2616Y1211D01*
X2629Y1211D02*
X2635Y1211D01*
X3476Y1211D02*
X3480Y1211D01*
X3495Y1211D02*
X3502Y1211D01*
X3509Y1211D02*
X3513Y1211D01*
X3599Y1211D02*
X3609Y1211D01*
X3619Y1211D02*
X3629Y1211D01*
X3712Y1211D02*
X3729Y1211D01*
X2555Y1210D02*
X2562Y1210D01*
X2569Y1210D02*
X2575Y1210D01*
X2609Y1210D02*
X2618Y1210D01*
X2627Y1210D02*
X2635Y1210D01*
X3476Y1210D02*
X3480Y1210D01*
X3496Y1210D02*
X3504Y1210D01*
X3509Y1210D02*
X3513Y1210D01*
X3601Y1210D02*
X3611Y1210D01*
X3617Y1210D02*
X3627Y1210D01*
X3710Y1210D02*
X3725Y1210D01*
X2555Y1209D02*
X2588Y1209D01*
X2610Y1209D02*
X2635Y1209D01*
X3476Y1209D02*
X3480Y1209D01*
X3498Y1209D02*
X3505Y1209D01*
X3509Y1209D02*
X3513Y1209D01*
X3603Y1209D02*
X3625Y1209D01*
X3709Y1209D02*
X3722Y1209D01*
X2555Y1208D02*
X2588Y1208D01*
X2610Y1208D02*
X2634Y1208D01*
X3476Y1208D02*
X3480Y1208D01*
X3499Y1208D02*
X3506Y1208D01*
X3509Y1208D02*
X3513Y1208D01*
X3605Y1208D02*
X3623Y1208D01*
X3709Y1208D02*
X3718Y1208D01*
X2555Y1207D02*
X2589Y1207D01*
X2611Y1207D02*
X2633Y1207D01*
X3476Y1207D02*
X3481Y1207D01*
X3500Y1207D02*
X3507Y1207D01*
X3509Y1207D02*
X3513Y1207D01*
X3607Y1207D02*
X3621Y1207D01*
X3709Y1207D02*
X3715Y1207D01*
X2555Y1206D02*
X2589Y1206D01*
X2612Y1206D02*
X2632Y1206D01*
X3476Y1206D02*
X3483Y1206D01*
X3501Y1206D02*
X3513Y1206D01*
X3609Y1206D02*
X3619Y1206D01*
X3710Y1206D02*
X3711Y1206D01*
X2556Y1205D02*
X2589Y1205D01*
X2613Y1205D02*
X2631Y1205D01*
X3477Y1205D02*
X3484Y1205D01*
X3503Y1205D02*
X3513Y1205D01*
X3612Y1205D02*
X3616Y1205D01*
X2556Y1204D02*
X2588Y1204D01*
X2615Y1204D02*
X2630Y1204D01*
X3478Y1204D02*
X3484Y1204D01*
X3504Y1204D02*
X3512Y1204D01*
X2558Y1203D02*
X2586Y1203D01*
X2618Y1203D02*
X2627Y1203D01*
X3479Y1203D02*
X3483Y1203D01*
X3505Y1203D02*
X3511Y1203D01*
X3481Y1202D02*
X3482Y1202D01*
X3508Y1202D02*
X3509Y1202D01*
X3739Y1194D02*
X3747Y1194D01*
X3596Y1193D02*
X3598Y1193D01*
X3739Y1193D02*
X3747Y1193D01*
X3595Y1192D02*
X3599Y1192D01*
X3739Y1192D02*
X3747Y1192D01*
X3595Y1191D02*
X3599Y1191D01*
X3739Y1191D02*
X3747Y1191D01*
X4822Y1191D02*
X4876Y1191D01*
X3476Y1190D02*
X3479Y1190D01*
X3510Y1190D02*
X3513Y1190D01*
X3595Y1190D02*
X3599Y1190D01*
X3740Y1190D02*
X3747Y1190D01*
X4818Y1190D02*
X4880Y1190D01*
X3476Y1189D02*
X3479Y1189D01*
X3510Y1189D02*
X3513Y1189D01*
X3595Y1189D02*
X3599Y1189D01*
X3743Y1189D02*
X3747Y1189D01*
X4817Y1189D02*
X4881Y1189D01*
X3476Y1188D02*
X3480Y1188D01*
X3509Y1188D02*
X3513Y1188D01*
X3595Y1188D02*
X3599Y1188D01*
X3743Y1188D02*
X3747Y1188D01*
X4816Y1188D02*
X4882Y1188D01*
X3476Y1187D02*
X3480Y1187D01*
X3509Y1187D02*
X3513Y1187D01*
X3595Y1187D02*
X3599Y1187D01*
X3743Y1187D02*
X3747Y1187D01*
X4815Y1187D02*
X4883Y1187D01*
X3476Y1186D02*
X3480Y1186D01*
X3509Y1186D02*
X3513Y1186D01*
X3595Y1186D02*
X3599Y1186D01*
X3743Y1186D02*
X3747Y1186D01*
X4814Y1186D02*
X4884Y1186D01*
X3476Y1185D02*
X3480Y1185D01*
X3509Y1185D02*
X3513Y1185D01*
X3595Y1185D02*
X3599Y1185D01*
X3742Y1185D02*
X3747Y1185D01*
X4814Y1185D02*
X4884Y1185D01*
X3476Y1184D02*
X3480Y1184D01*
X3509Y1184D02*
X3513Y1184D01*
X3595Y1184D02*
X3599Y1184D01*
X3710Y1184D02*
X3747Y1184D01*
X4814Y1184D02*
X4885Y1184D01*
X3476Y1183D02*
X3480Y1183D01*
X3509Y1183D02*
X3513Y1183D01*
X3595Y1183D02*
X3599Y1183D01*
X3709Y1183D02*
X3747Y1183D01*
X4813Y1183D02*
X4885Y1183D01*
X3476Y1182D02*
X3480Y1182D01*
X3509Y1182D02*
X3513Y1182D01*
X3595Y1182D02*
X3599Y1182D01*
X3709Y1182D02*
X3747Y1182D01*
X4813Y1182D02*
X4885Y1182D01*
X3476Y1181D02*
X3480Y1181D01*
X3509Y1181D02*
X3513Y1181D01*
X3595Y1181D02*
X3599Y1181D01*
X3709Y1181D02*
X3747Y1181D01*
X4813Y1181D02*
X4822Y1181D01*
X4877Y1181D02*
X4885Y1181D01*
X3476Y1180D02*
X3480Y1180D01*
X3493Y1180D02*
X3496Y1180D01*
X3509Y1180D02*
X3513Y1180D01*
X3595Y1180D02*
X3599Y1180D01*
X3711Y1180D02*
X3747Y1180D01*
X4813Y1180D02*
X4822Y1180D01*
X4877Y1180D02*
X4885Y1180D01*
X3476Y1179D02*
X3480Y1179D01*
X3493Y1179D02*
X3496Y1179D01*
X3509Y1179D02*
X3513Y1179D01*
X3595Y1179D02*
X3599Y1179D01*
X3743Y1179D02*
X3747Y1179D01*
X4813Y1179D02*
X4822Y1179D01*
X4877Y1179D02*
X4885Y1179D01*
X3476Y1178D02*
X3480Y1178D01*
X3493Y1178D02*
X3497Y1178D01*
X3509Y1178D02*
X3513Y1178D01*
X3595Y1178D02*
X3599Y1178D01*
X3743Y1178D02*
X3747Y1178D01*
X4813Y1178D02*
X4822Y1178D01*
X4877Y1178D02*
X4885Y1178D01*
X3476Y1177D02*
X3480Y1177D01*
X3493Y1177D02*
X3497Y1177D01*
X3509Y1177D02*
X3513Y1177D01*
X3595Y1177D02*
X3599Y1177D01*
X3743Y1177D02*
X3747Y1177D01*
X4813Y1177D02*
X4822Y1177D01*
X4877Y1177D02*
X4885Y1177D01*
X3476Y1176D02*
X3480Y1176D01*
X3493Y1176D02*
X3497Y1176D01*
X3509Y1176D02*
X3513Y1176D01*
X3595Y1176D02*
X3599Y1176D01*
X3743Y1176D02*
X3747Y1176D01*
X4813Y1176D02*
X4822Y1176D01*
X4877Y1176D02*
X4885Y1176D01*
X3476Y1175D02*
X3480Y1175D01*
X3493Y1175D02*
X3497Y1175D01*
X3509Y1175D02*
X3513Y1175D01*
X3595Y1175D02*
X3599Y1175D01*
X3741Y1175D02*
X3747Y1175D01*
X4813Y1175D02*
X4822Y1175D01*
X4877Y1175D02*
X4885Y1175D01*
X3476Y1174D02*
X3480Y1174D01*
X3493Y1174D02*
X3497Y1174D01*
X3509Y1174D02*
X3513Y1174D01*
X3595Y1174D02*
X3599Y1174D01*
X3739Y1174D02*
X3747Y1174D01*
X4813Y1174D02*
X4822Y1174D01*
X4877Y1174D02*
X4885Y1174D01*
X3476Y1173D02*
X3480Y1173D01*
X3493Y1173D02*
X3497Y1173D01*
X3509Y1173D02*
X3513Y1173D01*
X3595Y1173D02*
X3632Y1173D01*
X3739Y1173D02*
X3747Y1173D01*
X4813Y1173D02*
X4822Y1173D01*
X4877Y1173D02*
X4885Y1173D01*
X3476Y1172D02*
X3480Y1172D01*
X3493Y1172D02*
X3497Y1172D01*
X3509Y1172D02*
X3513Y1172D01*
X3595Y1172D02*
X3633Y1172D01*
X3739Y1172D02*
X3747Y1172D01*
X4813Y1172D02*
X4822Y1172D01*
X4877Y1172D02*
X4885Y1172D01*
X3476Y1171D02*
X3513Y1171D01*
X3595Y1171D02*
X3633Y1171D01*
X3739Y1171D02*
X3747Y1171D01*
X4813Y1171D02*
X4822Y1171D01*
X4877Y1171D02*
X4885Y1171D01*
X3476Y1170D02*
X3513Y1170D01*
X3595Y1170D02*
X3632Y1170D01*
X4813Y1170D02*
X4822Y1170D01*
X4877Y1170D02*
X4885Y1170D01*
X3476Y1169D02*
X3513Y1169D01*
X3595Y1169D02*
X3631Y1169D01*
X4813Y1169D02*
X4822Y1169D01*
X4877Y1169D02*
X4885Y1169D01*
X3476Y1168D02*
X3513Y1168D01*
X4813Y1168D02*
X4822Y1168D01*
X4877Y1168D02*
X4885Y1168D01*
X3476Y1167D02*
X3513Y1167D01*
X4813Y1167D02*
X4822Y1167D01*
X4877Y1167D02*
X4885Y1167D01*
X3476Y1166D02*
X3513Y1166D01*
X4776Y1166D02*
X4779Y1166D01*
X4813Y1166D02*
X4822Y1166D01*
X4877Y1166D02*
X4885Y1166D01*
X4775Y1165D02*
X4781Y1165D01*
X4813Y1165D02*
X4822Y1165D01*
X4877Y1165D02*
X4885Y1165D01*
X4775Y1164D02*
X4782Y1164D01*
X4813Y1164D02*
X4822Y1164D01*
X4877Y1164D02*
X4885Y1164D01*
X4775Y1163D02*
X4783Y1163D01*
X4813Y1163D02*
X4822Y1163D01*
X4877Y1163D02*
X4885Y1163D01*
X4776Y1162D02*
X4783Y1162D01*
X4813Y1162D02*
X4822Y1162D01*
X4877Y1162D02*
X4885Y1162D01*
X4780Y1161D02*
X4784Y1161D01*
X4813Y1161D02*
X4822Y1161D01*
X4877Y1161D02*
X4885Y1161D01*
X4780Y1160D02*
X4784Y1160D01*
X4813Y1160D02*
X4822Y1160D01*
X4877Y1160D02*
X4885Y1160D01*
X4780Y1159D02*
X4784Y1159D01*
X4813Y1159D02*
X4822Y1159D01*
X4877Y1159D02*
X4885Y1159D01*
X3710Y1158D02*
X3714Y1158D01*
X4780Y1158D02*
X4784Y1158D01*
X4813Y1158D02*
X4822Y1158D01*
X4877Y1158D02*
X4885Y1158D01*
X3596Y1157D02*
X3598Y1157D01*
X3630Y1157D02*
X3632Y1157D01*
X3709Y1157D02*
X3717Y1157D01*
X4780Y1157D02*
X4784Y1157D01*
X4813Y1157D02*
X4822Y1157D01*
X4877Y1157D02*
X4885Y1157D01*
X3595Y1156D02*
X3599Y1156D01*
X3629Y1156D02*
X3633Y1156D01*
X3709Y1156D02*
X3721Y1156D01*
X4780Y1156D02*
X4784Y1156D01*
X4813Y1156D02*
X4822Y1156D01*
X4877Y1156D02*
X4885Y1156D01*
X3595Y1155D02*
X3599Y1155D01*
X3629Y1155D02*
X3633Y1155D01*
X3709Y1155D02*
X3724Y1155D01*
X4779Y1155D02*
X4784Y1155D01*
X4813Y1155D02*
X4822Y1155D01*
X4877Y1155D02*
X4885Y1155D01*
X3476Y1154D02*
X3479Y1154D01*
X3501Y1154D02*
X3509Y1154D01*
X3595Y1154D02*
X3599Y1154D01*
X3629Y1154D02*
X3633Y1154D01*
X3711Y1154D02*
X3728Y1154D01*
X4779Y1154D02*
X4784Y1154D01*
X4813Y1154D02*
X4822Y1154D01*
X4876Y1154D02*
X4885Y1154D01*
X3476Y1153D02*
X3481Y1153D01*
X3499Y1153D02*
X3511Y1153D01*
X3595Y1153D02*
X3599Y1153D01*
X3629Y1153D02*
X3633Y1153D01*
X3714Y1153D02*
X3731Y1153D01*
X4778Y1153D02*
X4783Y1153D01*
X4813Y1153D02*
X4885Y1153D01*
X3476Y1152D02*
X3483Y1152D01*
X3498Y1152D02*
X3512Y1152D01*
X3595Y1152D02*
X3599Y1152D01*
X3629Y1152D02*
X3633Y1152D01*
X3717Y1152D02*
X3735Y1152D01*
X4777Y1152D02*
X4782Y1152D01*
X4813Y1152D02*
X4885Y1152D01*
X3476Y1151D02*
X3485Y1151D01*
X3498Y1151D02*
X3512Y1151D01*
X3595Y1151D02*
X3599Y1151D01*
X3629Y1151D02*
X3633Y1151D01*
X3717Y1151D02*
X3738Y1151D01*
X4776Y1151D02*
X4781Y1151D01*
X4814Y1151D02*
X4885Y1151D01*
X3477Y1150D02*
X3486Y1150D01*
X3497Y1150D02*
X3513Y1150D01*
X3595Y1150D02*
X3599Y1150D01*
X3629Y1150D02*
X3633Y1150D01*
X3717Y1150D02*
X3721Y1150D01*
X3724Y1150D02*
X3741Y1150D01*
X4775Y1150D02*
X4780Y1150D01*
X4814Y1150D02*
X4884Y1150D01*
X3479Y1149D02*
X3488Y1149D01*
X3497Y1149D02*
X3501Y1149D01*
X3509Y1149D02*
X3513Y1149D01*
X3595Y1149D02*
X3599Y1149D01*
X3629Y1149D02*
X3633Y1149D01*
X3717Y1149D02*
X3721Y1149D01*
X3728Y1149D02*
X3745Y1149D01*
X4774Y1149D02*
X4779Y1149D01*
X4815Y1149D02*
X4884Y1149D01*
X3481Y1148D02*
X3490Y1148D01*
X3497Y1148D02*
X3501Y1148D01*
X3509Y1148D02*
X3513Y1148D01*
X3595Y1148D02*
X3599Y1148D01*
X3629Y1148D02*
X3633Y1148D01*
X3717Y1148D02*
X3721Y1148D01*
X3731Y1148D02*
X3746Y1148D01*
X4760Y1148D02*
X4783Y1148D01*
X4815Y1148D02*
X4883Y1148D01*
X3482Y1147D02*
X3491Y1147D01*
X3497Y1147D02*
X3501Y1147D01*
X3509Y1147D02*
X3513Y1147D01*
X3595Y1147D02*
X3599Y1147D01*
X3629Y1147D02*
X3633Y1147D01*
X3717Y1147D02*
X3721Y1147D01*
X3735Y1147D02*
X3747Y1147D01*
X4759Y1147D02*
X4784Y1147D01*
X4816Y1147D02*
X4882Y1147D01*
X3484Y1146D02*
X3493Y1146D01*
X3497Y1146D02*
X3501Y1146D01*
X3509Y1146D02*
X3513Y1146D01*
X3595Y1146D02*
X3599Y1146D01*
X3629Y1146D02*
X3633Y1146D01*
X3717Y1146D02*
X3721Y1146D01*
X3734Y1146D02*
X3747Y1146D01*
X4759Y1146D02*
X4784Y1146D01*
X4818Y1146D02*
X4881Y1146D01*
X3486Y1145D02*
X3495Y1145D01*
X3497Y1145D02*
X3501Y1145D01*
X3509Y1145D02*
X3513Y1145D01*
X3595Y1145D02*
X3599Y1145D01*
X3629Y1145D02*
X3633Y1145D01*
X3717Y1145D02*
X3721Y1145D01*
X3731Y1145D02*
X3746Y1145D01*
X4760Y1145D02*
X4783Y1145D01*
X4820Y1145D02*
X4879Y1145D01*
X3487Y1144D02*
X3501Y1144D01*
X3509Y1144D02*
X3513Y1144D01*
X3595Y1144D02*
X3600Y1144D01*
X3628Y1144D02*
X3633Y1144D01*
X3717Y1144D02*
X3721Y1144D01*
X3728Y1144D02*
X3745Y1144D01*
X4761Y1144D02*
X4782Y1144D01*
X3489Y1143D02*
X3501Y1143D01*
X3509Y1143D02*
X3513Y1143D01*
X3596Y1143D02*
X3602Y1143D01*
X3626Y1143D02*
X3632Y1143D01*
X3717Y1143D02*
X3721Y1143D01*
X3724Y1143D02*
X3741Y1143D01*
X3491Y1142D02*
X3501Y1142D01*
X3509Y1142D02*
X3513Y1142D01*
X3596Y1142D02*
X3604Y1142D01*
X3624Y1142D02*
X3632Y1142D01*
X3717Y1142D02*
X3738Y1142D01*
X3493Y1141D02*
X3501Y1141D01*
X3509Y1141D02*
X3513Y1141D01*
X3597Y1141D02*
X3606Y1141D01*
X3622Y1141D02*
X3631Y1141D01*
X3717Y1141D02*
X3734Y1141D01*
X3494Y1140D02*
X3501Y1140D01*
X3509Y1140D02*
X3513Y1140D01*
X3598Y1140D02*
X3608Y1140D01*
X3620Y1140D02*
X3630Y1140D01*
X3714Y1140D02*
X3731Y1140D01*
X3496Y1139D02*
X3501Y1139D01*
X3509Y1139D02*
X3513Y1139D01*
X3600Y1139D02*
X3610Y1139D01*
X3618Y1139D02*
X3628Y1139D01*
X3711Y1139D02*
X3727Y1139D01*
X3497Y1138D02*
X3501Y1138D01*
X3509Y1138D02*
X3513Y1138D01*
X3602Y1138D02*
X3613Y1138D01*
X3615Y1138D02*
X3626Y1138D01*
X3709Y1138D02*
X3724Y1138D01*
X3497Y1137D02*
X3501Y1137D01*
X3509Y1137D02*
X3513Y1137D01*
X3604Y1137D02*
X3624Y1137D01*
X3709Y1137D02*
X3721Y1137D01*
X3497Y1136D02*
X3501Y1136D01*
X3509Y1136D02*
X3513Y1136D01*
X3606Y1136D02*
X3622Y1136D01*
X3709Y1136D02*
X3717Y1136D01*
X3477Y1135D02*
X3513Y1135D01*
X3608Y1135D02*
X3620Y1135D01*
X3710Y1135D02*
X3714Y1135D01*
X3476Y1134D02*
X3513Y1134D01*
X3610Y1134D02*
X3618Y1134D01*
X3476Y1133D02*
X3513Y1133D01*
X3614Y1133D02*
X3614Y1133D01*
X4760Y1133D02*
X4762Y1133D01*
X4769Y1133D02*
X4779Y1133D01*
X3476Y1132D02*
X3513Y1132D01*
X4759Y1132D02*
X4763Y1132D01*
X4769Y1132D02*
X4780Y1132D01*
X3476Y1131D02*
X3513Y1131D01*
X4759Y1131D02*
X4763Y1131D01*
X4769Y1131D02*
X4781Y1131D01*
X4759Y1130D02*
X4763Y1130D01*
X4769Y1130D02*
X4782Y1130D01*
X4759Y1129D02*
X4763Y1129D01*
X4769Y1129D02*
X4772Y1129D01*
X4778Y1129D02*
X4783Y1129D01*
X4759Y1128D02*
X4763Y1128D01*
X4769Y1128D02*
X4772Y1128D01*
X4779Y1128D02*
X4783Y1128D01*
X4759Y1127D02*
X4763Y1127D01*
X4769Y1127D02*
X4772Y1127D01*
X4780Y1127D02*
X4784Y1127D01*
X4759Y1126D02*
X4763Y1126D01*
X4769Y1126D02*
X4772Y1126D01*
X4780Y1126D02*
X4784Y1126D01*
X4759Y1125D02*
X4763Y1125D01*
X4769Y1125D02*
X4772Y1125D01*
X4780Y1125D02*
X4784Y1125D01*
X4759Y1124D02*
X4763Y1124D01*
X4769Y1124D02*
X4772Y1124D01*
X4780Y1124D02*
X4784Y1124D01*
X3727Y1123D02*
X3728Y1123D01*
X4759Y1123D02*
X4763Y1123D01*
X4769Y1123D02*
X4772Y1123D01*
X4780Y1123D02*
X4784Y1123D01*
X4853Y1123D02*
X4877Y1123D01*
X3724Y1122D02*
X3732Y1122D01*
X4759Y1122D02*
X4763Y1122D01*
X4769Y1122D02*
X4772Y1122D01*
X4780Y1122D02*
X4784Y1122D01*
X4815Y1122D02*
X4820Y1122D01*
X4850Y1122D02*
X4880Y1122D01*
X3721Y1121D02*
X3734Y1121D01*
X4759Y1121D02*
X4763Y1121D01*
X4769Y1121D02*
X4772Y1121D01*
X4780Y1121D02*
X4784Y1121D01*
X4814Y1121D02*
X4821Y1121D01*
X4849Y1121D02*
X4881Y1121D01*
X3719Y1120D02*
X3736Y1120D01*
X4759Y1120D02*
X4763Y1120D01*
X4769Y1120D02*
X4772Y1120D01*
X4780Y1120D02*
X4784Y1120D01*
X4814Y1120D02*
X4821Y1120D01*
X4848Y1120D02*
X4882Y1120D01*
X3717Y1119D02*
X3738Y1119D01*
X4759Y1119D02*
X4763Y1119D01*
X4769Y1119D02*
X4772Y1119D01*
X4780Y1119D02*
X4784Y1119D01*
X4813Y1119D02*
X4822Y1119D01*
X4847Y1119D02*
X4883Y1119D01*
X3715Y1118D02*
X3727Y1118D01*
X3729Y1118D02*
X3740Y1118D01*
X4759Y1118D02*
X4764Y1118D01*
X4769Y1118D02*
X4772Y1118D01*
X4780Y1118D02*
X4784Y1118D01*
X4813Y1118D02*
X4822Y1118D01*
X4846Y1118D02*
X4884Y1118D01*
X3713Y1117D02*
X3724Y1117D01*
X3732Y1117D02*
X3742Y1117D01*
X4760Y1117D02*
X4764Y1117D01*
X4769Y1117D02*
X4772Y1117D01*
X4779Y1117D02*
X4783Y1117D01*
X4813Y1117D02*
X4822Y1117D01*
X4846Y1117D02*
X4884Y1117D01*
X3712Y1116D02*
X3722Y1116D01*
X3734Y1116D02*
X3744Y1116D01*
X4760Y1116D02*
X4766Y1116D01*
X4768Y1116D02*
X4773Y1116D01*
X4777Y1116D02*
X4783Y1116D01*
X4813Y1116D02*
X4822Y1116D01*
X4845Y1116D02*
X4885Y1116D01*
X3711Y1115D02*
X3720Y1115D01*
X3736Y1115D02*
X3745Y1115D01*
X4761Y1115D02*
X4782Y1115D01*
X4813Y1115D02*
X4822Y1115D01*
X4845Y1115D02*
X4885Y1115D01*
X3710Y1114D02*
X3718Y1114D01*
X3738Y1114D02*
X3746Y1114D01*
X4762Y1114D02*
X4781Y1114D01*
X4813Y1114D02*
X4822Y1114D01*
X4845Y1114D02*
X4885Y1114D01*
X3710Y1113D02*
X3716Y1113D01*
X3740Y1113D02*
X3746Y1113D01*
X4763Y1113D02*
X4780Y1113D01*
X4813Y1113D02*
X4822Y1113D01*
X4845Y1113D02*
X4853Y1113D01*
X4877Y1113D02*
X4885Y1113D01*
X3709Y1112D02*
X3714Y1112D01*
X3742Y1112D02*
X3746Y1112D01*
X4764Y1112D02*
X4778Y1112D01*
X4813Y1112D02*
X4822Y1112D01*
X4845Y1112D02*
X4853Y1112D01*
X4877Y1112D02*
X4885Y1112D01*
X3709Y1111D02*
X3713Y1111D01*
X3742Y1111D02*
X3747Y1111D01*
X4813Y1111D02*
X4822Y1111D01*
X4845Y1111D02*
X4853Y1111D01*
X4877Y1111D02*
X4885Y1111D01*
X3709Y1110D02*
X3713Y1110D01*
X3743Y1110D02*
X3747Y1110D01*
X4813Y1110D02*
X4822Y1110D01*
X4845Y1110D02*
X4853Y1110D01*
X4877Y1110D02*
X4885Y1110D01*
X3709Y1109D02*
X3713Y1109D01*
X3743Y1109D02*
X3747Y1109D01*
X4813Y1109D02*
X4822Y1109D01*
X4845Y1109D02*
X4853Y1109D01*
X4877Y1109D02*
X4885Y1109D01*
X3709Y1108D02*
X3747Y1108D01*
X4813Y1108D02*
X4822Y1108D01*
X4845Y1108D02*
X4853Y1108D01*
X4877Y1108D02*
X4885Y1108D01*
X3709Y1107D02*
X3747Y1107D01*
X4813Y1107D02*
X4822Y1107D01*
X4845Y1107D02*
X4853Y1107D01*
X4877Y1107D02*
X4885Y1107D01*
X3709Y1106D02*
X3747Y1106D01*
X4813Y1106D02*
X4822Y1106D01*
X4845Y1106D02*
X4853Y1106D01*
X4877Y1106D02*
X4885Y1106D01*
X3709Y1105D02*
X3747Y1105D01*
X4813Y1105D02*
X4822Y1105D01*
X4845Y1105D02*
X4853Y1105D01*
X4877Y1105D02*
X4885Y1105D01*
X3709Y1104D02*
X3747Y1104D01*
X4813Y1104D02*
X4822Y1104D01*
X4845Y1104D02*
X4853Y1104D01*
X4877Y1104D02*
X4885Y1104D01*
X3709Y1103D02*
X3713Y1103D01*
X3743Y1103D02*
X3747Y1103D01*
X4813Y1103D02*
X4822Y1103D01*
X4845Y1103D02*
X4853Y1103D01*
X4877Y1103D02*
X4885Y1103D01*
X3709Y1102D02*
X3713Y1102D01*
X3743Y1102D02*
X3747Y1102D01*
X4813Y1102D02*
X4822Y1102D01*
X4845Y1102D02*
X4853Y1102D01*
X4877Y1102D02*
X4885Y1102D01*
X3709Y1101D02*
X3713Y1101D01*
X3743Y1101D02*
X3747Y1101D01*
X4764Y1101D02*
X4765Y1101D01*
X4813Y1101D02*
X4822Y1101D01*
X4845Y1101D02*
X4853Y1101D01*
X4877Y1101D02*
X4885Y1101D01*
X3709Y1100D02*
X3713Y1100D01*
X3743Y1100D02*
X3747Y1100D01*
X4762Y1100D02*
X4766Y1100D01*
X4813Y1100D02*
X4822Y1100D01*
X4845Y1100D02*
X4853Y1100D01*
X4877Y1100D02*
X4885Y1100D01*
X3710Y1099D02*
X3712Y1099D01*
X3744Y1099D02*
X3746Y1099D01*
X4761Y1099D02*
X4767Y1099D01*
X4813Y1099D02*
X4822Y1099D01*
X4845Y1099D02*
X4853Y1099D01*
X4877Y1099D02*
X4885Y1099D01*
X4760Y1098D02*
X4766Y1098D01*
X4781Y1098D02*
X4783Y1098D01*
X4813Y1098D02*
X4822Y1098D01*
X4845Y1098D02*
X4853Y1098D01*
X4877Y1098D02*
X4885Y1098D01*
X4760Y1097D02*
X4765Y1097D01*
X4780Y1097D02*
X4784Y1097D01*
X4813Y1097D02*
X4822Y1097D01*
X4845Y1097D02*
X4853Y1097D01*
X4877Y1097D02*
X4885Y1097D01*
X4759Y1096D02*
X4763Y1096D01*
X4780Y1096D02*
X4784Y1096D01*
X4813Y1096D02*
X4822Y1096D01*
X4845Y1096D02*
X4853Y1096D01*
X4877Y1096D02*
X4885Y1096D01*
X4759Y1095D02*
X4763Y1095D01*
X4780Y1095D02*
X4784Y1095D01*
X4813Y1095D02*
X4822Y1095D01*
X4845Y1095D02*
X4853Y1095D01*
X4877Y1095D02*
X4885Y1095D01*
X4759Y1094D02*
X4763Y1094D01*
X4780Y1094D02*
X4784Y1094D01*
X4813Y1094D02*
X4822Y1094D01*
X4845Y1094D02*
X4853Y1094D01*
X4877Y1094D02*
X4885Y1094D01*
X4759Y1093D02*
X4763Y1093D01*
X4780Y1093D02*
X4784Y1093D01*
X4813Y1093D02*
X4822Y1093D01*
X4845Y1093D02*
X4853Y1093D01*
X4877Y1093D02*
X4885Y1093D01*
X4759Y1092D02*
X4763Y1092D01*
X4780Y1092D02*
X4784Y1092D01*
X4813Y1092D02*
X4822Y1092D01*
X4845Y1092D02*
X4853Y1092D01*
X4877Y1092D02*
X4885Y1092D01*
X4759Y1091D02*
X4763Y1091D01*
X4780Y1091D02*
X4784Y1091D01*
X4813Y1091D02*
X4822Y1091D01*
X4845Y1091D02*
X4853Y1091D01*
X4877Y1091D02*
X4885Y1091D01*
X4759Y1090D02*
X4763Y1090D01*
X4780Y1090D02*
X4784Y1090D01*
X4813Y1090D02*
X4822Y1090D01*
X4845Y1090D02*
X4853Y1090D01*
X4877Y1090D02*
X4885Y1090D01*
X4759Y1089D02*
X4763Y1089D01*
X4780Y1089D02*
X4784Y1089D01*
X4813Y1089D02*
X4822Y1089D01*
X4845Y1089D02*
X4853Y1089D01*
X4877Y1089D02*
X4885Y1089D01*
X4760Y1088D02*
X4764Y1088D01*
X4780Y1088D02*
X4784Y1088D01*
X4813Y1088D02*
X4822Y1088D01*
X4845Y1088D02*
X4853Y1088D01*
X4877Y1088D02*
X4885Y1088D01*
X4760Y1087D02*
X4791Y1087D01*
X4813Y1087D02*
X4822Y1087D01*
X4845Y1087D02*
X4853Y1087D01*
X4877Y1087D02*
X4885Y1087D01*
X4761Y1086D02*
X4792Y1086D01*
X4813Y1086D02*
X4822Y1086D01*
X4845Y1086D02*
X4853Y1086D01*
X4877Y1086D02*
X4885Y1086D01*
X4762Y1085D02*
X4791Y1085D01*
X4813Y1085D02*
X4853Y1085D01*
X4877Y1085D02*
X4885Y1085D01*
X4763Y1084D02*
X4791Y1084D01*
X4813Y1084D02*
X4853Y1084D01*
X4877Y1084D02*
X4885Y1084D01*
X4780Y1083D02*
X4784Y1083D01*
X4813Y1083D02*
X4853Y1083D01*
X4877Y1083D02*
X4885Y1083D01*
X4780Y1082D02*
X4784Y1082D01*
X4813Y1082D02*
X4852Y1082D01*
X4877Y1082D02*
X4885Y1082D01*
X4780Y1081D02*
X4784Y1081D01*
X4813Y1081D02*
X4852Y1081D01*
X4877Y1081D02*
X4885Y1081D01*
X4781Y1080D02*
X4784Y1080D01*
X4813Y1080D02*
X4851Y1080D01*
X4877Y1080D02*
X4885Y1080D01*
X4782Y1079D02*
X4782Y1079D01*
X4813Y1079D02*
X4850Y1079D01*
X4877Y1079D02*
X4884Y1079D01*
X4813Y1078D02*
X4849Y1078D01*
X4878Y1078D02*
X4884Y1078D01*
X4813Y1077D02*
X4847Y1077D01*
X4879Y1077D02*
X4882Y1077D01*
X4760Y1068D02*
X4779Y1068D01*
X4759Y1067D02*
X4781Y1067D01*
X4759Y1066D02*
X4782Y1066D01*
X4760Y1065D02*
X4783Y1065D01*
X4767Y1064D02*
X4783Y1064D01*
X4780Y1063D02*
X4784Y1063D01*
X4780Y1062D02*
X4784Y1062D01*
X4780Y1061D02*
X4784Y1061D01*
X4780Y1060D02*
X4784Y1060D01*
X4780Y1059D02*
X4784Y1059D01*
X4780Y1058D02*
X4784Y1058D01*
X4780Y1057D02*
X4784Y1057D01*
X4779Y1056D02*
X4783Y1056D01*
X4778Y1055D02*
X4783Y1055D01*
X4822Y1055D02*
X4877Y1055D01*
X4778Y1054D02*
X4782Y1054D01*
X4818Y1054D02*
X4880Y1054D01*
X4777Y1053D02*
X4781Y1053D01*
X4817Y1053D02*
X4881Y1053D01*
X4776Y1052D02*
X4781Y1052D01*
X4816Y1052D02*
X4882Y1052D01*
X4776Y1051D02*
X4780Y1051D01*
X4815Y1051D02*
X4883Y1051D01*
X4760Y1050D02*
X4783Y1050D01*
X4814Y1050D02*
X4884Y1050D01*
X4759Y1049D02*
X4784Y1049D01*
X4814Y1049D02*
X4884Y1049D01*
X4759Y1048D02*
X4784Y1048D01*
X4814Y1048D02*
X4885Y1048D01*
X4760Y1047D02*
X4783Y1047D01*
X4813Y1047D02*
X4885Y1047D01*
X4813Y1046D02*
X4885Y1046D01*
X4813Y1045D02*
X4822Y1045D01*
X4877Y1045D02*
X4885Y1045D01*
X4813Y1044D02*
X4822Y1044D01*
X4877Y1044D02*
X4885Y1044D01*
X4813Y1043D02*
X4822Y1043D01*
X4877Y1043D02*
X4885Y1043D01*
X4813Y1042D02*
X4822Y1042D01*
X4877Y1042D02*
X4885Y1042D01*
X4813Y1041D02*
X4822Y1041D01*
X4877Y1041D02*
X4885Y1041D01*
X4813Y1040D02*
X4822Y1040D01*
X4877Y1040D02*
X4885Y1040D01*
X4813Y1039D02*
X4822Y1039D01*
X4877Y1039D02*
X4885Y1039D01*
X4813Y1038D02*
X4822Y1038D01*
X4877Y1038D02*
X4885Y1038D01*
X4813Y1037D02*
X4822Y1037D01*
X4877Y1037D02*
X4885Y1037D01*
X4761Y1036D02*
X4761Y1036D01*
X4770Y1036D02*
X4777Y1036D01*
X4813Y1036D02*
X4822Y1036D01*
X4877Y1036D02*
X4885Y1036D01*
X4760Y1035D02*
X4762Y1035D01*
X4769Y1035D02*
X4779Y1035D01*
X4813Y1035D02*
X4822Y1035D01*
X4877Y1035D02*
X4885Y1035D01*
X4759Y1034D02*
X4763Y1034D01*
X4769Y1034D02*
X4781Y1034D01*
X4813Y1034D02*
X4822Y1034D01*
X4877Y1034D02*
X4885Y1034D01*
X4759Y1033D02*
X4763Y1033D01*
X4769Y1033D02*
X4782Y1033D01*
X4813Y1033D02*
X4822Y1033D01*
X4877Y1033D02*
X4885Y1033D01*
X4759Y1032D02*
X4763Y1032D01*
X4769Y1032D02*
X4782Y1032D01*
X4813Y1032D02*
X4822Y1032D01*
X4877Y1032D02*
X4885Y1032D01*
X4759Y1031D02*
X4763Y1031D01*
X4769Y1031D02*
X4772Y1031D01*
X4778Y1031D02*
X4783Y1031D01*
X4813Y1031D02*
X4822Y1031D01*
X4877Y1031D02*
X4885Y1031D01*
X4759Y1030D02*
X4763Y1030D01*
X4769Y1030D02*
X4772Y1030D01*
X4779Y1030D02*
X4784Y1030D01*
X4813Y1030D02*
X4822Y1030D01*
X4877Y1030D02*
X4885Y1030D01*
X4759Y1029D02*
X4763Y1029D01*
X4769Y1029D02*
X4772Y1029D01*
X4780Y1029D02*
X4784Y1029D01*
X4813Y1029D02*
X4822Y1029D01*
X4877Y1029D02*
X4885Y1029D01*
X4759Y1028D02*
X4763Y1028D01*
X4769Y1028D02*
X4772Y1028D01*
X4780Y1028D02*
X4784Y1028D01*
X4813Y1028D02*
X4822Y1028D01*
X4877Y1028D02*
X4885Y1028D01*
X4759Y1027D02*
X4763Y1027D01*
X4769Y1027D02*
X4772Y1027D01*
X4780Y1027D02*
X4784Y1027D01*
X4813Y1027D02*
X4822Y1027D01*
X4877Y1027D02*
X4885Y1027D01*
X4759Y1026D02*
X4763Y1026D01*
X4769Y1026D02*
X4772Y1026D01*
X4780Y1026D02*
X4784Y1026D01*
X4813Y1026D02*
X4822Y1026D01*
X4877Y1026D02*
X4885Y1026D01*
X4759Y1025D02*
X4763Y1025D01*
X4769Y1025D02*
X4772Y1025D01*
X4780Y1025D02*
X4784Y1025D01*
X4813Y1025D02*
X4822Y1025D01*
X4877Y1025D02*
X4885Y1025D01*
X4759Y1024D02*
X4763Y1024D01*
X4769Y1024D02*
X4772Y1024D01*
X4780Y1024D02*
X4784Y1024D01*
X4813Y1024D02*
X4822Y1024D01*
X4877Y1024D02*
X4885Y1024D01*
X4759Y1023D02*
X4763Y1023D01*
X4769Y1023D02*
X4772Y1023D01*
X4780Y1023D02*
X4784Y1023D01*
X4813Y1023D02*
X4822Y1023D01*
X4877Y1023D02*
X4885Y1023D01*
X4759Y1022D02*
X4763Y1022D01*
X4769Y1022D02*
X4772Y1022D01*
X4780Y1022D02*
X4784Y1022D01*
X4813Y1022D02*
X4822Y1022D01*
X4877Y1022D02*
X4885Y1022D01*
X4759Y1021D02*
X4763Y1021D01*
X4769Y1021D02*
X4772Y1021D01*
X4780Y1021D02*
X4784Y1021D01*
X4813Y1021D02*
X4822Y1021D01*
X4877Y1021D02*
X4885Y1021D01*
X4760Y1020D02*
X4764Y1020D01*
X4769Y1020D02*
X4772Y1020D01*
X4779Y1020D02*
X4784Y1020D01*
X4813Y1020D02*
X4822Y1020D01*
X4877Y1020D02*
X4885Y1020D01*
X4760Y1019D02*
X4765Y1019D01*
X4769Y1019D02*
X4772Y1019D01*
X4778Y1019D02*
X4783Y1019D01*
X4813Y1019D02*
X4822Y1019D01*
X4877Y1019D02*
X4885Y1019D01*
X4761Y1018D02*
X4782Y1018D01*
X4813Y1018D02*
X4822Y1018D01*
X4876Y1018D02*
X4885Y1018D01*
X4761Y1017D02*
X4782Y1017D01*
X4813Y1017D02*
X4885Y1017D01*
X4762Y1016D02*
X4781Y1016D01*
X4813Y1016D02*
X4885Y1016D01*
X4763Y1015D02*
X4780Y1015D01*
X4814Y1015D02*
X4885Y1015D01*
X4765Y1014D02*
X4778Y1014D01*
X4814Y1014D02*
X4884Y1014D01*
X4815Y1013D02*
X4884Y1013D01*
X4815Y1012D02*
X4883Y1012D01*
X4816Y1011D02*
X4882Y1011D01*
X4818Y1010D02*
X4881Y1010D01*
X4820Y1009D02*
X4878Y1009D01*
X4760Y1003D02*
X4783Y1003D01*
X4759Y1002D02*
X4784Y1002D01*
X4759Y1001D02*
X4784Y1001D01*
X4760Y1000D02*
X4783Y1000D01*
X4762Y999D02*
X4768Y999D01*
X4762Y998D02*
X4767Y998D01*
X4762Y997D02*
X4766Y997D01*
X4761Y996D02*
X4766Y996D01*
X4761Y995D02*
X4765Y995D01*
X4760Y994D02*
X4764Y994D01*
X4760Y993D02*
X4764Y993D01*
X4759Y992D02*
X4763Y992D01*
X4759Y991D02*
X4763Y991D01*
X4759Y990D02*
X4763Y990D01*
X4759Y989D02*
X4763Y989D01*
X4759Y988D02*
X4763Y988D01*
X4759Y987D02*
X4763Y987D01*
X4817Y987D02*
X4818Y987D01*
X4853Y987D02*
X4877Y987D01*
X4760Y986D02*
X4770Y986D01*
X4815Y986D02*
X4820Y986D01*
X4850Y986D02*
X4880Y986D01*
X4760Y985D02*
X4783Y985D01*
X4814Y985D02*
X4821Y985D01*
X4849Y985D02*
X4881Y985D01*
X4761Y984D02*
X4784Y984D01*
X4814Y984D02*
X4821Y984D01*
X4848Y984D02*
X4883Y984D01*
X4762Y983D02*
X4784Y983D01*
X4813Y983D02*
X4822Y983D01*
X4847Y983D02*
X4883Y983D01*
X4764Y982D02*
X4783Y982D01*
X4813Y982D02*
X4822Y982D01*
X4846Y982D02*
X4884Y982D01*
X4813Y981D02*
X4822Y981D01*
X4846Y981D02*
X4884Y981D01*
X4813Y980D02*
X4822Y980D01*
X4845Y980D02*
X4885Y980D01*
X4813Y979D02*
X4822Y979D01*
X4845Y979D02*
X4885Y979D01*
X4813Y978D02*
X4822Y978D01*
X4845Y978D02*
X4885Y978D01*
X4813Y977D02*
X4822Y977D01*
X4845Y977D02*
X4853Y977D01*
X4877Y977D02*
X4885Y977D01*
X4813Y976D02*
X4822Y976D01*
X4845Y976D02*
X4853Y976D01*
X4877Y976D02*
X4885Y976D01*
X4813Y975D02*
X4822Y975D01*
X4845Y975D02*
X4853Y975D01*
X4877Y975D02*
X4885Y975D01*
X4813Y974D02*
X4822Y974D01*
X4845Y974D02*
X4853Y974D01*
X4877Y974D02*
X4885Y974D01*
X4813Y973D02*
X4822Y973D01*
X4845Y973D02*
X4853Y973D01*
X4877Y973D02*
X4885Y973D01*
X4813Y972D02*
X4822Y972D01*
X4845Y972D02*
X4853Y972D01*
X4877Y972D02*
X4885Y972D01*
X4768Y971D02*
X4769Y971D01*
X4783Y971D02*
X4785Y971D01*
X4813Y971D02*
X4822Y971D01*
X4845Y971D02*
X4853Y971D01*
X4877Y971D02*
X4885Y971D01*
X4764Y970D02*
X4773Y970D01*
X4780Y970D02*
X4788Y970D01*
X4813Y970D02*
X4822Y970D01*
X4845Y970D02*
X4853Y970D01*
X4877Y970D02*
X4885Y970D01*
X4763Y969D02*
X4775Y969D01*
X4778Y969D02*
X4790Y969D01*
X4813Y969D02*
X4822Y969D01*
X4845Y969D02*
X4853Y969D01*
X4877Y969D02*
X4885Y969D01*
X4762Y968D02*
X4791Y968D01*
X4813Y968D02*
X4822Y968D01*
X4845Y968D02*
X4853Y968D01*
X4877Y968D02*
X4885Y968D01*
X4761Y967D02*
X4792Y967D01*
X4813Y967D02*
X4822Y967D01*
X4845Y967D02*
X4853Y967D01*
X4877Y967D02*
X4885Y967D01*
X4760Y966D02*
X4766Y966D01*
X4772Y966D02*
X4781Y966D01*
X4787Y966D02*
X4792Y966D01*
X4813Y966D02*
X4822Y966D01*
X4845Y966D02*
X4853Y966D01*
X4877Y966D02*
X4885Y966D01*
X4760Y965D02*
X4764Y965D01*
X4773Y965D02*
X4779Y965D01*
X4789Y965D02*
X4793Y965D01*
X4813Y965D02*
X4822Y965D01*
X4845Y965D02*
X4853Y965D01*
X4877Y965D02*
X4885Y965D01*
X4759Y964D02*
X4763Y964D01*
X4774Y964D02*
X4779Y964D01*
X4789Y964D02*
X4793Y964D01*
X4813Y964D02*
X4822Y964D01*
X4845Y964D02*
X4853Y964D01*
X4877Y964D02*
X4885Y964D01*
X4759Y963D02*
X4763Y963D01*
X4774Y963D02*
X4778Y963D01*
X4790Y963D02*
X4793Y963D01*
X4813Y963D02*
X4822Y963D01*
X4845Y963D02*
X4853Y963D01*
X4877Y963D02*
X4885Y963D01*
X4759Y962D02*
X4763Y962D01*
X4775Y962D02*
X4778Y962D01*
X4790Y962D02*
X4793Y962D01*
X4813Y962D02*
X4822Y962D01*
X4845Y962D02*
X4853Y962D01*
X4877Y962D02*
X4885Y962D01*
X4759Y961D02*
X4763Y961D01*
X4775Y961D02*
X4778Y961D01*
X4790Y961D02*
X4794Y961D01*
X4813Y961D02*
X4822Y961D01*
X4845Y961D02*
X4853Y961D01*
X4877Y961D02*
X4885Y961D01*
X4759Y960D02*
X4763Y960D01*
X4775Y960D02*
X4778Y960D01*
X4790Y960D02*
X4794Y960D01*
X4813Y960D02*
X4822Y960D01*
X4845Y960D02*
X4853Y960D01*
X4877Y960D02*
X4885Y960D01*
X4759Y959D02*
X4763Y959D01*
X4775Y959D02*
X4778Y959D01*
X4790Y959D02*
X4794Y959D01*
X4813Y959D02*
X4822Y959D01*
X4845Y959D02*
X4853Y959D01*
X4877Y959D02*
X4885Y959D01*
X4759Y958D02*
X4763Y958D01*
X4775Y958D02*
X4778Y958D01*
X4790Y958D02*
X4794Y958D01*
X4813Y958D02*
X4822Y958D01*
X4845Y958D02*
X4853Y958D01*
X4877Y958D02*
X4885Y958D01*
X4759Y957D02*
X4763Y957D01*
X4775Y957D02*
X4778Y957D01*
X4790Y957D02*
X4794Y957D01*
X4813Y957D02*
X4822Y957D01*
X4845Y957D02*
X4853Y957D01*
X4877Y957D02*
X4885Y957D01*
X4759Y956D02*
X4763Y956D01*
X4775Y956D02*
X4778Y956D01*
X4790Y956D02*
X4794Y956D01*
X4813Y956D02*
X4822Y956D01*
X4845Y956D02*
X4853Y956D01*
X4877Y956D02*
X4885Y956D01*
X4759Y955D02*
X4763Y955D01*
X4775Y955D02*
X4778Y955D01*
X4790Y955D02*
X4794Y955D01*
X4813Y955D02*
X4822Y955D01*
X4845Y955D02*
X4853Y955D01*
X4877Y955D02*
X4885Y955D01*
X206Y954D02*
X215Y954D01*
X4759Y954D02*
X4763Y954D01*
X4775Y954D02*
X4778Y954D01*
X4790Y954D02*
X4794Y954D01*
X4813Y954D02*
X4822Y954D01*
X4845Y954D02*
X4853Y954D01*
X4877Y954D02*
X4885Y954D01*
X206Y953D02*
X215Y953D01*
X4759Y953D02*
X4794Y953D01*
X4813Y953D02*
X4822Y953D01*
X4845Y953D02*
X4853Y953D01*
X4877Y953D02*
X4885Y953D01*
X206Y952D02*
X215Y952D01*
X4759Y952D02*
X4794Y952D01*
X4813Y952D02*
X4822Y952D01*
X4845Y952D02*
X4853Y952D01*
X4877Y952D02*
X4885Y952D01*
X206Y951D02*
X215Y951D01*
X4759Y951D02*
X4794Y951D01*
X4813Y951D02*
X4822Y951D01*
X4845Y951D02*
X4853Y951D01*
X4877Y951D02*
X4885Y951D01*
X206Y950D02*
X215Y950D01*
X4759Y950D02*
X4794Y950D01*
X4813Y950D02*
X4853Y950D01*
X4877Y950D02*
X4885Y950D01*
X206Y949D02*
X215Y949D01*
X4759Y949D02*
X4793Y949D01*
X4813Y949D02*
X4853Y949D01*
X4877Y949D02*
X4885Y949D01*
X206Y948D02*
X215Y948D01*
X4813Y948D02*
X4853Y948D01*
X4877Y948D02*
X4885Y948D01*
X206Y947D02*
X215Y947D01*
X4813Y947D02*
X4853Y947D01*
X4877Y947D02*
X4885Y947D01*
X206Y946D02*
X215Y946D01*
X4813Y946D02*
X4852Y946D01*
X4877Y946D02*
X4885Y946D01*
X206Y945D02*
X215Y945D01*
X4813Y945D02*
X4852Y945D01*
X4877Y945D02*
X4885Y945D01*
X206Y944D02*
X215Y944D01*
X4813Y944D02*
X4851Y944D01*
X4877Y944D02*
X4885Y944D01*
X206Y943D02*
X215Y943D01*
X4813Y943D02*
X4850Y943D01*
X4877Y943D02*
X4884Y943D01*
X206Y942D02*
X215Y942D01*
X4813Y942D02*
X4849Y942D01*
X4878Y942D02*
X4884Y942D01*
X206Y941D02*
X215Y941D01*
X4813Y941D02*
X4847Y941D01*
X4880Y941D02*
X4882Y941D01*
X206Y940D02*
X215Y940D01*
X206Y939D02*
X215Y939D01*
X206Y938D02*
X215Y938D01*
X206Y937D02*
X215Y937D01*
X206Y936D02*
X215Y936D01*
X206Y935D02*
X215Y935D01*
X206Y934D02*
X215Y934D01*
X206Y933D02*
X215Y933D01*
X206Y932D02*
X215Y932D01*
X206Y931D02*
X215Y931D01*
X206Y930D02*
X215Y930D01*
X206Y929D02*
X215Y929D01*
X206Y928D02*
X215Y928D01*
X206Y927D02*
X215Y927D01*
X206Y926D02*
X215Y926D01*
X206Y925D02*
X215Y925D01*
X206Y924D02*
X215Y924D01*
X206Y923D02*
X215Y923D01*
X206Y922D02*
X215Y922D01*
X206Y921D02*
X215Y921D01*
X206Y920D02*
X215Y920D01*
X206Y919D02*
X215Y919D01*
X206Y918D02*
X215Y918D01*
X206Y917D02*
X215Y917D01*
X206Y916D02*
X215Y916D01*
X206Y915D02*
X215Y915D01*
X206Y914D02*
X215Y914D01*
X206Y913D02*
X215Y913D01*
X206Y912D02*
X215Y912D01*
X206Y911D02*
X215Y911D01*
X206Y910D02*
X215Y910D01*
X206Y909D02*
X215Y909D01*
X206Y908D02*
X215Y908D01*
X206Y907D02*
X215Y907D01*
X4760Y905D02*
X4779Y905D01*
X4759Y904D02*
X4781Y904D01*
X4759Y903D02*
X4782Y903D01*
X4760Y902D02*
X4783Y902D01*
X4771Y901D02*
X4783Y901D01*
X4780Y900D02*
X4784Y900D01*
X4780Y899D02*
X4784Y899D01*
X4780Y898D02*
X4784Y898D01*
X4780Y897D02*
X4784Y897D01*
X4780Y896D02*
X4784Y896D01*
X4780Y895D02*
X4784Y895D01*
X4779Y894D02*
X4784Y894D01*
X4779Y893D02*
X4783Y893D01*
X4778Y892D02*
X4783Y892D01*
X4778Y891D02*
X4782Y891D01*
X4777Y890D02*
X4781Y890D01*
X4776Y889D02*
X4781Y889D01*
X4775Y888D02*
X4781Y888D01*
X4760Y887D02*
X4783Y887D01*
X4759Y886D02*
X4784Y886D01*
X4759Y885D02*
X4784Y885D01*
X4760Y884D02*
X4783Y884D01*
X4760Y873D02*
X4770Y873D01*
X4759Y872D02*
X4780Y872D01*
X4759Y871D02*
X4782Y871D01*
X4760Y870D02*
X4782Y870D01*
X4761Y869D02*
X4783Y869D01*
X4761Y868D02*
X4765Y868D01*
X4770Y868D02*
X4774Y868D01*
X4779Y868D02*
X4784Y868D01*
X4760Y867D02*
X4765Y867D01*
X4771Y867D02*
X4774Y867D01*
X4780Y867D02*
X4784Y867D01*
X4760Y866D02*
X4764Y866D01*
X4771Y866D02*
X4774Y866D01*
X4780Y866D02*
X4784Y866D01*
X4759Y865D02*
X4764Y865D01*
X4771Y865D02*
X4774Y865D01*
X4780Y865D02*
X4784Y865D01*
X4759Y864D02*
X4763Y864D01*
X4771Y864D02*
X4774Y864D01*
X4780Y864D02*
X4784Y864D01*
X4759Y863D02*
X4763Y863D01*
X4771Y863D02*
X4774Y863D01*
X4780Y863D02*
X4784Y863D01*
X4759Y862D02*
X4763Y862D01*
X4771Y862D02*
X4774Y862D01*
X4780Y862D02*
X4784Y862D01*
X4759Y861D02*
X4763Y861D01*
X4771Y861D02*
X4774Y861D01*
X4780Y861D02*
X4784Y861D01*
X4759Y860D02*
X4763Y860D01*
X4771Y860D02*
X4774Y860D01*
X4780Y860D02*
X4784Y860D01*
X4759Y859D02*
X4763Y859D01*
X4771Y859D02*
X4774Y859D01*
X4780Y859D02*
X4784Y859D01*
X4759Y858D02*
X4763Y858D01*
X4771Y858D02*
X4774Y858D01*
X4780Y858D02*
X4784Y858D01*
X4759Y857D02*
X4763Y857D01*
X4771Y857D02*
X4774Y857D01*
X4780Y857D02*
X4784Y857D01*
X4759Y856D02*
X4764Y856D01*
X4770Y856D02*
X4774Y856D01*
X4781Y856D02*
X4783Y856D01*
X4760Y855D02*
X4774Y855D01*
X4760Y854D02*
X4773Y854D01*
X4761Y853D02*
X4772Y853D01*
X4762Y852D02*
X4771Y852D01*
X4764Y851D02*
X4769Y851D01*
X4823Y851D02*
X4825Y851D01*
X4873Y851D02*
X4874Y851D01*
X4819Y850D02*
X4828Y850D01*
X4870Y850D02*
X4878Y850D01*
X4818Y849D02*
X4829Y849D01*
X4870Y849D02*
X4879Y849D01*
X4816Y848D02*
X4830Y848D01*
X4869Y848D02*
X4881Y848D01*
X4816Y847D02*
X4832Y847D01*
X4869Y847D02*
X4882Y847D01*
X4815Y846D02*
X4833Y846D01*
X4869Y846D02*
X4882Y846D01*
X4814Y845D02*
X4834Y845D01*
X4869Y845D02*
X4883Y845D01*
X4814Y844D02*
X4836Y844D01*
X4869Y844D02*
X4884Y844D01*
X4814Y843D02*
X4837Y843D01*
X4870Y843D02*
X4884Y843D01*
X4813Y842D02*
X4838Y842D01*
X4872Y842D02*
X4885Y842D01*
X4813Y841D02*
X4822Y841D01*
X4825Y841D02*
X4839Y841D01*
X4875Y841D02*
X4885Y841D01*
X4813Y840D02*
X4822Y840D01*
X4826Y840D02*
X4841Y840D01*
X4876Y840D02*
X4885Y840D01*
X4813Y839D02*
X4822Y839D01*
X4827Y839D02*
X4842Y839D01*
X4877Y839D02*
X4885Y839D01*
X4760Y838D02*
X4762Y838D01*
X4813Y838D02*
X4822Y838D01*
X4829Y838D02*
X4843Y838D01*
X4877Y838D02*
X4885Y838D01*
X4759Y837D02*
X4763Y837D01*
X4813Y837D02*
X4822Y837D01*
X4830Y837D02*
X4845Y837D01*
X4877Y837D02*
X4885Y837D01*
X4759Y836D02*
X4763Y836D01*
X4813Y836D02*
X4822Y836D01*
X4831Y836D02*
X4846Y836D01*
X4877Y836D02*
X4885Y836D01*
X4759Y835D02*
X4763Y835D01*
X4813Y835D02*
X4822Y835D01*
X4832Y835D02*
X4847Y835D01*
X4877Y835D02*
X4885Y835D01*
X4759Y834D02*
X4763Y834D01*
X4813Y834D02*
X4822Y834D01*
X4834Y834D02*
X4848Y834D01*
X4877Y834D02*
X4885Y834D01*
X4759Y833D02*
X4763Y833D01*
X4813Y833D02*
X4822Y833D01*
X4835Y833D02*
X4850Y833D01*
X4877Y833D02*
X4885Y833D01*
X4759Y832D02*
X4763Y832D01*
X4813Y832D02*
X4822Y832D01*
X4836Y832D02*
X4851Y832D01*
X4877Y832D02*
X4885Y832D01*
X4759Y831D02*
X4783Y831D01*
X4791Y831D02*
X4795Y831D01*
X4813Y831D02*
X4822Y831D01*
X4838Y831D02*
X4852Y831D01*
X4877Y831D02*
X4885Y831D01*
X4759Y830D02*
X4784Y830D01*
X4790Y830D02*
X4795Y830D01*
X4813Y830D02*
X4822Y830D01*
X4839Y830D02*
X4854Y830D01*
X4877Y830D02*
X4885Y830D01*
X4759Y829D02*
X4784Y829D01*
X4790Y829D02*
X4795Y829D01*
X4813Y829D02*
X4822Y829D01*
X4840Y829D02*
X4855Y829D01*
X4877Y829D02*
X4885Y829D01*
X4759Y828D02*
X4784Y828D01*
X4790Y828D02*
X4795Y828D01*
X4813Y828D02*
X4822Y828D01*
X4842Y828D02*
X4856Y828D01*
X4877Y828D02*
X4885Y828D01*
X4759Y827D02*
X4763Y827D01*
X4780Y827D02*
X4784Y827D01*
X4790Y827D02*
X4795Y827D01*
X4813Y827D02*
X4822Y827D01*
X4843Y827D02*
X4857Y827D01*
X4877Y827D02*
X4885Y827D01*
X4759Y826D02*
X4763Y826D01*
X4780Y826D02*
X4784Y826D01*
X4790Y826D02*
X4795Y826D01*
X4813Y826D02*
X4822Y826D01*
X4844Y826D02*
X4859Y826D01*
X4877Y826D02*
X4885Y826D01*
X4759Y825D02*
X4763Y825D01*
X4780Y825D02*
X4784Y825D01*
X4792Y825D02*
X4794Y825D01*
X4813Y825D02*
X4822Y825D01*
X4845Y825D02*
X4860Y825D01*
X4877Y825D02*
X4885Y825D01*
X188Y824D02*
X218Y824D01*
X4759Y824D02*
X4763Y824D01*
X4780Y824D02*
X4784Y824D01*
X4813Y824D02*
X4822Y824D01*
X4847Y824D02*
X4861Y824D01*
X4877Y824D02*
X4885Y824D01*
X187Y823D02*
X219Y823D01*
X4759Y823D02*
X4763Y823D01*
X4780Y823D02*
X4784Y823D01*
X4813Y823D02*
X4822Y823D01*
X4848Y823D02*
X4863Y823D01*
X4877Y823D02*
X4885Y823D01*
X187Y822D02*
X219Y822D01*
X4759Y822D02*
X4763Y822D01*
X4781Y822D02*
X4784Y822D01*
X4813Y822D02*
X4822Y822D01*
X4849Y822D02*
X4864Y822D01*
X4877Y822D02*
X4885Y822D01*
X187Y821D02*
X219Y821D01*
X4760Y821D02*
X4762Y821D01*
X4781Y821D02*
X4783Y821D01*
X4813Y821D02*
X4822Y821D01*
X4851Y821D02*
X4865Y821D01*
X4877Y821D02*
X4885Y821D01*
X187Y820D02*
X191Y820D01*
X205Y820D02*
X208Y820D01*
X215Y820D02*
X219Y820D01*
X4813Y820D02*
X4822Y820D01*
X4852Y820D02*
X4866Y820D01*
X4877Y820D02*
X4885Y820D01*
X188Y819D02*
X190Y819D01*
X205Y819D02*
X208Y819D01*
X216Y819D02*
X219Y819D01*
X4813Y819D02*
X4822Y819D01*
X4853Y819D02*
X4868Y819D01*
X4877Y819D02*
X4885Y819D01*
X205Y818D02*
X208Y818D01*
X216Y818D02*
X219Y818D01*
X4813Y818D02*
X4822Y818D01*
X4854Y818D02*
X4869Y818D01*
X4877Y818D02*
X4885Y818D01*
X205Y817D02*
X208Y817D01*
X216Y817D02*
X219Y817D01*
X4813Y817D02*
X4822Y817D01*
X4856Y817D02*
X4870Y817D01*
X4877Y817D02*
X4885Y817D01*
X205Y816D02*
X208Y816D01*
X216Y816D02*
X219Y816D01*
X4813Y816D02*
X4822Y816D01*
X4857Y816D02*
X4872Y816D01*
X4877Y816D02*
X4885Y816D01*
X205Y815D02*
X208Y815D01*
X216Y815D02*
X219Y815D01*
X4813Y815D02*
X4823Y815D01*
X4858Y815D02*
X4873Y815D01*
X4877Y815D02*
X4885Y815D01*
X205Y814D02*
X208Y814D01*
X216Y814D02*
X219Y814D01*
X4814Y814D02*
X4825Y814D01*
X4860Y814D02*
X4885Y814D01*
X205Y813D02*
X208Y813D01*
X216Y813D02*
X219Y813D01*
X4814Y813D02*
X4828Y813D01*
X4861Y813D02*
X4885Y813D01*
X205Y812D02*
X208Y812D01*
X216Y812D02*
X219Y812D01*
X4814Y812D02*
X4829Y812D01*
X4862Y812D02*
X4885Y812D01*
X205Y811D02*
X208Y811D01*
X216Y811D02*
X219Y811D01*
X4815Y811D02*
X4829Y811D01*
X4863Y811D02*
X4884Y811D01*
X205Y810D02*
X208Y810D01*
X216Y810D02*
X219Y810D01*
X4816Y810D02*
X4829Y810D01*
X4865Y810D02*
X4884Y810D01*
X205Y809D02*
X208Y809D01*
X216Y809D02*
X219Y809D01*
X4816Y809D02*
X4830Y809D01*
X4866Y809D02*
X4883Y809D01*
X205Y808D02*
X208Y808D01*
X215Y808D02*
X219Y808D01*
X4776Y808D02*
X4779Y808D01*
X4817Y808D02*
X4829Y808D01*
X4867Y808D02*
X4882Y808D01*
X205Y807D02*
X219Y807D01*
X4775Y807D02*
X4781Y807D01*
X4819Y807D02*
X4829Y807D01*
X4869Y807D02*
X4881Y807D01*
X205Y806D02*
X219Y806D01*
X4775Y806D02*
X4782Y806D01*
X4820Y806D02*
X4828Y806D01*
X4870Y806D02*
X4880Y806D01*
X205Y805D02*
X219Y805D01*
X4775Y805D02*
X4783Y805D01*
X4823Y805D02*
X4827Y805D01*
X4873Y805D02*
X4877Y805D01*
X206Y804D02*
X218Y804D01*
X4776Y804D02*
X4783Y804D01*
X4780Y803D02*
X4784Y803D01*
X4780Y802D02*
X4784Y802D01*
X4780Y801D02*
X4784Y801D01*
X4780Y800D02*
X4784Y800D01*
X4780Y799D02*
X4784Y799D01*
X4780Y798D02*
X4784Y798D01*
X4780Y797D02*
X4784Y797D01*
X4779Y796D02*
X4784Y796D01*
X4778Y795D02*
X4783Y795D01*
X188Y794D02*
X190Y794D01*
X209Y794D02*
X215Y794D01*
X4777Y794D02*
X4782Y794D01*
X187Y793D02*
X191Y793D01*
X208Y793D02*
X216Y793D01*
X4776Y793D02*
X4781Y793D01*
X187Y792D02*
X193Y792D01*
X206Y792D02*
X217Y792D01*
X4775Y792D02*
X4780Y792D01*
X188Y791D02*
X195Y791D01*
X206Y791D02*
X218Y791D01*
X4775Y791D02*
X4780Y791D01*
X189Y790D02*
X197Y790D01*
X205Y790D02*
X210Y790D01*
X214Y790D02*
X218Y790D01*
X4761Y790D02*
X4782Y790D01*
X191Y789D02*
X198Y789D01*
X205Y789D02*
X208Y789D01*
X215Y789D02*
X219Y789D01*
X4760Y789D02*
X4784Y789D01*
X193Y788D02*
X200Y788D01*
X205Y788D02*
X208Y788D01*
X216Y788D02*
X219Y788D01*
X4759Y788D02*
X4784Y788D01*
X194Y787D02*
X202Y787D01*
X205Y787D02*
X208Y787D01*
X216Y787D02*
X219Y787D01*
X4759Y787D02*
X4784Y787D01*
X196Y786D02*
X203Y786D01*
X205Y786D02*
X208Y786D01*
X216Y786D02*
X219Y786D01*
X4760Y786D02*
X4783Y786D01*
X198Y785D02*
X208Y785D01*
X216Y785D02*
X219Y785D01*
X199Y784D02*
X208Y784D01*
X216Y784D02*
X219Y784D01*
X201Y783D02*
X208Y783D01*
X216Y783D02*
X219Y783D01*
X4817Y783D02*
X4818Y783D01*
X4865Y783D02*
X4873Y783D01*
X203Y782D02*
X208Y782D01*
X216Y782D02*
X219Y782D01*
X4815Y782D02*
X4820Y782D01*
X4861Y782D02*
X4876Y782D01*
X205Y781D02*
X208Y781D01*
X216Y781D02*
X219Y781D01*
X4814Y781D02*
X4822Y781D01*
X4860Y781D02*
X4878Y781D01*
X205Y780D02*
X208Y780D01*
X216Y780D02*
X219Y780D01*
X4814Y780D02*
X4824Y780D01*
X4858Y780D02*
X4880Y780D01*
X205Y779D02*
X208Y779D01*
X216Y779D02*
X219Y779D01*
X4813Y779D02*
X4825Y779D01*
X4857Y779D02*
X4881Y779D01*
X205Y778D02*
X208Y778D01*
X215Y778D02*
X219Y778D01*
X4813Y778D02*
X4827Y778D01*
X4856Y778D02*
X4882Y778D01*
X188Y777D02*
X219Y777D01*
X4813Y777D02*
X4829Y777D01*
X4855Y777D02*
X4883Y777D01*
X187Y776D02*
X219Y776D01*
X4814Y776D02*
X4830Y776D01*
X4855Y776D02*
X4883Y776D01*
X188Y775D02*
X219Y775D01*
X4760Y775D02*
X4793Y775D01*
X4815Y775D02*
X4832Y775D01*
X4854Y775D02*
X4884Y775D01*
X188Y774D02*
X219Y774D01*
X4759Y774D02*
X4793Y774D01*
X4816Y774D02*
X4834Y774D01*
X4854Y774D02*
X4884Y774D01*
X4759Y773D02*
X4793Y773D01*
X4818Y773D02*
X4836Y773D01*
X4853Y773D02*
X4864Y773D01*
X4874Y773D02*
X4884Y773D01*
X4760Y772D02*
X4793Y772D01*
X4819Y772D02*
X4837Y772D01*
X4853Y772D02*
X4863Y772D01*
X4875Y772D02*
X4885Y772D01*
X4762Y771D02*
X4768Y771D01*
X4775Y771D02*
X4781Y771D01*
X4821Y771D02*
X4839Y771D01*
X4853Y771D02*
X4862Y771D01*
X4876Y771D02*
X4885Y771D01*
X4761Y770D02*
X4766Y770D01*
X4777Y770D02*
X4782Y770D01*
X4823Y770D02*
X4841Y770D01*
X4853Y770D02*
X4861Y770D01*
X4876Y770D02*
X4885Y770D01*
X4761Y769D02*
X4766Y769D01*
X4778Y769D02*
X4782Y769D01*
X4825Y769D02*
X4842Y769D01*
X4853Y769D02*
X4861Y769D01*
X4877Y769D02*
X4885Y769D01*
X4760Y768D02*
X4765Y768D01*
X4778Y768D02*
X4783Y768D01*
X4826Y768D02*
X4844Y768D01*
X4853Y768D02*
X4861Y768D01*
X4877Y768D02*
X4885Y768D01*
X4760Y767D02*
X4764Y767D01*
X4779Y767D02*
X4784Y767D01*
X4828Y767D02*
X4846Y767D01*
X4853Y767D02*
X4861Y767D01*
X4877Y767D02*
X4885Y767D01*
X4759Y766D02*
X4763Y766D01*
X4780Y766D02*
X4784Y766D01*
X4830Y766D02*
X4848Y766D01*
X4853Y766D02*
X4861Y766D01*
X4877Y766D02*
X4885Y766D01*
X4759Y765D02*
X4763Y765D01*
X4780Y765D02*
X4784Y765D01*
X4831Y765D02*
X4849Y765D01*
X4853Y765D02*
X4861Y765D01*
X4877Y765D02*
X4885Y765D01*
X4759Y764D02*
X4763Y764D01*
X4780Y764D02*
X4784Y764D01*
X4833Y764D02*
X4851Y764D01*
X4853Y764D02*
X4861Y764D01*
X4877Y764D02*
X4885Y764D01*
X4759Y763D02*
X4763Y763D01*
X4780Y763D02*
X4784Y763D01*
X4835Y763D02*
X4861Y763D01*
X4877Y763D02*
X4885Y763D01*
X4759Y762D02*
X4763Y762D01*
X4780Y762D02*
X4784Y762D01*
X4837Y762D02*
X4861Y762D01*
X4877Y762D02*
X4885Y762D01*
X4759Y761D02*
X4763Y761D01*
X4780Y761D02*
X4784Y761D01*
X4838Y761D02*
X4861Y761D01*
X4877Y761D02*
X4885Y761D01*
X4759Y760D02*
X4763Y760D01*
X4780Y760D02*
X4784Y760D01*
X4840Y760D02*
X4861Y760D01*
X4877Y760D02*
X4885Y760D01*
X4760Y759D02*
X4764Y759D01*
X4779Y759D02*
X4783Y759D01*
X4842Y759D02*
X4861Y759D01*
X4877Y759D02*
X4885Y759D01*
X4760Y758D02*
X4765Y758D01*
X4778Y758D02*
X4783Y758D01*
X4843Y758D02*
X4861Y758D01*
X4877Y758D02*
X4885Y758D01*
X4761Y757D02*
X4782Y757D01*
X4845Y757D02*
X4861Y757D01*
X4877Y757D02*
X4885Y757D01*
X4762Y756D02*
X4781Y756D01*
X4847Y756D02*
X4861Y756D01*
X4877Y756D02*
X4885Y756D01*
X4763Y755D02*
X4780Y755D01*
X4849Y755D02*
X4861Y755D01*
X4877Y755D02*
X4885Y755D01*
X4764Y754D02*
X4779Y754D01*
X4850Y754D02*
X4861Y754D01*
X4877Y754D02*
X4885Y754D01*
X4852Y753D02*
X4861Y753D01*
X4877Y753D02*
X4885Y753D01*
X4853Y752D02*
X4861Y752D01*
X4877Y752D02*
X4885Y752D01*
X4853Y751D02*
X4861Y751D01*
X4877Y751D02*
X4885Y751D01*
X4853Y750D02*
X4861Y750D01*
X4877Y750D02*
X4885Y750D01*
X4853Y749D02*
X4861Y749D01*
X4877Y749D02*
X4885Y749D01*
X4853Y748D02*
X4861Y748D01*
X4877Y748D02*
X4885Y748D01*
X4853Y747D02*
X4861Y747D01*
X4877Y747D02*
X4885Y747D01*
X4818Y746D02*
X4885Y746D01*
X4815Y745D02*
X4885Y745D01*
X4814Y744D02*
X4885Y744D01*
X4761Y743D02*
X4761Y743D01*
X4814Y743D02*
X4885Y743D01*
X4760Y742D02*
X4764Y742D01*
X4813Y742D02*
X4885Y742D01*
X4759Y741D02*
X4768Y741D01*
X4813Y741D02*
X4885Y741D01*
X4759Y740D02*
X4771Y740D01*
X4813Y740D02*
X4885Y740D01*
X4760Y739D02*
X4775Y739D01*
X4814Y739D02*
X4885Y739D01*
X4763Y738D02*
X4778Y738D01*
X4815Y738D02*
X4885Y738D01*
X4766Y737D02*
X4781Y737D01*
X4816Y737D02*
X4885Y737D01*
X4767Y736D02*
X4785Y736D01*
X4767Y735D02*
X4771Y735D01*
X4773Y735D02*
X4788Y735D01*
X4767Y734D02*
X4770Y734D01*
X4776Y734D02*
X4792Y734D01*
X4767Y733D02*
X4770Y733D01*
X4780Y733D02*
X4793Y733D01*
X4767Y732D02*
X4770Y732D01*
X4783Y732D02*
X4793Y732D01*
X4767Y731D02*
X4770Y731D01*
X4782Y731D02*
X4793Y731D01*
X4767Y730D02*
X4770Y730D01*
X4778Y730D02*
X4792Y730D01*
X4767Y729D02*
X4770Y729D01*
X4775Y729D02*
X4790Y729D01*
X4767Y728D02*
X4787Y728D01*
X4767Y727D02*
X4783Y727D01*
X4764Y726D02*
X4780Y726D01*
X4761Y725D02*
X4776Y725D01*
X4760Y724D02*
X4773Y724D01*
X4759Y723D02*
X4769Y723D01*
X4759Y722D02*
X4766Y722D01*
X4760Y721D02*
X4763Y721D01*
X4817Y715D02*
X4818Y715D01*
X4880Y715D02*
X4881Y715D01*
X4815Y714D02*
X4820Y714D01*
X4878Y714D02*
X4883Y714D01*
X4814Y713D02*
X4821Y713D01*
X4878Y713D02*
X4884Y713D01*
X4814Y712D02*
X4821Y712D01*
X4877Y712D02*
X4885Y712D01*
X4813Y711D02*
X4822Y711D01*
X4877Y711D02*
X4885Y711D01*
X4813Y710D02*
X4822Y710D01*
X4877Y710D02*
X4885Y710D01*
X4813Y709D02*
X4822Y709D01*
X4877Y709D02*
X4885Y709D01*
X4813Y708D02*
X4822Y708D01*
X4877Y708D02*
X4885Y708D01*
X4813Y707D02*
X4822Y707D01*
X4877Y707D02*
X4885Y707D01*
X206Y706D02*
X215Y706D01*
X4813Y706D02*
X4822Y706D01*
X4877Y706D02*
X4885Y706D01*
X206Y705D02*
X215Y705D01*
X4813Y705D02*
X4822Y705D01*
X4877Y705D02*
X4885Y705D01*
X206Y704D02*
X215Y704D01*
X4813Y704D02*
X4822Y704D01*
X4877Y704D02*
X4885Y704D01*
X206Y703D02*
X215Y703D01*
X4813Y703D02*
X4822Y703D01*
X4877Y703D02*
X4885Y703D01*
X206Y702D02*
X215Y702D01*
X4813Y702D02*
X4822Y702D01*
X4877Y702D02*
X4885Y702D01*
X206Y701D02*
X215Y701D01*
X4813Y701D02*
X4822Y701D01*
X4877Y701D02*
X4885Y701D01*
X206Y700D02*
X215Y700D01*
X4813Y700D02*
X4822Y700D01*
X4877Y700D02*
X4885Y700D01*
X206Y699D02*
X215Y699D01*
X4813Y699D02*
X4822Y699D01*
X4877Y699D02*
X4885Y699D01*
X206Y698D02*
X215Y698D01*
X4813Y698D02*
X4822Y698D01*
X4877Y698D02*
X4885Y698D01*
X206Y697D02*
X215Y697D01*
X4813Y697D02*
X4822Y697D01*
X4877Y697D02*
X4885Y697D01*
X206Y696D02*
X215Y696D01*
X4813Y696D02*
X4885Y696D01*
X206Y695D02*
X215Y695D01*
X4813Y695D02*
X4885Y695D01*
X206Y694D02*
X215Y694D01*
X4813Y694D02*
X4885Y694D01*
X206Y693D02*
X215Y693D01*
X4813Y693D02*
X4885Y693D01*
X206Y692D02*
X215Y692D01*
X4813Y692D02*
X4885Y692D01*
X206Y691D02*
X215Y691D01*
X4813Y691D02*
X4885Y691D01*
X206Y690D02*
X215Y690D01*
X4813Y690D02*
X4885Y690D01*
X206Y689D02*
X215Y689D01*
X4813Y689D02*
X4885Y689D01*
X206Y688D02*
X215Y688D01*
X4813Y688D02*
X4885Y688D01*
X206Y687D02*
X215Y687D01*
X4813Y687D02*
X4822Y687D01*
X4876Y687D02*
X4885Y687D01*
X206Y686D02*
X215Y686D01*
X4813Y686D02*
X4822Y686D01*
X4877Y686D02*
X4885Y686D01*
X206Y685D02*
X215Y685D01*
X4813Y685D02*
X4822Y685D01*
X4877Y685D02*
X4885Y685D01*
X206Y684D02*
X215Y684D01*
X4813Y684D02*
X4822Y684D01*
X4877Y684D02*
X4885Y684D01*
X206Y683D02*
X215Y683D01*
X4813Y683D02*
X4822Y683D01*
X4877Y683D02*
X4885Y683D01*
X206Y682D02*
X215Y682D01*
X4813Y682D02*
X4822Y682D01*
X4877Y682D02*
X4885Y682D01*
X206Y681D02*
X215Y681D01*
X4813Y681D02*
X4822Y681D01*
X4877Y681D02*
X4885Y681D01*
X206Y680D02*
X215Y680D01*
X4813Y680D02*
X4822Y680D01*
X4877Y680D02*
X4885Y680D01*
X206Y679D02*
X215Y679D01*
X4813Y679D02*
X4822Y679D01*
X4877Y679D02*
X4885Y679D01*
X206Y678D02*
X215Y678D01*
X4813Y678D02*
X4822Y678D01*
X4877Y678D02*
X4885Y678D01*
X206Y677D02*
X215Y677D01*
X4813Y677D02*
X4822Y677D01*
X4877Y677D02*
X4885Y677D01*
X206Y676D02*
X215Y676D01*
X4813Y676D02*
X4822Y676D01*
X4877Y676D02*
X4885Y676D01*
X206Y675D02*
X215Y675D01*
X4813Y675D02*
X4822Y675D01*
X4877Y675D02*
X4885Y675D01*
X206Y674D02*
X215Y674D01*
X4813Y674D02*
X4822Y674D01*
X4877Y674D02*
X4885Y674D01*
X206Y673D02*
X215Y673D01*
X4813Y673D02*
X4822Y673D01*
X4877Y673D02*
X4885Y673D01*
X206Y672D02*
X215Y672D01*
X4813Y672D02*
X4821Y672D01*
X4877Y672D02*
X4885Y672D01*
X206Y671D02*
X215Y671D01*
X4814Y671D02*
X4821Y671D01*
X4877Y671D02*
X4884Y671D01*
X206Y670D02*
X215Y670D01*
X4815Y670D02*
X4820Y670D01*
X4878Y670D02*
X4884Y670D01*
X206Y669D02*
X215Y669D01*
X4816Y669D02*
X4819Y669D01*
X4880Y669D02*
X4882Y669D01*
X206Y668D02*
X215Y668D01*
X206Y667D02*
X215Y667D01*
X206Y666D02*
X215Y666D01*
X206Y665D02*
X215Y665D01*
X206Y664D02*
X215Y664D01*
X206Y663D02*
X215Y663D01*
X206Y662D02*
X215Y662D01*
X206Y661D02*
X215Y661D01*
X206Y660D02*
X215Y660D01*
X206Y659D02*
X215Y659D01*
X206Y658D02*
X215Y658D01*
X206Y657D02*
X215Y657D01*
X206Y656D02*
X215Y656D01*
X206Y655D02*
X215Y655D01*
X206Y654D02*
X215Y654D01*
X206Y653D02*
X215Y653D01*
X206Y652D02*
X215Y652D01*
X206Y651D02*
X215Y651D01*
X206Y650D02*
X215Y650D01*
X206Y649D02*
X215Y649D01*
X206Y648D02*
X215Y648D01*
X206Y647D02*
X215Y647D01*
X4847Y647D02*
X4851Y647D01*
X206Y646D02*
X215Y646D01*
X4843Y646D02*
X4855Y646D01*
X206Y645D02*
X215Y645D01*
X4840Y645D02*
X4858Y645D01*
X206Y644D02*
X215Y644D01*
X4838Y644D02*
X4860Y644D01*
X206Y643D02*
X215Y643D01*
X4836Y643D02*
X4862Y643D01*
X206Y642D02*
X215Y642D01*
X4834Y642D02*
X4864Y642D01*
X206Y641D02*
X215Y641D01*
X4832Y641D02*
X4866Y641D01*
X206Y640D02*
X215Y640D01*
X4830Y640D02*
X4868Y640D01*
X4828Y639D02*
X4870Y639D01*
X4826Y638D02*
X4872Y638D01*
X4824Y637D02*
X4845Y637D01*
X4854Y637D02*
X4874Y637D01*
X4822Y636D02*
X4842Y636D01*
X4856Y636D02*
X4876Y636D01*
X4820Y635D02*
X4840Y635D01*
X4858Y635D02*
X4878Y635D01*
X4819Y634D02*
X4838Y634D01*
X4860Y634D02*
X4879Y634D01*
X4817Y633D02*
X4836Y633D01*
X4862Y633D02*
X4880Y633D01*
X4817Y632D02*
X4834Y632D01*
X4864Y632D02*
X4881Y632D01*
X4816Y631D02*
X4832Y631D01*
X4866Y631D02*
X4882Y631D01*
X4815Y630D02*
X4831Y630D01*
X4868Y630D02*
X4883Y630D01*
X4815Y629D02*
X4829Y629D01*
X4870Y629D02*
X4884Y629D01*
X4814Y628D02*
X4827Y628D01*
X4872Y628D02*
X4884Y628D01*
X4814Y627D02*
X4825Y627D01*
X4874Y627D02*
X4884Y627D01*
X4814Y626D02*
X4823Y626D01*
X4875Y626D02*
X4885Y626D01*
X4813Y625D02*
X4822Y625D01*
X4876Y625D02*
X4885Y625D01*
X4813Y624D02*
X4822Y624D01*
X4876Y624D02*
X4885Y624D01*
X4813Y623D02*
X4822Y623D01*
X4877Y623D02*
X4885Y623D01*
X4813Y622D02*
X4822Y622D01*
X4877Y622D02*
X4885Y622D01*
X4813Y621D02*
X4822Y621D01*
X4877Y621D02*
X4885Y621D01*
X4813Y620D02*
X4822Y620D01*
X4877Y620D02*
X4885Y620D01*
X4813Y619D02*
X4885Y619D01*
X4813Y618D02*
X4885Y618D01*
X4813Y617D02*
X4885Y617D01*
X4813Y616D02*
X4885Y616D01*
X4813Y615D02*
X4885Y615D01*
X4813Y614D02*
X4885Y614D01*
X4813Y613D02*
X4885Y613D01*
X4813Y612D02*
X4885Y612D01*
X4813Y611D02*
X4885Y611D01*
X4813Y610D02*
X4885Y610D01*
X4813Y609D02*
X4822Y609D01*
X4877Y609D02*
X4885Y609D01*
X4813Y608D02*
X4822Y608D01*
X4877Y608D02*
X4885Y608D01*
X4813Y607D02*
X4822Y607D01*
X4877Y607D02*
X4885Y607D01*
X4813Y606D02*
X4822Y606D01*
X4877Y606D02*
X4885Y606D01*
X4813Y605D02*
X4822Y605D01*
X4877Y605D02*
X4885Y605D01*
X4813Y604D02*
X4821Y604D01*
X4877Y604D02*
X4885Y604D01*
X4814Y603D02*
X4821Y603D01*
X4877Y603D02*
X4884Y603D01*
X4815Y602D02*
X4820Y602D01*
X4878Y602D02*
X4884Y602D01*
X4816Y601D02*
X4819Y601D01*
X4880Y601D02*
X4882Y601D01*
X4816Y579D02*
X4818Y579D01*
X4815Y578D02*
X4821Y578D01*
X4814Y577D02*
X4825Y577D01*
X4814Y576D02*
X4828Y576D01*
X4813Y575D02*
X4832Y575D01*
X4813Y574D02*
X4835Y574D01*
X4813Y573D02*
X4839Y573D01*
X4814Y572D02*
X4842Y572D01*
X4815Y571D02*
X4845Y571D01*
X4817Y570D02*
X4849Y570D01*
X4820Y569D02*
X4852Y569D01*
X4823Y568D02*
X4856Y568D01*
X4827Y567D02*
X4859Y567D01*
X4829Y566D02*
X4863Y566D01*
X4829Y565D02*
X4866Y565D01*
X4829Y564D02*
X4870Y564D01*
X4829Y563D02*
X4838Y563D01*
X4840Y563D02*
X4873Y563D01*
X4829Y562D02*
X4838Y562D01*
X4844Y562D02*
X4876Y562D01*
X4829Y561D02*
X4838Y561D01*
X4847Y561D02*
X4880Y561D01*
X4829Y560D02*
X4838Y560D01*
X4850Y560D02*
X4883Y560D01*
X1097Y559D02*
X1113Y559D01*
X1129Y559D02*
X1132Y559D01*
X4829Y559D02*
X4838Y559D01*
X4854Y559D02*
X4884Y559D01*
X1096Y558D02*
X1114Y558D01*
X1129Y558D02*
X1133Y558D01*
X4829Y558D02*
X4838Y558D01*
X4857Y558D02*
X4885Y558D01*
X1095Y557D02*
X1115Y557D01*
X1129Y557D02*
X1133Y557D01*
X4829Y557D02*
X4838Y557D01*
X4861Y557D02*
X4885Y557D01*
X1095Y556D02*
X1116Y556D01*
X1129Y556D02*
X1133Y556D01*
X4829Y556D02*
X4838Y556D01*
X4864Y556D02*
X4885Y556D01*
X1095Y555D02*
X1116Y555D01*
X1129Y555D02*
X1133Y555D01*
X4829Y555D02*
X4838Y555D01*
X4862Y555D02*
X4885Y555D01*
X1095Y554D02*
X1099Y554D01*
X1112Y554D02*
X1116Y554D01*
X1129Y554D02*
X1133Y554D01*
X4829Y554D02*
X4838Y554D01*
X4858Y554D02*
X4885Y554D01*
X1095Y553D02*
X1099Y553D01*
X1112Y553D02*
X1116Y553D01*
X1129Y553D02*
X1133Y553D01*
X4829Y553D02*
X4838Y553D01*
X4855Y553D02*
X4884Y553D01*
X1095Y552D02*
X1099Y552D01*
X1112Y552D02*
X1116Y552D01*
X1129Y552D02*
X1133Y552D01*
X4829Y552D02*
X4838Y552D01*
X4851Y552D02*
X4883Y552D01*
X1095Y551D02*
X1099Y551D01*
X1112Y551D02*
X1116Y551D01*
X1129Y551D02*
X1133Y551D01*
X4829Y551D02*
X4838Y551D01*
X4848Y551D02*
X4881Y551D01*
X1095Y550D02*
X1099Y550D01*
X1112Y550D02*
X1116Y550D01*
X1129Y550D02*
X1133Y550D01*
X4829Y550D02*
X4838Y550D01*
X4844Y550D02*
X4877Y550D01*
X1095Y549D02*
X1099Y549D01*
X1112Y549D02*
X1116Y549D01*
X1129Y549D02*
X1133Y549D01*
X4829Y549D02*
X4838Y549D01*
X4841Y549D02*
X4874Y549D01*
X1095Y548D02*
X1099Y548D01*
X1112Y548D02*
X1116Y548D01*
X1129Y548D02*
X1133Y548D01*
X4829Y548D02*
X4870Y548D01*
X1095Y547D02*
X1099Y547D01*
X1112Y547D02*
X1116Y547D01*
X1129Y547D02*
X1133Y547D01*
X4829Y547D02*
X4867Y547D01*
X1095Y546D02*
X1099Y546D01*
X1112Y546D02*
X1116Y546D01*
X1129Y546D02*
X1133Y546D01*
X4829Y546D02*
X4863Y546D01*
X1095Y545D02*
X1099Y545D01*
X1112Y545D02*
X1133Y545D01*
X4827Y545D02*
X4860Y545D01*
X1095Y544D02*
X1099Y544D01*
X1112Y544D02*
X1133Y544D01*
X4824Y544D02*
X4857Y544D01*
X1095Y543D02*
X1099Y543D01*
X1112Y543D02*
X1133Y543D01*
X4821Y543D02*
X4853Y543D01*
X1095Y542D02*
X1099Y542D01*
X1112Y542D02*
X1133Y542D01*
X4817Y542D02*
X4850Y542D01*
X1095Y541D02*
X1100Y541D01*
X1112Y541D02*
X1133Y541D01*
X4815Y541D02*
X4846Y541D01*
X1096Y540D02*
X1100Y540D01*
X4814Y540D02*
X4843Y540D01*
X1096Y539D02*
X1101Y539D01*
X4814Y539D02*
X4840Y539D01*
X1096Y538D02*
X1101Y538D01*
X4813Y538D02*
X4836Y538D01*
X1097Y537D02*
X1101Y537D01*
X4813Y537D02*
X4833Y537D01*
X1098Y536D02*
X1100Y536D01*
X4813Y536D02*
X4829Y536D01*
X4814Y535D02*
X4826Y535D01*
X4815Y534D02*
X4822Y534D01*
X4816Y533D02*
X4819Y533D01*
X1112Y524D02*
X1113Y524D01*
X1110Y523D02*
X1115Y523D01*
X1110Y522D02*
X1116Y522D01*
X1110Y521D02*
X1116Y521D01*
X1110Y520D02*
X1116Y520D01*
X1110Y519D02*
X1116Y519D01*
X1110Y518D02*
X1116Y518D01*
X1110Y517D02*
X1116Y517D01*
X1110Y516D02*
X1116Y516D01*
X1110Y515D02*
X1116Y515D01*
X1110Y514D02*
X1116Y514D01*
X1110Y513D02*
X1116Y513D01*
X1110Y512D02*
X1116Y512D01*
X1110Y511D02*
X1116Y511D01*
X1110Y510D02*
X1116Y510D01*
X1110Y509D02*
X1116Y509D01*
X1110Y508D02*
X1116Y508D01*
X1110Y507D02*
X1116Y507D01*
X1110Y506D02*
X1116Y506D01*
X1110Y505D02*
X1116Y505D01*
X1110Y504D02*
X1116Y504D01*
X1110Y503D02*
X1116Y503D01*
X1110Y502D02*
X1116Y502D01*
X1110Y501D02*
X1116Y501D01*
X1110Y500D02*
X1115Y500D01*
X999Y499D02*
X1012Y499D01*
X997Y498D02*
X1013Y498D01*
X996Y497D02*
X1014Y497D01*
X995Y496D02*
X1015Y496D01*
X1302Y496D02*
X1316Y496D01*
X994Y495D02*
X1016Y495D01*
X1301Y495D02*
X1317Y495D01*
X993Y494D02*
X999Y494D01*
X1011Y494D02*
X1017Y494D01*
X1300Y494D02*
X1318Y494D01*
X993Y493D02*
X998Y493D01*
X1012Y493D02*
X1018Y493D01*
X1299Y493D02*
X1319Y493D01*
X992Y492D02*
X997Y492D01*
X1013Y492D02*
X1019Y492D01*
X1298Y492D02*
X1320Y492D01*
X991Y491D02*
X996Y491D01*
X1014Y491D02*
X1019Y491D01*
X1297Y491D02*
X1303Y491D01*
X1315Y491D02*
X1321Y491D01*
X991Y490D02*
X996Y490D01*
X1015Y490D02*
X1019Y490D01*
X1296Y490D02*
X1302Y490D01*
X1316Y490D02*
X1322Y490D01*
X991Y489D02*
X995Y489D01*
X1015Y489D02*
X1020Y489D01*
X1296Y489D02*
X1301Y489D01*
X1317Y489D02*
X1322Y489D01*
X991Y488D02*
X995Y488D01*
X1016Y488D02*
X1020Y488D01*
X1099Y488D02*
X1129Y488D01*
X1295Y488D02*
X1300Y488D01*
X1318Y488D02*
X1323Y488D01*
X990Y487D02*
X995Y487D01*
X1016Y487D02*
X1020Y487D01*
X1097Y487D02*
X1131Y487D01*
X1295Y487D02*
X1299Y487D01*
X1319Y487D02*
X1323Y487D01*
X991Y486D02*
X995Y486D01*
X1016Y486D02*
X1020Y486D01*
X1096Y486D02*
X1132Y486D01*
X1294Y486D02*
X1299Y486D01*
X1319Y486D02*
X1324Y486D01*
X991Y485D02*
X995Y485D01*
X1015Y485D02*
X1020Y485D01*
X1095Y485D02*
X1132Y485D01*
X1294Y485D02*
X1298Y485D01*
X1320Y485D02*
X1324Y485D01*
X991Y484D02*
X996Y484D01*
X1014Y484D02*
X1019Y484D01*
X1095Y484D02*
X1132Y484D01*
X1294Y484D02*
X1298Y484D01*
X1320Y484D02*
X1324Y484D01*
X992Y483D02*
X997Y483D01*
X1013Y483D02*
X1019Y483D01*
X1095Y483D02*
X1099Y483D01*
X1128Y483D02*
X1133Y483D01*
X1294Y483D02*
X1299Y483D01*
X1319Y483D02*
X1324Y483D01*
X992Y482D02*
X998Y482D01*
X1012Y482D02*
X1018Y482D01*
X1095Y482D02*
X1099Y482D01*
X1129Y482D02*
X1133Y482D01*
X1295Y482D02*
X1299Y482D01*
X1319Y482D02*
X1323Y482D01*
X993Y481D02*
X999Y481D01*
X1011Y481D02*
X1017Y481D01*
X1095Y481D02*
X1099Y481D01*
X1129Y481D02*
X1133Y481D01*
X1295Y481D02*
X1300Y481D01*
X1318Y481D02*
X1323Y481D01*
X90Y480D02*
X90Y480D01*
X215Y480D02*
X215Y480D01*
X994Y480D02*
X1001Y480D01*
X1010Y480D02*
X1017Y480D01*
X1095Y480D02*
X1099Y480D01*
X1129Y480D02*
X1133Y480D01*
X1295Y480D02*
X1301Y480D01*
X1317Y480D02*
X1323Y480D01*
X81Y479D02*
X90Y479D01*
X206Y479D02*
X215Y479D01*
X982Y479D02*
X1019Y479D01*
X1095Y479D02*
X1099Y479D01*
X1129Y479D02*
X1133Y479D01*
X1296Y479D02*
X1302Y479D01*
X1316Y479D02*
X1322Y479D01*
X81Y478D02*
X90Y478D01*
X206Y478D02*
X215Y478D01*
X981Y478D02*
X1020Y478D01*
X1095Y478D02*
X1099Y478D01*
X1129Y478D02*
X1133Y478D01*
X1297Y478D02*
X1303Y478D01*
X1315Y478D02*
X1321Y478D01*
X81Y477D02*
X90Y477D01*
X206Y477D02*
X215Y477D01*
X981Y477D02*
X1020Y477D01*
X1095Y477D02*
X1099Y477D01*
X1129Y477D02*
X1133Y477D01*
X1297Y477D02*
X1305Y477D01*
X1313Y477D02*
X1321Y477D01*
X81Y476D02*
X90Y476D01*
X206Y476D02*
X215Y476D01*
X981Y476D02*
X1019Y476D01*
X1095Y476D02*
X1099Y476D01*
X1129Y476D02*
X1133Y476D01*
X1285Y476D02*
X1323Y476D01*
X81Y475D02*
X90Y475D01*
X206Y475D02*
X215Y475D01*
X983Y475D02*
X1018Y475D01*
X1095Y475D02*
X1099Y475D01*
X1129Y475D02*
X1133Y475D01*
X1285Y475D02*
X1324Y475D01*
X81Y474D02*
X90Y474D01*
X206Y474D02*
X215Y474D01*
X1095Y474D02*
X1099Y474D01*
X1129Y474D02*
X1133Y474D01*
X1285Y474D02*
X1324Y474D01*
X81Y473D02*
X90Y473D01*
X206Y473D02*
X215Y473D01*
X1095Y473D02*
X1099Y473D01*
X1129Y473D02*
X1133Y473D01*
X1285Y473D02*
X1323Y473D01*
X81Y472D02*
X90Y472D01*
X206Y472D02*
X215Y472D01*
X1095Y472D02*
X1099Y472D01*
X1129Y472D02*
X1133Y472D01*
X1287Y472D02*
X1321Y472D01*
X81Y471D02*
X90Y471D01*
X206Y471D02*
X215Y471D01*
X1095Y471D02*
X1099Y471D01*
X1129Y471D02*
X1133Y471D01*
X81Y470D02*
X90Y470D01*
X206Y470D02*
X215Y470D01*
X1095Y470D02*
X1099Y470D01*
X1129Y470D02*
X1133Y470D01*
X81Y469D02*
X90Y469D01*
X206Y469D02*
X215Y469D01*
X1095Y469D02*
X1099Y469D01*
X1129Y469D02*
X1133Y469D01*
X81Y468D02*
X90Y468D01*
X206Y468D02*
X215Y468D01*
X1095Y468D02*
X1133Y468D01*
X81Y467D02*
X90Y467D01*
X206Y467D02*
X215Y467D01*
X1095Y467D02*
X1132Y467D01*
X81Y466D02*
X90Y466D01*
X206Y466D02*
X215Y466D01*
X1096Y466D02*
X1132Y466D01*
X81Y465D02*
X90Y465D01*
X206Y465D02*
X215Y465D01*
X1096Y465D02*
X1131Y465D01*
X81Y464D02*
X90Y464D01*
X206Y464D02*
X215Y464D01*
X894Y464D02*
X907Y464D01*
X1098Y464D02*
X1130Y464D01*
X81Y463D02*
X90Y463D01*
X206Y463D02*
X215Y463D01*
X893Y463D02*
X908Y463D01*
X996Y463D02*
X1001Y463D01*
X1014Y463D02*
X1015Y463D01*
X81Y462D02*
X90Y462D01*
X206Y462D02*
X215Y462D01*
X892Y462D02*
X909Y462D01*
X994Y462D02*
X1003Y462D01*
X1013Y462D02*
X1016Y462D01*
X1194Y462D02*
X1223Y462D01*
X1499Y462D02*
X1510Y462D01*
X1518Y462D02*
X1529Y462D01*
X81Y461D02*
X90Y461D01*
X206Y461D02*
X215Y461D01*
X892Y461D02*
X909Y461D01*
X993Y461D02*
X1004Y461D01*
X1013Y461D02*
X1017Y461D01*
X1192Y461D02*
X1226Y461D01*
X1497Y461D02*
X1513Y461D01*
X1516Y461D02*
X1531Y461D01*
X81Y460D02*
X90Y460D01*
X206Y460D02*
X215Y460D01*
X892Y460D02*
X908Y460D01*
X993Y460D02*
X1005Y460D01*
X1013Y460D02*
X1018Y460D01*
X1191Y460D02*
X1227Y460D01*
X1300Y460D02*
X1305Y460D01*
X1318Y460D02*
X1319Y460D01*
X1409Y460D02*
X1411Y460D01*
X1496Y460D02*
X1532Y460D01*
X81Y459D02*
X90Y459D01*
X206Y459D02*
X215Y459D01*
X892Y459D02*
X896Y459D01*
X992Y459D02*
X1005Y459D01*
X1013Y459D02*
X1018Y459D01*
X1190Y459D02*
X1227Y459D01*
X1298Y459D02*
X1307Y459D01*
X1317Y459D02*
X1320Y459D01*
X1408Y459D02*
X1412Y459D01*
X1496Y459D02*
X1533Y459D01*
X81Y458D02*
X90Y458D01*
X206Y458D02*
X215Y458D01*
X892Y458D02*
X896Y458D01*
X992Y458D02*
X997Y458D01*
X1001Y458D02*
X1006Y458D01*
X1014Y458D02*
X1019Y458D01*
X1190Y458D02*
X1227Y458D01*
X1297Y458D02*
X1308Y458D01*
X1316Y458D02*
X1321Y458D01*
X1397Y458D02*
X1428Y458D01*
X1495Y458D02*
X1533Y458D01*
X81Y457D02*
X90Y457D01*
X206Y457D02*
X215Y457D01*
X892Y457D02*
X896Y457D01*
X992Y457D02*
X996Y457D01*
X1002Y457D02*
X1006Y457D01*
X1015Y457D02*
X1019Y457D01*
X1190Y457D02*
X1194Y457D01*
X1223Y457D02*
X1228Y457D01*
X1296Y457D02*
X1309Y457D01*
X1317Y457D02*
X1322Y457D01*
X1396Y457D02*
X1429Y457D01*
X1495Y457D02*
X1500Y457D01*
X1510Y457D02*
X1518Y457D01*
X1529Y457D02*
X1533Y457D01*
X81Y456D02*
X90Y456D01*
X206Y456D02*
X215Y456D01*
X892Y456D02*
X896Y456D01*
X992Y456D02*
X996Y456D01*
X1002Y456D02*
X1007Y456D01*
X1015Y456D02*
X1019Y456D01*
X1190Y456D02*
X1194Y456D01*
X1224Y456D02*
X1228Y456D01*
X1296Y456D02*
X1309Y456D01*
X1317Y456D02*
X1322Y456D01*
X1395Y456D02*
X1429Y456D01*
X1495Y456D02*
X1499Y456D01*
X1512Y456D02*
X1517Y456D01*
X1529Y456D02*
X1533Y456D01*
X81Y455D02*
X90Y455D01*
X206Y455D02*
X215Y455D01*
X892Y455D02*
X896Y455D01*
X992Y455D02*
X996Y455D01*
X1003Y455D02*
X1007Y455D01*
X1015Y455D02*
X1019Y455D01*
X1190Y455D02*
X1194Y455D01*
X1224Y455D02*
X1228Y455D01*
X1296Y455D02*
X1300Y455D01*
X1305Y455D02*
X1310Y455D01*
X1318Y455D02*
X1322Y455D01*
X1396Y455D02*
X1429Y455D01*
X1495Y455D02*
X1499Y455D01*
X1512Y455D02*
X1516Y455D01*
X1529Y455D02*
X1533Y455D01*
X81Y454D02*
X90Y454D01*
X206Y454D02*
X215Y454D01*
X892Y454D02*
X930Y454D01*
X992Y454D02*
X996Y454D01*
X1003Y454D02*
X1007Y454D01*
X1015Y454D02*
X1019Y454D01*
X1190Y454D02*
X1194Y454D01*
X1224Y454D02*
X1228Y454D01*
X1295Y454D02*
X1300Y454D01*
X1306Y454D02*
X1310Y454D01*
X1318Y454D02*
X1323Y454D01*
X1396Y454D02*
X1428Y454D01*
X1495Y454D02*
X1499Y454D01*
X1512Y454D02*
X1516Y454D01*
X1529Y454D02*
X1533Y454D01*
X81Y453D02*
X90Y453D01*
X206Y453D02*
X215Y453D01*
X892Y453D02*
X930Y453D01*
X992Y453D02*
X996Y453D01*
X1003Y453D02*
X1008Y453D01*
X1015Y453D02*
X1019Y453D01*
X1190Y453D02*
X1194Y453D01*
X1224Y453D02*
X1228Y453D01*
X1295Y453D02*
X1299Y453D01*
X1306Y453D02*
X1310Y453D01*
X1319Y453D02*
X1323Y453D01*
X1408Y453D02*
X1412Y453D01*
X1495Y453D02*
X1499Y453D01*
X1512Y453D02*
X1516Y453D01*
X1529Y453D02*
X1533Y453D01*
X81Y452D02*
X90Y452D01*
X206Y452D02*
X215Y452D01*
X892Y452D02*
X930Y452D01*
X992Y452D02*
X996Y452D01*
X1004Y452D02*
X1008Y452D01*
X1015Y452D02*
X1019Y452D01*
X1190Y452D02*
X1194Y452D01*
X1224Y452D02*
X1228Y452D01*
X1295Y452D02*
X1299Y452D01*
X1306Y452D02*
X1311Y452D01*
X1319Y452D02*
X1323Y452D01*
X1408Y452D02*
X1412Y452D01*
X1495Y452D02*
X1499Y452D01*
X1512Y452D02*
X1516Y452D01*
X1529Y452D02*
X1533Y452D01*
X81Y451D02*
X90Y451D01*
X206Y451D02*
X215Y451D01*
X892Y451D02*
X930Y451D01*
X992Y451D02*
X996Y451D01*
X1004Y451D02*
X1009Y451D01*
X1015Y451D02*
X1019Y451D01*
X1190Y451D02*
X1194Y451D01*
X1224Y451D02*
X1228Y451D01*
X1295Y451D02*
X1299Y451D01*
X1307Y451D02*
X1311Y451D01*
X1319Y451D02*
X1323Y451D01*
X1408Y451D02*
X1412Y451D01*
X1495Y451D02*
X1499Y451D01*
X1512Y451D02*
X1516Y451D01*
X1529Y451D02*
X1533Y451D01*
X81Y450D02*
X90Y450D01*
X206Y450D02*
X215Y450D01*
X892Y450D02*
X930Y450D01*
X992Y450D02*
X996Y450D01*
X1005Y450D02*
X1009Y450D01*
X1015Y450D02*
X1019Y450D01*
X1190Y450D02*
X1194Y450D01*
X1224Y450D02*
X1228Y450D01*
X1295Y450D02*
X1299Y450D01*
X1307Y450D02*
X1312Y450D01*
X1319Y450D02*
X1323Y450D01*
X1408Y450D02*
X1412Y450D01*
X1495Y450D02*
X1499Y450D01*
X1512Y450D02*
X1516Y450D01*
X1529Y450D02*
X1533Y450D01*
X81Y449D02*
X90Y449D01*
X206Y449D02*
X215Y449D01*
X892Y449D02*
X896Y449D01*
X926Y449D02*
X930Y449D01*
X992Y449D02*
X996Y449D01*
X1005Y449D02*
X1010Y449D01*
X1015Y449D02*
X1019Y449D01*
X1190Y449D02*
X1194Y449D01*
X1224Y449D02*
X1228Y449D01*
X1295Y449D02*
X1299Y449D01*
X1308Y449D02*
X1312Y449D01*
X1319Y449D02*
X1323Y449D01*
X1408Y449D02*
X1412Y449D01*
X1495Y449D02*
X1499Y449D01*
X1512Y449D02*
X1516Y449D01*
X1529Y449D02*
X1533Y449D01*
X81Y448D02*
X90Y448D01*
X206Y448D02*
X215Y448D01*
X892Y448D02*
X896Y448D01*
X926Y448D02*
X930Y448D01*
X992Y448D02*
X996Y448D01*
X1006Y448D02*
X1010Y448D01*
X1015Y448D02*
X1019Y448D01*
X1190Y448D02*
X1194Y448D01*
X1224Y448D02*
X1228Y448D01*
X1295Y448D02*
X1299Y448D01*
X1308Y448D02*
X1313Y448D01*
X1319Y448D02*
X1323Y448D01*
X1408Y448D02*
X1412Y448D01*
X1495Y448D02*
X1499Y448D01*
X1512Y448D02*
X1516Y448D01*
X1529Y448D02*
X1533Y448D01*
X81Y447D02*
X90Y447D01*
X206Y447D02*
X215Y447D01*
X892Y447D02*
X896Y447D01*
X926Y447D02*
X930Y447D01*
X992Y447D02*
X996Y447D01*
X1006Y447D02*
X1010Y447D01*
X1015Y447D02*
X1019Y447D01*
X1190Y447D02*
X1194Y447D01*
X1224Y447D02*
X1228Y447D01*
X1295Y447D02*
X1299Y447D01*
X1309Y447D02*
X1313Y447D01*
X1319Y447D02*
X1323Y447D01*
X1408Y447D02*
X1412Y447D01*
X1495Y447D02*
X1499Y447D01*
X1512Y447D02*
X1516Y447D01*
X1529Y447D02*
X1533Y447D01*
X81Y446D02*
X90Y446D01*
X206Y446D02*
X215Y446D01*
X892Y446D02*
X896Y446D01*
X926Y446D02*
X930Y446D01*
X992Y446D02*
X996Y446D01*
X1006Y446D02*
X1011Y446D01*
X1015Y446D02*
X1019Y446D01*
X1190Y446D02*
X1194Y446D01*
X1224Y446D02*
X1228Y446D01*
X1295Y446D02*
X1299Y446D01*
X1309Y446D02*
X1313Y446D01*
X1319Y446D02*
X1323Y446D01*
X1408Y446D02*
X1412Y446D01*
X1495Y446D02*
X1499Y446D01*
X1512Y446D02*
X1516Y446D01*
X1529Y446D02*
X1533Y446D01*
X81Y445D02*
X90Y445D01*
X206Y445D02*
X215Y445D01*
X892Y445D02*
X896Y445D01*
X926Y445D02*
X930Y445D01*
X992Y445D02*
X996Y445D01*
X1007Y445D02*
X1011Y445D01*
X1014Y445D02*
X1019Y445D01*
X1190Y445D02*
X1194Y445D01*
X1224Y445D02*
X1228Y445D01*
X1295Y445D02*
X1299Y445D01*
X1309Y445D02*
X1314Y445D01*
X1319Y445D02*
X1323Y445D01*
X1408Y445D02*
X1412Y445D01*
X1495Y445D02*
X1499Y445D01*
X1512Y445D02*
X1516Y445D01*
X1529Y445D02*
X1533Y445D01*
X81Y444D02*
X90Y444D01*
X206Y444D02*
X215Y444D01*
X892Y444D02*
X896Y444D01*
X926Y444D02*
X930Y444D01*
X992Y444D02*
X996Y444D01*
X1007Y444D02*
X1018Y444D01*
X1190Y444D02*
X1194Y444D01*
X1224Y444D02*
X1228Y444D01*
X1295Y444D02*
X1299Y444D01*
X1310Y444D02*
X1314Y444D01*
X1319Y444D02*
X1323Y444D01*
X1408Y444D02*
X1412Y444D01*
X1495Y444D02*
X1499Y444D01*
X1512Y444D02*
X1516Y444D01*
X1529Y444D02*
X1533Y444D01*
X81Y443D02*
X90Y443D01*
X206Y443D02*
X215Y443D01*
X892Y443D02*
X896Y443D01*
X926Y443D02*
X930Y443D01*
X992Y443D02*
X997Y443D01*
X1008Y443D02*
X1018Y443D01*
X1190Y443D02*
X1194Y443D01*
X1224Y443D02*
X1228Y443D01*
X1295Y443D02*
X1299Y443D01*
X1310Y443D02*
X1315Y443D01*
X1319Y443D02*
X1323Y443D01*
X1408Y443D02*
X1432Y443D01*
X1495Y443D02*
X1499Y443D01*
X1513Y443D02*
X1515Y443D01*
X1529Y443D02*
X1533Y443D01*
X81Y442D02*
X90Y442D01*
X206Y442D02*
X215Y442D01*
X892Y442D02*
X896Y442D01*
X926Y442D02*
X930Y442D01*
X993Y442D02*
X998Y442D01*
X1008Y442D02*
X1017Y442D01*
X1190Y442D02*
X1228Y442D01*
X1296Y442D02*
X1300Y442D01*
X1311Y442D02*
X1315Y442D01*
X1318Y442D02*
X1323Y442D01*
X1408Y442D02*
X1433Y442D01*
X1495Y442D02*
X1499Y442D01*
X1529Y442D02*
X1533Y442D01*
X81Y441D02*
X90Y441D01*
X206Y441D02*
X215Y441D01*
X892Y441D02*
X896Y441D01*
X926Y441D02*
X930Y441D01*
X993Y441D02*
X998Y441D01*
X1010Y441D02*
X1016Y441D01*
X1190Y441D02*
X1227Y441D01*
X1296Y441D02*
X1300Y441D01*
X1311Y441D02*
X1322Y441D01*
X1408Y441D02*
X1433Y441D01*
X1495Y441D02*
X1499Y441D01*
X1529Y441D02*
X1533Y441D01*
X81Y440D02*
X90Y440D01*
X206Y440D02*
X215Y440D01*
X893Y440D02*
X895Y440D01*
X927Y440D02*
X929Y440D01*
X994Y440D02*
X997Y440D01*
X1011Y440D02*
X1015Y440D01*
X1191Y440D02*
X1227Y440D01*
X1296Y440D02*
X1301Y440D01*
X1312Y440D02*
X1322Y440D01*
X1408Y440D02*
X1433Y440D01*
X1495Y440D02*
X1499Y440D01*
X1529Y440D02*
X1533Y440D01*
X81Y439D02*
X90Y439D01*
X206Y439D02*
X215Y439D01*
X1191Y439D02*
X1226Y439D01*
X1297Y439D02*
X1301Y439D01*
X1312Y439D02*
X1321Y439D01*
X1408Y439D02*
X1432Y439D01*
X1496Y439D02*
X1499Y439D01*
X1529Y439D02*
X1533Y439D01*
X81Y438D02*
X90Y438D01*
X206Y438D02*
X215Y438D01*
X1193Y438D02*
X1225Y438D01*
X1297Y438D02*
X1301Y438D01*
X1313Y438D02*
X1320Y438D01*
X1496Y438D02*
X1498Y438D01*
X1530Y438D02*
X1532Y438D01*
X81Y437D02*
X90Y437D01*
X206Y437D02*
X215Y437D01*
X1298Y437D02*
X1301Y437D01*
X1316Y437D02*
X1318Y437D01*
X81Y436D02*
X90Y436D01*
X206Y436D02*
X215Y436D01*
X81Y435D02*
X90Y435D01*
X206Y435D02*
X215Y435D01*
X81Y434D02*
X90Y434D01*
X206Y434D02*
X215Y434D01*
X81Y433D02*
X90Y433D01*
X206Y433D02*
X215Y433D01*
X81Y432D02*
X90Y432D01*
X206Y432D02*
X215Y432D01*
X81Y431D02*
X90Y431D01*
X81Y430D02*
X90Y430D01*
X81Y429D02*
X90Y429D01*
X81Y428D02*
X90Y428D01*
X908Y428D02*
X912Y428D01*
X81Y427D02*
X90Y427D01*
X907Y427D02*
X913Y427D01*
X1007Y427D02*
X1012Y427D01*
X81Y426D02*
X90Y426D01*
X907Y426D02*
X913Y426D01*
X1006Y426D02*
X1012Y426D01*
X1206Y426D02*
X1209Y426D01*
X1412Y426D02*
X1415Y426D01*
X1512Y426D02*
X1515Y426D01*
X81Y425D02*
X90Y425D01*
X907Y425D02*
X913Y425D01*
X1006Y425D02*
X1012Y425D01*
X1205Y425D02*
X1210Y425D01*
X1312Y425D02*
X1314Y425D01*
X1410Y425D02*
X1416Y425D01*
X1510Y425D02*
X1516Y425D01*
X81Y424D02*
X90Y424D01*
X907Y424D02*
X913Y424D01*
X1006Y424D02*
X1012Y424D01*
X1205Y424D02*
X1211Y424D01*
X1311Y424D02*
X1316Y424D01*
X1410Y424D02*
X1416Y424D01*
X1510Y424D02*
X1516Y424D01*
X81Y423D02*
X90Y423D01*
X907Y423D02*
X913Y423D01*
X1006Y423D02*
X1012Y423D01*
X1205Y423D02*
X1211Y423D01*
X1310Y423D02*
X1316Y423D01*
X1410Y423D02*
X1416Y423D01*
X1510Y423D02*
X1516Y423D01*
X81Y422D02*
X90Y422D01*
X907Y422D02*
X913Y422D01*
X1006Y422D02*
X1012Y422D01*
X1205Y422D02*
X1211Y422D01*
X1310Y422D02*
X1316Y422D01*
X1410Y422D02*
X1416Y422D01*
X1510Y422D02*
X1516Y422D01*
X81Y421D02*
X90Y421D01*
X907Y421D02*
X913Y421D01*
X1006Y421D02*
X1012Y421D01*
X1205Y421D02*
X1211Y421D01*
X1310Y421D02*
X1316Y421D01*
X1410Y421D02*
X1416Y421D01*
X1510Y421D02*
X1516Y421D01*
X81Y420D02*
X90Y420D01*
X907Y420D02*
X913Y420D01*
X1006Y420D02*
X1012Y420D01*
X1205Y420D02*
X1211Y420D01*
X1310Y420D02*
X1316Y420D01*
X1410Y420D02*
X1416Y420D01*
X1510Y420D02*
X1516Y420D01*
X81Y419D02*
X90Y419D01*
X907Y419D02*
X913Y419D01*
X1006Y419D02*
X1012Y419D01*
X1205Y419D02*
X1211Y419D01*
X1310Y419D02*
X1316Y419D01*
X1410Y419D02*
X1416Y419D01*
X1510Y419D02*
X1516Y419D01*
X81Y418D02*
X90Y418D01*
X907Y418D02*
X913Y418D01*
X1006Y418D02*
X1012Y418D01*
X1205Y418D02*
X1211Y418D01*
X1310Y418D02*
X1316Y418D01*
X1410Y418D02*
X1416Y418D01*
X1510Y418D02*
X1516Y418D01*
X81Y417D02*
X90Y417D01*
X907Y417D02*
X913Y417D01*
X1006Y417D02*
X1012Y417D01*
X1205Y417D02*
X1211Y417D01*
X1310Y417D02*
X1316Y417D01*
X1410Y417D02*
X1416Y417D01*
X1510Y417D02*
X1516Y417D01*
X81Y416D02*
X90Y416D01*
X907Y416D02*
X913Y416D01*
X1006Y416D02*
X1012Y416D01*
X1205Y416D02*
X1211Y416D01*
X1310Y416D02*
X1316Y416D01*
X1410Y416D02*
X1416Y416D01*
X1510Y416D02*
X1516Y416D01*
X81Y415D02*
X90Y415D01*
X907Y415D02*
X913Y415D01*
X1006Y415D02*
X1012Y415D01*
X1205Y415D02*
X1211Y415D01*
X1310Y415D02*
X1316Y415D01*
X1410Y415D02*
X1416Y415D01*
X1510Y415D02*
X1516Y415D01*
X81Y414D02*
X90Y414D01*
X907Y414D02*
X913Y414D01*
X1006Y414D02*
X1012Y414D01*
X1205Y414D02*
X1211Y414D01*
X1310Y414D02*
X1316Y414D01*
X1410Y414D02*
X1416Y414D01*
X1510Y414D02*
X1516Y414D01*
X2450Y414D02*
X2454Y414D01*
X2469Y414D02*
X2485Y414D01*
X81Y413D02*
X90Y413D01*
X907Y413D02*
X913Y413D01*
X1006Y413D02*
X1012Y413D01*
X1205Y413D02*
X1211Y413D01*
X1310Y413D02*
X1316Y413D01*
X1410Y413D02*
X1416Y413D01*
X1510Y413D02*
X1516Y413D01*
X2450Y413D02*
X2455Y413D01*
X2467Y413D02*
X2485Y413D01*
X907Y412D02*
X913Y412D01*
X1006Y412D02*
X1012Y412D01*
X1205Y412D02*
X1211Y412D01*
X1310Y412D02*
X1316Y412D01*
X1410Y412D02*
X1416Y412D01*
X1510Y412D02*
X1516Y412D01*
X2450Y412D02*
X2455Y412D01*
X2466Y412D02*
X2485Y412D01*
X907Y411D02*
X913Y411D01*
X1006Y411D02*
X1012Y411D01*
X1205Y411D02*
X1211Y411D01*
X1310Y411D02*
X1316Y411D01*
X1410Y411D02*
X1416Y411D01*
X1510Y411D02*
X1516Y411D01*
X2450Y411D02*
X2455Y411D01*
X2466Y411D02*
X2485Y411D01*
X907Y410D02*
X913Y410D01*
X1006Y410D02*
X1012Y410D01*
X1205Y410D02*
X1211Y410D01*
X1310Y410D02*
X1316Y410D01*
X1410Y410D02*
X1416Y410D01*
X1510Y410D02*
X1516Y410D01*
X2452Y410D02*
X2455Y410D01*
X2465Y410D02*
X2469Y410D01*
X2482Y410D02*
X2485Y410D01*
X907Y409D02*
X913Y409D01*
X1006Y409D02*
X1012Y409D01*
X1205Y409D02*
X1211Y409D01*
X1310Y409D02*
X1316Y409D01*
X1410Y409D02*
X1416Y409D01*
X1510Y409D02*
X1516Y409D01*
X2452Y409D02*
X2455Y409D01*
X2465Y409D02*
X2468Y409D01*
X2482Y409D02*
X2485Y409D01*
X907Y408D02*
X913Y408D01*
X1006Y408D02*
X1012Y408D01*
X1205Y408D02*
X1211Y408D01*
X1310Y408D02*
X1316Y408D01*
X1410Y408D02*
X1416Y408D01*
X1510Y408D02*
X1516Y408D01*
X2452Y408D02*
X2455Y408D01*
X2465Y408D02*
X2468Y408D01*
X2482Y408D02*
X2485Y408D01*
X907Y407D02*
X913Y407D01*
X1006Y407D02*
X1012Y407D01*
X1205Y407D02*
X1211Y407D01*
X1310Y407D02*
X1316Y407D01*
X1410Y407D02*
X1416Y407D01*
X1510Y407D02*
X1516Y407D01*
X2452Y407D02*
X2455Y407D01*
X2465Y407D02*
X2468Y407D01*
X2482Y407D02*
X2485Y407D01*
X907Y406D02*
X913Y406D01*
X1006Y406D02*
X1012Y406D01*
X1205Y406D02*
X1211Y406D01*
X1310Y406D02*
X1316Y406D01*
X1410Y406D02*
X1416Y406D01*
X1510Y406D02*
X1516Y406D01*
X2452Y406D02*
X2455Y406D01*
X2465Y406D02*
X2468Y406D01*
X2482Y406D02*
X2485Y406D01*
X907Y405D02*
X913Y405D01*
X1006Y405D02*
X1012Y405D01*
X1205Y405D02*
X1211Y405D01*
X1310Y405D02*
X1316Y405D01*
X1410Y405D02*
X1416Y405D01*
X1510Y405D02*
X1516Y405D01*
X2452Y405D02*
X2455Y405D01*
X2465Y405D02*
X2469Y405D01*
X2482Y405D02*
X2485Y405D01*
X908Y404D02*
X912Y404D01*
X1007Y404D02*
X1012Y404D01*
X1205Y404D02*
X1211Y404D01*
X1310Y404D02*
X1316Y404D01*
X1410Y404D02*
X1416Y404D01*
X1510Y404D02*
X1516Y404D01*
X2452Y404D02*
X2455Y404D01*
X2465Y404D02*
X2485Y404D01*
X1205Y403D02*
X1210Y403D01*
X1310Y403D02*
X1316Y403D01*
X1410Y403D02*
X1416Y403D01*
X1510Y403D02*
X1516Y403D01*
X2452Y403D02*
X2455Y403D01*
X2466Y403D02*
X2485Y403D01*
X1206Y402D02*
X1210Y402D01*
X1310Y402D02*
X1316Y402D01*
X1411Y402D02*
X1415Y402D01*
X1511Y402D02*
X1515Y402D01*
X2303Y402D02*
X2369Y402D01*
X2452Y402D02*
X2455Y402D01*
X2467Y402D02*
X2485Y402D01*
X2570Y402D02*
X2617Y402D01*
X1311Y401D02*
X1315Y401D01*
X2303Y401D02*
X2369Y401D01*
X2452Y401D02*
X2455Y401D01*
X2468Y401D02*
X2485Y401D01*
X2570Y401D02*
X2617Y401D01*
X2303Y400D02*
X2369Y400D01*
X2452Y400D02*
X2455Y400D01*
X2470Y400D02*
X2485Y400D01*
X2570Y400D02*
X2617Y400D01*
X2303Y399D02*
X2369Y399D01*
X2452Y399D02*
X2455Y399D01*
X2473Y399D02*
X2477Y399D01*
X2482Y399D02*
X2485Y399D01*
X2570Y399D02*
X2617Y399D01*
X2303Y398D02*
X2369Y398D01*
X2452Y398D02*
X2455Y398D01*
X2473Y398D02*
X2477Y398D01*
X2482Y398D02*
X2485Y398D01*
X2570Y398D02*
X2617Y398D01*
X2303Y397D02*
X2369Y397D01*
X2437Y397D02*
X2455Y397D01*
X2472Y397D02*
X2476Y397D01*
X2482Y397D02*
X2485Y397D01*
X2570Y397D02*
X2617Y397D01*
X2303Y396D02*
X2369Y396D01*
X2435Y396D02*
X2455Y396D01*
X2472Y396D02*
X2475Y396D01*
X2482Y396D02*
X2485Y396D01*
X2570Y396D02*
X2617Y396D01*
X2303Y395D02*
X2369Y395D01*
X2435Y395D02*
X2455Y395D01*
X2471Y395D02*
X2475Y395D01*
X2482Y395D02*
X2485Y395D01*
X2570Y395D02*
X2617Y395D01*
X2303Y394D02*
X2369Y394D01*
X2435Y394D02*
X2455Y394D01*
X2470Y394D02*
X2474Y394D01*
X2482Y394D02*
X2485Y394D01*
X2570Y394D02*
X2617Y394D01*
X2303Y393D02*
X2369Y393D01*
X2435Y393D02*
X2455Y393D01*
X2470Y393D02*
X2474Y393D01*
X2482Y393D02*
X2485Y393D01*
X2570Y393D02*
X2617Y393D01*
X893Y392D02*
X908Y392D01*
X996Y392D02*
X1025Y392D01*
X2435Y392D02*
X2438Y392D01*
X2452Y392D02*
X2455Y392D01*
X2469Y392D02*
X2473Y392D01*
X2482Y392D02*
X2485Y392D01*
X892Y391D02*
X909Y391D01*
X994Y391D02*
X1027Y391D01*
X2435Y391D02*
X2438Y391D01*
X2452Y391D02*
X2455Y391D01*
X2469Y391D02*
X2473Y391D01*
X2482Y391D02*
X2485Y391D01*
X892Y390D02*
X909Y390D01*
X993Y390D02*
X1028Y390D01*
X1193Y390D02*
X1225Y390D01*
X1398Y390D02*
X1430Y390D01*
X1498Y390D02*
X1530Y390D01*
X2435Y390D02*
X2438Y390D01*
X2452Y390D02*
X2455Y390D01*
X2468Y390D02*
X2472Y390D01*
X2482Y390D02*
X2485Y390D01*
X892Y389D02*
X909Y389D01*
X992Y389D02*
X1029Y389D01*
X1191Y389D02*
X1226Y389D01*
X1297Y389D02*
X1310Y389D01*
X1397Y389D02*
X1432Y389D01*
X1497Y389D02*
X1532Y389D01*
X2435Y389D02*
X2438Y389D01*
X2452Y389D02*
X2455Y389D01*
X2467Y389D02*
X2471Y389D01*
X2482Y389D02*
X2485Y389D01*
X892Y388D02*
X908Y388D01*
X992Y388D02*
X1029Y388D01*
X1191Y388D02*
X1227Y388D01*
X1296Y388D02*
X1312Y388D01*
X1396Y388D02*
X1432Y388D01*
X1496Y388D02*
X1532Y388D01*
X2435Y388D02*
X2438Y388D01*
X2452Y388D02*
X2455Y388D01*
X2467Y388D02*
X2471Y388D01*
X2482Y388D02*
X2485Y388D01*
X892Y387D02*
X896Y387D01*
X992Y387D02*
X996Y387D01*
X1025Y387D02*
X1029Y387D01*
X1190Y387D02*
X1227Y387D01*
X1295Y387D02*
X1312Y387D01*
X1396Y387D02*
X1433Y387D01*
X1496Y387D02*
X1533Y387D01*
X2435Y387D02*
X2438Y387D01*
X2452Y387D02*
X2455Y387D01*
X2466Y387D02*
X2470Y387D01*
X2482Y387D02*
X2485Y387D01*
X892Y386D02*
X896Y386D01*
X992Y386D02*
X996Y386D01*
X1025Y386D02*
X1029Y386D01*
X1190Y386D02*
X1228Y386D01*
X1295Y386D02*
X1312Y386D01*
X1395Y386D02*
X1433Y386D01*
X1495Y386D02*
X1533Y386D01*
X2435Y386D02*
X2455Y386D01*
X2466Y386D02*
X2470Y386D01*
X2482Y386D02*
X2485Y386D01*
X892Y385D02*
X896Y385D01*
X992Y385D02*
X996Y385D01*
X1025Y385D02*
X1029Y385D01*
X1190Y385D02*
X1194Y385D01*
X1224Y385D02*
X1228Y385D01*
X1295Y385D02*
X1311Y385D01*
X1395Y385D02*
X1399Y385D01*
X1429Y385D02*
X1433Y385D01*
X1495Y385D02*
X1499Y385D01*
X1529Y385D02*
X1533Y385D01*
X2435Y385D02*
X2455Y385D01*
X2465Y385D02*
X2469Y385D01*
X2482Y385D02*
X2485Y385D01*
X892Y384D02*
X896Y384D01*
X992Y384D02*
X996Y384D01*
X1025Y384D02*
X1029Y384D01*
X1190Y384D02*
X1194Y384D01*
X1224Y384D02*
X1228Y384D01*
X1295Y384D02*
X1300Y384D01*
X1395Y384D02*
X1399Y384D01*
X1429Y384D02*
X1433Y384D01*
X1495Y384D02*
X1499Y384D01*
X1529Y384D02*
X1533Y384D01*
X2435Y384D02*
X2455Y384D01*
X2465Y384D02*
X2468Y384D01*
X2482Y384D02*
X2485Y384D01*
X892Y383D02*
X896Y383D01*
X992Y383D02*
X996Y383D01*
X1025Y383D02*
X1029Y383D01*
X1190Y383D02*
X1194Y383D01*
X1224Y383D02*
X1228Y383D01*
X1295Y383D02*
X1299Y383D01*
X1395Y383D02*
X1399Y383D01*
X1429Y383D02*
X1433Y383D01*
X1495Y383D02*
X1499Y383D01*
X1529Y383D02*
X1533Y383D01*
X2436Y383D02*
X2454Y383D01*
X2466Y383D02*
X2468Y383D01*
X2482Y383D02*
X2484Y383D01*
X892Y382D02*
X930Y382D01*
X992Y382D02*
X996Y382D01*
X1025Y382D02*
X1029Y382D01*
X1190Y382D02*
X1194Y382D01*
X1224Y382D02*
X1228Y382D01*
X1295Y382D02*
X1299Y382D01*
X1395Y382D02*
X1399Y382D01*
X1429Y382D02*
X1433Y382D01*
X1495Y382D02*
X1499Y382D01*
X1529Y382D02*
X1533Y382D01*
X892Y381D02*
X930Y381D01*
X992Y381D02*
X996Y381D01*
X1025Y381D02*
X1029Y381D01*
X1190Y381D02*
X1194Y381D01*
X1224Y381D02*
X1228Y381D01*
X1295Y381D02*
X1299Y381D01*
X1395Y381D02*
X1399Y381D01*
X1429Y381D02*
X1433Y381D01*
X1495Y381D02*
X1499Y381D01*
X1529Y381D02*
X1533Y381D01*
X892Y380D02*
X930Y380D01*
X992Y380D02*
X996Y380D01*
X1025Y380D02*
X1029Y380D01*
X1190Y380D02*
X1194Y380D01*
X1224Y380D02*
X1228Y380D01*
X1295Y380D02*
X1299Y380D01*
X1395Y380D02*
X1399Y380D01*
X1429Y380D02*
X1433Y380D01*
X1495Y380D02*
X1499Y380D01*
X1529Y380D02*
X1533Y380D01*
X892Y379D02*
X930Y379D01*
X992Y379D02*
X996Y379D01*
X1025Y379D02*
X1029Y379D01*
X1190Y379D02*
X1194Y379D01*
X1224Y379D02*
X1228Y379D01*
X1295Y379D02*
X1333Y379D01*
X1395Y379D02*
X1399Y379D01*
X1429Y379D02*
X1433Y379D01*
X1495Y379D02*
X1499Y379D01*
X1529Y379D02*
X1533Y379D01*
X892Y378D02*
X930Y378D01*
X992Y378D02*
X996Y378D01*
X1025Y378D02*
X1029Y378D01*
X1190Y378D02*
X1194Y378D01*
X1224Y378D02*
X1228Y378D01*
X1295Y378D02*
X1333Y378D01*
X1395Y378D02*
X1399Y378D01*
X1429Y378D02*
X1433Y378D01*
X1495Y378D02*
X1499Y378D01*
X1529Y378D02*
X1533Y378D01*
X892Y377D02*
X896Y377D01*
X926Y377D02*
X930Y377D01*
X992Y377D02*
X996Y377D01*
X1025Y377D02*
X1029Y377D01*
X1190Y377D02*
X1194Y377D01*
X1224Y377D02*
X1228Y377D01*
X1295Y377D02*
X1333Y377D01*
X1395Y377D02*
X1399Y377D01*
X1429Y377D02*
X1433Y377D01*
X1495Y377D02*
X1499Y377D01*
X1529Y377D02*
X1533Y377D01*
X892Y376D02*
X896Y376D01*
X926Y376D02*
X930Y376D01*
X992Y376D02*
X996Y376D01*
X1025Y376D02*
X1029Y376D01*
X1190Y376D02*
X1194Y376D01*
X1224Y376D02*
X1228Y376D01*
X1295Y376D02*
X1333Y376D01*
X1395Y376D02*
X1399Y376D01*
X1429Y376D02*
X1433Y376D01*
X1495Y376D02*
X1499Y376D01*
X1529Y376D02*
X1533Y376D01*
X892Y375D02*
X896Y375D01*
X926Y375D02*
X930Y375D01*
X992Y375D02*
X996Y375D01*
X1025Y375D02*
X1029Y375D01*
X1190Y375D02*
X1194Y375D01*
X1224Y375D02*
X1228Y375D01*
X1295Y375D02*
X1333Y375D01*
X1395Y375D02*
X1399Y375D01*
X1429Y375D02*
X1433Y375D01*
X1495Y375D02*
X1499Y375D01*
X1529Y375D02*
X1533Y375D01*
X892Y374D02*
X896Y374D01*
X926Y374D02*
X930Y374D01*
X992Y374D02*
X996Y374D01*
X1025Y374D02*
X1029Y374D01*
X1190Y374D02*
X1194Y374D01*
X1224Y374D02*
X1228Y374D01*
X1295Y374D02*
X1299Y374D01*
X1329Y374D02*
X1333Y374D01*
X1395Y374D02*
X1399Y374D01*
X1429Y374D02*
X1433Y374D01*
X1495Y374D02*
X1499Y374D01*
X1529Y374D02*
X1533Y374D01*
X892Y373D02*
X896Y373D01*
X926Y373D02*
X930Y373D01*
X992Y373D02*
X996Y373D01*
X1025Y373D02*
X1029Y373D01*
X1190Y373D02*
X1194Y373D01*
X1224Y373D02*
X1228Y373D01*
X1295Y373D02*
X1299Y373D01*
X1329Y373D02*
X1333Y373D01*
X1395Y373D02*
X1399Y373D01*
X1429Y373D02*
X1433Y373D01*
X1495Y373D02*
X1499Y373D01*
X1529Y373D02*
X1533Y373D01*
X892Y372D02*
X896Y372D01*
X926Y372D02*
X930Y372D01*
X992Y372D02*
X1029Y372D01*
X1190Y372D02*
X1194Y372D01*
X1224Y372D02*
X1228Y372D01*
X1295Y372D02*
X1299Y372D01*
X1329Y372D02*
X1333Y372D01*
X1395Y372D02*
X1399Y372D01*
X1429Y372D02*
X1433Y372D01*
X1495Y372D02*
X1499Y372D01*
X1529Y372D02*
X1533Y372D01*
X892Y371D02*
X896Y371D01*
X926Y371D02*
X930Y371D01*
X992Y371D02*
X1029Y371D01*
X1190Y371D02*
X1194Y371D01*
X1223Y371D02*
X1228Y371D01*
X1295Y371D02*
X1299Y371D01*
X1329Y371D02*
X1333Y371D01*
X1395Y371D02*
X1399Y371D01*
X1429Y371D02*
X1433Y371D01*
X1495Y371D02*
X1499Y371D01*
X1529Y371D02*
X1533Y371D01*
X892Y370D02*
X896Y370D01*
X926Y370D02*
X930Y370D01*
X992Y370D02*
X1029Y370D01*
X1190Y370D02*
X1227Y370D01*
X1295Y370D02*
X1299Y370D01*
X1329Y370D02*
X1333Y370D01*
X1395Y370D02*
X1433Y370D01*
X1495Y370D02*
X1533Y370D01*
X892Y369D02*
X896Y369D01*
X926Y369D02*
X930Y369D01*
X993Y369D02*
X1028Y369D01*
X1190Y369D02*
X1227Y369D01*
X1295Y369D02*
X1299Y369D01*
X1329Y369D02*
X1333Y369D01*
X1396Y369D02*
X1433Y369D01*
X1496Y369D02*
X1533Y369D01*
X894Y368D02*
X895Y368D01*
X927Y368D02*
X928Y368D01*
X994Y368D02*
X1027Y368D01*
X1191Y368D02*
X1227Y368D01*
X1295Y368D02*
X1299Y368D01*
X1329Y368D02*
X1333Y368D01*
X1396Y368D02*
X1432Y368D01*
X1496Y368D02*
X1532Y368D01*
X1192Y367D02*
X1226Y367D01*
X1295Y367D02*
X1299Y367D01*
X1329Y367D02*
X1333Y367D01*
X1397Y367D02*
X1431Y367D01*
X1497Y367D02*
X1531Y367D01*
X192Y366D02*
X218Y366D01*
X1193Y366D02*
X1224Y366D01*
X1296Y366D02*
X1299Y366D01*
X1329Y366D02*
X1333Y366D01*
X1399Y366D02*
X1430Y366D01*
X1499Y366D02*
X1530Y366D01*
X190Y365D02*
X220Y365D01*
X1296Y365D02*
X1298Y365D01*
X1330Y365D02*
X1332Y365D01*
X190Y364D02*
X220Y364D01*
X189Y363D02*
X221Y363D01*
X189Y362D02*
X193Y362D01*
X217Y362D02*
X221Y362D01*
X189Y361D02*
X192Y361D01*
X217Y361D02*
X221Y361D01*
X189Y360D02*
X192Y360D01*
X217Y360D02*
X221Y360D01*
X189Y359D02*
X192Y359D01*
X217Y359D02*
X221Y359D01*
X189Y358D02*
X192Y358D01*
X217Y358D02*
X221Y358D01*
X189Y357D02*
X192Y357D01*
X217Y357D02*
X221Y357D01*
X189Y356D02*
X192Y356D01*
X217Y356D02*
X221Y356D01*
X189Y355D02*
X192Y355D01*
X217Y355D02*
X221Y355D01*
X189Y354D02*
X192Y354D01*
X217Y354D02*
X221Y354D01*
X189Y353D02*
X192Y353D01*
X217Y353D02*
X221Y353D01*
X189Y352D02*
X192Y352D01*
X217Y352D02*
X221Y352D01*
X189Y351D02*
X192Y351D01*
X217Y351D02*
X221Y351D01*
X189Y350D02*
X193Y350D01*
X217Y350D02*
X221Y350D01*
X189Y349D02*
X220Y349D01*
X190Y348D02*
X220Y348D01*
X893Y348D02*
X894Y348D01*
X190Y347D02*
X219Y347D01*
X892Y347D02*
X895Y347D01*
X192Y346D02*
X218Y346D01*
X891Y346D02*
X896Y346D01*
X890Y345D02*
X896Y345D01*
X889Y344D02*
X895Y344D01*
X821Y343D02*
X838Y343D01*
X888Y343D02*
X894Y343D01*
X821Y342D02*
X839Y342D01*
X887Y342D02*
X893Y342D01*
X821Y341D02*
X839Y341D01*
X886Y341D02*
X892Y341D01*
X821Y340D02*
X839Y340D01*
X885Y340D02*
X891Y340D01*
X821Y339D02*
X839Y339D01*
X884Y339D02*
X890Y339D01*
X821Y338D02*
X838Y338D01*
X883Y338D02*
X889Y338D01*
X821Y337D02*
X827Y337D01*
X882Y337D02*
X888Y337D01*
X190Y336D02*
X202Y336D01*
X821Y336D02*
X827Y336D01*
X881Y336D02*
X887Y336D01*
X189Y335D02*
X203Y335D01*
X821Y335D02*
X827Y335D01*
X880Y335D02*
X886Y335D01*
X1858Y335D02*
X1860Y335D01*
X1875Y335D02*
X1891Y335D01*
X189Y334D02*
X203Y334D01*
X821Y334D02*
X827Y334D01*
X879Y334D02*
X885Y334D01*
X1857Y334D02*
X1860Y334D01*
X1873Y334D02*
X1891Y334D01*
X189Y333D02*
X202Y333D01*
X821Y333D02*
X827Y333D01*
X878Y333D02*
X884Y333D01*
X1857Y333D02*
X1860Y333D01*
X1873Y333D02*
X1891Y333D01*
X189Y332D02*
X193Y332D01*
X821Y332D02*
X827Y332D01*
X877Y332D02*
X883Y332D01*
X1846Y332D02*
X1847Y332D01*
X1857Y332D02*
X1860Y332D01*
X1872Y332D02*
X1891Y332D01*
X189Y331D02*
X192Y331D01*
X821Y331D02*
X827Y331D01*
X876Y331D02*
X882Y331D01*
X1845Y331D02*
X1848Y331D01*
X1857Y331D02*
X1860Y331D01*
X1872Y331D02*
X1875Y331D01*
X1888Y331D02*
X1891Y331D01*
X189Y330D02*
X192Y330D01*
X821Y330D02*
X827Y330D01*
X875Y330D02*
X880Y330D01*
X1845Y330D02*
X1848Y330D01*
X1857Y330D02*
X1860Y330D01*
X1872Y330D02*
X1875Y330D01*
X1888Y330D02*
X1891Y330D01*
X189Y329D02*
X192Y329D01*
X821Y329D02*
X827Y329D01*
X874Y329D02*
X879Y329D01*
X1845Y329D02*
X1848Y329D01*
X1857Y329D02*
X1860Y329D01*
X1872Y329D02*
X1875Y329D01*
X1888Y329D02*
X1891Y329D01*
X189Y328D02*
X220Y328D01*
X821Y328D02*
X827Y328D01*
X873Y328D02*
X878Y328D01*
X1845Y328D02*
X1848Y328D01*
X1857Y328D02*
X1860Y328D01*
X1872Y328D02*
X1875Y328D01*
X1888Y328D02*
X1891Y328D01*
X69Y327D02*
X80Y327D01*
X189Y327D02*
X221Y327D01*
X821Y327D02*
X827Y327D01*
X872Y327D02*
X877Y327D01*
X1728Y327D02*
X1775Y327D01*
X1845Y327D02*
X1848Y327D01*
X1857Y327D02*
X1860Y327D01*
X1872Y327D02*
X1875Y327D01*
X1888Y327D02*
X1891Y327D01*
X1976Y327D02*
X2042Y327D01*
X67Y326D02*
X82Y326D01*
X189Y326D02*
X221Y326D01*
X821Y326D02*
X827Y326D01*
X871Y326D02*
X876Y326D01*
X1728Y326D02*
X1775Y326D01*
X1845Y326D02*
X1848Y326D01*
X1857Y326D02*
X1860Y326D01*
X1872Y326D02*
X1876Y326D01*
X1888Y326D02*
X1891Y326D01*
X1976Y326D02*
X2042Y326D01*
X67Y325D02*
X83Y325D01*
X189Y325D02*
X221Y325D01*
X821Y325D02*
X827Y325D01*
X870Y325D02*
X876Y325D01*
X1728Y325D02*
X1775Y325D01*
X1845Y325D02*
X1848Y325D01*
X1857Y325D02*
X1860Y325D01*
X1872Y325D02*
X1891Y325D01*
X1976Y325D02*
X2042Y325D01*
X66Y324D02*
X83Y324D01*
X189Y324D02*
X221Y324D01*
X821Y324D02*
X827Y324D01*
X869Y324D02*
X875Y324D01*
X1728Y324D02*
X1775Y324D01*
X1845Y324D02*
X1848Y324D01*
X1857Y324D02*
X1860Y324D01*
X1873Y324D02*
X1891Y324D01*
X1976Y324D02*
X2042Y324D01*
X66Y323D02*
X95Y323D01*
X189Y323D02*
X192Y323D01*
X217Y323D02*
X221Y323D01*
X821Y323D02*
X827Y323D01*
X868Y323D02*
X874Y323D01*
X1728Y323D02*
X1775Y323D01*
X1845Y323D02*
X1848Y323D01*
X1857Y323D02*
X1860Y323D01*
X1874Y323D02*
X1891Y323D01*
X1976Y323D02*
X2042Y323D01*
X66Y322D02*
X69Y322D01*
X80Y322D02*
X97Y322D01*
X189Y322D02*
X192Y322D01*
X217Y322D02*
X221Y322D01*
X821Y322D02*
X827Y322D01*
X867Y322D02*
X873Y322D01*
X1728Y322D02*
X1775Y322D01*
X1845Y322D02*
X1848Y322D01*
X1857Y322D02*
X1860Y322D01*
X1875Y322D02*
X1891Y322D01*
X1976Y322D02*
X2042Y322D01*
X66Y321D02*
X69Y321D01*
X80Y321D02*
X98Y321D01*
X189Y321D02*
X192Y321D01*
X217Y321D02*
X221Y321D01*
X821Y321D02*
X827Y321D01*
X866Y321D02*
X872Y321D01*
X1728Y321D02*
X1775Y321D01*
X1845Y321D02*
X1848Y321D01*
X1857Y321D02*
X1860Y321D01*
X1880Y321D02*
X1884Y321D01*
X1888Y321D02*
X1891Y321D01*
X1976Y321D02*
X2042Y321D01*
X66Y320D02*
X69Y320D01*
X80Y320D02*
X98Y320D01*
X189Y320D02*
X192Y320D01*
X217Y320D02*
X221Y320D01*
X821Y320D02*
X827Y320D01*
X865Y320D02*
X871Y320D01*
X1728Y320D02*
X1775Y320D01*
X1845Y320D02*
X1848Y320D01*
X1857Y320D02*
X1860Y320D01*
X1880Y320D02*
X1884Y320D01*
X1888Y320D02*
X1891Y320D01*
X1976Y320D02*
X2042Y320D01*
X66Y319D02*
X69Y319D01*
X80Y319D02*
X98Y319D01*
X189Y319D02*
X192Y319D01*
X217Y319D02*
X221Y319D01*
X821Y319D02*
X827Y319D01*
X864Y319D02*
X870Y319D01*
X1728Y319D02*
X1775Y319D01*
X1845Y319D02*
X1848Y319D01*
X1857Y319D02*
X1860Y319D01*
X1879Y319D02*
X1883Y319D01*
X1888Y319D02*
X1891Y319D01*
X1976Y319D02*
X2042Y319D01*
X66Y318D02*
X69Y318D01*
X80Y318D02*
X83Y318D01*
X94Y318D02*
X98Y318D01*
X189Y318D02*
X192Y318D01*
X217Y318D02*
X221Y318D01*
X821Y318D02*
X827Y318D01*
X863Y318D02*
X869Y318D01*
X1728Y318D02*
X1775Y318D01*
X1844Y318D02*
X1860Y318D01*
X1879Y318D02*
X1882Y318D01*
X1888Y318D02*
X1891Y318D01*
X1976Y318D02*
X2042Y318D01*
X66Y317D02*
X69Y317D01*
X80Y317D02*
X83Y317D01*
X94Y317D02*
X98Y317D01*
X189Y317D02*
X192Y317D01*
X218Y317D02*
X220Y317D01*
X821Y317D02*
X827Y317D01*
X862Y317D02*
X868Y317D01*
X1843Y317D02*
X1860Y317D01*
X1878Y317D02*
X1882Y317D01*
X1888Y317D02*
X1891Y317D01*
X66Y316D02*
X69Y316D01*
X80Y316D02*
X83Y316D01*
X94Y316D02*
X98Y316D01*
X190Y316D02*
X191Y316D01*
X219Y316D02*
X219Y316D01*
X810Y316D02*
X813Y316D01*
X821Y316D02*
X827Y316D01*
X861Y316D02*
X867Y316D01*
X1843Y316D02*
X1860Y316D01*
X1877Y316D02*
X1881Y316D01*
X1888Y316D02*
X1891Y316D01*
X66Y315D02*
X69Y315D01*
X80Y315D02*
X84Y315D01*
X94Y315D02*
X98Y315D01*
X809Y315D02*
X814Y315D01*
X821Y315D02*
X827Y315D01*
X860Y315D02*
X866Y315D01*
X1843Y315D02*
X1860Y315D01*
X1877Y315D02*
X1881Y315D01*
X1888Y315D02*
X1891Y315D01*
X66Y314D02*
X69Y314D01*
X80Y314D02*
X98Y314D01*
X809Y314D02*
X814Y314D01*
X821Y314D02*
X827Y314D01*
X859Y314D02*
X865Y314D01*
X1844Y314D02*
X1848Y314D01*
X1876Y314D02*
X1880Y314D01*
X1888Y314D02*
X1891Y314D01*
X66Y313D02*
X69Y313D01*
X80Y313D02*
X98Y313D01*
X809Y313D02*
X814Y313D01*
X821Y313D02*
X827Y313D01*
X860Y313D02*
X864Y313D01*
X1845Y313D02*
X1848Y313D01*
X1876Y313D02*
X1879Y313D01*
X1888Y313D02*
X1891Y313D01*
X66Y312D02*
X69Y312D01*
X80Y312D02*
X97Y312D01*
X809Y312D02*
X814Y312D01*
X821Y312D02*
X827Y312D01*
X861Y312D02*
X863Y312D01*
X1845Y312D02*
X1848Y312D01*
X1875Y312D02*
X1879Y312D01*
X1888Y312D02*
X1891Y312D01*
X66Y311D02*
X69Y311D01*
X80Y311D02*
X97Y311D01*
X809Y311D02*
X814Y311D01*
X821Y311D02*
X827Y311D01*
X862Y311D02*
X862Y311D01*
X1845Y311D02*
X1848Y311D01*
X1874Y311D02*
X1878Y311D01*
X1888Y311D02*
X1891Y311D01*
X66Y310D02*
X83Y310D01*
X809Y310D02*
X814Y310D01*
X821Y310D02*
X827Y310D01*
X1845Y310D02*
X1848Y310D01*
X1874Y310D02*
X1878Y310D01*
X1888Y310D02*
X1891Y310D01*
X66Y309D02*
X83Y309D01*
X809Y309D02*
X814Y309D01*
X821Y309D02*
X827Y309D01*
X1845Y309D02*
X1848Y309D01*
X1873Y309D02*
X1877Y309D01*
X1888Y309D02*
X1891Y309D01*
X67Y308D02*
X82Y308D01*
X809Y308D02*
X814Y308D01*
X821Y308D02*
X827Y308D01*
X1845Y308D02*
X1848Y308D01*
X1873Y308D02*
X1877Y308D01*
X1888Y308D02*
X1891Y308D01*
X68Y307D02*
X81Y307D01*
X809Y307D02*
X814Y307D01*
X821Y307D02*
X827Y307D01*
X1845Y307D02*
X1848Y307D01*
X1872Y307D02*
X1876Y307D01*
X1888Y307D02*
X1891Y307D01*
X190Y306D02*
X192Y306D01*
X211Y306D02*
X217Y306D01*
X809Y306D02*
X814Y306D01*
X821Y306D02*
X827Y306D01*
X1845Y306D02*
X1848Y306D01*
X1872Y306D02*
X1875Y306D01*
X1888Y306D02*
X1891Y306D01*
X189Y305D02*
X193Y305D01*
X209Y305D02*
X218Y305D01*
X809Y305D02*
X814Y305D01*
X821Y305D02*
X827Y305D01*
X1845Y305D02*
X1848Y305D01*
X1872Y305D02*
X1875Y305D01*
X1888Y305D02*
X1891Y305D01*
X189Y304D02*
X195Y304D01*
X208Y304D02*
X219Y304D01*
X809Y304D02*
X814Y304D01*
X821Y304D02*
X827Y304D01*
X1846Y304D02*
X1847Y304D01*
X1872Y304D02*
X1874Y304D01*
X1889Y304D02*
X1891Y304D01*
X190Y303D02*
X197Y303D01*
X208Y303D02*
X220Y303D01*
X809Y303D02*
X814Y303D01*
X821Y303D02*
X827Y303D01*
X191Y302D02*
X199Y302D01*
X207Y302D02*
X211Y302D01*
X216Y302D02*
X220Y302D01*
X809Y302D02*
X814Y302D01*
X821Y302D02*
X827Y302D01*
X193Y301D02*
X200Y301D01*
X207Y301D02*
X210Y301D01*
X217Y301D02*
X221Y301D01*
X809Y301D02*
X814Y301D01*
X821Y301D02*
X827Y301D01*
X195Y300D02*
X202Y300D01*
X207Y300D02*
X210Y300D01*
X217Y300D02*
X221Y300D01*
X809Y300D02*
X838Y300D01*
X196Y299D02*
X204Y299D01*
X207Y299D02*
X210Y299D01*
X217Y299D02*
X221Y299D01*
X809Y299D02*
X839Y299D01*
X198Y298D02*
X210Y298D01*
X217Y298D02*
X221Y298D01*
X809Y298D02*
X839Y298D01*
X67Y297D02*
X68Y297D01*
X88Y297D02*
X93Y297D01*
X200Y297D02*
X210Y297D01*
X217Y297D02*
X221Y297D01*
X809Y297D02*
X839Y297D01*
X66Y296D02*
X70Y296D01*
X87Y296D02*
X95Y296D01*
X201Y296D02*
X210Y296D01*
X217Y296D02*
X221Y296D01*
X809Y296D02*
X839Y296D01*
X66Y295D02*
X72Y295D01*
X85Y295D02*
X96Y295D01*
X203Y295D02*
X210Y295D01*
X217Y295D02*
X221Y295D01*
X810Y295D02*
X838Y295D01*
X66Y294D02*
X73Y294D01*
X85Y294D02*
X97Y294D01*
X205Y294D02*
X210Y294D01*
X217Y294D02*
X221Y294D01*
X68Y293D02*
X75Y293D01*
X84Y293D02*
X89Y293D01*
X92Y293D02*
X97Y293D01*
X206Y293D02*
X210Y293D01*
X217Y293D02*
X221Y293D01*
X69Y292D02*
X77Y292D01*
X84Y292D02*
X87Y292D01*
X94Y292D02*
X97Y292D01*
X207Y292D02*
X210Y292D01*
X217Y292D02*
X221Y292D01*
X71Y291D02*
X78Y291D01*
X84Y291D02*
X87Y291D01*
X94Y291D02*
X98Y291D01*
X207Y291D02*
X210Y291D01*
X217Y291D02*
X221Y291D01*
X73Y290D02*
X80Y290D01*
X84Y290D02*
X87Y290D01*
X94Y290D02*
X98Y290D01*
X206Y290D02*
X210Y290D01*
X217Y290D02*
X221Y290D01*
X74Y289D02*
X82Y289D01*
X84Y289D02*
X87Y289D01*
X94Y289D02*
X98Y289D01*
X190Y289D02*
X221Y289D01*
X76Y288D02*
X87Y288D01*
X94Y288D02*
X98Y288D01*
X189Y288D02*
X221Y288D01*
X78Y287D02*
X87Y287D01*
X94Y287D02*
X98Y287D01*
X189Y287D02*
X221Y287D01*
X80Y286D02*
X87Y286D01*
X94Y286D02*
X98Y286D01*
X190Y286D02*
X221Y286D01*
X81Y285D02*
X87Y285D01*
X94Y285D02*
X98Y285D01*
X83Y284D02*
X87Y284D01*
X94Y284D02*
X98Y284D01*
X84Y283D02*
X87Y283D01*
X94Y283D02*
X98Y283D01*
X84Y282D02*
X87Y282D01*
X94Y282D02*
X98Y282D01*
X84Y281D02*
X87Y281D01*
X94Y281D02*
X98Y281D01*
X67Y280D02*
X98Y280D01*
X66Y279D02*
X98Y279D01*
X715Y279D02*
X742Y279D01*
X766Y279D02*
X768Y279D01*
X66Y278D02*
X98Y278D01*
X713Y278D02*
X743Y278D01*
X764Y278D02*
X769Y278D01*
X67Y277D02*
X98Y277D01*
X712Y277D02*
X744Y277D01*
X764Y277D02*
X769Y277D01*
X711Y276D02*
X744Y276D01*
X764Y276D02*
X770Y276D01*
X711Y275D02*
X744Y275D01*
X764Y275D02*
X770Y275D01*
X710Y274D02*
X743Y274D01*
X764Y274D02*
X770Y274D01*
X710Y273D02*
X742Y273D01*
X764Y273D02*
X770Y273D01*
X710Y272D02*
X716Y272D01*
X764Y272D02*
X770Y272D01*
X710Y271D02*
X716Y271D01*
X764Y271D02*
X770Y271D01*
X710Y270D02*
X716Y270D01*
X764Y270D02*
X770Y270D01*
X710Y269D02*
X716Y269D01*
X764Y269D02*
X770Y269D01*
X710Y268D02*
X716Y268D01*
X764Y268D02*
X770Y268D01*
X710Y267D02*
X716Y267D01*
X764Y267D02*
X770Y267D01*
X710Y266D02*
X716Y266D01*
X764Y266D02*
X770Y266D01*
X710Y265D02*
X716Y265D01*
X764Y265D02*
X770Y265D01*
X710Y264D02*
X716Y264D01*
X764Y264D02*
X770Y264D01*
X2425Y264D02*
X2440Y264D01*
X2458Y264D02*
X2474Y264D01*
X710Y263D02*
X716Y263D01*
X764Y263D02*
X770Y263D01*
X2424Y263D02*
X2440Y263D01*
X2456Y263D02*
X2474Y263D01*
X710Y262D02*
X716Y262D01*
X764Y262D02*
X770Y262D01*
X2424Y262D02*
X2440Y262D01*
X2455Y262D02*
X2474Y262D01*
X710Y261D02*
X716Y261D01*
X764Y261D02*
X770Y261D01*
X2425Y261D02*
X2440Y261D01*
X2455Y261D02*
X2474Y261D01*
X710Y260D02*
X716Y260D01*
X764Y260D02*
X770Y260D01*
X2436Y260D02*
X2440Y260D01*
X2454Y260D02*
X2458Y260D01*
X2470Y260D02*
X2474Y260D01*
X710Y259D02*
X716Y259D01*
X764Y259D02*
X770Y259D01*
X2436Y259D02*
X2440Y259D01*
X2454Y259D02*
X2457Y259D01*
X2470Y259D02*
X2474Y259D01*
X710Y258D02*
X716Y258D01*
X764Y258D02*
X770Y258D01*
X2436Y258D02*
X2440Y258D01*
X2454Y258D02*
X2457Y258D01*
X2470Y258D02*
X2474Y258D01*
X710Y257D02*
X716Y257D01*
X764Y257D02*
X770Y257D01*
X2436Y257D02*
X2440Y257D01*
X2454Y257D02*
X2457Y257D01*
X2470Y257D02*
X2474Y257D01*
X710Y256D02*
X716Y256D01*
X764Y256D02*
X770Y256D01*
X2436Y256D02*
X2440Y256D01*
X2454Y256D02*
X2457Y256D01*
X2470Y256D02*
X2474Y256D01*
X710Y255D02*
X740Y255D01*
X764Y255D02*
X770Y255D01*
X2436Y255D02*
X2440Y255D01*
X2454Y255D02*
X2458Y255D01*
X2470Y255D02*
X2474Y255D01*
X711Y254D02*
X741Y254D01*
X764Y254D02*
X770Y254D01*
X2436Y254D02*
X2440Y254D01*
X2454Y254D02*
X2474Y254D01*
X711Y253D02*
X742Y253D01*
X764Y253D02*
X770Y253D01*
X2436Y253D02*
X2440Y253D01*
X2455Y253D02*
X2474Y253D01*
X711Y252D02*
X743Y252D01*
X764Y252D02*
X770Y252D01*
X2303Y252D02*
X2350Y252D01*
X2436Y252D02*
X2440Y252D01*
X2456Y252D02*
X2474Y252D01*
X2551Y252D02*
X2617Y252D01*
X712Y251D02*
X743Y251D01*
X764Y251D02*
X770Y251D01*
X2303Y251D02*
X2350Y251D01*
X2436Y251D02*
X2440Y251D01*
X2457Y251D02*
X2474Y251D01*
X2551Y251D02*
X2617Y251D01*
X714Y250D02*
X744Y250D01*
X764Y250D02*
X770Y250D01*
X2303Y250D02*
X2350Y250D01*
X2426Y250D02*
X2440Y250D01*
X2459Y250D02*
X2474Y250D01*
X2551Y250D02*
X2617Y250D01*
X716Y249D02*
X744Y249D01*
X764Y249D02*
X770Y249D01*
X786Y249D02*
X789Y249D01*
X2303Y249D02*
X2350Y249D01*
X2425Y249D02*
X2440Y249D01*
X2462Y249D02*
X2466Y249D01*
X2470Y249D02*
X2474Y249D01*
X2551Y249D02*
X2617Y249D01*
X738Y248D02*
X744Y248D01*
X764Y248D02*
X770Y248D01*
X785Y248D02*
X790Y248D01*
X2303Y248D02*
X2350Y248D01*
X2424Y248D02*
X2440Y248D01*
X2462Y248D02*
X2465Y248D01*
X2470Y248D02*
X2474Y248D01*
X2551Y248D02*
X2617Y248D01*
X738Y247D02*
X744Y247D01*
X764Y247D02*
X770Y247D01*
X784Y247D02*
X790Y247D01*
X2303Y247D02*
X2350Y247D01*
X2424Y247D02*
X2440Y247D01*
X2461Y247D02*
X2465Y247D01*
X2470Y247D02*
X2474Y247D01*
X2551Y247D02*
X2617Y247D01*
X738Y246D02*
X744Y246D01*
X764Y246D02*
X770Y246D01*
X784Y246D02*
X790Y246D01*
X2303Y246D02*
X2350Y246D01*
X2424Y246D02*
X2427Y246D01*
X2460Y246D02*
X2464Y246D01*
X2470Y246D02*
X2474Y246D01*
X2551Y246D02*
X2617Y246D01*
X738Y245D02*
X744Y245D01*
X764Y245D02*
X770Y245D01*
X784Y245D02*
X790Y245D01*
X2303Y245D02*
X2350Y245D01*
X2424Y245D02*
X2427Y245D01*
X2460Y245D02*
X2464Y245D01*
X2470Y245D02*
X2474Y245D01*
X2551Y245D02*
X2617Y245D01*
X738Y244D02*
X744Y244D01*
X764Y244D02*
X770Y244D01*
X784Y244D02*
X790Y244D01*
X2303Y244D02*
X2350Y244D01*
X2424Y244D02*
X2427Y244D01*
X2459Y244D02*
X2463Y244D01*
X2470Y244D02*
X2474Y244D01*
X2551Y244D02*
X2617Y244D01*
X738Y243D02*
X744Y243D01*
X764Y243D02*
X770Y243D01*
X784Y243D02*
X790Y243D01*
X2303Y243D02*
X2350Y243D01*
X2424Y243D02*
X2427Y243D01*
X2459Y243D02*
X2463Y243D01*
X2470Y243D02*
X2474Y243D01*
X2551Y243D02*
X2617Y243D01*
X738Y242D02*
X744Y242D01*
X764Y242D02*
X770Y242D01*
X784Y242D02*
X790Y242D01*
X2424Y242D02*
X2427Y242D01*
X2458Y242D02*
X2462Y242D01*
X2470Y242D02*
X2474Y242D01*
X738Y241D02*
X744Y241D01*
X764Y241D02*
X770Y241D01*
X784Y241D02*
X790Y241D01*
X2424Y241D02*
X2427Y241D01*
X2458Y241D02*
X2461Y241D01*
X2470Y241D02*
X2474Y241D01*
X738Y240D02*
X744Y240D01*
X764Y240D02*
X770Y240D01*
X784Y240D02*
X790Y240D01*
X2424Y240D02*
X2427Y240D01*
X2457Y240D02*
X2461Y240D01*
X2470Y240D02*
X2474Y240D01*
X738Y239D02*
X744Y239D01*
X764Y239D02*
X770Y239D01*
X784Y239D02*
X790Y239D01*
X2424Y239D02*
X2427Y239D01*
X2456Y239D02*
X2460Y239D01*
X2470Y239D02*
X2474Y239D01*
X738Y238D02*
X744Y238D01*
X764Y238D02*
X770Y238D01*
X784Y238D02*
X790Y238D01*
X2424Y238D02*
X2427Y238D01*
X2442Y238D02*
X2442Y238D01*
X2456Y238D02*
X2460Y238D01*
X2470Y238D02*
X2474Y238D01*
X738Y237D02*
X744Y237D01*
X764Y237D02*
X770Y237D01*
X784Y237D02*
X790Y237D01*
X2424Y237D02*
X2427Y237D01*
X2439Y237D02*
X2443Y237D01*
X2455Y237D02*
X2459Y237D01*
X2470Y237D02*
X2474Y237D01*
X738Y236D02*
X744Y236D01*
X764Y236D02*
X770Y236D01*
X784Y236D02*
X790Y236D01*
X2424Y236D02*
X2444Y236D01*
X2455Y236D02*
X2458Y236D01*
X2470Y236D02*
X2474Y236D01*
X738Y235D02*
X744Y235D01*
X764Y235D02*
X770Y235D01*
X784Y235D02*
X790Y235D01*
X2424Y235D02*
X2443Y235D01*
X2454Y235D02*
X2458Y235D01*
X2470Y235D02*
X2474Y235D01*
X738Y234D02*
X744Y234D01*
X764Y234D02*
X770Y234D01*
X784Y234D02*
X790Y234D01*
X2425Y234D02*
X2442Y234D01*
X2454Y234D02*
X2457Y234D01*
X2471Y234D02*
X2474Y234D01*
X738Y233D02*
X744Y233D01*
X764Y233D02*
X771Y233D01*
X783Y233D02*
X790Y233D01*
X2426Y233D02*
X2440Y233D01*
X2454Y233D02*
X2457Y233D01*
X2471Y233D02*
X2473Y233D01*
X712Y232D02*
X744Y232D01*
X764Y232D02*
X790Y232D01*
X206Y231D02*
X215Y231D01*
X711Y231D02*
X744Y231D01*
X765Y231D02*
X789Y231D01*
X206Y230D02*
X215Y230D01*
X710Y230D02*
X744Y230D01*
X765Y230D02*
X789Y230D01*
X206Y229D02*
X215Y229D01*
X710Y229D02*
X744Y229D01*
X766Y229D02*
X788Y229D01*
X206Y228D02*
X215Y228D01*
X710Y228D02*
X744Y228D01*
X767Y228D02*
X787Y228D01*
X206Y227D02*
X215Y227D01*
X711Y227D02*
X744Y227D01*
X769Y227D02*
X786Y227D01*
X206Y226D02*
X215Y226D01*
X712Y226D02*
X744Y226D01*
X770Y226D02*
X784Y226D01*
X206Y225D02*
X215Y225D01*
X206Y224D02*
X215Y224D01*
X206Y223D02*
X215Y223D01*
X1590Y223D02*
X1603Y223D01*
X206Y222D02*
X215Y222D01*
X1589Y222D02*
X1605Y222D01*
X206Y221D02*
X215Y221D01*
X1588Y221D02*
X1606Y221D01*
X206Y220D02*
X215Y220D01*
X1588Y220D02*
X1606Y220D01*
X206Y219D02*
X215Y219D01*
X1588Y219D02*
X1606Y219D01*
X206Y218D02*
X215Y218D01*
X1588Y218D02*
X1606Y218D01*
X206Y217D02*
X215Y217D01*
X1588Y217D02*
X1606Y217D01*
X206Y216D02*
X215Y216D01*
X1588Y216D02*
X1593Y216D01*
X1600Y216D02*
X1606Y216D01*
X206Y215D02*
X215Y215D01*
X1588Y215D02*
X1593Y215D01*
X1600Y215D02*
X1606Y215D01*
X206Y214D02*
X215Y214D01*
X1588Y214D02*
X1593Y214D01*
X1600Y214D02*
X1606Y214D01*
X206Y213D02*
X215Y213D01*
X1588Y213D02*
X1593Y213D01*
X1600Y213D02*
X1606Y213D01*
X81Y212D02*
X90Y212D01*
X206Y212D02*
X215Y212D01*
X1588Y212D02*
X1593Y212D01*
X1600Y212D02*
X1606Y212D01*
X81Y211D02*
X90Y211D01*
X206Y211D02*
X215Y211D01*
X1588Y211D02*
X1593Y211D01*
X1600Y211D02*
X1606Y211D01*
X81Y210D02*
X90Y210D01*
X206Y210D02*
X215Y210D01*
X1588Y210D02*
X1593Y210D01*
X1600Y210D02*
X1606Y210D01*
X1865Y210D02*
X1883Y210D01*
X1897Y210D02*
X1914Y210D01*
X81Y209D02*
X90Y209D01*
X206Y209D02*
X215Y209D01*
X1588Y209D02*
X1593Y209D01*
X1600Y209D02*
X1606Y209D01*
X1865Y209D02*
X1884Y209D01*
X1896Y209D02*
X1914Y209D01*
X81Y208D02*
X90Y208D01*
X206Y208D02*
X215Y208D01*
X1588Y208D02*
X1593Y208D01*
X1600Y208D02*
X1606Y208D01*
X1864Y208D02*
X1883Y208D01*
X1895Y208D02*
X1914Y208D01*
X81Y207D02*
X90Y207D01*
X206Y207D02*
X215Y207D01*
X1588Y207D02*
X1593Y207D01*
X1600Y207D02*
X1606Y207D01*
X1864Y207D02*
X1882Y207D01*
X1894Y207D02*
X1914Y207D01*
X81Y206D02*
X90Y206D01*
X206Y206D02*
X215Y206D01*
X1588Y206D02*
X1593Y206D01*
X1600Y206D02*
X1606Y206D01*
X1864Y206D02*
X1867Y206D01*
X1894Y206D02*
X1898Y206D01*
X1910Y206D02*
X1914Y206D01*
X81Y205D02*
X90Y205D01*
X206Y205D02*
X215Y205D01*
X1588Y205D02*
X1593Y205D01*
X1600Y205D02*
X1606Y205D01*
X1864Y205D02*
X1867Y205D01*
X1894Y205D02*
X1897Y205D01*
X1910Y205D02*
X1914Y205D01*
X81Y204D02*
X90Y204D01*
X206Y204D02*
X215Y204D01*
X1588Y204D02*
X1593Y204D01*
X1600Y204D02*
X1606Y204D01*
X1864Y204D02*
X1867Y204D01*
X1894Y204D02*
X1897Y204D01*
X1910Y204D02*
X1914Y204D01*
X81Y203D02*
X90Y203D01*
X206Y203D02*
X215Y203D01*
X1588Y203D02*
X1593Y203D01*
X1600Y203D02*
X1606Y203D01*
X1864Y203D02*
X1867Y203D01*
X1894Y203D02*
X1897Y203D01*
X1910Y203D02*
X1914Y203D01*
X81Y202D02*
X90Y202D01*
X206Y202D02*
X215Y202D01*
X1588Y202D02*
X1594Y202D01*
X1600Y202D02*
X1606Y202D01*
X1728Y202D02*
X1794Y202D01*
X1864Y202D02*
X1867Y202D01*
X1894Y202D02*
X1897Y202D01*
X1910Y202D02*
X1914Y202D01*
X1995Y202D02*
X2042Y202D01*
X81Y201D02*
X90Y201D01*
X206Y201D02*
X215Y201D01*
X1585Y201D02*
X1609Y201D01*
X1728Y201D02*
X1794Y201D01*
X1864Y201D02*
X1867Y201D01*
X1894Y201D02*
X1898Y201D01*
X1910Y201D02*
X1914Y201D01*
X1995Y201D02*
X2042Y201D01*
X81Y200D02*
X90Y200D01*
X206Y200D02*
X215Y200D01*
X1584Y200D02*
X1610Y200D01*
X1728Y200D02*
X1794Y200D01*
X1864Y200D02*
X1867Y200D01*
X1894Y200D02*
X1914Y200D01*
X1995Y200D02*
X2042Y200D01*
X81Y199D02*
X90Y199D01*
X206Y199D02*
X215Y199D01*
X1583Y199D02*
X1611Y199D01*
X1728Y199D02*
X1794Y199D01*
X1864Y199D02*
X1867Y199D01*
X1895Y199D02*
X1914Y199D01*
X1995Y199D02*
X2042Y199D01*
X81Y198D02*
X90Y198D01*
X206Y198D02*
X215Y198D01*
X1582Y198D02*
X1612Y198D01*
X1728Y198D02*
X1794Y198D01*
X1864Y198D02*
X1867Y198D01*
X1896Y198D02*
X1914Y198D01*
X1995Y198D02*
X2042Y198D01*
X81Y197D02*
X90Y197D01*
X206Y197D02*
X215Y197D01*
X1582Y197D02*
X1612Y197D01*
X1728Y197D02*
X1794Y197D01*
X1864Y197D02*
X1869Y197D01*
X1897Y197D02*
X1914Y197D01*
X1995Y197D02*
X2042Y197D01*
X81Y196D02*
X90Y196D01*
X206Y196D02*
X215Y196D01*
X1582Y196D02*
X1612Y196D01*
X1728Y196D02*
X1794Y196D01*
X1865Y196D02*
X1879Y196D01*
X1902Y196D02*
X1907Y196D01*
X1910Y196D02*
X1914Y196D01*
X1995Y196D02*
X2042Y196D01*
X81Y195D02*
X90Y195D01*
X206Y195D02*
X215Y195D01*
X1582Y195D02*
X1587Y195D01*
X1607Y195D02*
X1612Y195D01*
X1728Y195D02*
X1794Y195D01*
X1865Y195D02*
X1879Y195D01*
X1902Y195D02*
X1906Y195D01*
X1910Y195D02*
X1914Y195D01*
X1995Y195D02*
X2042Y195D01*
X81Y194D02*
X90Y194D01*
X206Y194D02*
X215Y194D01*
X1582Y194D02*
X1587Y194D01*
X1607Y194D02*
X1612Y194D01*
X1728Y194D02*
X1794Y194D01*
X1865Y194D02*
X1879Y194D01*
X1901Y194D02*
X1905Y194D01*
X1910Y194D02*
X1914Y194D01*
X1995Y194D02*
X2042Y194D01*
X81Y193D02*
X90Y193D01*
X206Y193D02*
X215Y193D01*
X1582Y193D02*
X1587Y193D01*
X1607Y193D02*
X1612Y193D01*
X1728Y193D02*
X1794Y193D01*
X1864Y193D02*
X1878Y193D01*
X1901Y193D02*
X1905Y193D01*
X1910Y193D02*
X1914Y193D01*
X1995Y193D02*
X2042Y193D01*
X81Y192D02*
X90Y192D01*
X206Y192D02*
X215Y192D01*
X1582Y192D02*
X1587Y192D01*
X1607Y192D02*
X1612Y192D01*
X1864Y192D02*
X1868Y192D01*
X1900Y192D02*
X1904Y192D01*
X1910Y192D02*
X1914Y192D01*
X81Y191D02*
X90Y191D01*
X206Y191D02*
X215Y191D01*
X1582Y191D02*
X1587Y191D01*
X1607Y191D02*
X1612Y191D01*
X1864Y191D02*
X1867Y191D01*
X1900Y191D02*
X1903Y191D01*
X1910Y191D02*
X1914Y191D01*
X81Y190D02*
X90Y190D01*
X206Y190D02*
X215Y190D01*
X1582Y190D02*
X1587Y190D01*
X1607Y190D02*
X1612Y190D01*
X1864Y190D02*
X1867Y190D01*
X1899Y190D02*
X1903Y190D01*
X1910Y190D02*
X1914Y190D01*
X81Y189D02*
X90Y189D01*
X206Y189D02*
X215Y189D01*
X1582Y189D02*
X1587Y189D01*
X1607Y189D02*
X1612Y189D01*
X1864Y189D02*
X1867Y189D01*
X1898Y189D02*
X1902Y189D01*
X1910Y189D02*
X1914Y189D01*
X81Y188D02*
X90Y188D01*
X206Y188D02*
X215Y188D01*
X1582Y188D02*
X1587Y188D01*
X1607Y188D02*
X1612Y188D01*
X1864Y188D02*
X1867Y188D01*
X1898Y188D02*
X1902Y188D01*
X1910Y188D02*
X1914Y188D01*
X81Y187D02*
X90Y187D01*
X206Y187D02*
X215Y187D01*
X1582Y187D02*
X1587Y187D01*
X1607Y187D02*
X1612Y187D01*
X1864Y187D02*
X1867Y187D01*
X1897Y187D02*
X1901Y187D01*
X1910Y187D02*
X1914Y187D01*
X81Y186D02*
X90Y186D01*
X206Y186D02*
X215Y186D01*
X1582Y186D02*
X1587Y186D01*
X1607Y186D02*
X1612Y186D01*
X1864Y186D02*
X1867Y186D01*
X1897Y186D02*
X1901Y186D01*
X1910Y186D02*
X1914Y186D01*
X81Y185D02*
X90Y185D01*
X206Y185D02*
X215Y185D01*
X1582Y185D02*
X1587Y185D01*
X1607Y185D02*
X1612Y185D01*
X1864Y185D02*
X1867Y185D01*
X1896Y185D02*
X1900Y185D01*
X1910Y185D02*
X1914Y185D01*
X81Y184D02*
X90Y184D01*
X206Y184D02*
X215Y184D01*
X1582Y184D02*
X1587Y184D01*
X1607Y184D02*
X1612Y184D01*
X1864Y184D02*
X1867Y184D01*
X1895Y184D02*
X1899Y184D01*
X1910Y184D02*
X1914Y184D01*
X81Y183D02*
X90Y183D01*
X206Y183D02*
X215Y183D01*
X1582Y183D02*
X1587Y183D01*
X1607Y183D02*
X1612Y183D01*
X1864Y183D02*
X1867Y183D01*
X1895Y183D02*
X1899Y183D01*
X1910Y183D02*
X1914Y183D01*
X81Y182D02*
X90Y182D01*
X206Y182D02*
X215Y182D01*
X1582Y182D02*
X1587Y182D01*
X1607Y182D02*
X1612Y182D01*
X1864Y182D02*
X1883Y182D01*
X1894Y182D02*
X1898Y182D01*
X1910Y182D02*
X1914Y182D01*
X81Y181D02*
X90Y181D01*
X206Y181D02*
X215Y181D01*
X1582Y181D02*
X1587Y181D01*
X1607Y181D02*
X1612Y181D01*
X1864Y181D02*
X1883Y181D01*
X1894Y181D02*
X1898Y181D01*
X1910Y181D02*
X1914Y181D01*
X81Y180D02*
X90Y180D01*
X206Y180D02*
X215Y180D01*
X1582Y180D02*
X1612Y180D01*
X1865Y180D02*
X1883Y180D01*
X1894Y180D02*
X1897Y180D01*
X1910Y180D02*
X1913Y180D01*
X81Y179D02*
X90Y179D01*
X206Y179D02*
X215Y179D01*
X1582Y179D02*
X1612Y179D01*
X1866Y179D02*
X1883Y179D01*
X1895Y179D02*
X1896Y179D01*
X1911Y179D02*
X1913Y179D01*
X81Y178D02*
X90Y178D01*
X206Y178D02*
X215Y178D01*
X1582Y178D02*
X1612Y178D01*
X81Y177D02*
X90Y177D01*
X206Y177D02*
X215Y177D01*
X1583Y177D02*
X1611Y177D01*
X81Y176D02*
X90Y176D01*
X206Y176D02*
X215Y176D01*
X1584Y176D02*
X1610Y176D01*
X81Y175D02*
X90Y175D01*
X206Y175D02*
X215Y175D01*
X1585Y175D02*
X1609Y175D01*
X81Y174D02*
X90Y174D01*
X206Y174D02*
X215Y174D01*
X81Y173D02*
X90Y173D01*
X206Y173D02*
X215Y173D01*
X81Y172D02*
X90Y172D01*
X206Y172D02*
X215Y172D01*
X81Y171D02*
X90Y171D01*
X206Y171D02*
X215Y171D01*
X81Y170D02*
X90Y170D01*
X206Y170D02*
X215Y170D01*
X81Y169D02*
X90Y169D01*
X206Y169D02*
X215Y169D01*
X81Y168D02*
X90Y168D01*
X206Y168D02*
X215Y168D01*
X81Y167D02*
X90Y167D01*
X206Y167D02*
X215Y167D01*
X81Y166D02*
X90Y166D01*
X206Y166D02*
X215Y166D01*
X81Y165D02*
X90Y165D01*
X206Y165D02*
X215Y165D01*
X2444Y135D02*
X2462Y135D01*
X2476Y135D02*
X2492Y135D01*
X2443Y134D02*
X2462Y134D01*
X2474Y134D02*
X2492Y134D01*
X2443Y133D02*
X2462Y133D01*
X2474Y133D02*
X2492Y133D01*
X2442Y132D02*
X2461Y132D01*
X2473Y132D02*
X2492Y132D01*
X2442Y131D02*
X2446Y131D01*
X2473Y131D02*
X2476Y131D01*
X2489Y131D02*
X2492Y131D01*
X2442Y130D02*
X2446Y130D01*
X2472Y130D02*
X2476Y130D01*
X2489Y130D02*
X2492Y130D01*
X2442Y129D02*
X2446Y129D01*
X2472Y129D02*
X2476Y129D01*
X2489Y129D02*
X2492Y129D01*
X1092Y128D02*
X1107Y128D01*
X1111Y128D02*
X1125Y128D01*
X1396Y128D02*
X1411Y128D01*
X2442Y128D02*
X2446Y128D01*
X2472Y128D02*
X2476Y128D01*
X2489Y128D02*
X2492Y128D01*
X1091Y127D02*
X1126Y127D01*
X1395Y127D02*
X1412Y127D01*
X2303Y127D02*
X2369Y127D01*
X2442Y127D02*
X2446Y127D01*
X2472Y127D02*
X2476Y127D01*
X2489Y127D02*
X2492Y127D01*
X2570Y127D02*
X2617Y127D01*
X895Y126D02*
X895Y126D01*
X914Y126D02*
X926Y126D01*
X1090Y126D02*
X1127Y126D01*
X1395Y126D02*
X1412Y126D01*
X1497Y126D02*
X1497Y126D01*
X1517Y126D02*
X1529Y126D01*
X2303Y126D02*
X2369Y126D01*
X2442Y126D02*
X2446Y126D01*
X2473Y126D02*
X2476Y126D01*
X2489Y126D02*
X2492Y126D01*
X2570Y126D02*
X2617Y126D01*
X893Y125D02*
X896Y125D01*
X912Y125D02*
X928Y125D01*
X1090Y125D02*
X1127Y125D01*
X1395Y125D02*
X1412Y125D01*
X1496Y125D02*
X1499Y125D01*
X1514Y125D02*
X1531Y125D01*
X2303Y125D02*
X2369Y125D01*
X2442Y125D02*
X2446Y125D01*
X2473Y125D02*
X2492Y125D01*
X2570Y125D02*
X2617Y125D01*
X893Y124D02*
X897Y124D01*
X911Y124D02*
X929Y124D01*
X1090Y124D02*
X1128Y124D01*
X1395Y124D02*
X1410Y124D01*
X1495Y124D02*
X1499Y124D01*
X1513Y124D02*
X1532Y124D01*
X2303Y124D02*
X2369Y124D01*
X2442Y124D02*
X2446Y124D01*
X2474Y124D02*
X2492Y124D01*
X2570Y124D02*
X2617Y124D01*
X893Y123D02*
X897Y123D01*
X910Y123D02*
X930Y123D01*
X1090Y123D02*
X1094Y123D01*
X1106Y123D02*
X1112Y123D01*
X1124Y123D02*
X1128Y123D01*
X1196Y123D02*
X1227Y123D01*
X1395Y123D02*
X1399Y123D01*
X1495Y123D02*
X1499Y123D01*
X1513Y123D02*
X1533Y123D01*
X2303Y123D02*
X2369Y123D01*
X2442Y123D02*
X2446Y123D01*
X2474Y123D02*
X2492Y123D01*
X2570Y123D02*
X2617Y123D01*
X893Y122D02*
X897Y122D01*
X910Y122D02*
X930Y122D01*
X1090Y122D02*
X1094Y122D01*
X1107Y122D02*
X1111Y122D01*
X1124Y122D02*
X1128Y122D01*
X1194Y122D02*
X1229Y122D01*
X1395Y122D02*
X1399Y122D01*
X1495Y122D02*
X1499Y122D01*
X1512Y122D02*
X1533Y122D01*
X2303Y122D02*
X2369Y122D01*
X2442Y122D02*
X2446Y122D01*
X2476Y122D02*
X2492Y122D01*
X2570Y122D02*
X2617Y122D01*
X893Y121D02*
X897Y121D01*
X910Y121D02*
X914Y121D01*
X926Y121D02*
X930Y121D01*
X1090Y121D02*
X1094Y121D01*
X1107Y121D02*
X1111Y121D01*
X1124Y121D02*
X1128Y121D01*
X1194Y121D02*
X1229Y121D01*
X1395Y121D02*
X1399Y121D01*
X1495Y121D02*
X1499Y121D01*
X1512Y121D02*
X1517Y121D01*
X1529Y121D02*
X1533Y121D01*
X2303Y121D02*
X2369Y121D01*
X2443Y121D02*
X2460Y121D01*
X2481Y121D02*
X2485Y121D01*
X2489Y121D02*
X2492Y121D01*
X2570Y121D02*
X2617Y121D01*
X893Y120D02*
X897Y120D01*
X910Y120D02*
X914Y120D01*
X926Y120D02*
X930Y120D01*
X1090Y120D02*
X1094Y120D01*
X1107Y120D02*
X1111Y120D01*
X1124Y120D02*
X1128Y120D01*
X1193Y120D02*
X1230Y120D01*
X1395Y120D02*
X1399Y120D01*
X1495Y120D02*
X1499Y120D01*
X1512Y120D02*
X1516Y120D01*
X1529Y120D02*
X1533Y120D01*
X2303Y120D02*
X2369Y120D01*
X2443Y120D02*
X2461Y120D01*
X2481Y120D02*
X2484Y120D01*
X2489Y120D02*
X2492Y120D01*
X2570Y120D02*
X2617Y120D01*
X893Y119D02*
X897Y119D01*
X910Y119D02*
X914Y119D01*
X926Y119D02*
X930Y119D01*
X1090Y119D02*
X1094Y119D01*
X1107Y119D02*
X1111Y119D01*
X1124Y119D02*
X1128Y119D01*
X1193Y119D02*
X1230Y119D01*
X1395Y119D02*
X1400Y119D01*
X1495Y119D02*
X1499Y119D01*
X1512Y119D02*
X1516Y119D01*
X1529Y119D02*
X1533Y119D01*
X2303Y119D02*
X2369Y119D01*
X2444Y119D02*
X2462Y119D01*
X2480Y119D02*
X2484Y119D01*
X2489Y119D02*
X2492Y119D01*
X2570Y119D02*
X2617Y119D01*
X893Y118D02*
X897Y118D01*
X910Y118D02*
X914Y118D01*
X926Y118D02*
X930Y118D01*
X1090Y118D02*
X1094Y118D01*
X1107Y118D02*
X1111Y118D01*
X1124Y118D02*
X1128Y118D01*
X1193Y118D02*
X1197Y118D01*
X1226Y118D02*
X1230Y118D01*
X1395Y118D02*
X1433Y118D01*
X1495Y118D02*
X1499Y118D01*
X1512Y118D02*
X1516Y118D01*
X1529Y118D02*
X1533Y118D01*
X2303Y118D02*
X2369Y118D01*
X2445Y118D02*
X2462Y118D01*
X2479Y118D02*
X2483Y118D01*
X2489Y118D02*
X2492Y118D01*
X2570Y118D02*
X2617Y118D01*
X893Y117D02*
X897Y117D01*
X910Y117D02*
X914Y117D01*
X926Y117D02*
X930Y117D01*
X1090Y117D02*
X1094Y117D01*
X1107Y117D02*
X1111Y117D01*
X1124Y117D02*
X1128Y117D01*
X1193Y117D02*
X1197Y117D01*
X1226Y117D02*
X1230Y117D01*
X1395Y117D02*
X1433Y117D01*
X1495Y117D02*
X1499Y117D01*
X1512Y117D02*
X1516Y117D01*
X1529Y117D02*
X1533Y117D01*
X2459Y117D02*
X2462Y117D01*
X2479Y117D02*
X2483Y117D01*
X2489Y117D02*
X2492Y117D01*
X893Y116D02*
X897Y116D01*
X910Y116D02*
X914Y116D01*
X926Y116D02*
X930Y116D01*
X1090Y116D02*
X1094Y116D01*
X1107Y116D02*
X1111Y116D01*
X1124Y116D02*
X1128Y116D01*
X1193Y116D02*
X1197Y116D01*
X1226Y116D02*
X1230Y116D01*
X1395Y116D02*
X1433Y116D01*
X1495Y116D02*
X1499Y116D01*
X1512Y116D02*
X1516Y116D01*
X1529Y116D02*
X1533Y116D01*
X2459Y116D02*
X2462Y116D01*
X2478Y116D02*
X2482Y116D01*
X2489Y116D02*
X2492Y116D01*
X893Y115D02*
X897Y115D01*
X910Y115D02*
X914Y115D01*
X926Y115D02*
X930Y115D01*
X1090Y115D02*
X1094Y115D01*
X1107Y115D02*
X1111Y115D01*
X1124Y115D02*
X1128Y115D01*
X1193Y115D02*
X1197Y115D01*
X1226Y115D02*
X1230Y115D01*
X1395Y115D02*
X1433Y115D01*
X1495Y115D02*
X1499Y115D01*
X1512Y115D02*
X1516Y115D01*
X1529Y115D02*
X1533Y115D01*
X2459Y115D02*
X2462Y115D01*
X2478Y115D02*
X2482Y115D01*
X2489Y115D02*
X2492Y115D01*
X893Y114D02*
X897Y114D01*
X910Y114D02*
X914Y114D01*
X926Y114D02*
X930Y114D01*
X1090Y114D02*
X1094Y114D01*
X1107Y114D02*
X1111Y114D01*
X1124Y114D02*
X1128Y114D01*
X1193Y114D02*
X1197Y114D01*
X1226Y114D02*
X1230Y114D01*
X1395Y114D02*
X1433Y114D01*
X1495Y114D02*
X1499Y114D01*
X1512Y114D02*
X1516Y114D01*
X1529Y114D02*
X1533Y114D01*
X2459Y114D02*
X2462Y114D01*
X2477Y114D02*
X2481Y114D01*
X2489Y114D02*
X2492Y114D01*
X893Y113D02*
X897Y113D01*
X910Y113D02*
X914Y113D01*
X926Y113D02*
X930Y113D01*
X1090Y113D02*
X1094Y113D01*
X1107Y113D02*
X1111Y113D01*
X1124Y113D02*
X1128Y113D01*
X1193Y113D02*
X1197Y113D01*
X1226Y113D02*
X1230Y113D01*
X1395Y113D02*
X1399Y113D01*
X1429Y113D02*
X1433Y113D01*
X1495Y113D02*
X1499Y113D01*
X1512Y113D02*
X1516Y113D01*
X1529Y113D02*
X1533Y113D01*
X2459Y113D02*
X2462Y113D01*
X2476Y113D02*
X2480Y113D01*
X2489Y113D02*
X2492Y113D01*
X893Y112D02*
X897Y112D01*
X910Y112D02*
X914Y112D01*
X926Y112D02*
X930Y112D01*
X1090Y112D02*
X1094Y112D01*
X1107Y112D02*
X1111Y112D01*
X1124Y112D02*
X1128Y112D01*
X1193Y112D02*
X1197Y112D01*
X1226Y112D02*
X1230Y112D01*
X1395Y112D02*
X1399Y112D01*
X1429Y112D02*
X1433Y112D01*
X1495Y112D02*
X1499Y112D01*
X1512Y112D02*
X1516Y112D01*
X1529Y112D02*
X1533Y112D01*
X2459Y112D02*
X2462Y112D01*
X2476Y112D02*
X2480Y112D01*
X2489Y112D02*
X2492Y112D01*
X893Y111D02*
X897Y111D01*
X910Y111D02*
X914Y111D01*
X926Y111D02*
X930Y111D01*
X1090Y111D02*
X1094Y111D01*
X1107Y111D02*
X1111Y111D01*
X1124Y111D02*
X1128Y111D01*
X1193Y111D02*
X1197Y111D01*
X1226Y111D02*
X1230Y111D01*
X1395Y111D02*
X1399Y111D01*
X1429Y111D02*
X1433Y111D01*
X1495Y111D02*
X1499Y111D01*
X1512Y111D02*
X1516Y111D01*
X1529Y111D02*
X1533Y111D01*
X2459Y111D02*
X2462Y111D01*
X2475Y111D02*
X2479Y111D01*
X2489Y111D02*
X2492Y111D01*
X893Y110D02*
X897Y110D01*
X910Y110D02*
X914Y110D01*
X926Y110D02*
X930Y110D01*
X1090Y110D02*
X1094Y110D01*
X1107Y110D02*
X1110Y110D01*
X1124Y110D02*
X1128Y110D01*
X1193Y110D02*
X1197Y110D01*
X1226Y110D02*
X1230Y110D01*
X1395Y110D02*
X1399Y110D01*
X1429Y110D02*
X1433Y110D01*
X1495Y110D02*
X1499Y110D01*
X1512Y110D02*
X1516Y110D01*
X1529Y110D02*
X1533Y110D01*
X2459Y110D02*
X2462Y110D01*
X2475Y110D02*
X2479Y110D01*
X2489Y110D02*
X2492Y110D01*
X893Y109D02*
X897Y109D01*
X910Y109D02*
X914Y109D01*
X926Y109D02*
X930Y109D01*
X1090Y109D02*
X1094Y109D01*
X1124Y109D02*
X1128Y109D01*
X1193Y109D02*
X1197Y109D01*
X1226Y109D02*
X1230Y109D01*
X1395Y109D02*
X1399Y109D01*
X1429Y109D02*
X1433Y109D01*
X1495Y109D02*
X1499Y109D01*
X1512Y109D02*
X1516Y109D01*
X1529Y109D02*
X1533Y109D01*
X2459Y109D02*
X2462Y109D01*
X2474Y109D02*
X2478Y109D01*
X2489Y109D02*
X2492Y109D01*
X893Y108D02*
X897Y108D01*
X910Y108D02*
X914Y108D01*
X926Y108D02*
X930Y108D01*
X1090Y108D02*
X1094Y108D01*
X1124Y108D02*
X1128Y108D01*
X1193Y108D02*
X1197Y108D01*
X1226Y108D02*
X1230Y108D01*
X1395Y108D02*
X1399Y108D01*
X1429Y108D02*
X1433Y108D01*
X1495Y108D02*
X1499Y108D01*
X1512Y108D02*
X1516Y108D01*
X1529Y108D02*
X1533Y108D01*
X2459Y108D02*
X2462Y108D01*
X2474Y108D02*
X2477Y108D01*
X2489Y108D02*
X2492Y108D01*
X893Y107D02*
X897Y107D01*
X910Y107D02*
X914Y107D01*
X926Y107D02*
X930Y107D01*
X1090Y107D02*
X1094Y107D01*
X1124Y107D02*
X1128Y107D01*
X1193Y107D02*
X1197Y107D01*
X1226Y107D02*
X1230Y107D01*
X1395Y107D02*
X1399Y107D01*
X1429Y107D02*
X1433Y107D01*
X1495Y107D02*
X1499Y107D01*
X1512Y107D02*
X1516Y107D01*
X1529Y107D02*
X1533Y107D01*
X2443Y107D02*
X2462Y107D01*
X2473Y107D02*
X2477Y107D01*
X2489Y107D02*
X2492Y107D01*
X893Y106D02*
X913Y106D01*
X926Y106D02*
X930Y106D01*
X1090Y106D02*
X1094Y106D01*
X1124Y106D02*
X1128Y106D01*
X1193Y106D02*
X1197Y106D01*
X1226Y106D02*
X1230Y106D01*
X1395Y106D02*
X1399Y106D01*
X1429Y106D02*
X1433Y106D01*
X1495Y106D02*
X1516Y106D01*
X1529Y106D02*
X1533Y106D01*
X2443Y106D02*
X2462Y106D01*
X2473Y106D02*
X2476Y106D01*
X2489Y106D02*
X2492Y106D01*
X893Y105D02*
X913Y105D01*
X926Y105D02*
X930Y105D01*
X1090Y105D02*
X1093Y105D01*
X1124Y105D02*
X1127Y105D01*
X1193Y105D02*
X1197Y105D01*
X1226Y105D02*
X1230Y105D01*
X1396Y105D02*
X1399Y105D01*
X1430Y105D02*
X1433Y105D01*
X1495Y105D02*
X1516Y105D01*
X1529Y105D02*
X1533Y105D01*
X2443Y105D02*
X2462Y105D01*
X2473Y105D02*
X2476Y105D01*
X2489Y105D02*
X2492Y105D01*
X893Y104D02*
X913Y104D01*
X926Y104D02*
X930Y104D01*
X1193Y104D02*
X1197Y104D01*
X1226Y104D02*
X1230Y104D01*
X1495Y104D02*
X1516Y104D01*
X1529Y104D02*
X1533Y104D01*
X2443Y104D02*
X2462Y104D01*
X2473Y104D02*
X2475Y104D01*
X2490Y104D02*
X2491Y104D01*
X893Y103D02*
X912Y103D01*
X927Y103D02*
X930Y103D01*
X1193Y103D02*
X1230Y103D01*
X1495Y103D02*
X1515Y103D01*
X1529Y103D02*
X1533Y103D01*
X893Y102D02*
X911Y102D01*
X927Y102D02*
X930Y102D01*
X1193Y102D02*
X1230Y102D01*
X1495Y102D02*
X1514Y102D01*
X1530Y102D02*
X1532Y102D01*
X1193Y101D02*
X1230Y101D01*
X1194Y100D02*
X1229Y100D01*
X1196Y99D02*
X1227Y99D01*
X1108Y93D02*
X1108Y93D01*
X1413Y93D02*
X1413Y93D01*
X1105Y92D02*
X1110Y92D01*
X1411Y92D02*
X1416Y92D01*
X1105Y91D02*
X1111Y91D01*
X1410Y91D02*
X1416Y91D01*
X909Y90D02*
X912Y90D01*
X1105Y90D02*
X1111Y90D01*
X1410Y90D02*
X1416Y90D01*
X1512Y90D02*
X1515Y90D01*
X908Y89D02*
X913Y89D01*
X1105Y89D02*
X1111Y89D01*
X1410Y89D02*
X1416Y89D01*
X1511Y89D02*
X1516Y89D01*
X907Y88D02*
X913Y88D01*
X1105Y88D02*
X1111Y88D01*
X1410Y88D02*
X1416Y88D01*
X1510Y88D02*
X1516Y88D01*
X907Y87D02*
X914Y87D01*
X1105Y87D02*
X1111Y87D01*
X1209Y87D02*
X1212Y87D01*
X1410Y87D02*
X1416Y87D01*
X1510Y87D02*
X1516Y87D01*
X907Y86D02*
X914Y86D01*
X1105Y86D02*
X1111Y86D01*
X1208Y86D02*
X1213Y86D01*
X1410Y86D02*
X1416Y86D01*
X1510Y86D02*
X1516Y86D01*
X907Y85D02*
X914Y85D01*
X1105Y85D02*
X1111Y85D01*
X1207Y85D02*
X1213Y85D01*
X1410Y85D02*
X1416Y85D01*
X1510Y85D02*
X1516Y85D01*
X907Y84D02*
X914Y84D01*
X1105Y84D02*
X1111Y84D01*
X1207Y84D02*
X1214Y84D01*
X1410Y84D02*
X1416Y84D01*
X1510Y84D02*
X1516Y84D01*
X907Y83D02*
X914Y83D01*
X1105Y83D02*
X1111Y83D01*
X1207Y83D02*
X1214Y83D01*
X1410Y83D02*
X1416Y83D01*
X1510Y83D02*
X1516Y83D01*
X907Y82D02*
X914Y82D01*
X1105Y82D02*
X1111Y82D01*
X1207Y82D02*
X1214Y82D01*
X1410Y82D02*
X1416Y82D01*
X1510Y82D02*
X1516Y82D01*
X907Y81D02*
X914Y81D01*
X1105Y81D02*
X1111Y81D01*
X1207Y81D02*
X1214Y81D01*
X1410Y81D02*
X1416Y81D01*
X1510Y81D02*
X1516Y81D01*
X907Y80D02*
X914Y80D01*
X1105Y80D02*
X1111Y80D01*
X1207Y80D02*
X1214Y80D01*
X1410Y80D02*
X1416Y80D01*
X1510Y80D02*
X1516Y80D01*
X907Y79D02*
X914Y79D01*
X1105Y79D02*
X1111Y79D01*
X1207Y79D02*
X1214Y79D01*
X1410Y79D02*
X1416Y79D01*
X1510Y79D02*
X1516Y79D01*
X907Y78D02*
X914Y78D01*
X1105Y78D02*
X1111Y78D01*
X1207Y78D02*
X1214Y78D01*
X1410Y78D02*
X1416Y78D01*
X1510Y78D02*
X1516Y78D01*
X907Y77D02*
X914Y77D01*
X1105Y77D02*
X1111Y77D01*
X1207Y77D02*
X1214Y77D01*
X1410Y77D02*
X1416Y77D01*
X1510Y77D02*
X1516Y77D01*
X907Y76D02*
X914Y76D01*
X1105Y76D02*
X1111Y76D01*
X1207Y76D02*
X1214Y76D01*
X1410Y76D02*
X1416Y76D01*
X1510Y76D02*
X1516Y76D01*
X907Y75D02*
X914Y75D01*
X1105Y75D02*
X1111Y75D01*
X1207Y75D02*
X1214Y75D01*
X1410Y75D02*
X1416Y75D01*
X1510Y75D02*
X1516Y75D01*
X907Y74D02*
X914Y74D01*
X1105Y74D02*
X1111Y74D01*
X1207Y74D02*
X1214Y74D01*
X1410Y74D02*
X1416Y74D01*
X1510Y74D02*
X1516Y74D01*
X907Y73D02*
X914Y73D01*
X1105Y73D02*
X1111Y73D01*
X1207Y73D02*
X1214Y73D01*
X1410Y73D02*
X1416Y73D01*
X1510Y73D02*
X1516Y73D01*
X907Y72D02*
X914Y72D01*
X1105Y72D02*
X1111Y72D01*
X1207Y72D02*
X1214Y72D01*
X1410Y72D02*
X1416Y72D01*
X1510Y72D02*
X1516Y72D01*
X907Y71D02*
X914Y71D01*
X1105Y71D02*
X1111Y71D01*
X1207Y71D02*
X1214Y71D01*
X1410Y71D02*
X1416Y71D01*
X1510Y71D02*
X1516Y71D01*
X907Y70D02*
X914Y70D01*
X1105Y70D02*
X1111Y70D01*
X1207Y70D02*
X1214Y70D01*
X1410Y70D02*
X1416Y70D01*
X1510Y70D02*
X1516Y70D01*
X907Y69D02*
X914Y69D01*
X1105Y69D02*
X1110Y69D01*
X1207Y69D02*
X1214Y69D01*
X1411Y69D02*
X1416Y69D01*
X1510Y69D02*
X1516Y69D01*
X907Y68D02*
X914Y68D01*
X1207Y68D02*
X1214Y68D01*
X1510Y68D02*
X1516Y68D01*
X908Y67D02*
X913Y67D01*
X1207Y67D02*
X1214Y67D01*
X1510Y67D02*
X1516Y67D01*
X908Y66D02*
X913Y66D01*
X1207Y66D02*
X1214Y66D01*
X1511Y66D02*
X1515Y66D01*
X1207Y65D02*
X1213Y65D01*
X1208Y64D02*
X1213Y64D01*
X1209Y63D02*
X1212Y63D01*
X1092Y57D02*
X1105Y57D01*
X1400Y57D02*
X1429Y57D01*
X1090Y56D02*
X1106Y56D01*
X1397Y56D02*
X1431Y56D01*
X1090Y55D02*
X1106Y55D01*
X1396Y55D02*
X1432Y55D01*
X894Y54D02*
X908Y54D01*
X1090Y54D02*
X1106Y54D01*
X1396Y54D02*
X1433Y54D01*
X1499Y54D02*
X1530Y54D01*
X893Y53D02*
X909Y53D01*
X1090Y53D02*
X1106Y53D01*
X1396Y53D02*
X1433Y53D01*
X1497Y53D02*
X1531Y53D01*
X893Y52D02*
X909Y52D01*
X1090Y52D02*
X1094Y52D01*
X1395Y52D02*
X1400Y52D01*
X1429Y52D02*
X1433Y52D01*
X1496Y52D02*
X1532Y52D01*
X893Y51D02*
X909Y51D01*
X1090Y51D02*
X1094Y51D01*
X1194Y51D02*
X1208Y51D01*
X1395Y51D02*
X1399Y51D01*
X1429Y51D02*
X1433Y51D01*
X1496Y51D02*
X1533Y51D01*
X893Y50D02*
X908Y50D01*
X1090Y50D02*
X1094Y50D01*
X1193Y50D02*
X1209Y50D01*
X1395Y50D02*
X1399Y50D01*
X1429Y50D02*
X1433Y50D01*
X1495Y50D02*
X1533Y50D01*
X893Y49D02*
X897Y49D01*
X1090Y49D02*
X1094Y49D01*
X1193Y49D02*
X1209Y49D01*
X1395Y49D02*
X1399Y49D01*
X1429Y49D02*
X1433Y49D01*
X1495Y49D02*
X1499Y49D01*
X1529Y49D02*
X1533Y49D01*
X893Y48D02*
X897Y48D01*
X1090Y48D02*
X1094Y48D01*
X1193Y48D02*
X1209Y48D01*
X1395Y48D02*
X1399Y48D01*
X1429Y48D02*
X1433Y48D01*
X1495Y48D02*
X1499Y48D01*
X1529Y48D02*
X1533Y48D01*
X893Y47D02*
X897Y47D01*
X1090Y47D02*
X1127Y47D01*
X1193Y47D02*
X1208Y47D01*
X1395Y47D02*
X1399Y47D01*
X1429Y47D02*
X1433Y47D01*
X1495Y47D02*
X1499Y47D01*
X1529Y47D02*
X1533Y47D01*
X893Y46D02*
X897Y46D01*
X1090Y46D02*
X1128Y46D01*
X1193Y46D02*
X1197Y46D01*
X1395Y46D02*
X1399Y46D01*
X1429Y46D02*
X1433Y46D01*
X1495Y46D02*
X1499Y46D01*
X1529Y46D02*
X1533Y46D01*
X893Y45D02*
X897Y45D01*
X1090Y45D02*
X1128Y45D01*
X1193Y45D02*
X1197Y45D01*
X1395Y45D02*
X1399Y45D01*
X1429Y45D02*
X1433Y45D01*
X1495Y45D02*
X1499Y45D01*
X1529Y45D02*
X1533Y45D01*
X893Y44D02*
X930Y44D01*
X1090Y44D02*
X1128Y44D01*
X1193Y44D02*
X1197Y44D01*
X1395Y44D02*
X1399Y44D01*
X1429Y44D02*
X1433Y44D01*
X1495Y44D02*
X1499Y44D01*
X1529Y44D02*
X1533Y44D01*
X893Y43D02*
X930Y43D01*
X1090Y43D02*
X1128Y43D01*
X1193Y43D02*
X1197Y43D01*
X1395Y43D02*
X1399Y43D01*
X1429Y43D02*
X1433Y43D01*
X1495Y43D02*
X1499Y43D01*
X1529Y43D02*
X1533Y43D01*
X893Y42D02*
X930Y42D01*
X1090Y42D02*
X1094Y42D01*
X1123Y42D02*
X1128Y42D01*
X1193Y42D02*
X1197Y42D01*
X1395Y42D02*
X1399Y42D01*
X1429Y42D02*
X1433Y42D01*
X1495Y42D02*
X1499Y42D01*
X1529Y42D02*
X1533Y42D01*
X893Y41D02*
X930Y41D01*
X1090Y41D02*
X1094Y41D01*
X1124Y41D02*
X1128Y41D01*
X1193Y41D02*
X1230Y41D01*
X1395Y41D02*
X1399Y41D01*
X1429Y41D02*
X1433Y41D01*
X1495Y41D02*
X1499Y41D01*
X1529Y41D02*
X1533Y41D01*
X893Y40D02*
X930Y40D01*
X1090Y40D02*
X1094Y40D01*
X1124Y40D02*
X1128Y40D01*
X1193Y40D02*
X1230Y40D01*
X1395Y40D02*
X1399Y40D01*
X1429Y40D02*
X1433Y40D01*
X1495Y40D02*
X1499Y40D01*
X1529Y40D02*
X1533Y40D01*
X893Y39D02*
X897Y39D01*
X926Y39D02*
X930Y39D01*
X1090Y39D02*
X1094Y39D01*
X1124Y39D02*
X1128Y39D01*
X1193Y39D02*
X1230Y39D01*
X1395Y39D02*
X1399Y39D01*
X1429Y39D02*
X1433Y39D01*
X1495Y39D02*
X1499Y39D01*
X1529Y39D02*
X1533Y39D01*
X893Y38D02*
X897Y38D01*
X926Y38D02*
X930Y38D01*
X1090Y38D02*
X1094Y38D01*
X1124Y38D02*
X1128Y38D01*
X1193Y38D02*
X1230Y38D01*
X1395Y38D02*
X1399Y38D01*
X1429Y38D02*
X1433Y38D01*
X1495Y38D02*
X1499Y38D01*
X1529Y38D02*
X1533Y38D01*
X893Y37D02*
X897Y37D01*
X926Y37D02*
X930Y37D01*
X1090Y37D02*
X1094Y37D01*
X1124Y37D02*
X1128Y37D01*
X1193Y37D02*
X1230Y37D01*
X1395Y37D02*
X1433Y37D01*
X1495Y37D02*
X1499Y37D01*
X1529Y37D02*
X1533Y37D01*
X893Y36D02*
X897Y36D01*
X926Y36D02*
X930Y36D01*
X1090Y36D02*
X1094Y36D01*
X1124Y36D02*
X1128Y36D01*
X1193Y36D02*
X1197Y36D01*
X1226Y36D02*
X1230Y36D01*
X1396Y36D02*
X1433Y36D01*
X1495Y36D02*
X1499Y36D01*
X1529Y36D02*
X1533Y36D01*
X893Y35D02*
X897Y35D01*
X926Y35D02*
X930Y35D01*
X1090Y35D02*
X1094Y35D01*
X1124Y35D02*
X1128Y35D01*
X1193Y35D02*
X1197Y35D01*
X1226Y35D02*
X1230Y35D01*
X1396Y35D02*
X1432Y35D01*
X1495Y35D02*
X1499Y35D01*
X1529Y35D02*
X1533Y35D01*
X893Y34D02*
X897Y34D01*
X926Y34D02*
X930Y34D01*
X1090Y34D02*
X1094Y34D01*
X1124Y34D02*
X1127Y34D01*
X1193Y34D02*
X1197Y34D01*
X1226Y34D02*
X1230Y34D01*
X1397Y34D02*
X1432Y34D01*
X1495Y34D02*
X1533Y34D01*
X893Y33D02*
X897Y33D01*
X926Y33D02*
X930Y33D01*
X1091Y33D02*
X1093Y33D01*
X1125Y33D02*
X1127Y33D01*
X1193Y33D02*
X1197Y33D01*
X1226Y33D02*
X1230Y33D01*
X1398Y33D02*
X1430Y33D01*
X1496Y33D02*
X1533Y33D01*
X893Y32D02*
X897Y32D01*
X926Y32D02*
X930Y32D01*
X1193Y32D02*
X1197Y32D01*
X1226Y32D02*
X1230Y32D01*
X1496Y32D02*
X1532Y32D01*
X893Y31D02*
X896Y31D01*
X927Y31D02*
X930Y31D01*
X1193Y31D02*
X1197Y31D01*
X1226Y31D02*
X1230Y31D01*
X1497Y31D02*
X1531Y31D01*
X894Y30D02*
X895Y30D01*
X928Y30D02*
X929Y30D01*
X1193Y30D02*
X1197Y30D01*
X1226Y30D02*
X1230Y30D01*
X1499Y30D02*
X1530Y30D01*
X1193Y29D02*
X1197Y29D01*
X1226Y29D02*
X1230Y29D01*
X1193Y28D02*
X1196Y28D01*
X1227Y28D02*
X1230Y28D01*
X1194Y27D02*
X1195Y27D01*
X1228Y27D02*
X1229Y27D01*
D02*
G04 End of Silk0*
M02*