G04 MADE WITH FRITZING*
G04 WWW.FRITZING.ORG*
G04 DOUBLE SIDED*
G04 HOLES PLATED*
G04 CONTOUR ON CENTER OF CONTOUR VECTOR*
%ASAXBY*%
%FSLAX23Y23*%
%MOIN*%
%OFA0B0*%
%SFA1.0B1.0*%
%ADD10C,0.088000*%
%ADD11C,0.049370*%
%ADD12C,0.085000*%
%ADD13C,0.080000*%
%ADD14C,0.167480*%
%LNMASK1*%
G90*
G70*
G54D10*
X2711Y1347D03*
X2811Y1347D03*
X2911Y1347D03*
X3011Y1347D03*
X3111Y1347D03*
X2711Y1347D03*
X2811Y1347D03*
X2911Y1347D03*
X3011Y1347D03*
X3111Y1347D03*
X3111Y1247D03*
X3011Y1247D03*
X2911Y1247D03*
X2811Y1247D03*
X2711Y1247D03*
X2711Y1347D03*
X2811Y1347D03*
X2911Y1347D03*
X3011Y1347D03*
X3111Y1347D03*
X2711Y1347D03*
X2811Y1347D03*
X2911Y1347D03*
X3011Y1347D03*
X3111Y1347D03*
X3111Y1247D03*
X3011Y1247D03*
X2911Y1247D03*
X2811Y1247D03*
X2711Y1247D03*
G54D11*
X1161Y597D03*
X1261Y1172D03*
X1661Y1297D03*
X286Y122D03*
X1111Y422D03*
G54D10*
X911Y297D03*
X1011Y297D03*
X1111Y297D03*
X1211Y297D03*
X1311Y297D03*
X1411Y297D03*
X1511Y297D03*
X911Y297D03*
X1011Y297D03*
X1111Y297D03*
X1211Y297D03*
X1311Y297D03*
X1411Y297D03*
X1511Y297D03*
X1511Y197D03*
X1411Y197D03*
X1311Y197D03*
X1211Y197D03*
X1111Y197D03*
X1011Y197D03*
X911Y197D03*
X911Y297D03*
X1011Y297D03*
X1111Y297D03*
X1211Y297D03*
X1311Y297D03*
X1411Y297D03*
X1511Y297D03*
X911Y297D03*
X1011Y297D03*
X1111Y297D03*
X1211Y297D03*
X1311Y297D03*
X1411Y297D03*
X1511Y297D03*
X1511Y197D03*
X1411Y197D03*
X1311Y197D03*
X1211Y197D03*
X1111Y197D03*
X1011Y197D03*
X911Y197D03*
G54D12*
X2136Y1422D03*
X1736Y1422D03*
X2136Y1422D03*
X1736Y1422D03*
X2136Y1297D03*
X1736Y1297D03*
X2136Y1297D03*
X1736Y1297D03*
G54D13*
X1361Y1297D03*
X1261Y1297D03*
X1361Y1297D03*
X1261Y1297D03*
X1261Y1422D03*
X1361Y1422D03*
X1261Y1422D03*
X1361Y1422D03*
G54D12*
X211Y122D03*
X211Y522D03*
X211Y122D03*
X211Y522D03*
X211Y597D03*
X211Y997D03*
X211Y597D03*
X211Y997D03*
X86Y522D03*
X86Y122D03*
X86Y522D03*
X86Y122D03*
X2261Y122D03*
X2661Y122D03*
X2261Y122D03*
X2661Y122D03*
X1686Y197D03*
X2086Y197D03*
X1686Y197D03*
X2086Y197D03*
X2086Y322D03*
X1686Y322D03*
X2086Y322D03*
X1686Y322D03*
X2661Y247D03*
X2261Y247D03*
X2661Y247D03*
X2261Y247D03*
X2261Y397D03*
X2661Y397D03*
X2261Y397D03*
X2661Y397D03*
G54D14*
X433Y1200D03*
X433Y296D03*
X2835Y297D03*
X4450Y1200D03*
G54D11*
X2811Y1047D03*
X4011Y797D03*
X2911Y997D03*
X4261Y1047D03*
X1511Y797D03*
X2111Y847D03*
X1661Y1197D03*
X3411Y797D03*
X2311Y697D03*
X2161Y597D03*
X3711Y797D03*
X2511Y1147D03*
X4661Y1047D03*
X3361Y1247D03*
X2311Y1272D03*
X3261Y1147D03*
X2511Y1247D03*
X2911Y1147D03*
G04 End of Mask1*
M02*