G04 MADE WITH FRITZING*
G04 WWW.FRITZING.ORG*
G04 DOUBLE SIDED*
G04 HOLES PLATED*
G04 CONTOUR ON CENTER OF CONTOUR VECTOR*
%ASAXBY*%
%FSLAX23Y23*%
%MOIN*%
%OFA0B0*%
%SFA1.0B1.0*%
%ADD10C,0.078000*%
%ADD11C,0.039370*%
%ADD12C,0.075000*%
%ADD13C,0.070000*%
%ADD14C,0.093490*%
%ADD15C,0.093462*%
%ADD16C,0.093407*%
%ADD17C,0.093504*%
%ADD18C,0.093448*%
%ADD19C,0.024000*%
%ADD20R,0.001000X0.001000*%
%LNCOPPER0*%
G90*
G70*
G54D10*
X2711Y1347D03*
X2811Y1347D03*
X2911Y1347D03*
X3011Y1347D03*
X3111Y1347D03*
X2711Y1347D03*
X2811Y1347D03*
X2911Y1347D03*
X3011Y1347D03*
X3111Y1347D03*
X3111Y1247D03*
X3011Y1247D03*
X2911Y1247D03*
X2811Y1247D03*
X2711Y1247D03*
X2711Y1347D03*
X2811Y1347D03*
X2911Y1347D03*
X3011Y1347D03*
X3111Y1347D03*
X2711Y1347D03*
X2811Y1347D03*
X2911Y1347D03*
X3011Y1347D03*
X3111Y1347D03*
X3111Y1247D03*
X3011Y1247D03*
X2911Y1247D03*
X2811Y1247D03*
X2711Y1247D03*
G54D11*
X1161Y597D03*
X1261Y1172D03*
X1661Y1297D03*
X286Y122D03*
X1111Y422D03*
G54D10*
X911Y297D03*
X1011Y297D03*
X1111Y297D03*
X1211Y297D03*
X1311Y297D03*
X1411Y297D03*
X1511Y297D03*
X911Y297D03*
X1011Y297D03*
X1111Y297D03*
X1211Y297D03*
X1311Y297D03*
X1411Y297D03*
X1511Y297D03*
X1511Y197D03*
X1411Y197D03*
X1311Y197D03*
X1211Y197D03*
X1111Y197D03*
X1011Y197D03*
X911Y197D03*
X911Y297D03*
X1011Y297D03*
X1111Y297D03*
X1211Y297D03*
X1311Y297D03*
X1411Y297D03*
X1511Y297D03*
X911Y297D03*
X1011Y297D03*
X1111Y297D03*
X1211Y297D03*
X1311Y297D03*
X1411Y297D03*
X1511Y297D03*
X1511Y197D03*
X1411Y197D03*
X1311Y197D03*
X1211Y197D03*
X1111Y197D03*
X1011Y197D03*
X911Y197D03*
G54D12*
X2136Y1422D03*
X1736Y1422D03*
X2136Y1422D03*
X1736Y1422D03*
X2136Y1297D03*
X1736Y1297D03*
X2136Y1297D03*
X1736Y1297D03*
G54D13*
X1361Y1297D03*
X1261Y1297D03*
X1361Y1297D03*
X1261Y1297D03*
X1261Y1422D03*
X1361Y1422D03*
X1261Y1422D03*
X1361Y1422D03*
G54D12*
X211Y122D03*
X211Y522D03*
X211Y122D03*
X211Y522D03*
X211Y597D03*
X211Y997D03*
X211Y597D03*
X211Y997D03*
X86Y522D03*
X86Y122D03*
X86Y522D03*
X86Y122D03*
X2261Y122D03*
X2661Y122D03*
X2261Y122D03*
X2661Y122D03*
X1686Y197D03*
X2086Y197D03*
X1686Y197D03*
X2086Y197D03*
X2086Y322D03*
X1686Y322D03*
X2086Y322D03*
X1686Y322D03*
X2661Y247D03*
X2261Y247D03*
X2661Y247D03*
X2261Y247D03*
X2261Y397D03*
X2661Y397D03*
X2261Y397D03*
X2661Y397D03*
G54D14*
X611Y597D03*
X1011Y597D03*
G54D15*
X1311Y597D03*
G54D16*
X1611Y897D03*
G54D17*
X1511Y897D03*
G54D18*
X1311Y897D03*
G54D14*
X1211Y897D03*
G54D15*
X1111Y897D03*
G54D14*
X1011Y897D03*
G54D18*
X911Y897D03*
X811Y897D03*
G54D14*
X611Y897D03*
G54D18*
X511Y897D03*
G54D14*
X411Y897D03*
X2011Y597D03*
X2411Y597D03*
G54D15*
X2711Y597D03*
G54D16*
X3011Y897D03*
G54D17*
X2911Y897D03*
G54D18*
X2711Y897D03*
G54D14*
X2611Y897D03*
G54D15*
X2511Y897D03*
G54D14*
X2411Y897D03*
G54D18*
X2311Y897D03*
X2211Y897D03*
G54D14*
X2011Y897D03*
G54D18*
X1911Y897D03*
G54D14*
X1811Y897D03*
X3411Y597D03*
X3811Y597D03*
G54D15*
X4111Y597D03*
G54D16*
X4411Y897D03*
G54D17*
X4311Y897D03*
G54D18*
X4111Y897D03*
G54D14*
X4011Y897D03*
G54D15*
X3911Y897D03*
G54D14*
X3811Y897D03*
G54D18*
X3711Y897D03*
X3611Y897D03*
G54D14*
X3411Y897D03*
G54D18*
X3311Y897D03*
G54D14*
X3211Y897D03*
G54D11*
X2811Y1047D03*
X4011Y797D03*
X2911Y997D03*
X4261Y1047D03*
X1511Y797D03*
X2111Y847D03*
X1661Y1197D03*
X3411Y797D03*
X2311Y697D03*
X2161Y597D03*
X3711Y797D03*
X2511Y1147D03*
X4661Y1047D03*
X3361Y1247D03*
X2311Y1272D03*
X3261Y1147D03*
X2511Y1247D03*
X2911Y1147D03*
G54D19*
X1361Y1171D02*
X1487Y1297D01*
D02*
X1487Y1297D02*
X1642Y1297D01*
D02*
X1280Y1172D02*
X1361Y1171D01*
D02*
X1049Y597D02*
X1142Y597D01*
D02*
X1111Y497D02*
X1111Y441D01*
D02*
X1310Y497D02*
X1111Y497D01*
D02*
X1310Y559D02*
X1310Y497D01*
D02*
X560Y122D02*
X305Y122D01*
D02*
X610Y173D02*
X560Y122D01*
D02*
X611Y559D02*
X610Y173D01*
D02*
X3173Y897D02*
X3049Y897D01*
D02*
X1773Y897D02*
X1649Y897D01*
D02*
X1349Y897D02*
X1361Y897D01*
D02*
X1535Y1045D02*
X2711Y1046D01*
D02*
X1361Y897D02*
X1535Y1045D01*
D02*
X2711Y1046D02*
X2711Y935D01*
D02*
X2612Y859D02*
X2612Y847D01*
D02*
X2612Y847D02*
X2660Y795D01*
D02*
X2660Y795D02*
X2759Y795D01*
D02*
X2811Y847D02*
X2811Y1028D01*
D02*
X2759Y795D02*
X2811Y847D01*
D02*
X4011Y859D02*
X4011Y816D01*
D02*
X2911Y935D02*
X2911Y978D01*
D02*
X4309Y997D02*
X4274Y1033D01*
D02*
X4310Y935D02*
X4309Y997D01*
D02*
X1511Y858D02*
X1511Y816D01*
D02*
X3873Y897D02*
X3849Y897D01*
D02*
X3811Y635D02*
X3811Y859D01*
D02*
X2449Y897D02*
X2473Y897D01*
D02*
X1049Y897D02*
X1073Y897D01*
D02*
X2045Y880D02*
X2094Y855D01*
D02*
X3411Y859D02*
X3411Y816D01*
D02*
X611Y935D02*
X611Y947D01*
D02*
X611Y947D02*
X662Y998D01*
D02*
X1486Y1197D02*
X1642Y1197D01*
D02*
X662Y998D02*
X1192Y999D01*
D02*
X1360Y1071D02*
X1486Y1197D01*
D02*
X1259Y1071D02*
X1360Y1071D01*
D02*
X1192Y999D02*
X1259Y1071D01*
D02*
X849Y897D02*
X873Y897D01*
D02*
X1311Y559D02*
X1312Y496D01*
D02*
X1312Y496D02*
X910Y496D01*
D02*
X910Y496D02*
X911Y859D01*
D02*
X2010Y496D02*
X1312Y496D01*
D02*
X2010Y559D02*
X2010Y496D01*
D02*
X1312Y496D02*
X1311Y559D01*
D02*
X2010Y496D02*
X2010Y559D01*
D02*
X2161Y496D02*
X2010Y496D01*
D02*
X2161Y578D02*
X2161Y496D01*
D02*
X2273Y897D02*
X2249Y897D01*
D02*
X3409Y496D02*
X2711Y496D01*
D02*
X3410Y559D02*
X3409Y496D01*
D02*
X2711Y496D02*
X2711Y559D01*
D02*
X3711Y859D02*
X3711Y816D01*
D02*
X4111Y559D02*
X4111Y548D01*
D02*
X4059Y496D02*
X3409Y496D01*
D02*
X4111Y548D02*
X4059Y496D01*
D02*
X3409Y496D02*
X3410Y559D01*
D02*
X1385Y995D02*
X1512Y1122D01*
D02*
X2486Y1122D02*
X2497Y1133D01*
D02*
X1512Y1122D02*
X2486Y1122D01*
D02*
X1287Y997D02*
X1385Y995D01*
D02*
X1235Y945D02*
X1287Y997D01*
D02*
X1228Y931D02*
X1235Y945D01*
D02*
X4661Y771D02*
X4661Y1028D01*
D02*
X4587Y723D02*
X4661Y771D01*
D02*
X3809Y723D02*
X4587Y723D01*
D02*
X3810Y859D02*
X3809Y723D01*
D02*
X4187Y1245D02*
X3380Y1247D01*
D02*
X4409Y1023D02*
X4187Y1245D01*
D02*
X4410Y935D02*
X4409Y1023D01*
D02*
X2309Y1397D02*
X2361Y1445D01*
D02*
X3262Y1397D02*
X3261Y1166D01*
D02*
X2361Y1445D02*
X3210Y1445D01*
D02*
X3210Y1445D02*
X3262Y1397D01*
D02*
X2310Y1291D02*
X2309Y1397D01*
D02*
X2435Y1248D02*
X2359Y1172D01*
D02*
X2359Y1172D02*
X2262Y1172D01*
D02*
X2237Y1197D02*
X1680Y1197D01*
D02*
X2262Y1172D02*
X2237Y1197D01*
D02*
X2492Y1247D02*
X2435Y1248D01*
D02*
X4059Y1098D02*
X3162Y1098D01*
D02*
X4111Y1046D02*
X4059Y1098D01*
D02*
X4111Y935D02*
X4111Y1046D01*
D02*
X3110Y1146D02*
X2930Y1147D01*
D02*
X3162Y1098D02*
X3110Y1146D01*
D02*
X2892Y1147D02*
X2711Y1146D01*
D02*
X2711Y1146D02*
X2711Y935D01*
D02*
X3649Y897D02*
X3673Y897D01*
D02*
X1312Y496D02*
X1311Y559D01*
D02*
X610Y497D02*
X1312Y496D01*
D02*
X610Y559D02*
X610Y497D01*
D02*
X1009Y723D02*
X2135Y723D01*
D02*
X2135Y723D02*
X2309Y596D01*
D02*
X2309Y596D02*
X2373Y596D01*
D02*
X1010Y635D02*
X1009Y723D01*
D02*
X2010Y496D02*
X2010Y559D01*
D02*
X2711Y496D02*
X2010Y496D01*
D02*
X2711Y559D02*
X2711Y496D01*
D02*
X2311Y716D02*
X2311Y859D01*
D02*
X2409Y723D02*
X3809Y723D01*
D02*
X3809Y723D02*
X3810Y635D01*
D02*
X2410Y635D02*
X2409Y723D01*
D02*
X2411Y635D02*
X2411Y859D01*
D02*
X1011Y635D02*
X1011Y859D01*
G54D20*
X402Y943D02*
X418Y943D01*
X502Y943D02*
X518Y943D01*
X602Y943D02*
X618Y943D01*
X802Y943D02*
X818Y943D01*
X902Y943D02*
X918Y943D01*
X1002Y943D02*
X1018Y943D01*
X1102Y943D02*
X1118Y943D01*
X1202Y943D02*
X1218Y943D01*
X1302Y943D02*
X1318Y943D01*
X1502Y943D02*
X1518Y943D01*
X1602Y943D02*
X1618Y943D01*
X1802Y943D02*
X1818Y943D01*
X1902Y943D02*
X1918Y943D01*
X2002Y943D02*
X2018Y943D01*
X2202Y943D02*
X2218Y943D01*
X2302Y943D02*
X2318Y943D01*
X2402Y943D02*
X2418Y943D01*
X2502Y943D02*
X2518Y943D01*
X2602Y943D02*
X2618Y943D01*
X2702Y943D02*
X2718Y943D01*
X2902Y943D02*
X2918Y943D01*
X3002Y943D02*
X3017Y943D01*
X3202Y943D02*
X3218Y943D01*
X3302Y943D02*
X3318Y943D01*
X3402Y943D02*
X3418Y943D01*
X3602Y943D02*
X3618Y943D01*
X3702Y943D02*
X3718Y943D01*
X3802Y943D02*
X3818Y943D01*
X3902Y943D02*
X3918Y943D01*
X4002Y943D02*
X4018Y943D01*
X4102Y943D02*
X4117Y943D01*
X4302Y943D02*
X4318Y943D01*
X4402Y943D02*
X4417Y943D01*
X398Y942D02*
X422Y942D01*
X498Y942D02*
X522Y942D01*
X598Y942D02*
X622Y942D01*
X798Y942D02*
X822Y942D01*
X898Y942D02*
X922Y942D01*
X998Y942D02*
X1022Y942D01*
X1098Y942D02*
X1122Y942D01*
X1198Y942D02*
X1222Y942D01*
X1298Y942D02*
X1322Y942D01*
X1498Y942D02*
X1522Y942D01*
X1598Y942D02*
X1622Y942D01*
X1798Y942D02*
X1822Y942D01*
X1898Y942D02*
X1922Y942D01*
X1998Y942D02*
X2022Y942D01*
X2198Y942D02*
X2222Y942D01*
X2298Y942D02*
X2322Y942D01*
X2398Y942D02*
X2422Y942D01*
X2498Y942D02*
X2522Y942D01*
X2598Y942D02*
X2622Y942D01*
X2698Y942D02*
X2722Y942D01*
X2898Y942D02*
X2922Y942D01*
X2998Y942D02*
X3022Y942D01*
X3198Y942D02*
X3222Y942D01*
X3298Y942D02*
X3322Y942D01*
X3398Y942D02*
X3422Y942D01*
X3598Y942D02*
X3622Y942D01*
X3698Y942D02*
X3722Y942D01*
X3798Y942D02*
X3822Y942D01*
X3898Y942D02*
X3922Y942D01*
X3998Y942D02*
X4022Y942D01*
X4098Y942D02*
X4122Y942D01*
X4298Y942D02*
X4322Y942D01*
X4398Y942D02*
X4421Y942D01*
X395Y941D02*
X425Y941D01*
X495Y941D02*
X525Y941D01*
X595Y941D02*
X625Y941D01*
X795Y941D02*
X825Y941D01*
X895Y941D02*
X925Y941D01*
X995Y941D02*
X1025Y941D01*
X1095Y941D02*
X1125Y941D01*
X1195Y941D02*
X1225Y941D01*
X1295Y941D02*
X1325Y941D01*
X1495Y941D02*
X1525Y941D01*
X1595Y941D02*
X1625Y941D01*
X1795Y941D02*
X1825Y941D01*
X1895Y941D02*
X1925Y941D01*
X1995Y941D02*
X2025Y941D01*
X2195Y941D02*
X2225Y941D01*
X2295Y941D02*
X2325Y941D01*
X2395Y941D02*
X2425Y941D01*
X2495Y941D02*
X2525Y941D01*
X2595Y941D02*
X2625Y941D01*
X2695Y941D02*
X2725Y941D01*
X2895Y941D02*
X2925Y941D01*
X2995Y941D02*
X3025Y941D01*
X3195Y941D02*
X3225Y941D01*
X3295Y941D02*
X3325Y941D01*
X3395Y941D02*
X3425Y941D01*
X3595Y941D02*
X3625Y941D01*
X3695Y941D02*
X3725Y941D01*
X3795Y941D02*
X3825Y941D01*
X3895Y941D02*
X3925Y941D01*
X3995Y941D02*
X4025Y941D01*
X4095Y941D02*
X4125Y941D01*
X4295Y941D02*
X4325Y941D01*
X4395Y941D02*
X4425Y941D01*
X392Y940D02*
X428Y940D01*
X493Y940D02*
X528Y940D01*
X592Y940D02*
X628Y940D01*
X792Y940D02*
X828Y940D01*
X892Y940D02*
X928Y940D01*
X992Y940D02*
X1028Y940D01*
X1092Y940D02*
X1128Y940D01*
X1192Y940D02*
X1228Y940D01*
X1292Y940D02*
X1328Y940D01*
X1492Y940D02*
X1528Y940D01*
X1592Y940D02*
X1627Y940D01*
X1792Y940D02*
X1828Y940D01*
X1892Y940D02*
X1928Y940D01*
X1992Y940D02*
X2028Y940D01*
X2192Y940D02*
X2228Y940D01*
X2292Y940D02*
X2328Y940D01*
X2392Y940D02*
X2428Y940D01*
X2492Y940D02*
X2528Y940D01*
X2592Y940D02*
X2628Y940D01*
X2692Y940D02*
X2727Y940D01*
X2892Y940D02*
X2928Y940D01*
X2992Y940D02*
X3027Y940D01*
X3192Y940D02*
X3227Y940D01*
X3292Y940D02*
X3327Y940D01*
X3392Y940D02*
X3427Y940D01*
X3592Y940D02*
X3627Y940D01*
X3692Y940D02*
X3727Y940D01*
X3792Y940D02*
X3827Y940D01*
X3892Y940D02*
X3927Y940D01*
X3992Y940D02*
X4027Y940D01*
X4092Y940D02*
X4127Y940D01*
X4292Y940D02*
X4327Y940D01*
X4392Y940D02*
X4427Y940D01*
X390Y939D02*
X430Y939D01*
X490Y939D02*
X530Y939D01*
X590Y939D02*
X630Y939D01*
X790Y939D02*
X830Y939D01*
X890Y939D02*
X930Y939D01*
X990Y939D02*
X1030Y939D01*
X1090Y939D02*
X1130Y939D01*
X1190Y939D02*
X1230Y939D01*
X1290Y939D02*
X1330Y939D01*
X1490Y939D02*
X1530Y939D01*
X1590Y939D02*
X1630Y939D01*
X1790Y939D02*
X1830Y939D01*
X1890Y939D02*
X1930Y939D01*
X1990Y939D02*
X2030Y939D01*
X2190Y939D02*
X2230Y939D01*
X2290Y939D02*
X2330Y939D01*
X2390Y939D02*
X2430Y939D01*
X2490Y939D02*
X2530Y939D01*
X2590Y939D02*
X2630Y939D01*
X2690Y939D02*
X2730Y939D01*
X2890Y939D02*
X2930Y939D01*
X2990Y939D02*
X3030Y939D01*
X3190Y939D02*
X3230Y939D01*
X3290Y939D02*
X3330Y939D01*
X3390Y939D02*
X3430Y939D01*
X3590Y939D02*
X3629Y939D01*
X3690Y939D02*
X3729Y939D01*
X3790Y939D02*
X3830Y939D01*
X3890Y939D02*
X3929Y939D01*
X3990Y939D02*
X4029Y939D01*
X4090Y939D02*
X4129Y939D01*
X4290Y939D02*
X4330Y939D01*
X4390Y939D02*
X4429Y939D01*
X388Y938D02*
X432Y938D01*
X488Y938D02*
X532Y938D01*
X588Y938D02*
X632Y938D01*
X788Y938D02*
X832Y938D01*
X888Y938D02*
X932Y938D01*
X988Y938D02*
X1032Y938D01*
X1088Y938D02*
X1132Y938D01*
X1188Y938D02*
X1232Y938D01*
X1288Y938D02*
X1332Y938D01*
X1488Y938D02*
X1532Y938D01*
X1588Y938D02*
X1632Y938D01*
X1788Y938D02*
X1832Y938D01*
X1888Y938D02*
X1932Y938D01*
X1988Y938D02*
X2032Y938D01*
X2188Y938D02*
X2232Y938D01*
X2288Y938D02*
X2332Y938D01*
X2388Y938D02*
X2432Y938D01*
X2488Y938D02*
X2532Y938D01*
X2588Y938D02*
X2632Y938D01*
X2688Y938D02*
X2732Y938D01*
X2888Y938D02*
X2932Y938D01*
X2988Y938D02*
X3032Y938D01*
X3188Y938D02*
X3232Y938D01*
X3288Y938D02*
X3332Y938D01*
X3388Y938D02*
X3432Y938D01*
X3588Y938D02*
X3632Y938D01*
X3688Y938D02*
X3732Y938D01*
X3788Y938D02*
X3832Y938D01*
X3888Y938D02*
X3932Y938D01*
X3988Y938D02*
X4032Y938D01*
X4088Y938D02*
X4131Y938D01*
X4288Y938D02*
X4332Y938D01*
X4388Y938D02*
X4431Y938D01*
X387Y937D02*
X434Y937D01*
X487Y937D02*
X534Y937D01*
X587Y937D02*
X634Y937D01*
X787Y937D02*
X834Y937D01*
X887Y937D02*
X934Y937D01*
X986Y937D02*
X1034Y937D01*
X1087Y937D02*
X1134Y937D01*
X1187Y937D02*
X1234Y937D01*
X1286Y937D02*
X1334Y937D01*
X1486Y937D02*
X1534Y937D01*
X1587Y937D02*
X1633Y937D01*
X1786Y937D02*
X1834Y937D01*
X1886Y937D02*
X1934Y937D01*
X1986Y937D02*
X2033Y937D01*
X2186Y937D02*
X2233Y937D01*
X2286Y937D02*
X2333Y937D01*
X2386Y937D02*
X2433Y937D01*
X2486Y937D02*
X2533Y937D01*
X2586Y937D02*
X2633Y937D01*
X2686Y937D02*
X2733Y937D01*
X2886Y937D02*
X2933Y937D01*
X2986Y937D02*
X3033Y937D01*
X3186Y937D02*
X3233Y937D01*
X3286Y937D02*
X3333Y937D01*
X3386Y937D02*
X3433Y937D01*
X3586Y937D02*
X3633Y937D01*
X3686Y937D02*
X3733Y937D01*
X3786Y937D02*
X3833Y937D01*
X3886Y937D02*
X3933Y937D01*
X3986Y937D02*
X4033Y937D01*
X4086Y937D02*
X4133Y937D01*
X4286Y937D02*
X4333Y937D01*
X4386Y937D02*
X4433Y937D01*
X385Y936D02*
X435Y936D01*
X485Y936D02*
X535Y936D01*
X585Y936D02*
X635Y936D01*
X785Y936D02*
X835Y936D01*
X885Y936D02*
X935Y936D01*
X985Y936D02*
X1035Y936D01*
X1085Y936D02*
X1135Y936D01*
X1185Y936D02*
X1235Y936D01*
X1285Y936D02*
X1335Y936D01*
X1485Y936D02*
X1535Y936D01*
X1585Y936D02*
X1635Y936D01*
X1785Y936D02*
X1835Y936D01*
X1885Y936D02*
X1935Y936D01*
X1985Y936D02*
X2035Y936D01*
X2185Y936D02*
X2235Y936D01*
X2285Y936D02*
X2335Y936D01*
X2385Y936D02*
X2435Y936D01*
X2485Y936D02*
X2535Y936D01*
X2585Y936D02*
X2635Y936D01*
X2685Y936D02*
X2735Y936D01*
X2885Y936D02*
X2935Y936D01*
X2985Y936D02*
X3035Y936D01*
X3185Y936D02*
X3235Y936D01*
X3285Y936D02*
X3335Y936D01*
X3385Y936D02*
X3435Y936D01*
X3585Y936D02*
X3635Y936D01*
X3685Y936D02*
X3735Y936D01*
X3784Y936D02*
X3835Y936D01*
X3885Y936D02*
X3935Y936D01*
X3984Y936D02*
X4035Y936D01*
X4084Y936D02*
X4135Y936D01*
X4284Y936D02*
X4335Y936D01*
X4384Y936D02*
X4435Y936D01*
X383Y935D02*
X437Y935D01*
X483Y935D02*
X537Y935D01*
X583Y935D02*
X637Y935D01*
X783Y935D02*
X837Y935D01*
X883Y935D02*
X937Y935D01*
X983Y935D02*
X1037Y935D01*
X1083Y935D02*
X1137Y935D01*
X1183Y935D02*
X1237Y935D01*
X1283Y935D02*
X1337Y935D01*
X1483Y935D02*
X1537Y935D01*
X1583Y935D02*
X1637Y935D01*
X1783Y935D02*
X1837Y935D01*
X1883Y935D02*
X1937Y935D01*
X1983Y935D02*
X2037Y935D01*
X2183Y935D02*
X2237Y935D01*
X2283Y935D02*
X2337Y935D01*
X2383Y935D02*
X2437Y935D01*
X2483Y935D02*
X2537Y935D01*
X2583Y935D02*
X2637Y935D01*
X2683Y935D02*
X2737Y935D01*
X2883Y935D02*
X2937Y935D01*
X2983Y935D02*
X3036Y935D01*
X3183Y935D02*
X3236Y935D01*
X3283Y935D02*
X3336Y935D01*
X3383Y935D02*
X3436Y935D01*
X3583Y935D02*
X3636Y935D01*
X3683Y935D02*
X3736Y935D01*
X3783Y935D02*
X3836Y935D01*
X3883Y935D02*
X3936Y935D01*
X3983Y935D02*
X4036Y935D01*
X4083Y935D02*
X4136Y935D01*
X4283Y935D02*
X4336Y935D01*
X4383Y935D02*
X4436Y935D01*
X382Y934D02*
X438Y934D01*
X482Y934D02*
X538Y934D01*
X582Y934D02*
X638Y934D01*
X782Y934D02*
X838Y934D01*
X882Y934D02*
X938Y934D01*
X982Y934D02*
X1038Y934D01*
X1082Y934D02*
X1138Y934D01*
X1182Y934D02*
X1238Y934D01*
X1282Y934D02*
X1338Y934D01*
X1482Y934D02*
X1538Y934D01*
X1582Y934D02*
X1638Y934D01*
X1782Y934D02*
X1838Y934D01*
X1882Y934D02*
X1938Y934D01*
X1982Y934D02*
X2038Y934D01*
X2182Y934D02*
X2238Y934D01*
X2282Y934D02*
X2338Y934D01*
X2382Y934D02*
X2438Y934D01*
X2482Y934D02*
X2538Y934D01*
X2582Y934D02*
X2638Y934D01*
X2682Y934D02*
X2738Y934D01*
X2882Y934D02*
X2938Y934D01*
X2982Y934D02*
X3038Y934D01*
X3182Y934D02*
X3238Y934D01*
X3282Y934D02*
X3338Y934D01*
X3382Y934D02*
X3438Y934D01*
X3582Y934D02*
X3638Y934D01*
X3682Y934D02*
X3738Y934D01*
X3782Y934D02*
X3838Y934D01*
X3882Y934D02*
X3938Y934D01*
X3982Y934D02*
X4038Y934D01*
X4082Y934D02*
X4138Y934D01*
X4282Y934D02*
X4338Y934D01*
X4382Y934D02*
X4438Y934D01*
X381Y933D02*
X440Y933D01*
X481Y933D02*
X539Y933D01*
X581Y933D02*
X639Y933D01*
X781Y933D02*
X839Y933D01*
X881Y933D02*
X939Y933D01*
X981Y933D02*
X1039Y933D01*
X1081Y933D02*
X1139Y933D01*
X1181Y933D02*
X1239Y933D01*
X1281Y933D02*
X1339Y933D01*
X1481Y933D02*
X1539Y933D01*
X1581Y933D02*
X1639Y933D01*
X1781Y933D02*
X1839Y933D01*
X1881Y933D02*
X1939Y933D01*
X1981Y933D02*
X2039Y933D01*
X2181Y933D02*
X2239Y933D01*
X2281Y933D02*
X2339Y933D01*
X2380Y933D02*
X2439Y933D01*
X2481Y933D02*
X2539Y933D01*
X2580Y933D02*
X2639Y933D01*
X2680Y933D02*
X2739Y933D01*
X2880Y933D02*
X2939Y933D01*
X2980Y933D02*
X3039Y933D01*
X3180Y933D02*
X3239Y933D01*
X3280Y933D02*
X3339Y933D01*
X3380Y933D02*
X3439Y933D01*
X3580Y933D02*
X3639Y933D01*
X3680Y933D02*
X3739Y933D01*
X3780Y933D02*
X3839Y933D01*
X3880Y933D02*
X3939Y933D01*
X3980Y933D02*
X4039Y933D01*
X4080Y933D02*
X4139Y933D01*
X4280Y933D02*
X4339Y933D01*
X4380Y933D02*
X4439Y933D01*
X380Y932D02*
X441Y932D01*
X480Y932D02*
X541Y932D01*
X580Y932D02*
X641Y932D01*
X780Y932D02*
X841Y932D01*
X880Y932D02*
X941Y932D01*
X980Y932D02*
X1041Y932D01*
X1080Y932D02*
X1141Y932D01*
X1180Y932D02*
X1241Y932D01*
X1280Y932D02*
X1341Y932D01*
X1479Y932D02*
X1541Y932D01*
X1580Y932D02*
X1640Y932D01*
X1779Y932D02*
X1841Y932D01*
X1879Y932D02*
X1940Y932D01*
X1979Y932D02*
X2040Y932D01*
X2179Y932D02*
X2240Y932D01*
X2279Y932D02*
X2340Y932D01*
X2379Y932D02*
X2440Y932D01*
X2479Y932D02*
X2540Y932D01*
X2579Y932D02*
X2640Y932D01*
X2679Y932D02*
X2740Y932D01*
X2879Y932D02*
X2940Y932D01*
X2979Y932D02*
X3040Y932D01*
X3179Y932D02*
X3240Y932D01*
X3279Y932D02*
X3340Y932D01*
X3379Y932D02*
X3440Y932D01*
X3579Y932D02*
X3640Y932D01*
X3679Y932D02*
X3740Y932D01*
X3779Y932D02*
X3840Y932D01*
X3879Y932D02*
X3940Y932D01*
X3979Y932D02*
X4040Y932D01*
X4079Y932D02*
X4140Y932D01*
X4279Y932D02*
X4340Y932D01*
X4379Y932D02*
X4440Y932D01*
X379Y931D02*
X442Y931D01*
X479Y931D02*
X542Y931D01*
X578Y931D02*
X642Y931D01*
X778Y931D02*
X842Y931D01*
X878Y931D02*
X942Y931D01*
X978Y931D02*
X1042Y931D01*
X1078Y931D02*
X1142Y931D01*
X1178Y931D02*
X1242Y931D01*
X1278Y931D02*
X1342Y931D01*
X1478Y931D02*
X1542Y931D01*
X1578Y931D02*
X1642Y931D01*
X1778Y931D02*
X1842Y931D01*
X1878Y931D02*
X1942Y931D01*
X1978Y931D02*
X2042Y931D01*
X2178Y931D02*
X2242Y931D01*
X2278Y931D02*
X2342Y931D01*
X2378Y931D02*
X2442Y931D01*
X2478Y931D02*
X2542Y931D01*
X2578Y931D02*
X2641Y931D01*
X2678Y931D02*
X2741Y931D01*
X2878Y931D02*
X2942Y931D01*
X2978Y931D02*
X3041Y931D01*
X3178Y931D02*
X3241Y931D01*
X3278Y931D02*
X3341Y931D01*
X3378Y931D02*
X3441Y931D01*
X3578Y931D02*
X3641Y931D01*
X3678Y931D02*
X3741Y931D01*
X3778Y931D02*
X3841Y931D01*
X3878Y931D02*
X3941Y931D01*
X3978Y931D02*
X4041Y931D01*
X4078Y931D02*
X4141Y931D01*
X4278Y931D02*
X4341Y931D01*
X4378Y931D02*
X4441Y931D01*
X377Y930D02*
X443Y930D01*
X477Y930D02*
X543Y930D01*
X577Y930D02*
X643Y930D01*
X777Y930D02*
X843Y930D01*
X877Y930D02*
X943Y930D01*
X977Y930D02*
X1043Y930D01*
X1077Y930D02*
X1143Y930D01*
X1177Y930D02*
X1243Y930D01*
X1277Y930D02*
X1343Y930D01*
X1477Y930D02*
X1543Y930D01*
X1577Y930D02*
X1643Y930D01*
X1777Y930D02*
X1843Y930D01*
X1877Y930D02*
X1943Y930D01*
X1977Y930D02*
X2043Y930D01*
X2177Y930D02*
X2243Y930D01*
X2277Y930D02*
X2343Y930D01*
X2377Y930D02*
X2443Y930D01*
X2477Y930D02*
X2543Y930D01*
X2577Y930D02*
X2643Y930D01*
X2677Y930D02*
X2743Y930D01*
X2877Y930D02*
X2943Y930D01*
X2977Y930D02*
X3042Y930D01*
X3177Y930D02*
X3242Y930D01*
X3277Y930D02*
X3342Y930D01*
X3377Y930D02*
X3442Y930D01*
X3577Y930D02*
X3642Y930D01*
X3677Y930D02*
X3742Y930D01*
X3777Y930D02*
X3842Y930D01*
X3877Y930D02*
X3942Y930D01*
X3977Y930D02*
X4042Y930D01*
X4077Y930D02*
X4142Y930D01*
X4277Y930D02*
X4342Y930D01*
X4377Y930D02*
X4442Y930D01*
X377Y929D02*
X444Y929D01*
X477Y929D02*
X544Y929D01*
X576Y929D02*
X644Y929D01*
X777Y929D02*
X844Y929D01*
X876Y929D02*
X944Y929D01*
X976Y929D02*
X1044Y929D01*
X1076Y929D02*
X1144Y929D01*
X1176Y929D02*
X1244Y929D01*
X1276Y929D02*
X1344Y929D01*
X1476Y929D02*
X1544Y929D01*
X1576Y929D02*
X1644Y929D01*
X1776Y929D02*
X1844Y929D01*
X1876Y929D02*
X1944Y929D01*
X1976Y929D02*
X2044Y929D01*
X2176Y929D02*
X2244Y929D01*
X2276Y929D02*
X2344Y929D01*
X2376Y929D02*
X2444Y929D01*
X2476Y929D02*
X2543Y929D01*
X2576Y929D02*
X2643Y929D01*
X2676Y929D02*
X2743Y929D01*
X2876Y929D02*
X2943Y929D01*
X2976Y929D02*
X3043Y929D01*
X3176Y929D02*
X3243Y929D01*
X3276Y929D02*
X3343Y929D01*
X3376Y929D02*
X3443Y929D01*
X3576Y929D02*
X3643Y929D01*
X3676Y929D02*
X3743Y929D01*
X3776Y929D02*
X3843Y929D01*
X3876Y929D02*
X3943Y929D01*
X3976Y929D02*
X4043Y929D01*
X4076Y929D02*
X4143Y929D01*
X4276Y929D02*
X4343Y929D01*
X4376Y929D02*
X4443Y929D01*
X376Y928D02*
X445Y928D01*
X476Y928D02*
X545Y928D01*
X576Y928D02*
X645Y928D01*
X776Y928D02*
X845Y928D01*
X876Y928D02*
X945Y928D01*
X976Y928D02*
X1045Y928D01*
X1076Y928D02*
X1145Y928D01*
X1176Y928D02*
X1245Y928D01*
X1276Y928D02*
X1345Y928D01*
X1475Y928D02*
X1545Y928D01*
X1576Y928D02*
X1644Y928D01*
X1775Y928D02*
X1844Y928D01*
X1875Y928D02*
X1944Y928D01*
X1975Y928D02*
X2044Y928D01*
X2175Y928D02*
X2244Y928D01*
X2275Y928D02*
X2344Y928D01*
X2375Y928D02*
X2444Y928D01*
X2475Y928D02*
X2544Y928D01*
X2575Y928D02*
X2644Y928D01*
X2675Y928D02*
X2744Y928D01*
X2875Y928D02*
X2944Y928D01*
X2975Y928D02*
X3044Y928D01*
X3175Y928D02*
X3244Y928D01*
X3275Y928D02*
X3344Y928D01*
X3375Y928D02*
X3444Y928D01*
X3575Y928D02*
X3644Y928D01*
X3675Y928D02*
X3744Y928D01*
X3775Y928D02*
X3844Y928D01*
X3875Y928D02*
X3944Y928D01*
X3975Y928D02*
X4044Y928D01*
X4075Y928D02*
X4144Y928D01*
X4275Y928D02*
X4344Y928D01*
X4375Y928D02*
X4444Y928D01*
X375Y927D02*
X446Y927D01*
X475Y927D02*
X546Y927D01*
X575Y927D02*
X645Y927D01*
X775Y927D02*
X845Y927D01*
X875Y927D02*
X945Y927D01*
X975Y927D02*
X1045Y927D01*
X1075Y927D02*
X1145Y927D01*
X1175Y927D02*
X1245Y927D01*
X1275Y927D02*
X1345Y927D01*
X1475Y927D02*
X1545Y927D01*
X1575Y927D02*
X1645Y927D01*
X1775Y927D02*
X1845Y927D01*
X1875Y927D02*
X1945Y927D01*
X1975Y927D02*
X2045Y927D01*
X2175Y927D02*
X2245Y927D01*
X2275Y927D02*
X2345Y927D01*
X2374Y927D02*
X2445Y927D01*
X2475Y927D02*
X2545Y927D01*
X2575Y927D02*
X2645Y927D01*
X2674Y927D02*
X2745Y927D01*
X2874Y927D02*
X2945Y927D01*
X2974Y927D02*
X3045Y927D01*
X3174Y927D02*
X3245Y927D01*
X3274Y927D02*
X3345Y927D01*
X3374Y927D02*
X3445Y927D01*
X3574Y927D02*
X3645Y927D01*
X3674Y927D02*
X3745Y927D01*
X3774Y927D02*
X3845Y927D01*
X3874Y927D02*
X3945Y927D01*
X3974Y927D02*
X4045Y927D01*
X4074Y927D02*
X4145Y927D01*
X4274Y927D02*
X4345Y927D01*
X4374Y927D02*
X4445Y927D01*
X374Y926D02*
X446Y926D01*
X474Y926D02*
X546Y926D01*
X574Y926D02*
X646Y926D01*
X774Y926D02*
X846Y926D01*
X874Y926D02*
X946Y926D01*
X974Y926D02*
X1046Y926D01*
X1074Y926D02*
X1146Y926D01*
X1174Y926D02*
X1246Y926D01*
X1274Y926D02*
X1346Y926D01*
X1474Y926D02*
X1546Y926D01*
X1574Y926D02*
X1646Y926D01*
X1774Y926D02*
X1846Y926D01*
X1874Y926D02*
X1946Y926D01*
X1974Y926D02*
X2046Y926D01*
X2174Y926D02*
X2246Y926D01*
X2274Y926D02*
X2346Y926D01*
X2374Y926D02*
X2446Y926D01*
X2474Y926D02*
X2546Y926D01*
X2574Y926D02*
X2646Y926D01*
X2674Y926D02*
X2746Y926D01*
X2874Y926D02*
X2946Y926D01*
X2974Y926D02*
X3046Y926D01*
X3174Y926D02*
X3246Y926D01*
X3274Y926D02*
X3346Y926D01*
X3374Y926D02*
X3446Y926D01*
X3574Y926D02*
X3646Y926D01*
X3674Y926D02*
X3746Y926D01*
X3774Y926D02*
X3846Y926D01*
X3874Y926D02*
X3946Y926D01*
X3974Y926D02*
X4046Y926D01*
X4074Y926D02*
X4146Y926D01*
X4274Y926D02*
X4346Y926D01*
X4374Y926D02*
X4446Y926D01*
X373Y925D02*
X447Y925D01*
X473Y925D02*
X547Y925D01*
X573Y925D02*
X647Y925D01*
X773Y925D02*
X847Y925D01*
X873Y925D02*
X947Y925D01*
X973Y925D02*
X1047Y925D01*
X1073Y925D02*
X1147Y925D01*
X1173Y925D02*
X1247Y925D01*
X1273Y925D02*
X1347Y925D01*
X1473Y925D02*
X1547Y925D01*
X1573Y925D02*
X1647Y925D01*
X1773Y925D02*
X1847Y925D01*
X1873Y925D02*
X1947Y925D01*
X1973Y925D02*
X2047Y925D01*
X2173Y925D02*
X2247Y925D01*
X2273Y925D02*
X2347Y925D01*
X2373Y925D02*
X2447Y925D01*
X2473Y925D02*
X2547Y925D01*
X2573Y925D02*
X2647Y925D01*
X2673Y925D02*
X2747Y925D01*
X2873Y925D02*
X2947Y925D01*
X2973Y925D02*
X3047Y925D01*
X3173Y925D02*
X3247Y925D01*
X3273Y925D02*
X3347Y925D01*
X3373Y925D02*
X3447Y925D01*
X3573Y925D02*
X3647Y925D01*
X3673Y925D02*
X3747Y925D01*
X3773Y925D02*
X3847Y925D01*
X3873Y925D02*
X3947Y925D01*
X3973Y925D02*
X4047Y925D01*
X4073Y925D02*
X4147Y925D01*
X4273Y925D02*
X4347Y925D01*
X4373Y925D02*
X4446Y925D01*
X373Y924D02*
X406Y924D01*
X414Y924D02*
X448Y924D01*
X473Y924D02*
X506Y924D01*
X514Y924D02*
X548Y924D01*
X573Y924D02*
X606Y924D01*
X614Y924D02*
X648Y924D01*
X773Y924D02*
X806Y924D01*
X814Y924D02*
X848Y924D01*
X873Y924D02*
X906Y924D01*
X914Y924D02*
X948Y924D01*
X972Y924D02*
X1006Y924D01*
X1014Y924D02*
X1048Y924D01*
X1072Y924D02*
X1106Y924D01*
X1114Y924D02*
X1148Y924D01*
X1172Y924D02*
X1206Y924D01*
X1214Y924D02*
X1248Y924D01*
X1272Y924D02*
X1306Y924D01*
X1314Y924D02*
X1348Y924D01*
X1472Y924D02*
X1506Y924D01*
X1514Y924D02*
X1548Y924D01*
X1572Y924D02*
X1606Y924D01*
X1614Y924D02*
X1648Y924D01*
X1772Y924D02*
X1806Y924D01*
X1814Y924D02*
X1848Y924D01*
X1872Y924D02*
X1906Y924D01*
X1914Y924D02*
X1948Y924D01*
X1972Y924D02*
X2006Y924D01*
X2014Y924D02*
X2048Y924D01*
X2172Y924D02*
X2206Y924D01*
X2214Y924D02*
X2248Y924D01*
X2272Y924D02*
X2306Y924D01*
X2314Y924D02*
X2348Y924D01*
X2372Y924D02*
X2406Y924D01*
X2414Y924D02*
X2448Y924D01*
X2472Y924D02*
X2506Y924D01*
X2514Y924D02*
X2547Y924D01*
X2572Y924D02*
X2606Y924D01*
X2614Y924D02*
X2647Y924D01*
X2672Y924D02*
X2706Y924D01*
X2714Y924D02*
X2747Y924D01*
X2872Y924D02*
X2906Y924D01*
X2914Y924D02*
X2947Y924D01*
X2972Y924D02*
X3006Y924D01*
X3013Y924D02*
X3047Y924D01*
X3172Y924D02*
X3206Y924D01*
X3214Y924D02*
X3247Y924D01*
X3272Y924D02*
X3306Y924D01*
X3314Y924D02*
X3347Y924D01*
X3372Y924D02*
X3406Y924D01*
X3414Y924D02*
X3447Y924D01*
X3572Y924D02*
X3606Y924D01*
X3614Y924D02*
X3647Y924D01*
X3672Y924D02*
X3706Y924D01*
X3714Y924D02*
X3747Y924D01*
X3772Y924D02*
X3805Y924D01*
X3814Y924D02*
X3847Y924D01*
X3872Y924D02*
X3906Y924D01*
X3914Y924D02*
X3947Y924D01*
X3972Y924D02*
X4006Y924D01*
X4014Y924D02*
X4047Y924D01*
X4072Y924D02*
X4106Y924D01*
X4114Y924D02*
X4147Y924D01*
X4272Y924D02*
X4305Y924D01*
X4314Y924D02*
X4347Y924D01*
X4372Y924D02*
X4406Y924D01*
X4413Y924D02*
X4447Y924D01*
X372Y923D02*
X401Y923D01*
X419Y923D02*
X448Y923D01*
X472Y923D02*
X501Y923D01*
X519Y923D02*
X548Y923D01*
X572Y923D02*
X601Y923D01*
X619Y923D02*
X648Y923D01*
X772Y923D02*
X801Y923D01*
X819Y923D02*
X848Y923D01*
X872Y923D02*
X901Y923D01*
X919Y923D02*
X948Y923D01*
X972Y923D02*
X1001Y923D01*
X1019Y923D02*
X1048Y923D01*
X1072Y923D02*
X1101Y923D01*
X1119Y923D02*
X1148Y923D01*
X1172Y923D02*
X1201Y923D01*
X1219Y923D02*
X1248Y923D01*
X1272Y923D02*
X1301Y923D01*
X1319Y923D02*
X1348Y923D01*
X1472Y923D02*
X1501Y923D01*
X1519Y923D02*
X1548Y923D01*
X1572Y923D02*
X1601Y923D01*
X1619Y923D02*
X1648Y923D01*
X1772Y923D02*
X1801Y923D01*
X1819Y923D02*
X1848Y923D01*
X1872Y923D02*
X1901Y923D01*
X1919Y923D02*
X1948Y923D01*
X1972Y923D02*
X2001Y923D01*
X2019Y923D02*
X2048Y923D01*
X2172Y923D02*
X2201Y923D01*
X2219Y923D02*
X2248Y923D01*
X2272Y923D02*
X2301Y923D01*
X2319Y923D02*
X2348Y923D01*
X2372Y923D02*
X2401Y923D01*
X2419Y923D02*
X2448Y923D01*
X2472Y923D02*
X2501Y923D01*
X2519Y923D02*
X2548Y923D01*
X2572Y923D02*
X2601Y923D01*
X2619Y923D02*
X2648Y923D01*
X2672Y923D02*
X2701Y923D01*
X2719Y923D02*
X2748Y923D01*
X2872Y923D02*
X2901Y923D01*
X2919Y923D02*
X2948Y923D01*
X2972Y923D02*
X3001Y923D01*
X3019Y923D02*
X3048Y923D01*
X3172Y923D02*
X3201Y923D01*
X3219Y923D02*
X3248Y923D01*
X3272Y923D02*
X3301Y923D01*
X3319Y923D02*
X3348Y923D01*
X3371Y923D02*
X3401Y923D01*
X3419Y923D02*
X3448Y923D01*
X3571Y923D02*
X3601Y923D01*
X3619Y923D02*
X3648Y923D01*
X3671Y923D02*
X3701Y923D01*
X3719Y923D02*
X3748Y923D01*
X3771Y923D02*
X3801Y923D01*
X3819Y923D02*
X3848Y923D01*
X3871Y923D02*
X3901Y923D01*
X3919Y923D02*
X3948Y923D01*
X3971Y923D02*
X4001Y923D01*
X4019Y923D02*
X4048Y923D01*
X4071Y923D02*
X4101Y923D01*
X4119Y923D02*
X4148Y923D01*
X4271Y923D02*
X4301Y923D01*
X4319Y923D02*
X4348Y923D01*
X4371Y923D02*
X4401Y923D01*
X4418Y923D02*
X4448Y923D01*
X371Y922D02*
X399Y922D01*
X422Y922D02*
X449Y922D01*
X471Y922D02*
X499Y922D01*
X522Y922D02*
X549Y922D01*
X571Y922D02*
X599Y922D01*
X622Y922D02*
X649Y922D01*
X771Y922D02*
X799Y922D01*
X822Y922D02*
X849Y922D01*
X871Y922D02*
X899Y922D01*
X922Y922D02*
X949Y922D01*
X971Y922D02*
X998Y922D01*
X1022Y922D02*
X1049Y922D01*
X1071Y922D02*
X1098Y922D01*
X1122Y922D02*
X1149Y922D01*
X1171Y922D02*
X1198Y922D01*
X1222Y922D02*
X1249Y922D01*
X1271Y922D02*
X1298Y922D01*
X1322Y922D02*
X1349Y922D01*
X1471Y922D02*
X1498Y922D01*
X1522Y922D02*
X1549Y922D01*
X1571Y922D02*
X1598Y922D01*
X1621Y922D02*
X1649Y922D01*
X1771Y922D02*
X1798Y922D01*
X1822Y922D02*
X1849Y922D01*
X1871Y922D02*
X1898Y922D01*
X1922Y922D02*
X1949Y922D01*
X1971Y922D02*
X1998Y922D01*
X2022Y922D02*
X2049Y922D01*
X2171Y922D02*
X2198Y922D01*
X2221Y922D02*
X2249Y922D01*
X2271Y922D02*
X2298Y922D01*
X2321Y922D02*
X2349Y922D01*
X2371Y922D02*
X2398Y922D01*
X2422Y922D02*
X2449Y922D01*
X2471Y922D02*
X2498Y922D01*
X2521Y922D02*
X2549Y922D01*
X2571Y922D02*
X2598Y922D01*
X2621Y922D02*
X2649Y922D01*
X2671Y922D02*
X2698Y922D01*
X2721Y922D02*
X2749Y922D01*
X2871Y922D02*
X2898Y922D01*
X2922Y922D02*
X2949Y922D01*
X2971Y922D02*
X2998Y922D01*
X3021Y922D02*
X3049Y922D01*
X3171Y922D02*
X3198Y922D01*
X3221Y922D02*
X3249Y922D01*
X3271Y922D02*
X3298Y922D01*
X3321Y922D02*
X3349Y922D01*
X3371Y922D02*
X3398Y922D01*
X3421Y922D02*
X3449Y922D01*
X3571Y922D02*
X3598Y922D01*
X3621Y922D02*
X3649Y922D01*
X3671Y922D02*
X3698Y922D01*
X3721Y922D02*
X3749Y922D01*
X3771Y922D02*
X3798Y922D01*
X3821Y922D02*
X3849Y922D01*
X3871Y922D02*
X3898Y922D01*
X3921Y922D02*
X3949Y922D01*
X3971Y922D02*
X3998Y922D01*
X4021Y922D02*
X4049Y922D01*
X4071Y922D02*
X4098Y922D01*
X4121Y922D02*
X4149Y922D01*
X4271Y922D02*
X4298Y922D01*
X4321Y922D02*
X4349Y922D01*
X4371Y922D02*
X4398Y922D01*
X4421Y922D02*
X4449Y922D01*
X371Y921D02*
X397Y921D01*
X424Y921D02*
X450Y921D01*
X471Y921D02*
X497Y921D01*
X524Y921D02*
X550Y921D01*
X571Y921D02*
X597Y921D01*
X624Y921D02*
X650Y921D01*
X771Y921D02*
X797Y921D01*
X824Y921D02*
X850Y921D01*
X871Y921D02*
X897Y921D01*
X924Y921D02*
X950Y921D01*
X971Y921D02*
X996Y921D01*
X1024Y921D02*
X1050Y921D01*
X1071Y921D02*
X1097Y921D01*
X1124Y921D02*
X1150Y921D01*
X1171Y921D02*
X1196Y921D01*
X1224Y921D02*
X1250Y921D01*
X1271Y921D02*
X1296Y921D01*
X1324Y921D02*
X1349Y921D01*
X1471Y921D02*
X1496Y921D01*
X1524Y921D02*
X1549Y921D01*
X1571Y921D02*
X1597Y921D01*
X1623Y921D02*
X1649Y921D01*
X1771Y921D02*
X1796Y921D01*
X1824Y921D02*
X1849Y921D01*
X1871Y921D02*
X1896Y921D01*
X1923Y921D02*
X1949Y921D01*
X1970Y921D02*
X1996Y921D01*
X2024Y921D02*
X2049Y921D01*
X2170Y921D02*
X2196Y921D01*
X2223Y921D02*
X2249Y921D01*
X2270Y921D02*
X2296Y921D01*
X2323Y921D02*
X2349Y921D01*
X2370Y921D02*
X2396Y921D01*
X2423Y921D02*
X2449Y921D01*
X2470Y921D02*
X2496Y921D01*
X2523Y921D02*
X2549Y921D01*
X2570Y921D02*
X2596Y921D01*
X2623Y921D02*
X2649Y921D01*
X2670Y921D02*
X2696Y921D01*
X2723Y921D02*
X2749Y921D01*
X2870Y921D02*
X2896Y921D01*
X2923Y921D02*
X2949Y921D01*
X2970Y921D02*
X2996Y921D01*
X3023Y921D02*
X3049Y921D01*
X3170Y921D02*
X3196Y921D01*
X3223Y921D02*
X3249Y921D01*
X3270Y921D02*
X3296Y921D01*
X3323Y921D02*
X3349Y921D01*
X3370Y921D02*
X3396Y921D01*
X3423Y921D02*
X3449Y921D01*
X3570Y921D02*
X3596Y921D01*
X3623Y921D02*
X3649Y921D01*
X3670Y921D02*
X3696Y921D01*
X3723Y921D02*
X3749Y921D01*
X3770Y921D02*
X3796Y921D01*
X3823Y921D02*
X3849Y921D01*
X3870Y921D02*
X3896Y921D01*
X3923Y921D02*
X3949Y921D01*
X3970Y921D02*
X3996Y921D01*
X4023Y921D02*
X4049Y921D01*
X4070Y921D02*
X4096Y921D01*
X4123Y921D02*
X4149Y921D01*
X4270Y921D02*
X4296Y921D01*
X4323Y921D02*
X4349Y921D01*
X4370Y921D02*
X4396Y921D01*
X4423Y921D02*
X4449Y921D01*
X370Y920D02*
X395Y920D01*
X425Y920D02*
X450Y920D01*
X470Y920D02*
X495Y920D01*
X525Y920D02*
X550Y920D01*
X570Y920D02*
X595Y920D01*
X625Y920D02*
X650Y920D01*
X770Y920D02*
X795Y920D01*
X825Y920D02*
X850Y920D01*
X870Y920D02*
X895Y920D01*
X925Y920D02*
X950Y920D01*
X970Y920D02*
X995Y920D01*
X1025Y920D02*
X1050Y920D01*
X1070Y920D02*
X1095Y920D01*
X1125Y920D02*
X1150Y920D01*
X1170Y920D02*
X1195Y920D01*
X1225Y920D02*
X1250Y920D01*
X1270Y920D02*
X1295Y920D01*
X1325Y920D02*
X1350Y920D01*
X1470Y920D02*
X1495Y920D01*
X1525Y920D02*
X1550Y920D01*
X1570Y920D02*
X1595Y920D01*
X1625Y920D02*
X1650Y920D01*
X1770Y920D02*
X1795Y920D01*
X1825Y920D02*
X1850Y920D01*
X1870Y920D02*
X1895Y920D01*
X1925Y920D02*
X1950Y920D01*
X1970Y920D02*
X1995Y920D01*
X2025Y920D02*
X2050Y920D01*
X2170Y920D02*
X2195Y920D01*
X2225Y920D02*
X2250Y920D01*
X2270Y920D02*
X2295Y920D01*
X2325Y920D02*
X2350Y920D01*
X2370Y920D02*
X2395Y920D01*
X2425Y920D02*
X2450Y920D01*
X2470Y920D02*
X2495Y920D01*
X2525Y920D02*
X2550Y920D01*
X2570Y920D02*
X2595Y920D01*
X2625Y920D02*
X2650Y920D01*
X2670Y920D02*
X2695Y920D01*
X2725Y920D02*
X2750Y920D01*
X2870Y920D02*
X2895Y920D01*
X2925Y920D02*
X2950Y920D01*
X2970Y920D02*
X2995Y920D01*
X3025Y920D02*
X3050Y920D01*
X3170Y920D02*
X3195Y920D01*
X3225Y920D02*
X3250Y920D01*
X3270Y920D02*
X3295Y920D01*
X3325Y920D02*
X3350Y920D01*
X3370Y920D02*
X3395Y920D01*
X3425Y920D02*
X3450Y920D01*
X3570Y920D02*
X3595Y920D01*
X3625Y920D02*
X3650Y920D01*
X3670Y920D02*
X3695Y920D01*
X3725Y920D02*
X3750Y920D01*
X3770Y920D02*
X3795Y920D01*
X3825Y920D02*
X3850Y920D01*
X3870Y920D02*
X3895Y920D01*
X3925Y920D02*
X3950Y920D01*
X3970Y920D02*
X3995Y920D01*
X4025Y920D02*
X4050Y920D01*
X4070Y920D02*
X4095Y920D01*
X4125Y920D02*
X4150Y920D01*
X4270Y920D02*
X4294Y920D01*
X4325Y920D02*
X4350Y920D01*
X4370Y920D02*
X4395Y920D01*
X4425Y920D02*
X4450Y920D01*
X370Y919D02*
X394Y919D01*
X427Y919D02*
X451Y919D01*
X470Y919D02*
X494Y919D01*
X527Y919D02*
X551Y919D01*
X570Y919D02*
X594Y919D01*
X627Y919D02*
X651Y919D01*
X770Y919D02*
X794Y919D01*
X826Y919D02*
X851Y919D01*
X869Y919D02*
X894Y919D01*
X926Y919D02*
X951Y919D01*
X969Y919D02*
X994Y919D01*
X1026Y919D02*
X1051Y919D01*
X1069Y919D02*
X1094Y919D01*
X1126Y919D02*
X1151Y919D01*
X1169Y919D02*
X1194Y919D01*
X1226Y919D02*
X1251Y919D01*
X1269Y919D02*
X1294Y919D01*
X1326Y919D02*
X1351Y919D01*
X1469Y919D02*
X1494Y919D01*
X1526Y919D02*
X1551Y919D01*
X1569Y919D02*
X1594Y919D01*
X1626Y919D02*
X1651Y919D01*
X1769Y919D02*
X1794Y919D01*
X1826Y919D02*
X1851Y919D01*
X1869Y919D02*
X1894Y919D01*
X1926Y919D02*
X1951Y919D01*
X1969Y919D02*
X1994Y919D01*
X2026Y919D02*
X2051Y919D01*
X2169Y919D02*
X2194Y919D01*
X2226Y919D02*
X2251Y919D01*
X2269Y919D02*
X2294Y919D01*
X2326Y919D02*
X2351Y919D01*
X2369Y919D02*
X2393Y919D01*
X2426Y919D02*
X2451Y919D01*
X2469Y919D02*
X2493Y919D01*
X2526Y919D02*
X2550Y919D01*
X2569Y919D02*
X2593Y919D01*
X2626Y919D02*
X2650Y919D01*
X2669Y919D02*
X2693Y919D01*
X2726Y919D02*
X2750Y919D01*
X2869Y919D02*
X2893Y919D01*
X2926Y919D02*
X2950Y919D01*
X2969Y919D02*
X2993Y919D01*
X3026Y919D02*
X3050Y919D01*
X3169Y919D02*
X3193Y919D01*
X3226Y919D02*
X3250Y919D01*
X3269Y919D02*
X3293Y919D01*
X3326Y919D02*
X3350Y919D01*
X3369Y919D02*
X3393Y919D01*
X3426Y919D02*
X3450Y919D01*
X3569Y919D02*
X3593Y919D01*
X3626Y919D02*
X3650Y919D01*
X3669Y919D02*
X3693Y919D01*
X3726Y919D02*
X3750Y919D01*
X3769Y919D02*
X3793Y919D01*
X3826Y919D02*
X3850Y919D01*
X3869Y919D02*
X3893Y919D01*
X3926Y919D02*
X3950Y919D01*
X3969Y919D02*
X3993Y919D01*
X4026Y919D02*
X4050Y919D01*
X4069Y919D02*
X4093Y919D01*
X4126Y919D02*
X4150Y919D01*
X4269Y919D02*
X4293Y919D01*
X4326Y919D02*
X4350Y919D01*
X4369Y919D02*
X4393Y919D01*
X4426Y919D02*
X4450Y919D01*
X369Y918D02*
X393Y918D01*
X428Y918D02*
X451Y918D01*
X469Y918D02*
X493Y918D01*
X528Y918D02*
X551Y918D01*
X569Y918D02*
X593Y918D01*
X628Y918D02*
X651Y918D01*
X769Y918D02*
X793Y918D01*
X828Y918D02*
X851Y918D01*
X869Y918D02*
X893Y918D01*
X928Y918D02*
X951Y918D01*
X969Y918D02*
X992Y918D01*
X1028Y918D02*
X1051Y918D01*
X1069Y918D02*
X1093Y918D01*
X1128Y918D02*
X1151Y918D01*
X1169Y918D02*
X1192Y918D01*
X1228Y918D02*
X1251Y918D01*
X1269Y918D02*
X1292Y918D01*
X1328Y918D02*
X1351Y918D01*
X1469Y918D02*
X1492Y918D01*
X1528Y918D02*
X1551Y918D01*
X1569Y918D02*
X1592Y918D01*
X1628Y918D02*
X1651Y918D01*
X1769Y918D02*
X1792Y918D01*
X1828Y918D02*
X1851Y918D01*
X1869Y918D02*
X1892Y918D01*
X1928Y918D02*
X1951Y918D01*
X1969Y918D02*
X1992Y918D01*
X2028Y918D02*
X2051Y918D01*
X2169Y918D02*
X2192Y918D01*
X2227Y918D02*
X2251Y918D01*
X2269Y918D02*
X2292Y918D01*
X2327Y918D02*
X2351Y918D01*
X2369Y918D02*
X2392Y918D01*
X2428Y918D02*
X2451Y918D01*
X2469Y918D02*
X2492Y918D01*
X2527Y918D02*
X2551Y918D01*
X2569Y918D02*
X2592Y918D01*
X2627Y918D02*
X2651Y918D01*
X2669Y918D02*
X2692Y918D01*
X2727Y918D02*
X2751Y918D01*
X2869Y918D02*
X2892Y918D01*
X2927Y918D02*
X2951Y918D01*
X2969Y918D02*
X2992Y918D01*
X3027Y918D02*
X3051Y918D01*
X3169Y918D02*
X3192Y918D01*
X3227Y918D02*
X3251Y918D01*
X3269Y918D02*
X3292Y918D01*
X3327Y918D02*
X3351Y918D01*
X3369Y918D02*
X3392Y918D01*
X3427Y918D02*
X3451Y918D01*
X3569Y918D02*
X3592Y918D01*
X3627Y918D02*
X3651Y918D01*
X3669Y918D02*
X3692Y918D01*
X3727Y918D02*
X3751Y918D01*
X3769Y918D02*
X3792Y918D01*
X3827Y918D02*
X3851Y918D01*
X3869Y918D02*
X3892Y918D01*
X3927Y918D02*
X3951Y918D01*
X3969Y918D02*
X3992Y918D01*
X4027Y918D02*
X4051Y918D01*
X4069Y918D02*
X4092Y918D01*
X4127Y918D02*
X4151Y918D01*
X4269Y918D02*
X4292Y918D01*
X4327Y918D02*
X4351Y918D01*
X4369Y918D02*
X4392Y918D01*
X4427Y918D02*
X4451Y918D01*
X369Y917D02*
X391Y917D01*
X429Y917D02*
X452Y917D01*
X469Y917D02*
X491Y917D01*
X529Y917D02*
X552Y917D01*
X569Y917D02*
X591Y917D01*
X629Y917D02*
X652Y917D01*
X769Y917D02*
X791Y917D01*
X829Y917D02*
X852Y917D01*
X869Y917D02*
X891Y917D01*
X929Y917D02*
X952Y917D01*
X969Y917D02*
X991Y917D01*
X1029Y917D02*
X1052Y917D01*
X1069Y917D02*
X1091Y917D01*
X1129Y917D02*
X1152Y917D01*
X1168Y917D02*
X1191Y917D01*
X1229Y917D02*
X1252Y917D01*
X1268Y917D02*
X1291Y917D01*
X1329Y917D02*
X1352Y917D01*
X1468Y917D02*
X1491Y917D01*
X1529Y917D02*
X1552Y917D01*
X1568Y917D02*
X1591Y917D01*
X1629Y917D02*
X1652Y917D01*
X1768Y917D02*
X1791Y917D01*
X1829Y917D02*
X1852Y917D01*
X1868Y917D02*
X1891Y917D01*
X1929Y917D02*
X1952Y917D01*
X1968Y917D02*
X1991Y917D01*
X2029Y917D02*
X2052Y917D01*
X2168Y917D02*
X2191Y917D01*
X2229Y917D02*
X2251Y917D01*
X2268Y917D02*
X2291Y917D01*
X2329Y917D02*
X2351Y917D01*
X2368Y917D02*
X2391Y917D01*
X2429Y917D02*
X2451Y917D01*
X2468Y917D02*
X2491Y917D01*
X2529Y917D02*
X2551Y917D01*
X2568Y917D02*
X2591Y917D01*
X2629Y917D02*
X2651Y917D01*
X2668Y917D02*
X2691Y917D01*
X2729Y917D02*
X2751Y917D01*
X2868Y917D02*
X2891Y917D01*
X2929Y917D02*
X2951Y917D01*
X2968Y917D02*
X2991Y917D01*
X3029Y917D02*
X3051Y917D01*
X3168Y917D02*
X3191Y917D01*
X3229Y917D02*
X3251Y917D01*
X3268Y917D02*
X3291Y917D01*
X3329Y917D02*
X3351Y917D01*
X3368Y917D02*
X3391Y917D01*
X3429Y917D02*
X3451Y917D01*
X3568Y917D02*
X3591Y917D01*
X3628Y917D02*
X3651Y917D01*
X3668Y917D02*
X3691Y917D01*
X3728Y917D02*
X3751Y917D01*
X3768Y917D02*
X3791Y917D01*
X3829Y917D02*
X3851Y917D01*
X3868Y917D02*
X3891Y917D01*
X3928Y917D02*
X3951Y917D01*
X3968Y917D02*
X3991Y917D01*
X4028Y917D02*
X4051Y917D01*
X4068Y917D02*
X4091Y917D01*
X4128Y917D02*
X4151Y917D01*
X4268Y917D02*
X4291Y917D01*
X4328Y917D02*
X4351Y917D01*
X4368Y917D02*
X4391Y917D01*
X4428Y917D02*
X4451Y917D01*
X368Y916D02*
X390Y916D01*
X430Y916D02*
X452Y916D01*
X468Y916D02*
X490Y916D01*
X530Y916D02*
X552Y916D01*
X568Y916D02*
X590Y916D01*
X630Y916D02*
X652Y916D01*
X768Y916D02*
X790Y916D01*
X830Y916D02*
X852Y916D01*
X868Y916D02*
X890Y916D01*
X930Y916D02*
X952Y916D01*
X968Y916D02*
X990Y916D01*
X1030Y916D02*
X1052Y916D01*
X1068Y916D02*
X1090Y916D01*
X1130Y916D02*
X1152Y916D01*
X1168Y916D02*
X1190Y916D01*
X1230Y916D02*
X1252Y916D01*
X1268Y916D02*
X1290Y916D01*
X1330Y916D02*
X1352Y916D01*
X1468Y916D02*
X1490Y916D01*
X1530Y916D02*
X1552Y916D01*
X1568Y916D02*
X1590Y916D01*
X1630Y916D02*
X1652Y916D01*
X1768Y916D02*
X1790Y916D01*
X1830Y916D02*
X1852Y916D01*
X1868Y916D02*
X1890Y916D01*
X1930Y916D02*
X1952Y916D01*
X1968Y916D02*
X1990Y916D01*
X2030Y916D02*
X2052Y916D01*
X2168Y916D02*
X2190Y916D01*
X2230Y916D02*
X2252Y916D01*
X2268Y916D02*
X2290Y916D01*
X2330Y916D02*
X2352Y916D01*
X2368Y916D02*
X2390Y916D01*
X2430Y916D02*
X2452Y916D01*
X2468Y916D02*
X2490Y916D01*
X2530Y916D02*
X2552Y916D01*
X2568Y916D02*
X2590Y916D01*
X2630Y916D02*
X2652Y916D01*
X2668Y916D02*
X2690Y916D01*
X2730Y916D02*
X2752Y916D01*
X2868Y916D02*
X2890Y916D01*
X2930Y916D02*
X2952Y916D01*
X2968Y916D02*
X2990Y916D01*
X3030Y916D02*
X3052Y916D01*
X3168Y916D02*
X3190Y916D01*
X3230Y916D02*
X3252Y916D01*
X3268Y916D02*
X3290Y916D01*
X3330Y916D02*
X3352Y916D01*
X3368Y916D02*
X3390Y916D01*
X3430Y916D02*
X3452Y916D01*
X3568Y916D02*
X3590Y916D01*
X3630Y916D02*
X3652Y916D01*
X3668Y916D02*
X3690Y916D01*
X3730Y916D02*
X3752Y916D01*
X3768Y916D02*
X3790Y916D01*
X3830Y916D02*
X3852Y916D01*
X3868Y916D02*
X3890Y916D01*
X3930Y916D02*
X3952Y916D01*
X3968Y916D02*
X3990Y916D01*
X4030Y916D02*
X4052Y916D01*
X4068Y916D02*
X4090Y916D01*
X4130Y916D02*
X4152Y916D01*
X4268Y916D02*
X4290Y916D01*
X4330Y916D02*
X4352Y916D01*
X4368Y916D02*
X4390Y916D01*
X4429Y916D02*
X4452Y916D01*
X368Y915D02*
X389Y915D01*
X431Y915D02*
X453Y915D01*
X468Y915D02*
X489Y915D01*
X531Y915D02*
X553Y915D01*
X568Y915D02*
X589Y915D01*
X631Y915D02*
X653Y915D01*
X768Y915D02*
X789Y915D01*
X831Y915D02*
X853Y915D01*
X868Y915D02*
X889Y915D01*
X931Y915D02*
X953Y915D01*
X968Y915D02*
X989Y915D01*
X1031Y915D02*
X1053Y915D01*
X1068Y915D02*
X1089Y915D01*
X1131Y915D02*
X1153Y915D01*
X1168Y915D02*
X1189Y915D01*
X1231Y915D02*
X1253Y915D01*
X1268Y915D02*
X1289Y915D01*
X1331Y915D02*
X1352Y915D01*
X1468Y915D02*
X1489Y915D01*
X1531Y915D02*
X1553Y915D01*
X1568Y915D02*
X1589Y915D01*
X1631Y915D02*
X1652Y915D01*
X1767Y915D02*
X1789Y915D01*
X1831Y915D02*
X1852Y915D01*
X1867Y915D02*
X1889Y915D01*
X1931Y915D02*
X1952Y915D01*
X1967Y915D02*
X1989Y915D01*
X2031Y915D02*
X2052Y915D01*
X2167Y915D02*
X2189Y915D01*
X2231Y915D02*
X2252Y915D01*
X2267Y915D02*
X2289Y915D01*
X2331Y915D02*
X2352Y915D01*
X2367Y915D02*
X2389Y915D01*
X2431Y915D02*
X2452Y915D01*
X2467Y915D02*
X2489Y915D01*
X2531Y915D02*
X2552Y915D01*
X2567Y915D02*
X2589Y915D01*
X2631Y915D02*
X2652Y915D01*
X2667Y915D02*
X2689Y915D01*
X2731Y915D02*
X2752Y915D01*
X2867Y915D02*
X2889Y915D01*
X2931Y915D02*
X2952Y915D01*
X2967Y915D02*
X2989Y915D01*
X3030Y915D02*
X3052Y915D01*
X3167Y915D02*
X3189Y915D01*
X3231Y915D02*
X3252Y915D01*
X3267Y915D02*
X3289Y915D01*
X3330Y915D02*
X3352Y915D01*
X3367Y915D02*
X3389Y915D01*
X3430Y915D02*
X3452Y915D01*
X3567Y915D02*
X3589Y915D01*
X3630Y915D02*
X3652Y915D01*
X3667Y915D02*
X3689Y915D01*
X3730Y915D02*
X3752Y915D01*
X3767Y915D02*
X3789Y915D01*
X3830Y915D02*
X3852Y915D01*
X3867Y915D02*
X3889Y915D01*
X3930Y915D02*
X3952Y915D01*
X3967Y915D02*
X3989Y915D01*
X4030Y915D02*
X4052Y915D01*
X4067Y915D02*
X4089Y915D01*
X4130Y915D02*
X4152Y915D01*
X4267Y915D02*
X4289Y915D01*
X4330Y915D02*
X4352Y915D01*
X4367Y915D02*
X4389Y915D01*
X4430Y915D02*
X4452Y915D01*
X367Y914D02*
X389Y914D01*
X432Y914D02*
X453Y914D01*
X467Y914D02*
X489Y914D01*
X532Y914D02*
X553Y914D01*
X567Y914D02*
X589Y914D01*
X632Y914D02*
X653Y914D01*
X767Y914D02*
X789Y914D01*
X832Y914D02*
X853Y914D01*
X867Y914D02*
X889Y914D01*
X932Y914D02*
X953Y914D01*
X967Y914D02*
X989Y914D01*
X1032Y914D02*
X1053Y914D01*
X1067Y914D02*
X1089Y914D01*
X1132Y914D02*
X1153Y914D01*
X1167Y914D02*
X1189Y914D01*
X1232Y914D02*
X1253Y914D01*
X1267Y914D02*
X1288Y914D01*
X1332Y914D02*
X1353Y914D01*
X1467Y914D02*
X1488Y914D01*
X1532Y914D02*
X1553Y914D01*
X1567Y914D02*
X1588Y914D01*
X1632Y914D02*
X1653Y914D01*
X1767Y914D02*
X1788Y914D01*
X1832Y914D02*
X1853Y914D01*
X1867Y914D02*
X1888Y914D01*
X1932Y914D02*
X1953Y914D01*
X1967Y914D02*
X1988Y914D01*
X2031Y914D02*
X2053Y914D01*
X2167Y914D02*
X2188Y914D01*
X2231Y914D02*
X2253Y914D01*
X2267Y914D02*
X2288Y914D01*
X2331Y914D02*
X2353Y914D01*
X2367Y914D02*
X2388Y914D01*
X2431Y914D02*
X2453Y914D01*
X2467Y914D02*
X2488Y914D01*
X2531Y914D02*
X2553Y914D01*
X2567Y914D02*
X2588Y914D01*
X2631Y914D02*
X2653Y914D01*
X2667Y914D02*
X2688Y914D01*
X2731Y914D02*
X2753Y914D01*
X2867Y914D02*
X2888Y914D01*
X2931Y914D02*
X2953Y914D01*
X2967Y914D02*
X2988Y914D01*
X3031Y914D02*
X3053Y914D01*
X3167Y914D02*
X3188Y914D01*
X3231Y914D02*
X3253Y914D01*
X3267Y914D02*
X3288Y914D01*
X3331Y914D02*
X3353Y914D01*
X3367Y914D02*
X3388Y914D01*
X3431Y914D02*
X3453Y914D01*
X3567Y914D02*
X3588Y914D01*
X3631Y914D02*
X3653Y914D01*
X3667Y914D02*
X3688Y914D01*
X3731Y914D02*
X3753Y914D01*
X3767Y914D02*
X3788Y914D01*
X3831Y914D02*
X3853Y914D01*
X3867Y914D02*
X3888Y914D01*
X3931Y914D02*
X3953Y914D01*
X3967Y914D02*
X3988Y914D01*
X4031Y914D02*
X4053Y914D01*
X4067Y914D02*
X4088Y914D01*
X4131Y914D02*
X4153Y914D01*
X4267Y914D02*
X4288Y914D01*
X4331Y914D02*
X4353Y914D01*
X4367Y914D02*
X4388Y914D01*
X4431Y914D02*
X4453Y914D01*
X367Y913D02*
X388Y913D01*
X433Y913D02*
X453Y913D01*
X467Y913D02*
X488Y913D01*
X533Y913D02*
X553Y913D01*
X567Y913D02*
X588Y913D01*
X633Y913D02*
X653Y913D01*
X767Y913D02*
X788Y913D01*
X832Y913D02*
X853Y913D01*
X867Y913D02*
X888Y913D01*
X932Y913D02*
X953Y913D01*
X967Y913D02*
X988Y913D01*
X1032Y913D02*
X1053Y913D01*
X1067Y913D02*
X1088Y913D01*
X1132Y913D02*
X1153Y913D01*
X1167Y913D02*
X1188Y913D01*
X1232Y913D02*
X1253Y913D01*
X1267Y913D02*
X1288Y913D01*
X1332Y913D02*
X1353Y913D01*
X1467Y913D02*
X1488Y913D01*
X1532Y913D02*
X1553Y913D01*
X1567Y913D02*
X1588Y913D01*
X1632Y913D02*
X1653Y913D01*
X1767Y913D02*
X1788Y913D01*
X1832Y913D02*
X1853Y913D01*
X1867Y913D02*
X1888Y913D01*
X1932Y913D02*
X1953Y913D01*
X1967Y913D02*
X1988Y913D01*
X2032Y913D02*
X2053Y913D01*
X2167Y913D02*
X2188Y913D01*
X2232Y913D02*
X2253Y913D01*
X2267Y913D02*
X2288Y913D01*
X2332Y913D02*
X2353Y913D01*
X2367Y913D02*
X2387Y913D01*
X2432Y913D02*
X2453Y913D01*
X2467Y913D02*
X2488Y913D01*
X2532Y913D02*
X2553Y913D01*
X2567Y913D02*
X2587Y913D01*
X2632Y913D02*
X2653Y913D01*
X2667Y913D02*
X2687Y913D01*
X2732Y913D02*
X2753Y913D01*
X2867Y913D02*
X2887Y913D01*
X2932Y913D02*
X2953Y913D01*
X2967Y913D02*
X2987Y913D01*
X3032Y913D02*
X3053Y913D01*
X3167Y913D02*
X3187Y913D01*
X3232Y913D02*
X3253Y913D01*
X3267Y913D02*
X3287Y913D01*
X3332Y913D02*
X3353Y913D01*
X3367Y913D02*
X3387Y913D01*
X3432Y913D02*
X3453Y913D01*
X3567Y913D02*
X3587Y913D01*
X3632Y913D02*
X3653Y913D01*
X3667Y913D02*
X3687Y913D01*
X3732Y913D02*
X3753Y913D01*
X3766Y913D02*
X3787Y913D01*
X3832Y913D02*
X3853Y913D01*
X3867Y913D02*
X3887Y913D01*
X3932Y913D02*
X3953Y913D01*
X3966Y913D02*
X3987Y913D01*
X4032Y913D02*
X4053Y913D01*
X4066Y913D02*
X4087Y913D01*
X4132Y913D02*
X4153Y913D01*
X4266Y913D02*
X4287Y913D01*
X4332Y913D02*
X4353Y913D01*
X4366Y913D02*
X4387Y913D01*
X4432Y913D02*
X4453Y913D01*
X367Y912D02*
X387Y912D01*
X433Y912D02*
X454Y912D01*
X467Y912D02*
X487Y912D01*
X533Y912D02*
X554Y912D01*
X567Y912D02*
X587Y912D01*
X633Y912D02*
X654Y912D01*
X767Y912D02*
X787Y912D01*
X833Y912D02*
X854Y912D01*
X866Y912D02*
X887Y912D01*
X933Y912D02*
X954Y912D01*
X966Y912D02*
X987Y912D01*
X1033Y912D02*
X1054Y912D01*
X1066Y912D02*
X1087Y912D01*
X1133Y912D02*
X1154Y912D01*
X1166Y912D02*
X1187Y912D01*
X1233Y912D02*
X1254Y912D01*
X1266Y912D02*
X1287Y912D01*
X1333Y912D02*
X1354Y912D01*
X1466Y912D02*
X1487Y912D01*
X1533Y912D02*
X1554Y912D01*
X1566Y912D02*
X1587Y912D01*
X1633Y912D02*
X1654Y912D01*
X1766Y912D02*
X1787Y912D01*
X1833Y912D02*
X1854Y912D01*
X1866Y912D02*
X1887Y912D01*
X1933Y912D02*
X1954Y912D01*
X1966Y912D02*
X1987Y912D01*
X2033Y912D02*
X2054Y912D01*
X2166Y912D02*
X2187Y912D01*
X2233Y912D02*
X2254Y912D01*
X2266Y912D02*
X2287Y912D01*
X2333Y912D02*
X2354Y912D01*
X2366Y912D02*
X2387Y912D01*
X2433Y912D02*
X2454Y912D01*
X2466Y912D02*
X2487Y912D01*
X2533Y912D02*
X2553Y912D01*
X2566Y912D02*
X2587Y912D01*
X2633Y912D02*
X2653Y912D01*
X2666Y912D02*
X2687Y912D01*
X2733Y912D02*
X2753Y912D01*
X2866Y912D02*
X2887Y912D01*
X2933Y912D02*
X2953Y912D01*
X2966Y912D02*
X2987Y912D01*
X3033Y912D02*
X3053Y912D01*
X3166Y912D02*
X3187Y912D01*
X3233Y912D02*
X3253Y912D01*
X3266Y912D02*
X3287Y912D01*
X3333Y912D02*
X3353Y912D01*
X3366Y912D02*
X3387Y912D01*
X3433Y912D02*
X3453Y912D01*
X3566Y912D02*
X3587Y912D01*
X3633Y912D02*
X3653Y912D01*
X3666Y912D02*
X3687Y912D01*
X3733Y912D02*
X3753Y912D01*
X3766Y912D02*
X3787Y912D01*
X3833Y912D02*
X3853Y912D01*
X3866Y912D02*
X3887Y912D01*
X3933Y912D02*
X3953Y912D01*
X3966Y912D02*
X3987Y912D01*
X4033Y912D02*
X4053Y912D01*
X4066Y912D02*
X4086Y912D01*
X4133Y912D02*
X4153Y912D01*
X4266Y912D02*
X4286Y912D01*
X4333Y912D02*
X4353Y912D01*
X4366Y912D02*
X4386Y912D01*
X4433Y912D02*
X4453Y912D01*
X366Y911D02*
X386Y911D01*
X434Y911D02*
X454Y911D01*
X466Y911D02*
X486Y911D01*
X534Y911D02*
X554Y911D01*
X566Y911D02*
X586Y911D01*
X634Y911D02*
X654Y911D01*
X766Y911D02*
X786Y911D01*
X834Y911D02*
X854Y911D01*
X866Y911D02*
X886Y911D01*
X934Y911D02*
X954Y911D01*
X966Y911D02*
X986Y911D01*
X1034Y911D02*
X1054Y911D01*
X1066Y911D02*
X1086Y911D01*
X1134Y911D02*
X1154Y911D01*
X1166Y911D02*
X1186Y911D01*
X1234Y911D02*
X1254Y911D01*
X1266Y911D02*
X1286Y911D01*
X1334Y911D02*
X1354Y911D01*
X1466Y911D02*
X1486Y911D01*
X1534Y911D02*
X1554Y911D01*
X1566Y911D02*
X1586Y911D01*
X1634Y911D02*
X1654Y911D01*
X1766Y911D02*
X1786Y911D01*
X1834Y911D02*
X1854Y911D01*
X1866Y911D02*
X1886Y911D01*
X1934Y911D02*
X1954Y911D01*
X1966Y911D02*
X1986Y911D01*
X2034Y911D02*
X2054Y911D01*
X2166Y911D02*
X2186Y911D01*
X2234Y911D02*
X2254Y911D01*
X2266Y911D02*
X2286Y911D01*
X2334Y911D02*
X2354Y911D01*
X2366Y911D02*
X2386Y911D01*
X2434Y911D02*
X2454Y911D01*
X2466Y911D02*
X2486Y911D01*
X2534Y911D02*
X2554Y911D01*
X2566Y911D02*
X2586Y911D01*
X2634Y911D02*
X2654Y911D01*
X2666Y911D02*
X2686Y911D01*
X2734Y911D02*
X2754Y911D01*
X2866Y911D02*
X2886Y911D01*
X2934Y911D02*
X2954Y911D01*
X2966Y911D02*
X2986Y911D01*
X3034Y911D02*
X3054Y911D01*
X3166Y911D02*
X3186Y911D01*
X3234Y911D02*
X3254Y911D01*
X3266Y911D02*
X3286Y911D01*
X3334Y911D02*
X3354Y911D01*
X3366Y911D02*
X3386Y911D01*
X3434Y911D02*
X3454Y911D01*
X3566Y911D02*
X3586Y911D01*
X3634Y911D02*
X3654Y911D01*
X3666Y911D02*
X3686Y911D01*
X3734Y911D02*
X3754Y911D01*
X3766Y911D02*
X3786Y911D01*
X3834Y911D02*
X3854Y911D01*
X3866Y911D02*
X3886Y911D01*
X3934Y911D02*
X3954Y911D01*
X3966Y911D02*
X3986Y911D01*
X4034Y911D02*
X4054Y911D01*
X4066Y911D02*
X4086Y911D01*
X4134Y911D02*
X4154Y911D01*
X4266Y911D02*
X4286Y911D01*
X4334Y911D02*
X4354Y911D01*
X4366Y911D02*
X4386Y911D01*
X4433Y911D02*
X4454Y911D01*
X366Y910D02*
X386Y910D01*
X435Y910D02*
X454Y910D01*
X466Y910D02*
X486Y910D01*
X535Y910D02*
X554Y910D01*
X566Y910D02*
X586Y910D01*
X635Y910D02*
X654Y910D01*
X766Y910D02*
X786Y910D01*
X835Y910D02*
X854Y910D01*
X866Y910D02*
X886Y910D01*
X935Y910D02*
X954Y910D01*
X966Y910D02*
X986Y910D01*
X1035Y910D02*
X1054Y910D01*
X1066Y910D02*
X1086Y910D01*
X1135Y910D02*
X1154Y910D01*
X1166Y910D02*
X1186Y910D01*
X1234Y910D02*
X1254Y910D01*
X1266Y910D02*
X1286Y910D01*
X1334Y910D02*
X1354Y910D01*
X1466Y910D02*
X1486Y910D01*
X1534Y910D02*
X1554Y910D01*
X1566Y910D02*
X1586Y910D01*
X1634Y910D02*
X1654Y910D01*
X1766Y910D02*
X1786Y910D01*
X1834Y910D02*
X1854Y910D01*
X1866Y910D02*
X1886Y910D01*
X1934Y910D02*
X1954Y910D01*
X1966Y910D02*
X1985Y910D01*
X2034Y910D02*
X2054Y910D01*
X2166Y910D02*
X2185Y910D01*
X2234Y910D02*
X2254Y910D01*
X2266Y910D02*
X2285Y910D01*
X2334Y910D02*
X2354Y910D01*
X2366Y910D02*
X2385Y910D01*
X2434Y910D02*
X2454Y910D01*
X2466Y910D02*
X2485Y910D01*
X2534Y910D02*
X2554Y910D01*
X2566Y910D02*
X2585Y910D01*
X2634Y910D02*
X2654Y910D01*
X2666Y910D02*
X2685Y910D01*
X2734Y910D02*
X2754Y910D01*
X2866Y910D02*
X2885Y910D01*
X2934Y910D02*
X2954Y910D01*
X2966Y910D02*
X2985Y910D01*
X3034Y910D02*
X3054Y910D01*
X3166Y910D02*
X3185Y910D01*
X3234Y910D02*
X3254Y910D01*
X3266Y910D02*
X3285Y910D01*
X3334Y910D02*
X3354Y910D01*
X3366Y910D02*
X3385Y910D01*
X3434Y910D02*
X3454Y910D01*
X3566Y910D02*
X3585Y910D01*
X3634Y910D02*
X3654Y910D01*
X3665Y910D02*
X3685Y910D01*
X3734Y910D02*
X3754Y910D01*
X3765Y910D02*
X3785Y910D01*
X3834Y910D02*
X3854Y910D01*
X3865Y910D02*
X3885Y910D01*
X3934Y910D02*
X3954Y910D01*
X3965Y910D02*
X3985Y910D01*
X4034Y910D02*
X4054Y910D01*
X4065Y910D02*
X4085Y910D01*
X4134Y910D02*
X4154Y910D01*
X4265Y910D02*
X4285Y910D01*
X4334Y910D02*
X4354Y910D01*
X4365Y910D02*
X4385Y910D01*
X4434Y910D02*
X4454Y910D01*
X366Y909D02*
X385Y909D01*
X435Y909D02*
X455Y909D01*
X466Y909D02*
X485Y909D01*
X535Y909D02*
X555Y909D01*
X566Y909D02*
X585Y909D01*
X635Y909D02*
X655Y909D01*
X766Y909D02*
X785Y909D01*
X835Y909D02*
X855Y909D01*
X866Y909D02*
X885Y909D01*
X935Y909D02*
X955Y909D01*
X966Y909D02*
X985Y909D01*
X1035Y909D02*
X1055Y909D01*
X1066Y909D02*
X1085Y909D01*
X1135Y909D02*
X1155Y909D01*
X1166Y909D02*
X1185Y909D01*
X1235Y909D02*
X1255Y909D01*
X1266Y909D02*
X1285Y909D01*
X1335Y909D02*
X1355Y909D01*
X1466Y909D02*
X1485Y909D01*
X1535Y909D02*
X1555Y909D01*
X1566Y909D02*
X1585Y909D01*
X1635Y909D02*
X1655Y909D01*
X1765Y909D02*
X1785Y909D01*
X1835Y909D02*
X1855Y909D01*
X1865Y909D02*
X1885Y909D01*
X1935Y909D02*
X1955Y909D01*
X1965Y909D02*
X1985Y909D01*
X2035Y909D02*
X2054Y909D01*
X2165Y909D02*
X2185Y909D01*
X2235Y909D02*
X2254Y909D01*
X2265Y909D02*
X2285Y909D01*
X2335Y909D02*
X2354Y909D01*
X2365Y909D02*
X2385Y909D01*
X2435Y909D02*
X2454Y909D01*
X2465Y909D02*
X2485Y909D01*
X2535Y909D02*
X2554Y909D01*
X2565Y909D02*
X2585Y909D01*
X2635Y909D02*
X2654Y909D01*
X2665Y909D02*
X2685Y909D01*
X2735Y909D02*
X2754Y909D01*
X2865Y909D02*
X2885Y909D01*
X2935Y909D02*
X2954Y909D01*
X2965Y909D02*
X2985Y909D01*
X3035Y909D02*
X3054Y909D01*
X3165Y909D02*
X3185Y909D01*
X3235Y909D02*
X3254Y909D01*
X3265Y909D02*
X3285Y909D01*
X3335Y909D02*
X3354Y909D01*
X3365Y909D02*
X3385Y909D01*
X3435Y909D02*
X3454Y909D01*
X3565Y909D02*
X3585Y909D01*
X3635Y909D02*
X3654Y909D01*
X3665Y909D02*
X3685Y909D01*
X3735Y909D02*
X3754Y909D01*
X3765Y909D02*
X3785Y909D01*
X3835Y909D02*
X3854Y909D01*
X3865Y909D02*
X3885Y909D01*
X3935Y909D02*
X3954Y909D01*
X3965Y909D02*
X3985Y909D01*
X4035Y909D02*
X4054Y909D01*
X4065Y909D02*
X4085Y909D01*
X4135Y909D02*
X4154Y909D01*
X4265Y909D02*
X4285Y909D01*
X4335Y909D02*
X4354Y909D01*
X4365Y909D02*
X4385Y909D01*
X4435Y909D02*
X4454Y909D01*
X365Y908D02*
X385Y908D01*
X436Y908D02*
X455Y908D01*
X465Y908D02*
X485Y908D01*
X536Y908D02*
X555Y908D01*
X565Y908D02*
X585Y908D01*
X636Y908D02*
X655Y908D01*
X765Y908D02*
X785Y908D01*
X836Y908D02*
X855Y908D01*
X865Y908D02*
X885Y908D01*
X936Y908D02*
X955Y908D01*
X965Y908D02*
X985Y908D01*
X1036Y908D02*
X1055Y908D01*
X1065Y908D02*
X1085Y908D01*
X1136Y908D02*
X1155Y908D01*
X1165Y908D02*
X1185Y908D01*
X1236Y908D02*
X1255Y908D01*
X1265Y908D02*
X1285Y908D01*
X1335Y908D02*
X1355Y908D01*
X1465Y908D02*
X1485Y908D01*
X1535Y908D02*
X1555Y908D01*
X1565Y908D02*
X1585Y908D01*
X1635Y908D02*
X1655Y908D01*
X1765Y908D02*
X1785Y908D01*
X1835Y908D02*
X1855Y908D01*
X1865Y908D02*
X1885Y908D01*
X1935Y908D02*
X1955Y908D01*
X1965Y908D02*
X1984Y908D01*
X2035Y908D02*
X2055Y908D01*
X2165Y908D02*
X2184Y908D01*
X2235Y908D02*
X2255Y908D01*
X2265Y908D02*
X2284Y908D01*
X2335Y908D02*
X2355Y908D01*
X2365Y908D02*
X2384Y908D01*
X2435Y908D02*
X2455Y908D01*
X2465Y908D02*
X2484Y908D01*
X2535Y908D02*
X2555Y908D01*
X2565Y908D02*
X2584Y908D01*
X2635Y908D02*
X2655Y908D01*
X2665Y908D02*
X2684Y908D01*
X2735Y908D02*
X2755Y908D01*
X2865Y908D02*
X2884Y908D01*
X2935Y908D02*
X2955Y908D01*
X2965Y908D02*
X2984Y908D01*
X3035Y908D02*
X3055Y908D01*
X3165Y908D02*
X3184Y908D01*
X3235Y908D02*
X3255Y908D01*
X3265Y908D02*
X3284Y908D01*
X3335Y908D02*
X3355Y908D01*
X3365Y908D02*
X3384Y908D01*
X3435Y908D02*
X3455Y908D01*
X3565Y908D02*
X3584Y908D01*
X3635Y908D02*
X3655Y908D01*
X3665Y908D02*
X3684Y908D01*
X3735Y908D02*
X3755Y908D01*
X3765Y908D02*
X3784Y908D01*
X3835Y908D02*
X3855Y908D01*
X3865Y908D02*
X3884Y908D01*
X3935Y908D02*
X3954Y908D01*
X3965Y908D02*
X3984Y908D01*
X4035Y908D02*
X4054Y908D01*
X4065Y908D02*
X4084Y908D01*
X4135Y908D02*
X4154Y908D01*
X4265Y908D02*
X4284Y908D01*
X4335Y908D02*
X4354Y908D01*
X4365Y908D02*
X4384Y908D01*
X4435Y908D02*
X4454Y908D01*
X365Y907D02*
X384Y907D01*
X436Y907D02*
X455Y907D01*
X465Y907D02*
X484Y907D01*
X536Y907D02*
X555Y907D01*
X565Y907D02*
X584Y907D01*
X636Y907D02*
X655Y907D01*
X765Y907D02*
X784Y907D01*
X836Y907D02*
X855Y907D01*
X865Y907D02*
X884Y907D01*
X936Y907D02*
X955Y907D01*
X965Y907D02*
X984Y907D01*
X1036Y907D02*
X1055Y907D01*
X1065Y907D02*
X1084Y907D01*
X1136Y907D02*
X1155Y907D01*
X1165Y907D02*
X1184Y907D01*
X1236Y907D02*
X1255Y907D01*
X1265Y907D02*
X1284Y907D01*
X1336Y907D02*
X1355Y907D01*
X1465Y907D02*
X1484Y907D01*
X1536Y907D02*
X1555Y907D01*
X1565Y907D02*
X1584Y907D01*
X1636Y907D02*
X1655Y907D01*
X1765Y907D02*
X1784Y907D01*
X1836Y907D02*
X1855Y907D01*
X1865Y907D02*
X1884Y907D01*
X1936Y907D02*
X1955Y907D01*
X1965Y907D02*
X1984Y907D01*
X2036Y907D02*
X2055Y907D01*
X2165Y907D02*
X2184Y907D01*
X2236Y907D02*
X2255Y907D01*
X2265Y907D02*
X2284Y907D01*
X2336Y907D02*
X2355Y907D01*
X2365Y907D02*
X2384Y907D01*
X2436Y907D02*
X2455Y907D01*
X2465Y907D02*
X2484Y907D01*
X2536Y907D02*
X2555Y907D01*
X2565Y907D02*
X2584Y907D01*
X2636Y907D02*
X2655Y907D01*
X2665Y907D02*
X2684Y907D01*
X2736Y907D02*
X2755Y907D01*
X2865Y907D02*
X2884Y907D01*
X2936Y907D02*
X2955Y907D01*
X2965Y907D02*
X2984Y907D01*
X3036Y907D02*
X3055Y907D01*
X3165Y907D02*
X3184Y907D01*
X3236Y907D02*
X3255Y907D01*
X3265Y907D02*
X3284Y907D01*
X3336Y907D02*
X3355Y907D01*
X3365Y907D02*
X3384Y907D01*
X3436Y907D02*
X3455Y907D01*
X3565Y907D02*
X3584Y907D01*
X3636Y907D02*
X3655Y907D01*
X3665Y907D02*
X3684Y907D01*
X3736Y907D02*
X3755Y907D01*
X3765Y907D02*
X3784Y907D01*
X3836Y907D02*
X3855Y907D01*
X3865Y907D02*
X3884Y907D01*
X3936Y907D02*
X3955Y907D01*
X3965Y907D02*
X3984Y907D01*
X4036Y907D02*
X4055Y907D01*
X4065Y907D02*
X4084Y907D01*
X4136Y907D02*
X4155Y907D01*
X4265Y907D02*
X4284Y907D01*
X4336Y907D02*
X4355Y907D01*
X4365Y907D02*
X4384Y907D01*
X4436Y907D02*
X4455Y907D01*
X365Y906D02*
X384Y906D01*
X436Y906D02*
X455Y906D01*
X465Y906D02*
X484Y906D01*
X536Y906D02*
X555Y906D01*
X565Y906D02*
X584Y906D01*
X636Y906D02*
X655Y906D01*
X765Y906D02*
X784Y906D01*
X836Y906D02*
X855Y906D01*
X865Y906D02*
X884Y906D01*
X936Y906D02*
X955Y906D01*
X965Y906D02*
X984Y906D01*
X1036Y906D02*
X1055Y906D01*
X1065Y906D02*
X1084Y906D01*
X1136Y906D02*
X1155Y906D01*
X1165Y906D02*
X1184Y906D01*
X1236Y906D02*
X1255Y906D01*
X1265Y906D02*
X1284Y906D01*
X1336Y906D02*
X1355Y906D01*
X1465Y906D02*
X1484Y906D01*
X1536Y906D02*
X1555Y906D01*
X1565Y906D02*
X1584Y906D01*
X1636Y906D02*
X1655Y906D01*
X1765Y906D02*
X1784Y906D01*
X1836Y906D02*
X1855Y906D01*
X1865Y906D02*
X1884Y906D01*
X1936Y906D02*
X1955Y906D01*
X1965Y906D02*
X1984Y906D01*
X2036Y906D02*
X2055Y906D01*
X2165Y906D02*
X2184Y906D01*
X2236Y906D02*
X2255Y906D01*
X2265Y906D02*
X2284Y906D01*
X2336Y906D02*
X2355Y906D01*
X2365Y906D02*
X2384Y906D01*
X2436Y906D02*
X2455Y906D01*
X2465Y906D02*
X2484Y906D01*
X2536Y906D02*
X2555Y906D01*
X2565Y906D02*
X2584Y906D01*
X2636Y906D02*
X2655Y906D01*
X2665Y906D02*
X2684Y906D01*
X2736Y906D02*
X2755Y906D01*
X2865Y906D02*
X2884Y906D01*
X2936Y906D02*
X2955Y906D01*
X2965Y906D02*
X2984Y906D01*
X3036Y906D02*
X3055Y906D01*
X3165Y906D02*
X3184Y906D01*
X3236Y906D02*
X3255Y906D01*
X3265Y906D02*
X3284Y906D01*
X3336Y906D02*
X3355Y906D01*
X3364Y906D02*
X3384Y906D01*
X3436Y906D02*
X3455Y906D01*
X3564Y906D02*
X3584Y906D01*
X3636Y906D02*
X3655Y906D01*
X3664Y906D02*
X3684Y906D01*
X3736Y906D02*
X3755Y906D01*
X3764Y906D02*
X3784Y906D01*
X3836Y906D02*
X3855Y906D01*
X3864Y906D02*
X3884Y906D01*
X3936Y906D02*
X3955Y906D01*
X3964Y906D02*
X3983Y906D01*
X4036Y906D02*
X4055Y906D01*
X4064Y906D02*
X4083Y906D01*
X4136Y906D02*
X4155Y906D01*
X4264Y906D02*
X4283Y906D01*
X4336Y906D02*
X4355Y906D01*
X4364Y906D02*
X4383Y906D01*
X4436Y906D02*
X4455Y906D01*
X365Y905D02*
X384Y905D01*
X437Y905D02*
X456Y905D01*
X465Y905D02*
X484Y905D01*
X537Y905D02*
X556Y905D01*
X565Y905D02*
X584Y905D01*
X637Y905D02*
X656Y905D01*
X765Y905D02*
X784Y905D01*
X837Y905D02*
X856Y905D01*
X865Y905D02*
X884Y905D01*
X937Y905D02*
X956Y905D01*
X965Y905D02*
X984Y905D01*
X1037Y905D02*
X1056Y905D01*
X1065Y905D02*
X1084Y905D01*
X1137Y905D02*
X1155Y905D01*
X1165Y905D02*
X1184Y905D01*
X1237Y905D02*
X1255Y905D01*
X1265Y905D02*
X1283Y905D01*
X1337Y905D02*
X1355Y905D01*
X1465Y905D02*
X1483Y905D01*
X1537Y905D02*
X1555Y905D01*
X1565Y905D02*
X1583Y905D01*
X1637Y905D02*
X1655Y905D01*
X1765Y905D02*
X1783Y905D01*
X1837Y905D02*
X1855Y905D01*
X1865Y905D02*
X1883Y905D01*
X1937Y905D02*
X1955Y905D01*
X1964Y905D02*
X1983Y905D01*
X2037Y905D02*
X2055Y905D01*
X2164Y905D02*
X2183Y905D01*
X2236Y905D02*
X2255Y905D01*
X2264Y905D02*
X2283Y905D01*
X2336Y905D02*
X2355Y905D01*
X2364Y905D02*
X2383Y905D01*
X2436Y905D02*
X2455Y905D01*
X2464Y905D02*
X2483Y905D01*
X2536Y905D02*
X2555Y905D01*
X2564Y905D02*
X2583Y905D01*
X2636Y905D02*
X2655Y905D01*
X2664Y905D02*
X2683Y905D01*
X2736Y905D02*
X2755Y905D01*
X2864Y905D02*
X2883Y905D01*
X2936Y905D02*
X2955Y905D01*
X2964Y905D02*
X2983Y905D01*
X3036Y905D02*
X3055Y905D01*
X3164Y905D02*
X3183Y905D01*
X3236Y905D02*
X3255Y905D01*
X3264Y905D02*
X3283Y905D01*
X3336Y905D02*
X3355Y905D01*
X3364Y905D02*
X3383Y905D01*
X3436Y905D02*
X3455Y905D01*
X3564Y905D02*
X3583Y905D01*
X3636Y905D02*
X3655Y905D01*
X3664Y905D02*
X3683Y905D01*
X3736Y905D02*
X3755Y905D01*
X3764Y905D02*
X3783Y905D01*
X3836Y905D02*
X3855Y905D01*
X3864Y905D02*
X3883Y905D01*
X3936Y905D02*
X3955Y905D01*
X3964Y905D02*
X3983Y905D01*
X4036Y905D02*
X4055Y905D01*
X4064Y905D02*
X4083Y905D01*
X4136Y905D02*
X4155Y905D01*
X4264Y905D02*
X4283Y905D01*
X4336Y905D02*
X4355Y905D01*
X4364Y905D02*
X4383Y905D01*
X4436Y905D02*
X4455Y905D01*
X365Y904D02*
X383Y904D01*
X437Y904D02*
X456Y904D01*
X465Y904D02*
X483Y904D01*
X537Y904D02*
X556Y904D01*
X565Y904D02*
X583Y904D01*
X637Y904D02*
X656Y904D01*
X764Y904D02*
X783Y904D01*
X837Y904D02*
X856Y904D01*
X864Y904D02*
X883Y904D01*
X937Y904D02*
X956Y904D01*
X964Y904D02*
X983Y904D01*
X1037Y904D02*
X1056Y904D01*
X1064Y904D02*
X1083Y904D01*
X1137Y904D02*
X1156Y904D01*
X1164Y904D02*
X1183Y904D01*
X1237Y904D02*
X1256Y904D01*
X1264Y904D02*
X1283Y904D01*
X1337Y904D02*
X1356Y904D01*
X1464Y904D02*
X1483Y904D01*
X1537Y904D02*
X1556Y904D01*
X1564Y904D02*
X1583Y904D01*
X1637Y904D02*
X1656Y904D01*
X1764Y904D02*
X1783Y904D01*
X1837Y904D02*
X1856Y904D01*
X1864Y904D02*
X1883Y904D01*
X1937Y904D02*
X1956Y904D01*
X1964Y904D02*
X1983Y904D01*
X2037Y904D02*
X2056Y904D01*
X2164Y904D02*
X2183Y904D01*
X2237Y904D02*
X2256Y904D01*
X2264Y904D02*
X2283Y904D01*
X2337Y904D02*
X2356Y904D01*
X2364Y904D02*
X2383Y904D01*
X2437Y904D02*
X2456Y904D01*
X2464Y904D02*
X2483Y904D01*
X2537Y904D02*
X2555Y904D01*
X2564Y904D02*
X2583Y904D01*
X2637Y904D02*
X2655Y904D01*
X2664Y904D02*
X2683Y904D01*
X2737Y904D02*
X2755Y904D01*
X2864Y904D02*
X2883Y904D01*
X2937Y904D02*
X2955Y904D01*
X2964Y904D02*
X2983Y904D01*
X3037Y904D02*
X3055Y904D01*
X3164Y904D02*
X3183Y904D01*
X3237Y904D02*
X3255Y904D01*
X3264Y904D02*
X3283Y904D01*
X3337Y904D02*
X3355Y904D01*
X3364Y904D02*
X3383Y904D01*
X3437Y904D02*
X3455Y904D01*
X3564Y904D02*
X3583Y904D01*
X3637Y904D02*
X3655Y904D01*
X3664Y904D02*
X3683Y904D01*
X3737Y904D02*
X3755Y904D01*
X3764Y904D02*
X3783Y904D01*
X3837Y904D02*
X3855Y904D01*
X3864Y904D02*
X3883Y904D01*
X3936Y904D02*
X3955Y904D01*
X3964Y904D02*
X3983Y904D01*
X4036Y904D02*
X4055Y904D01*
X4064Y904D02*
X4083Y904D01*
X4136Y904D02*
X4155Y904D01*
X4264Y904D02*
X4283Y904D01*
X4336Y904D02*
X4355Y904D01*
X4364Y904D02*
X4383Y904D01*
X4436Y904D02*
X4455Y904D01*
X364Y903D02*
X383Y903D01*
X437Y903D02*
X456Y903D01*
X464Y903D02*
X483Y903D01*
X537Y903D02*
X556Y903D01*
X564Y903D02*
X583Y903D01*
X637Y903D02*
X656Y903D01*
X764Y903D02*
X783Y903D01*
X837Y903D02*
X856Y903D01*
X864Y903D02*
X883Y903D01*
X937Y903D02*
X956Y903D01*
X964Y903D02*
X983Y903D01*
X1037Y903D02*
X1056Y903D01*
X1064Y903D02*
X1083Y903D01*
X1137Y903D02*
X1156Y903D01*
X1164Y903D02*
X1183Y903D01*
X1237Y903D02*
X1256Y903D01*
X1264Y903D02*
X1283Y903D01*
X1337Y903D02*
X1356Y903D01*
X1464Y903D02*
X1483Y903D01*
X1537Y903D02*
X1556Y903D01*
X1564Y903D02*
X1583Y903D01*
X1637Y903D02*
X1656Y903D01*
X1764Y903D02*
X1783Y903D01*
X1837Y903D02*
X1856Y903D01*
X1864Y903D02*
X1883Y903D01*
X1937Y903D02*
X1956Y903D01*
X1964Y903D02*
X1983Y903D01*
X2037Y903D02*
X2056Y903D01*
X2164Y903D02*
X2183Y903D01*
X2237Y903D02*
X2256Y903D01*
X2264Y903D02*
X2283Y903D01*
X2337Y903D02*
X2356Y903D01*
X2364Y903D02*
X2383Y903D01*
X2437Y903D02*
X2456Y903D01*
X2464Y903D02*
X2483Y903D01*
X2537Y903D02*
X2556Y903D01*
X2564Y903D02*
X2583Y903D01*
X2637Y903D02*
X2656Y903D01*
X2664Y903D02*
X2683Y903D01*
X2737Y903D02*
X2756Y903D01*
X2864Y903D02*
X2883Y903D01*
X2937Y903D02*
X2956Y903D01*
X2964Y903D02*
X2983Y903D01*
X3037Y903D02*
X3056Y903D01*
X3164Y903D02*
X3183Y903D01*
X3237Y903D02*
X3256Y903D01*
X3264Y903D02*
X3283Y903D01*
X3337Y903D02*
X3356Y903D01*
X3364Y903D02*
X3383Y903D01*
X3437Y903D02*
X3456Y903D01*
X3564Y903D02*
X3583Y903D01*
X3637Y903D02*
X3656Y903D01*
X3664Y903D02*
X3683Y903D01*
X3737Y903D02*
X3756Y903D01*
X3764Y903D02*
X3783Y903D01*
X3837Y903D02*
X3856Y903D01*
X3864Y903D02*
X3883Y903D01*
X3937Y903D02*
X3955Y903D01*
X3964Y903D02*
X3983Y903D01*
X4037Y903D02*
X4055Y903D01*
X4064Y903D02*
X4083Y903D01*
X4137Y903D02*
X4155Y903D01*
X4264Y903D02*
X4283Y903D01*
X4337Y903D02*
X4355Y903D01*
X4364Y903D02*
X4383Y903D01*
X4437Y903D02*
X4455Y903D01*
X364Y902D02*
X383Y902D01*
X437Y902D02*
X456Y902D01*
X464Y902D02*
X483Y902D01*
X537Y902D02*
X556Y902D01*
X564Y902D02*
X583Y902D01*
X637Y902D02*
X656Y902D01*
X764Y902D02*
X783Y902D01*
X837Y902D02*
X856Y902D01*
X864Y902D02*
X883Y902D01*
X937Y902D02*
X956Y902D01*
X964Y902D02*
X983Y902D01*
X1037Y902D02*
X1056Y902D01*
X1064Y902D02*
X1083Y902D01*
X1137Y902D02*
X1156Y902D01*
X1164Y902D02*
X1183Y902D01*
X1237Y902D02*
X1256Y902D01*
X1264Y902D02*
X1283Y902D01*
X1337Y902D02*
X1356Y902D01*
X1464Y902D02*
X1483Y902D01*
X1537Y902D02*
X1556Y902D01*
X1564Y902D02*
X1583Y902D01*
X1637Y902D02*
X1656Y902D01*
X1764Y902D02*
X1783Y902D01*
X1837Y902D02*
X1856Y902D01*
X1864Y902D02*
X1883Y902D01*
X1937Y902D02*
X1956Y902D01*
X1964Y902D02*
X1983Y902D01*
X2037Y902D02*
X2056Y902D01*
X2164Y902D02*
X2183Y902D01*
X2237Y902D02*
X2256Y902D01*
X2264Y902D02*
X2283Y902D01*
X2337Y902D02*
X2356Y902D01*
X2364Y902D02*
X2383Y902D01*
X2437Y902D02*
X2456Y902D01*
X2464Y902D02*
X2483Y902D01*
X2537Y902D02*
X2556Y902D01*
X2564Y902D02*
X2583Y902D01*
X2637Y902D02*
X2656Y902D01*
X2664Y902D02*
X2683Y902D01*
X2737Y902D02*
X2756Y902D01*
X2864Y902D02*
X2883Y902D01*
X2937Y902D02*
X2956Y902D01*
X2964Y902D02*
X2983Y902D01*
X3037Y902D02*
X3056Y902D01*
X3164Y902D02*
X3183Y902D01*
X3237Y902D02*
X3256Y902D01*
X3264Y902D02*
X3283Y902D01*
X3337Y902D02*
X3356Y902D01*
X3364Y902D02*
X3383Y902D01*
X3437Y902D02*
X3456Y902D01*
X3564Y902D02*
X3583Y902D01*
X3637Y902D02*
X3656Y902D01*
X3664Y902D02*
X3683Y902D01*
X3737Y902D02*
X3756Y902D01*
X3764Y902D02*
X3783Y902D01*
X3837Y902D02*
X3856Y902D01*
X3864Y902D02*
X3883Y902D01*
X3937Y902D02*
X3956Y902D01*
X3964Y902D02*
X3983Y902D01*
X4037Y902D02*
X4056Y902D01*
X4064Y902D02*
X4083Y902D01*
X4137Y902D02*
X4156Y902D01*
X4264Y902D02*
X4283Y902D01*
X4337Y902D02*
X4356Y902D01*
X4364Y902D02*
X4382Y902D01*
X4437Y902D02*
X4456Y902D01*
X364Y901D02*
X383Y901D01*
X437Y901D02*
X456Y901D01*
X464Y901D02*
X483Y901D01*
X537Y901D02*
X556Y901D01*
X564Y901D02*
X583Y901D01*
X637Y901D02*
X656Y901D01*
X764Y901D02*
X783Y901D01*
X837Y901D02*
X856Y901D01*
X864Y901D02*
X883Y901D01*
X937Y901D02*
X956Y901D01*
X964Y901D02*
X983Y901D01*
X1037Y901D02*
X1056Y901D01*
X1064Y901D02*
X1083Y901D01*
X1137Y901D02*
X1156Y901D01*
X1164Y901D02*
X1183Y901D01*
X1237Y901D02*
X1256Y901D01*
X1264Y901D02*
X1283Y901D01*
X1337Y901D02*
X1356Y901D01*
X1464Y901D02*
X1483Y901D01*
X1537Y901D02*
X1556Y901D01*
X1564Y901D02*
X1583Y901D01*
X1637Y901D02*
X1656Y901D01*
X1764Y901D02*
X1783Y901D01*
X1837Y901D02*
X1856Y901D01*
X1864Y901D02*
X1883Y901D01*
X1937Y901D02*
X1956Y901D01*
X1964Y901D02*
X1983Y901D01*
X2037Y901D02*
X2056Y901D01*
X2164Y901D02*
X2183Y901D01*
X2237Y901D02*
X2256Y901D01*
X2264Y901D02*
X2283Y901D01*
X2337Y901D02*
X2356Y901D01*
X2364Y901D02*
X2383Y901D01*
X2437Y901D02*
X2456Y901D01*
X2464Y901D02*
X2483Y901D01*
X2537Y901D02*
X2556Y901D01*
X2564Y901D02*
X2583Y901D01*
X2637Y901D02*
X2656Y901D01*
X2664Y901D02*
X2683Y901D01*
X2737Y901D02*
X2756Y901D01*
X2864Y901D02*
X2883Y901D01*
X2937Y901D02*
X2956Y901D01*
X2964Y901D02*
X2983Y901D01*
X3037Y901D02*
X3056Y901D01*
X3164Y901D02*
X3182Y901D01*
X3237Y901D02*
X3256Y901D01*
X3264Y901D02*
X3282Y901D01*
X3337Y901D02*
X3356Y901D01*
X3364Y901D02*
X3382Y901D01*
X3437Y901D02*
X3456Y901D01*
X3564Y901D02*
X3582Y901D01*
X3637Y901D02*
X3656Y901D01*
X3664Y901D02*
X3682Y901D01*
X3737Y901D02*
X3756Y901D01*
X3764Y901D02*
X3782Y901D01*
X3837Y901D02*
X3856Y901D01*
X3864Y901D02*
X3882Y901D01*
X3937Y901D02*
X3956Y901D01*
X3964Y901D02*
X3982Y901D01*
X4037Y901D02*
X4056Y901D01*
X4064Y901D02*
X4082Y901D01*
X4137Y901D02*
X4156Y901D01*
X4264Y901D02*
X4282Y901D01*
X4337Y901D02*
X4356Y901D01*
X4364Y901D02*
X4382Y901D01*
X4437Y901D02*
X4456Y901D01*
X364Y900D02*
X383Y900D01*
X438Y900D02*
X456Y900D01*
X464Y900D02*
X483Y900D01*
X538Y900D02*
X556Y900D01*
X564Y900D02*
X583Y900D01*
X638Y900D02*
X656Y900D01*
X764Y900D02*
X783Y900D01*
X838Y900D02*
X856Y900D01*
X864Y900D02*
X883Y900D01*
X938Y900D02*
X956Y900D01*
X964Y900D02*
X983Y900D01*
X1038Y900D02*
X1056Y900D01*
X1064Y900D02*
X1083Y900D01*
X1137Y900D02*
X1156Y900D01*
X1164Y900D02*
X1183Y900D01*
X1237Y900D02*
X1256Y900D01*
X1264Y900D02*
X1283Y900D01*
X1337Y900D02*
X1356Y900D01*
X1464Y900D02*
X1483Y900D01*
X1537Y900D02*
X1556Y900D01*
X1564Y900D02*
X1583Y900D01*
X1637Y900D02*
X1656Y900D01*
X1764Y900D02*
X1783Y900D01*
X1837Y900D02*
X1856Y900D01*
X1864Y900D02*
X1883Y900D01*
X1937Y900D02*
X1956Y900D01*
X1964Y900D02*
X1983Y900D01*
X2037Y900D02*
X2056Y900D01*
X2164Y900D02*
X2183Y900D01*
X2237Y900D02*
X2256Y900D01*
X2264Y900D02*
X2282Y900D01*
X2337Y900D02*
X2356Y900D01*
X2364Y900D02*
X2382Y900D01*
X2437Y900D02*
X2456Y900D01*
X2464Y900D02*
X2482Y900D01*
X2537Y900D02*
X2556Y900D01*
X2564Y900D02*
X2582Y900D01*
X2637Y900D02*
X2656Y900D01*
X2664Y900D02*
X2682Y900D01*
X2737Y900D02*
X2756Y900D01*
X2864Y900D02*
X2882Y900D01*
X2937Y900D02*
X2956Y900D01*
X2964Y900D02*
X2982Y900D01*
X3037Y900D02*
X3056Y900D01*
X3164Y900D02*
X3182Y900D01*
X3237Y900D02*
X3256Y900D01*
X3264Y900D02*
X3282Y900D01*
X3337Y900D02*
X3356Y900D01*
X3364Y900D02*
X3382Y900D01*
X3437Y900D02*
X3456Y900D01*
X3564Y900D02*
X3582Y900D01*
X3637Y900D02*
X3656Y900D01*
X3664Y900D02*
X3682Y900D01*
X3737Y900D02*
X3756Y900D01*
X3764Y900D02*
X3782Y900D01*
X3837Y900D02*
X3856Y900D01*
X3864Y900D02*
X3882Y900D01*
X3937Y900D02*
X3956Y900D01*
X3964Y900D02*
X3982Y900D01*
X4037Y900D02*
X4056Y900D01*
X4064Y900D02*
X4082Y900D01*
X4137Y900D02*
X4156Y900D01*
X4264Y900D02*
X4282Y900D01*
X4337Y900D02*
X4356Y900D01*
X4364Y900D02*
X4382Y900D01*
X4437Y900D02*
X4456Y900D01*
X364Y899D02*
X383Y899D01*
X438Y899D02*
X456Y899D01*
X464Y899D02*
X483Y899D01*
X538Y899D02*
X556Y899D01*
X564Y899D02*
X583Y899D01*
X638Y899D02*
X656Y899D01*
X764Y899D02*
X783Y899D01*
X838Y899D02*
X856Y899D01*
X864Y899D02*
X883Y899D01*
X938Y899D02*
X956Y899D01*
X964Y899D02*
X983Y899D01*
X1038Y899D02*
X1056Y899D01*
X1064Y899D02*
X1083Y899D01*
X1138Y899D02*
X1156Y899D01*
X1164Y899D02*
X1183Y899D01*
X1238Y899D02*
X1256Y899D01*
X1264Y899D02*
X1283Y899D01*
X1337Y899D02*
X1356Y899D01*
X1464Y899D02*
X1483Y899D01*
X1538Y899D02*
X1556Y899D01*
X1564Y899D02*
X1583Y899D01*
X1637Y899D02*
X1656Y899D01*
X1764Y899D02*
X1782Y899D01*
X1837Y899D02*
X1856Y899D01*
X1864Y899D02*
X1883Y899D01*
X1937Y899D02*
X1956Y899D01*
X1964Y899D02*
X1982Y899D01*
X2037Y899D02*
X2056Y899D01*
X2164Y899D02*
X2182Y899D01*
X2237Y899D02*
X2256Y899D01*
X2264Y899D02*
X2282Y899D01*
X2337Y899D02*
X2356Y899D01*
X2364Y899D02*
X2382Y899D01*
X2437Y899D02*
X2456Y899D01*
X2464Y899D02*
X2482Y899D01*
X2537Y899D02*
X2556Y899D01*
X2564Y899D02*
X2582Y899D01*
X2637Y899D02*
X2656Y899D01*
X2664Y899D02*
X2682Y899D01*
X2737Y899D02*
X2756Y899D01*
X2864Y899D02*
X2882Y899D01*
X2937Y899D02*
X2956Y899D01*
X2964Y899D02*
X2982Y899D01*
X3037Y899D02*
X3056Y899D01*
X3164Y899D02*
X3182Y899D01*
X3237Y899D02*
X3256Y899D01*
X3264Y899D02*
X3282Y899D01*
X3337Y899D02*
X3356Y899D01*
X3364Y899D02*
X3382Y899D01*
X3437Y899D02*
X3456Y899D01*
X3564Y899D02*
X3582Y899D01*
X3637Y899D02*
X3656Y899D01*
X3664Y899D02*
X3682Y899D01*
X3737Y899D02*
X3756Y899D01*
X3764Y899D02*
X3782Y899D01*
X3837Y899D02*
X3856Y899D01*
X3864Y899D02*
X3882Y899D01*
X3937Y899D02*
X3956Y899D01*
X3964Y899D02*
X3982Y899D01*
X4037Y899D02*
X4056Y899D01*
X4064Y899D02*
X4082Y899D01*
X4137Y899D02*
X4156Y899D01*
X4264Y899D02*
X4282Y899D01*
X4337Y899D02*
X4356Y899D01*
X4364Y899D02*
X4382Y899D01*
X4437Y899D02*
X4456Y899D01*
X364Y898D02*
X383Y898D01*
X438Y898D02*
X456Y898D01*
X464Y898D02*
X483Y898D01*
X538Y898D02*
X556Y898D01*
X564Y898D02*
X583Y898D01*
X638Y898D02*
X656Y898D01*
X764Y898D02*
X783Y898D01*
X838Y898D02*
X856Y898D01*
X864Y898D02*
X883Y898D01*
X938Y898D02*
X956Y898D01*
X964Y898D02*
X983Y898D01*
X1038Y898D02*
X1056Y898D01*
X1064Y898D02*
X1083Y898D01*
X1138Y898D02*
X1156Y898D01*
X1164Y898D02*
X1183Y898D01*
X1238Y898D02*
X1256Y898D01*
X1264Y898D02*
X1283Y898D01*
X1338Y898D02*
X1356Y898D01*
X1464Y898D02*
X1483Y898D01*
X1538Y898D02*
X1556Y898D01*
X1564Y898D02*
X1582Y898D01*
X1638Y898D02*
X1656Y898D01*
X1764Y898D02*
X1782Y898D01*
X1838Y898D02*
X1856Y898D01*
X1864Y898D02*
X1882Y898D01*
X1938Y898D02*
X1956Y898D01*
X1964Y898D02*
X1982Y898D01*
X2037Y898D02*
X2056Y898D01*
X2164Y898D02*
X2182Y898D01*
X2237Y898D02*
X2256Y898D01*
X2264Y898D02*
X2282Y898D01*
X2337Y898D02*
X2356Y898D01*
X2364Y898D02*
X2382Y898D01*
X2437Y898D02*
X2456Y898D01*
X2464Y898D02*
X2482Y898D01*
X2537Y898D02*
X2556Y898D01*
X2564Y898D02*
X2582Y898D01*
X2637Y898D02*
X2656Y898D01*
X2664Y898D02*
X2682Y898D01*
X2737Y898D02*
X2756Y898D01*
X2864Y898D02*
X2882Y898D01*
X2937Y898D02*
X2956Y898D01*
X2964Y898D02*
X2982Y898D01*
X3037Y898D02*
X3056Y898D01*
X3164Y898D02*
X3182Y898D01*
X3237Y898D02*
X3256Y898D01*
X3264Y898D02*
X3282Y898D01*
X3337Y898D02*
X3356Y898D01*
X3364Y898D02*
X3382Y898D01*
X3437Y898D02*
X3456Y898D01*
X3564Y898D02*
X3582Y898D01*
X3637Y898D02*
X3656Y898D01*
X3664Y898D02*
X3682Y898D01*
X3737Y898D02*
X3756Y898D01*
X3764Y898D02*
X3782Y898D01*
X3837Y898D02*
X3856Y898D01*
X3864Y898D02*
X3882Y898D01*
X3937Y898D02*
X3956Y898D01*
X3964Y898D02*
X3982Y898D01*
X4037Y898D02*
X4056Y898D01*
X4063Y898D02*
X4082Y898D01*
X4137Y898D02*
X4156Y898D01*
X4263Y898D02*
X4282Y898D01*
X4337Y898D02*
X4356Y898D01*
X4363Y898D02*
X4382Y898D01*
X4437Y898D02*
X4456Y898D01*
X364Y897D02*
X383Y897D01*
X438Y897D02*
X456Y897D01*
X464Y897D02*
X483Y897D01*
X538Y897D02*
X556Y897D01*
X564Y897D02*
X583Y897D01*
X638Y897D02*
X656Y897D01*
X764Y897D02*
X783Y897D01*
X838Y897D02*
X856Y897D01*
X864Y897D02*
X883Y897D01*
X938Y897D02*
X956Y897D01*
X964Y897D02*
X983Y897D01*
X1038Y897D02*
X1056Y897D01*
X1064Y897D02*
X1083Y897D01*
X1138Y897D02*
X1156Y897D01*
X1164Y897D02*
X1182Y897D01*
X1238Y897D02*
X1256Y897D01*
X1264Y897D02*
X1282Y897D01*
X1338Y897D02*
X1356Y897D01*
X1464Y897D02*
X1482Y897D01*
X1538Y897D02*
X1556Y897D01*
X1564Y897D02*
X1582Y897D01*
X1638Y897D02*
X1656Y897D01*
X1764Y897D02*
X1782Y897D01*
X1838Y897D02*
X1856Y897D01*
X1864Y897D02*
X1882Y897D01*
X1938Y897D02*
X1956Y897D01*
X1964Y897D02*
X1982Y897D01*
X2038Y897D02*
X2056Y897D01*
X2164Y897D02*
X2182Y897D01*
X2237Y897D02*
X2256Y897D01*
X2264Y897D02*
X2282Y897D01*
X2337Y897D02*
X2356Y897D01*
X2364Y897D02*
X2382Y897D01*
X2437Y897D02*
X2456Y897D01*
X2464Y897D02*
X2482Y897D01*
X2537Y897D02*
X2556Y897D01*
X2564Y897D02*
X2582Y897D01*
X2637Y897D02*
X2656Y897D01*
X2664Y897D02*
X2682Y897D01*
X2737Y897D02*
X2756Y897D01*
X2864Y897D02*
X2882Y897D01*
X2937Y897D02*
X2956Y897D01*
X2964Y897D02*
X2982Y897D01*
X3037Y897D02*
X3056Y897D01*
X3164Y897D02*
X3182Y897D01*
X3237Y897D02*
X3256Y897D01*
X3264Y897D02*
X3282Y897D01*
X3337Y897D02*
X3356Y897D01*
X3364Y897D02*
X3382Y897D01*
X3437Y897D02*
X3456Y897D01*
X3564Y897D02*
X3582Y897D01*
X3637Y897D02*
X3656Y897D01*
X3664Y897D02*
X3682Y897D01*
X3737Y897D02*
X3756Y897D01*
X3764Y897D02*
X3782Y897D01*
X3837Y897D02*
X3856Y897D01*
X3864Y897D02*
X3882Y897D01*
X3937Y897D02*
X3956Y897D01*
X3963Y897D02*
X3982Y897D01*
X4037Y897D02*
X4056Y897D01*
X4063Y897D02*
X4082Y897D01*
X4137Y897D02*
X4156Y897D01*
X4263Y897D02*
X4282Y897D01*
X4337Y897D02*
X4356Y897D01*
X4363Y897D02*
X4382Y897D01*
X4437Y897D02*
X4456Y897D01*
X364Y896D02*
X383Y896D01*
X438Y896D02*
X456Y896D01*
X464Y896D02*
X483Y896D01*
X538Y896D02*
X556Y896D01*
X564Y896D02*
X583Y896D01*
X638Y896D02*
X656Y896D01*
X764Y896D02*
X783Y896D01*
X838Y896D02*
X856Y896D01*
X864Y896D02*
X883Y896D01*
X938Y896D02*
X956Y896D01*
X964Y896D02*
X983Y896D01*
X1038Y896D02*
X1056Y896D01*
X1064Y896D02*
X1083Y896D01*
X1138Y896D02*
X1156Y896D01*
X1164Y896D02*
X1183Y896D01*
X1238Y896D02*
X1256Y896D01*
X1264Y896D02*
X1283Y896D01*
X1338Y896D02*
X1356Y896D01*
X1464Y896D02*
X1483Y896D01*
X1538Y896D02*
X1556Y896D01*
X1564Y896D02*
X1582Y896D01*
X1638Y896D02*
X1656Y896D01*
X1764Y896D02*
X1782Y896D01*
X1837Y896D02*
X1856Y896D01*
X1864Y896D02*
X1882Y896D01*
X1937Y896D02*
X1956Y896D01*
X1964Y896D02*
X1982Y896D01*
X2037Y896D02*
X2056Y896D01*
X2164Y896D02*
X2182Y896D01*
X2237Y896D02*
X2256Y896D01*
X2264Y896D02*
X2282Y896D01*
X2337Y896D02*
X2356Y896D01*
X2364Y896D02*
X2382Y896D01*
X2437Y896D02*
X2456Y896D01*
X2464Y896D02*
X2482Y896D01*
X2537Y896D02*
X2556Y896D01*
X2564Y896D02*
X2582Y896D01*
X2637Y896D02*
X2656Y896D01*
X2664Y896D02*
X2682Y896D01*
X2737Y896D02*
X2756Y896D01*
X2864Y896D02*
X2882Y896D01*
X2937Y896D02*
X2956Y896D01*
X2964Y896D02*
X2982Y896D01*
X3037Y896D02*
X3056Y896D01*
X3164Y896D02*
X3182Y896D01*
X3237Y896D02*
X3256Y896D01*
X3264Y896D02*
X3282Y896D01*
X3337Y896D02*
X3356Y896D01*
X3364Y896D02*
X3382Y896D01*
X3437Y896D02*
X3456Y896D01*
X3564Y896D02*
X3582Y896D01*
X3637Y896D02*
X3656Y896D01*
X3664Y896D02*
X3682Y896D01*
X3737Y896D02*
X3756Y896D01*
X3764Y896D02*
X3782Y896D01*
X3837Y896D02*
X3856Y896D01*
X3864Y896D02*
X3882Y896D01*
X3937Y896D02*
X3956Y896D01*
X3964Y896D02*
X3982Y896D01*
X4037Y896D02*
X4056Y896D01*
X4063Y896D02*
X4082Y896D01*
X4137Y896D02*
X4156Y896D01*
X4264Y896D02*
X4282Y896D01*
X4337Y896D02*
X4356Y896D01*
X4363Y896D02*
X4382Y896D01*
X4437Y896D02*
X4456Y896D01*
X364Y895D02*
X383Y895D01*
X438Y895D02*
X456Y895D01*
X464Y895D02*
X483Y895D01*
X538Y895D02*
X556Y895D01*
X564Y895D02*
X583Y895D01*
X638Y895D02*
X656Y895D01*
X764Y895D02*
X783Y895D01*
X838Y895D02*
X856Y895D01*
X864Y895D02*
X883Y895D01*
X938Y895D02*
X956Y895D01*
X964Y895D02*
X983Y895D01*
X1038Y895D02*
X1056Y895D01*
X1064Y895D02*
X1083Y895D01*
X1138Y895D02*
X1156Y895D01*
X1164Y895D02*
X1183Y895D01*
X1238Y895D02*
X1256Y895D01*
X1264Y895D02*
X1283Y895D01*
X1337Y895D02*
X1356Y895D01*
X1464Y895D02*
X1483Y895D01*
X1538Y895D02*
X1556Y895D01*
X1564Y895D02*
X1583Y895D01*
X1637Y895D02*
X1656Y895D01*
X1764Y895D02*
X1783Y895D01*
X1837Y895D02*
X1856Y895D01*
X1864Y895D02*
X1883Y895D01*
X1937Y895D02*
X1956Y895D01*
X1964Y895D02*
X1982Y895D01*
X2037Y895D02*
X2056Y895D01*
X2164Y895D02*
X2182Y895D01*
X2237Y895D02*
X2256Y895D01*
X2264Y895D02*
X2282Y895D01*
X2337Y895D02*
X2356Y895D01*
X2364Y895D02*
X2382Y895D01*
X2437Y895D02*
X2456Y895D01*
X2464Y895D02*
X2482Y895D01*
X2537Y895D02*
X2556Y895D01*
X2564Y895D02*
X2582Y895D01*
X2637Y895D02*
X2656Y895D01*
X2664Y895D02*
X2682Y895D01*
X2737Y895D02*
X2756Y895D01*
X2864Y895D02*
X2882Y895D01*
X2937Y895D02*
X2956Y895D01*
X2964Y895D02*
X2982Y895D01*
X3037Y895D02*
X3056Y895D01*
X3164Y895D02*
X3182Y895D01*
X3237Y895D02*
X3256Y895D01*
X3264Y895D02*
X3282Y895D01*
X3337Y895D02*
X3356Y895D01*
X3364Y895D02*
X3382Y895D01*
X3437Y895D02*
X3456Y895D01*
X3564Y895D02*
X3582Y895D01*
X3637Y895D02*
X3656Y895D01*
X3664Y895D02*
X3682Y895D01*
X3737Y895D02*
X3756Y895D01*
X3764Y895D02*
X3782Y895D01*
X3837Y895D02*
X3856Y895D01*
X3864Y895D02*
X3882Y895D01*
X3937Y895D02*
X3956Y895D01*
X3964Y895D02*
X3982Y895D01*
X4037Y895D02*
X4056Y895D01*
X4064Y895D02*
X4082Y895D01*
X4137Y895D02*
X4156Y895D01*
X4264Y895D02*
X4282Y895D01*
X4337Y895D02*
X4356Y895D01*
X4364Y895D02*
X4382Y895D01*
X4437Y895D02*
X4456Y895D01*
X364Y894D02*
X383Y894D01*
X438Y894D02*
X456Y894D01*
X464Y894D02*
X483Y894D01*
X538Y894D02*
X556Y894D01*
X564Y894D02*
X583Y894D01*
X638Y894D02*
X656Y894D01*
X764Y894D02*
X783Y894D01*
X837Y894D02*
X856Y894D01*
X864Y894D02*
X883Y894D01*
X937Y894D02*
X956Y894D01*
X964Y894D02*
X983Y894D01*
X1037Y894D02*
X1056Y894D01*
X1064Y894D02*
X1083Y894D01*
X1137Y894D02*
X1156Y894D01*
X1164Y894D02*
X1183Y894D01*
X1237Y894D02*
X1256Y894D01*
X1264Y894D02*
X1283Y894D01*
X1337Y894D02*
X1356Y894D01*
X1464Y894D02*
X1483Y894D01*
X1537Y894D02*
X1556Y894D01*
X1564Y894D02*
X1583Y894D01*
X1637Y894D02*
X1656Y894D01*
X1764Y894D02*
X1783Y894D01*
X1837Y894D02*
X1856Y894D01*
X1864Y894D02*
X1883Y894D01*
X1937Y894D02*
X1956Y894D01*
X1964Y894D02*
X1983Y894D01*
X2037Y894D02*
X2056Y894D01*
X2164Y894D02*
X2183Y894D01*
X2237Y894D02*
X2256Y894D01*
X2264Y894D02*
X2283Y894D01*
X2337Y894D02*
X2356Y894D01*
X2364Y894D02*
X2383Y894D01*
X2437Y894D02*
X2456Y894D01*
X2464Y894D02*
X2483Y894D01*
X2537Y894D02*
X2556Y894D01*
X2564Y894D02*
X2582Y894D01*
X2637Y894D02*
X2656Y894D01*
X2664Y894D02*
X2682Y894D01*
X2737Y894D02*
X2756Y894D01*
X2864Y894D02*
X2882Y894D01*
X2937Y894D02*
X2956Y894D01*
X2964Y894D02*
X2982Y894D01*
X3037Y894D02*
X3056Y894D01*
X3164Y894D02*
X3182Y894D01*
X3237Y894D02*
X3256Y894D01*
X3264Y894D02*
X3282Y894D01*
X3337Y894D02*
X3356Y894D01*
X3364Y894D02*
X3382Y894D01*
X3437Y894D02*
X3456Y894D01*
X3564Y894D02*
X3582Y894D01*
X3637Y894D02*
X3656Y894D01*
X3664Y894D02*
X3682Y894D01*
X3737Y894D02*
X3756Y894D01*
X3764Y894D02*
X3782Y894D01*
X3837Y894D02*
X3856Y894D01*
X3864Y894D02*
X3882Y894D01*
X3937Y894D02*
X3956Y894D01*
X3964Y894D02*
X3982Y894D01*
X4037Y894D02*
X4056Y894D01*
X4064Y894D02*
X4082Y894D01*
X4137Y894D02*
X4156Y894D01*
X4264Y894D02*
X4282Y894D01*
X4337Y894D02*
X4356Y894D01*
X4364Y894D02*
X4382Y894D01*
X4437Y894D02*
X4456Y894D01*
X364Y893D02*
X383Y893D01*
X437Y893D02*
X456Y893D01*
X464Y893D02*
X483Y893D01*
X537Y893D02*
X556Y893D01*
X564Y893D02*
X583Y893D01*
X637Y893D02*
X656Y893D01*
X764Y893D02*
X783Y893D01*
X837Y893D02*
X856Y893D01*
X864Y893D02*
X883Y893D01*
X937Y893D02*
X956Y893D01*
X964Y893D02*
X983Y893D01*
X1037Y893D02*
X1056Y893D01*
X1064Y893D02*
X1083Y893D01*
X1137Y893D02*
X1156Y893D01*
X1164Y893D02*
X1183Y893D01*
X1237Y893D02*
X1256Y893D01*
X1264Y893D02*
X1283Y893D01*
X1337Y893D02*
X1356Y893D01*
X1464Y893D02*
X1483Y893D01*
X1537Y893D02*
X1556Y893D01*
X1564Y893D02*
X1583Y893D01*
X1637Y893D02*
X1656Y893D01*
X1764Y893D02*
X1783Y893D01*
X1837Y893D02*
X1856Y893D01*
X1864Y893D02*
X1883Y893D01*
X1937Y893D02*
X1956Y893D01*
X1964Y893D02*
X1983Y893D01*
X2037Y893D02*
X2056Y893D01*
X2164Y893D02*
X2183Y893D01*
X2237Y893D02*
X2256Y893D01*
X2264Y893D02*
X2283Y893D01*
X2337Y893D02*
X2356Y893D01*
X2364Y893D02*
X2383Y893D01*
X2437Y893D02*
X2456Y893D01*
X2464Y893D02*
X2483Y893D01*
X2537Y893D02*
X2556Y893D01*
X2564Y893D02*
X2583Y893D01*
X2637Y893D02*
X2656Y893D01*
X2664Y893D02*
X2683Y893D01*
X2737Y893D02*
X2756Y893D01*
X2864Y893D02*
X2883Y893D01*
X2937Y893D02*
X2956Y893D01*
X2964Y893D02*
X2983Y893D01*
X3037Y893D02*
X3056Y893D01*
X3164Y893D02*
X3183Y893D01*
X3237Y893D02*
X3256Y893D01*
X3264Y893D02*
X3283Y893D01*
X3337Y893D02*
X3356Y893D01*
X3364Y893D02*
X3382Y893D01*
X3437Y893D02*
X3456Y893D01*
X3564Y893D02*
X3582Y893D01*
X3637Y893D02*
X3656Y893D01*
X3664Y893D02*
X3682Y893D01*
X3737Y893D02*
X3756Y893D01*
X3764Y893D02*
X3782Y893D01*
X3837Y893D02*
X3856Y893D01*
X3864Y893D02*
X3882Y893D01*
X3937Y893D02*
X3956Y893D01*
X3964Y893D02*
X3982Y893D01*
X4037Y893D02*
X4056Y893D01*
X4064Y893D02*
X4082Y893D01*
X4137Y893D02*
X4156Y893D01*
X4264Y893D02*
X4282Y893D01*
X4337Y893D02*
X4356Y893D01*
X4364Y893D02*
X4382Y893D01*
X4437Y893D02*
X4456Y893D01*
X364Y892D02*
X383Y892D01*
X437Y892D02*
X456Y892D01*
X464Y892D02*
X483Y892D01*
X537Y892D02*
X556Y892D01*
X564Y892D02*
X583Y892D01*
X637Y892D02*
X656Y892D01*
X764Y892D02*
X783Y892D01*
X837Y892D02*
X856Y892D01*
X864Y892D02*
X883Y892D01*
X937Y892D02*
X956Y892D01*
X964Y892D02*
X983Y892D01*
X1037Y892D02*
X1056Y892D01*
X1064Y892D02*
X1083Y892D01*
X1137Y892D02*
X1156Y892D01*
X1164Y892D02*
X1183Y892D01*
X1237Y892D02*
X1256Y892D01*
X1264Y892D02*
X1283Y892D01*
X1337Y892D02*
X1356Y892D01*
X1464Y892D02*
X1483Y892D01*
X1537Y892D02*
X1556Y892D01*
X1564Y892D02*
X1583Y892D01*
X1637Y892D02*
X1656Y892D01*
X1764Y892D02*
X1783Y892D01*
X1837Y892D02*
X1856Y892D01*
X1864Y892D02*
X1883Y892D01*
X1937Y892D02*
X1956Y892D01*
X1964Y892D02*
X1983Y892D01*
X2037Y892D02*
X2056Y892D01*
X2164Y892D02*
X2183Y892D01*
X2237Y892D02*
X2256Y892D01*
X2264Y892D02*
X2283Y892D01*
X2337Y892D02*
X2356Y892D01*
X2364Y892D02*
X2383Y892D01*
X2437Y892D02*
X2456Y892D01*
X2464Y892D02*
X2483Y892D01*
X2537Y892D02*
X2556Y892D01*
X2564Y892D02*
X2583Y892D01*
X2637Y892D02*
X2656Y892D01*
X2664Y892D02*
X2683Y892D01*
X2737Y892D02*
X2756Y892D01*
X2864Y892D02*
X2883Y892D01*
X2937Y892D02*
X2956Y892D01*
X2964Y892D02*
X2983Y892D01*
X3037Y892D02*
X3056Y892D01*
X3164Y892D02*
X3183Y892D01*
X3237Y892D02*
X3256Y892D01*
X3264Y892D02*
X3283Y892D01*
X3337Y892D02*
X3356Y892D01*
X3364Y892D02*
X3383Y892D01*
X3437Y892D02*
X3456Y892D01*
X3564Y892D02*
X3583Y892D01*
X3637Y892D02*
X3656Y892D01*
X3664Y892D02*
X3683Y892D01*
X3737Y892D02*
X3756Y892D01*
X3764Y892D02*
X3783Y892D01*
X3837Y892D02*
X3856Y892D01*
X3864Y892D02*
X3883Y892D01*
X3937Y892D02*
X3956Y892D01*
X3964Y892D02*
X3983Y892D01*
X4037Y892D02*
X4056Y892D01*
X4064Y892D02*
X4083Y892D01*
X4137Y892D02*
X4156Y892D01*
X4264Y892D02*
X4283Y892D01*
X4337Y892D02*
X4356Y892D01*
X4364Y892D02*
X4383Y892D01*
X4437Y892D02*
X4456Y892D01*
X364Y891D02*
X383Y891D01*
X437Y891D02*
X456Y891D01*
X464Y891D02*
X483Y891D01*
X537Y891D02*
X556Y891D01*
X564Y891D02*
X583Y891D01*
X637Y891D02*
X656Y891D01*
X764Y891D02*
X783Y891D01*
X837Y891D02*
X856Y891D01*
X864Y891D02*
X883Y891D01*
X937Y891D02*
X956Y891D01*
X964Y891D02*
X983Y891D01*
X1037Y891D02*
X1056Y891D01*
X1064Y891D02*
X1083Y891D01*
X1137Y891D02*
X1156Y891D01*
X1164Y891D02*
X1183Y891D01*
X1237Y891D02*
X1256Y891D01*
X1264Y891D02*
X1283Y891D01*
X1337Y891D02*
X1356Y891D01*
X1464Y891D02*
X1483Y891D01*
X1537Y891D02*
X1556Y891D01*
X1564Y891D02*
X1583Y891D01*
X1637Y891D02*
X1656Y891D01*
X1764Y891D02*
X1783Y891D01*
X1837Y891D02*
X1856Y891D01*
X1864Y891D02*
X1883Y891D01*
X1937Y891D02*
X1956Y891D01*
X1964Y891D02*
X1983Y891D01*
X2037Y891D02*
X2056Y891D01*
X2164Y891D02*
X2183Y891D01*
X2237Y891D02*
X2256Y891D01*
X2264Y891D02*
X2283Y891D01*
X2337Y891D02*
X2356Y891D01*
X2364Y891D02*
X2383Y891D01*
X2437Y891D02*
X2456Y891D01*
X2464Y891D02*
X2483Y891D01*
X2537Y891D02*
X2556Y891D01*
X2564Y891D02*
X2583Y891D01*
X2637Y891D02*
X2656Y891D01*
X2664Y891D02*
X2683Y891D01*
X2737Y891D02*
X2756Y891D01*
X2864Y891D02*
X2883Y891D01*
X2937Y891D02*
X2956Y891D01*
X2964Y891D02*
X2983Y891D01*
X3037Y891D02*
X3056Y891D01*
X3164Y891D02*
X3183Y891D01*
X3237Y891D02*
X3256Y891D01*
X3264Y891D02*
X3283Y891D01*
X3337Y891D02*
X3356Y891D01*
X3364Y891D02*
X3383Y891D01*
X3437Y891D02*
X3456Y891D01*
X3564Y891D02*
X3583Y891D01*
X3637Y891D02*
X3655Y891D01*
X3664Y891D02*
X3683Y891D01*
X3737Y891D02*
X3755Y891D01*
X3764Y891D02*
X3783Y891D01*
X3837Y891D02*
X3855Y891D01*
X3864Y891D02*
X3883Y891D01*
X3937Y891D02*
X3955Y891D01*
X3964Y891D02*
X3983Y891D01*
X4037Y891D02*
X4055Y891D01*
X4064Y891D02*
X4083Y891D01*
X4137Y891D02*
X4155Y891D01*
X4264Y891D02*
X4283Y891D01*
X4337Y891D02*
X4355Y891D01*
X4364Y891D02*
X4383Y891D01*
X4437Y891D02*
X4455Y891D01*
X365Y890D02*
X383Y890D01*
X437Y890D02*
X456Y890D01*
X465Y890D02*
X483Y890D01*
X537Y890D02*
X556Y890D01*
X565Y890D02*
X583Y890D01*
X637Y890D02*
X656Y890D01*
X765Y890D02*
X783Y890D01*
X837Y890D02*
X856Y890D01*
X865Y890D02*
X883Y890D01*
X937Y890D02*
X956Y890D01*
X965Y890D02*
X983Y890D01*
X1037Y890D02*
X1056Y890D01*
X1065Y890D02*
X1083Y890D01*
X1137Y890D02*
X1156Y890D01*
X1164Y890D02*
X1183Y890D01*
X1237Y890D02*
X1256Y890D01*
X1264Y890D02*
X1283Y890D01*
X1337Y890D02*
X1356Y890D01*
X1464Y890D02*
X1483Y890D01*
X1537Y890D02*
X1556Y890D01*
X1564Y890D02*
X1583Y890D01*
X1637Y890D02*
X1656Y890D01*
X1764Y890D02*
X1783Y890D01*
X1837Y890D02*
X1856Y890D01*
X1864Y890D02*
X1883Y890D01*
X1937Y890D02*
X1956Y890D01*
X1964Y890D02*
X1983Y890D01*
X2037Y890D02*
X2056Y890D01*
X2164Y890D02*
X2183Y890D01*
X2237Y890D02*
X2256Y890D01*
X2264Y890D02*
X2283Y890D01*
X2337Y890D02*
X2355Y890D01*
X2364Y890D02*
X2383Y890D01*
X2437Y890D02*
X2455Y890D01*
X2464Y890D02*
X2483Y890D01*
X2537Y890D02*
X2555Y890D01*
X2564Y890D02*
X2583Y890D01*
X2637Y890D02*
X2655Y890D01*
X2664Y890D02*
X2683Y890D01*
X2737Y890D02*
X2755Y890D01*
X2864Y890D02*
X2883Y890D01*
X2937Y890D02*
X2955Y890D01*
X2964Y890D02*
X2983Y890D01*
X3037Y890D02*
X3055Y890D01*
X3164Y890D02*
X3183Y890D01*
X3237Y890D02*
X3255Y890D01*
X3264Y890D02*
X3283Y890D01*
X3337Y890D02*
X3355Y890D01*
X3364Y890D02*
X3383Y890D01*
X3437Y890D02*
X3455Y890D01*
X3564Y890D02*
X3583Y890D01*
X3636Y890D02*
X3655Y890D01*
X3664Y890D02*
X3683Y890D01*
X3736Y890D02*
X3755Y890D01*
X3764Y890D02*
X3783Y890D01*
X3836Y890D02*
X3855Y890D01*
X3864Y890D02*
X3883Y890D01*
X3936Y890D02*
X3955Y890D01*
X3964Y890D02*
X3983Y890D01*
X4036Y890D02*
X4055Y890D01*
X4064Y890D02*
X4083Y890D01*
X4136Y890D02*
X4155Y890D01*
X4264Y890D02*
X4283Y890D01*
X4336Y890D02*
X4355Y890D01*
X4364Y890D02*
X4383Y890D01*
X4436Y890D02*
X4455Y890D01*
X365Y889D02*
X384Y889D01*
X437Y889D02*
X456Y889D01*
X465Y889D02*
X484Y889D01*
X537Y889D02*
X556Y889D01*
X565Y889D02*
X584Y889D01*
X637Y889D02*
X656Y889D01*
X765Y889D02*
X784Y889D01*
X837Y889D02*
X856Y889D01*
X865Y889D02*
X884Y889D01*
X937Y889D02*
X955Y889D01*
X965Y889D02*
X984Y889D01*
X1037Y889D02*
X1055Y889D01*
X1065Y889D02*
X1084Y889D01*
X1137Y889D02*
X1155Y889D01*
X1165Y889D02*
X1184Y889D01*
X1237Y889D02*
X1255Y889D01*
X1265Y889D02*
X1284Y889D01*
X1336Y889D02*
X1355Y889D01*
X1465Y889D02*
X1484Y889D01*
X1537Y889D02*
X1555Y889D01*
X1565Y889D02*
X1584Y889D01*
X1636Y889D02*
X1655Y889D01*
X1765Y889D02*
X1783Y889D01*
X1836Y889D02*
X1855Y889D01*
X1865Y889D02*
X1884Y889D01*
X1936Y889D02*
X1955Y889D01*
X1965Y889D02*
X1983Y889D01*
X2036Y889D02*
X2055Y889D01*
X2165Y889D02*
X2183Y889D01*
X2236Y889D02*
X2255Y889D01*
X2265Y889D02*
X2283Y889D01*
X2336Y889D02*
X2355Y889D01*
X2365Y889D02*
X2383Y889D01*
X2436Y889D02*
X2455Y889D01*
X2465Y889D02*
X2483Y889D01*
X2536Y889D02*
X2555Y889D01*
X2564Y889D02*
X2583Y889D01*
X2636Y889D02*
X2655Y889D01*
X2664Y889D02*
X2683Y889D01*
X2736Y889D02*
X2755Y889D01*
X2864Y889D02*
X2883Y889D01*
X2936Y889D02*
X2955Y889D01*
X2964Y889D02*
X2983Y889D01*
X3036Y889D02*
X3055Y889D01*
X3164Y889D02*
X3183Y889D01*
X3236Y889D02*
X3255Y889D01*
X3264Y889D02*
X3283Y889D01*
X3336Y889D02*
X3355Y889D01*
X3364Y889D02*
X3383Y889D01*
X3436Y889D02*
X3455Y889D01*
X3564Y889D02*
X3583Y889D01*
X3636Y889D02*
X3655Y889D01*
X3664Y889D02*
X3683Y889D01*
X3736Y889D02*
X3755Y889D01*
X3764Y889D02*
X3783Y889D01*
X3836Y889D02*
X3855Y889D01*
X3864Y889D02*
X3883Y889D01*
X3936Y889D02*
X3955Y889D01*
X3964Y889D02*
X3983Y889D01*
X4036Y889D02*
X4055Y889D01*
X4064Y889D02*
X4083Y889D01*
X4136Y889D02*
X4155Y889D01*
X4264Y889D02*
X4283Y889D01*
X4336Y889D02*
X4355Y889D01*
X4364Y889D02*
X4383Y889D01*
X4436Y889D02*
X4455Y889D01*
X365Y888D02*
X384Y888D01*
X436Y888D02*
X455Y888D01*
X465Y888D02*
X484Y888D01*
X536Y888D02*
X555Y888D01*
X565Y888D02*
X584Y888D01*
X636Y888D02*
X655Y888D01*
X765Y888D02*
X784Y888D01*
X836Y888D02*
X855Y888D01*
X865Y888D02*
X884Y888D01*
X936Y888D02*
X955Y888D01*
X965Y888D02*
X984Y888D01*
X1036Y888D02*
X1055Y888D01*
X1065Y888D02*
X1084Y888D01*
X1136Y888D02*
X1155Y888D01*
X1165Y888D02*
X1184Y888D01*
X1236Y888D02*
X1255Y888D01*
X1265Y888D02*
X1284Y888D01*
X1336Y888D02*
X1355Y888D01*
X1465Y888D02*
X1484Y888D01*
X1536Y888D02*
X1555Y888D01*
X1565Y888D02*
X1584Y888D01*
X1636Y888D02*
X1655Y888D01*
X1765Y888D02*
X1784Y888D01*
X1836Y888D02*
X1855Y888D01*
X1865Y888D02*
X1884Y888D01*
X1936Y888D02*
X1955Y888D01*
X1965Y888D02*
X1984Y888D01*
X2036Y888D02*
X2055Y888D01*
X2165Y888D02*
X2184Y888D01*
X2236Y888D02*
X2255Y888D01*
X2265Y888D02*
X2284Y888D01*
X2336Y888D02*
X2355Y888D01*
X2365Y888D02*
X2384Y888D01*
X2436Y888D02*
X2455Y888D01*
X2465Y888D02*
X2484Y888D01*
X2536Y888D02*
X2555Y888D01*
X2565Y888D02*
X2584Y888D01*
X2636Y888D02*
X2655Y888D01*
X2665Y888D02*
X2684Y888D01*
X2736Y888D02*
X2755Y888D01*
X2865Y888D02*
X2884Y888D01*
X2936Y888D02*
X2955Y888D01*
X2965Y888D02*
X2984Y888D01*
X3036Y888D02*
X3055Y888D01*
X3165Y888D02*
X3184Y888D01*
X3236Y888D02*
X3255Y888D01*
X3265Y888D02*
X3284Y888D01*
X3336Y888D02*
X3355Y888D01*
X3365Y888D02*
X3384Y888D01*
X3436Y888D02*
X3455Y888D01*
X3565Y888D02*
X3584Y888D01*
X3636Y888D02*
X3655Y888D01*
X3665Y888D02*
X3684Y888D01*
X3736Y888D02*
X3755Y888D01*
X3765Y888D02*
X3784Y888D01*
X3836Y888D02*
X3855Y888D01*
X3865Y888D02*
X3884Y888D01*
X3936Y888D02*
X3955Y888D01*
X3964Y888D02*
X3984Y888D01*
X4036Y888D02*
X4055Y888D01*
X4064Y888D02*
X4084Y888D01*
X4136Y888D02*
X4155Y888D01*
X4264Y888D02*
X4284Y888D01*
X4336Y888D02*
X4355Y888D01*
X4364Y888D02*
X4384Y888D01*
X4436Y888D02*
X4455Y888D01*
X365Y887D02*
X384Y887D01*
X436Y887D02*
X455Y887D01*
X465Y887D02*
X484Y887D01*
X536Y887D02*
X555Y887D01*
X565Y887D02*
X584Y887D01*
X636Y887D02*
X655Y887D01*
X765Y887D02*
X784Y887D01*
X836Y887D02*
X855Y887D01*
X865Y887D02*
X884Y887D01*
X936Y887D02*
X955Y887D01*
X965Y887D02*
X984Y887D01*
X1036Y887D02*
X1055Y887D01*
X1065Y887D02*
X1084Y887D01*
X1136Y887D02*
X1155Y887D01*
X1165Y887D02*
X1184Y887D01*
X1236Y887D02*
X1255Y887D01*
X1265Y887D02*
X1284Y887D01*
X1336Y887D02*
X1355Y887D01*
X1465Y887D02*
X1484Y887D01*
X1536Y887D02*
X1555Y887D01*
X1565Y887D02*
X1584Y887D01*
X1636Y887D02*
X1655Y887D01*
X1765Y887D02*
X1784Y887D01*
X1836Y887D02*
X1855Y887D01*
X1865Y887D02*
X1884Y887D01*
X1936Y887D02*
X1955Y887D01*
X1965Y887D02*
X1984Y887D01*
X2036Y887D02*
X2055Y887D01*
X2165Y887D02*
X2184Y887D01*
X2236Y887D02*
X2255Y887D01*
X2265Y887D02*
X2284Y887D01*
X2336Y887D02*
X2355Y887D01*
X2365Y887D02*
X2384Y887D01*
X2436Y887D02*
X2455Y887D01*
X2465Y887D02*
X2484Y887D01*
X2536Y887D02*
X2555Y887D01*
X2565Y887D02*
X2584Y887D01*
X2636Y887D02*
X2655Y887D01*
X2665Y887D02*
X2684Y887D01*
X2736Y887D02*
X2755Y887D01*
X2865Y887D02*
X2884Y887D01*
X2936Y887D02*
X2955Y887D01*
X2965Y887D02*
X2984Y887D01*
X3036Y887D02*
X3055Y887D01*
X3165Y887D02*
X3184Y887D01*
X3236Y887D02*
X3255Y887D01*
X3265Y887D02*
X3284Y887D01*
X3336Y887D02*
X3355Y887D01*
X3365Y887D02*
X3384Y887D01*
X3436Y887D02*
X3455Y887D01*
X3565Y887D02*
X3584Y887D01*
X3636Y887D02*
X3655Y887D01*
X3665Y887D02*
X3684Y887D01*
X3736Y887D02*
X3755Y887D01*
X3765Y887D02*
X3784Y887D01*
X3836Y887D02*
X3855Y887D01*
X3865Y887D02*
X3884Y887D01*
X3935Y887D02*
X3955Y887D01*
X3965Y887D02*
X3984Y887D01*
X4035Y887D02*
X4055Y887D01*
X4065Y887D02*
X4084Y887D01*
X4135Y887D02*
X4155Y887D01*
X4265Y887D02*
X4284Y887D01*
X4335Y887D02*
X4355Y887D01*
X4365Y887D02*
X4384Y887D01*
X4435Y887D02*
X4455Y887D01*
X365Y886D02*
X385Y886D01*
X435Y886D02*
X455Y886D01*
X465Y886D02*
X485Y886D01*
X535Y886D02*
X555Y886D01*
X565Y886D02*
X585Y886D01*
X635Y886D02*
X655Y886D01*
X765Y886D02*
X785Y886D01*
X835Y886D02*
X855Y886D01*
X865Y886D02*
X885Y886D01*
X935Y886D02*
X955Y886D01*
X965Y886D02*
X985Y886D01*
X1035Y886D02*
X1055Y886D01*
X1065Y886D02*
X1085Y886D01*
X1135Y886D02*
X1155Y886D01*
X1165Y886D02*
X1185Y886D01*
X1235Y886D02*
X1255Y886D01*
X1265Y886D02*
X1285Y886D01*
X1335Y886D02*
X1355Y886D01*
X1465Y886D02*
X1485Y886D01*
X1535Y886D02*
X1555Y886D01*
X1565Y886D02*
X1585Y886D01*
X1635Y886D02*
X1655Y886D01*
X1765Y886D02*
X1785Y886D01*
X1835Y886D02*
X1855Y886D01*
X1865Y886D02*
X1885Y886D01*
X1935Y886D02*
X1955Y886D01*
X1965Y886D02*
X1985Y886D01*
X2035Y886D02*
X2055Y886D01*
X2165Y886D02*
X2185Y886D01*
X2235Y886D02*
X2255Y886D01*
X2265Y886D02*
X2285Y886D01*
X2335Y886D02*
X2355Y886D01*
X2365Y886D02*
X2385Y886D01*
X2435Y886D02*
X2455Y886D01*
X2465Y886D02*
X2485Y886D01*
X2535Y886D02*
X2555Y886D01*
X2565Y886D02*
X2585Y886D01*
X2635Y886D02*
X2655Y886D01*
X2665Y886D02*
X2685Y886D01*
X2735Y886D02*
X2755Y886D01*
X2865Y886D02*
X2885Y886D01*
X2935Y886D02*
X2955Y886D01*
X2965Y886D02*
X2984Y886D01*
X3035Y886D02*
X3055Y886D01*
X3165Y886D02*
X3184Y886D01*
X3235Y886D02*
X3255Y886D01*
X3265Y886D02*
X3284Y886D01*
X3335Y886D02*
X3355Y886D01*
X3365Y886D02*
X3384Y886D01*
X3435Y886D02*
X3454Y886D01*
X3565Y886D02*
X3584Y886D01*
X3635Y886D02*
X3654Y886D01*
X3665Y886D02*
X3684Y886D01*
X3735Y886D02*
X3754Y886D01*
X3765Y886D02*
X3784Y886D01*
X3835Y886D02*
X3854Y886D01*
X3865Y886D02*
X3884Y886D01*
X3935Y886D02*
X3954Y886D01*
X3965Y886D02*
X3984Y886D01*
X4035Y886D02*
X4054Y886D01*
X4065Y886D02*
X4084Y886D01*
X4135Y886D02*
X4154Y886D01*
X4265Y886D02*
X4284Y886D01*
X4335Y886D02*
X4354Y886D01*
X4365Y886D02*
X4384Y886D01*
X4435Y886D02*
X4454Y886D01*
X366Y885D02*
X385Y885D01*
X435Y885D02*
X455Y885D01*
X466Y885D02*
X485Y885D01*
X535Y885D02*
X555Y885D01*
X566Y885D02*
X585Y885D01*
X635Y885D02*
X655Y885D01*
X766Y885D02*
X785Y885D01*
X835Y885D02*
X855Y885D01*
X866Y885D02*
X885Y885D01*
X935Y885D02*
X955Y885D01*
X966Y885D02*
X985Y885D01*
X1035Y885D02*
X1055Y885D01*
X1066Y885D02*
X1085Y885D01*
X1135Y885D02*
X1154Y885D01*
X1166Y885D02*
X1185Y885D01*
X1235Y885D02*
X1254Y885D01*
X1266Y885D02*
X1285Y885D01*
X1335Y885D02*
X1354Y885D01*
X1466Y885D02*
X1485Y885D01*
X1535Y885D02*
X1554Y885D01*
X1566Y885D02*
X1585Y885D01*
X1635Y885D02*
X1654Y885D01*
X1766Y885D02*
X1785Y885D01*
X1835Y885D02*
X1854Y885D01*
X1866Y885D02*
X1885Y885D01*
X1935Y885D02*
X1954Y885D01*
X1965Y885D02*
X1985Y885D01*
X2035Y885D02*
X2054Y885D01*
X2165Y885D02*
X2185Y885D01*
X2235Y885D02*
X2254Y885D01*
X2265Y885D02*
X2285Y885D01*
X2335Y885D02*
X2354Y885D01*
X2365Y885D02*
X2385Y885D01*
X2435Y885D02*
X2454Y885D01*
X2465Y885D02*
X2485Y885D01*
X2535Y885D02*
X2554Y885D01*
X2565Y885D02*
X2585Y885D01*
X2635Y885D02*
X2654Y885D01*
X2665Y885D02*
X2685Y885D01*
X2735Y885D02*
X2754Y885D01*
X2865Y885D02*
X2885Y885D01*
X2935Y885D02*
X2954Y885D01*
X2965Y885D02*
X2985Y885D01*
X3035Y885D02*
X3054Y885D01*
X3165Y885D02*
X3185Y885D01*
X3235Y885D02*
X3254Y885D01*
X3265Y885D02*
X3285Y885D01*
X3335Y885D02*
X3354Y885D01*
X3365Y885D02*
X3385Y885D01*
X3435Y885D02*
X3454Y885D01*
X3565Y885D02*
X3585Y885D01*
X3635Y885D02*
X3654Y885D01*
X3665Y885D02*
X3685Y885D01*
X3735Y885D02*
X3754Y885D01*
X3765Y885D02*
X3785Y885D01*
X3835Y885D02*
X3854Y885D01*
X3865Y885D02*
X3885Y885D01*
X3935Y885D02*
X3954Y885D01*
X3965Y885D02*
X3985Y885D01*
X4035Y885D02*
X4054Y885D01*
X4065Y885D02*
X4085Y885D01*
X4135Y885D02*
X4154Y885D01*
X4265Y885D02*
X4285Y885D01*
X4335Y885D02*
X4354Y885D01*
X4365Y885D02*
X4385Y885D01*
X4435Y885D02*
X4454Y885D01*
X366Y884D02*
X386Y884D01*
X434Y884D02*
X454Y884D01*
X466Y884D02*
X486Y884D01*
X534Y884D02*
X554Y884D01*
X566Y884D02*
X586Y884D01*
X634Y884D02*
X654Y884D01*
X766Y884D02*
X786Y884D01*
X834Y884D02*
X854Y884D01*
X866Y884D02*
X886Y884D01*
X934Y884D02*
X954Y884D01*
X966Y884D02*
X986Y884D01*
X1034Y884D02*
X1054Y884D01*
X1066Y884D02*
X1086Y884D01*
X1134Y884D02*
X1154Y884D01*
X1166Y884D02*
X1186Y884D01*
X1234Y884D02*
X1254Y884D01*
X1266Y884D02*
X1286Y884D01*
X1334Y884D02*
X1354Y884D01*
X1466Y884D02*
X1486Y884D01*
X1534Y884D02*
X1554Y884D01*
X1566Y884D02*
X1586Y884D01*
X1634Y884D02*
X1654Y884D01*
X1766Y884D02*
X1786Y884D01*
X1834Y884D02*
X1854Y884D01*
X1866Y884D02*
X1886Y884D01*
X1934Y884D02*
X1954Y884D01*
X1966Y884D02*
X1986Y884D01*
X2034Y884D02*
X2054Y884D01*
X2166Y884D02*
X2186Y884D01*
X2234Y884D02*
X2254Y884D01*
X2266Y884D02*
X2286Y884D01*
X2334Y884D02*
X2354Y884D01*
X2366Y884D02*
X2386Y884D01*
X2434Y884D02*
X2454Y884D01*
X2466Y884D02*
X2486Y884D01*
X2534Y884D02*
X2554Y884D01*
X2566Y884D02*
X2586Y884D01*
X2634Y884D02*
X2654Y884D01*
X2666Y884D02*
X2686Y884D01*
X2734Y884D02*
X2754Y884D01*
X2866Y884D02*
X2886Y884D01*
X2934Y884D02*
X2954Y884D01*
X2966Y884D02*
X2986Y884D01*
X3034Y884D02*
X3054Y884D01*
X3166Y884D02*
X3185Y884D01*
X3234Y884D02*
X3254Y884D01*
X3266Y884D02*
X3285Y884D01*
X3334Y884D02*
X3354Y884D01*
X3366Y884D02*
X3385Y884D01*
X3434Y884D02*
X3454Y884D01*
X3566Y884D02*
X3585Y884D01*
X3634Y884D02*
X3654Y884D01*
X3666Y884D02*
X3685Y884D01*
X3734Y884D02*
X3754Y884D01*
X3766Y884D02*
X3785Y884D01*
X3834Y884D02*
X3854Y884D01*
X3866Y884D02*
X3885Y884D01*
X3934Y884D02*
X3954Y884D01*
X3966Y884D02*
X3985Y884D01*
X4034Y884D02*
X4054Y884D01*
X4066Y884D02*
X4085Y884D01*
X4134Y884D02*
X4154Y884D01*
X4265Y884D02*
X4285Y884D01*
X4334Y884D02*
X4354Y884D01*
X4365Y884D02*
X4385Y884D01*
X4434Y884D02*
X4454Y884D01*
X366Y883D02*
X386Y883D01*
X434Y883D02*
X454Y883D01*
X466Y883D02*
X486Y883D01*
X534Y883D02*
X554Y883D01*
X566Y883D02*
X586Y883D01*
X634Y883D02*
X654Y883D01*
X766Y883D02*
X786Y883D01*
X834Y883D02*
X854Y883D01*
X866Y883D02*
X886Y883D01*
X934Y883D02*
X954Y883D01*
X966Y883D02*
X986Y883D01*
X1034Y883D02*
X1054Y883D01*
X1066Y883D02*
X1086Y883D01*
X1134Y883D02*
X1154Y883D01*
X1166Y883D02*
X1186Y883D01*
X1234Y883D02*
X1254Y883D01*
X1266Y883D02*
X1286Y883D01*
X1334Y883D02*
X1354Y883D01*
X1466Y883D02*
X1486Y883D01*
X1534Y883D02*
X1554Y883D01*
X1566Y883D02*
X1586Y883D01*
X1634Y883D02*
X1654Y883D01*
X1766Y883D02*
X1786Y883D01*
X1834Y883D02*
X1854Y883D01*
X1866Y883D02*
X1886Y883D01*
X1934Y883D02*
X1954Y883D01*
X1966Y883D02*
X1986Y883D01*
X2034Y883D02*
X2054Y883D01*
X2166Y883D02*
X2186Y883D01*
X2234Y883D02*
X2254Y883D01*
X2266Y883D02*
X2286Y883D01*
X2334Y883D02*
X2354Y883D01*
X2366Y883D02*
X2386Y883D01*
X2434Y883D02*
X2454Y883D01*
X2466Y883D02*
X2486Y883D01*
X2534Y883D02*
X2554Y883D01*
X2566Y883D02*
X2586Y883D01*
X2634Y883D02*
X2654Y883D01*
X2666Y883D02*
X2686Y883D01*
X2734Y883D02*
X2754Y883D01*
X2866Y883D02*
X2886Y883D01*
X2934Y883D02*
X2954Y883D01*
X2966Y883D02*
X2986Y883D01*
X3034Y883D02*
X3054Y883D01*
X3166Y883D02*
X3186Y883D01*
X3233Y883D02*
X3254Y883D01*
X3266Y883D02*
X3286Y883D01*
X3333Y883D02*
X3354Y883D01*
X3366Y883D02*
X3386Y883D01*
X3433Y883D02*
X3454Y883D01*
X3566Y883D02*
X3586Y883D01*
X3633Y883D02*
X3654Y883D01*
X3666Y883D02*
X3686Y883D01*
X3733Y883D02*
X3754Y883D01*
X3766Y883D02*
X3786Y883D01*
X3833Y883D02*
X3854Y883D01*
X3866Y883D02*
X3886Y883D01*
X3933Y883D02*
X3954Y883D01*
X3966Y883D02*
X3986Y883D01*
X4033Y883D02*
X4054Y883D01*
X4066Y883D02*
X4086Y883D01*
X4133Y883D02*
X4154Y883D01*
X4266Y883D02*
X4286Y883D01*
X4333Y883D02*
X4354Y883D01*
X4366Y883D02*
X4386Y883D01*
X4433Y883D02*
X4454Y883D01*
X367Y882D02*
X387Y882D01*
X433Y882D02*
X454Y882D01*
X467Y882D02*
X487Y882D01*
X533Y882D02*
X554Y882D01*
X567Y882D02*
X587Y882D01*
X633Y882D02*
X654Y882D01*
X767Y882D02*
X787Y882D01*
X833Y882D02*
X854Y882D01*
X867Y882D02*
X887Y882D01*
X933Y882D02*
X954Y882D01*
X967Y882D02*
X987Y882D01*
X1033Y882D02*
X1054Y882D01*
X1067Y882D02*
X1087Y882D01*
X1133Y882D02*
X1154Y882D01*
X1167Y882D02*
X1187Y882D01*
X1233Y882D02*
X1254Y882D01*
X1267Y882D02*
X1287Y882D01*
X1333Y882D02*
X1354Y882D01*
X1467Y882D02*
X1487Y882D01*
X1533Y882D02*
X1554Y882D01*
X1566Y882D02*
X1587Y882D01*
X1633Y882D02*
X1654Y882D01*
X1766Y882D02*
X1787Y882D01*
X1833Y882D02*
X1853Y882D01*
X1866Y882D02*
X1887Y882D01*
X1933Y882D02*
X1953Y882D01*
X1966Y882D02*
X1987Y882D01*
X2033Y882D02*
X2053Y882D01*
X2166Y882D02*
X2187Y882D01*
X2233Y882D02*
X2253Y882D01*
X2266Y882D02*
X2287Y882D01*
X2333Y882D02*
X2353Y882D01*
X2366Y882D02*
X2387Y882D01*
X2433Y882D02*
X2453Y882D01*
X2466Y882D02*
X2487Y882D01*
X2533Y882D02*
X2553Y882D01*
X2566Y882D02*
X2587Y882D01*
X2633Y882D02*
X2653Y882D01*
X2666Y882D02*
X2687Y882D01*
X2733Y882D02*
X2753Y882D01*
X2866Y882D02*
X2887Y882D01*
X2933Y882D02*
X2953Y882D01*
X2966Y882D02*
X2987Y882D01*
X3033Y882D02*
X3053Y882D01*
X3166Y882D02*
X3187Y882D01*
X3233Y882D02*
X3253Y882D01*
X3266Y882D02*
X3287Y882D01*
X3333Y882D02*
X3353Y882D01*
X3366Y882D02*
X3387Y882D01*
X3433Y882D02*
X3453Y882D01*
X3566Y882D02*
X3587Y882D01*
X3633Y882D02*
X3653Y882D01*
X3666Y882D02*
X3687Y882D01*
X3733Y882D02*
X3753Y882D01*
X3766Y882D02*
X3787Y882D01*
X3833Y882D02*
X3853Y882D01*
X3866Y882D02*
X3887Y882D01*
X3933Y882D02*
X3953Y882D01*
X3966Y882D02*
X3987Y882D01*
X4033Y882D02*
X4053Y882D01*
X4066Y882D02*
X4087Y882D01*
X4133Y882D02*
X4153Y882D01*
X4266Y882D02*
X4287Y882D01*
X4333Y882D02*
X4353Y882D01*
X4366Y882D02*
X4387Y882D01*
X4433Y882D02*
X4453Y882D01*
X367Y881D02*
X388Y881D01*
X432Y881D02*
X453Y881D01*
X467Y881D02*
X488Y881D01*
X532Y881D02*
X553Y881D01*
X567Y881D02*
X588Y881D01*
X632Y881D02*
X653Y881D01*
X767Y881D02*
X788Y881D01*
X832Y881D02*
X853Y881D01*
X867Y881D02*
X888Y881D01*
X932Y881D02*
X953Y881D01*
X967Y881D02*
X988Y881D01*
X1032Y881D02*
X1053Y881D01*
X1067Y881D02*
X1088Y881D01*
X1132Y881D02*
X1153Y881D01*
X1167Y881D02*
X1188Y881D01*
X1232Y881D02*
X1253Y881D01*
X1267Y881D02*
X1288Y881D01*
X1332Y881D02*
X1353Y881D01*
X1467Y881D02*
X1488Y881D01*
X1532Y881D02*
X1553Y881D01*
X1567Y881D02*
X1588Y881D01*
X1632Y881D02*
X1653Y881D01*
X1767Y881D02*
X1788Y881D01*
X1832Y881D02*
X1853Y881D01*
X1867Y881D02*
X1888Y881D01*
X1932Y881D02*
X1953Y881D01*
X1967Y881D02*
X1988Y881D01*
X2032Y881D02*
X2053Y881D01*
X2167Y881D02*
X2188Y881D01*
X2232Y881D02*
X2253Y881D01*
X2267Y881D02*
X2288Y881D01*
X2332Y881D02*
X2353Y881D01*
X2367Y881D02*
X2388Y881D01*
X2432Y881D02*
X2453Y881D01*
X2467Y881D02*
X2488Y881D01*
X2532Y881D02*
X2553Y881D01*
X2567Y881D02*
X2588Y881D01*
X2632Y881D02*
X2653Y881D01*
X2667Y881D02*
X2688Y881D01*
X2732Y881D02*
X2753Y881D01*
X2867Y881D02*
X2888Y881D01*
X2932Y881D02*
X2953Y881D01*
X2967Y881D02*
X2988Y881D01*
X3032Y881D02*
X3053Y881D01*
X3167Y881D02*
X3188Y881D01*
X3232Y881D02*
X3253Y881D01*
X3267Y881D02*
X3288Y881D01*
X3332Y881D02*
X3353Y881D01*
X3367Y881D02*
X3388Y881D01*
X3432Y881D02*
X3453Y881D01*
X3567Y881D02*
X3588Y881D01*
X3632Y881D02*
X3653Y881D01*
X3667Y881D02*
X3688Y881D01*
X3732Y881D02*
X3753Y881D01*
X3767Y881D02*
X3788Y881D01*
X3832Y881D02*
X3853Y881D01*
X3867Y881D02*
X3888Y881D01*
X3932Y881D02*
X3953Y881D01*
X3967Y881D02*
X3988Y881D01*
X4032Y881D02*
X4053Y881D01*
X4067Y881D02*
X4087Y881D01*
X4132Y881D02*
X4153Y881D01*
X4267Y881D02*
X4287Y881D01*
X4332Y881D02*
X4353Y881D01*
X4367Y881D02*
X4387Y881D01*
X4432Y881D02*
X4453Y881D01*
X367Y880D02*
X389Y880D01*
X431Y880D02*
X453Y880D01*
X467Y880D02*
X489Y880D01*
X531Y880D02*
X553Y880D01*
X567Y880D02*
X589Y880D01*
X631Y880D02*
X653Y880D01*
X767Y880D02*
X789Y880D01*
X831Y880D02*
X853Y880D01*
X867Y880D02*
X889Y880D01*
X931Y880D02*
X953Y880D01*
X967Y880D02*
X989Y880D01*
X1031Y880D02*
X1053Y880D01*
X1067Y880D02*
X1089Y880D01*
X1131Y880D02*
X1153Y880D01*
X1167Y880D02*
X1189Y880D01*
X1231Y880D02*
X1253Y880D01*
X1267Y880D02*
X1289Y880D01*
X1331Y880D02*
X1353Y880D01*
X1467Y880D02*
X1489Y880D01*
X1531Y880D02*
X1553Y880D01*
X1567Y880D02*
X1589Y880D01*
X1631Y880D02*
X1653Y880D01*
X1767Y880D02*
X1789Y880D01*
X1831Y880D02*
X1853Y880D01*
X1867Y880D02*
X1889Y880D01*
X1931Y880D02*
X1953Y880D01*
X1967Y880D02*
X1989Y880D01*
X2031Y880D02*
X2053Y880D01*
X2167Y880D02*
X2189Y880D01*
X2231Y880D02*
X2253Y880D01*
X2267Y880D02*
X2289Y880D01*
X2331Y880D02*
X2353Y880D01*
X2367Y880D02*
X2389Y880D01*
X2431Y880D02*
X2453Y880D01*
X2467Y880D02*
X2489Y880D01*
X2531Y880D02*
X2553Y880D01*
X2567Y880D02*
X2589Y880D01*
X2631Y880D02*
X2653Y880D01*
X2667Y880D02*
X2689Y880D01*
X2731Y880D02*
X2753Y880D01*
X2867Y880D02*
X2889Y880D01*
X2931Y880D02*
X2953Y880D01*
X2967Y880D02*
X2988Y880D01*
X3031Y880D02*
X3053Y880D01*
X3167Y880D02*
X3188Y880D01*
X3231Y880D02*
X3253Y880D01*
X3267Y880D02*
X3288Y880D01*
X3331Y880D02*
X3353Y880D01*
X3367Y880D02*
X3388Y880D01*
X3431Y880D02*
X3453Y880D01*
X3567Y880D02*
X3588Y880D01*
X3631Y880D02*
X3653Y880D01*
X3667Y880D02*
X3688Y880D01*
X3731Y880D02*
X3752Y880D01*
X3767Y880D02*
X3788Y880D01*
X3831Y880D02*
X3853Y880D01*
X3867Y880D02*
X3888Y880D01*
X3931Y880D02*
X3952Y880D01*
X3967Y880D02*
X3988Y880D01*
X4031Y880D02*
X4052Y880D01*
X4067Y880D02*
X4088Y880D01*
X4131Y880D02*
X4152Y880D01*
X4267Y880D02*
X4288Y880D01*
X4331Y880D02*
X4352Y880D01*
X4367Y880D02*
X4388Y880D01*
X4431Y880D02*
X4452Y880D01*
X368Y879D02*
X390Y879D01*
X431Y879D02*
X453Y879D01*
X468Y879D02*
X490Y879D01*
X531Y879D02*
X553Y879D01*
X568Y879D02*
X590Y879D01*
X631Y879D02*
X653Y879D01*
X768Y879D02*
X790Y879D01*
X831Y879D02*
X852Y879D01*
X868Y879D02*
X890Y879D01*
X931Y879D02*
X952Y879D01*
X968Y879D02*
X990Y879D01*
X1031Y879D02*
X1052Y879D01*
X1068Y879D02*
X1090Y879D01*
X1131Y879D02*
X1152Y879D01*
X1168Y879D02*
X1190Y879D01*
X1231Y879D02*
X1252Y879D01*
X1268Y879D02*
X1290Y879D01*
X1330Y879D02*
X1352Y879D01*
X1468Y879D02*
X1490Y879D01*
X1531Y879D02*
X1552Y879D01*
X1568Y879D02*
X1590Y879D01*
X1630Y879D02*
X1652Y879D01*
X1768Y879D02*
X1789Y879D01*
X1830Y879D02*
X1852Y879D01*
X1868Y879D02*
X1889Y879D01*
X1930Y879D02*
X1952Y879D01*
X1968Y879D02*
X1989Y879D01*
X2030Y879D02*
X2052Y879D01*
X2168Y879D02*
X2189Y879D01*
X2230Y879D02*
X2252Y879D01*
X2268Y879D02*
X2289Y879D01*
X2330Y879D02*
X2352Y879D01*
X2368Y879D02*
X2389Y879D01*
X2430Y879D02*
X2452Y879D01*
X2468Y879D02*
X2489Y879D01*
X2530Y879D02*
X2552Y879D01*
X2568Y879D02*
X2589Y879D01*
X2630Y879D02*
X2652Y879D01*
X2667Y879D02*
X2689Y879D01*
X2730Y879D02*
X2752Y879D01*
X2867Y879D02*
X2889Y879D01*
X2930Y879D02*
X2952Y879D01*
X2967Y879D02*
X2989Y879D01*
X3030Y879D02*
X3052Y879D01*
X3167Y879D02*
X3189Y879D01*
X3230Y879D02*
X3252Y879D01*
X3267Y879D02*
X3289Y879D01*
X3330Y879D02*
X3352Y879D01*
X3367Y879D02*
X3389Y879D01*
X3430Y879D02*
X3452Y879D01*
X3567Y879D02*
X3589Y879D01*
X3630Y879D02*
X3652Y879D01*
X3667Y879D02*
X3689Y879D01*
X3730Y879D02*
X3752Y879D01*
X3767Y879D02*
X3789Y879D01*
X3830Y879D02*
X3852Y879D01*
X3867Y879D02*
X3889Y879D01*
X3930Y879D02*
X3952Y879D01*
X3967Y879D02*
X3989Y879D01*
X4030Y879D02*
X4052Y879D01*
X4067Y879D02*
X4089Y879D01*
X4130Y879D02*
X4152Y879D01*
X4267Y879D02*
X4289Y879D01*
X4330Y879D02*
X4352Y879D01*
X4367Y879D02*
X4389Y879D01*
X4430Y879D02*
X4452Y879D01*
X368Y878D02*
X391Y878D01*
X430Y878D02*
X452Y878D01*
X468Y878D02*
X491Y878D01*
X530Y878D02*
X552Y878D01*
X568Y878D02*
X590Y878D01*
X630Y878D02*
X652Y878D01*
X768Y878D02*
X790Y878D01*
X830Y878D02*
X852Y878D01*
X868Y878D02*
X890Y878D01*
X930Y878D02*
X952Y878D01*
X968Y878D02*
X990Y878D01*
X1030Y878D02*
X1052Y878D01*
X1068Y878D02*
X1090Y878D01*
X1130Y878D02*
X1152Y878D01*
X1168Y878D02*
X1190Y878D01*
X1230Y878D02*
X1252Y878D01*
X1268Y878D02*
X1290Y878D01*
X1330Y878D02*
X1352Y878D01*
X1468Y878D02*
X1490Y878D01*
X1530Y878D02*
X1552Y878D01*
X1568Y878D02*
X1590Y878D01*
X1630Y878D02*
X1652Y878D01*
X1768Y878D02*
X1790Y878D01*
X1830Y878D02*
X1852Y878D01*
X1868Y878D02*
X1890Y878D01*
X1930Y878D02*
X1952Y878D01*
X1968Y878D02*
X1990Y878D01*
X2030Y878D02*
X2052Y878D01*
X2168Y878D02*
X2190Y878D01*
X2230Y878D02*
X2252Y878D01*
X2268Y878D02*
X2290Y878D01*
X2329Y878D02*
X2352Y878D01*
X2368Y878D02*
X2390Y878D01*
X2430Y878D02*
X2452Y878D01*
X2468Y878D02*
X2490Y878D01*
X2529Y878D02*
X2552Y878D01*
X2568Y878D02*
X2590Y878D01*
X2629Y878D02*
X2652Y878D01*
X2668Y878D02*
X2690Y878D01*
X2729Y878D02*
X2752Y878D01*
X2868Y878D02*
X2890Y878D01*
X2929Y878D02*
X2952Y878D01*
X2968Y878D02*
X2990Y878D01*
X3029Y878D02*
X3052Y878D01*
X3168Y878D02*
X3190Y878D01*
X3229Y878D02*
X3252Y878D01*
X3268Y878D02*
X3290Y878D01*
X3329Y878D02*
X3352Y878D01*
X3368Y878D02*
X3390Y878D01*
X3429Y878D02*
X3452Y878D01*
X3568Y878D02*
X3590Y878D01*
X3629Y878D02*
X3652Y878D01*
X3668Y878D02*
X3690Y878D01*
X3729Y878D02*
X3752Y878D01*
X3768Y878D02*
X3790Y878D01*
X3829Y878D02*
X3852Y878D01*
X3868Y878D02*
X3890Y878D01*
X3929Y878D02*
X3952Y878D01*
X3968Y878D02*
X3990Y878D01*
X4029Y878D02*
X4052Y878D01*
X4068Y878D02*
X4090Y878D01*
X4129Y878D02*
X4152Y878D01*
X4268Y878D02*
X4290Y878D01*
X4329Y878D02*
X4352Y878D01*
X4368Y878D02*
X4390Y878D01*
X4429Y878D02*
X4452Y878D01*
X369Y877D02*
X392Y877D01*
X429Y877D02*
X452Y877D01*
X469Y877D02*
X492Y877D01*
X529Y877D02*
X552Y877D01*
X569Y877D02*
X592Y877D01*
X629Y877D02*
X652Y877D01*
X769Y877D02*
X792Y877D01*
X829Y877D02*
X852Y877D01*
X869Y877D02*
X892Y877D01*
X929Y877D02*
X952Y877D01*
X969Y877D02*
X992Y877D01*
X1029Y877D02*
X1052Y877D01*
X1069Y877D02*
X1092Y877D01*
X1129Y877D02*
X1151Y877D01*
X1169Y877D02*
X1192Y877D01*
X1228Y877D02*
X1251Y877D01*
X1269Y877D02*
X1292Y877D01*
X1328Y877D02*
X1351Y877D01*
X1469Y877D02*
X1492Y877D01*
X1529Y877D02*
X1551Y877D01*
X1569Y877D02*
X1592Y877D01*
X1628Y877D02*
X1651Y877D01*
X1769Y877D02*
X1792Y877D01*
X1828Y877D02*
X1851Y877D01*
X1869Y877D02*
X1892Y877D01*
X1928Y877D02*
X1951Y877D01*
X1968Y877D02*
X1991Y877D01*
X2028Y877D02*
X2051Y877D01*
X2168Y877D02*
X2191Y877D01*
X2228Y877D02*
X2251Y877D01*
X2268Y877D02*
X2291Y877D01*
X2328Y877D02*
X2351Y877D01*
X2368Y877D02*
X2391Y877D01*
X2428Y877D02*
X2451Y877D01*
X2468Y877D02*
X2491Y877D01*
X2528Y877D02*
X2551Y877D01*
X2568Y877D02*
X2591Y877D01*
X2628Y877D02*
X2651Y877D01*
X2668Y877D02*
X2691Y877D01*
X2728Y877D02*
X2751Y877D01*
X2868Y877D02*
X2891Y877D01*
X2928Y877D02*
X2951Y877D01*
X2968Y877D02*
X2991Y877D01*
X3028Y877D02*
X3051Y877D01*
X3168Y877D02*
X3191Y877D01*
X3228Y877D02*
X3251Y877D01*
X3268Y877D02*
X3291Y877D01*
X3328Y877D02*
X3351Y877D01*
X3368Y877D02*
X3391Y877D01*
X3428Y877D02*
X3451Y877D01*
X3568Y877D02*
X3591Y877D01*
X3628Y877D02*
X3651Y877D01*
X3668Y877D02*
X3691Y877D01*
X3728Y877D02*
X3751Y877D01*
X3768Y877D02*
X3791Y877D01*
X3828Y877D02*
X3851Y877D01*
X3868Y877D02*
X3891Y877D01*
X3928Y877D02*
X3951Y877D01*
X3968Y877D02*
X3991Y877D01*
X4028Y877D02*
X4051Y877D01*
X4068Y877D02*
X4091Y877D01*
X4128Y877D02*
X4151Y877D01*
X4268Y877D02*
X4291Y877D01*
X4328Y877D02*
X4351Y877D01*
X4368Y877D02*
X4391Y877D01*
X4428Y877D02*
X4451Y877D01*
X369Y876D02*
X393Y876D01*
X427Y876D02*
X451Y876D01*
X469Y876D02*
X493Y876D01*
X527Y876D02*
X551Y876D01*
X569Y876D02*
X593Y876D01*
X627Y876D02*
X651Y876D01*
X769Y876D02*
X793Y876D01*
X827Y876D02*
X851Y876D01*
X869Y876D02*
X893Y876D01*
X927Y876D02*
X951Y876D01*
X969Y876D02*
X993Y876D01*
X1027Y876D02*
X1051Y876D01*
X1069Y876D02*
X1093Y876D01*
X1127Y876D02*
X1151Y876D01*
X1169Y876D02*
X1193Y876D01*
X1227Y876D02*
X1251Y876D01*
X1269Y876D02*
X1293Y876D01*
X1327Y876D02*
X1351Y876D01*
X1469Y876D02*
X1493Y876D01*
X1527Y876D02*
X1551Y876D01*
X1569Y876D02*
X1593Y876D01*
X1627Y876D02*
X1651Y876D01*
X1769Y876D02*
X1793Y876D01*
X1827Y876D02*
X1851Y876D01*
X1869Y876D02*
X1893Y876D01*
X1927Y876D02*
X1951Y876D01*
X1969Y876D02*
X1993Y876D01*
X2027Y876D02*
X2051Y876D01*
X2169Y876D02*
X2193Y876D01*
X2227Y876D02*
X2251Y876D01*
X2269Y876D02*
X2293Y876D01*
X2327Y876D02*
X2351Y876D01*
X2369Y876D02*
X2393Y876D01*
X2427Y876D02*
X2451Y876D01*
X2469Y876D02*
X2493Y876D01*
X2527Y876D02*
X2551Y876D01*
X2569Y876D02*
X2593Y876D01*
X2627Y876D02*
X2651Y876D01*
X2669Y876D02*
X2693Y876D01*
X2727Y876D02*
X2751Y876D01*
X2869Y876D02*
X2893Y876D01*
X2927Y876D02*
X2951Y876D01*
X2969Y876D02*
X2993Y876D01*
X3027Y876D02*
X3051Y876D01*
X3169Y876D02*
X3193Y876D01*
X3227Y876D02*
X3251Y876D01*
X3269Y876D02*
X3293Y876D01*
X3327Y876D02*
X3351Y876D01*
X3369Y876D02*
X3392Y876D01*
X3427Y876D02*
X3451Y876D01*
X3569Y876D02*
X3592Y876D01*
X3627Y876D02*
X3651Y876D01*
X3669Y876D02*
X3692Y876D01*
X3727Y876D02*
X3751Y876D01*
X3769Y876D02*
X3792Y876D01*
X3827Y876D02*
X3851Y876D01*
X3869Y876D02*
X3892Y876D01*
X3927Y876D02*
X3951Y876D01*
X3969Y876D02*
X3992Y876D01*
X4027Y876D02*
X4051Y876D01*
X4069Y876D02*
X4092Y876D01*
X4127Y876D02*
X4151Y876D01*
X4269Y876D02*
X4292Y876D01*
X4327Y876D02*
X4351Y876D01*
X4369Y876D02*
X4392Y876D01*
X4427Y876D02*
X4451Y876D01*
X370Y875D02*
X394Y875D01*
X426Y875D02*
X451Y875D01*
X470Y875D02*
X494Y875D01*
X526Y875D02*
X551Y875D01*
X570Y875D02*
X594Y875D01*
X626Y875D02*
X651Y875D01*
X770Y875D02*
X794Y875D01*
X826Y875D02*
X851Y875D01*
X870Y875D02*
X894Y875D01*
X926Y875D02*
X951Y875D01*
X970Y875D02*
X994Y875D01*
X1026Y875D02*
X1051Y875D01*
X1070Y875D02*
X1094Y875D01*
X1126Y875D02*
X1151Y875D01*
X1170Y875D02*
X1194Y875D01*
X1226Y875D02*
X1251Y875D01*
X1270Y875D02*
X1294Y875D01*
X1326Y875D02*
X1350Y875D01*
X1470Y875D02*
X1494Y875D01*
X1526Y875D02*
X1551Y875D01*
X1570Y875D02*
X1594Y875D01*
X1626Y875D02*
X1650Y875D01*
X1769Y875D02*
X1794Y875D01*
X1826Y875D02*
X1850Y875D01*
X1870Y875D02*
X1894Y875D01*
X1926Y875D02*
X1950Y875D01*
X1969Y875D02*
X1994Y875D01*
X2026Y875D02*
X2050Y875D01*
X2169Y875D02*
X2194Y875D01*
X2226Y875D02*
X2250Y875D01*
X2269Y875D02*
X2294Y875D01*
X2326Y875D02*
X2350Y875D01*
X2369Y875D02*
X2394Y875D01*
X2426Y875D02*
X2450Y875D01*
X2469Y875D02*
X2494Y875D01*
X2526Y875D02*
X2550Y875D01*
X2569Y875D02*
X2594Y875D01*
X2626Y875D02*
X2650Y875D01*
X2669Y875D02*
X2694Y875D01*
X2726Y875D02*
X2750Y875D01*
X2869Y875D02*
X2894Y875D01*
X2926Y875D02*
X2950Y875D01*
X2969Y875D02*
X2994Y875D01*
X3026Y875D02*
X3050Y875D01*
X3169Y875D02*
X3194Y875D01*
X3226Y875D02*
X3250Y875D01*
X3269Y875D02*
X3294Y875D01*
X3326Y875D02*
X3350Y875D01*
X3369Y875D02*
X3394Y875D01*
X3426Y875D02*
X3450Y875D01*
X3569Y875D02*
X3594Y875D01*
X3626Y875D02*
X3650Y875D01*
X3669Y875D02*
X3694Y875D01*
X3726Y875D02*
X3750Y875D01*
X3769Y875D02*
X3794Y875D01*
X3826Y875D02*
X3850Y875D01*
X3869Y875D02*
X3894Y875D01*
X3926Y875D02*
X3950Y875D01*
X3969Y875D02*
X3994Y875D01*
X4026Y875D02*
X4050Y875D01*
X4069Y875D02*
X4094Y875D01*
X4126Y875D02*
X4150Y875D01*
X4269Y875D02*
X4294Y875D01*
X4326Y875D02*
X4350Y875D01*
X4369Y875D02*
X4394Y875D01*
X4426Y875D02*
X4450Y875D01*
X370Y874D02*
X395Y874D01*
X425Y874D02*
X450Y874D01*
X470Y874D02*
X495Y874D01*
X525Y874D02*
X550Y874D01*
X570Y874D02*
X595Y874D01*
X625Y874D02*
X650Y874D01*
X770Y874D02*
X795Y874D01*
X825Y874D02*
X850Y874D01*
X870Y874D02*
X895Y874D01*
X925Y874D02*
X950Y874D01*
X970Y874D02*
X995Y874D01*
X1025Y874D02*
X1050Y874D01*
X1070Y874D02*
X1095Y874D01*
X1125Y874D02*
X1150Y874D01*
X1170Y874D02*
X1195Y874D01*
X1225Y874D02*
X1250Y874D01*
X1270Y874D02*
X1295Y874D01*
X1325Y874D02*
X1350Y874D01*
X1470Y874D02*
X1495Y874D01*
X1525Y874D02*
X1550Y874D01*
X1570Y874D02*
X1595Y874D01*
X1625Y874D02*
X1650Y874D01*
X1770Y874D02*
X1795Y874D01*
X1825Y874D02*
X1850Y874D01*
X1870Y874D02*
X1895Y874D01*
X1925Y874D02*
X1950Y874D01*
X1970Y874D02*
X1995Y874D01*
X2025Y874D02*
X2050Y874D01*
X2170Y874D02*
X2195Y874D01*
X2225Y874D02*
X2250Y874D01*
X2270Y874D02*
X2295Y874D01*
X2325Y874D02*
X2350Y874D01*
X2370Y874D02*
X2395Y874D01*
X2425Y874D02*
X2450Y874D01*
X2470Y874D02*
X2495Y874D01*
X2525Y874D02*
X2550Y874D01*
X2570Y874D02*
X2595Y874D01*
X2625Y874D02*
X2650Y874D01*
X2670Y874D02*
X2695Y874D01*
X2725Y874D02*
X2750Y874D01*
X2870Y874D02*
X2895Y874D01*
X2925Y874D02*
X2950Y874D01*
X2970Y874D02*
X2995Y874D01*
X3024Y874D02*
X3050Y874D01*
X3170Y874D02*
X3195Y874D01*
X3225Y874D02*
X3250Y874D01*
X3270Y874D02*
X3295Y874D01*
X3324Y874D02*
X3350Y874D01*
X3370Y874D02*
X3395Y874D01*
X3424Y874D02*
X3450Y874D01*
X3570Y874D02*
X3595Y874D01*
X3624Y874D02*
X3650Y874D01*
X3670Y874D02*
X3695Y874D01*
X3724Y874D02*
X3750Y874D01*
X3770Y874D02*
X3795Y874D01*
X3824Y874D02*
X3850Y874D01*
X3870Y874D02*
X3895Y874D01*
X3924Y874D02*
X3950Y874D01*
X3970Y874D02*
X3995Y874D01*
X4024Y874D02*
X4050Y874D01*
X4070Y874D02*
X4095Y874D01*
X4124Y874D02*
X4150Y874D01*
X4270Y874D02*
X4295Y874D01*
X4324Y874D02*
X4350Y874D01*
X4370Y874D02*
X4395Y874D01*
X4424Y874D02*
X4450Y874D01*
X371Y873D02*
X397Y873D01*
X423Y873D02*
X449Y873D01*
X471Y873D02*
X497Y873D01*
X523Y873D02*
X549Y873D01*
X571Y873D02*
X597Y873D01*
X623Y873D02*
X649Y873D01*
X771Y873D02*
X797Y873D01*
X823Y873D02*
X849Y873D01*
X871Y873D02*
X897Y873D01*
X923Y873D02*
X949Y873D01*
X971Y873D02*
X997Y873D01*
X1023Y873D02*
X1049Y873D01*
X1071Y873D02*
X1097Y873D01*
X1123Y873D02*
X1149Y873D01*
X1171Y873D02*
X1197Y873D01*
X1223Y873D02*
X1249Y873D01*
X1271Y873D02*
X1297Y873D01*
X1323Y873D02*
X1349Y873D01*
X1471Y873D02*
X1497Y873D01*
X1523Y873D02*
X1549Y873D01*
X1571Y873D02*
X1597Y873D01*
X1623Y873D02*
X1649Y873D01*
X1771Y873D02*
X1797Y873D01*
X1823Y873D02*
X1849Y873D01*
X1871Y873D02*
X1897Y873D01*
X1923Y873D02*
X1949Y873D01*
X1971Y873D02*
X1997Y873D01*
X2023Y873D02*
X2049Y873D01*
X2171Y873D02*
X2197Y873D01*
X2223Y873D02*
X2249Y873D01*
X2271Y873D02*
X2297Y873D01*
X2323Y873D02*
X2349Y873D01*
X2371Y873D02*
X2397Y873D01*
X2423Y873D02*
X2449Y873D01*
X2471Y873D02*
X2497Y873D01*
X2523Y873D02*
X2549Y873D01*
X2571Y873D02*
X2597Y873D01*
X2623Y873D02*
X2649Y873D01*
X2671Y873D02*
X2697Y873D01*
X2723Y873D02*
X2749Y873D01*
X2871Y873D02*
X2897Y873D01*
X2923Y873D02*
X2949Y873D01*
X2971Y873D02*
X2997Y873D01*
X3023Y873D02*
X3049Y873D01*
X3170Y873D02*
X3197Y873D01*
X3223Y873D02*
X3249Y873D01*
X3270Y873D02*
X3297Y873D01*
X3323Y873D02*
X3349Y873D01*
X3370Y873D02*
X3397Y873D01*
X3423Y873D02*
X3449Y873D01*
X3570Y873D02*
X3597Y873D01*
X3623Y873D02*
X3649Y873D01*
X3670Y873D02*
X3697Y873D01*
X3723Y873D02*
X3749Y873D01*
X3770Y873D02*
X3797Y873D01*
X3823Y873D02*
X3849Y873D01*
X3870Y873D02*
X3897Y873D01*
X3923Y873D02*
X3949Y873D01*
X3970Y873D02*
X3997Y873D01*
X4023Y873D02*
X4049Y873D01*
X4070Y873D02*
X4097Y873D01*
X4123Y873D02*
X4149Y873D01*
X4270Y873D02*
X4297Y873D01*
X4323Y873D02*
X4349Y873D01*
X4370Y873D02*
X4397Y873D01*
X4423Y873D02*
X4449Y873D01*
X371Y872D02*
X399Y872D01*
X421Y872D02*
X449Y872D01*
X471Y872D02*
X499Y872D01*
X521Y872D02*
X549Y872D01*
X571Y872D02*
X599Y872D01*
X621Y872D02*
X649Y872D01*
X771Y872D02*
X799Y872D01*
X821Y872D02*
X849Y872D01*
X871Y872D02*
X899Y872D01*
X921Y872D02*
X949Y872D01*
X971Y872D02*
X999Y872D01*
X1021Y872D02*
X1049Y872D01*
X1071Y872D02*
X1099Y872D01*
X1121Y872D02*
X1149Y872D01*
X1171Y872D02*
X1199Y872D01*
X1221Y872D02*
X1249Y872D01*
X1271Y872D02*
X1299Y872D01*
X1321Y872D02*
X1349Y872D01*
X1471Y872D02*
X1499Y872D01*
X1521Y872D02*
X1549Y872D01*
X1571Y872D02*
X1599Y872D01*
X1621Y872D02*
X1649Y872D01*
X1771Y872D02*
X1799Y872D01*
X1821Y872D02*
X1849Y872D01*
X1871Y872D02*
X1899Y872D01*
X1921Y872D02*
X1949Y872D01*
X1971Y872D02*
X1999Y872D01*
X2021Y872D02*
X2049Y872D01*
X2171Y872D02*
X2199Y872D01*
X2221Y872D02*
X2249Y872D01*
X2271Y872D02*
X2299Y872D01*
X2321Y872D02*
X2349Y872D01*
X2371Y872D02*
X2399Y872D01*
X2421Y872D02*
X2449Y872D01*
X2471Y872D02*
X2499Y872D01*
X2521Y872D02*
X2549Y872D01*
X2571Y872D02*
X2599Y872D01*
X2621Y872D02*
X2649Y872D01*
X2671Y872D02*
X2699Y872D01*
X2721Y872D02*
X2749Y872D01*
X2871Y872D02*
X2899Y872D01*
X2921Y872D02*
X2949Y872D01*
X2971Y872D02*
X2999Y872D01*
X3021Y872D02*
X3049Y872D01*
X3171Y872D02*
X3199Y872D01*
X3221Y872D02*
X3249Y872D01*
X3271Y872D02*
X3299Y872D01*
X3321Y872D02*
X3349Y872D01*
X3371Y872D02*
X3399Y872D01*
X3421Y872D02*
X3448Y872D01*
X3571Y872D02*
X3599Y872D01*
X3621Y872D02*
X3648Y872D01*
X3671Y872D02*
X3699Y872D01*
X3721Y872D02*
X3748Y872D01*
X3771Y872D02*
X3799Y872D01*
X3821Y872D02*
X3848Y872D01*
X3871Y872D02*
X3899Y872D01*
X3921Y872D02*
X3948Y872D01*
X3971Y872D02*
X3999Y872D01*
X4021Y872D02*
X4048Y872D01*
X4071Y872D02*
X4099Y872D01*
X4121Y872D02*
X4148Y872D01*
X4271Y872D02*
X4299Y872D01*
X4321Y872D02*
X4348Y872D01*
X4371Y872D02*
X4399Y872D01*
X4420Y872D02*
X4448Y872D01*
X372Y871D02*
X402Y871D01*
X418Y871D02*
X448Y871D01*
X472Y871D02*
X502Y871D01*
X518Y871D02*
X548Y871D01*
X572Y871D02*
X602Y871D01*
X618Y871D02*
X648Y871D01*
X772Y871D02*
X802Y871D01*
X818Y871D02*
X848Y871D01*
X872Y871D02*
X902Y871D01*
X918Y871D02*
X948Y871D01*
X972Y871D02*
X1002Y871D01*
X1018Y871D02*
X1048Y871D01*
X1072Y871D02*
X1102Y871D01*
X1118Y871D02*
X1148Y871D01*
X1172Y871D02*
X1202Y871D01*
X1218Y871D02*
X1248Y871D01*
X1272Y871D02*
X1302Y871D01*
X1318Y871D02*
X1348Y871D01*
X1472Y871D02*
X1502Y871D01*
X1518Y871D02*
X1548Y871D01*
X1572Y871D02*
X1602Y871D01*
X1618Y871D02*
X1648Y871D01*
X1772Y871D02*
X1802Y871D01*
X1818Y871D02*
X1848Y871D01*
X1872Y871D02*
X1902Y871D01*
X1918Y871D02*
X1948Y871D01*
X1972Y871D02*
X2002Y871D01*
X2018Y871D02*
X2048Y871D01*
X2172Y871D02*
X2202Y871D01*
X2218Y871D02*
X2248Y871D01*
X2272Y871D02*
X2302Y871D01*
X2318Y871D02*
X2348Y871D01*
X2372Y871D02*
X2402Y871D01*
X2418Y871D02*
X2448Y871D01*
X2472Y871D02*
X2502Y871D01*
X2518Y871D02*
X2548Y871D01*
X2572Y871D02*
X2602Y871D01*
X2618Y871D02*
X2648Y871D01*
X2672Y871D02*
X2702Y871D01*
X2718Y871D02*
X2748Y871D01*
X2872Y871D02*
X2902Y871D01*
X2918Y871D02*
X2948Y871D01*
X2972Y871D02*
X3002Y871D01*
X3018Y871D02*
X3048Y871D01*
X3172Y871D02*
X3202Y871D01*
X3218Y871D02*
X3248Y871D01*
X3272Y871D02*
X3302Y871D01*
X3318Y871D02*
X3348Y871D01*
X3372Y871D02*
X3402Y871D01*
X3418Y871D02*
X3448Y871D01*
X3572Y871D02*
X3602Y871D01*
X3618Y871D02*
X3648Y871D01*
X3672Y871D02*
X3702Y871D01*
X3718Y871D02*
X3748Y871D01*
X3772Y871D02*
X3802Y871D01*
X3818Y871D02*
X3848Y871D01*
X3872Y871D02*
X3902Y871D01*
X3918Y871D02*
X3948Y871D01*
X3972Y871D02*
X4002Y871D01*
X4018Y871D02*
X4048Y871D01*
X4072Y871D02*
X4102Y871D01*
X4117Y871D02*
X4148Y871D01*
X4272Y871D02*
X4302Y871D01*
X4318Y871D02*
X4348Y871D01*
X4372Y871D02*
X4402Y871D01*
X4417Y871D02*
X4448Y871D01*
X373Y870D02*
X448Y870D01*
X473Y870D02*
X548Y870D01*
X573Y870D02*
X648Y870D01*
X773Y870D02*
X847Y870D01*
X873Y870D02*
X947Y870D01*
X973Y870D02*
X1047Y870D01*
X1073Y870D02*
X1147Y870D01*
X1173Y870D02*
X1247Y870D01*
X1273Y870D02*
X1347Y870D01*
X1473Y870D02*
X1547Y870D01*
X1573Y870D02*
X1647Y870D01*
X1773Y870D02*
X1847Y870D01*
X1873Y870D02*
X1947Y870D01*
X1973Y870D02*
X2047Y870D01*
X2173Y870D02*
X2247Y870D01*
X2273Y870D02*
X2347Y870D01*
X2372Y870D02*
X2447Y870D01*
X2472Y870D02*
X2547Y870D01*
X2572Y870D02*
X2647Y870D01*
X2672Y870D02*
X2747Y870D01*
X2872Y870D02*
X2947Y870D01*
X2972Y870D02*
X3047Y870D01*
X3172Y870D02*
X3247Y870D01*
X3272Y870D02*
X3347Y870D01*
X3372Y870D02*
X3447Y870D01*
X3572Y870D02*
X3647Y870D01*
X3672Y870D02*
X3747Y870D01*
X3772Y870D02*
X3847Y870D01*
X3872Y870D02*
X3947Y870D01*
X3972Y870D02*
X4047Y870D01*
X4072Y870D02*
X4147Y870D01*
X4272Y870D02*
X4347Y870D01*
X4372Y870D02*
X4447Y870D01*
X373Y869D02*
X447Y869D01*
X473Y869D02*
X547Y869D01*
X573Y869D02*
X647Y869D01*
X773Y869D02*
X847Y869D01*
X873Y869D02*
X947Y869D01*
X973Y869D02*
X1047Y869D01*
X1073Y869D02*
X1147Y869D01*
X1173Y869D02*
X1247Y869D01*
X1273Y869D02*
X1347Y869D01*
X1473Y869D02*
X1547Y869D01*
X1573Y869D02*
X1647Y869D01*
X1773Y869D02*
X1847Y869D01*
X1873Y869D02*
X1947Y869D01*
X1973Y869D02*
X2047Y869D01*
X2173Y869D02*
X2247Y869D01*
X2273Y869D02*
X2347Y869D01*
X2373Y869D02*
X2447Y869D01*
X2473Y869D02*
X2547Y869D01*
X2573Y869D02*
X2647Y869D01*
X2673Y869D02*
X2747Y869D01*
X2873Y869D02*
X2947Y869D01*
X2973Y869D02*
X3047Y869D01*
X3173Y869D02*
X3246Y869D01*
X3273Y869D02*
X3346Y869D01*
X3373Y869D02*
X3446Y869D01*
X3573Y869D02*
X3646Y869D01*
X3673Y869D02*
X3746Y869D01*
X3773Y869D02*
X3846Y869D01*
X3873Y869D02*
X3946Y869D01*
X3973Y869D02*
X4046Y869D01*
X4073Y869D02*
X4146Y869D01*
X4273Y869D02*
X4346Y869D01*
X4373Y869D02*
X4446Y869D01*
X374Y868D02*
X446Y868D01*
X474Y868D02*
X546Y868D01*
X574Y868D02*
X646Y868D01*
X774Y868D02*
X846Y868D01*
X874Y868D02*
X946Y868D01*
X974Y868D02*
X1046Y868D01*
X1074Y868D02*
X1146Y868D01*
X1174Y868D02*
X1246Y868D01*
X1274Y868D02*
X1346Y868D01*
X1474Y868D02*
X1546Y868D01*
X1574Y868D02*
X1646Y868D01*
X1774Y868D02*
X1846Y868D01*
X1874Y868D02*
X1946Y868D01*
X1974Y868D02*
X2046Y868D01*
X2174Y868D02*
X2246Y868D01*
X2274Y868D02*
X2346Y868D01*
X2374Y868D02*
X2446Y868D01*
X2474Y868D02*
X2546Y868D01*
X2574Y868D02*
X2646Y868D01*
X2674Y868D02*
X2746Y868D01*
X2874Y868D02*
X2946Y868D01*
X2974Y868D02*
X3046Y868D01*
X3174Y868D02*
X3246Y868D01*
X3274Y868D02*
X3346Y868D01*
X3374Y868D02*
X3446Y868D01*
X3574Y868D02*
X3646Y868D01*
X3674Y868D02*
X3746Y868D01*
X3774Y868D02*
X3846Y868D01*
X3874Y868D02*
X3946Y868D01*
X3974Y868D02*
X4046Y868D01*
X4074Y868D02*
X4146Y868D01*
X4274Y868D02*
X4346Y868D01*
X4374Y868D02*
X4446Y868D01*
X375Y867D02*
X445Y867D01*
X475Y867D02*
X545Y867D01*
X575Y867D02*
X645Y867D01*
X775Y867D02*
X845Y867D01*
X875Y867D02*
X945Y867D01*
X975Y867D02*
X1045Y867D01*
X1075Y867D02*
X1145Y867D01*
X1175Y867D02*
X1245Y867D01*
X1275Y867D02*
X1345Y867D01*
X1475Y867D02*
X1545Y867D01*
X1575Y867D02*
X1645Y867D01*
X1775Y867D02*
X1845Y867D01*
X1875Y867D02*
X1945Y867D01*
X1975Y867D02*
X2045Y867D01*
X2175Y867D02*
X2245Y867D01*
X2275Y867D02*
X2345Y867D01*
X2375Y867D02*
X2445Y867D01*
X2475Y867D02*
X2545Y867D01*
X2575Y867D02*
X2645Y867D01*
X2675Y867D02*
X2745Y867D01*
X2875Y867D02*
X2945Y867D01*
X2975Y867D02*
X3045Y867D01*
X3175Y867D02*
X3245Y867D01*
X3275Y867D02*
X3345Y867D01*
X3375Y867D02*
X3445Y867D01*
X3575Y867D02*
X3645Y867D01*
X3675Y867D02*
X3745Y867D01*
X3775Y867D02*
X3845Y867D01*
X3875Y867D02*
X3945Y867D01*
X3975Y867D02*
X4045Y867D01*
X4075Y867D02*
X4145Y867D01*
X4274Y867D02*
X4345Y867D01*
X4374Y867D02*
X4445Y867D01*
X376Y866D02*
X444Y866D01*
X476Y866D02*
X544Y866D01*
X576Y866D02*
X644Y866D01*
X776Y866D02*
X844Y866D01*
X876Y866D02*
X944Y866D01*
X976Y866D02*
X1044Y866D01*
X1076Y866D02*
X1144Y866D01*
X1176Y866D02*
X1244Y866D01*
X1276Y866D02*
X1344Y866D01*
X1476Y866D02*
X1544Y866D01*
X1576Y866D02*
X1644Y866D01*
X1776Y866D02*
X1844Y866D01*
X1876Y866D02*
X1944Y866D01*
X1976Y866D02*
X2044Y866D01*
X2176Y866D02*
X2244Y866D01*
X2276Y866D02*
X2344Y866D01*
X2376Y866D02*
X2444Y866D01*
X2476Y866D02*
X2544Y866D01*
X2576Y866D02*
X2644Y866D01*
X2676Y866D02*
X2744Y866D01*
X2876Y866D02*
X2944Y866D01*
X2976Y866D02*
X3044Y866D01*
X3176Y866D02*
X3244Y866D01*
X3276Y866D02*
X3344Y866D01*
X3375Y866D02*
X3444Y866D01*
X3575Y866D02*
X3644Y866D01*
X3675Y866D02*
X3744Y866D01*
X3775Y866D02*
X3844Y866D01*
X3875Y866D02*
X3944Y866D01*
X3975Y866D02*
X4044Y866D01*
X4075Y866D02*
X4144Y866D01*
X4275Y866D02*
X4344Y866D01*
X4375Y866D02*
X4444Y866D01*
X377Y865D02*
X444Y865D01*
X477Y865D02*
X544Y865D01*
X577Y865D02*
X643Y865D01*
X777Y865D02*
X843Y865D01*
X877Y865D02*
X943Y865D01*
X977Y865D02*
X1043Y865D01*
X1077Y865D02*
X1143Y865D01*
X1177Y865D02*
X1243Y865D01*
X1277Y865D02*
X1343Y865D01*
X1477Y865D02*
X1543Y865D01*
X1577Y865D02*
X1643Y865D01*
X1777Y865D02*
X1843Y865D01*
X1877Y865D02*
X1943Y865D01*
X1977Y865D02*
X2043Y865D01*
X2177Y865D02*
X2243Y865D01*
X2277Y865D02*
X2343Y865D01*
X2376Y865D02*
X2443Y865D01*
X2477Y865D02*
X2543Y865D01*
X2576Y865D02*
X2643Y865D01*
X2676Y865D02*
X2743Y865D01*
X2876Y865D02*
X2943Y865D01*
X2976Y865D02*
X3043Y865D01*
X3176Y865D02*
X3243Y865D01*
X3276Y865D02*
X3343Y865D01*
X3376Y865D02*
X3443Y865D01*
X3576Y865D02*
X3643Y865D01*
X3676Y865D02*
X3743Y865D01*
X3776Y865D02*
X3843Y865D01*
X3876Y865D02*
X3943Y865D01*
X3976Y865D02*
X4043Y865D01*
X4076Y865D02*
X4143Y865D01*
X4276Y865D02*
X4343Y865D01*
X4376Y865D02*
X4443Y865D01*
X378Y864D02*
X443Y864D01*
X478Y864D02*
X543Y864D01*
X578Y864D02*
X643Y864D01*
X778Y864D02*
X843Y864D01*
X878Y864D02*
X943Y864D01*
X978Y864D02*
X1043Y864D01*
X1078Y864D02*
X1142Y864D01*
X1178Y864D02*
X1242Y864D01*
X1278Y864D02*
X1342Y864D01*
X1478Y864D02*
X1542Y864D01*
X1578Y864D02*
X1642Y864D01*
X1778Y864D02*
X1842Y864D01*
X1878Y864D02*
X1942Y864D01*
X1977Y864D02*
X2042Y864D01*
X2177Y864D02*
X2242Y864D01*
X2277Y864D02*
X2342Y864D01*
X2377Y864D02*
X2442Y864D01*
X2477Y864D02*
X2542Y864D01*
X2577Y864D02*
X2642Y864D01*
X2677Y864D02*
X2742Y864D01*
X2877Y864D02*
X2942Y864D01*
X2977Y864D02*
X3042Y864D01*
X3177Y864D02*
X3242Y864D01*
X3277Y864D02*
X3342Y864D01*
X3377Y864D02*
X3442Y864D01*
X3577Y864D02*
X3642Y864D01*
X3677Y864D02*
X3742Y864D01*
X3777Y864D02*
X3842Y864D01*
X3877Y864D02*
X3942Y864D01*
X3977Y864D02*
X4042Y864D01*
X4077Y864D02*
X4142Y864D01*
X4277Y864D02*
X4342Y864D01*
X4377Y864D02*
X4442Y864D01*
X379Y863D02*
X441Y863D01*
X479Y863D02*
X541Y863D01*
X579Y863D02*
X641Y863D01*
X779Y863D02*
X841Y863D01*
X879Y863D02*
X941Y863D01*
X979Y863D02*
X1041Y863D01*
X1079Y863D02*
X1141Y863D01*
X1179Y863D02*
X1241Y863D01*
X1279Y863D02*
X1341Y863D01*
X1479Y863D02*
X1541Y863D01*
X1579Y863D02*
X1641Y863D01*
X1779Y863D02*
X1841Y863D01*
X1879Y863D02*
X1941Y863D01*
X1979Y863D02*
X2041Y863D01*
X2179Y863D02*
X2241Y863D01*
X2279Y863D02*
X2341Y863D01*
X2379Y863D02*
X2441Y863D01*
X2479Y863D02*
X2541Y863D01*
X2579Y863D02*
X2641Y863D01*
X2679Y863D02*
X2741Y863D01*
X2878Y863D02*
X2941Y863D01*
X2978Y863D02*
X3041Y863D01*
X3178Y863D02*
X3241Y863D01*
X3278Y863D02*
X3341Y863D01*
X3378Y863D02*
X3441Y863D01*
X3578Y863D02*
X3641Y863D01*
X3678Y863D02*
X3741Y863D01*
X3778Y863D02*
X3841Y863D01*
X3878Y863D02*
X3941Y863D01*
X3978Y863D02*
X4041Y863D01*
X4078Y863D02*
X4141Y863D01*
X4278Y863D02*
X4341Y863D01*
X4378Y863D02*
X4441Y863D01*
X380Y862D02*
X440Y862D01*
X480Y862D02*
X540Y862D01*
X580Y862D02*
X640Y862D01*
X780Y862D02*
X840Y862D01*
X880Y862D02*
X940Y862D01*
X980Y862D02*
X1040Y862D01*
X1080Y862D02*
X1140Y862D01*
X1180Y862D02*
X1240Y862D01*
X1280Y862D02*
X1340Y862D01*
X1480Y862D02*
X1540Y862D01*
X1580Y862D02*
X1640Y862D01*
X1780Y862D02*
X1840Y862D01*
X1880Y862D02*
X1940Y862D01*
X1980Y862D02*
X2040Y862D01*
X2180Y862D02*
X2240Y862D01*
X2280Y862D02*
X2340Y862D01*
X2380Y862D02*
X2440Y862D01*
X2480Y862D02*
X2540Y862D01*
X2580Y862D02*
X2640Y862D01*
X2680Y862D02*
X2740Y862D01*
X2880Y862D02*
X2940Y862D01*
X2980Y862D02*
X3040Y862D01*
X3180Y862D02*
X3240Y862D01*
X3280Y862D02*
X3340Y862D01*
X3380Y862D02*
X3440Y862D01*
X3580Y862D02*
X3640Y862D01*
X3680Y862D02*
X3740Y862D01*
X3779Y862D02*
X3840Y862D01*
X3879Y862D02*
X3940Y862D01*
X3979Y862D02*
X4040Y862D01*
X4079Y862D02*
X4140Y862D01*
X4279Y862D02*
X4340Y862D01*
X4379Y862D02*
X4440Y862D01*
X381Y861D02*
X439Y861D01*
X481Y861D02*
X539Y861D01*
X581Y861D02*
X639Y861D01*
X781Y861D02*
X839Y861D01*
X881Y861D02*
X939Y861D01*
X981Y861D02*
X1039Y861D01*
X1081Y861D02*
X1139Y861D01*
X1181Y861D02*
X1239Y861D01*
X1281Y861D02*
X1339Y861D01*
X1481Y861D02*
X1539Y861D01*
X1581Y861D02*
X1639Y861D01*
X1781Y861D02*
X1839Y861D01*
X1881Y861D02*
X1939Y861D01*
X1981Y861D02*
X2039Y861D01*
X2181Y861D02*
X2239Y861D01*
X2281Y861D02*
X2339Y861D01*
X2381Y861D02*
X2439Y861D01*
X2481Y861D02*
X2539Y861D01*
X2581Y861D02*
X2639Y861D01*
X2681Y861D02*
X2739Y861D01*
X2881Y861D02*
X2939Y861D01*
X2981Y861D02*
X3039Y861D01*
X3181Y861D02*
X3239Y861D01*
X3281Y861D02*
X3339Y861D01*
X3381Y861D02*
X3439Y861D01*
X3581Y861D02*
X3639Y861D01*
X3681Y861D02*
X3739Y861D01*
X3781Y861D02*
X3839Y861D01*
X3881Y861D02*
X3939Y861D01*
X3981Y861D02*
X4039Y861D01*
X4081Y861D02*
X4139Y861D01*
X4281Y861D02*
X4339Y861D01*
X4381Y861D02*
X4439Y861D01*
X382Y860D02*
X438Y860D01*
X482Y860D02*
X538Y860D01*
X582Y860D02*
X638Y860D01*
X782Y860D02*
X838Y860D01*
X882Y860D02*
X938Y860D01*
X982Y860D02*
X1038Y860D01*
X1082Y860D02*
X1138Y860D01*
X1182Y860D02*
X1238Y860D01*
X1282Y860D02*
X1338Y860D01*
X1482Y860D02*
X1538Y860D01*
X1582Y860D02*
X1638Y860D01*
X1782Y860D02*
X1838Y860D01*
X1882Y860D02*
X1938Y860D01*
X1982Y860D02*
X2038Y860D01*
X2182Y860D02*
X2238Y860D01*
X2282Y860D02*
X2338Y860D01*
X2382Y860D02*
X2438Y860D01*
X2482Y860D02*
X2538Y860D01*
X2582Y860D02*
X2638Y860D01*
X2682Y860D02*
X2737Y860D01*
X2882Y860D02*
X2938Y860D01*
X2982Y860D02*
X3037Y860D01*
X3182Y860D02*
X3237Y860D01*
X3282Y860D02*
X3337Y860D01*
X3382Y860D02*
X3437Y860D01*
X3582Y860D02*
X3637Y860D01*
X3682Y860D02*
X3737Y860D01*
X3782Y860D02*
X3837Y860D01*
X3882Y860D02*
X3937Y860D01*
X3982Y860D02*
X4037Y860D01*
X4082Y860D02*
X4137Y860D01*
X4282Y860D02*
X4337Y860D01*
X4382Y860D02*
X4437Y860D01*
X384Y859D02*
X436Y859D01*
X484Y859D02*
X536Y859D01*
X584Y859D02*
X636Y859D01*
X784Y859D02*
X836Y859D01*
X884Y859D02*
X936Y859D01*
X984Y859D02*
X1036Y859D01*
X1084Y859D02*
X1136Y859D01*
X1184Y859D02*
X1236Y859D01*
X1284Y859D02*
X1336Y859D01*
X1484Y859D02*
X1536Y859D01*
X1584Y859D02*
X1636Y859D01*
X1784Y859D02*
X1836Y859D01*
X1884Y859D02*
X1936Y859D01*
X1984Y859D02*
X2036Y859D01*
X2184Y859D02*
X2236Y859D01*
X2284Y859D02*
X2336Y859D01*
X2384Y859D02*
X2436Y859D01*
X2484Y859D02*
X2536Y859D01*
X2584Y859D02*
X2636Y859D01*
X2684Y859D02*
X2736Y859D01*
X2883Y859D02*
X2936Y859D01*
X2984Y859D02*
X3036Y859D01*
X3183Y859D02*
X3236Y859D01*
X3283Y859D02*
X3336Y859D01*
X3383Y859D02*
X3436Y859D01*
X3583Y859D02*
X3636Y859D01*
X3683Y859D02*
X3736Y859D01*
X3783Y859D02*
X3836Y859D01*
X3883Y859D02*
X3936Y859D01*
X3983Y859D02*
X4036Y859D01*
X4083Y859D02*
X4136Y859D01*
X4283Y859D02*
X4336Y859D01*
X4383Y859D02*
X4436Y859D01*
X385Y858D02*
X435Y858D01*
X485Y858D02*
X535Y858D01*
X585Y858D02*
X635Y858D01*
X785Y858D02*
X835Y858D01*
X885Y858D02*
X935Y858D01*
X985Y858D02*
X1035Y858D01*
X1085Y858D02*
X1135Y858D01*
X1185Y858D02*
X1235Y858D01*
X1285Y858D02*
X1335Y858D01*
X1485Y858D02*
X1535Y858D01*
X1585Y858D02*
X1635Y858D01*
X1785Y858D02*
X1835Y858D01*
X1885Y858D02*
X1935Y858D01*
X1985Y858D02*
X2035Y858D01*
X2185Y858D02*
X2235Y858D01*
X2285Y858D02*
X2335Y858D01*
X2385Y858D02*
X2435Y858D01*
X2485Y858D02*
X2535Y858D01*
X2585Y858D02*
X2635Y858D01*
X2685Y858D02*
X2735Y858D01*
X2885Y858D02*
X2935Y858D01*
X2985Y858D02*
X3035Y858D01*
X3185Y858D02*
X3235Y858D01*
X3285Y858D02*
X3335Y858D01*
X3385Y858D02*
X3435Y858D01*
X3585Y858D02*
X3634Y858D01*
X3685Y858D02*
X3734Y858D01*
X3785Y858D02*
X3835Y858D01*
X3885Y858D02*
X3934Y858D01*
X3985Y858D02*
X4034Y858D01*
X4085Y858D02*
X4134Y858D01*
X4285Y858D02*
X4334Y858D01*
X4385Y858D02*
X4434Y858D01*
X387Y857D02*
X433Y857D01*
X487Y857D02*
X533Y857D01*
X587Y857D02*
X633Y857D01*
X787Y857D02*
X833Y857D01*
X887Y857D02*
X933Y857D01*
X987Y857D02*
X1033Y857D01*
X1087Y857D02*
X1133Y857D01*
X1187Y857D02*
X1233Y857D01*
X1287Y857D02*
X1333Y857D01*
X1487Y857D02*
X1533Y857D01*
X1587Y857D02*
X1633Y857D01*
X1787Y857D02*
X1833Y857D01*
X1887Y857D02*
X1933Y857D01*
X1987Y857D02*
X2033Y857D01*
X2187Y857D02*
X2233Y857D01*
X2287Y857D02*
X2333Y857D01*
X2387Y857D02*
X2433Y857D01*
X2487Y857D02*
X2533Y857D01*
X2587Y857D02*
X2633Y857D01*
X2687Y857D02*
X2733Y857D01*
X2887Y857D02*
X2933Y857D01*
X2987Y857D02*
X3033Y857D01*
X3187Y857D02*
X3233Y857D01*
X3287Y857D02*
X3333Y857D01*
X3387Y857D02*
X3433Y857D01*
X3587Y857D02*
X3633Y857D01*
X3687Y857D02*
X3733Y857D01*
X3787Y857D02*
X3833Y857D01*
X3887Y857D02*
X3933Y857D01*
X3987Y857D02*
X4033Y857D01*
X4087Y857D02*
X4133Y857D01*
X4287Y857D02*
X4333Y857D01*
X4387Y857D02*
X4433Y857D01*
X389Y856D02*
X431Y856D01*
X489Y856D02*
X531Y856D01*
X589Y856D02*
X631Y856D01*
X789Y856D02*
X831Y856D01*
X889Y856D02*
X931Y856D01*
X989Y856D02*
X1031Y856D01*
X1089Y856D02*
X1131Y856D01*
X1189Y856D02*
X1231Y856D01*
X1289Y856D02*
X1331Y856D01*
X1489Y856D02*
X1531Y856D01*
X1589Y856D02*
X1631Y856D01*
X1789Y856D02*
X1831Y856D01*
X1889Y856D02*
X1931Y856D01*
X1989Y856D02*
X2031Y856D01*
X2189Y856D02*
X2231Y856D01*
X2289Y856D02*
X2331Y856D01*
X2389Y856D02*
X2431Y856D01*
X2489Y856D02*
X2531Y856D01*
X2589Y856D02*
X2631Y856D01*
X2689Y856D02*
X2731Y856D01*
X2888Y856D02*
X2931Y856D01*
X2989Y856D02*
X3031Y856D01*
X3188Y856D02*
X3231Y856D01*
X3289Y856D02*
X3331Y856D01*
X3388Y856D02*
X3431Y856D01*
X3588Y856D02*
X3631Y856D01*
X3688Y856D02*
X3731Y856D01*
X3788Y856D02*
X3831Y856D01*
X3888Y856D02*
X3931Y856D01*
X3988Y856D02*
X4031Y856D01*
X4088Y856D02*
X4131Y856D01*
X4288Y856D02*
X4331Y856D01*
X4388Y856D02*
X4431Y856D01*
X391Y855D02*
X429Y855D01*
X491Y855D02*
X529Y855D01*
X591Y855D02*
X629Y855D01*
X791Y855D02*
X829Y855D01*
X891Y855D02*
X929Y855D01*
X991Y855D02*
X1029Y855D01*
X1091Y855D02*
X1129Y855D01*
X1191Y855D02*
X1229Y855D01*
X1291Y855D02*
X1329Y855D01*
X1491Y855D02*
X1529Y855D01*
X1591Y855D02*
X1629Y855D01*
X1791Y855D02*
X1829Y855D01*
X1891Y855D02*
X1929Y855D01*
X1991Y855D02*
X2029Y855D01*
X2191Y855D02*
X2229Y855D01*
X2291Y855D02*
X2329Y855D01*
X2391Y855D02*
X2429Y855D01*
X2491Y855D02*
X2529Y855D01*
X2591Y855D02*
X2629Y855D01*
X2691Y855D02*
X2729Y855D01*
X2891Y855D02*
X2929Y855D01*
X2991Y855D02*
X3029Y855D01*
X3191Y855D02*
X3229Y855D01*
X3291Y855D02*
X3329Y855D01*
X3391Y855D02*
X3429Y855D01*
X3591Y855D02*
X3629Y855D01*
X3691Y855D02*
X3729Y855D01*
X3790Y855D02*
X3829Y855D01*
X3891Y855D02*
X3929Y855D01*
X3990Y855D02*
X4029Y855D01*
X4090Y855D02*
X4129Y855D01*
X4290Y855D02*
X4329Y855D01*
X4390Y855D02*
X4429Y855D01*
X393Y854D02*
X427Y854D01*
X493Y854D02*
X527Y854D01*
X593Y854D02*
X627Y854D01*
X793Y854D02*
X827Y854D01*
X893Y854D02*
X927Y854D01*
X993Y854D02*
X1027Y854D01*
X1093Y854D02*
X1127Y854D01*
X1193Y854D02*
X1227Y854D01*
X1293Y854D02*
X1327Y854D01*
X1493Y854D02*
X1527Y854D01*
X1593Y854D02*
X1627Y854D01*
X1793Y854D02*
X1827Y854D01*
X1893Y854D02*
X1927Y854D01*
X1993Y854D02*
X2027Y854D01*
X2193Y854D02*
X2227Y854D01*
X2293Y854D02*
X2327Y854D01*
X2393Y854D02*
X2427Y854D01*
X2493Y854D02*
X2527Y854D01*
X2593Y854D02*
X2627Y854D01*
X2693Y854D02*
X2727Y854D01*
X2893Y854D02*
X2927Y854D01*
X2993Y854D02*
X3027Y854D01*
X3193Y854D02*
X3227Y854D01*
X3293Y854D02*
X3327Y854D01*
X3393Y854D02*
X3427Y854D01*
X3593Y854D02*
X3627Y854D01*
X3693Y854D02*
X3727Y854D01*
X3793Y854D02*
X3827Y854D01*
X3893Y854D02*
X3927Y854D01*
X3993Y854D02*
X4027Y854D01*
X4093Y854D02*
X4127Y854D01*
X4293Y854D02*
X4327Y854D01*
X4393Y854D02*
X4426Y854D01*
X396Y853D02*
X424Y853D01*
X496Y853D02*
X524Y853D01*
X596Y853D02*
X624Y853D01*
X796Y853D02*
X824Y853D01*
X896Y853D02*
X924Y853D01*
X996Y853D02*
X1024Y853D01*
X1096Y853D02*
X1124Y853D01*
X1196Y853D02*
X1224Y853D01*
X1296Y853D02*
X1324Y853D01*
X1496Y853D02*
X1524Y853D01*
X1596Y853D02*
X1624Y853D01*
X1796Y853D02*
X1824Y853D01*
X1896Y853D02*
X1924Y853D01*
X1996Y853D02*
X2024Y853D01*
X2196Y853D02*
X2224Y853D01*
X2296Y853D02*
X2324Y853D01*
X2396Y853D02*
X2424Y853D01*
X2496Y853D02*
X2524Y853D01*
X2596Y853D02*
X2624Y853D01*
X2696Y853D02*
X2724Y853D01*
X2896Y853D02*
X2924Y853D01*
X2996Y853D02*
X3024Y853D01*
X3196Y853D02*
X3224Y853D01*
X3296Y853D02*
X3324Y853D01*
X3396Y853D02*
X3424Y853D01*
X3596Y853D02*
X3624Y853D01*
X3696Y853D02*
X3724Y853D01*
X3795Y853D02*
X3824Y853D01*
X3895Y853D02*
X3924Y853D01*
X3995Y853D02*
X4024Y853D01*
X4095Y853D02*
X4124Y853D01*
X4295Y853D02*
X4324Y853D01*
X4395Y853D02*
X4424Y853D01*
X399Y852D02*
X421Y852D01*
X499Y852D02*
X521Y852D01*
X599Y852D02*
X621Y852D01*
X799Y852D02*
X821Y852D01*
X899Y852D02*
X921Y852D01*
X999Y852D02*
X1021Y852D01*
X1099Y852D02*
X1121Y852D01*
X1199Y852D02*
X1221Y852D01*
X1299Y852D02*
X1321Y852D01*
X1499Y852D02*
X1521Y852D01*
X1599Y852D02*
X1621Y852D01*
X1799Y852D02*
X1821Y852D01*
X1899Y852D02*
X1921Y852D01*
X1999Y852D02*
X2021Y852D01*
X2199Y852D02*
X2221Y852D01*
X2299Y852D02*
X2321Y852D01*
X2399Y852D02*
X2421Y852D01*
X2499Y852D02*
X2521Y852D01*
X2599Y852D02*
X2621Y852D01*
X2699Y852D02*
X2721Y852D01*
X2899Y852D02*
X2921Y852D01*
X2999Y852D02*
X3021Y852D01*
X3199Y852D02*
X3221Y852D01*
X3299Y852D02*
X3321Y852D01*
X3399Y852D02*
X3421Y852D01*
X3599Y852D02*
X3621Y852D01*
X3699Y852D02*
X3720Y852D01*
X3799Y852D02*
X3821Y852D01*
X3899Y852D02*
X3921Y852D01*
X3999Y852D02*
X4021Y852D01*
X4099Y852D02*
X4120Y852D01*
X4299Y852D02*
X4321Y852D01*
X4399Y852D02*
X4420Y852D01*
X404Y851D02*
X416Y851D01*
X504Y851D02*
X516Y851D01*
X604Y851D02*
X616Y851D01*
X804Y851D02*
X816Y851D01*
X904Y851D02*
X916Y851D01*
X1004Y851D02*
X1016Y851D01*
X1104Y851D02*
X1116Y851D01*
X1204Y851D02*
X1216Y851D01*
X1304Y851D02*
X1316Y851D01*
X1504Y851D02*
X1516Y851D01*
X1604Y851D02*
X1616Y851D01*
X1804Y851D02*
X1816Y851D01*
X1904Y851D02*
X1916Y851D01*
X2004Y851D02*
X2016Y851D01*
X2204Y851D02*
X2216Y851D01*
X2304Y851D02*
X2316Y851D01*
X2404Y851D02*
X2416Y851D01*
X2504Y851D02*
X2516Y851D01*
X2604Y851D02*
X2616Y851D01*
X2704Y851D02*
X2716Y851D01*
X2904Y851D02*
X2916Y851D01*
X3004Y851D02*
X3016Y851D01*
X3204Y851D02*
X3216Y851D01*
X3304Y851D02*
X3316Y851D01*
X3404Y851D02*
X3416Y851D01*
X3604Y851D02*
X3616Y851D01*
X3704Y851D02*
X3716Y851D01*
X3803Y851D02*
X3816Y851D01*
X3904Y851D02*
X3916Y851D01*
X4004Y851D02*
X4016Y851D01*
X4104Y851D02*
X4116Y851D01*
X4303Y851D02*
X4316Y851D01*
X4404Y851D02*
X4416Y851D01*
X602Y643D02*
X618Y643D01*
X1002Y643D02*
X1018Y643D01*
X1302Y643D02*
X1318Y643D01*
X2002Y643D02*
X2018Y643D01*
X2402Y643D02*
X2418Y643D01*
X2702Y643D02*
X2718Y643D01*
X3402Y643D02*
X3418Y643D01*
X3801Y643D02*
X3818Y643D01*
X4102Y643D02*
X4118Y643D01*
X598Y642D02*
X622Y642D01*
X998Y642D02*
X1022Y642D01*
X1298Y642D02*
X1322Y642D01*
X1998Y642D02*
X2022Y642D01*
X2398Y642D02*
X2422Y642D01*
X2698Y642D02*
X2722Y642D01*
X3398Y642D02*
X3422Y642D01*
X3798Y642D02*
X3822Y642D01*
X4098Y642D02*
X4122Y642D01*
X595Y641D02*
X625Y641D01*
X995Y641D02*
X1025Y641D01*
X1295Y641D02*
X1325Y641D01*
X1995Y641D02*
X2025Y641D01*
X2395Y641D02*
X2425Y641D01*
X2695Y641D02*
X2725Y641D01*
X3395Y641D02*
X3425Y641D01*
X3795Y641D02*
X3825Y641D01*
X4095Y641D02*
X4125Y641D01*
X592Y640D02*
X628Y640D01*
X992Y640D02*
X1028Y640D01*
X1292Y640D02*
X1328Y640D01*
X1992Y640D02*
X2028Y640D01*
X2392Y640D02*
X2428Y640D01*
X2692Y640D02*
X2728Y640D01*
X3392Y640D02*
X3427Y640D01*
X3792Y640D02*
X3827Y640D01*
X4092Y640D02*
X4127Y640D01*
X590Y639D02*
X630Y639D01*
X990Y639D02*
X1030Y639D01*
X1290Y639D02*
X1330Y639D01*
X1990Y639D02*
X2030Y639D01*
X2390Y639D02*
X2430Y639D01*
X2690Y639D02*
X2730Y639D01*
X3390Y639D02*
X3430Y639D01*
X3790Y639D02*
X3830Y639D01*
X4090Y639D02*
X4129Y639D01*
X588Y638D02*
X632Y638D01*
X988Y638D02*
X1032Y638D01*
X1288Y638D02*
X1332Y638D01*
X1988Y638D02*
X2032Y638D01*
X2388Y638D02*
X2432Y638D01*
X2688Y638D02*
X2732Y638D01*
X3388Y638D02*
X3432Y638D01*
X3788Y638D02*
X3832Y638D01*
X4088Y638D02*
X4132Y638D01*
X587Y637D02*
X634Y637D01*
X986Y637D02*
X1034Y637D01*
X1286Y637D02*
X1334Y637D01*
X1986Y637D02*
X2034Y637D01*
X2386Y637D02*
X2434Y637D01*
X2686Y637D02*
X2733Y637D01*
X3386Y637D02*
X3433Y637D01*
X3786Y637D02*
X3833Y637D01*
X4086Y637D02*
X4133Y637D01*
X585Y636D02*
X635Y636D01*
X985Y636D02*
X1035Y636D01*
X1285Y636D02*
X1335Y636D01*
X1985Y636D02*
X2035Y636D01*
X2385Y636D02*
X2435Y636D01*
X2685Y636D02*
X2735Y636D01*
X3384Y636D02*
X3435Y636D01*
X3784Y636D02*
X3835Y636D01*
X4084Y636D02*
X4135Y636D01*
X583Y635D02*
X637Y635D01*
X983Y635D02*
X1037Y635D01*
X1283Y635D02*
X1337Y635D01*
X1983Y635D02*
X2037Y635D01*
X2383Y635D02*
X2437Y635D01*
X2683Y635D02*
X2737Y635D01*
X3383Y635D02*
X3436Y635D01*
X3783Y635D02*
X3836Y635D01*
X4083Y635D02*
X4136Y635D01*
X582Y634D02*
X638Y634D01*
X982Y634D02*
X1038Y634D01*
X1282Y634D02*
X1338Y634D01*
X1982Y634D02*
X2038Y634D01*
X2382Y634D02*
X2438Y634D01*
X2682Y634D02*
X2738Y634D01*
X3382Y634D02*
X3438Y634D01*
X3782Y634D02*
X3838Y634D01*
X4082Y634D02*
X4138Y634D01*
X581Y633D02*
X640Y633D01*
X981Y633D02*
X1039Y633D01*
X1281Y633D02*
X1339Y633D01*
X1981Y633D02*
X2039Y633D01*
X2380Y633D02*
X2439Y633D01*
X2680Y633D02*
X2739Y633D01*
X3380Y633D02*
X3439Y633D01*
X3780Y633D02*
X3839Y633D01*
X4080Y633D02*
X4139Y633D01*
X580Y632D02*
X641Y632D01*
X980Y632D02*
X1041Y632D01*
X1279Y632D02*
X1341Y632D01*
X1979Y632D02*
X2040Y632D01*
X2379Y632D02*
X2440Y632D01*
X2679Y632D02*
X2740Y632D01*
X3379Y632D02*
X3440Y632D01*
X3779Y632D02*
X3840Y632D01*
X4079Y632D02*
X4140Y632D01*
X578Y631D02*
X642Y631D01*
X978Y631D02*
X1042Y631D01*
X1278Y631D02*
X1342Y631D01*
X1978Y631D02*
X2042Y631D01*
X2378Y631D02*
X2442Y631D01*
X2678Y631D02*
X2742Y631D01*
X3378Y631D02*
X3441Y631D01*
X3778Y631D02*
X3841Y631D01*
X4078Y631D02*
X4141Y631D01*
X577Y630D02*
X643Y630D01*
X977Y630D02*
X1043Y630D01*
X1277Y630D02*
X1343Y630D01*
X1977Y630D02*
X2043Y630D01*
X2377Y630D02*
X2443Y630D01*
X2677Y630D02*
X2743Y630D01*
X3377Y630D02*
X3442Y630D01*
X3777Y630D02*
X3842Y630D01*
X4077Y630D02*
X4142Y630D01*
X576Y629D02*
X644Y629D01*
X976Y629D02*
X1044Y629D01*
X1276Y629D02*
X1344Y629D01*
X1976Y629D02*
X2044Y629D01*
X2376Y629D02*
X2444Y629D01*
X2676Y629D02*
X2743Y629D01*
X3376Y629D02*
X3443Y629D01*
X3776Y629D02*
X3843Y629D01*
X4076Y629D02*
X4143Y629D01*
X576Y628D02*
X645Y628D01*
X976Y628D02*
X1045Y628D01*
X1275Y628D02*
X1345Y628D01*
X1975Y628D02*
X2044Y628D01*
X2375Y628D02*
X2444Y628D01*
X2675Y628D02*
X2744Y628D01*
X3375Y628D02*
X3444Y628D01*
X3775Y628D02*
X3844Y628D01*
X4075Y628D02*
X4144Y628D01*
X575Y627D02*
X646Y627D01*
X975Y627D02*
X1045Y627D01*
X1275Y627D02*
X1345Y627D01*
X1975Y627D02*
X2045Y627D01*
X2375Y627D02*
X2445Y627D01*
X2674Y627D02*
X2745Y627D01*
X3374Y627D02*
X3445Y627D01*
X3774Y627D02*
X3845Y627D01*
X4074Y627D02*
X4145Y627D01*
X574Y626D02*
X646Y626D01*
X974Y626D02*
X1046Y626D01*
X1274Y626D02*
X1346Y626D01*
X1974Y626D02*
X2046Y626D01*
X2374Y626D02*
X2446Y626D01*
X2674Y626D02*
X2746Y626D01*
X3374Y626D02*
X3446Y626D01*
X3774Y626D02*
X3846Y626D01*
X4074Y626D02*
X4146Y626D01*
X573Y625D02*
X647Y625D01*
X973Y625D02*
X1047Y625D01*
X1273Y625D02*
X1347Y625D01*
X1973Y625D02*
X2047Y625D01*
X2373Y625D02*
X2447Y625D01*
X2673Y625D02*
X2747Y625D01*
X3373Y625D02*
X3447Y625D01*
X3773Y625D02*
X3847Y625D01*
X4073Y625D02*
X4147Y625D01*
X572Y624D02*
X606Y624D01*
X614Y624D02*
X648Y624D01*
X972Y624D02*
X1006Y624D01*
X1014Y624D02*
X1048Y624D01*
X1272Y624D02*
X1306Y624D01*
X1314Y624D02*
X1348Y624D01*
X1972Y624D02*
X2006Y624D01*
X2014Y624D02*
X2048Y624D01*
X2372Y624D02*
X2405Y624D01*
X2414Y624D02*
X2448Y624D01*
X2672Y624D02*
X2706Y624D01*
X2714Y624D02*
X2747Y624D01*
X3372Y624D02*
X3406Y624D01*
X3414Y624D02*
X3447Y624D01*
X3772Y624D02*
X3805Y624D01*
X3814Y624D02*
X3847Y624D01*
X4072Y624D02*
X4105Y624D01*
X4114Y624D02*
X4147Y624D01*
X572Y623D02*
X601Y623D01*
X619Y623D02*
X648Y623D01*
X972Y623D02*
X1001Y623D01*
X1019Y623D02*
X1048Y623D01*
X1272Y623D02*
X1301Y623D01*
X1319Y623D02*
X1348Y623D01*
X1972Y623D02*
X2001Y623D01*
X2019Y623D02*
X2048Y623D01*
X2372Y623D02*
X2401Y623D01*
X2419Y623D02*
X2448Y623D01*
X2672Y623D02*
X2701Y623D01*
X2719Y623D02*
X2748Y623D01*
X3371Y623D02*
X3401Y623D01*
X3419Y623D02*
X3448Y623D01*
X3771Y623D02*
X3801Y623D01*
X3819Y623D02*
X3848Y623D01*
X4071Y623D02*
X4101Y623D01*
X4119Y623D02*
X4148Y623D01*
X571Y622D02*
X598Y622D01*
X622Y622D02*
X649Y622D01*
X971Y622D02*
X998Y622D01*
X1022Y622D02*
X1049Y622D01*
X1271Y622D02*
X1298Y622D01*
X1322Y622D02*
X1349Y622D01*
X1971Y622D02*
X1998Y622D01*
X2022Y622D02*
X2049Y622D01*
X2371Y622D02*
X2398Y622D01*
X2422Y622D02*
X2449Y622D01*
X2671Y622D02*
X2698Y622D01*
X2721Y622D02*
X2749Y622D01*
X3371Y622D02*
X3398Y622D01*
X3421Y622D02*
X3449Y622D01*
X3771Y622D02*
X3798Y622D01*
X3821Y622D02*
X3849Y622D01*
X4071Y622D02*
X4098Y622D01*
X4121Y622D02*
X4149Y622D01*
X571Y621D02*
X596Y621D01*
X624Y621D02*
X650Y621D01*
X971Y621D02*
X996Y621D01*
X1024Y621D02*
X1050Y621D01*
X1271Y621D02*
X1296Y621D01*
X1324Y621D02*
X1349Y621D01*
X1970Y621D02*
X1996Y621D01*
X2024Y621D02*
X2049Y621D01*
X2370Y621D02*
X2396Y621D01*
X2424Y621D02*
X2449Y621D01*
X2670Y621D02*
X2696Y621D01*
X2723Y621D02*
X2749Y621D01*
X3370Y621D02*
X3396Y621D01*
X3423Y621D02*
X3449Y621D01*
X3770Y621D02*
X3796Y621D01*
X3823Y621D02*
X3849Y621D01*
X4070Y621D02*
X4096Y621D01*
X4123Y621D02*
X4149Y621D01*
X570Y620D02*
X595Y620D01*
X625Y620D02*
X650Y620D01*
X970Y620D02*
X995Y620D01*
X1025Y620D02*
X1050Y620D01*
X1270Y620D02*
X1295Y620D01*
X1325Y620D02*
X1350Y620D01*
X1970Y620D02*
X1995Y620D01*
X2025Y620D02*
X2050Y620D01*
X2370Y620D02*
X2395Y620D01*
X2425Y620D02*
X2450Y620D01*
X2670Y620D02*
X2695Y620D01*
X2725Y620D02*
X2750Y620D01*
X3370Y620D02*
X3395Y620D01*
X3425Y620D02*
X3450Y620D01*
X3770Y620D02*
X3795Y620D01*
X3825Y620D02*
X3850Y620D01*
X4070Y620D02*
X4094Y620D01*
X4125Y620D02*
X4150Y620D01*
X569Y619D02*
X594Y619D01*
X627Y619D02*
X651Y619D01*
X969Y619D02*
X994Y619D01*
X1027Y619D02*
X1051Y619D01*
X1269Y619D02*
X1294Y619D01*
X1326Y619D02*
X1351Y619D01*
X1969Y619D02*
X1993Y619D01*
X2026Y619D02*
X2051Y619D01*
X2369Y619D02*
X2393Y619D01*
X2426Y619D02*
X2451Y619D01*
X2669Y619D02*
X2693Y619D01*
X2726Y619D02*
X2750Y619D01*
X3369Y619D02*
X3393Y619D01*
X3426Y619D02*
X3450Y619D01*
X3769Y619D02*
X3793Y619D01*
X3826Y619D02*
X3850Y619D01*
X4069Y619D02*
X4093Y619D01*
X4126Y619D02*
X4150Y619D01*
X569Y618D02*
X592Y618D01*
X628Y618D02*
X651Y618D01*
X969Y618D02*
X992Y618D01*
X1028Y618D02*
X1051Y618D01*
X1269Y618D02*
X1292Y618D01*
X1328Y618D02*
X1351Y618D01*
X1969Y618D02*
X1992Y618D01*
X2028Y618D02*
X2051Y618D01*
X2369Y618D02*
X2392Y618D01*
X2428Y618D02*
X2451Y618D01*
X2669Y618D02*
X2692Y618D01*
X2727Y618D02*
X2751Y618D01*
X3369Y618D02*
X3392Y618D01*
X3427Y618D02*
X3451Y618D01*
X3769Y618D02*
X3792Y618D01*
X3827Y618D02*
X3851Y618D01*
X4069Y618D02*
X4092Y618D01*
X4127Y618D02*
X4151Y618D01*
X569Y617D02*
X591Y617D01*
X629Y617D02*
X652Y617D01*
X968Y617D02*
X991Y617D01*
X1029Y617D02*
X1052Y617D01*
X1268Y617D02*
X1291Y617D01*
X1329Y617D02*
X1352Y617D01*
X1968Y617D02*
X1991Y617D01*
X2029Y617D02*
X2052Y617D01*
X2368Y617D02*
X2391Y617D01*
X2429Y617D02*
X2451Y617D01*
X2668Y617D02*
X2691Y617D01*
X2729Y617D02*
X2751Y617D01*
X3368Y617D02*
X3391Y617D01*
X3429Y617D02*
X3451Y617D01*
X3768Y617D02*
X3791Y617D01*
X3829Y617D02*
X3851Y617D01*
X4068Y617D02*
X4091Y617D01*
X4128Y617D02*
X4151Y617D01*
X568Y616D02*
X590Y616D01*
X630Y616D02*
X652Y616D01*
X968Y616D02*
X990Y616D01*
X1030Y616D02*
X1052Y616D01*
X1268Y616D02*
X1290Y616D01*
X1330Y616D02*
X1352Y616D01*
X1968Y616D02*
X1990Y616D01*
X2030Y616D02*
X2052Y616D01*
X2368Y616D02*
X2390Y616D01*
X2430Y616D02*
X2452Y616D01*
X2668Y616D02*
X2690Y616D01*
X2730Y616D02*
X2752Y616D01*
X3368Y616D02*
X3390Y616D01*
X3430Y616D02*
X3452Y616D01*
X3768Y616D02*
X3790Y616D01*
X3830Y616D02*
X3852Y616D01*
X4068Y616D02*
X4090Y616D01*
X4130Y616D02*
X4152Y616D01*
X568Y615D02*
X589Y615D01*
X631Y615D02*
X653Y615D01*
X968Y615D02*
X989Y615D01*
X1031Y615D02*
X1053Y615D01*
X1268Y615D02*
X1289Y615D01*
X1331Y615D02*
X1353Y615D01*
X1967Y615D02*
X1989Y615D01*
X2031Y615D02*
X2052Y615D01*
X2367Y615D02*
X2389Y615D01*
X2431Y615D02*
X2452Y615D01*
X2667Y615D02*
X2689Y615D01*
X2731Y615D02*
X2752Y615D01*
X3367Y615D02*
X3389Y615D01*
X3430Y615D02*
X3452Y615D01*
X3767Y615D02*
X3789Y615D01*
X3830Y615D02*
X3852Y615D01*
X4067Y615D02*
X4089Y615D01*
X4130Y615D02*
X4152Y615D01*
X567Y614D02*
X589Y614D01*
X632Y614D02*
X653Y614D01*
X967Y614D02*
X989Y614D01*
X1032Y614D02*
X1053Y614D01*
X1267Y614D02*
X1288Y614D01*
X1332Y614D02*
X1353Y614D01*
X1967Y614D02*
X1988Y614D01*
X2032Y614D02*
X2053Y614D01*
X2367Y614D02*
X2388Y614D01*
X2431Y614D02*
X2453Y614D01*
X2667Y614D02*
X2688Y614D01*
X2731Y614D02*
X2753Y614D01*
X3367Y614D02*
X3388Y614D01*
X3431Y614D02*
X3453Y614D01*
X3767Y614D02*
X3788Y614D01*
X3831Y614D02*
X3853Y614D01*
X4067Y614D02*
X4088Y614D01*
X4131Y614D02*
X4153Y614D01*
X567Y613D02*
X588Y613D01*
X633Y613D02*
X653Y613D01*
X967Y613D02*
X988Y613D01*
X1032Y613D02*
X1053Y613D01*
X1267Y613D02*
X1288Y613D01*
X1332Y613D02*
X1353Y613D01*
X1967Y613D02*
X1988Y613D01*
X2032Y613D02*
X2053Y613D01*
X2367Y613D02*
X2387Y613D01*
X2432Y613D02*
X2453Y613D01*
X2667Y613D02*
X2687Y613D01*
X2732Y613D02*
X2753Y613D01*
X3367Y613D02*
X3387Y613D01*
X3432Y613D02*
X3453Y613D01*
X3766Y613D02*
X3787Y613D01*
X3832Y613D02*
X3853Y613D01*
X4066Y613D02*
X4087Y613D01*
X4132Y613D02*
X4153Y613D01*
X567Y612D02*
X587Y612D01*
X633Y612D02*
X654Y612D01*
X966Y612D02*
X987Y612D01*
X1033Y612D02*
X1054Y612D01*
X1266Y612D02*
X1287Y612D01*
X1333Y612D02*
X1354Y612D01*
X1966Y612D02*
X1987Y612D01*
X2033Y612D02*
X2054Y612D01*
X2366Y612D02*
X2387Y612D01*
X2433Y612D02*
X2454Y612D01*
X2666Y612D02*
X2687Y612D01*
X2733Y612D02*
X2753Y612D01*
X3366Y612D02*
X3387Y612D01*
X3433Y612D02*
X3453Y612D01*
X3766Y612D02*
X3787Y612D01*
X3833Y612D02*
X3853Y612D01*
X4066Y612D02*
X4086Y612D01*
X4133Y612D02*
X4153Y612D01*
X566Y611D02*
X586Y611D01*
X634Y611D02*
X654Y611D01*
X966Y611D02*
X986Y611D01*
X1034Y611D02*
X1054Y611D01*
X1266Y611D02*
X1286Y611D01*
X1334Y611D02*
X1354Y611D01*
X1966Y611D02*
X1986Y611D01*
X2034Y611D02*
X2054Y611D01*
X2366Y611D02*
X2386Y611D01*
X2434Y611D02*
X2454Y611D01*
X2666Y611D02*
X2686Y611D01*
X2734Y611D02*
X2754Y611D01*
X3366Y611D02*
X3386Y611D01*
X3434Y611D02*
X3454Y611D01*
X3766Y611D02*
X3786Y611D01*
X3834Y611D02*
X3854Y611D01*
X4066Y611D02*
X4086Y611D01*
X4134Y611D02*
X4154Y611D01*
X566Y610D02*
X586Y610D01*
X635Y610D02*
X654Y610D01*
X966Y610D02*
X986Y610D01*
X1035Y610D02*
X1054Y610D01*
X1266Y610D02*
X1286Y610D01*
X1334Y610D02*
X1354Y610D01*
X1966Y610D02*
X1985Y610D01*
X2034Y610D02*
X2054Y610D01*
X2366Y610D02*
X2385Y610D01*
X2434Y610D02*
X2454Y610D01*
X2666Y610D02*
X2685Y610D01*
X2734Y610D02*
X2754Y610D01*
X3366Y610D02*
X3385Y610D01*
X3434Y610D02*
X3454Y610D01*
X3765Y610D02*
X3785Y610D01*
X3834Y610D02*
X3854Y610D01*
X4065Y610D02*
X4085Y610D01*
X4134Y610D02*
X4154Y610D01*
X566Y609D02*
X585Y609D01*
X635Y609D02*
X655Y609D01*
X966Y609D02*
X985Y609D01*
X1035Y609D02*
X1055Y609D01*
X1265Y609D02*
X1285Y609D01*
X1335Y609D02*
X1355Y609D01*
X1965Y609D02*
X1985Y609D01*
X2035Y609D02*
X2054Y609D01*
X2365Y609D02*
X2385Y609D01*
X2435Y609D02*
X2454Y609D01*
X2665Y609D02*
X2685Y609D01*
X2735Y609D02*
X2754Y609D01*
X3365Y609D02*
X3385Y609D01*
X3435Y609D02*
X3454Y609D01*
X3765Y609D02*
X3785Y609D01*
X3835Y609D02*
X3854Y609D01*
X4065Y609D02*
X4085Y609D01*
X4135Y609D02*
X4154Y609D01*
X565Y608D02*
X585Y608D01*
X636Y608D02*
X655Y608D01*
X965Y608D02*
X985Y608D01*
X1036Y608D02*
X1055Y608D01*
X1265Y608D02*
X1285Y608D01*
X1335Y608D02*
X1355Y608D01*
X1965Y608D02*
X1984Y608D01*
X2035Y608D02*
X2055Y608D01*
X2365Y608D02*
X2384Y608D01*
X2435Y608D02*
X2455Y608D01*
X2665Y608D02*
X2684Y608D01*
X2735Y608D02*
X2755Y608D01*
X3365Y608D02*
X3384Y608D01*
X3435Y608D02*
X3455Y608D01*
X3765Y608D02*
X3784Y608D01*
X3835Y608D02*
X3855Y608D01*
X4065Y608D02*
X4084Y608D01*
X4135Y608D02*
X4154Y608D01*
X565Y607D02*
X584Y607D01*
X636Y607D02*
X655Y607D01*
X965Y607D02*
X984Y607D01*
X1036Y607D02*
X1055Y607D01*
X1265Y607D02*
X1284Y607D01*
X1336Y607D02*
X1355Y607D01*
X1965Y607D02*
X1984Y607D01*
X2036Y607D02*
X2055Y607D01*
X2365Y607D02*
X2384Y607D01*
X2436Y607D02*
X2455Y607D01*
X2665Y607D02*
X2684Y607D01*
X2736Y607D02*
X2755Y607D01*
X3365Y607D02*
X3384Y607D01*
X3436Y607D02*
X3455Y607D01*
X3765Y607D02*
X3784Y607D01*
X3836Y607D02*
X3855Y607D01*
X4065Y607D02*
X4084Y607D01*
X4136Y607D02*
X4155Y607D01*
X565Y606D02*
X584Y606D01*
X636Y606D02*
X655Y606D01*
X965Y606D02*
X984Y606D01*
X1036Y606D02*
X1055Y606D01*
X1265Y606D02*
X1284Y606D01*
X1336Y606D02*
X1355Y606D01*
X1965Y606D02*
X1984Y606D01*
X2036Y606D02*
X2055Y606D01*
X2365Y606D02*
X2384Y606D01*
X2436Y606D02*
X2455Y606D01*
X2665Y606D02*
X2684Y606D01*
X2736Y606D02*
X2755Y606D01*
X3364Y606D02*
X3384Y606D01*
X3436Y606D02*
X3455Y606D01*
X3764Y606D02*
X3784Y606D01*
X3836Y606D02*
X3855Y606D01*
X4064Y606D02*
X4083Y606D01*
X4136Y606D02*
X4155Y606D01*
X565Y605D02*
X584Y605D01*
X637Y605D02*
X656Y605D01*
X965Y605D02*
X984Y605D01*
X1037Y605D02*
X1056Y605D01*
X1265Y605D02*
X1283Y605D01*
X1337Y605D02*
X1355Y605D01*
X1964Y605D02*
X1983Y605D01*
X2037Y605D02*
X2055Y605D01*
X2364Y605D02*
X2383Y605D01*
X2436Y605D02*
X2455Y605D01*
X2664Y605D02*
X2683Y605D01*
X2736Y605D02*
X2755Y605D01*
X3364Y605D02*
X3383Y605D01*
X3436Y605D02*
X3455Y605D01*
X3764Y605D02*
X3783Y605D01*
X3836Y605D02*
X3855Y605D01*
X4064Y605D02*
X4083Y605D01*
X4136Y605D02*
X4155Y605D01*
X564Y604D02*
X583Y604D01*
X637Y604D02*
X656Y604D01*
X964Y604D02*
X983Y604D01*
X1037Y604D02*
X1056Y604D01*
X1264Y604D02*
X1283Y604D01*
X1337Y604D02*
X1356Y604D01*
X1964Y604D02*
X1983Y604D01*
X2037Y604D02*
X2056Y604D01*
X2364Y604D02*
X2383Y604D01*
X2437Y604D02*
X2456Y604D01*
X2664Y604D02*
X2683Y604D01*
X2737Y604D02*
X2755Y604D01*
X3364Y604D02*
X3383Y604D01*
X3437Y604D02*
X3455Y604D01*
X3764Y604D02*
X3783Y604D01*
X3837Y604D02*
X3855Y604D01*
X4064Y604D02*
X4083Y604D01*
X4136Y604D02*
X4155Y604D01*
X564Y603D02*
X583Y603D01*
X637Y603D02*
X656Y603D01*
X964Y603D02*
X983Y603D01*
X1037Y603D02*
X1056Y603D01*
X1264Y603D02*
X1283Y603D01*
X1337Y603D02*
X1356Y603D01*
X1964Y603D02*
X1983Y603D01*
X2037Y603D02*
X2056Y603D01*
X2364Y603D02*
X2383Y603D01*
X2437Y603D02*
X2456Y603D01*
X2664Y603D02*
X2683Y603D01*
X2737Y603D02*
X2756Y603D01*
X3364Y603D02*
X3383Y603D01*
X3437Y603D02*
X3456Y603D01*
X3764Y603D02*
X3783Y603D01*
X3837Y603D02*
X3856Y603D01*
X4064Y603D02*
X4083Y603D01*
X4137Y603D02*
X4155Y603D01*
X564Y602D02*
X583Y602D01*
X637Y602D02*
X656Y602D01*
X964Y602D02*
X983Y602D01*
X1037Y602D02*
X1056Y602D01*
X1264Y602D02*
X1283Y602D01*
X1337Y602D02*
X1356Y602D01*
X1964Y602D02*
X1983Y602D01*
X2037Y602D02*
X2056Y602D01*
X2364Y602D02*
X2383Y602D01*
X2437Y602D02*
X2456Y602D01*
X2664Y602D02*
X2683Y602D01*
X2737Y602D02*
X2756Y602D01*
X3364Y602D02*
X3383Y602D01*
X3437Y602D02*
X3456Y602D01*
X3764Y602D02*
X3783Y602D01*
X3837Y602D02*
X3856Y602D01*
X4064Y602D02*
X4083Y602D01*
X4137Y602D02*
X4156Y602D01*
X564Y601D02*
X583Y601D01*
X637Y601D02*
X656Y601D01*
X964Y601D02*
X983Y601D01*
X1037Y601D02*
X1056Y601D01*
X1264Y601D02*
X1283Y601D01*
X1337Y601D02*
X1356Y601D01*
X1964Y601D02*
X1983Y601D01*
X2037Y601D02*
X2056Y601D01*
X2364Y601D02*
X2383Y601D01*
X2437Y601D02*
X2456Y601D01*
X2664Y601D02*
X2683Y601D01*
X2737Y601D02*
X2756Y601D01*
X3364Y601D02*
X3382Y601D01*
X3437Y601D02*
X3456Y601D01*
X3764Y601D02*
X3782Y601D01*
X3837Y601D02*
X3856Y601D01*
X4064Y601D02*
X4082Y601D01*
X4137Y601D02*
X4156Y601D01*
X564Y600D02*
X583Y600D01*
X638Y600D02*
X656Y600D01*
X964Y600D02*
X983Y600D01*
X1038Y600D02*
X1056Y600D01*
X1264Y600D02*
X1283Y600D01*
X1337Y600D02*
X1356Y600D01*
X1964Y600D02*
X1983Y600D01*
X2037Y600D02*
X2056Y600D01*
X2364Y600D02*
X2382Y600D01*
X2437Y600D02*
X2456Y600D01*
X2664Y600D02*
X2682Y600D01*
X2737Y600D02*
X2756Y600D01*
X3364Y600D02*
X3382Y600D01*
X3437Y600D02*
X3456Y600D01*
X3764Y600D02*
X3782Y600D01*
X3837Y600D02*
X3856Y600D01*
X4064Y600D02*
X4082Y600D01*
X4137Y600D02*
X4156Y600D01*
X564Y599D02*
X583Y599D01*
X638Y599D02*
X656Y599D01*
X964Y599D02*
X983Y599D01*
X1038Y599D02*
X1056Y599D01*
X1264Y599D02*
X1283Y599D01*
X1337Y599D02*
X1356Y599D01*
X1964Y599D02*
X1982Y599D01*
X2037Y599D02*
X2056Y599D01*
X2364Y599D02*
X2382Y599D01*
X2437Y599D02*
X2456Y599D01*
X2664Y599D02*
X2682Y599D01*
X2737Y599D02*
X2756Y599D01*
X3364Y599D02*
X3382Y599D01*
X3437Y599D02*
X3456Y599D01*
X3764Y599D02*
X3782Y599D01*
X3837Y599D02*
X3856Y599D01*
X4064Y599D02*
X4082Y599D01*
X4137Y599D02*
X4156Y599D01*
X564Y598D02*
X583Y598D01*
X638Y598D02*
X656Y598D01*
X964Y598D02*
X983Y598D01*
X1038Y598D02*
X1056Y598D01*
X1264Y598D02*
X1283Y598D01*
X1338Y598D02*
X1356Y598D01*
X1964Y598D02*
X1982Y598D01*
X2037Y598D02*
X2056Y598D01*
X2364Y598D02*
X2382Y598D01*
X2437Y598D02*
X2456Y598D01*
X2664Y598D02*
X2682Y598D01*
X2737Y598D02*
X2756Y598D01*
X3364Y598D02*
X3382Y598D01*
X3437Y598D02*
X3456Y598D01*
X3764Y598D02*
X3782Y598D01*
X3837Y598D02*
X3856Y598D01*
X4063Y598D02*
X4082Y598D01*
X4137Y598D02*
X4156Y598D01*
X564Y597D02*
X583Y597D01*
X638Y597D02*
X656Y597D01*
X964Y597D02*
X983Y597D01*
X1038Y597D02*
X1056Y597D01*
X1264Y597D02*
X1282Y597D01*
X1338Y597D02*
X1356Y597D01*
X1964Y597D02*
X1982Y597D01*
X2037Y597D02*
X2056Y597D01*
X2364Y597D02*
X2382Y597D01*
X2437Y597D02*
X2456Y597D01*
X2664Y597D02*
X2682Y597D01*
X2737Y597D02*
X2756Y597D01*
X3364Y597D02*
X3382Y597D01*
X3437Y597D02*
X3456Y597D01*
X3764Y597D02*
X3782Y597D01*
X3837Y597D02*
X3856Y597D01*
X4063Y597D02*
X4082Y597D01*
X4137Y597D02*
X4156Y597D01*
X564Y596D02*
X583Y596D01*
X638Y596D02*
X656Y596D01*
X964Y596D02*
X983Y596D01*
X1038Y596D02*
X1056Y596D01*
X1264Y596D02*
X1283Y596D01*
X1338Y596D02*
X1356Y596D01*
X1964Y596D02*
X1982Y596D01*
X2037Y596D02*
X2056Y596D01*
X2364Y596D02*
X2382Y596D01*
X2437Y596D02*
X2456Y596D01*
X2664Y596D02*
X2682Y596D01*
X2737Y596D02*
X2756Y596D01*
X3364Y596D02*
X3382Y596D01*
X3437Y596D02*
X3456Y596D01*
X3764Y596D02*
X3782Y596D01*
X3837Y596D02*
X3856Y596D01*
X4064Y596D02*
X4082Y596D01*
X4137Y596D02*
X4156Y596D01*
X564Y595D02*
X583Y595D01*
X638Y595D02*
X656Y595D01*
X964Y595D02*
X983Y595D01*
X1038Y595D02*
X1056Y595D01*
X1264Y595D02*
X1283Y595D01*
X1337Y595D02*
X1356Y595D01*
X1964Y595D02*
X1982Y595D01*
X2037Y595D02*
X2056Y595D01*
X2364Y595D02*
X2382Y595D01*
X2437Y595D02*
X2456Y595D01*
X2664Y595D02*
X2682Y595D01*
X2737Y595D02*
X2756Y595D01*
X3364Y595D02*
X3382Y595D01*
X3437Y595D02*
X3456Y595D01*
X3764Y595D02*
X3782Y595D01*
X3837Y595D02*
X3856Y595D01*
X4064Y595D02*
X4082Y595D01*
X4137Y595D02*
X4156Y595D01*
X564Y594D02*
X583Y594D01*
X638Y594D02*
X656Y594D01*
X964Y594D02*
X983Y594D01*
X1037Y594D02*
X1056Y594D01*
X1264Y594D02*
X1283Y594D01*
X1337Y594D02*
X1356Y594D01*
X1964Y594D02*
X1983Y594D01*
X2037Y594D02*
X2056Y594D01*
X2364Y594D02*
X2383Y594D01*
X2437Y594D02*
X2456Y594D01*
X2664Y594D02*
X2682Y594D01*
X2737Y594D02*
X2756Y594D01*
X3364Y594D02*
X3382Y594D01*
X3437Y594D02*
X3456Y594D01*
X3764Y594D02*
X3782Y594D01*
X3837Y594D02*
X3856Y594D01*
X4064Y594D02*
X4082Y594D01*
X4137Y594D02*
X4156Y594D01*
X564Y593D02*
X583Y593D01*
X637Y593D02*
X656Y593D01*
X964Y593D02*
X983Y593D01*
X1037Y593D02*
X1056Y593D01*
X1264Y593D02*
X1283Y593D01*
X1337Y593D02*
X1356Y593D01*
X1964Y593D02*
X1983Y593D01*
X2037Y593D02*
X2056Y593D01*
X2364Y593D02*
X2383Y593D01*
X2437Y593D02*
X2456Y593D01*
X2664Y593D02*
X2683Y593D01*
X2737Y593D02*
X2756Y593D01*
X3364Y593D02*
X3382Y593D01*
X3437Y593D02*
X3456Y593D01*
X3764Y593D02*
X3782Y593D01*
X3837Y593D02*
X3856Y593D01*
X4064Y593D02*
X4082Y593D01*
X4137Y593D02*
X4156Y593D01*
X564Y592D02*
X583Y592D01*
X637Y592D02*
X656Y592D01*
X964Y592D02*
X983Y592D01*
X1037Y592D02*
X1056Y592D01*
X1264Y592D02*
X1283Y592D01*
X1337Y592D02*
X1356Y592D01*
X1964Y592D02*
X1983Y592D01*
X2037Y592D02*
X2056Y592D01*
X2364Y592D02*
X2383Y592D01*
X2437Y592D02*
X2456Y592D01*
X2664Y592D02*
X2683Y592D01*
X2737Y592D02*
X2756Y592D01*
X3364Y592D02*
X3383Y592D01*
X3437Y592D02*
X3456Y592D01*
X3764Y592D02*
X3783Y592D01*
X3837Y592D02*
X3856Y592D01*
X4064Y592D02*
X4083Y592D01*
X4137Y592D02*
X4156Y592D01*
X564Y591D02*
X583Y591D01*
X637Y591D02*
X656Y591D01*
X964Y591D02*
X983Y591D01*
X1037Y591D02*
X1056Y591D01*
X1264Y591D02*
X1283Y591D01*
X1337Y591D02*
X1356Y591D01*
X1964Y591D02*
X1983Y591D01*
X2037Y591D02*
X2056Y591D01*
X2364Y591D02*
X2383Y591D01*
X2437Y591D02*
X2456Y591D01*
X2664Y591D02*
X2683Y591D01*
X2737Y591D02*
X2756Y591D01*
X3364Y591D02*
X3383Y591D01*
X3437Y591D02*
X3456Y591D01*
X3764Y591D02*
X3783Y591D01*
X3837Y591D02*
X3855Y591D01*
X4064Y591D02*
X4083Y591D01*
X4137Y591D02*
X4155Y591D01*
X565Y590D02*
X583Y590D01*
X637Y590D02*
X656Y590D01*
X965Y590D02*
X983Y590D01*
X1037Y590D02*
X1056Y590D01*
X1264Y590D02*
X1283Y590D01*
X1337Y590D02*
X1356Y590D01*
X1964Y590D02*
X1983Y590D01*
X2037Y590D02*
X2056Y590D01*
X2364Y590D02*
X2383Y590D01*
X2437Y590D02*
X2455Y590D01*
X2664Y590D02*
X2683Y590D01*
X2737Y590D02*
X2755Y590D01*
X3364Y590D02*
X3383Y590D01*
X3436Y590D02*
X3455Y590D01*
X3764Y590D02*
X3783Y590D01*
X3836Y590D02*
X3855Y590D01*
X4064Y590D02*
X4083Y590D01*
X4136Y590D02*
X4155Y590D01*
X565Y589D02*
X584Y589D01*
X637Y589D02*
X656Y589D01*
X965Y589D02*
X984Y589D01*
X1037Y589D02*
X1055Y589D01*
X1265Y589D02*
X1284Y589D01*
X1336Y589D02*
X1355Y589D01*
X1965Y589D02*
X1983Y589D01*
X2036Y589D02*
X2055Y589D01*
X2365Y589D02*
X2383Y589D01*
X2436Y589D02*
X2455Y589D01*
X2664Y589D02*
X2683Y589D01*
X2736Y589D02*
X2755Y589D01*
X3364Y589D02*
X3383Y589D01*
X3436Y589D02*
X3455Y589D01*
X3764Y589D02*
X3783Y589D01*
X3836Y589D02*
X3855Y589D01*
X4064Y589D02*
X4083Y589D01*
X4136Y589D02*
X4155Y589D01*
X565Y588D02*
X584Y588D01*
X636Y588D02*
X655Y588D01*
X965Y588D02*
X984Y588D01*
X1036Y588D02*
X1055Y588D01*
X1265Y588D02*
X1284Y588D01*
X1336Y588D02*
X1355Y588D01*
X1965Y588D02*
X1984Y588D01*
X2036Y588D02*
X2055Y588D01*
X2365Y588D02*
X2384Y588D01*
X2436Y588D02*
X2455Y588D01*
X2665Y588D02*
X2684Y588D01*
X2736Y588D02*
X2755Y588D01*
X3365Y588D02*
X3384Y588D01*
X3436Y588D02*
X3455Y588D01*
X3765Y588D02*
X3784Y588D01*
X3836Y588D02*
X3855Y588D01*
X4064Y588D02*
X4084Y588D01*
X4136Y588D02*
X4155Y588D01*
X565Y587D02*
X584Y587D01*
X636Y587D02*
X655Y587D01*
X965Y587D02*
X984Y587D01*
X1036Y587D02*
X1055Y587D01*
X1265Y587D02*
X1284Y587D01*
X1336Y587D02*
X1355Y587D01*
X1965Y587D02*
X1984Y587D01*
X2036Y587D02*
X2055Y587D01*
X2365Y587D02*
X2384Y587D01*
X2436Y587D02*
X2455Y587D01*
X2665Y587D02*
X2684Y587D01*
X2736Y587D02*
X2755Y587D01*
X3365Y587D02*
X3384Y587D01*
X3436Y587D02*
X3455Y587D01*
X3765Y587D02*
X3784Y587D01*
X3836Y587D02*
X3855Y587D01*
X4065Y587D02*
X4084Y587D01*
X4135Y587D02*
X4155Y587D01*
X565Y586D02*
X585Y586D01*
X635Y586D02*
X655Y586D01*
X965Y586D02*
X985Y586D01*
X1035Y586D02*
X1055Y586D01*
X1265Y586D02*
X1285Y586D01*
X1335Y586D02*
X1355Y586D01*
X1965Y586D02*
X1985Y586D01*
X2035Y586D02*
X2055Y586D01*
X2365Y586D02*
X2385Y586D01*
X2435Y586D02*
X2455Y586D01*
X2665Y586D02*
X2685Y586D01*
X2735Y586D02*
X2755Y586D01*
X3365Y586D02*
X3384Y586D01*
X3435Y586D02*
X3454Y586D01*
X3765Y586D02*
X3784Y586D01*
X3835Y586D02*
X3854Y586D01*
X4065Y586D02*
X4084Y586D01*
X4135Y586D02*
X4154Y586D01*
X566Y585D02*
X585Y585D01*
X635Y585D02*
X655Y585D01*
X966Y585D02*
X985Y585D01*
X1035Y585D02*
X1055Y585D01*
X1266Y585D02*
X1285Y585D01*
X1335Y585D02*
X1354Y585D01*
X1966Y585D02*
X1985Y585D01*
X2035Y585D02*
X2054Y585D01*
X2365Y585D02*
X2385Y585D01*
X2435Y585D02*
X2454Y585D01*
X2665Y585D02*
X2685Y585D01*
X2735Y585D02*
X2754Y585D01*
X3365Y585D02*
X3385Y585D01*
X3435Y585D02*
X3454Y585D01*
X3765Y585D02*
X3785Y585D01*
X3835Y585D02*
X3854Y585D01*
X4065Y585D02*
X4085Y585D01*
X4135Y585D02*
X4154Y585D01*
X566Y584D02*
X586Y584D01*
X634Y584D02*
X654Y584D01*
X966Y584D02*
X986Y584D01*
X1034Y584D02*
X1054Y584D01*
X1266Y584D02*
X1286Y584D01*
X1334Y584D02*
X1354Y584D01*
X1966Y584D02*
X1986Y584D01*
X2034Y584D02*
X2054Y584D01*
X2366Y584D02*
X2386Y584D01*
X2434Y584D02*
X2454Y584D01*
X2666Y584D02*
X2686Y584D01*
X2734Y584D02*
X2754Y584D01*
X3366Y584D02*
X3385Y584D01*
X3434Y584D02*
X3454Y584D01*
X3766Y584D02*
X3785Y584D01*
X3834Y584D02*
X3854Y584D01*
X4066Y584D02*
X4085Y584D01*
X4134Y584D02*
X4154Y584D01*
X566Y583D02*
X586Y583D01*
X634Y583D02*
X654Y583D01*
X966Y583D02*
X986Y583D01*
X1034Y583D02*
X1054Y583D01*
X1266Y583D02*
X1286Y583D01*
X1334Y583D02*
X1354Y583D01*
X1966Y583D02*
X1986Y583D01*
X2034Y583D02*
X2054Y583D01*
X2366Y583D02*
X2386Y583D01*
X2434Y583D02*
X2454Y583D01*
X2666Y583D02*
X2686Y583D01*
X2734Y583D02*
X2754Y583D01*
X3366Y583D02*
X3386Y583D01*
X3433Y583D02*
X3454Y583D01*
X3766Y583D02*
X3786Y583D01*
X3833Y583D02*
X3854Y583D01*
X4066Y583D02*
X4086Y583D01*
X4133Y583D02*
X4154Y583D01*
X567Y582D02*
X587Y582D01*
X633Y582D02*
X654Y582D01*
X967Y582D02*
X987Y582D01*
X1033Y582D02*
X1054Y582D01*
X1267Y582D02*
X1287Y582D01*
X1333Y582D02*
X1354Y582D01*
X1966Y582D02*
X1987Y582D01*
X2033Y582D02*
X2053Y582D01*
X2366Y582D02*
X2387Y582D01*
X2433Y582D02*
X2453Y582D01*
X2666Y582D02*
X2687Y582D01*
X2733Y582D02*
X2753Y582D01*
X3366Y582D02*
X3387Y582D01*
X3433Y582D02*
X3453Y582D01*
X3766Y582D02*
X3787Y582D01*
X3833Y582D02*
X3853Y582D01*
X4066Y582D02*
X4087Y582D01*
X4133Y582D02*
X4153Y582D01*
X567Y581D02*
X588Y581D01*
X632Y581D02*
X653Y581D01*
X967Y581D02*
X988Y581D01*
X1032Y581D02*
X1053Y581D01*
X1267Y581D02*
X1288Y581D01*
X1332Y581D02*
X1353Y581D01*
X1967Y581D02*
X1988Y581D01*
X2032Y581D02*
X2053Y581D01*
X2367Y581D02*
X2388Y581D01*
X2432Y581D02*
X2453Y581D01*
X2667Y581D02*
X2688Y581D01*
X2732Y581D02*
X2753Y581D01*
X3367Y581D02*
X3388Y581D01*
X3432Y581D02*
X3453Y581D01*
X3767Y581D02*
X3788Y581D01*
X3832Y581D02*
X3853Y581D01*
X4067Y581D02*
X4087Y581D01*
X4132Y581D02*
X4153Y581D01*
X567Y580D02*
X589Y580D01*
X631Y580D02*
X653Y580D01*
X967Y580D02*
X989Y580D01*
X1031Y580D02*
X1053Y580D01*
X1267Y580D02*
X1289Y580D01*
X1331Y580D02*
X1353Y580D01*
X1967Y580D02*
X1989Y580D01*
X2031Y580D02*
X2053Y580D01*
X2367Y580D02*
X2389Y580D01*
X2431Y580D02*
X2453Y580D01*
X2667Y580D02*
X2689Y580D01*
X2731Y580D02*
X2753Y580D01*
X3367Y580D02*
X3388Y580D01*
X3431Y580D02*
X3453Y580D01*
X3767Y580D02*
X3788Y580D01*
X3831Y580D02*
X3852Y580D01*
X4067Y580D02*
X4088Y580D01*
X4131Y580D02*
X4152Y580D01*
X568Y579D02*
X590Y579D01*
X631Y579D02*
X653Y579D01*
X968Y579D02*
X990Y579D01*
X1031Y579D02*
X1052Y579D01*
X1268Y579D02*
X1290Y579D01*
X1330Y579D02*
X1352Y579D01*
X1968Y579D02*
X1989Y579D01*
X2030Y579D02*
X2052Y579D01*
X2368Y579D02*
X2389Y579D01*
X2430Y579D02*
X2452Y579D01*
X2667Y579D02*
X2689Y579D01*
X2730Y579D02*
X2752Y579D01*
X3367Y579D02*
X3389Y579D01*
X3430Y579D02*
X3452Y579D01*
X3767Y579D02*
X3789Y579D01*
X3830Y579D02*
X3852Y579D01*
X4067Y579D02*
X4089Y579D01*
X4130Y579D02*
X4152Y579D01*
X568Y578D02*
X591Y578D01*
X630Y578D02*
X652Y578D01*
X968Y578D02*
X990Y578D01*
X1030Y578D02*
X1052Y578D01*
X1268Y578D02*
X1290Y578D01*
X1330Y578D02*
X1352Y578D01*
X1968Y578D02*
X1990Y578D01*
X2030Y578D02*
X2052Y578D01*
X2368Y578D02*
X2390Y578D01*
X2429Y578D02*
X2452Y578D01*
X2668Y578D02*
X2690Y578D01*
X2729Y578D02*
X2752Y578D01*
X3368Y578D02*
X3390Y578D01*
X3429Y578D02*
X3452Y578D01*
X3768Y578D02*
X3790Y578D01*
X3829Y578D02*
X3852Y578D01*
X4068Y578D02*
X4090Y578D01*
X4129Y578D02*
X4152Y578D01*
X569Y577D02*
X592Y577D01*
X629Y577D02*
X652Y577D01*
X969Y577D02*
X992Y577D01*
X1029Y577D02*
X1051Y577D01*
X1269Y577D02*
X1292Y577D01*
X1328Y577D02*
X1351Y577D01*
X1969Y577D02*
X1992Y577D01*
X2028Y577D02*
X2051Y577D01*
X2368Y577D02*
X2391Y577D01*
X2428Y577D02*
X2451Y577D01*
X2668Y577D02*
X2691Y577D01*
X2728Y577D02*
X2751Y577D01*
X3368Y577D02*
X3391Y577D01*
X3428Y577D02*
X3451Y577D01*
X3768Y577D02*
X3791Y577D01*
X3828Y577D02*
X3851Y577D01*
X4068Y577D02*
X4091Y577D01*
X4128Y577D02*
X4151Y577D01*
X569Y576D02*
X593Y576D01*
X627Y576D02*
X651Y576D01*
X969Y576D02*
X993Y576D01*
X1027Y576D02*
X1051Y576D01*
X1269Y576D02*
X1293Y576D01*
X1327Y576D02*
X1351Y576D01*
X1969Y576D02*
X1993Y576D01*
X2027Y576D02*
X2051Y576D01*
X2369Y576D02*
X2393Y576D01*
X2427Y576D02*
X2451Y576D01*
X2669Y576D02*
X2693Y576D01*
X2727Y576D02*
X2751Y576D01*
X3369Y576D02*
X3393Y576D01*
X3427Y576D02*
X3451Y576D01*
X3769Y576D02*
X3792Y576D01*
X3827Y576D02*
X3851Y576D01*
X4069Y576D02*
X4092Y576D01*
X4127Y576D02*
X4151Y576D01*
X570Y575D02*
X594Y575D01*
X626Y575D02*
X651Y575D01*
X970Y575D02*
X994Y575D01*
X1026Y575D02*
X1051Y575D01*
X1270Y575D02*
X1294Y575D01*
X1326Y575D02*
X1350Y575D01*
X1969Y575D02*
X1994Y575D01*
X2026Y575D02*
X2050Y575D01*
X2369Y575D02*
X2394Y575D01*
X2426Y575D02*
X2450Y575D01*
X2669Y575D02*
X2694Y575D01*
X2726Y575D02*
X2750Y575D01*
X3369Y575D02*
X3394Y575D01*
X3426Y575D02*
X3450Y575D01*
X3769Y575D02*
X3794Y575D01*
X3826Y575D02*
X3850Y575D01*
X4069Y575D02*
X4094Y575D01*
X4126Y575D02*
X4150Y575D01*
X570Y574D02*
X595Y574D01*
X625Y574D02*
X650Y574D01*
X970Y574D02*
X995Y574D01*
X1025Y574D02*
X1050Y574D01*
X1270Y574D02*
X1295Y574D01*
X1325Y574D02*
X1350Y574D01*
X1970Y574D02*
X1995Y574D01*
X2025Y574D02*
X2050Y574D01*
X2370Y574D02*
X2395Y574D01*
X2425Y574D02*
X2450Y574D01*
X2670Y574D02*
X2695Y574D01*
X2724Y574D02*
X2750Y574D01*
X3370Y574D02*
X3395Y574D01*
X3424Y574D02*
X3450Y574D01*
X3770Y574D02*
X3795Y574D01*
X3824Y574D02*
X3850Y574D01*
X4070Y574D02*
X4095Y574D01*
X4124Y574D02*
X4150Y574D01*
X571Y573D02*
X597Y573D01*
X623Y573D02*
X649Y573D01*
X971Y573D02*
X997Y573D01*
X1023Y573D02*
X1049Y573D01*
X1271Y573D02*
X1297Y573D01*
X1323Y573D02*
X1349Y573D01*
X1971Y573D02*
X1997Y573D01*
X2023Y573D02*
X2049Y573D01*
X2371Y573D02*
X2397Y573D01*
X2423Y573D02*
X2449Y573D01*
X2671Y573D02*
X2697Y573D01*
X2723Y573D02*
X2749Y573D01*
X3370Y573D02*
X3397Y573D01*
X3423Y573D02*
X3449Y573D01*
X3770Y573D02*
X3797Y573D01*
X3823Y573D02*
X3849Y573D01*
X4070Y573D02*
X4097Y573D01*
X4123Y573D02*
X4149Y573D01*
X571Y572D02*
X599Y572D01*
X621Y572D02*
X649Y572D01*
X971Y572D02*
X999Y572D01*
X1021Y572D02*
X1049Y572D01*
X1271Y572D02*
X1299Y572D01*
X1321Y572D02*
X1349Y572D01*
X1971Y572D02*
X1999Y572D01*
X2021Y572D02*
X2049Y572D01*
X2371Y572D02*
X2399Y572D01*
X2421Y572D02*
X2449Y572D01*
X2671Y572D02*
X2699Y572D01*
X2721Y572D02*
X2749Y572D01*
X3371Y572D02*
X3399Y572D01*
X3421Y572D02*
X3448Y572D01*
X3771Y572D02*
X3799Y572D01*
X3821Y572D02*
X3848Y572D01*
X4071Y572D02*
X4099Y572D01*
X4121Y572D02*
X4148Y572D01*
X572Y571D02*
X602Y571D01*
X618Y571D02*
X648Y571D01*
X972Y571D02*
X1002Y571D01*
X1018Y571D02*
X1048Y571D01*
X1272Y571D02*
X1302Y571D01*
X1318Y571D02*
X1348Y571D01*
X1972Y571D02*
X2002Y571D01*
X2018Y571D02*
X2048Y571D01*
X2372Y571D02*
X2402Y571D01*
X2418Y571D02*
X2448Y571D01*
X2672Y571D02*
X2702Y571D01*
X2718Y571D02*
X2748Y571D01*
X3372Y571D02*
X3402Y571D01*
X3418Y571D02*
X3448Y571D01*
X3772Y571D02*
X3802Y571D01*
X3818Y571D02*
X3848Y571D01*
X4072Y571D02*
X4102Y571D01*
X4117Y571D02*
X4148Y571D01*
X573Y570D02*
X648Y570D01*
X973Y570D02*
X1047Y570D01*
X1273Y570D02*
X1347Y570D01*
X1973Y570D02*
X2047Y570D01*
X2372Y570D02*
X2447Y570D01*
X2672Y570D02*
X2747Y570D01*
X3372Y570D02*
X3447Y570D01*
X3772Y570D02*
X3847Y570D01*
X4072Y570D02*
X4147Y570D01*
X573Y569D02*
X647Y569D01*
X973Y569D02*
X1047Y569D01*
X1273Y569D02*
X1347Y569D01*
X1973Y569D02*
X2047Y569D01*
X2373Y569D02*
X2447Y569D01*
X2673Y569D02*
X2747Y569D01*
X3373Y569D02*
X3446Y569D01*
X3773Y569D02*
X3846Y569D01*
X4073Y569D02*
X4146Y569D01*
X574Y568D02*
X646Y568D01*
X974Y568D02*
X1046Y568D01*
X1274Y568D02*
X1346Y568D01*
X1974Y568D02*
X2046Y568D01*
X2374Y568D02*
X2446Y568D01*
X2674Y568D02*
X2746Y568D01*
X3374Y568D02*
X3446Y568D01*
X3774Y568D02*
X3846Y568D01*
X4074Y568D02*
X4146Y568D01*
X575Y567D02*
X645Y567D01*
X975Y567D02*
X1045Y567D01*
X1275Y567D02*
X1345Y567D01*
X1975Y567D02*
X2045Y567D01*
X2375Y567D02*
X2445Y567D01*
X2675Y567D02*
X2745Y567D01*
X3375Y567D02*
X3445Y567D01*
X3775Y567D02*
X3845Y567D01*
X4075Y567D02*
X4145Y567D01*
X576Y566D02*
X644Y566D01*
X976Y566D02*
X1044Y566D01*
X1276Y566D02*
X1344Y566D01*
X1976Y566D02*
X2044Y566D01*
X2376Y566D02*
X2444Y566D01*
X2676Y566D02*
X2744Y566D01*
X3376Y566D02*
X3444Y566D01*
X3775Y566D02*
X3844Y566D01*
X4075Y566D02*
X4144Y566D01*
X577Y565D02*
X643Y565D01*
X977Y565D02*
X1043Y565D01*
X1277Y565D02*
X1343Y565D01*
X1977Y565D02*
X2043Y565D01*
X2377Y565D02*
X2443Y565D01*
X2676Y565D02*
X2743Y565D01*
X3376Y565D02*
X3443Y565D01*
X3776Y565D02*
X3843Y565D01*
X4076Y565D02*
X4143Y565D01*
X578Y564D02*
X643Y564D01*
X978Y564D02*
X1043Y564D01*
X1278Y564D02*
X1342Y564D01*
X1978Y564D02*
X2042Y564D01*
X2377Y564D02*
X2442Y564D01*
X2677Y564D02*
X2742Y564D01*
X3377Y564D02*
X3442Y564D01*
X3777Y564D02*
X3842Y564D01*
X4077Y564D02*
X4142Y564D01*
X579Y563D02*
X641Y563D01*
X979Y563D02*
X1041Y563D01*
X1279Y563D02*
X1341Y563D01*
X1979Y563D02*
X2041Y563D01*
X2379Y563D02*
X2441Y563D01*
X2679Y563D02*
X2741Y563D01*
X3378Y563D02*
X3441Y563D01*
X3778Y563D02*
X3841Y563D01*
X4078Y563D02*
X4141Y563D01*
X580Y562D02*
X640Y562D01*
X980Y562D02*
X1040Y562D01*
X1280Y562D02*
X1340Y562D01*
X1980Y562D02*
X2040Y562D01*
X2380Y562D02*
X2440Y562D01*
X2680Y562D02*
X2740Y562D01*
X3380Y562D02*
X3440Y562D01*
X3780Y562D02*
X3840Y562D01*
X4079Y562D02*
X4140Y562D01*
X581Y561D02*
X639Y561D01*
X981Y561D02*
X1039Y561D01*
X1281Y561D02*
X1339Y561D01*
X1981Y561D02*
X2039Y561D01*
X2381Y561D02*
X2439Y561D01*
X2681Y561D02*
X2739Y561D01*
X3381Y561D02*
X3439Y561D01*
X3781Y561D02*
X3839Y561D01*
X4081Y561D02*
X4139Y561D01*
X582Y560D02*
X638Y560D01*
X982Y560D02*
X1038Y560D01*
X1282Y560D02*
X1338Y560D01*
X1982Y560D02*
X2038Y560D01*
X2382Y560D02*
X2438Y560D01*
X2682Y560D02*
X2737Y560D01*
X3382Y560D02*
X3437Y560D01*
X3782Y560D02*
X3837Y560D01*
X4082Y560D02*
X4137Y560D01*
X584Y559D02*
X636Y559D01*
X984Y559D02*
X1036Y559D01*
X1284Y559D02*
X1336Y559D01*
X1984Y559D02*
X2036Y559D01*
X2384Y559D02*
X2436Y559D01*
X2684Y559D02*
X2736Y559D01*
X3383Y559D02*
X3436Y559D01*
X3783Y559D02*
X3836Y559D01*
X4083Y559D02*
X4136Y559D01*
X585Y558D02*
X635Y558D01*
X985Y558D02*
X1035Y558D01*
X1285Y558D02*
X1335Y558D01*
X1985Y558D02*
X2035Y558D01*
X2385Y558D02*
X2435Y558D01*
X2685Y558D02*
X2735Y558D01*
X3385Y558D02*
X3435Y558D01*
X3785Y558D02*
X3834Y558D01*
X4085Y558D02*
X4134Y558D01*
X587Y557D02*
X633Y557D01*
X987Y557D02*
X1033Y557D01*
X1287Y557D02*
X1333Y557D01*
X1987Y557D02*
X2033Y557D01*
X2387Y557D02*
X2433Y557D01*
X2687Y557D02*
X2733Y557D01*
X3387Y557D02*
X3433Y557D01*
X3787Y557D02*
X3833Y557D01*
X4087Y557D02*
X4133Y557D01*
X589Y556D02*
X631Y556D01*
X989Y556D02*
X1031Y556D01*
X1289Y556D02*
X1331Y556D01*
X1989Y556D02*
X2031Y556D01*
X2389Y556D02*
X2431Y556D01*
X2689Y556D02*
X2731Y556D01*
X3389Y556D02*
X3431Y556D01*
X3788Y556D02*
X3831Y556D01*
X4088Y556D02*
X4131Y556D01*
X591Y555D02*
X629Y555D01*
X991Y555D02*
X1029Y555D01*
X1291Y555D02*
X1329Y555D01*
X1991Y555D02*
X2029Y555D01*
X2391Y555D02*
X2429Y555D01*
X2691Y555D02*
X2729Y555D01*
X3391Y555D02*
X3429Y555D01*
X3791Y555D02*
X3829Y555D01*
X4091Y555D02*
X4129Y555D01*
X593Y554D02*
X627Y554D01*
X993Y554D02*
X1027Y554D01*
X1293Y554D02*
X1327Y554D01*
X1993Y554D02*
X2027Y554D01*
X2393Y554D02*
X2427Y554D01*
X2693Y554D02*
X2727Y554D01*
X3393Y554D02*
X3427Y554D01*
X3793Y554D02*
X3827Y554D01*
X4093Y554D02*
X4126Y554D01*
X596Y553D02*
X624Y553D01*
X996Y553D02*
X1024Y553D01*
X1296Y553D02*
X1324Y553D01*
X1996Y553D02*
X2024Y553D01*
X2396Y553D02*
X2424Y553D01*
X2696Y553D02*
X2724Y553D01*
X3396Y553D02*
X3424Y553D01*
X3795Y553D02*
X3824Y553D01*
X4096Y553D02*
X4124Y553D01*
X599Y552D02*
X621Y552D01*
X999Y552D02*
X1021Y552D01*
X1299Y552D02*
X1321Y552D01*
X1999Y552D02*
X2021Y552D01*
X2399Y552D02*
X2421Y552D01*
X2699Y552D02*
X2720Y552D01*
X3399Y552D02*
X3421Y552D01*
X3799Y552D02*
X3821Y552D01*
X4099Y552D02*
X4120Y552D01*
X604Y551D02*
X616Y551D01*
X1004Y551D02*
X1016Y551D01*
X1304Y551D02*
X1316Y551D01*
X2004Y551D02*
X2016Y551D01*
X2404Y551D02*
X2416Y551D01*
X2704Y551D02*
X2716Y551D01*
X3404Y551D02*
X3416Y551D01*
X3804Y551D02*
X3816Y551D01*
X4104Y551D02*
X4115Y551D01*
D02*
G04 End of Copper0*
M02*