G04 MADE WITH FRITZING*
G04 WWW.FRITZING.ORG*
G04 DOUBLE SIDED*
G04 HOLES PLATED*
G04 CONTOUR ON CENTER OF CONTOUR VECTOR*
%ASAXBY*%
%FSLAX23Y23*%
%MOIN*%
%OFA0B0*%
%SFA1.0B1.0*%
%ADD10R,0.001000X0.001000*%
%LNSILK1*%
G90*
G70*
G54D10*
X0Y1496D02*
X633Y1496D01*
X0Y1495D02*
X633Y1495D01*
X0Y1494D02*
X633Y1494D01*
X0Y1493D02*
X633Y1493D01*
X0Y1492D02*
X3Y1492D01*
X626Y1492D02*
X633Y1492D01*
X1177Y1492D02*
X1184Y1492D01*
X0Y1491D02*
X3Y1491D01*
X626Y1491D02*
X633Y1491D01*
X1177Y1491D02*
X1184Y1491D01*
X0Y1490D02*
X3Y1490D01*
X626Y1490D02*
X633Y1490D01*
X1177Y1490D02*
X1184Y1490D01*
X0Y1489D02*
X3Y1489D01*
X626Y1489D02*
X633Y1489D01*
X1177Y1489D02*
X1184Y1489D01*
X0Y1488D02*
X3Y1488D01*
X626Y1488D02*
X633Y1488D01*
X1177Y1488D02*
X1184Y1488D01*
X0Y1487D02*
X3Y1487D01*
X626Y1487D02*
X633Y1487D01*
X1177Y1487D02*
X1184Y1487D01*
X0Y1486D02*
X3Y1486D01*
X626Y1486D02*
X633Y1486D01*
X1177Y1486D02*
X1184Y1486D01*
X0Y1485D02*
X3Y1485D01*
X626Y1485D02*
X633Y1485D01*
X1177Y1485D02*
X1184Y1485D01*
X0Y1484D02*
X3Y1484D01*
X626Y1484D02*
X633Y1484D01*
X1177Y1484D02*
X1184Y1484D01*
X0Y1483D02*
X3Y1483D01*
X626Y1483D02*
X633Y1483D01*
X1177Y1483D02*
X1184Y1483D01*
X0Y1482D02*
X3Y1482D01*
X626Y1482D02*
X633Y1482D01*
X1177Y1482D02*
X1184Y1482D01*
X0Y1481D02*
X3Y1481D01*
X626Y1481D02*
X633Y1481D01*
X1177Y1481D02*
X1184Y1481D01*
X0Y1480D02*
X3Y1480D01*
X626Y1480D02*
X633Y1480D01*
X1177Y1480D02*
X1184Y1480D01*
X0Y1479D02*
X3Y1479D01*
X626Y1479D02*
X633Y1479D01*
X1177Y1479D02*
X1184Y1479D01*
X0Y1478D02*
X3Y1478D01*
X626Y1478D02*
X633Y1478D01*
X1177Y1478D02*
X1184Y1478D01*
X0Y1477D02*
X3Y1477D01*
X626Y1477D02*
X633Y1477D01*
X1177Y1477D02*
X1184Y1477D01*
X0Y1476D02*
X3Y1476D01*
X626Y1476D02*
X633Y1476D01*
X1177Y1476D02*
X1184Y1476D01*
X0Y1475D02*
X3Y1475D01*
X626Y1475D02*
X633Y1475D01*
X1177Y1475D02*
X1184Y1475D01*
X0Y1474D02*
X3Y1474D01*
X626Y1474D02*
X633Y1474D01*
X1177Y1474D02*
X1184Y1474D01*
X0Y1473D02*
X3Y1473D01*
X626Y1473D02*
X633Y1473D01*
X1177Y1473D02*
X1184Y1473D01*
X0Y1472D02*
X3Y1472D01*
X626Y1472D02*
X633Y1472D01*
X1177Y1472D02*
X1184Y1472D01*
X0Y1471D02*
X3Y1471D01*
X626Y1471D02*
X633Y1471D01*
X1177Y1471D02*
X1184Y1471D01*
X0Y1470D02*
X3Y1470D01*
X626Y1470D02*
X633Y1470D01*
X1177Y1470D02*
X1184Y1470D01*
X0Y1469D02*
X3Y1469D01*
X626Y1469D02*
X633Y1469D01*
X1177Y1469D02*
X1184Y1469D01*
X0Y1468D02*
X3Y1468D01*
X626Y1468D02*
X633Y1468D01*
X1177Y1468D02*
X1184Y1468D01*
X0Y1467D02*
X3Y1467D01*
X626Y1467D02*
X633Y1467D01*
X1177Y1467D02*
X1184Y1467D01*
X0Y1466D02*
X3Y1466D01*
X626Y1466D02*
X633Y1466D01*
X1177Y1466D02*
X1184Y1466D01*
X0Y1465D02*
X3Y1465D01*
X626Y1465D02*
X633Y1465D01*
X1177Y1465D02*
X1184Y1465D01*
X0Y1464D02*
X3Y1464D01*
X626Y1464D02*
X633Y1464D01*
X1177Y1464D02*
X1184Y1464D01*
X0Y1463D02*
X3Y1463D01*
X626Y1463D02*
X633Y1463D01*
X1177Y1463D02*
X1184Y1463D01*
X0Y1462D02*
X3Y1462D01*
X626Y1462D02*
X633Y1462D01*
X1177Y1462D02*
X1184Y1462D01*
X0Y1461D02*
X3Y1461D01*
X626Y1461D02*
X633Y1461D01*
X1177Y1461D02*
X1184Y1461D01*
X0Y1460D02*
X3Y1460D01*
X626Y1460D02*
X633Y1460D01*
X1177Y1460D02*
X1184Y1460D01*
X0Y1459D02*
X3Y1459D01*
X626Y1459D02*
X633Y1459D01*
X1177Y1459D02*
X1184Y1459D01*
X0Y1458D02*
X3Y1458D01*
X626Y1458D02*
X633Y1458D01*
X1177Y1458D02*
X1184Y1458D01*
X0Y1457D02*
X3Y1457D01*
X626Y1457D02*
X633Y1457D01*
X1177Y1457D02*
X1184Y1457D01*
X0Y1456D02*
X3Y1456D01*
X626Y1456D02*
X633Y1456D01*
X1177Y1456D02*
X1184Y1456D01*
X0Y1455D02*
X3Y1455D01*
X626Y1455D02*
X633Y1455D01*
X1177Y1455D02*
X1184Y1455D01*
X0Y1454D02*
X3Y1454D01*
X626Y1454D02*
X633Y1454D01*
X1177Y1454D02*
X1184Y1454D01*
X0Y1453D02*
X3Y1453D01*
X626Y1453D02*
X633Y1453D01*
X1177Y1453D02*
X1184Y1453D01*
X0Y1452D02*
X3Y1452D01*
X626Y1452D02*
X633Y1452D01*
X1177Y1452D02*
X1184Y1452D01*
X0Y1451D02*
X3Y1451D01*
X626Y1451D02*
X633Y1451D01*
X1177Y1451D02*
X1184Y1451D01*
X0Y1450D02*
X3Y1450D01*
X626Y1450D02*
X633Y1450D01*
X1177Y1450D02*
X1184Y1450D01*
X0Y1449D02*
X3Y1449D01*
X626Y1449D02*
X633Y1449D01*
X1177Y1449D02*
X1184Y1449D01*
X0Y1448D02*
X3Y1448D01*
X626Y1448D02*
X633Y1448D01*
X1177Y1448D02*
X1184Y1448D01*
X0Y1447D02*
X3Y1447D01*
X626Y1447D02*
X633Y1447D01*
X1177Y1447D02*
X1184Y1447D01*
X0Y1446D02*
X3Y1446D01*
X626Y1446D02*
X633Y1446D01*
X1177Y1446D02*
X1184Y1446D01*
X0Y1445D02*
X3Y1445D01*
X626Y1445D02*
X633Y1445D01*
X1177Y1445D02*
X1184Y1445D01*
X0Y1444D02*
X3Y1444D01*
X626Y1444D02*
X633Y1444D01*
X1177Y1444D02*
X1184Y1444D01*
X0Y1443D02*
X3Y1443D01*
X626Y1443D02*
X633Y1443D01*
X1177Y1443D02*
X1184Y1443D01*
X0Y1442D02*
X3Y1442D01*
X626Y1442D02*
X633Y1442D01*
X1177Y1442D02*
X1184Y1442D01*
X0Y1441D02*
X3Y1441D01*
X626Y1441D02*
X633Y1441D01*
X1177Y1441D02*
X1184Y1441D01*
X0Y1440D02*
X3Y1440D01*
X626Y1440D02*
X633Y1440D01*
X1177Y1440D02*
X1184Y1440D01*
X0Y1439D02*
X3Y1439D01*
X626Y1439D02*
X633Y1439D01*
X1177Y1439D02*
X1184Y1439D01*
X0Y1438D02*
X3Y1438D01*
X626Y1438D02*
X633Y1438D01*
X1177Y1438D02*
X1184Y1438D01*
X0Y1437D02*
X3Y1437D01*
X626Y1437D02*
X633Y1437D01*
X1177Y1437D02*
X1184Y1437D01*
X0Y1436D02*
X3Y1436D01*
X626Y1436D02*
X633Y1436D01*
X1177Y1436D02*
X1184Y1436D01*
X0Y1435D02*
X3Y1435D01*
X626Y1435D02*
X633Y1435D01*
X1177Y1435D02*
X1184Y1435D01*
X0Y1434D02*
X3Y1434D01*
X626Y1434D02*
X633Y1434D01*
X1177Y1434D02*
X1184Y1434D01*
X0Y1433D02*
X3Y1433D01*
X626Y1433D02*
X633Y1433D01*
X1177Y1433D02*
X1184Y1433D01*
X0Y1432D02*
X3Y1432D01*
X626Y1432D02*
X633Y1432D01*
X1177Y1432D02*
X1184Y1432D01*
X0Y1431D02*
X3Y1431D01*
X626Y1431D02*
X633Y1431D01*
X1177Y1431D02*
X1184Y1431D01*
X0Y1430D02*
X3Y1430D01*
X626Y1430D02*
X633Y1430D01*
X1177Y1430D02*
X1184Y1430D01*
X0Y1429D02*
X3Y1429D01*
X626Y1429D02*
X633Y1429D01*
X1177Y1429D02*
X1184Y1429D01*
X0Y1428D02*
X3Y1428D01*
X626Y1428D02*
X633Y1428D01*
X1177Y1428D02*
X1184Y1428D01*
X0Y1427D02*
X3Y1427D01*
X626Y1427D02*
X633Y1427D01*
X1177Y1427D02*
X1184Y1427D01*
X0Y1426D02*
X3Y1426D01*
X626Y1426D02*
X633Y1426D01*
X1177Y1426D02*
X1184Y1426D01*
X0Y1425D02*
X3Y1425D01*
X626Y1425D02*
X633Y1425D01*
X1177Y1425D02*
X1184Y1425D01*
X0Y1424D02*
X3Y1424D01*
X626Y1424D02*
X633Y1424D01*
X1177Y1424D02*
X1184Y1424D01*
X0Y1423D02*
X3Y1423D01*
X626Y1423D02*
X633Y1423D01*
X1177Y1423D02*
X1184Y1423D01*
X0Y1422D02*
X3Y1422D01*
X626Y1422D02*
X633Y1422D01*
X1177Y1422D02*
X1184Y1422D01*
X0Y1421D02*
X3Y1421D01*
X626Y1421D02*
X633Y1421D01*
X1177Y1421D02*
X1184Y1421D01*
X0Y1420D02*
X3Y1420D01*
X626Y1420D02*
X633Y1420D01*
X1177Y1420D02*
X1184Y1420D01*
X0Y1419D02*
X3Y1419D01*
X626Y1419D02*
X633Y1419D01*
X1177Y1419D02*
X1184Y1419D01*
X0Y1418D02*
X3Y1418D01*
X626Y1418D02*
X633Y1418D01*
X1177Y1418D02*
X1184Y1418D01*
X0Y1417D02*
X3Y1417D01*
X626Y1417D02*
X633Y1417D01*
X1177Y1417D02*
X1184Y1417D01*
X0Y1416D02*
X3Y1416D01*
X626Y1416D02*
X633Y1416D01*
X1177Y1416D02*
X1184Y1416D01*
X0Y1415D02*
X3Y1415D01*
X626Y1415D02*
X633Y1415D01*
X1177Y1415D02*
X1184Y1415D01*
X0Y1414D02*
X3Y1414D01*
X626Y1414D02*
X633Y1414D01*
X1177Y1414D02*
X1184Y1414D01*
X0Y1413D02*
X3Y1413D01*
X626Y1413D02*
X633Y1413D01*
X1177Y1413D02*
X1184Y1413D01*
X0Y1412D02*
X3Y1412D01*
X626Y1412D02*
X633Y1412D01*
X1177Y1412D02*
X1184Y1412D01*
X0Y1411D02*
X3Y1411D01*
X626Y1411D02*
X633Y1411D01*
X1177Y1411D02*
X1184Y1411D01*
X0Y1410D02*
X3Y1410D01*
X626Y1410D02*
X633Y1410D01*
X1177Y1410D02*
X1184Y1410D01*
X0Y1409D02*
X3Y1409D01*
X626Y1409D02*
X633Y1409D01*
X1177Y1409D02*
X1184Y1409D01*
X0Y1408D02*
X3Y1408D01*
X626Y1408D02*
X633Y1408D01*
X1177Y1408D02*
X1184Y1408D01*
X0Y1407D02*
X3Y1407D01*
X626Y1407D02*
X633Y1407D01*
X1177Y1407D02*
X1184Y1407D01*
X0Y1406D02*
X3Y1406D01*
X626Y1406D02*
X633Y1406D01*
X1177Y1406D02*
X1184Y1406D01*
X0Y1405D02*
X3Y1405D01*
X626Y1405D02*
X633Y1405D01*
X1177Y1405D02*
X1184Y1405D01*
X0Y1404D02*
X3Y1404D01*
X626Y1404D02*
X633Y1404D01*
X1177Y1404D02*
X1184Y1404D01*
X0Y1403D02*
X3Y1403D01*
X626Y1403D02*
X633Y1403D01*
X1177Y1403D02*
X1184Y1403D01*
X0Y1402D02*
X3Y1402D01*
X626Y1402D02*
X633Y1402D01*
X1177Y1402D02*
X1184Y1402D01*
X0Y1401D02*
X3Y1401D01*
X626Y1401D02*
X633Y1401D01*
X1177Y1401D02*
X1184Y1401D01*
X0Y1400D02*
X3Y1400D01*
X626Y1400D02*
X633Y1400D01*
X1177Y1400D02*
X1184Y1400D01*
X0Y1399D02*
X3Y1399D01*
X626Y1399D02*
X633Y1399D01*
X1177Y1399D02*
X1184Y1399D01*
X0Y1398D02*
X3Y1398D01*
X626Y1398D02*
X633Y1398D01*
X1177Y1398D02*
X1184Y1398D01*
X0Y1397D02*
X3Y1397D01*
X626Y1397D02*
X633Y1397D01*
X1177Y1397D02*
X1184Y1397D01*
X0Y1396D02*
X3Y1396D01*
X626Y1396D02*
X633Y1396D01*
X1177Y1396D02*
X1184Y1396D01*
X0Y1395D02*
X3Y1395D01*
X626Y1395D02*
X633Y1395D01*
X1177Y1395D02*
X1184Y1395D01*
X0Y1394D02*
X3Y1394D01*
X626Y1394D02*
X633Y1394D01*
X1177Y1394D02*
X1184Y1394D01*
X0Y1393D02*
X3Y1393D01*
X626Y1393D02*
X633Y1393D01*
X1177Y1393D02*
X1184Y1393D01*
X0Y1392D02*
X3Y1392D01*
X626Y1392D02*
X633Y1392D01*
X1177Y1392D02*
X1184Y1392D01*
X0Y1391D02*
X3Y1391D01*
X626Y1391D02*
X633Y1391D01*
X1177Y1391D02*
X1184Y1391D01*
X0Y1390D02*
X3Y1390D01*
X626Y1390D02*
X633Y1390D01*
X1177Y1390D02*
X1184Y1390D01*
X0Y1389D02*
X3Y1389D01*
X626Y1389D02*
X633Y1389D01*
X1177Y1389D02*
X1184Y1389D01*
X0Y1388D02*
X3Y1388D01*
X626Y1388D02*
X633Y1388D01*
X1177Y1388D02*
X1184Y1388D01*
X0Y1387D02*
X3Y1387D01*
X626Y1387D02*
X633Y1387D01*
X1177Y1387D02*
X1184Y1387D01*
X0Y1386D02*
X3Y1386D01*
X626Y1386D02*
X633Y1386D01*
X1177Y1386D02*
X1184Y1386D01*
X0Y1385D02*
X3Y1385D01*
X626Y1385D02*
X633Y1385D01*
X1177Y1385D02*
X1184Y1385D01*
X0Y1384D02*
X3Y1384D01*
X626Y1384D02*
X633Y1384D01*
X1177Y1384D02*
X1184Y1384D01*
X0Y1383D02*
X3Y1383D01*
X626Y1383D02*
X633Y1383D01*
X1177Y1383D02*
X1184Y1383D01*
X0Y1382D02*
X3Y1382D01*
X626Y1382D02*
X633Y1382D01*
X1177Y1382D02*
X1184Y1382D01*
X0Y1381D02*
X3Y1381D01*
X626Y1381D02*
X633Y1381D01*
X1177Y1381D02*
X1184Y1381D01*
X0Y1380D02*
X3Y1380D01*
X626Y1380D02*
X633Y1380D01*
X1177Y1380D02*
X1184Y1380D01*
X0Y1379D02*
X3Y1379D01*
X626Y1379D02*
X633Y1379D01*
X1177Y1379D02*
X1184Y1379D01*
X0Y1378D02*
X3Y1378D01*
X626Y1378D02*
X633Y1378D01*
X1177Y1378D02*
X1184Y1378D01*
X0Y1377D02*
X3Y1377D01*
X626Y1377D02*
X633Y1377D01*
X1177Y1377D02*
X1184Y1377D01*
X0Y1376D02*
X3Y1376D01*
X626Y1376D02*
X633Y1376D01*
X1177Y1376D02*
X1184Y1376D01*
X0Y1375D02*
X3Y1375D01*
X626Y1375D02*
X633Y1375D01*
X1177Y1375D02*
X1184Y1375D01*
X0Y1374D02*
X3Y1374D01*
X626Y1374D02*
X633Y1374D01*
X1177Y1374D02*
X1184Y1374D01*
X0Y1373D02*
X3Y1373D01*
X626Y1373D02*
X633Y1373D01*
X1177Y1373D02*
X1184Y1373D01*
X0Y1372D02*
X3Y1372D01*
X626Y1372D02*
X633Y1372D01*
X1177Y1372D02*
X1184Y1372D01*
X0Y1371D02*
X3Y1371D01*
X626Y1371D02*
X633Y1371D01*
X1177Y1371D02*
X1184Y1371D01*
X0Y1370D02*
X3Y1370D01*
X626Y1370D02*
X633Y1370D01*
X1177Y1370D02*
X1184Y1370D01*
X0Y1369D02*
X3Y1369D01*
X626Y1369D02*
X633Y1369D01*
X1177Y1369D02*
X1184Y1369D01*
X0Y1368D02*
X3Y1368D01*
X626Y1368D02*
X633Y1368D01*
X1177Y1368D02*
X1184Y1368D01*
X0Y1367D02*
X3Y1367D01*
X626Y1367D02*
X633Y1367D01*
X1177Y1367D02*
X1184Y1367D01*
X0Y1366D02*
X3Y1366D01*
X626Y1366D02*
X633Y1366D01*
X1177Y1366D02*
X1184Y1366D01*
X0Y1365D02*
X3Y1365D01*
X626Y1365D02*
X633Y1365D01*
X1177Y1365D02*
X1184Y1365D01*
X0Y1364D02*
X3Y1364D01*
X626Y1364D02*
X633Y1364D01*
X1177Y1364D02*
X1184Y1364D01*
X0Y1363D02*
X3Y1363D01*
X626Y1363D02*
X633Y1363D01*
X1177Y1363D02*
X1184Y1363D01*
X0Y1362D02*
X3Y1362D01*
X626Y1362D02*
X633Y1362D01*
X1177Y1362D02*
X1184Y1362D01*
X0Y1361D02*
X3Y1361D01*
X626Y1361D02*
X633Y1361D01*
X1177Y1361D02*
X1184Y1361D01*
X0Y1360D02*
X3Y1360D01*
X626Y1360D02*
X633Y1360D01*
X1177Y1360D02*
X1184Y1360D01*
X0Y1359D02*
X3Y1359D01*
X626Y1359D02*
X633Y1359D01*
X1177Y1359D02*
X1184Y1359D01*
X0Y1358D02*
X3Y1358D01*
X626Y1358D02*
X633Y1358D01*
X1177Y1358D02*
X1184Y1358D01*
X0Y1357D02*
X3Y1357D01*
X626Y1357D02*
X633Y1357D01*
X1177Y1357D02*
X1184Y1357D01*
X0Y1356D02*
X3Y1356D01*
X626Y1356D02*
X633Y1356D01*
X1177Y1356D02*
X1184Y1356D01*
X0Y1355D02*
X3Y1355D01*
X626Y1355D02*
X633Y1355D01*
X1177Y1355D02*
X1184Y1355D01*
X0Y1354D02*
X3Y1354D01*
X626Y1354D02*
X633Y1354D01*
X1177Y1354D02*
X1184Y1354D01*
X0Y1353D02*
X3Y1353D01*
X626Y1353D02*
X633Y1353D01*
X1177Y1353D02*
X1184Y1353D01*
X0Y1352D02*
X3Y1352D01*
X626Y1352D02*
X633Y1352D01*
X1177Y1352D02*
X1184Y1352D01*
X0Y1351D02*
X3Y1351D01*
X626Y1351D02*
X633Y1351D01*
X1177Y1351D02*
X1184Y1351D01*
X0Y1350D02*
X3Y1350D01*
X626Y1350D02*
X633Y1350D01*
X1177Y1350D02*
X1184Y1350D01*
X0Y1349D02*
X3Y1349D01*
X626Y1349D02*
X633Y1349D01*
X1177Y1349D02*
X1184Y1349D01*
X0Y1348D02*
X3Y1348D01*
X626Y1348D02*
X633Y1348D01*
X1177Y1348D02*
X1184Y1348D01*
X0Y1347D02*
X3Y1347D01*
X626Y1347D02*
X633Y1347D01*
X1177Y1347D02*
X1184Y1347D01*
X0Y1346D02*
X3Y1346D01*
X626Y1346D02*
X633Y1346D01*
X1177Y1346D02*
X1184Y1346D01*
X0Y1345D02*
X3Y1345D01*
X626Y1345D02*
X633Y1345D01*
X1177Y1345D02*
X1184Y1345D01*
X0Y1344D02*
X3Y1344D01*
X626Y1344D02*
X633Y1344D01*
X1177Y1344D02*
X1184Y1344D01*
X0Y1343D02*
X3Y1343D01*
X626Y1343D02*
X633Y1343D01*
X1177Y1343D02*
X1184Y1343D01*
X0Y1342D02*
X3Y1342D01*
X626Y1342D02*
X633Y1342D01*
X1177Y1342D02*
X1184Y1342D01*
X0Y1341D02*
X3Y1341D01*
X626Y1341D02*
X633Y1341D01*
X1177Y1341D02*
X1184Y1341D01*
X0Y1340D02*
X3Y1340D01*
X626Y1340D02*
X633Y1340D01*
X1177Y1340D02*
X1184Y1340D01*
X0Y1339D02*
X3Y1339D01*
X626Y1339D02*
X633Y1339D01*
X1177Y1339D02*
X1184Y1339D01*
X0Y1338D02*
X3Y1338D01*
X626Y1338D02*
X633Y1338D01*
X1177Y1338D02*
X1184Y1338D01*
X0Y1337D02*
X3Y1337D01*
X626Y1337D02*
X633Y1337D01*
X1177Y1337D02*
X1184Y1337D01*
X0Y1336D02*
X3Y1336D01*
X626Y1336D02*
X633Y1336D01*
X1177Y1336D02*
X1184Y1336D01*
X0Y1335D02*
X3Y1335D01*
X626Y1335D02*
X633Y1335D01*
X1177Y1335D02*
X1184Y1335D01*
X0Y1334D02*
X3Y1334D01*
X626Y1334D02*
X633Y1334D01*
X1177Y1334D02*
X1184Y1334D01*
X0Y1333D02*
X3Y1333D01*
X626Y1333D02*
X633Y1333D01*
X1177Y1333D02*
X1184Y1333D01*
X0Y1332D02*
X3Y1332D01*
X626Y1332D02*
X633Y1332D01*
X1177Y1332D02*
X1184Y1332D01*
X0Y1331D02*
X3Y1331D01*
X626Y1331D02*
X633Y1331D01*
X1177Y1331D02*
X1184Y1331D01*
X0Y1330D02*
X3Y1330D01*
X626Y1330D02*
X633Y1330D01*
X1177Y1330D02*
X1184Y1330D01*
X0Y1329D02*
X3Y1329D01*
X626Y1329D02*
X633Y1329D01*
X1177Y1329D02*
X1184Y1329D01*
X0Y1328D02*
X3Y1328D01*
X626Y1328D02*
X633Y1328D01*
X1177Y1328D02*
X1184Y1328D01*
X0Y1327D02*
X3Y1327D01*
X626Y1327D02*
X633Y1327D01*
X1177Y1327D02*
X1184Y1327D01*
X0Y1326D02*
X3Y1326D01*
X626Y1326D02*
X633Y1326D01*
X1177Y1326D02*
X1184Y1326D01*
X0Y1325D02*
X3Y1325D01*
X626Y1325D02*
X633Y1325D01*
X1177Y1325D02*
X1184Y1325D01*
X0Y1324D02*
X3Y1324D01*
X626Y1324D02*
X633Y1324D01*
X1177Y1324D02*
X1184Y1324D01*
X0Y1323D02*
X3Y1323D01*
X626Y1323D02*
X633Y1323D01*
X1177Y1323D02*
X1184Y1323D01*
X0Y1322D02*
X3Y1322D01*
X626Y1322D02*
X633Y1322D01*
X1177Y1322D02*
X1184Y1322D01*
X0Y1321D02*
X3Y1321D01*
X626Y1321D02*
X633Y1321D01*
X1177Y1321D02*
X1184Y1321D01*
X0Y1320D02*
X3Y1320D01*
X626Y1320D02*
X633Y1320D01*
X1177Y1320D02*
X1184Y1320D01*
X0Y1319D02*
X3Y1319D01*
X626Y1319D02*
X633Y1319D01*
X1177Y1319D02*
X1184Y1319D01*
X0Y1318D02*
X3Y1318D01*
X626Y1318D02*
X633Y1318D01*
X1177Y1318D02*
X1184Y1318D01*
X0Y1317D02*
X3Y1317D01*
X626Y1317D02*
X633Y1317D01*
X1177Y1317D02*
X1184Y1317D01*
X0Y1316D02*
X3Y1316D01*
X626Y1316D02*
X633Y1316D01*
X1177Y1316D02*
X1184Y1316D01*
X0Y1315D02*
X3Y1315D01*
X626Y1315D02*
X633Y1315D01*
X1177Y1315D02*
X1184Y1315D01*
X0Y1314D02*
X3Y1314D01*
X626Y1314D02*
X633Y1314D01*
X1177Y1314D02*
X1184Y1314D01*
X0Y1313D02*
X3Y1313D01*
X626Y1313D02*
X633Y1313D01*
X1177Y1313D02*
X1184Y1313D01*
X0Y1312D02*
X3Y1312D01*
X626Y1312D02*
X633Y1312D01*
X1177Y1312D02*
X1184Y1312D01*
X0Y1311D02*
X3Y1311D01*
X626Y1311D02*
X633Y1311D01*
X1177Y1311D02*
X1184Y1311D01*
X0Y1310D02*
X3Y1310D01*
X626Y1310D02*
X633Y1310D01*
X1177Y1310D02*
X1184Y1310D01*
X0Y1309D02*
X3Y1309D01*
X626Y1309D02*
X633Y1309D01*
X1177Y1309D02*
X1184Y1309D01*
X0Y1308D02*
X3Y1308D01*
X626Y1308D02*
X633Y1308D01*
X1177Y1308D02*
X1184Y1308D01*
X0Y1307D02*
X3Y1307D01*
X626Y1307D02*
X633Y1307D01*
X1177Y1307D02*
X1184Y1307D01*
X0Y1306D02*
X3Y1306D01*
X626Y1306D02*
X633Y1306D01*
X1177Y1306D02*
X1184Y1306D01*
X0Y1305D02*
X3Y1305D01*
X626Y1305D02*
X633Y1305D01*
X1177Y1305D02*
X1184Y1305D01*
X0Y1304D02*
X3Y1304D01*
X626Y1304D02*
X633Y1304D01*
X1177Y1304D02*
X1184Y1304D01*
X0Y1303D02*
X3Y1303D01*
X626Y1303D02*
X633Y1303D01*
X1177Y1303D02*
X1184Y1303D01*
X0Y1302D02*
X3Y1302D01*
X626Y1302D02*
X633Y1302D01*
X1177Y1302D02*
X1184Y1302D01*
X0Y1301D02*
X3Y1301D01*
X626Y1301D02*
X633Y1301D01*
X1177Y1301D02*
X1184Y1301D01*
X0Y1300D02*
X3Y1300D01*
X626Y1300D02*
X633Y1300D01*
X1177Y1300D02*
X1184Y1300D01*
X0Y1299D02*
X3Y1299D01*
X626Y1299D02*
X633Y1299D01*
X1177Y1299D02*
X1184Y1299D01*
X0Y1298D02*
X3Y1298D01*
X626Y1298D02*
X633Y1298D01*
X1177Y1298D02*
X1184Y1298D01*
X0Y1297D02*
X3Y1297D01*
X626Y1297D02*
X633Y1297D01*
X1177Y1297D02*
X1184Y1297D01*
X0Y1296D02*
X3Y1296D01*
X626Y1296D02*
X633Y1296D01*
X1177Y1296D02*
X1184Y1296D01*
X0Y1295D02*
X3Y1295D01*
X626Y1295D02*
X633Y1295D01*
X1177Y1295D02*
X1184Y1295D01*
X0Y1294D02*
X3Y1294D01*
X626Y1294D02*
X633Y1294D01*
X1177Y1294D02*
X1184Y1294D01*
X0Y1293D02*
X3Y1293D01*
X626Y1293D02*
X633Y1293D01*
X1177Y1293D02*
X1184Y1293D01*
X0Y1292D02*
X3Y1292D01*
X626Y1292D02*
X633Y1292D01*
X1177Y1292D02*
X1184Y1292D01*
X0Y1291D02*
X3Y1291D01*
X626Y1291D02*
X633Y1291D01*
X1177Y1291D02*
X1184Y1291D01*
X0Y1290D02*
X3Y1290D01*
X626Y1290D02*
X633Y1290D01*
X1177Y1290D02*
X1184Y1290D01*
X0Y1289D02*
X3Y1289D01*
X626Y1289D02*
X633Y1289D01*
X1177Y1289D02*
X1184Y1289D01*
X0Y1288D02*
X3Y1288D01*
X626Y1288D02*
X633Y1288D01*
X1177Y1288D02*
X1184Y1288D01*
X0Y1287D02*
X3Y1287D01*
X626Y1287D02*
X633Y1287D01*
X1177Y1287D02*
X1184Y1287D01*
X0Y1286D02*
X3Y1286D01*
X626Y1286D02*
X633Y1286D01*
X1177Y1286D02*
X1184Y1286D01*
X0Y1285D02*
X3Y1285D01*
X626Y1285D02*
X633Y1285D01*
X1177Y1285D02*
X1184Y1285D01*
X0Y1284D02*
X3Y1284D01*
X626Y1284D02*
X633Y1284D01*
X1177Y1284D02*
X1184Y1284D01*
X0Y1283D02*
X3Y1283D01*
X626Y1283D02*
X633Y1283D01*
X1177Y1283D02*
X1184Y1283D01*
X0Y1282D02*
X3Y1282D01*
X626Y1282D02*
X633Y1282D01*
X1177Y1282D02*
X1184Y1282D01*
X0Y1281D02*
X3Y1281D01*
X626Y1281D02*
X633Y1281D01*
X1177Y1281D02*
X1184Y1281D01*
X0Y1280D02*
X3Y1280D01*
X626Y1280D02*
X633Y1280D01*
X1177Y1280D02*
X1184Y1280D01*
X0Y1279D02*
X3Y1279D01*
X626Y1279D02*
X633Y1279D01*
X1177Y1279D02*
X1184Y1279D01*
X0Y1278D02*
X3Y1278D01*
X626Y1278D02*
X633Y1278D01*
X1177Y1278D02*
X1184Y1278D01*
X0Y1277D02*
X3Y1277D01*
X626Y1277D02*
X633Y1277D01*
X1177Y1277D02*
X1184Y1277D01*
X0Y1276D02*
X3Y1276D01*
X626Y1276D02*
X633Y1276D01*
X1177Y1276D02*
X1184Y1276D01*
X0Y1275D02*
X3Y1275D01*
X626Y1275D02*
X633Y1275D01*
X1177Y1275D02*
X1184Y1275D01*
X0Y1274D02*
X3Y1274D01*
X626Y1274D02*
X633Y1274D01*
X1177Y1274D02*
X1184Y1274D01*
X0Y1273D02*
X3Y1273D01*
X626Y1273D02*
X633Y1273D01*
X1177Y1273D02*
X1184Y1273D01*
X0Y1272D02*
X3Y1272D01*
X626Y1272D02*
X633Y1272D01*
X1177Y1272D02*
X1184Y1272D01*
X0Y1271D02*
X3Y1271D01*
X626Y1271D02*
X633Y1271D01*
X1177Y1271D02*
X1184Y1271D01*
X0Y1270D02*
X3Y1270D01*
X626Y1270D02*
X633Y1270D01*
X1177Y1270D02*
X1184Y1270D01*
X0Y1269D02*
X3Y1269D01*
X626Y1269D02*
X633Y1269D01*
X1177Y1269D02*
X1184Y1269D01*
X0Y1268D02*
X3Y1268D01*
X626Y1268D02*
X633Y1268D01*
X1177Y1268D02*
X1184Y1268D01*
X0Y1267D02*
X3Y1267D01*
X626Y1267D02*
X633Y1267D01*
X1177Y1267D02*
X1184Y1267D01*
X0Y1266D02*
X3Y1266D01*
X626Y1266D02*
X633Y1266D01*
X1177Y1266D02*
X1184Y1266D01*
X0Y1265D02*
X3Y1265D01*
X626Y1265D02*
X633Y1265D01*
X1177Y1265D02*
X1184Y1265D01*
X0Y1264D02*
X3Y1264D01*
X626Y1264D02*
X633Y1264D01*
X1177Y1264D02*
X1184Y1264D01*
X0Y1263D02*
X3Y1263D01*
X626Y1263D02*
X633Y1263D01*
X1177Y1263D02*
X1184Y1263D01*
X0Y1262D02*
X3Y1262D01*
X626Y1262D02*
X633Y1262D01*
X1177Y1262D02*
X1184Y1262D01*
X0Y1261D02*
X3Y1261D01*
X626Y1261D02*
X633Y1261D01*
X1177Y1261D02*
X1184Y1261D01*
X0Y1260D02*
X3Y1260D01*
X626Y1260D02*
X633Y1260D01*
X1177Y1260D02*
X1184Y1260D01*
X0Y1259D02*
X3Y1259D01*
X626Y1259D02*
X633Y1259D01*
X1177Y1259D02*
X1184Y1259D01*
X0Y1258D02*
X3Y1258D01*
X626Y1258D02*
X633Y1258D01*
X1177Y1258D02*
X1184Y1258D01*
X0Y1257D02*
X3Y1257D01*
X626Y1257D02*
X633Y1257D01*
X1177Y1257D02*
X1184Y1257D01*
X0Y1256D02*
X3Y1256D01*
X626Y1256D02*
X633Y1256D01*
X1177Y1256D02*
X1184Y1256D01*
X0Y1255D02*
X3Y1255D01*
X626Y1255D02*
X633Y1255D01*
X1177Y1255D02*
X1184Y1255D01*
X0Y1254D02*
X3Y1254D01*
X626Y1254D02*
X633Y1254D01*
X1177Y1254D02*
X1184Y1254D01*
X0Y1253D02*
X3Y1253D01*
X626Y1253D02*
X633Y1253D01*
X1177Y1253D02*
X1184Y1253D01*
X0Y1252D02*
X3Y1252D01*
X626Y1252D02*
X633Y1252D01*
X1177Y1252D02*
X1184Y1252D01*
X0Y1251D02*
X3Y1251D01*
X626Y1251D02*
X633Y1251D01*
X1177Y1251D02*
X1184Y1251D01*
X0Y1250D02*
X3Y1250D01*
X626Y1250D02*
X633Y1250D01*
X1177Y1250D02*
X1184Y1250D01*
X0Y1249D02*
X3Y1249D01*
X626Y1249D02*
X633Y1249D01*
X1177Y1249D02*
X1184Y1249D01*
X0Y1248D02*
X3Y1248D01*
X626Y1248D02*
X633Y1248D01*
X1177Y1248D02*
X1184Y1248D01*
X0Y1247D02*
X3Y1247D01*
X626Y1247D02*
X633Y1247D01*
X1177Y1247D02*
X1184Y1247D01*
X0Y1246D02*
X3Y1246D01*
X626Y1246D02*
X633Y1246D01*
X1177Y1246D02*
X1184Y1246D01*
X0Y1245D02*
X3Y1245D01*
X626Y1245D02*
X633Y1245D01*
X1177Y1245D02*
X1184Y1245D01*
X0Y1244D02*
X3Y1244D01*
X626Y1244D02*
X633Y1244D01*
X1177Y1244D02*
X1184Y1244D01*
X0Y1243D02*
X3Y1243D01*
X626Y1243D02*
X633Y1243D01*
X1177Y1243D02*
X1184Y1243D01*
X0Y1242D02*
X3Y1242D01*
X626Y1242D02*
X633Y1242D01*
X1177Y1242D02*
X1184Y1242D01*
X0Y1241D02*
X3Y1241D01*
X626Y1241D02*
X633Y1241D01*
X1177Y1241D02*
X1184Y1241D01*
X0Y1240D02*
X3Y1240D01*
X626Y1240D02*
X633Y1240D01*
X1177Y1240D02*
X1184Y1240D01*
X0Y1239D02*
X3Y1239D01*
X626Y1239D02*
X633Y1239D01*
X1177Y1239D02*
X1184Y1239D01*
X0Y1238D02*
X3Y1238D01*
X626Y1238D02*
X633Y1238D01*
X1177Y1238D02*
X1184Y1238D01*
X0Y1237D02*
X3Y1237D01*
X626Y1237D02*
X633Y1237D01*
X1177Y1237D02*
X1184Y1237D01*
X0Y1236D02*
X3Y1236D01*
X626Y1236D02*
X633Y1236D01*
X1177Y1236D02*
X1184Y1236D01*
X0Y1235D02*
X3Y1235D01*
X626Y1235D02*
X633Y1235D01*
X1177Y1235D02*
X1184Y1235D01*
X0Y1234D02*
X3Y1234D01*
X626Y1234D02*
X633Y1234D01*
X1177Y1234D02*
X1184Y1234D01*
X0Y1233D02*
X3Y1233D01*
X626Y1233D02*
X633Y1233D01*
X1177Y1233D02*
X1184Y1233D01*
X0Y1232D02*
X3Y1232D01*
X626Y1232D02*
X633Y1232D01*
X1177Y1232D02*
X1184Y1232D01*
X0Y1231D02*
X3Y1231D01*
X626Y1231D02*
X633Y1231D01*
X1177Y1231D02*
X1184Y1231D01*
X0Y1230D02*
X3Y1230D01*
X626Y1230D02*
X633Y1230D01*
X1177Y1230D02*
X1184Y1230D01*
X0Y1229D02*
X3Y1229D01*
X626Y1229D02*
X633Y1229D01*
X1177Y1229D02*
X1184Y1229D01*
X0Y1228D02*
X3Y1228D01*
X626Y1228D02*
X633Y1228D01*
X1177Y1228D02*
X1184Y1228D01*
X0Y1227D02*
X3Y1227D01*
X626Y1227D02*
X633Y1227D01*
X1177Y1227D02*
X1184Y1227D01*
X0Y1226D02*
X3Y1226D01*
X626Y1226D02*
X633Y1226D01*
X1177Y1226D02*
X1184Y1226D01*
X0Y1225D02*
X3Y1225D01*
X626Y1225D02*
X633Y1225D01*
X1177Y1225D02*
X1184Y1225D01*
X0Y1224D02*
X3Y1224D01*
X626Y1224D02*
X633Y1224D01*
X1177Y1224D02*
X1184Y1224D01*
X0Y1223D02*
X3Y1223D01*
X626Y1223D02*
X633Y1223D01*
X1177Y1223D02*
X1184Y1223D01*
X0Y1222D02*
X3Y1222D01*
X626Y1222D02*
X633Y1222D01*
X1177Y1222D02*
X1184Y1222D01*
X0Y1221D02*
X3Y1221D01*
X626Y1221D02*
X633Y1221D01*
X1177Y1221D02*
X1184Y1221D01*
X0Y1220D02*
X3Y1220D01*
X626Y1220D02*
X633Y1220D01*
X1177Y1220D02*
X1184Y1220D01*
X0Y1219D02*
X3Y1219D01*
X626Y1219D02*
X633Y1219D01*
X1177Y1219D02*
X1184Y1219D01*
X0Y1218D02*
X3Y1218D01*
X626Y1218D02*
X633Y1218D01*
X1177Y1218D02*
X1184Y1218D01*
X0Y1217D02*
X3Y1217D01*
X626Y1217D02*
X633Y1217D01*
X1177Y1217D02*
X1184Y1217D01*
X0Y1216D02*
X3Y1216D01*
X626Y1216D02*
X633Y1216D01*
X1177Y1216D02*
X1184Y1216D01*
X0Y1215D02*
X3Y1215D01*
X626Y1215D02*
X633Y1215D01*
X1177Y1215D02*
X1184Y1215D01*
X0Y1214D02*
X3Y1214D01*
X626Y1214D02*
X633Y1214D01*
X1177Y1214D02*
X1184Y1214D01*
X0Y1213D02*
X3Y1213D01*
X626Y1213D02*
X633Y1213D01*
X1177Y1213D02*
X1184Y1213D01*
X0Y1212D02*
X3Y1212D01*
X626Y1212D02*
X633Y1212D01*
X1177Y1212D02*
X1184Y1212D01*
X0Y1211D02*
X3Y1211D01*
X626Y1211D02*
X633Y1211D01*
X1177Y1211D02*
X1184Y1211D01*
X0Y1210D02*
X3Y1210D01*
X626Y1210D02*
X633Y1210D01*
X1177Y1210D02*
X1184Y1210D01*
X0Y1209D02*
X3Y1209D01*
X626Y1209D02*
X633Y1209D01*
X1177Y1209D02*
X1184Y1209D01*
X0Y1208D02*
X3Y1208D01*
X626Y1208D02*
X633Y1208D01*
X1177Y1208D02*
X1184Y1208D01*
X0Y1207D02*
X3Y1207D01*
X626Y1207D02*
X633Y1207D01*
X1177Y1207D02*
X1184Y1207D01*
X0Y1206D02*
X3Y1206D01*
X626Y1206D02*
X633Y1206D01*
X1177Y1206D02*
X1184Y1206D01*
X0Y1205D02*
X3Y1205D01*
X626Y1205D02*
X633Y1205D01*
X1177Y1205D02*
X1184Y1205D01*
X0Y1204D02*
X3Y1204D01*
X626Y1204D02*
X633Y1204D01*
X1177Y1204D02*
X1184Y1204D01*
X0Y1203D02*
X3Y1203D01*
X626Y1203D02*
X633Y1203D01*
X1177Y1203D02*
X1184Y1203D01*
X0Y1202D02*
X3Y1202D01*
X626Y1202D02*
X633Y1202D01*
X1177Y1202D02*
X1184Y1202D01*
X0Y1201D02*
X3Y1201D01*
X626Y1201D02*
X633Y1201D01*
X1177Y1201D02*
X1184Y1201D01*
X0Y1200D02*
X3Y1200D01*
X626Y1200D02*
X633Y1200D01*
X1177Y1200D02*
X1184Y1200D01*
X0Y1199D02*
X3Y1199D01*
X626Y1199D02*
X633Y1199D01*
X1177Y1199D02*
X1184Y1199D01*
X0Y1198D02*
X3Y1198D01*
X626Y1198D02*
X633Y1198D01*
X1177Y1198D02*
X1184Y1198D01*
X0Y1197D02*
X3Y1197D01*
X626Y1197D02*
X633Y1197D01*
X1177Y1197D02*
X1184Y1197D01*
X0Y1196D02*
X3Y1196D01*
X626Y1196D02*
X633Y1196D01*
X1177Y1196D02*
X1184Y1196D01*
X0Y1195D02*
X3Y1195D01*
X626Y1195D02*
X633Y1195D01*
X1177Y1195D02*
X1184Y1195D01*
X0Y1194D02*
X3Y1194D01*
X626Y1194D02*
X633Y1194D01*
X1177Y1194D02*
X1184Y1194D01*
X0Y1193D02*
X3Y1193D01*
X626Y1193D02*
X633Y1193D01*
X1177Y1193D02*
X1184Y1193D01*
X0Y1192D02*
X3Y1192D01*
X626Y1192D02*
X633Y1192D01*
X1177Y1192D02*
X1184Y1192D01*
X0Y1191D02*
X3Y1191D01*
X626Y1191D02*
X633Y1191D01*
X1177Y1191D02*
X1184Y1191D01*
X0Y1190D02*
X3Y1190D01*
X626Y1190D02*
X633Y1190D01*
X1177Y1190D02*
X1184Y1190D01*
X0Y1189D02*
X3Y1189D01*
X626Y1189D02*
X633Y1189D01*
X1177Y1189D02*
X1184Y1189D01*
X0Y1188D02*
X3Y1188D01*
X626Y1188D02*
X633Y1188D01*
X1177Y1188D02*
X1184Y1188D01*
X0Y1187D02*
X3Y1187D01*
X626Y1187D02*
X633Y1187D01*
X1177Y1187D02*
X1184Y1187D01*
X0Y1186D02*
X3Y1186D01*
X626Y1186D02*
X633Y1186D01*
X1177Y1186D02*
X1184Y1186D01*
X0Y1185D02*
X3Y1185D01*
X626Y1185D02*
X633Y1185D01*
X1177Y1185D02*
X1184Y1185D01*
X0Y1184D02*
X3Y1184D01*
X626Y1184D02*
X633Y1184D01*
X1177Y1184D02*
X1184Y1184D01*
X0Y1183D02*
X3Y1183D01*
X626Y1183D02*
X633Y1183D01*
X1177Y1183D02*
X1184Y1183D01*
X0Y1182D02*
X3Y1182D01*
X626Y1182D02*
X633Y1182D01*
X1177Y1182D02*
X1184Y1182D01*
X0Y1181D02*
X3Y1181D01*
X626Y1181D02*
X633Y1181D01*
X1177Y1181D02*
X1184Y1181D01*
X0Y1180D02*
X3Y1180D01*
X626Y1180D02*
X633Y1180D01*
X1177Y1180D02*
X1184Y1180D01*
X0Y1179D02*
X3Y1179D01*
X626Y1179D02*
X633Y1179D01*
X1177Y1179D02*
X1184Y1179D01*
X0Y1178D02*
X3Y1178D01*
X626Y1178D02*
X633Y1178D01*
X1177Y1178D02*
X1184Y1178D01*
X0Y1177D02*
X3Y1177D01*
X626Y1177D02*
X633Y1177D01*
X1177Y1177D02*
X1184Y1177D01*
X0Y1176D02*
X3Y1176D01*
X626Y1176D02*
X633Y1176D01*
X1177Y1176D02*
X1184Y1176D01*
X0Y1175D02*
X3Y1175D01*
X626Y1175D02*
X633Y1175D01*
X1177Y1175D02*
X1184Y1175D01*
X0Y1174D02*
X3Y1174D01*
X626Y1174D02*
X633Y1174D01*
X1177Y1174D02*
X1184Y1174D01*
X0Y1173D02*
X3Y1173D01*
X626Y1173D02*
X633Y1173D01*
X1177Y1173D02*
X1184Y1173D01*
X0Y1172D02*
X3Y1172D01*
X626Y1172D02*
X633Y1172D01*
X1177Y1172D02*
X1184Y1172D01*
X0Y1171D02*
X3Y1171D01*
X626Y1171D02*
X633Y1171D01*
X1177Y1171D02*
X1184Y1171D01*
X0Y1170D02*
X3Y1170D01*
X626Y1170D02*
X633Y1170D01*
X1177Y1170D02*
X1184Y1170D01*
X0Y1169D02*
X3Y1169D01*
X626Y1169D02*
X633Y1169D01*
X1177Y1169D02*
X1184Y1169D01*
X0Y1168D02*
X3Y1168D01*
X626Y1168D02*
X633Y1168D01*
X1177Y1168D02*
X1184Y1168D01*
X0Y1167D02*
X3Y1167D01*
X626Y1167D02*
X633Y1167D01*
X1177Y1167D02*
X1184Y1167D01*
X0Y1166D02*
X3Y1166D01*
X626Y1166D02*
X633Y1166D01*
X1177Y1166D02*
X1184Y1166D01*
X0Y1165D02*
X3Y1165D01*
X626Y1165D02*
X633Y1165D01*
X1177Y1165D02*
X1184Y1165D01*
X0Y1164D02*
X3Y1164D01*
X626Y1164D02*
X633Y1164D01*
X1177Y1164D02*
X1184Y1164D01*
X0Y1163D02*
X3Y1163D01*
X626Y1163D02*
X633Y1163D01*
X1177Y1163D02*
X1184Y1163D01*
X0Y1162D02*
X3Y1162D01*
X626Y1162D02*
X633Y1162D01*
X1177Y1162D02*
X1184Y1162D01*
X0Y1161D02*
X3Y1161D01*
X626Y1161D02*
X633Y1161D01*
X1177Y1161D02*
X1184Y1161D01*
X0Y1160D02*
X3Y1160D01*
X626Y1160D02*
X633Y1160D01*
X1177Y1160D02*
X1184Y1160D01*
X0Y1159D02*
X3Y1159D01*
X626Y1159D02*
X633Y1159D01*
X1177Y1159D02*
X1184Y1159D01*
X0Y1158D02*
X3Y1158D01*
X626Y1158D02*
X633Y1158D01*
X1177Y1158D02*
X1184Y1158D01*
X0Y1157D02*
X3Y1157D01*
X626Y1157D02*
X633Y1157D01*
X1177Y1157D02*
X1184Y1157D01*
X0Y1156D02*
X3Y1156D01*
X626Y1156D02*
X633Y1156D01*
X1177Y1156D02*
X1184Y1156D01*
X0Y1155D02*
X3Y1155D01*
X626Y1155D02*
X633Y1155D01*
X1177Y1155D02*
X1184Y1155D01*
X0Y1154D02*
X3Y1154D01*
X626Y1154D02*
X633Y1154D01*
X1177Y1154D02*
X1184Y1154D01*
X0Y1153D02*
X3Y1153D01*
X626Y1153D02*
X633Y1153D01*
X1177Y1153D02*
X1184Y1153D01*
X0Y1152D02*
X3Y1152D01*
X626Y1152D02*
X633Y1152D01*
X1177Y1152D02*
X1184Y1152D01*
X0Y1151D02*
X3Y1151D01*
X626Y1151D02*
X633Y1151D01*
X1177Y1151D02*
X1184Y1151D01*
X0Y1150D02*
X3Y1150D01*
X626Y1150D02*
X633Y1150D01*
X1177Y1150D02*
X1184Y1150D01*
X0Y1149D02*
X3Y1149D01*
X626Y1149D02*
X633Y1149D01*
X1177Y1149D02*
X1184Y1149D01*
X0Y1148D02*
X3Y1148D01*
X626Y1148D02*
X633Y1148D01*
X1177Y1148D02*
X1184Y1148D01*
X0Y1147D02*
X3Y1147D01*
X626Y1147D02*
X633Y1147D01*
X1177Y1147D02*
X1184Y1147D01*
X0Y1146D02*
X3Y1146D01*
X626Y1146D02*
X633Y1146D01*
X1177Y1146D02*
X1184Y1146D01*
X0Y1145D02*
X3Y1145D01*
X626Y1145D02*
X633Y1145D01*
X1177Y1145D02*
X1184Y1145D01*
X0Y1144D02*
X3Y1144D01*
X626Y1144D02*
X633Y1144D01*
X1177Y1144D02*
X1184Y1144D01*
X0Y1143D02*
X3Y1143D01*
X626Y1143D02*
X633Y1143D01*
X1177Y1143D02*
X1184Y1143D01*
X0Y1142D02*
X3Y1142D01*
X626Y1142D02*
X633Y1142D01*
X1177Y1142D02*
X1184Y1142D01*
X0Y1141D02*
X3Y1141D01*
X626Y1141D02*
X633Y1141D01*
X1177Y1141D02*
X1184Y1141D01*
X0Y1140D02*
X3Y1140D01*
X626Y1140D02*
X633Y1140D01*
X1177Y1140D02*
X1184Y1140D01*
X0Y1139D02*
X3Y1139D01*
X626Y1139D02*
X633Y1139D01*
X1177Y1139D02*
X1184Y1139D01*
X0Y1138D02*
X3Y1138D01*
X626Y1138D02*
X633Y1138D01*
X1177Y1138D02*
X1184Y1138D01*
X0Y1137D02*
X3Y1137D01*
X626Y1137D02*
X633Y1137D01*
X1177Y1137D02*
X1184Y1137D01*
X0Y1136D02*
X3Y1136D01*
X626Y1136D02*
X633Y1136D01*
X1177Y1136D02*
X1184Y1136D01*
X0Y1135D02*
X3Y1135D01*
X626Y1135D02*
X633Y1135D01*
X1177Y1135D02*
X1184Y1135D01*
X0Y1134D02*
X3Y1134D01*
X626Y1134D02*
X633Y1134D01*
X1177Y1134D02*
X1184Y1134D01*
X0Y1133D02*
X3Y1133D01*
X626Y1133D02*
X633Y1133D01*
X1177Y1133D02*
X1184Y1133D01*
X0Y1132D02*
X3Y1132D01*
X626Y1132D02*
X633Y1132D01*
X1177Y1132D02*
X1184Y1132D01*
X0Y1131D02*
X3Y1131D01*
X626Y1131D02*
X633Y1131D01*
X1177Y1131D02*
X1184Y1131D01*
X0Y1130D02*
X3Y1130D01*
X626Y1130D02*
X633Y1130D01*
X1177Y1130D02*
X1184Y1130D01*
X0Y1129D02*
X3Y1129D01*
X626Y1129D02*
X633Y1129D01*
X1177Y1129D02*
X1184Y1129D01*
X0Y1128D02*
X3Y1128D01*
X626Y1128D02*
X633Y1128D01*
X1177Y1128D02*
X1184Y1128D01*
X0Y1127D02*
X3Y1127D01*
X626Y1127D02*
X633Y1127D01*
X1177Y1127D02*
X1184Y1127D01*
X0Y1126D02*
X3Y1126D01*
X626Y1126D02*
X633Y1126D01*
X1177Y1126D02*
X1184Y1126D01*
X0Y1125D02*
X3Y1125D01*
X626Y1125D02*
X633Y1125D01*
X1177Y1125D02*
X1184Y1125D01*
X0Y1124D02*
X3Y1124D01*
X626Y1124D02*
X633Y1124D01*
X1177Y1124D02*
X1184Y1124D01*
X0Y1123D02*
X3Y1123D01*
X626Y1123D02*
X633Y1123D01*
X1177Y1123D02*
X1184Y1123D01*
X0Y1122D02*
X3Y1122D01*
X626Y1122D02*
X633Y1122D01*
X1177Y1122D02*
X1184Y1122D01*
X0Y1121D02*
X3Y1121D01*
X626Y1121D02*
X633Y1121D01*
X1177Y1121D02*
X1184Y1121D01*
X0Y1120D02*
X3Y1120D01*
X626Y1120D02*
X633Y1120D01*
X1177Y1120D02*
X1184Y1120D01*
X0Y1119D02*
X3Y1119D01*
X626Y1119D02*
X633Y1119D01*
X1177Y1119D02*
X1184Y1119D01*
X0Y1118D02*
X3Y1118D01*
X626Y1118D02*
X633Y1118D01*
X1177Y1118D02*
X1184Y1118D01*
X0Y1117D02*
X3Y1117D01*
X626Y1117D02*
X633Y1117D01*
X1177Y1117D02*
X1184Y1117D01*
X0Y1116D02*
X3Y1116D01*
X626Y1116D02*
X633Y1116D01*
X1177Y1116D02*
X1184Y1116D01*
X0Y1115D02*
X3Y1115D01*
X626Y1115D02*
X633Y1115D01*
X1177Y1115D02*
X1184Y1115D01*
X0Y1114D02*
X3Y1114D01*
X626Y1114D02*
X633Y1114D01*
X1177Y1114D02*
X1184Y1114D01*
X0Y1113D02*
X3Y1113D01*
X626Y1113D02*
X633Y1113D01*
X1177Y1113D02*
X1184Y1113D01*
X0Y1112D02*
X3Y1112D01*
X626Y1112D02*
X633Y1112D01*
X1177Y1112D02*
X1184Y1112D01*
X0Y1111D02*
X3Y1111D01*
X626Y1111D02*
X633Y1111D01*
X1177Y1111D02*
X1184Y1111D01*
X0Y1110D02*
X3Y1110D01*
X626Y1110D02*
X633Y1110D01*
X1177Y1110D02*
X1184Y1110D01*
X0Y1109D02*
X3Y1109D01*
X626Y1109D02*
X633Y1109D01*
X1177Y1109D02*
X1184Y1109D01*
X0Y1108D02*
X3Y1108D01*
X626Y1108D02*
X633Y1108D01*
X1177Y1108D02*
X1184Y1108D01*
X0Y1107D02*
X3Y1107D01*
X626Y1107D02*
X633Y1107D01*
X1177Y1107D02*
X1184Y1107D01*
X0Y1106D02*
X3Y1106D01*
X626Y1106D02*
X633Y1106D01*
X1177Y1106D02*
X1184Y1106D01*
X0Y1105D02*
X3Y1105D01*
X626Y1105D02*
X633Y1105D01*
X1177Y1105D02*
X1184Y1105D01*
X0Y1104D02*
X3Y1104D01*
X626Y1104D02*
X633Y1104D01*
X1177Y1104D02*
X1184Y1104D01*
X0Y1103D02*
X3Y1103D01*
X626Y1103D02*
X633Y1103D01*
X1177Y1103D02*
X1184Y1103D01*
X0Y1102D02*
X3Y1102D01*
X626Y1102D02*
X633Y1102D01*
X1177Y1102D02*
X1184Y1102D01*
X0Y1101D02*
X3Y1101D01*
X626Y1101D02*
X633Y1101D01*
X1177Y1101D02*
X1184Y1101D01*
X0Y1100D02*
X3Y1100D01*
X626Y1100D02*
X633Y1100D01*
X1177Y1100D02*
X1184Y1100D01*
X0Y1099D02*
X3Y1099D01*
X626Y1099D02*
X633Y1099D01*
X1177Y1099D02*
X1184Y1099D01*
X0Y1098D02*
X3Y1098D01*
X626Y1098D02*
X633Y1098D01*
X1177Y1098D02*
X1184Y1098D01*
X0Y1097D02*
X3Y1097D01*
X626Y1097D02*
X633Y1097D01*
X1177Y1097D02*
X1184Y1097D01*
X0Y1096D02*
X3Y1096D01*
X626Y1096D02*
X633Y1096D01*
X1177Y1096D02*
X1184Y1096D01*
X0Y1095D02*
X3Y1095D01*
X626Y1095D02*
X633Y1095D01*
X1177Y1095D02*
X1184Y1095D01*
X0Y1094D02*
X3Y1094D01*
X626Y1094D02*
X633Y1094D01*
X1177Y1094D02*
X1184Y1094D01*
X0Y1093D02*
X3Y1093D01*
X626Y1093D02*
X633Y1093D01*
X1177Y1093D02*
X1184Y1093D01*
X0Y1092D02*
X3Y1092D01*
X626Y1092D02*
X633Y1092D01*
X1177Y1092D02*
X1184Y1092D01*
X0Y1091D02*
X3Y1091D01*
X626Y1091D02*
X633Y1091D01*
X1177Y1091D02*
X1184Y1091D01*
X0Y1090D02*
X3Y1090D01*
X626Y1090D02*
X633Y1090D01*
X1177Y1090D02*
X1184Y1090D01*
X0Y1089D02*
X3Y1089D01*
X626Y1089D02*
X633Y1089D01*
X1177Y1089D02*
X1184Y1089D01*
X0Y1088D02*
X3Y1088D01*
X626Y1088D02*
X633Y1088D01*
X1177Y1088D02*
X1184Y1088D01*
X0Y1087D02*
X3Y1087D01*
X626Y1087D02*
X633Y1087D01*
X1177Y1087D02*
X1184Y1087D01*
X0Y1086D02*
X3Y1086D01*
X626Y1086D02*
X633Y1086D01*
X1177Y1086D02*
X1184Y1086D01*
X0Y1085D02*
X3Y1085D01*
X626Y1085D02*
X633Y1085D01*
X1177Y1085D02*
X1184Y1085D01*
X0Y1084D02*
X3Y1084D01*
X626Y1084D02*
X633Y1084D01*
X1177Y1084D02*
X1184Y1084D01*
X0Y1083D02*
X3Y1083D01*
X626Y1083D02*
X633Y1083D01*
X1177Y1083D02*
X1184Y1083D01*
X0Y1082D02*
X3Y1082D01*
X626Y1082D02*
X633Y1082D01*
X1177Y1082D02*
X1184Y1082D01*
X0Y1081D02*
X3Y1081D01*
X626Y1081D02*
X633Y1081D01*
X1177Y1081D02*
X1184Y1081D01*
X0Y1080D02*
X3Y1080D01*
X626Y1080D02*
X633Y1080D01*
X1177Y1080D02*
X1184Y1080D01*
X0Y1079D02*
X3Y1079D01*
X626Y1079D02*
X633Y1079D01*
X1177Y1079D02*
X1184Y1079D01*
X0Y1078D02*
X3Y1078D01*
X626Y1078D02*
X633Y1078D01*
X1177Y1078D02*
X1184Y1078D01*
X0Y1077D02*
X3Y1077D01*
X626Y1077D02*
X633Y1077D01*
X1177Y1077D02*
X1184Y1077D01*
X0Y1076D02*
X3Y1076D01*
X626Y1076D02*
X633Y1076D01*
X1177Y1076D02*
X1184Y1076D01*
X0Y1075D02*
X3Y1075D01*
X626Y1075D02*
X633Y1075D01*
X1177Y1075D02*
X1184Y1075D01*
X0Y1074D02*
X3Y1074D01*
X626Y1074D02*
X633Y1074D01*
X1177Y1074D02*
X1184Y1074D01*
X0Y1073D02*
X3Y1073D01*
X626Y1073D02*
X633Y1073D01*
X1177Y1073D02*
X1184Y1073D01*
X0Y1072D02*
X3Y1072D01*
X626Y1072D02*
X633Y1072D01*
X1177Y1072D02*
X1184Y1072D01*
X0Y1071D02*
X3Y1071D01*
X626Y1071D02*
X633Y1071D01*
X1177Y1071D02*
X1184Y1071D01*
X0Y1070D02*
X3Y1070D01*
X626Y1070D02*
X633Y1070D01*
X1177Y1070D02*
X1184Y1070D01*
X0Y1069D02*
X3Y1069D01*
X626Y1069D02*
X633Y1069D01*
X1177Y1069D02*
X1184Y1069D01*
X0Y1068D02*
X3Y1068D01*
X626Y1068D02*
X633Y1068D01*
X1177Y1068D02*
X1184Y1068D01*
X0Y1067D02*
X3Y1067D01*
X626Y1067D02*
X1184Y1067D01*
X0Y1066D02*
X3Y1066D01*
X626Y1066D02*
X1184Y1066D01*
X0Y1065D02*
X3Y1065D01*
X626Y1065D02*
X1184Y1065D01*
X0Y1064D02*
X3Y1064D01*
X626Y1064D02*
X1184Y1064D01*
X0Y1063D02*
X3Y1063D01*
X626Y1063D02*
X1184Y1063D01*
X0Y1062D02*
X3Y1062D01*
X626Y1062D02*
X1184Y1062D01*
X0Y1061D02*
X3Y1061D01*
X626Y1061D02*
X1184Y1061D01*
X0Y1060D02*
X3Y1060D01*
X626Y1060D02*
X1184Y1060D01*
X0Y1059D02*
X3Y1059D01*
X0Y1058D02*
X3Y1058D01*
X0Y1057D02*
X3Y1057D01*
X0Y1056D02*
X3Y1056D01*
X0Y1055D02*
X3Y1055D01*
X0Y1054D02*
X3Y1054D01*
X0Y1053D02*
X3Y1053D01*
X0Y1052D02*
X3Y1052D01*
X0Y1051D02*
X3Y1051D01*
X0Y1050D02*
X3Y1050D01*
X0Y1049D02*
X3Y1049D01*
X0Y1048D02*
X3Y1048D01*
X0Y1047D02*
X3Y1047D01*
X0Y1046D02*
X3Y1046D01*
X0Y1045D02*
X3Y1045D01*
X0Y1044D02*
X3Y1044D01*
X0Y1043D02*
X3Y1043D01*
X0Y1042D02*
X3Y1042D01*
X0Y1041D02*
X3Y1041D01*
X0Y1040D02*
X3Y1040D01*
X0Y1039D02*
X3Y1039D01*
X0Y1038D02*
X3Y1038D01*
X0Y1037D02*
X3Y1037D01*
X0Y1036D02*
X3Y1036D01*
X0Y1035D02*
X3Y1035D01*
X0Y1034D02*
X3Y1034D01*
X0Y1033D02*
X3Y1033D01*
X0Y1032D02*
X3Y1032D01*
X0Y1031D02*
X3Y1031D01*
X0Y1030D02*
X3Y1030D01*
X0Y1029D02*
X3Y1029D01*
X0Y1028D02*
X3Y1028D01*
X0Y1027D02*
X3Y1027D01*
X0Y1026D02*
X3Y1026D01*
X0Y1025D02*
X3Y1025D01*
X0Y1024D02*
X3Y1024D01*
X0Y1023D02*
X3Y1023D01*
X0Y1022D02*
X3Y1022D01*
X0Y1021D02*
X3Y1021D01*
X0Y1020D02*
X3Y1020D01*
X0Y1019D02*
X3Y1019D01*
X0Y1018D02*
X3Y1018D01*
X0Y1017D02*
X3Y1017D01*
X0Y1016D02*
X3Y1016D01*
X0Y1015D02*
X3Y1015D01*
X0Y1014D02*
X3Y1014D01*
X0Y1013D02*
X3Y1013D01*
X0Y1012D02*
X3Y1012D01*
X0Y1011D02*
X3Y1011D01*
X0Y1010D02*
X3Y1010D01*
X0Y1009D02*
X3Y1009D01*
X0Y1008D02*
X3Y1008D01*
X0Y1007D02*
X3Y1007D01*
X0Y1006D02*
X3Y1006D01*
X0Y1005D02*
X3Y1005D01*
X0Y1004D02*
X3Y1004D01*
X0Y1003D02*
X3Y1003D01*
X0Y1002D02*
X3Y1002D01*
X0Y1001D02*
X3Y1001D01*
X0Y1000D02*
X3Y1000D01*
X0Y999D02*
X3Y999D01*
X0Y998D02*
X3Y998D01*
X0Y997D02*
X3Y997D01*
X0Y996D02*
X3Y996D01*
X0Y995D02*
X3Y995D01*
X0Y994D02*
X3Y994D01*
X0Y993D02*
X3Y993D01*
X0Y992D02*
X3Y992D01*
X0Y991D02*
X3Y991D01*
X0Y990D02*
X3Y990D01*
X0Y989D02*
X3Y989D01*
X0Y988D02*
X3Y988D01*
X0Y987D02*
X3Y987D01*
X0Y986D02*
X3Y986D01*
X0Y985D02*
X3Y985D01*
X0Y984D02*
X3Y984D01*
X0Y983D02*
X3Y983D01*
X0Y982D02*
X3Y982D01*
X0Y981D02*
X3Y981D01*
X0Y980D02*
X3Y980D01*
X0Y979D02*
X3Y979D01*
X0Y978D02*
X3Y978D01*
X0Y977D02*
X3Y977D01*
X0Y976D02*
X3Y976D01*
X0Y975D02*
X3Y975D01*
X0Y974D02*
X3Y974D01*
X0Y973D02*
X3Y973D01*
X0Y972D02*
X3Y972D01*
X0Y971D02*
X3Y971D01*
X0Y970D02*
X3Y970D01*
X0Y969D02*
X3Y969D01*
X0Y968D02*
X3Y968D01*
X0Y967D02*
X3Y967D01*
X0Y966D02*
X3Y966D01*
X0Y965D02*
X3Y965D01*
X0Y964D02*
X3Y964D01*
X0Y963D02*
X3Y963D01*
X0Y962D02*
X3Y962D01*
X0Y961D02*
X3Y961D01*
X0Y960D02*
X3Y960D01*
X0Y959D02*
X3Y959D01*
X0Y958D02*
X3Y958D01*
X0Y957D02*
X3Y957D01*
X0Y956D02*
X3Y956D01*
X0Y955D02*
X3Y955D01*
X0Y954D02*
X3Y954D01*
X0Y953D02*
X3Y953D01*
X0Y952D02*
X3Y952D01*
X0Y951D02*
X3Y951D01*
X0Y950D02*
X3Y950D01*
X0Y949D02*
X3Y949D01*
X0Y948D02*
X3Y948D01*
X0Y947D02*
X3Y947D01*
X0Y946D02*
X3Y946D01*
X0Y945D02*
X3Y945D01*
X0Y944D02*
X3Y944D01*
X0Y943D02*
X3Y943D01*
X0Y942D02*
X3Y942D01*
X0Y941D02*
X3Y941D01*
X0Y940D02*
X3Y940D01*
X0Y939D02*
X3Y939D01*
X0Y938D02*
X3Y938D01*
X0Y937D02*
X3Y937D01*
X0Y936D02*
X3Y936D01*
X0Y935D02*
X3Y935D01*
X0Y934D02*
X3Y934D01*
X0Y933D02*
X3Y933D01*
X0Y932D02*
X3Y932D01*
X0Y931D02*
X3Y931D01*
X0Y930D02*
X3Y930D01*
X0Y929D02*
X3Y929D01*
X0Y928D02*
X3Y928D01*
X0Y927D02*
X3Y927D01*
X0Y926D02*
X3Y926D01*
X0Y925D02*
X3Y925D01*
X0Y924D02*
X3Y924D01*
X0Y923D02*
X3Y923D01*
X0Y922D02*
X3Y922D01*
X0Y921D02*
X3Y921D01*
X0Y920D02*
X3Y920D01*
X0Y919D02*
X3Y919D01*
X0Y918D02*
X3Y918D01*
X0Y917D02*
X3Y917D01*
X0Y916D02*
X3Y916D01*
X0Y915D02*
X3Y915D01*
X0Y914D02*
X3Y914D01*
X0Y913D02*
X3Y913D01*
X0Y912D02*
X3Y912D01*
X0Y911D02*
X3Y911D01*
X0Y910D02*
X3Y910D01*
X0Y909D02*
X3Y909D01*
X0Y908D02*
X3Y908D01*
X0Y907D02*
X3Y907D01*
X0Y906D02*
X3Y906D01*
X0Y905D02*
X3Y905D01*
X0Y904D02*
X3Y904D01*
X0Y903D02*
X3Y903D01*
X0Y902D02*
X3Y902D01*
X0Y901D02*
X3Y901D01*
X0Y900D02*
X3Y900D01*
X0Y899D02*
X3Y899D01*
X0Y898D02*
X3Y898D01*
X0Y897D02*
X3Y897D01*
X0Y896D02*
X3Y896D01*
X0Y895D02*
X3Y895D01*
X0Y894D02*
X3Y894D01*
X0Y893D02*
X3Y893D01*
X0Y892D02*
X3Y892D01*
X0Y891D02*
X3Y891D01*
X0Y890D02*
X3Y890D01*
X0Y889D02*
X3Y889D01*
X0Y888D02*
X3Y888D01*
X0Y887D02*
X3Y887D01*
X0Y886D02*
X3Y886D01*
X0Y885D02*
X3Y885D01*
X0Y884D02*
X3Y884D01*
X0Y883D02*
X3Y883D01*
X0Y882D02*
X3Y882D01*
X0Y881D02*
X3Y881D01*
X0Y880D02*
X3Y880D01*
X0Y879D02*
X3Y879D01*
X0Y878D02*
X3Y878D01*
X0Y877D02*
X3Y877D01*
X0Y876D02*
X3Y876D01*
X0Y875D02*
X3Y875D01*
X0Y874D02*
X3Y874D01*
X0Y873D02*
X3Y873D01*
X0Y872D02*
X3Y872D01*
X0Y871D02*
X3Y871D01*
X0Y870D02*
X3Y870D01*
X0Y869D02*
X3Y869D01*
X0Y868D02*
X3Y868D01*
X0Y867D02*
X3Y867D01*
X0Y866D02*
X3Y866D01*
X0Y865D02*
X3Y865D01*
X0Y864D02*
X3Y864D01*
X0Y863D02*
X3Y863D01*
X0Y862D02*
X3Y862D01*
X0Y861D02*
X3Y861D01*
X0Y860D02*
X3Y860D01*
X0Y859D02*
X3Y859D01*
X0Y858D02*
X3Y858D01*
X0Y857D02*
X3Y857D01*
X0Y856D02*
X3Y856D01*
X0Y855D02*
X3Y855D01*
X0Y854D02*
X3Y854D01*
X0Y853D02*
X3Y853D01*
X0Y852D02*
X3Y852D01*
X0Y851D02*
X3Y851D01*
X0Y850D02*
X3Y850D01*
X0Y849D02*
X3Y849D01*
X0Y848D02*
X3Y848D01*
X0Y847D02*
X3Y847D01*
X0Y846D02*
X3Y846D01*
X0Y845D02*
X3Y845D01*
X0Y844D02*
X3Y844D01*
X0Y843D02*
X3Y843D01*
X0Y842D02*
X3Y842D01*
X0Y841D02*
X3Y841D01*
X0Y840D02*
X3Y840D01*
X0Y839D02*
X3Y839D01*
X0Y838D02*
X3Y838D01*
X0Y837D02*
X3Y837D01*
X0Y836D02*
X3Y836D01*
X0Y835D02*
X3Y835D01*
X0Y834D02*
X3Y834D01*
X0Y833D02*
X3Y833D01*
X0Y832D02*
X3Y832D01*
X0Y831D02*
X3Y831D01*
X0Y830D02*
X3Y830D01*
X0Y829D02*
X3Y829D01*
X0Y828D02*
X3Y828D01*
X0Y827D02*
X3Y827D01*
X0Y826D02*
X3Y826D01*
X0Y825D02*
X3Y825D01*
X0Y824D02*
X3Y824D01*
X0Y823D02*
X3Y823D01*
X0Y822D02*
X3Y822D01*
X0Y821D02*
X3Y821D01*
X0Y820D02*
X3Y820D01*
X0Y819D02*
X3Y819D01*
X0Y818D02*
X3Y818D01*
X0Y817D02*
X3Y817D01*
X0Y816D02*
X3Y816D01*
X0Y815D02*
X3Y815D01*
X0Y814D02*
X3Y814D01*
X0Y813D02*
X3Y813D01*
X0Y812D02*
X3Y812D01*
X0Y811D02*
X3Y811D01*
X0Y810D02*
X3Y810D01*
X0Y809D02*
X3Y809D01*
X0Y808D02*
X3Y808D01*
X0Y807D02*
X3Y807D01*
X0Y806D02*
X3Y806D01*
X0Y805D02*
X3Y805D01*
X0Y804D02*
X3Y804D01*
X0Y803D02*
X3Y803D01*
X0Y802D02*
X3Y802D01*
X0Y801D02*
X3Y801D01*
X0Y800D02*
X3Y800D01*
X0Y799D02*
X3Y799D01*
X0Y798D02*
X3Y798D01*
X0Y797D02*
X3Y797D01*
X0Y796D02*
X3Y796D01*
X0Y795D02*
X3Y795D01*
X0Y794D02*
X3Y794D01*
X0Y793D02*
X3Y793D01*
X0Y792D02*
X3Y792D01*
X0Y791D02*
X3Y791D01*
X0Y790D02*
X3Y790D01*
X573Y790D02*
X574Y790D01*
X601Y790D02*
X601Y790D01*
X638Y790D02*
X651Y790D01*
X671Y790D02*
X678Y790D01*
X696Y790D02*
X704Y790D01*
X727Y790D02*
X746Y790D01*
X823Y790D02*
X848Y790D01*
X873Y790D02*
X901Y790D01*
X923Y790D02*
X940Y790D01*
X973Y790D02*
X998Y790D01*
X1051Y790D02*
X1051Y790D01*
X1073Y790D02*
X1098Y790D01*
X0Y789D02*
X3Y789D01*
X572Y789D02*
X576Y789D01*
X599Y789D02*
X603Y789D01*
X634Y789D02*
X653Y789D01*
X671Y789D02*
X679Y789D01*
X696Y789D02*
X704Y789D01*
X724Y789D02*
X749Y789D01*
X822Y789D02*
X851Y789D01*
X872Y789D02*
X903Y789D01*
X922Y789D02*
X940Y789D01*
X972Y789D02*
X1001Y789D01*
X1049Y789D02*
X1053Y789D01*
X1072Y789D02*
X1101Y789D01*
X2184Y789D02*
X2186Y789D01*
X2212Y789D02*
X2213Y789D01*
X2248Y789D02*
X2263Y789D01*
X2282Y789D02*
X2290Y789D01*
X2308Y789D02*
X2315Y789D01*
X2338Y789D02*
X2358Y789D01*
X2434Y789D02*
X2460Y789D01*
X2484Y789D02*
X2513Y789D01*
X2534Y789D02*
X2552Y789D01*
X2584Y789D02*
X2610Y789D01*
X2662Y789D02*
X2663Y789D01*
X2684Y789D02*
X2710Y789D01*
X0Y788D02*
X3Y788D01*
X571Y788D02*
X576Y788D01*
X599Y788D02*
X604Y788D01*
X632Y788D02*
X654Y788D01*
X671Y788D02*
X680Y788D01*
X695Y788D02*
X704Y788D01*
X723Y788D02*
X751Y788D01*
X821Y788D02*
X852Y788D01*
X871Y788D02*
X904Y788D01*
X921Y788D02*
X940Y788D01*
X971Y788D02*
X1002Y788D01*
X1048Y788D02*
X1054Y788D01*
X1071Y788D02*
X1102Y788D01*
X2183Y788D02*
X2187Y788D01*
X2210Y788D02*
X2215Y788D01*
X2245Y788D02*
X2265Y788D01*
X2282Y788D02*
X2291Y788D01*
X2307Y788D02*
X2316Y788D01*
X2336Y788D02*
X2361Y788D01*
X2433Y788D02*
X2462Y788D01*
X2483Y788D02*
X2515Y788D01*
X2533Y788D02*
X2552Y788D01*
X2583Y788D02*
X2612Y788D01*
X2660Y788D02*
X2665Y788D01*
X2683Y788D02*
X2712Y788D01*
X0Y787D02*
X3Y787D01*
X571Y787D02*
X577Y787D01*
X598Y787D02*
X604Y787D01*
X631Y787D02*
X654Y787D01*
X671Y787D02*
X681Y787D01*
X694Y787D02*
X704Y787D01*
X722Y787D02*
X752Y787D01*
X821Y787D02*
X853Y787D01*
X871Y787D02*
X904Y787D01*
X921Y787D02*
X940Y787D01*
X971Y787D02*
X1003Y787D01*
X1048Y787D02*
X1054Y787D01*
X1071Y787D02*
X1103Y787D01*
X2182Y787D02*
X2188Y787D01*
X2210Y787D02*
X2215Y787D01*
X2244Y787D02*
X2265Y787D01*
X2282Y787D02*
X2291Y787D01*
X2306Y787D02*
X2316Y787D01*
X2334Y787D02*
X2362Y787D01*
X2432Y787D02*
X2464Y787D01*
X2482Y787D02*
X2515Y787D01*
X2532Y787D02*
X2552Y787D01*
X2582Y787D02*
X2614Y787D01*
X2660Y787D02*
X2665Y787D01*
X2682Y787D02*
X2714Y787D01*
X0Y786D02*
X3Y786D01*
X571Y786D02*
X577Y786D01*
X598Y786D02*
X604Y786D01*
X630Y786D02*
X654Y786D01*
X671Y786D02*
X681Y786D01*
X693Y786D02*
X704Y786D01*
X722Y786D02*
X752Y786D01*
X821Y786D02*
X854Y786D01*
X871Y786D02*
X904Y786D01*
X921Y786D02*
X940Y786D01*
X971Y786D02*
X1003Y786D01*
X1047Y786D02*
X1054Y786D01*
X1071Y786D02*
X1103Y786D01*
X2182Y786D02*
X2188Y786D01*
X2210Y786D02*
X2216Y786D01*
X2242Y786D02*
X2266Y786D01*
X2282Y786D02*
X2292Y786D01*
X2305Y786D02*
X2316Y786D01*
X2333Y786D02*
X2363Y786D01*
X2432Y786D02*
X2464Y786D01*
X2482Y786D02*
X2516Y786D01*
X2532Y786D02*
X2552Y786D01*
X2582Y786D02*
X2614Y786D01*
X2659Y786D02*
X2665Y786D01*
X2682Y786D02*
X2714Y786D01*
X0Y785D02*
X3Y785D01*
X571Y785D02*
X577Y785D01*
X598Y785D02*
X604Y785D01*
X630Y785D02*
X654Y785D01*
X671Y785D02*
X682Y785D01*
X693Y785D02*
X704Y785D01*
X721Y785D02*
X753Y785D01*
X821Y785D02*
X854Y785D01*
X871Y785D02*
X904Y785D01*
X921Y785D02*
X940Y785D01*
X971Y785D02*
X1004Y785D01*
X1047Y785D02*
X1054Y785D01*
X1071Y785D02*
X1104Y785D01*
X2182Y785D02*
X2188Y785D01*
X2210Y785D02*
X2216Y785D01*
X2242Y785D02*
X2265Y785D01*
X2282Y785D02*
X2293Y785D01*
X2305Y785D02*
X2316Y785D01*
X2333Y785D02*
X2364Y785D01*
X2432Y785D02*
X2465Y785D01*
X2482Y785D02*
X2516Y785D01*
X2532Y785D02*
X2552Y785D01*
X2582Y785D02*
X2615Y785D01*
X2658Y785D02*
X2665Y785D01*
X2682Y785D02*
X2715Y785D01*
X0Y784D02*
X3Y784D01*
X571Y784D02*
X577Y784D01*
X598Y784D02*
X604Y784D01*
X629Y784D02*
X653Y784D01*
X671Y784D02*
X683Y784D01*
X692Y784D02*
X704Y784D01*
X721Y784D02*
X754Y784D01*
X822Y784D02*
X854Y784D01*
X871Y784D02*
X904Y784D01*
X922Y784D02*
X940Y784D01*
X972Y784D02*
X1004Y784D01*
X1046Y784D02*
X1053Y784D01*
X1072Y784D02*
X1104Y784D01*
X2182Y784D02*
X2188Y784D01*
X2210Y784D02*
X2216Y784D01*
X2241Y784D02*
X2265Y784D01*
X2282Y784D02*
X2293Y784D01*
X2304Y784D02*
X2316Y784D01*
X2332Y784D02*
X2365Y784D01*
X2433Y784D02*
X2465Y784D01*
X2482Y784D02*
X2516Y784D01*
X2533Y784D02*
X2552Y784D01*
X2583Y784D02*
X2615Y784D01*
X2658Y784D02*
X2665Y784D01*
X2682Y784D02*
X2715Y784D01*
X0Y783D02*
X3Y783D01*
X571Y783D02*
X577Y783D01*
X598Y783D02*
X604Y783D01*
X629Y783D02*
X637Y783D01*
X671Y783D02*
X683Y783D01*
X691Y783D02*
X704Y783D01*
X721Y783D02*
X727Y783D01*
X746Y783D02*
X754Y783D01*
X848Y783D02*
X854Y783D01*
X871Y783D02*
X877Y783D01*
X898Y783D02*
X904Y783D01*
X934Y783D02*
X940Y783D01*
X998Y783D02*
X1004Y783D01*
X1045Y783D02*
X1053Y783D01*
X1098Y783D02*
X1104Y783D01*
X2182Y783D02*
X2188Y783D01*
X2210Y783D02*
X2216Y783D01*
X2240Y783D02*
X2264Y783D01*
X2282Y783D02*
X2294Y783D01*
X2303Y783D02*
X2316Y783D01*
X2332Y783D02*
X2365Y783D01*
X2433Y783D02*
X2465Y783D01*
X2482Y783D02*
X2516Y783D01*
X2533Y783D02*
X2552Y783D01*
X2583Y783D02*
X2615Y783D01*
X2657Y783D02*
X2664Y783D01*
X2683Y783D02*
X2715Y783D01*
X0Y782D02*
X3Y782D01*
X571Y782D02*
X577Y782D01*
X598Y782D02*
X604Y782D01*
X628Y782D02*
X635Y782D01*
X671Y782D02*
X684Y782D01*
X691Y782D02*
X704Y782D01*
X721Y782D02*
X727Y782D01*
X748Y782D02*
X754Y782D01*
X848Y782D02*
X854Y782D01*
X871Y782D02*
X877Y782D01*
X898Y782D02*
X904Y782D01*
X934Y782D02*
X940Y782D01*
X998Y782D02*
X1004Y782D01*
X1045Y782D02*
X1052Y782D01*
X1098Y782D02*
X1104Y782D01*
X2182Y782D02*
X2188Y782D01*
X2210Y782D02*
X2216Y782D01*
X2240Y782D02*
X2248Y782D01*
X2282Y782D02*
X2295Y782D01*
X2303Y782D02*
X2316Y782D01*
X2332Y782D02*
X2338Y782D01*
X2358Y782D02*
X2365Y782D01*
X2459Y782D02*
X2466Y782D01*
X2482Y782D02*
X2488Y782D01*
X2509Y782D02*
X2516Y782D01*
X2546Y782D02*
X2552Y782D01*
X2609Y782D02*
X2616Y782D01*
X2657Y782D02*
X2664Y782D01*
X2709Y782D02*
X2716Y782D01*
X0Y781D02*
X3Y781D01*
X571Y781D02*
X577Y781D01*
X598Y781D02*
X604Y781D01*
X628Y781D02*
X635Y781D01*
X671Y781D02*
X685Y781D01*
X690Y781D02*
X704Y781D01*
X721Y781D02*
X727Y781D01*
X748Y781D02*
X754Y781D01*
X848Y781D02*
X854Y781D01*
X871Y781D02*
X877Y781D01*
X898Y781D02*
X904Y781D01*
X934Y781D02*
X940Y781D01*
X998Y781D02*
X1004Y781D01*
X1044Y781D02*
X1051Y781D01*
X1098Y781D02*
X1104Y781D01*
X2182Y781D02*
X2188Y781D01*
X2210Y781D02*
X2216Y781D01*
X2239Y781D02*
X2247Y781D01*
X2282Y781D02*
X2296Y781D01*
X2302Y781D02*
X2316Y781D01*
X2332Y781D02*
X2338Y781D01*
X2359Y781D02*
X2365Y781D01*
X2460Y781D02*
X2466Y781D01*
X2482Y781D02*
X2488Y781D01*
X2510Y781D02*
X2516Y781D01*
X2546Y781D02*
X2552Y781D01*
X2610Y781D02*
X2616Y781D01*
X2656Y781D02*
X2663Y781D01*
X2709Y781D02*
X2716Y781D01*
X0Y780D02*
X3Y780D01*
X571Y780D02*
X577Y780D01*
X598Y780D02*
X604Y780D01*
X627Y780D02*
X634Y780D01*
X671Y780D02*
X685Y780D01*
X689Y780D02*
X704Y780D01*
X721Y780D02*
X728Y780D01*
X748Y780D02*
X754Y780D01*
X848Y780D02*
X854Y780D01*
X871Y780D02*
X877Y780D01*
X898Y780D02*
X904Y780D01*
X934Y780D02*
X940Y780D01*
X998Y780D02*
X1004Y780D01*
X1044Y780D02*
X1051Y780D01*
X1098Y780D02*
X1104Y780D01*
X2182Y780D02*
X2188Y780D01*
X2210Y780D02*
X2216Y780D01*
X2239Y780D02*
X2246Y780D01*
X2282Y780D02*
X2296Y780D01*
X2301Y780D02*
X2316Y780D01*
X2332Y780D02*
X2339Y780D01*
X2360Y780D02*
X2366Y780D01*
X2460Y780D02*
X2466Y780D01*
X2482Y780D02*
X2488Y780D01*
X2510Y780D02*
X2516Y780D01*
X2546Y780D02*
X2552Y780D01*
X2610Y780D02*
X2616Y780D01*
X2655Y780D02*
X2663Y780D01*
X2709Y780D02*
X2716Y780D01*
X0Y779D02*
X3Y779D01*
X571Y779D02*
X577Y779D01*
X598Y779D02*
X604Y779D01*
X627Y779D02*
X634Y779D01*
X671Y779D02*
X677Y779D01*
X679Y779D02*
X686Y779D01*
X689Y779D02*
X696Y779D01*
X698Y779D02*
X704Y779D01*
X721Y779D02*
X729Y779D01*
X749Y779D02*
X754Y779D01*
X848Y779D02*
X854Y779D01*
X871Y779D02*
X877Y779D01*
X898Y779D02*
X904Y779D01*
X934Y779D02*
X940Y779D01*
X998Y779D02*
X1004Y779D01*
X1043Y779D02*
X1050Y779D01*
X1098Y779D02*
X1104Y779D01*
X2182Y779D02*
X2188Y779D01*
X2210Y779D02*
X2216Y779D01*
X2238Y779D02*
X2245Y779D01*
X2282Y779D02*
X2297Y779D01*
X2301Y779D02*
X2316Y779D01*
X2332Y779D02*
X2340Y779D01*
X2360Y779D02*
X2365Y779D01*
X2460Y779D02*
X2466Y779D01*
X2482Y779D02*
X2488Y779D01*
X2510Y779D02*
X2516Y779D01*
X2546Y779D02*
X2552Y779D01*
X2610Y779D02*
X2616Y779D01*
X2655Y779D02*
X2662Y779D01*
X2709Y779D02*
X2716Y779D01*
X0Y778D02*
X3Y778D01*
X571Y778D02*
X577Y778D01*
X598Y778D02*
X604Y778D01*
X626Y778D02*
X633Y778D01*
X671Y778D02*
X677Y778D01*
X679Y778D02*
X695Y778D01*
X698Y778D02*
X704Y778D01*
X722Y778D02*
X730Y778D01*
X750Y778D02*
X753Y778D01*
X848Y778D02*
X854Y778D01*
X871Y778D02*
X877Y778D01*
X898Y778D02*
X904Y778D01*
X934Y778D02*
X940Y778D01*
X998Y778D02*
X1004Y778D01*
X1042Y778D02*
X1050Y778D01*
X1098Y778D02*
X1104Y778D01*
X2182Y778D02*
X2188Y778D01*
X2210Y778D02*
X2216Y778D01*
X2238Y778D02*
X2245Y778D01*
X2282Y778D02*
X2288Y778D01*
X2290Y778D02*
X2298Y778D01*
X2300Y778D02*
X2307Y778D01*
X2310Y778D02*
X2316Y778D01*
X2333Y778D02*
X2340Y778D01*
X2360Y778D02*
X2365Y778D01*
X2460Y778D02*
X2466Y778D01*
X2482Y778D02*
X2488Y778D01*
X2510Y778D02*
X2516Y778D01*
X2546Y778D02*
X2552Y778D01*
X2610Y778D02*
X2616Y778D01*
X2654Y778D02*
X2662Y778D01*
X2709Y778D02*
X2716Y778D01*
X0Y777D02*
X3Y777D01*
X571Y777D02*
X577Y777D01*
X598Y777D02*
X604Y777D01*
X626Y777D02*
X633Y777D01*
X671Y777D02*
X677Y777D01*
X680Y777D02*
X695Y777D01*
X698Y777D02*
X704Y777D01*
X722Y777D02*
X730Y777D01*
X848Y777D02*
X854Y777D01*
X871Y777D02*
X877Y777D01*
X898Y777D02*
X904Y777D01*
X934Y777D02*
X940Y777D01*
X998Y777D02*
X1004Y777D01*
X1042Y777D02*
X1049Y777D01*
X1098Y777D02*
X1104Y777D01*
X2182Y777D02*
X2188Y777D01*
X2210Y777D02*
X2216Y777D01*
X2237Y777D02*
X2244Y777D01*
X2282Y777D02*
X2288Y777D01*
X2291Y777D02*
X2307Y777D01*
X2310Y777D02*
X2316Y777D01*
X2333Y777D02*
X2341Y777D01*
X2361Y777D02*
X2364Y777D01*
X2460Y777D02*
X2466Y777D01*
X2482Y777D02*
X2488Y777D01*
X2510Y777D02*
X2516Y777D01*
X2546Y777D02*
X2552Y777D01*
X2610Y777D02*
X2616Y777D01*
X2654Y777D02*
X2661Y777D01*
X2709Y777D02*
X2716Y777D01*
X0Y776D02*
X3Y776D01*
X571Y776D02*
X577Y776D01*
X598Y776D02*
X604Y776D01*
X625Y776D02*
X632Y776D01*
X671Y776D02*
X677Y776D01*
X681Y776D02*
X694Y776D01*
X698Y776D02*
X704Y776D01*
X723Y776D02*
X731Y776D01*
X848Y776D02*
X854Y776D01*
X871Y776D02*
X877Y776D01*
X898Y776D02*
X904Y776D01*
X934Y776D02*
X940Y776D01*
X998Y776D02*
X1004Y776D01*
X1041Y776D02*
X1048Y776D01*
X1098Y776D02*
X1104Y776D01*
X2182Y776D02*
X2188Y776D01*
X2210Y776D02*
X2216Y776D01*
X2237Y776D02*
X2244Y776D01*
X2282Y776D02*
X2288Y776D01*
X2291Y776D02*
X2306Y776D01*
X2310Y776D02*
X2316Y776D01*
X2334Y776D02*
X2342Y776D01*
X2460Y776D02*
X2466Y776D01*
X2482Y776D02*
X2488Y776D01*
X2510Y776D02*
X2516Y776D01*
X2546Y776D02*
X2552Y776D01*
X2610Y776D02*
X2616Y776D01*
X2653Y776D02*
X2660Y776D01*
X2709Y776D02*
X2716Y776D01*
X0Y775D02*
X3Y775D01*
X571Y775D02*
X577Y775D01*
X598Y775D02*
X604Y775D01*
X625Y775D02*
X632Y775D01*
X671Y775D02*
X677Y775D01*
X681Y775D02*
X693Y775D01*
X698Y775D02*
X704Y775D01*
X724Y775D02*
X732Y775D01*
X848Y775D02*
X854Y775D01*
X871Y775D02*
X877Y775D01*
X898Y775D02*
X904Y775D01*
X934Y775D02*
X940Y775D01*
X998Y775D02*
X1004Y775D01*
X1041Y775D02*
X1048Y775D01*
X1098Y775D02*
X1104Y775D01*
X2182Y775D02*
X2188Y775D01*
X2210Y775D02*
X2216Y775D01*
X2236Y775D02*
X2243Y775D01*
X2282Y775D02*
X2288Y775D01*
X2292Y775D02*
X2305Y775D01*
X2310Y775D02*
X2316Y775D01*
X2335Y775D02*
X2343Y775D01*
X2460Y775D02*
X2466Y775D01*
X2482Y775D02*
X2488Y775D01*
X2510Y775D02*
X2516Y775D01*
X2546Y775D02*
X2552Y775D01*
X2610Y775D02*
X2616Y775D01*
X2653Y775D02*
X2660Y775D01*
X2709Y775D02*
X2716Y775D01*
X0Y774D02*
X3Y774D01*
X571Y774D02*
X577Y774D01*
X598Y774D02*
X604Y774D01*
X624Y774D02*
X631Y774D01*
X671Y774D02*
X677Y774D01*
X682Y774D02*
X693Y774D01*
X698Y774D02*
X704Y774D01*
X725Y774D02*
X733Y774D01*
X848Y774D02*
X854Y774D01*
X871Y774D02*
X877Y774D01*
X898Y774D02*
X904Y774D01*
X934Y774D02*
X940Y774D01*
X998Y774D02*
X1004Y774D01*
X1040Y774D02*
X1047Y774D01*
X1098Y774D02*
X1104Y774D01*
X2182Y774D02*
X2188Y774D01*
X2210Y774D02*
X2216Y774D01*
X2236Y774D02*
X2243Y774D01*
X2282Y774D02*
X2288Y774D01*
X2293Y774D02*
X2305Y774D01*
X2310Y774D02*
X2316Y774D01*
X2336Y774D02*
X2344Y774D01*
X2460Y774D02*
X2466Y774D01*
X2482Y774D02*
X2488Y774D01*
X2510Y774D02*
X2516Y774D01*
X2546Y774D02*
X2552Y774D01*
X2610Y774D02*
X2616Y774D01*
X2652Y774D02*
X2659Y774D01*
X2709Y774D02*
X2716Y774D01*
X0Y773D02*
X3Y773D01*
X571Y773D02*
X577Y773D01*
X598Y773D02*
X604Y773D01*
X624Y773D02*
X631Y773D01*
X671Y773D02*
X677Y773D01*
X683Y773D02*
X692Y773D01*
X698Y773D02*
X704Y773D01*
X726Y773D02*
X734Y773D01*
X848Y773D02*
X854Y773D01*
X871Y773D02*
X877Y773D01*
X898Y773D02*
X904Y773D01*
X934Y773D02*
X940Y773D01*
X998Y773D02*
X1004Y773D01*
X1040Y773D02*
X1047Y773D01*
X1098Y773D02*
X1104Y773D01*
X2182Y773D02*
X2188Y773D01*
X2210Y773D02*
X2216Y773D01*
X2235Y773D02*
X2242Y773D01*
X2282Y773D02*
X2288Y773D01*
X2294Y773D02*
X2304Y773D01*
X2310Y773D02*
X2316Y773D01*
X2336Y773D02*
X2344Y773D01*
X2460Y773D02*
X2466Y773D01*
X2482Y773D02*
X2488Y773D01*
X2510Y773D02*
X2516Y773D01*
X2546Y773D02*
X2552Y773D01*
X2610Y773D02*
X2616Y773D01*
X2651Y773D02*
X2659Y773D01*
X2709Y773D02*
X2716Y773D01*
X0Y772D02*
X3Y772D01*
X571Y772D02*
X577Y772D01*
X598Y772D02*
X604Y772D01*
X623Y772D02*
X630Y772D01*
X671Y772D02*
X677Y772D01*
X683Y772D02*
X691Y772D01*
X698Y772D02*
X704Y772D01*
X726Y772D02*
X734Y772D01*
X848Y772D02*
X854Y772D01*
X871Y772D02*
X904Y772D01*
X934Y772D02*
X940Y772D01*
X998Y772D02*
X1004Y772D01*
X1039Y772D02*
X1046Y772D01*
X1098Y772D02*
X1104Y772D01*
X2182Y772D02*
X2188Y772D01*
X2210Y772D02*
X2216Y772D01*
X2235Y772D02*
X2242Y772D01*
X2282Y772D02*
X2288Y772D01*
X2294Y772D02*
X2303Y772D01*
X2310Y772D02*
X2316Y772D01*
X2337Y772D02*
X2345Y772D01*
X2460Y772D02*
X2466Y772D01*
X2482Y772D02*
X2488Y772D01*
X2509Y772D02*
X2516Y772D01*
X2546Y772D02*
X2552Y772D01*
X2610Y772D02*
X2616Y772D01*
X2651Y772D02*
X2658Y772D01*
X2709Y772D02*
X2716Y772D01*
X0Y771D02*
X3Y771D01*
X571Y771D02*
X577Y771D01*
X598Y771D02*
X604Y771D01*
X623Y771D02*
X630Y771D01*
X671Y771D02*
X677Y771D01*
X684Y771D02*
X691Y771D01*
X698Y771D02*
X704Y771D01*
X727Y771D02*
X735Y771D01*
X848Y771D02*
X854Y771D01*
X871Y771D02*
X904Y771D01*
X934Y771D02*
X940Y771D01*
X998Y771D02*
X1004Y771D01*
X1038Y771D02*
X1046Y771D01*
X1098Y771D02*
X1104Y771D01*
X2182Y771D02*
X2188Y771D01*
X2210Y771D02*
X2216Y771D01*
X2234Y771D02*
X2241Y771D01*
X2282Y771D02*
X2288Y771D01*
X2295Y771D02*
X2303Y771D01*
X2310Y771D02*
X2316Y771D01*
X2338Y771D02*
X2346Y771D01*
X2460Y771D02*
X2466Y771D01*
X2482Y771D02*
X2516Y771D01*
X2546Y771D02*
X2552Y771D01*
X2610Y771D02*
X2616Y771D01*
X2650Y771D02*
X2657Y771D01*
X2709Y771D02*
X2716Y771D01*
X0Y770D02*
X3Y770D01*
X571Y770D02*
X577Y770D01*
X598Y770D02*
X604Y770D01*
X622Y770D02*
X629Y770D01*
X671Y770D02*
X677Y770D01*
X684Y770D02*
X690Y770D01*
X698Y770D02*
X704Y770D01*
X728Y770D02*
X736Y770D01*
X848Y770D02*
X854Y770D01*
X871Y770D02*
X904Y770D01*
X934Y770D02*
X940Y770D01*
X998Y770D02*
X1004Y770D01*
X1038Y770D02*
X1045Y770D01*
X1098Y770D02*
X1104Y770D01*
X2182Y770D02*
X2188Y770D01*
X2210Y770D02*
X2216Y770D01*
X2234Y770D02*
X2241Y770D01*
X2282Y770D02*
X2288Y770D01*
X2296Y770D02*
X2302Y770D01*
X2310Y770D02*
X2316Y770D01*
X2339Y770D02*
X2347Y770D01*
X2460Y770D02*
X2466Y770D01*
X2482Y770D02*
X2516Y770D01*
X2546Y770D02*
X2552Y770D01*
X2610Y770D02*
X2616Y770D01*
X2650Y770D02*
X2657Y770D01*
X2709Y770D02*
X2716Y770D01*
X0Y769D02*
X3Y769D01*
X571Y769D02*
X577Y769D01*
X598Y769D02*
X604Y769D01*
X622Y769D02*
X629Y769D01*
X671Y769D02*
X677Y769D01*
X684Y769D02*
X690Y769D01*
X698Y769D02*
X704Y769D01*
X729Y769D02*
X737Y769D01*
X848Y769D02*
X854Y769D01*
X871Y769D02*
X904Y769D01*
X934Y769D02*
X940Y769D01*
X998Y769D02*
X1004Y769D01*
X1037Y769D02*
X1044Y769D01*
X1098Y769D02*
X1104Y769D01*
X2182Y769D02*
X2188Y769D01*
X2210Y769D02*
X2216Y769D01*
X2234Y769D02*
X2240Y769D01*
X2282Y769D02*
X2288Y769D01*
X2296Y769D02*
X2302Y769D01*
X2310Y769D02*
X2316Y769D01*
X2339Y769D02*
X2347Y769D01*
X2460Y769D02*
X2466Y769D01*
X2482Y769D02*
X2516Y769D01*
X2546Y769D02*
X2552Y769D01*
X2610Y769D02*
X2616Y769D01*
X2649Y769D02*
X2656Y769D01*
X2709Y769D02*
X2716Y769D01*
X0Y768D02*
X3Y768D01*
X571Y768D02*
X577Y768D01*
X598Y768D02*
X604Y768D01*
X621Y768D02*
X628Y768D01*
X671Y768D02*
X677Y768D01*
X685Y768D02*
X690Y768D01*
X698Y768D02*
X704Y768D01*
X729Y768D02*
X737Y768D01*
X848Y768D02*
X854Y768D01*
X871Y768D02*
X904Y768D01*
X934Y768D02*
X940Y768D01*
X998Y768D02*
X1004Y768D01*
X1037Y768D02*
X1044Y768D01*
X1097Y768D02*
X1104Y768D01*
X2182Y768D02*
X2188Y768D01*
X2210Y768D02*
X2216Y768D01*
X2233Y768D02*
X2240Y768D01*
X2282Y768D02*
X2288Y768D01*
X2296Y768D02*
X2302Y768D01*
X2310Y768D02*
X2316Y768D01*
X2340Y768D02*
X2348Y768D01*
X2460Y768D02*
X2466Y768D01*
X2482Y768D02*
X2516Y768D01*
X2546Y768D02*
X2552Y768D01*
X2610Y768D02*
X2616Y768D01*
X2648Y768D02*
X2656Y768D01*
X2709Y768D02*
X2716Y768D01*
X0Y767D02*
X3Y767D01*
X571Y767D02*
X577Y767D01*
X598Y767D02*
X604Y767D01*
X621Y767D02*
X628Y767D01*
X671Y767D02*
X677Y767D01*
X685Y767D02*
X690Y767D01*
X698Y767D02*
X704Y767D01*
X730Y767D02*
X738Y767D01*
X848Y767D02*
X854Y767D01*
X871Y767D02*
X904Y767D01*
X934Y767D02*
X940Y767D01*
X998Y767D02*
X1004Y767D01*
X1036Y767D02*
X1043Y767D01*
X1096Y767D02*
X1104Y767D01*
X2182Y767D02*
X2188Y767D01*
X2210Y767D02*
X2216Y767D01*
X2233Y767D02*
X2239Y767D01*
X2282Y767D02*
X2288Y767D01*
X2296Y767D02*
X2302Y767D01*
X2310Y767D02*
X2316Y767D01*
X2341Y767D02*
X2349Y767D01*
X2460Y767D02*
X2466Y767D01*
X2482Y767D02*
X2516Y767D01*
X2546Y767D02*
X2552Y767D01*
X2610Y767D02*
X2616Y767D01*
X2648Y767D02*
X2655Y767D01*
X2709Y767D02*
X2716Y767D01*
X0Y766D02*
X3Y766D01*
X571Y766D02*
X604Y766D01*
X621Y766D02*
X627Y766D01*
X671Y766D02*
X677Y766D01*
X686Y766D02*
X689Y766D01*
X698Y766D02*
X704Y766D01*
X731Y766D02*
X739Y766D01*
X772Y766D02*
X802Y766D01*
X825Y766D02*
X854Y766D01*
X872Y766D02*
X904Y766D01*
X934Y766D02*
X940Y766D01*
X975Y766D02*
X1004Y766D01*
X1035Y766D02*
X1043Y766D01*
X1079Y766D02*
X1103Y766D01*
X2182Y766D02*
X2188Y766D01*
X2209Y766D02*
X2216Y766D01*
X2232Y766D02*
X2239Y766D01*
X2282Y766D02*
X2288Y766D01*
X2297Y766D02*
X2301Y766D01*
X2310Y766D02*
X2316Y766D01*
X2342Y766D02*
X2350Y766D01*
X2459Y766D02*
X2466Y766D01*
X2483Y766D02*
X2516Y766D01*
X2546Y766D02*
X2552Y766D01*
X2609Y766D02*
X2616Y766D01*
X2647Y766D02*
X2655Y766D01*
X2709Y766D02*
X2716Y766D01*
X0Y765D02*
X3Y765D01*
X571Y765D02*
X604Y765D01*
X621Y765D02*
X627Y765D01*
X671Y765D02*
X677Y765D01*
X698Y765D02*
X704Y765D01*
X732Y765D02*
X740Y765D01*
X771Y765D02*
X804Y765D01*
X823Y765D02*
X854Y765D01*
X898Y765D02*
X904Y765D01*
X934Y765D02*
X940Y765D01*
X973Y765D02*
X1004Y765D01*
X1035Y765D02*
X1042Y765D01*
X1078Y765D02*
X1103Y765D01*
X2182Y765D02*
X2216Y765D01*
X2232Y765D02*
X2238Y765D01*
X2282Y765D02*
X2288Y765D01*
X2298Y765D02*
X2300Y765D01*
X2310Y765D02*
X2316Y765D01*
X2343Y765D02*
X2351Y765D01*
X2383Y765D02*
X2414Y765D01*
X2436Y765D02*
X2465Y765D01*
X2484Y765D02*
X2516Y765D01*
X2546Y765D02*
X2552Y765D01*
X2586Y765D02*
X2615Y765D01*
X2647Y765D02*
X2654Y765D01*
X2686Y765D02*
X2715Y765D01*
X0Y764D02*
X3Y764D01*
X571Y764D02*
X604Y764D01*
X621Y764D02*
X627Y764D01*
X671Y764D02*
X677Y764D01*
X698Y764D02*
X704Y764D01*
X733Y764D02*
X741Y764D01*
X771Y764D02*
X804Y764D01*
X822Y764D02*
X854Y764D01*
X898Y764D02*
X904Y764D01*
X934Y764D02*
X940Y764D01*
X972Y764D02*
X1004Y764D01*
X1034Y764D02*
X1041Y764D01*
X1078Y764D02*
X1102Y764D01*
X2182Y764D02*
X2216Y764D01*
X2232Y764D02*
X2238Y764D01*
X2282Y764D02*
X2288Y764D01*
X2310Y764D02*
X2316Y764D01*
X2343Y764D02*
X2351Y764D01*
X2383Y764D02*
X2415Y764D01*
X2434Y764D02*
X2465Y764D01*
X2510Y764D02*
X2516Y764D01*
X2546Y764D02*
X2552Y764D01*
X2584Y764D02*
X2615Y764D01*
X2646Y764D02*
X2653Y764D01*
X2684Y764D02*
X2715Y764D01*
X0Y763D02*
X3Y763D01*
X571Y763D02*
X604Y763D01*
X621Y763D02*
X627Y763D01*
X671Y763D02*
X677Y763D01*
X698Y763D02*
X704Y763D01*
X733Y763D02*
X741Y763D01*
X771Y763D02*
X804Y763D01*
X822Y763D02*
X853Y763D01*
X898Y763D02*
X904Y763D01*
X934Y763D02*
X940Y763D01*
X972Y763D02*
X1003Y763D01*
X1034Y763D02*
X1041Y763D01*
X1077Y763D02*
X1102Y763D01*
X2182Y763D02*
X2216Y763D01*
X2232Y763D02*
X2238Y763D01*
X2282Y763D02*
X2288Y763D01*
X2310Y763D02*
X2316Y763D01*
X2344Y763D02*
X2352Y763D01*
X2382Y763D02*
X2415Y763D01*
X2434Y763D02*
X2465Y763D01*
X2510Y763D02*
X2516Y763D01*
X2546Y763D02*
X2552Y763D01*
X2583Y763D02*
X2615Y763D01*
X2646Y763D02*
X2653Y763D01*
X2683Y763D02*
X2715Y763D01*
X0Y762D02*
X3Y762D01*
X571Y762D02*
X604Y762D01*
X621Y762D02*
X627Y762D01*
X671Y762D02*
X677Y762D01*
X698Y762D02*
X704Y762D01*
X734Y762D02*
X742Y762D01*
X771Y762D02*
X804Y762D01*
X821Y762D02*
X852Y762D01*
X898Y762D02*
X904Y762D01*
X934Y762D02*
X940Y762D01*
X971Y762D02*
X1002Y762D01*
X1033Y762D02*
X1040Y762D01*
X1078Y762D02*
X1102Y762D01*
X2182Y762D02*
X2216Y762D01*
X2232Y762D02*
X2238Y762D01*
X2282Y762D02*
X2288Y762D01*
X2310Y762D02*
X2316Y762D01*
X2345Y762D02*
X2353Y762D01*
X2382Y762D02*
X2416Y762D01*
X2433Y762D02*
X2464Y762D01*
X2510Y762D02*
X2516Y762D01*
X2546Y762D02*
X2552Y762D01*
X2583Y762D02*
X2614Y762D01*
X2645Y762D02*
X2652Y762D01*
X2683Y762D02*
X2714Y762D01*
X0Y761D02*
X3Y761D01*
X571Y761D02*
X604Y761D01*
X621Y761D02*
X627Y761D01*
X671Y761D02*
X677Y761D01*
X698Y761D02*
X704Y761D01*
X735Y761D02*
X743Y761D01*
X771Y761D02*
X804Y761D01*
X821Y761D02*
X851Y761D01*
X898Y761D02*
X904Y761D01*
X934Y761D02*
X940Y761D01*
X971Y761D02*
X1001Y761D01*
X1033Y761D02*
X1040Y761D01*
X1078Y761D02*
X1103Y761D01*
X2182Y761D02*
X2216Y761D01*
X2232Y761D02*
X2238Y761D01*
X2282Y761D02*
X2288Y761D01*
X2310Y761D02*
X2316Y761D01*
X2346Y761D02*
X2354Y761D01*
X2382Y761D02*
X2416Y761D01*
X2432Y761D02*
X2464Y761D01*
X2510Y761D02*
X2516Y761D01*
X2546Y761D02*
X2552Y761D01*
X2582Y761D02*
X2614Y761D01*
X2644Y761D02*
X2652Y761D01*
X2682Y761D02*
X2714Y761D01*
X0Y760D02*
X3Y760D01*
X571Y760D02*
X604Y760D01*
X621Y760D02*
X627Y760D01*
X671Y760D02*
X677Y760D01*
X698Y760D02*
X704Y760D01*
X736Y760D02*
X744Y760D01*
X771Y760D02*
X804Y760D01*
X821Y760D02*
X850Y760D01*
X898Y760D02*
X904Y760D01*
X934Y760D02*
X940Y760D01*
X950Y760D02*
X953Y760D01*
X971Y760D02*
X999Y760D01*
X1032Y760D02*
X1039Y760D01*
X1079Y760D02*
X1103Y760D01*
X2182Y760D02*
X2216Y760D01*
X2232Y760D02*
X2238Y760D01*
X2282Y760D02*
X2288Y760D01*
X2310Y760D02*
X2316Y760D01*
X2346Y760D02*
X2354Y760D01*
X2382Y760D02*
X2416Y760D01*
X2432Y760D02*
X2462Y760D01*
X2510Y760D02*
X2516Y760D01*
X2546Y760D02*
X2552Y760D01*
X2582Y760D02*
X2612Y760D01*
X2644Y760D02*
X2651Y760D01*
X2682Y760D02*
X2712Y760D01*
X0Y759D02*
X3Y759D01*
X571Y759D02*
X577Y759D01*
X598Y759D02*
X604Y759D01*
X621Y759D02*
X628Y759D01*
X671Y759D02*
X677Y759D01*
X698Y759D02*
X704Y759D01*
X736Y759D02*
X744Y759D01*
X771Y759D02*
X804Y759D01*
X821Y759D02*
X827Y759D01*
X898Y759D02*
X904Y759D01*
X934Y759D02*
X940Y759D01*
X949Y759D02*
X954Y759D01*
X971Y759D02*
X977Y759D01*
X1031Y759D02*
X1039Y759D01*
X1096Y759D02*
X1104Y759D01*
X2182Y759D02*
X2216Y759D01*
X2232Y759D02*
X2239Y759D01*
X2282Y759D02*
X2288Y759D01*
X2310Y759D02*
X2316Y759D01*
X2347Y759D02*
X2355Y759D01*
X2382Y759D02*
X2415Y759D01*
X2432Y759D02*
X2460Y759D01*
X2510Y759D02*
X2516Y759D01*
X2546Y759D02*
X2552Y759D01*
X2561Y759D02*
X2564Y759D01*
X2582Y759D02*
X2610Y759D01*
X2643Y759D02*
X2650Y759D01*
X2682Y759D02*
X2710Y759D01*
X0Y758D02*
X3Y758D01*
X571Y758D02*
X577Y758D01*
X598Y758D02*
X604Y758D01*
X622Y758D02*
X628Y758D01*
X671Y758D02*
X677Y758D01*
X698Y758D02*
X704Y758D01*
X737Y758D02*
X745Y758D01*
X771Y758D02*
X803Y758D01*
X821Y758D02*
X827Y758D01*
X898Y758D02*
X904Y758D01*
X934Y758D02*
X940Y758D01*
X948Y758D02*
X954Y758D01*
X971Y758D02*
X977Y758D01*
X1031Y758D02*
X1038Y758D01*
X1097Y758D02*
X1104Y758D01*
X2182Y758D02*
X2188Y758D01*
X2210Y758D02*
X2216Y758D01*
X2233Y758D02*
X2239Y758D01*
X2282Y758D02*
X2288Y758D01*
X2310Y758D02*
X2316Y758D01*
X2348Y758D02*
X2356Y758D01*
X2382Y758D02*
X2415Y758D01*
X2432Y758D02*
X2438Y758D01*
X2510Y758D02*
X2516Y758D01*
X2546Y758D02*
X2552Y758D01*
X2560Y758D02*
X2565Y758D01*
X2582Y758D02*
X2588Y758D01*
X2643Y758D02*
X2650Y758D01*
X2682Y758D02*
X2688Y758D01*
X0Y757D02*
X3Y757D01*
X571Y757D02*
X577Y757D01*
X598Y757D02*
X604Y757D01*
X622Y757D02*
X629Y757D01*
X671Y757D02*
X677Y757D01*
X698Y757D02*
X704Y757D01*
X738Y757D02*
X746Y757D01*
X773Y757D02*
X802Y757D01*
X821Y757D02*
X827Y757D01*
X898Y757D02*
X904Y757D01*
X934Y757D02*
X940Y757D01*
X948Y757D02*
X954Y757D01*
X971Y757D02*
X977Y757D01*
X1030Y757D02*
X1037Y757D01*
X1098Y757D02*
X1104Y757D01*
X2182Y757D02*
X2188Y757D01*
X2210Y757D02*
X2216Y757D01*
X2233Y757D02*
X2240Y757D01*
X2282Y757D02*
X2288Y757D01*
X2310Y757D02*
X2316Y757D01*
X2349Y757D02*
X2357Y757D01*
X2383Y757D02*
X2415Y757D01*
X2432Y757D02*
X2438Y757D01*
X2510Y757D02*
X2516Y757D01*
X2546Y757D02*
X2552Y757D01*
X2560Y757D02*
X2565Y757D01*
X2582Y757D02*
X2588Y757D01*
X2642Y757D02*
X2649Y757D01*
X2682Y757D02*
X2688Y757D01*
X0Y756D02*
X3Y756D01*
X571Y756D02*
X577Y756D01*
X598Y756D02*
X604Y756D01*
X622Y756D02*
X629Y756D01*
X671Y756D02*
X677Y756D01*
X698Y756D02*
X704Y756D01*
X739Y756D02*
X747Y756D01*
X821Y756D02*
X827Y756D01*
X898Y756D02*
X904Y756D01*
X934Y756D02*
X940Y756D01*
X948Y756D02*
X954Y756D01*
X971Y756D02*
X977Y756D01*
X1030Y756D02*
X1037Y756D01*
X1098Y756D02*
X1104Y756D01*
X2182Y756D02*
X2188Y756D01*
X2210Y756D02*
X2216Y756D01*
X2233Y756D02*
X2240Y756D01*
X2282Y756D02*
X2288Y756D01*
X2310Y756D02*
X2316Y756D01*
X2349Y756D02*
X2358Y756D01*
X2384Y756D02*
X2413Y756D01*
X2432Y756D02*
X2438Y756D01*
X2510Y756D02*
X2516Y756D01*
X2546Y756D02*
X2552Y756D01*
X2560Y756D02*
X2566Y756D01*
X2582Y756D02*
X2588Y756D01*
X2641Y756D02*
X2649Y756D01*
X2682Y756D02*
X2688Y756D01*
X0Y755D02*
X3Y755D01*
X571Y755D02*
X577Y755D01*
X598Y755D02*
X604Y755D01*
X623Y755D02*
X630Y755D01*
X671Y755D02*
X677Y755D01*
X698Y755D02*
X704Y755D01*
X740Y755D02*
X748Y755D01*
X821Y755D02*
X827Y755D01*
X898Y755D02*
X904Y755D01*
X934Y755D02*
X940Y755D01*
X948Y755D02*
X954Y755D01*
X971Y755D02*
X977Y755D01*
X1029Y755D02*
X1036Y755D01*
X1098Y755D02*
X1104Y755D01*
X2182Y755D02*
X2188Y755D01*
X2210Y755D02*
X2216Y755D01*
X2234Y755D02*
X2241Y755D01*
X2282Y755D02*
X2288Y755D01*
X2310Y755D02*
X2316Y755D01*
X2350Y755D02*
X2358Y755D01*
X2432Y755D02*
X2438Y755D01*
X2510Y755D02*
X2516Y755D01*
X2546Y755D02*
X2552Y755D01*
X2560Y755D02*
X2566Y755D01*
X2582Y755D02*
X2588Y755D01*
X2641Y755D02*
X2648Y755D01*
X2682Y755D02*
X2688Y755D01*
X0Y754D02*
X3Y754D01*
X571Y754D02*
X577Y754D01*
X598Y754D02*
X604Y754D01*
X623Y754D02*
X630Y754D01*
X671Y754D02*
X677Y754D01*
X698Y754D02*
X704Y754D01*
X740Y754D02*
X748Y754D01*
X821Y754D02*
X827Y754D01*
X898Y754D02*
X904Y754D01*
X934Y754D02*
X940Y754D01*
X948Y754D02*
X954Y754D01*
X971Y754D02*
X977Y754D01*
X1028Y754D02*
X1036Y754D01*
X1098Y754D02*
X1104Y754D01*
X2182Y754D02*
X2188Y754D01*
X2210Y754D02*
X2216Y754D01*
X2234Y754D02*
X2241Y754D01*
X2282Y754D02*
X2288Y754D01*
X2310Y754D02*
X2316Y754D01*
X2351Y754D02*
X2359Y754D01*
X2432Y754D02*
X2438Y754D01*
X2510Y754D02*
X2516Y754D01*
X2546Y754D02*
X2552Y754D01*
X2560Y754D02*
X2566Y754D01*
X2582Y754D02*
X2588Y754D01*
X2640Y754D02*
X2647Y754D01*
X2682Y754D02*
X2688Y754D01*
X0Y753D02*
X3Y753D01*
X571Y753D02*
X577Y753D01*
X598Y753D02*
X604Y753D01*
X624Y753D02*
X631Y753D01*
X671Y753D02*
X677Y753D01*
X698Y753D02*
X704Y753D01*
X741Y753D02*
X749Y753D01*
X821Y753D02*
X827Y753D01*
X898Y753D02*
X904Y753D01*
X934Y753D02*
X940Y753D01*
X948Y753D02*
X954Y753D01*
X971Y753D02*
X977Y753D01*
X1028Y753D02*
X1035Y753D01*
X1098Y753D02*
X1104Y753D01*
X2182Y753D02*
X2188Y753D01*
X2210Y753D02*
X2216Y753D01*
X2235Y753D02*
X2242Y753D01*
X2282Y753D02*
X2288Y753D01*
X2310Y753D02*
X2316Y753D01*
X2352Y753D02*
X2360Y753D01*
X2432Y753D02*
X2438Y753D01*
X2510Y753D02*
X2516Y753D01*
X2546Y753D02*
X2552Y753D01*
X2560Y753D02*
X2566Y753D01*
X2582Y753D02*
X2588Y753D01*
X2640Y753D02*
X2647Y753D01*
X2682Y753D02*
X2688Y753D01*
X0Y752D02*
X3Y752D01*
X571Y752D02*
X577Y752D01*
X598Y752D02*
X604Y752D01*
X624Y752D02*
X631Y752D01*
X671Y752D02*
X677Y752D01*
X698Y752D02*
X704Y752D01*
X742Y752D02*
X750Y752D01*
X821Y752D02*
X827Y752D01*
X898Y752D02*
X904Y752D01*
X934Y752D02*
X940Y752D01*
X948Y752D02*
X954Y752D01*
X971Y752D02*
X977Y752D01*
X1027Y752D02*
X1034Y752D01*
X1098Y752D02*
X1104Y752D01*
X2182Y752D02*
X2188Y752D01*
X2210Y752D02*
X2216Y752D01*
X2235Y752D02*
X2242Y752D01*
X2282Y752D02*
X2288Y752D01*
X2310Y752D02*
X2316Y752D01*
X2353Y752D02*
X2361Y752D01*
X2432Y752D02*
X2438Y752D01*
X2510Y752D02*
X2516Y752D01*
X2546Y752D02*
X2552Y752D01*
X2560Y752D02*
X2566Y752D01*
X2582Y752D02*
X2588Y752D01*
X2639Y752D02*
X2646Y752D01*
X2682Y752D02*
X2688Y752D01*
X0Y751D02*
X3Y751D01*
X571Y751D02*
X577Y751D01*
X598Y751D02*
X604Y751D01*
X625Y751D02*
X632Y751D01*
X671Y751D02*
X677Y751D01*
X698Y751D02*
X704Y751D01*
X743Y751D02*
X751Y751D01*
X821Y751D02*
X827Y751D01*
X898Y751D02*
X904Y751D01*
X934Y751D02*
X940Y751D01*
X948Y751D02*
X954Y751D01*
X971Y751D02*
X977Y751D01*
X1027Y751D02*
X1034Y751D01*
X1098Y751D02*
X1104Y751D01*
X2182Y751D02*
X2188Y751D01*
X2210Y751D02*
X2216Y751D01*
X2236Y751D02*
X2243Y751D01*
X2282Y751D02*
X2288Y751D01*
X2310Y751D02*
X2316Y751D01*
X2353Y751D02*
X2361Y751D01*
X2432Y751D02*
X2438Y751D01*
X2510Y751D02*
X2516Y751D01*
X2546Y751D02*
X2552Y751D01*
X2560Y751D02*
X2566Y751D01*
X2582Y751D02*
X2588Y751D01*
X2639Y751D02*
X2646Y751D01*
X2682Y751D02*
X2688Y751D01*
X0Y750D02*
X3Y750D01*
X571Y750D02*
X577Y750D01*
X598Y750D02*
X604Y750D01*
X625Y750D02*
X632Y750D01*
X671Y750D02*
X677Y750D01*
X698Y750D02*
X704Y750D01*
X743Y750D02*
X751Y750D01*
X821Y750D02*
X827Y750D01*
X898Y750D02*
X904Y750D01*
X934Y750D02*
X940Y750D01*
X948Y750D02*
X954Y750D01*
X971Y750D02*
X977Y750D01*
X1026Y750D02*
X1033Y750D01*
X1098Y750D02*
X1104Y750D01*
X2182Y750D02*
X2188Y750D01*
X2210Y750D02*
X2216Y750D01*
X2236Y750D02*
X2243Y750D01*
X2282Y750D02*
X2288Y750D01*
X2310Y750D02*
X2316Y750D01*
X2354Y750D02*
X2362Y750D01*
X2432Y750D02*
X2438Y750D01*
X2510Y750D02*
X2516Y750D01*
X2546Y750D02*
X2552Y750D01*
X2560Y750D02*
X2566Y750D01*
X2582Y750D02*
X2588Y750D01*
X2638Y750D02*
X2645Y750D01*
X2682Y750D02*
X2688Y750D01*
X0Y749D02*
X3Y749D01*
X571Y749D02*
X577Y749D01*
X598Y749D02*
X604Y749D01*
X626Y749D02*
X633Y749D01*
X671Y749D02*
X677Y749D01*
X698Y749D02*
X704Y749D01*
X744Y749D02*
X752Y749D01*
X821Y749D02*
X827Y749D01*
X898Y749D02*
X904Y749D01*
X934Y749D02*
X940Y749D01*
X948Y749D02*
X954Y749D01*
X971Y749D02*
X977Y749D01*
X1026Y749D02*
X1033Y749D01*
X1098Y749D02*
X1104Y749D01*
X2182Y749D02*
X2188Y749D01*
X2210Y749D02*
X2216Y749D01*
X2237Y749D02*
X2244Y749D01*
X2282Y749D02*
X2288Y749D01*
X2310Y749D02*
X2316Y749D01*
X2355Y749D02*
X2363Y749D01*
X2432Y749D02*
X2438Y749D01*
X2510Y749D02*
X2516Y749D01*
X2546Y749D02*
X2552Y749D01*
X2560Y749D02*
X2566Y749D01*
X2582Y749D02*
X2588Y749D01*
X2637Y749D02*
X2645Y749D01*
X2682Y749D02*
X2688Y749D01*
X0Y748D02*
X3Y748D01*
X571Y748D02*
X577Y748D01*
X598Y748D02*
X604Y748D01*
X626Y748D02*
X633Y748D01*
X671Y748D02*
X677Y748D01*
X698Y748D02*
X704Y748D01*
X722Y748D02*
X725Y748D01*
X745Y748D02*
X753Y748D01*
X821Y748D02*
X827Y748D01*
X898Y748D02*
X904Y748D01*
X934Y748D02*
X940Y748D01*
X948Y748D02*
X954Y748D01*
X971Y748D02*
X977Y748D01*
X1025Y748D02*
X1032Y748D01*
X1098Y748D02*
X1104Y748D01*
X2182Y748D02*
X2188Y748D01*
X2210Y748D02*
X2216Y748D01*
X2237Y748D02*
X2244Y748D01*
X2282Y748D02*
X2288Y748D01*
X2310Y748D02*
X2316Y748D01*
X2335Y748D02*
X2335Y748D01*
X2356Y748D02*
X2364Y748D01*
X2432Y748D02*
X2438Y748D01*
X2510Y748D02*
X2516Y748D01*
X2546Y748D02*
X2552Y748D01*
X2560Y748D02*
X2566Y748D01*
X2582Y748D02*
X2588Y748D01*
X2637Y748D02*
X2644Y748D01*
X2682Y748D02*
X2688Y748D01*
X0Y747D02*
X3Y747D01*
X571Y747D02*
X577Y747D01*
X598Y747D02*
X604Y747D01*
X627Y747D02*
X634Y747D01*
X671Y747D02*
X677Y747D01*
X698Y747D02*
X704Y747D01*
X721Y747D02*
X726Y747D01*
X746Y747D02*
X753Y747D01*
X821Y747D02*
X827Y747D01*
X898Y747D02*
X904Y747D01*
X934Y747D02*
X940Y747D01*
X948Y747D02*
X954Y747D01*
X971Y747D02*
X977Y747D01*
X1024Y747D02*
X1032Y747D01*
X1098Y747D02*
X1104Y747D01*
X2182Y747D02*
X2188Y747D01*
X2210Y747D02*
X2216Y747D01*
X2238Y747D02*
X2245Y747D01*
X2282Y747D02*
X2288Y747D01*
X2310Y747D02*
X2316Y747D01*
X2333Y747D02*
X2337Y747D01*
X2356Y747D02*
X2364Y747D01*
X2432Y747D02*
X2438Y747D01*
X2510Y747D02*
X2516Y747D01*
X2546Y747D02*
X2552Y747D01*
X2560Y747D02*
X2566Y747D01*
X2582Y747D02*
X2588Y747D01*
X2636Y747D02*
X2643Y747D01*
X2682Y747D02*
X2688Y747D01*
X0Y746D02*
X3Y746D01*
X571Y746D02*
X577Y746D01*
X598Y746D02*
X604Y746D01*
X627Y746D02*
X634Y746D01*
X671Y746D02*
X677Y746D01*
X698Y746D02*
X704Y746D01*
X721Y746D02*
X726Y746D01*
X747Y746D02*
X754Y746D01*
X821Y746D02*
X827Y746D01*
X898Y746D02*
X904Y746D01*
X934Y746D02*
X940Y746D01*
X948Y746D02*
X954Y746D01*
X971Y746D02*
X977Y746D01*
X1024Y746D02*
X1031Y746D01*
X1098Y746D02*
X1104Y746D01*
X2182Y746D02*
X2188Y746D01*
X2210Y746D02*
X2216Y746D01*
X2238Y746D02*
X2245Y746D01*
X2282Y746D02*
X2288Y746D01*
X2310Y746D02*
X2316Y746D01*
X2332Y746D02*
X2338Y746D01*
X2357Y746D02*
X2365Y746D01*
X2432Y746D02*
X2438Y746D01*
X2510Y746D02*
X2516Y746D01*
X2546Y746D02*
X2552Y746D01*
X2560Y746D02*
X2566Y746D01*
X2582Y746D02*
X2588Y746D01*
X2636Y746D02*
X2643Y746D01*
X2682Y746D02*
X2688Y746D01*
X0Y745D02*
X3Y745D01*
X571Y745D02*
X577Y745D01*
X598Y745D02*
X604Y745D01*
X628Y745D02*
X635Y745D01*
X671Y745D02*
X677Y745D01*
X698Y745D02*
X704Y745D01*
X721Y745D02*
X727Y745D01*
X747Y745D02*
X754Y745D01*
X821Y745D02*
X827Y745D01*
X898Y745D02*
X904Y745D01*
X934Y745D02*
X940Y745D01*
X948Y745D02*
X954Y745D01*
X971Y745D02*
X977Y745D01*
X1023Y745D02*
X1030Y745D01*
X1098Y745D02*
X1104Y745D01*
X2182Y745D02*
X2188Y745D01*
X2210Y745D02*
X2216Y745D01*
X2239Y745D02*
X2246Y745D01*
X2282Y745D02*
X2288Y745D01*
X2310Y745D02*
X2316Y745D01*
X2332Y745D02*
X2338Y745D01*
X2358Y745D02*
X2365Y745D01*
X2432Y745D02*
X2438Y745D01*
X2510Y745D02*
X2516Y745D01*
X2546Y745D02*
X2552Y745D01*
X2560Y745D02*
X2566Y745D01*
X2582Y745D02*
X2588Y745D01*
X2635Y745D02*
X2642Y745D01*
X2682Y745D02*
X2688Y745D01*
X0Y744D02*
X3Y744D01*
X571Y744D02*
X577Y744D01*
X598Y744D02*
X604Y744D01*
X628Y744D02*
X635Y744D01*
X671Y744D02*
X677Y744D01*
X698Y744D02*
X704Y744D01*
X721Y744D02*
X727Y744D01*
X748Y744D02*
X754Y744D01*
X821Y744D02*
X827Y744D01*
X898Y744D02*
X904Y744D01*
X934Y744D02*
X940Y744D01*
X948Y744D02*
X954Y744D01*
X971Y744D02*
X977Y744D01*
X1023Y744D02*
X1030Y744D01*
X1098Y744D02*
X1104Y744D01*
X2182Y744D02*
X2188Y744D01*
X2210Y744D02*
X2216Y744D01*
X2239Y744D02*
X2246Y744D01*
X2282Y744D02*
X2288Y744D01*
X2310Y744D02*
X2316Y744D01*
X2332Y744D02*
X2338Y744D01*
X2359Y744D02*
X2365Y744D01*
X2432Y744D02*
X2438Y744D01*
X2510Y744D02*
X2516Y744D01*
X2546Y744D02*
X2552Y744D01*
X2560Y744D02*
X2566Y744D01*
X2582Y744D02*
X2588Y744D01*
X2634Y744D02*
X2642Y744D01*
X2682Y744D02*
X2688Y744D01*
X0Y743D02*
X3Y743D01*
X571Y743D02*
X577Y743D01*
X598Y743D02*
X604Y743D01*
X629Y743D02*
X638Y743D01*
X671Y743D02*
X677Y743D01*
X698Y743D02*
X704Y743D01*
X721Y743D02*
X729Y743D01*
X747Y743D02*
X754Y743D01*
X821Y743D02*
X827Y743D01*
X898Y743D02*
X904Y743D01*
X934Y743D02*
X941Y743D01*
X948Y743D02*
X954Y743D01*
X971Y743D02*
X977Y743D01*
X1022Y743D02*
X1029Y743D01*
X1098Y743D02*
X1104Y743D01*
X2182Y743D02*
X2188Y743D01*
X2210Y743D02*
X2216Y743D01*
X2240Y743D02*
X2247Y743D01*
X2282Y743D02*
X2288Y743D01*
X2310Y743D02*
X2316Y743D01*
X2332Y743D02*
X2339Y743D01*
X2359Y743D02*
X2366Y743D01*
X2432Y743D02*
X2438Y743D01*
X2510Y743D02*
X2516Y743D01*
X2546Y743D02*
X2552Y743D01*
X2560Y743D02*
X2566Y743D01*
X2582Y743D02*
X2588Y743D01*
X2634Y743D02*
X2641Y743D01*
X2682Y743D02*
X2688Y743D01*
X0Y742D02*
X3Y742D01*
X571Y742D02*
X577Y742D01*
X598Y742D02*
X604Y742D01*
X629Y742D02*
X653Y742D01*
X671Y742D02*
X677Y742D01*
X698Y742D02*
X704Y742D01*
X721Y742D02*
X754Y742D01*
X821Y742D02*
X853Y742D01*
X896Y742D02*
X904Y742D01*
X922Y742D02*
X954Y742D01*
X971Y742D02*
X1003Y742D01*
X1021Y742D02*
X1029Y742D01*
X1072Y742D02*
X1104Y742D01*
X2182Y742D02*
X2188Y742D01*
X2210Y742D02*
X2216Y742D01*
X2240Y742D02*
X2263Y742D01*
X2282Y742D02*
X2288Y742D01*
X2310Y742D02*
X2316Y742D01*
X2332Y742D02*
X2365Y742D01*
X2432Y742D02*
X2463Y742D01*
X2509Y742D02*
X2516Y742D01*
X2535Y742D02*
X2566Y742D01*
X2582Y742D02*
X2613Y742D01*
X2633Y742D02*
X2640Y742D01*
X2682Y742D02*
X2713Y742D01*
X0Y741D02*
X3Y741D01*
X571Y741D02*
X577Y741D01*
X598Y741D02*
X604Y741D01*
X630Y741D02*
X654Y741D01*
X671Y741D02*
X677Y741D01*
X698Y741D02*
X704Y741D01*
X722Y741D02*
X754Y741D01*
X821Y741D02*
X854Y741D01*
X895Y741D02*
X904Y741D01*
X921Y741D02*
X954Y741D01*
X971Y741D02*
X1004Y741D01*
X1021Y741D02*
X1028Y741D01*
X1071Y741D02*
X1104Y741D01*
X2182Y741D02*
X2188Y741D01*
X2210Y741D02*
X2216Y741D01*
X2241Y741D02*
X2265Y741D01*
X2282Y741D02*
X2288Y741D01*
X2310Y741D02*
X2316Y741D01*
X2333Y741D02*
X2365Y741D01*
X2432Y741D02*
X2465Y741D01*
X2507Y741D02*
X2516Y741D01*
X2533Y741D02*
X2566Y741D01*
X2582Y741D02*
X2615Y741D01*
X2633Y741D02*
X2640Y741D01*
X2682Y741D02*
X2714Y741D01*
X0Y740D02*
X3Y740D01*
X571Y740D02*
X577Y740D01*
X598Y740D02*
X604Y740D01*
X631Y740D02*
X654Y740D01*
X671Y740D02*
X677Y740D01*
X698Y740D02*
X704Y740D01*
X722Y740D02*
X753Y740D01*
X821Y740D02*
X854Y740D01*
X895Y740D02*
X904Y740D01*
X921Y740D02*
X954Y740D01*
X971Y740D02*
X1004Y740D01*
X1021Y740D02*
X1027Y740D01*
X1071Y740D02*
X1103Y740D01*
X2182Y740D02*
X2188Y740D01*
X2210Y740D02*
X2216Y740D01*
X2241Y740D02*
X2265Y740D01*
X2282Y740D02*
X2288Y740D01*
X2310Y740D02*
X2316Y740D01*
X2333Y740D02*
X2365Y740D01*
X2432Y740D02*
X2465Y740D01*
X2506Y740D02*
X2516Y740D01*
X2532Y740D02*
X2566Y740D01*
X2582Y740D02*
X2615Y740D01*
X2632Y740D02*
X2639Y740D01*
X2682Y740D02*
X2715Y740D01*
X0Y739D02*
X3Y739D01*
X571Y739D02*
X577Y739D01*
X598Y739D02*
X604Y739D01*
X632Y739D02*
X654Y739D01*
X671Y739D02*
X677Y739D01*
X698Y739D02*
X704Y739D01*
X723Y739D02*
X752Y739D01*
X821Y739D02*
X854Y739D01*
X895Y739D02*
X904Y739D01*
X921Y739D02*
X954Y739D01*
X971Y739D02*
X1004Y739D01*
X1021Y739D02*
X1027Y739D01*
X1071Y739D02*
X1103Y739D01*
X2182Y739D02*
X2188Y739D01*
X2210Y739D02*
X2216Y739D01*
X2242Y739D02*
X2266Y739D01*
X2282Y739D02*
X2288Y739D01*
X2310Y739D02*
X2316Y739D01*
X2334Y739D02*
X2364Y739D01*
X2432Y739D02*
X2465Y739D01*
X2506Y739D02*
X2516Y739D01*
X2532Y739D02*
X2566Y739D01*
X2582Y739D02*
X2615Y739D01*
X2632Y739D02*
X2639Y739D01*
X2682Y739D02*
X2715Y739D01*
X0Y738D02*
X3Y738D01*
X571Y738D02*
X576Y738D01*
X599Y738D02*
X604Y738D01*
X633Y738D02*
X654Y738D01*
X671Y738D02*
X676Y738D01*
X699Y738D02*
X704Y738D01*
X724Y738D02*
X751Y738D01*
X821Y738D02*
X854Y738D01*
X895Y738D02*
X904Y738D01*
X921Y738D02*
X954Y738D01*
X971Y738D02*
X1004Y738D01*
X1021Y738D02*
X1026Y738D01*
X1071Y738D02*
X1102Y738D01*
X2182Y738D02*
X2188Y738D01*
X2210Y738D02*
X2215Y738D01*
X2243Y738D02*
X2265Y738D01*
X2282Y738D02*
X2288Y738D01*
X2310Y738D02*
X2315Y738D01*
X2335Y738D02*
X2364Y738D01*
X2432Y738D02*
X2465Y738D01*
X2506Y738D02*
X2515Y738D01*
X2532Y738D02*
X2565Y738D01*
X2582Y738D02*
X2615Y738D01*
X2632Y738D02*
X2638Y738D01*
X2682Y738D02*
X2715Y738D01*
X0Y737D02*
X3Y737D01*
X572Y737D02*
X576Y737D01*
X599Y737D02*
X603Y737D01*
X634Y737D02*
X653Y737D01*
X672Y737D02*
X675Y737D01*
X699Y737D02*
X703Y737D01*
X726Y737D02*
X750Y737D01*
X821Y737D02*
X853Y737D01*
X896Y737D02*
X903Y737D01*
X922Y737D02*
X953Y737D01*
X971Y737D02*
X1003Y737D01*
X1022Y737D02*
X1025Y737D01*
X1072Y737D02*
X1101Y737D01*
X2182Y737D02*
X2188Y737D01*
X2210Y737D02*
X2215Y737D01*
X2244Y737D02*
X2265Y737D01*
X2282Y737D02*
X2288Y737D01*
X2310Y737D02*
X2315Y737D01*
X2336Y737D02*
X2363Y737D01*
X2432Y737D02*
X2465Y737D01*
X2507Y737D02*
X2515Y737D01*
X2532Y737D02*
X2565Y737D01*
X2582Y737D02*
X2615Y737D01*
X2632Y737D02*
X2638Y737D01*
X2682Y737D02*
X2715Y737D01*
X3574Y737D02*
X3574Y737D01*
X3611Y737D02*
X3624Y737D01*
X3644Y737D02*
X3651Y737D01*
X3670Y737D02*
X3677Y737D01*
X3701Y737D02*
X3719Y737D01*
X3797Y737D02*
X3821Y737D01*
X3847Y737D02*
X3874Y737D01*
X3897Y737D02*
X3913Y737D01*
X3947Y737D02*
X3971Y737D01*
X4024Y737D02*
X4024Y737D01*
X4047Y737D02*
X4063Y737D01*
X0Y736D02*
X3Y736D01*
X638Y736D02*
X651Y736D01*
X729Y736D02*
X747Y736D01*
X821Y736D02*
X851Y736D01*
X898Y736D02*
X901Y736D01*
X924Y736D02*
X951Y736D01*
X971Y736D02*
X1001Y736D01*
X1074Y736D02*
X1098Y736D01*
X2183Y736D02*
X2187Y736D01*
X2211Y736D02*
X2214Y736D01*
X2246Y736D02*
X2264Y736D01*
X2283Y736D02*
X2287Y736D01*
X2311Y736D02*
X2314Y736D01*
X2337Y736D02*
X2361Y736D01*
X2432Y736D02*
X2464Y736D01*
X2507Y736D02*
X2514Y736D01*
X2533Y736D02*
X2564Y736D01*
X2582Y736D02*
X2614Y736D01*
X2633Y736D02*
X2637Y736D01*
X2682Y736D02*
X2714Y736D01*
X3545Y736D02*
X3549Y736D01*
X3572Y736D02*
X3576Y736D01*
X3607Y736D02*
X3626Y736D01*
X3644Y736D02*
X3652Y736D01*
X3669Y736D02*
X3677Y736D01*
X3698Y736D02*
X3722Y736D01*
X3795Y736D02*
X3824Y736D01*
X3845Y736D02*
X3876Y736D01*
X3895Y736D02*
X3913Y736D01*
X3945Y736D02*
X3974Y736D01*
X4022Y736D02*
X4026Y736D01*
X4045Y736D02*
X4063Y736D01*
X0Y735D02*
X3Y735D01*
X3544Y735D02*
X3549Y735D01*
X3572Y735D02*
X3577Y735D01*
X3606Y735D02*
X3627Y735D01*
X3644Y735D02*
X3653Y735D01*
X3668Y735D02*
X3677Y735D01*
X3696Y735D02*
X3724Y735D01*
X3794Y735D02*
X3825Y735D01*
X3844Y735D02*
X3877Y735D01*
X3894Y735D02*
X3913Y735D01*
X3944Y735D02*
X3975Y735D01*
X4021Y735D02*
X4027Y735D01*
X4044Y735D02*
X4063Y735D01*
X0Y734D02*
X3Y734D01*
X3544Y734D02*
X3550Y734D01*
X3571Y734D02*
X3577Y734D01*
X3604Y734D02*
X3627Y734D01*
X3644Y734D02*
X3654Y734D01*
X3667Y734D02*
X3677Y734D01*
X3695Y734D02*
X3725Y734D01*
X3794Y734D02*
X3826Y734D01*
X3844Y734D02*
X3877Y734D01*
X3894Y734D02*
X3913Y734D01*
X3944Y734D02*
X3976Y734D01*
X4021Y734D02*
X4027Y734D01*
X4044Y734D02*
X4063Y734D01*
X0Y733D02*
X3Y733D01*
X3544Y733D02*
X3550Y733D01*
X3571Y733D02*
X3577Y733D01*
X3603Y733D02*
X3627Y733D01*
X3644Y733D02*
X3654Y733D01*
X3667Y733D02*
X3677Y733D01*
X3695Y733D02*
X3726Y733D01*
X3794Y733D02*
X3827Y733D01*
X3844Y733D02*
X3877Y733D01*
X3894Y733D02*
X3913Y733D01*
X3944Y733D02*
X3977Y733D01*
X4020Y733D02*
X4027Y733D01*
X4044Y733D02*
X4063Y733D01*
X0Y732D02*
X3Y732D01*
X3544Y732D02*
X3550Y732D01*
X3571Y732D02*
X3577Y732D01*
X3603Y732D02*
X3627Y732D01*
X3644Y732D02*
X3655Y732D01*
X3666Y732D02*
X3677Y732D01*
X3694Y732D02*
X3726Y732D01*
X3794Y732D02*
X3827Y732D01*
X3844Y732D02*
X3877Y732D01*
X3894Y732D02*
X3913Y732D01*
X3944Y732D02*
X3977Y732D01*
X4020Y732D02*
X4027Y732D01*
X4044Y732D02*
X4063Y732D01*
X0Y731D02*
X3Y731D01*
X3544Y731D02*
X3550Y731D01*
X3571Y731D02*
X3577Y731D01*
X3602Y731D02*
X3626Y731D01*
X3644Y731D02*
X3656Y731D01*
X3665Y731D02*
X3677Y731D01*
X3694Y731D02*
X3727Y731D01*
X3795Y731D02*
X3827Y731D01*
X3844Y731D02*
X3877Y731D01*
X3895Y731D02*
X3913Y731D01*
X3945Y731D02*
X3977Y731D01*
X4019Y731D02*
X4026Y731D01*
X4045Y731D02*
X4063Y731D01*
X0Y730D02*
X3Y730D01*
X3544Y730D02*
X3550Y730D01*
X3571Y730D02*
X3577Y730D01*
X3602Y730D02*
X3610Y730D01*
X3644Y730D02*
X3656Y730D01*
X3665Y730D02*
X3677Y730D01*
X3694Y730D02*
X3700Y730D01*
X3719Y730D02*
X3727Y730D01*
X3821Y730D02*
X3827Y730D01*
X3844Y730D02*
X3850Y730D01*
X3871Y730D02*
X3877Y730D01*
X3907Y730D02*
X3913Y730D01*
X3971Y730D02*
X3977Y730D01*
X4019Y730D02*
X4026Y730D01*
X4057Y730D02*
X4063Y730D01*
X0Y729D02*
X3Y729D01*
X3544Y729D02*
X3550Y729D01*
X3571Y729D02*
X3577Y729D01*
X3601Y729D02*
X3608Y729D01*
X3644Y729D02*
X3657Y729D01*
X3664Y729D02*
X3677Y729D01*
X3694Y729D02*
X3700Y729D01*
X3721Y729D02*
X3727Y729D01*
X3821Y729D02*
X3827Y729D01*
X3844Y729D02*
X3850Y729D01*
X3871Y729D02*
X3877Y729D01*
X3907Y729D02*
X3913Y729D01*
X3971Y729D02*
X3977Y729D01*
X4018Y729D02*
X4025Y729D01*
X4057Y729D02*
X4063Y729D01*
X0Y728D02*
X3Y728D01*
X3544Y728D02*
X3550Y728D01*
X3571Y728D02*
X3577Y728D01*
X3601Y728D02*
X3608Y728D01*
X3644Y728D02*
X3658Y728D01*
X3663Y728D02*
X3677Y728D01*
X3694Y728D02*
X3700Y728D01*
X3721Y728D02*
X3727Y728D01*
X3821Y728D02*
X3827Y728D01*
X3844Y728D02*
X3850Y728D01*
X3871Y728D02*
X3877Y728D01*
X3907Y728D02*
X3913Y728D01*
X3971Y728D02*
X3977Y728D01*
X4017Y728D02*
X4025Y728D01*
X4057Y728D02*
X4063Y728D01*
X0Y727D02*
X3Y727D01*
X3544Y727D02*
X3550Y727D01*
X3571Y727D02*
X3577Y727D01*
X3600Y727D02*
X3607Y727D01*
X3644Y727D02*
X3659Y727D01*
X3662Y727D02*
X3677Y727D01*
X3694Y727D02*
X3701Y727D01*
X3721Y727D02*
X3727Y727D01*
X3821Y727D02*
X3827Y727D01*
X3844Y727D02*
X3850Y727D01*
X3871Y727D02*
X3877Y727D01*
X3907Y727D02*
X3913Y727D01*
X3971Y727D02*
X3977Y727D01*
X4017Y727D02*
X4024Y727D01*
X4057Y727D02*
X4063Y727D01*
X0Y726D02*
X3Y726D01*
X3544Y726D02*
X3550Y726D01*
X3571Y726D02*
X3577Y726D01*
X3600Y726D02*
X3607Y726D01*
X3644Y726D02*
X3650Y726D01*
X3652Y726D02*
X3659Y726D01*
X3662Y726D02*
X3669Y726D01*
X3671Y726D02*
X3677Y726D01*
X3694Y726D02*
X3702Y726D01*
X3722Y726D02*
X3727Y726D01*
X3821Y726D02*
X3827Y726D01*
X3844Y726D02*
X3850Y726D01*
X3871Y726D02*
X3877Y726D01*
X3907Y726D02*
X3913Y726D01*
X3971Y726D02*
X3977Y726D01*
X4016Y726D02*
X4023Y726D01*
X4057Y726D02*
X4063Y726D01*
X0Y725D02*
X3Y725D01*
X3544Y725D02*
X3550Y725D01*
X3571Y725D02*
X3577Y725D01*
X3599Y725D02*
X3606Y725D01*
X3644Y725D02*
X3650Y725D01*
X3652Y725D02*
X3669Y725D01*
X3671Y725D02*
X3677Y725D01*
X3695Y725D02*
X3703Y725D01*
X3723Y725D02*
X3726Y725D01*
X3821Y725D02*
X3827Y725D01*
X3844Y725D02*
X3850Y725D01*
X3871Y725D02*
X3877Y725D01*
X3907Y725D02*
X3913Y725D01*
X3971Y725D02*
X3977Y725D01*
X4016Y725D02*
X4023Y725D01*
X4057Y725D02*
X4063Y725D01*
X0Y724D02*
X3Y724D01*
X3544Y724D02*
X3550Y724D01*
X3571Y724D02*
X3577Y724D01*
X3599Y724D02*
X3606Y724D01*
X3644Y724D02*
X3650Y724D01*
X3653Y724D02*
X3668Y724D01*
X3671Y724D02*
X3677Y724D01*
X3696Y724D02*
X3703Y724D01*
X3821Y724D02*
X3827Y724D01*
X3844Y724D02*
X3850Y724D01*
X3871Y724D02*
X3877Y724D01*
X3907Y724D02*
X3913Y724D01*
X3971Y724D02*
X3977Y724D01*
X4015Y724D02*
X4022Y724D01*
X4057Y724D02*
X4063Y724D01*
X0Y723D02*
X3Y723D01*
X3544Y723D02*
X3550Y723D01*
X3571Y723D02*
X3577Y723D01*
X3598Y723D02*
X3605Y723D01*
X3644Y723D02*
X3650Y723D01*
X3654Y723D02*
X3667Y723D01*
X3671Y723D02*
X3677Y723D01*
X3696Y723D02*
X3704Y723D01*
X3821Y723D02*
X3827Y723D01*
X3844Y723D02*
X3850Y723D01*
X3871Y723D02*
X3877Y723D01*
X3907Y723D02*
X3913Y723D01*
X3971Y723D02*
X3977Y723D01*
X4014Y723D02*
X4022Y723D01*
X4057Y723D02*
X4063Y723D01*
X0Y722D02*
X3Y722D01*
X3544Y722D02*
X3550Y722D01*
X3571Y722D02*
X3577Y722D01*
X3598Y722D02*
X3605Y722D01*
X3644Y722D02*
X3650Y722D01*
X3654Y722D02*
X3666Y722D01*
X3671Y722D02*
X3677Y722D01*
X3697Y722D02*
X3705Y722D01*
X3821Y722D02*
X3827Y722D01*
X3844Y722D02*
X3850Y722D01*
X3871Y722D02*
X3877Y722D01*
X3907Y722D02*
X3913Y722D01*
X3971Y722D02*
X3977Y722D01*
X4014Y722D02*
X4021Y722D01*
X4057Y722D02*
X4063Y722D01*
X0Y721D02*
X3Y721D01*
X3544Y721D02*
X3550Y721D01*
X3571Y721D02*
X3577Y721D01*
X3597Y721D02*
X3604Y721D01*
X3644Y721D02*
X3650Y721D01*
X3655Y721D02*
X3666Y721D01*
X3671Y721D02*
X3677Y721D01*
X3698Y721D02*
X3706Y721D01*
X3821Y721D02*
X3827Y721D01*
X3844Y721D02*
X3850Y721D01*
X3871Y721D02*
X3877Y721D01*
X3907Y721D02*
X3913Y721D01*
X3971Y721D02*
X3977Y721D01*
X4013Y721D02*
X4020Y721D01*
X4057Y721D02*
X4063Y721D01*
X0Y720D02*
X3Y720D01*
X3544Y720D02*
X3550Y720D01*
X3571Y720D02*
X3577Y720D01*
X3597Y720D02*
X3604Y720D01*
X3644Y720D02*
X3650Y720D01*
X3656Y720D02*
X3665Y720D01*
X3671Y720D02*
X3677Y720D01*
X3699Y720D02*
X3707Y720D01*
X3821Y720D02*
X3827Y720D01*
X3844Y720D02*
X3850Y720D01*
X3871Y720D02*
X3877Y720D01*
X3907Y720D02*
X3913Y720D01*
X3971Y720D02*
X3977Y720D01*
X4013Y720D02*
X4020Y720D01*
X4057Y720D02*
X4063Y720D01*
X0Y719D02*
X3Y719D01*
X3544Y719D02*
X3550Y719D01*
X3571Y719D02*
X3577Y719D01*
X3596Y719D02*
X3603Y719D01*
X3644Y719D02*
X3650Y719D01*
X3657Y719D02*
X3664Y719D01*
X3671Y719D02*
X3677Y719D01*
X3699Y719D02*
X3707Y719D01*
X3821Y719D02*
X3827Y719D01*
X3844Y719D02*
X3877Y719D01*
X3907Y719D02*
X3913Y719D01*
X3971Y719D02*
X3977Y719D01*
X4012Y719D02*
X4019Y719D01*
X4057Y719D02*
X4063Y719D01*
X0Y718D02*
X3Y718D01*
X3544Y718D02*
X3550Y718D01*
X3571Y718D02*
X3577Y718D01*
X3596Y718D02*
X3603Y718D01*
X3644Y718D02*
X3650Y718D01*
X3657Y718D02*
X3664Y718D01*
X3671Y718D02*
X3677Y718D01*
X3700Y718D02*
X3708Y718D01*
X3821Y718D02*
X3827Y718D01*
X3844Y718D02*
X3877Y718D01*
X3907Y718D02*
X3913Y718D01*
X3971Y718D02*
X3977Y718D01*
X4011Y718D02*
X4019Y718D01*
X4057Y718D02*
X4063Y718D01*
X0Y717D02*
X3Y717D01*
X3544Y717D02*
X3550Y717D01*
X3571Y717D02*
X3577Y717D01*
X3595Y717D02*
X3602Y717D01*
X3644Y717D02*
X3650Y717D01*
X3657Y717D02*
X3663Y717D01*
X3671Y717D02*
X3677Y717D01*
X3701Y717D02*
X3709Y717D01*
X3821Y717D02*
X3827Y717D01*
X3844Y717D02*
X3877Y717D01*
X3907Y717D02*
X3913Y717D01*
X3971Y717D02*
X3977Y717D01*
X4011Y717D02*
X4018Y717D01*
X4057Y717D02*
X4063Y717D01*
X0Y716D02*
X3Y716D01*
X3544Y716D02*
X3550Y716D01*
X3571Y716D02*
X3577Y716D01*
X3595Y716D02*
X3602Y716D01*
X3644Y716D02*
X3650Y716D01*
X3657Y716D02*
X3663Y716D01*
X3671Y716D02*
X3677Y716D01*
X3702Y716D02*
X3710Y716D01*
X3821Y716D02*
X3827Y716D01*
X3844Y716D02*
X3877Y716D01*
X3907Y716D02*
X3913Y716D01*
X3971Y716D02*
X3977Y716D01*
X4010Y716D02*
X4018Y716D01*
X4057Y716D02*
X4063Y716D01*
X0Y715D02*
X3Y715D01*
X3544Y715D02*
X3550Y715D01*
X3571Y715D02*
X3577Y715D01*
X3595Y715D02*
X3601Y715D01*
X3644Y715D02*
X3650Y715D01*
X3658Y715D02*
X3663Y715D01*
X3671Y715D02*
X3677Y715D01*
X3702Y715D02*
X3710Y715D01*
X3821Y715D02*
X3827Y715D01*
X3844Y715D02*
X3877Y715D01*
X3907Y715D02*
X3913Y715D01*
X3971Y715D02*
X3977Y715D01*
X4010Y715D02*
X4017Y715D01*
X4057Y715D02*
X4063Y715D01*
X0Y714D02*
X3Y714D01*
X3544Y714D02*
X3550Y714D01*
X3571Y714D02*
X3577Y714D01*
X3594Y714D02*
X3601Y714D01*
X3644Y714D02*
X3650Y714D01*
X3658Y714D02*
X3663Y714D01*
X3671Y714D02*
X3677Y714D01*
X3703Y714D02*
X3711Y714D01*
X3821Y714D02*
X3827Y714D01*
X3844Y714D02*
X3877Y714D01*
X3907Y714D02*
X3913Y714D01*
X3971Y714D02*
X3977Y714D01*
X4009Y714D02*
X4016Y714D01*
X4057Y714D02*
X4063Y714D01*
X0Y713D02*
X3Y713D01*
X3544Y713D02*
X3577Y713D01*
X3594Y713D02*
X3600Y713D01*
X3644Y713D02*
X3650Y713D01*
X3659Y713D02*
X3662Y713D01*
X3671Y713D02*
X3677Y713D01*
X3704Y713D02*
X3712Y713D01*
X3745Y713D02*
X3775Y713D01*
X3798Y713D02*
X3827Y713D01*
X3845Y713D02*
X3877Y713D01*
X3907Y713D02*
X3913Y713D01*
X3948Y713D02*
X3977Y713D01*
X4009Y713D02*
X4016Y713D01*
X4057Y713D02*
X4063Y713D01*
X0Y712D02*
X3Y712D01*
X3544Y712D02*
X3577Y712D01*
X3594Y712D02*
X3600Y712D01*
X3644Y712D02*
X3650Y712D01*
X3671Y712D02*
X3677Y712D01*
X3705Y712D02*
X3713Y712D01*
X3744Y712D02*
X3777Y712D01*
X3796Y712D02*
X3827Y712D01*
X3871Y712D02*
X3877Y712D01*
X3907Y712D02*
X3913Y712D01*
X3946Y712D02*
X3977Y712D01*
X4008Y712D02*
X4015Y712D01*
X4057Y712D02*
X4063Y712D01*
X0Y711D02*
X3Y711D01*
X3544Y711D02*
X3577Y711D01*
X3594Y711D02*
X3600Y711D01*
X3644Y711D02*
X3650Y711D01*
X3671Y711D02*
X3677Y711D01*
X3706Y711D02*
X3714Y711D01*
X3744Y711D02*
X3777Y711D01*
X3795Y711D02*
X3827Y711D01*
X3871Y711D02*
X3877Y711D01*
X3907Y711D02*
X3913Y711D01*
X3945Y711D02*
X3977Y711D01*
X4007Y711D02*
X4015Y711D01*
X4057Y711D02*
X4063Y711D01*
X0Y710D02*
X3Y710D01*
X3544Y710D02*
X3577Y710D01*
X3594Y710D02*
X3600Y710D01*
X3644Y710D02*
X3650Y710D01*
X3671Y710D02*
X3677Y710D01*
X3706Y710D02*
X3714Y710D01*
X3744Y710D02*
X3777Y710D01*
X3795Y710D02*
X3826Y710D01*
X3871Y710D02*
X3877Y710D01*
X3907Y710D02*
X3913Y710D01*
X3945Y710D02*
X3976Y710D01*
X4007Y710D02*
X4014Y710D01*
X4057Y710D02*
X4063Y710D01*
X0Y709D02*
X3Y709D01*
X3544Y709D02*
X3577Y709D01*
X3594Y709D02*
X3600Y709D01*
X3644Y709D02*
X3650Y709D01*
X3671Y709D02*
X3677Y709D01*
X3707Y709D02*
X3715Y709D01*
X3744Y709D02*
X3777Y709D01*
X3794Y709D02*
X3826Y709D01*
X3871Y709D02*
X3877Y709D01*
X3907Y709D02*
X3913Y709D01*
X3944Y709D02*
X3975Y709D01*
X4006Y709D02*
X4013Y709D01*
X4057Y709D02*
X4063Y709D01*
X0Y708D02*
X3Y708D01*
X3544Y708D02*
X3577Y708D01*
X3594Y708D02*
X3600Y708D01*
X3644Y708D02*
X3650Y708D01*
X3671Y708D02*
X3677Y708D01*
X3708Y708D02*
X3716Y708D01*
X3744Y708D02*
X3777Y708D01*
X3794Y708D02*
X3824Y708D01*
X3871Y708D02*
X3877Y708D01*
X3907Y708D02*
X3913Y708D01*
X3944Y708D02*
X3974Y708D01*
X4006Y708D02*
X4013Y708D01*
X4057Y708D02*
X4063Y708D01*
X0Y707D02*
X3Y707D01*
X3544Y707D02*
X3577Y707D01*
X3594Y707D02*
X3600Y707D01*
X3644Y707D02*
X3650Y707D01*
X3671Y707D02*
X3677Y707D01*
X3709Y707D02*
X3717Y707D01*
X3744Y707D02*
X3777Y707D01*
X3794Y707D02*
X3823Y707D01*
X3871Y707D02*
X3877Y707D01*
X3907Y707D02*
X3913Y707D01*
X3923Y707D02*
X3926Y707D01*
X3944Y707D02*
X3973Y707D01*
X4005Y707D02*
X4012Y707D01*
X4057Y707D02*
X4063Y707D01*
X4073Y707D02*
X4076Y707D01*
X0Y706D02*
X3Y706D01*
X3544Y706D02*
X3550Y706D01*
X3571Y706D02*
X3577Y706D01*
X3594Y706D02*
X3601Y706D01*
X3644Y706D02*
X3650Y706D01*
X3671Y706D02*
X3677Y706D01*
X3709Y706D02*
X3717Y706D01*
X3744Y706D02*
X3777Y706D01*
X3794Y706D02*
X3800Y706D01*
X3871Y706D02*
X3877Y706D01*
X3907Y706D02*
X3913Y706D01*
X3922Y706D02*
X3927Y706D01*
X3944Y706D02*
X3950Y706D01*
X4004Y706D02*
X4012Y706D01*
X4057Y706D02*
X4063Y706D01*
X4072Y706D02*
X4077Y706D01*
X0Y705D02*
X3Y705D01*
X3544Y705D02*
X3550Y705D01*
X3571Y705D02*
X3577Y705D01*
X3595Y705D02*
X3601Y705D01*
X3644Y705D02*
X3650Y705D01*
X3671Y705D02*
X3677Y705D01*
X3710Y705D02*
X3718Y705D01*
X3744Y705D02*
X3777Y705D01*
X3794Y705D02*
X3800Y705D01*
X3871Y705D02*
X3877Y705D01*
X3907Y705D02*
X3913Y705D01*
X3921Y705D02*
X3927Y705D01*
X3944Y705D02*
X3950Y705D01*
X4004Y705D02*
X4011Y705D01*
X4057Y705D02*
X4063Y705D01*
X4071Y705D02*
X4077Y705D01*
X0Y704D02*
X3Y704D01*
X3544Y704D02*
X3550Y704D01*
X3571Y704D02*
X3577Y704D01*
X3595Y704D02*
X3602Y704D01*
X3644Y704D02*
X3650Y704D01*
X3671Y704D02*
X3677Y704D01*
X3711Y704D02*
X3719Y704D01*
X3746Y704D02*
X3775Y704D01*
X3794Y704D02*
X3800Y704D01*
X3871Y704D02*
X3877Y704D01*
X3907Y704D02*
X3913Y704D01*
X3921Y704D02*
X3927Y704D01*
X3944Y704D02*
X3950Y704D01*
X4003Y704D02*
X4011Y704D01*
X4057Y704D02*
X4063Y704D01*
X4071Y704D02*
X4077Y704D01*
X0Y703D02*
X3Y703D01*
X3544Y703D02*
X3550Y703D01*
X3571Y703D02*
X3577Y703D01*
X3595Y703D02*
X3602Y703D01*
X3644Y703D02*
X3650Y703D01*
X3671Y703D02*
X3677Y703D01*
X3712Y703D02*
X3720Y703D01*
X3794Y703D02*
X3800Y703D01*
X3871Y703D02*
X3877Y703D01*
X3907Y703D02*
X3913Y703D01*
X3921Y703D02*
X3927Y703D01*
X3944Y703D02*
X3950Y703D01*
X4003Y703D02*
X4010Y703D01*
X4057Y703D02*
X4063Y703D01*
X4071Y703D02*
X4077Y703D01*
X0Y702D02*
X3Y702D01*
X3544Y702D02*
X3550Y702D01*
X3571Y702D02*
X3577Y702D01*
X3596Y702D02*
X3603Y702D01*
X3644Y702D02*
X3650Y702D01*
X3671Y702D02*
X3677Y702D01*
X3713Y702D02*
X3721Y702D01*
X3794Y702D02*
X3800Y702D01*
X3871Y702D02*
X3877Y702D01*
X3907Y702D02*
X3913Y702D01*
X3921Y702D02*
X3927Y702D01*
X3944Y702D02*
X3950Y702D01*
X4002Y702D02*
X4009Y702D01*
X4057Y702D02*
X4063Y702D01*
X4071Y702D02*
X4077Y702D01*
X0Y701D02*
X3Y701D01*
X3544Y701D02*
X3550Y701D01*
X3571Y701D02*
X3577Y701D01*
X3596Y701D02*
X3603Y701D01*
X3644Y701D02*
X3650Y701D01*
X3671Y701D02*
X3677Y701D01*
X3713Y701D02*
X3721Y701D01*
X3794Y701D02*
X3800Y701D01*
X3871Y701D02*
X3877Y701D01*
X3907Y701D02*
X3913Y701D01*
X3921Y701D02*
X3927Y701D01*
X3944Y701D02*
X3950Y701D01*
X4002Y701D02*
X4009Y701D01*
X4057Y701D02*
X4063Y701D01*
X4071Y701D02*
X4077Y701D01*
X0Y700D02*
X3Y700D01*
X3544Y700D02*
X3550Y700D01*
X3571Y700D02*
X3577Y700D01*
X3597Y700D02*
X3604Y700D01*
X3644Y700D02*
X3650Y700D01*
X3671Y700D02*
X3677Y700D01*
X3714Y700D02*
X3722Y700D01*
X3794Y700D02*
X3800Y700D01*
X3871Y700D02*
X3877Y700D01*
X3907Y700D02*
X3913Y700D01*
X3921Y700D02*
X3927Y700D01*
X3944Y700D02*
X3950Y700D01*
X4001Y700D02*
X4008Y700D01*
X4057Y700D02*
X4063Y700D01*
X4071Y700D02*
X4077Y700D01*
X0Y699D02*
X3Y699D01*
X3544Y699D02*
X3550Y699D01*
X3571Y699D02*
X3577Y699D01*
X3597Y699D02*
X3604Y699D01*
X3644Y699D02*
X3650Y699D01*
X3671Y699D02*
X3677Y699D01*
X3715Y699D02*
X3723Y699D01*
X3794Y699D02*
X3800Y699D01*
X3871Y699D02*
X3877Y699D01*
X3907Y699D02*
X3913Y699D01*
X3921Y699D02*
X3927Y699D01*
X3944Y699D02*
X3950Y699D01*
X4000Y699D02*
X4008Y699D01*
X4057Y699D02*
X4063Y699D01*
X4071Y699D02*
X4077Y699D01*
X0Y698D02*
X3Y698D01*
X3544Y698D02*
X3550Y698D01*
X3571Y698D02*
X3577Y698D01*
X3598Y698D02*
X3605Y698D01*
X3644Y698D02*
X3650Y698D01*
X3671Y698D02*
X3677Y698D01*
X3716Y698D02*
X3724Y698D01*
X3794Y698D02*
X3800Y698D01*
X3871Y698D02*
X3877Y698D01*
X3907Y698D02*
X3913Y698D01*
X3921Y698D02*
X3927Y698D01*
X3944Y698D02*
X3950Y698D01*
X4000Y698D02*
X4007Y698D01*
X4057Y698D02*
X4063Y698D01*
X4071Y698D02*
X4077Y698D01*
X0Y697D02*
X3Y697D01*
X3544Y697D02*
X3550Y697D01*
X3571Y697D02*
X3577Y697D01*
X3598Y697D02*
X3605Y697D01*
X3644Y697D02*
X3650Y697D01*
X3671Y697D02*
X3677Y697D01*
X3716Y697D02*
X3724Y697D01*
X3794Y697D02*
X3800Y697D01*
X3871Y697D02*
X3877Y697D01*
X3907Y697D02*
X3913Y697D01*
X3921Y697D02*
X3927Y697D01*
X3944Y697D02*
X3950Y697D01*
X3999Y697D02*
X4006Y697D01*
X4057Y697D02*
X4063Y697D01*
X4071Y697D02*
X4077Y697D01*
X0Y696D02*
X3Y696D01*
X3544Y696D02*
X3550Y696D01*
X3571Y696D02*
X3577Y696D01*
X3599Y696D02*
X3606Y696D01*
X3644Y696D02*
X3650Y696D01*
X3671Y696D02*
X3677Y696D01*
X3717Y696D02*
X3725Y696D01*
X3794Y696D02*
X3800Y696D01*
X3871Y696D02*
X3877Y696D01*
X3907Y696D02*
X3913Y696D01*
X3921Y696D02*
X3927Y696D01*
X3944Y696D02*
X3950Y696D01*
X3999Y696D02*
X4006Y696D01*
X4057Y696D02*
X4063Y696D01*
X4071Y696D02*
X4077Y696D01*
X0Y695D02*
X3Y695D01*
X3544Y695D02*
X3550Y695D01*
X3571Y695D02*
X3577Y695D01*
X3599Y695D02*
X3606Y695D01*
X3644Y695D02*
X3650Y695D01*
X3671Y695D02*
X3677Y695D01*
X3695Y695D02*
X3698Y695D01*
X3718Y695D02*
X3726Y695D01*
X3794Y695D02*
X3800Y695D01*
X3871Y695D02*
X3877Y695D01*
X3907Y695D02*
X3913Y695D01*
X3921Y695D02*
X3927Y695D01*
X3944Y695D02*
X3950Y695D01*
X3998Y695D02*
X4005Y695D01*
X4057Y695D02*
X4063Y695D01*
X4071Y695D02*
X4077Y695D01*
X0Y694D02*
X3Y694D01*
X3544Y694D02*
X3550Y694D01*
X3571Y694D02*
X3577Y694D01*
X3600Y694D02*
X3607Y694D01*
X3644Y694D02*
X3650Y694D01*
X3671Y694D02*
X3677Y694D01*
X3694Y694D02*
X3699Y694D01*
X3719Y694D02*
X3726Y694D01*
X3794Y694D02*
X3800Y694D01*
X3871Y694D02*
X3877Y694D01*
X3907Y694D02*
X3913Y694D01*
X3921Y694D02*
X3927Y694D01*
X3944Y694D02*
X3950Y694D01*
X3997Y694D02*
X4005Y694D01*
X4057Y694D02*
X4063Y694D01*
X4071Y694D02*
X4077Y694D01*
X0Y693D02*
X3Y693D01*
X3544Y693D02*
X3550Y693D01*
X3571Y693D02*
X3577Y693D01*
X3600Y693D02*
X3607Y693D01*
X3644Y693D02*
X3650Y693D01*
X3671Y693D02*
X3677Y693D01*
X3694Y693D02*
X3700Y693D01*
X3720Y693D02*
X3727Y693D01*
X3794Y693D02*
X3800Y693D01*
X3871Y693D02*
X3877Y693D01*
X3907Y693D02*
X3913Y693D01*
X3921Y693D02*
X3927Y693D01*
X3944Y693D02*
X3950Y693D01*
X3997Y693D02*
X4004Y693D01*
X4057Y693D02*
X4063Y693D01*
X4071Y693D02*
X4077Y693D01*
X0Y692D02*
X3Y692D01*
X3544Y692D02*
X3550Y692D01*
X3571Y692D02*
X3577Y692D01*
X3601Y692D02*
X3608Y692D01*
X3644Y692D02*
X3650Y692D01*
X3671Y692D02*
X3677Y692D01*
X3694Y692D02*
X3700Y692D01*
X3720Y692D02*
X3727Y692D01*
X3794Y692D02*
X3800Y692D01*
X3871Y692D02*
X3877Y692D01*
X3907Y692D02*
X3913Y692D01*
X3921Y692D02*
X3927Y692D01*
X3944Y692D02*
X3950Y692D01*
X3996Y692D02*
X4003Y692D01*
X4057Y692D02*
X4063Y692D01*
X4071Y692D02*
X4077Y692D01*
X0Y691D02*
X3Y691D01*
X3544Y691D02*
X3550Y691D01*
X3571Y691D02*
X3577Y691D01*
X3601Y691D02*
X3608Y691D01*
X3644Y691D02*
X3650Y691D01*
X3671Y691D02*
X3677Y691D01*
X3694Y691D02*
X3700Y691D01*
X3721Y691D02*
X3727Y691D01*
X3794Y691D02*
X3800Y691D01*
X3871Y691D02*
X3877Y691D01*
X3907Y691D02*
X3913Y691D01*
X3921Y691D02*
X3927Y691D01*
X3944Y691D02*
X3950Y691D01*
X3996Y691D02*
X4003Y691D01*
X4057Y691D02*
X4063Y691D01*
X4071Y691D02*
X4077Y691D01*
X0Y690D02*
X3Y690D01*
X3544Y690D02*
X3550Y690D01*
X3571Y690D02*
X3577Y690D01*
X3602Y690D02*
X3610Y690D01*
X3644Y690D02*
X3650Y690D01*
X3671Y690D02*
X3677Y690D01*
X3694Y690D02*
X3702Y690D01*
X3721Y690D02*
X3727Y690D01*
X3794Y690D02*
X3800Y690D01*
X3871Y690D02*
X3877Y690D01*
X3907Y690D02*
X3914Y690D01*
X3921Y690D02*
X3927Y690D01*
X3944Y690D02*
X3950Y690D01*
X3995Y690D02*
X4002Y690D01*
X4057Y690D02*
X4064Y690D01*
X4071Y690D02*
X4077Y690D01*
X0Y689D02*
X3Y689D01*
X3544Y689D02*
X3550Y689D01*
X3571Y689D02*
X3577Y689D01*
X3602Y689D02*
X3626Y689D01*
X3644Y689D02*
X3650Y689D01*
X3671Y689D02*
X3677Y689D01*
X3694Y689D02*
X3727Y689D01*
X3794Y689D02*
X3826Y689D01*
X3869Y689D02*
X3877Y689D01*
X3895Y689D02*
X3927Y689D01*
X3944Y689D02*
X3976Y689D01*
X3995Y689D02*
X4002Y689D01*
X4045Y689D02*
X4077Y689D01*
X0Y688D02*
X3Y688D01*
X3544Y688D02*
X3550Y688D01*
X3571Y688D02*
X3577Y688D01*
X3603Y688D02*
X3627Y688D01*
X3644Y688D02*
X3650Y688D01*
X3671Y688D02*
X3677Y688D01*
X3695Y688D02*
X3727Y688D01*
X3794Y688D02*
X3827Y688D01*
X3868Y688D02*
X3877Y688D01*
X3894Y688D02*
X3927Y688D01*
X3944Y688D02*
X3977Y688D01*
X3994Y688D02*
X4001Y688D01*
X4044Y688D02*
X4077Y688D01*
X0Y687D02*
X3Y687D01*
X3544Y687D02*
X3550Y687D01*
X3571Y687D02*
X3577Y687D01*
X3604Y687D02*
X3627Y687D01*
X3644Y687D02*
X3650Y687D01*
X3671Y687D02*
X3677Y687D01*
X3695Y687D02*
X3726Y687D01*
X3794Y687D02*
X3827Y687D01*
X3868Y687D02*
X3877Y687D01*
X3894Y687D02*
X3927Y687D01*
X3944Y687D02*
X3977Y687D01*
X3994Y687D02*
X4001Y687D01*
X4044Y687D02*
X4077Y687D01*
X0Y686D02*
X3Y686D01*
X3544Y686D02*
X3550Y686D01*
X3571Y686D02*
X3577Y686D01*
X3605Y686D02*
X3627Y686D01*
X3644Y686D02*
X3650Y686D01*
X3671Y686D02*
X3677Y686D01*
X3696Y686D02*
X3726Y686D01*
X3794Y686D02*
X3827Y686D01*
X3868Y686D02*
X3877Y686D01*
X3894Y686D02*
X3927Y686D01*
X3944Y686D02*
X3977Y686D01*
X3994Y686D02*
X4000Y686D01*
X4044Y686D02*
X4077Y686D01*
X0Y685D02*
X3Y685D01*
X3544Y685D02*
X3549Y685D01*
X3572Y685D02*
X3577Y685D01*
X3606Y685D02*
X3627Y685D01*
X3644Y685D02*
X3649Y685D01*
X3672Y685D02*
X3677Y685D01*
X3697Y685D02*
X3725Y685D01*
X3794Y685D02*
X3827Y685D01*
X3868Y685D02*
X3877Y685D01*
X3894Y685D02*
X3927Y685D01*
X3944Y685D02*
X3977Y685D01*
X3994Y685D02*
X3999Y685D01*
X4044Y685D02*
X4077Y685D01*
X0Y684D02*
X3Y684D01*
X3545Y684D02*
X3549Y684D01*
X3572Y684D02*
X3576Y684D01*
X3607Y684D02*
X3626Y684D01*
X3645Y684D02*
X3649Y684D01*
X3672Y684D02*
X3676Y684D01*
X3699Y684D02*
X3723Y684D01*
X3794Y684D02*
X3826Y684D01*
X3869Y684D02*
X3876Y684D01*
X3895Y684D02*
X3926Y684D01*
X3944Y684D02*
X3976Y684D01*
X3995Y684D02*
X3999Y684D01*
X4045Y684D02*
X4076Y684D01*
X0Y683D02*
X3Y683D01*
X3547Y683D02*
X3547Y683D01*
X3574Y683D02*
X3574Y683D01*
X3610Y683D02*
X3624Y683D01*
X3647Y683D02*
X3647Y683D01*
X3674Y683D02*
X3674Y683D01*
X3702Y683D02*
X3720Y683D01*
X3794Y683D02*
X3824Y683D01*
X3871Y683D02*
X3874Y683D01*
X3897Y683D02*
X3924Y683D01*
X3944Y683D02*
X3974Y683D01*
X3997Y683D02*
X3997Y683D01*
X4047Y683D02*
X4074Y683D01*
X0Y682D02*
X3Y682D01*
X0Y681D02*
X3Y681D01*
X0Y680D02*
X3Y680D01*
X0Y679D02*
X3Y679D01*
X0Y678D02*
X3Y678D01*
X0Y677D02*
X3Y677D01*
X0Y676D02*
X3Y676D01*
X0Y675D02*
X3Y675D01*
X0Y674D02*
X3Y674D01*
X0Y673D02*
X3Y673D01*
X0Y672D02*
X3Y672D01*
X0Y671D02*
X3Y671D01*
X0Y670D02*
X3Y670D01*
X0Y669D02*
X3Y669D01*
X0Y668D02*
X3Y668D01*
X0Y667D02*
X3Y667D01*
X0Y666D02*
X3Y666D01*
X0Y665D02*
X3Y665D01*
X0Y664D02*
X3Y664D01*
X0Y663D02*
X3Y663D01*
X0Y662D02*
X3Y662D01*
X0Y661D02*
X3Y661D01*
X0Y660D02*
X3Y660D01*
X0Y659D02*
X3Y659D01*
X0Y658D02*
X3Y658D01*
X0Y657D02*
X3Y657D01*
X0Y656D02*
X3Y656D01*
X0Y655D02*
X3Y655D01*
X0Y654D02*
X3Y654D01*
X0Y653D02*
X3Y653D01*
X0Y652D02*
X3Y652D01*
X0Y651D02*
X3Y651D01*
X0Y650D02*
X3Y650D01*
X0Y649D02*
X3Y649D01*
X0Y648D02*
X3Y648D01*
X0Y647D02*
X3Y647D01*
X0Y646D02*
X3Y646D01*
X0Y645D02*
X3Y645D01*
X0Y644D02*
X3Y644D01*
X0Y643D02*
X3Y643D01*
X0Y642D02*
X3Y642D01*
X0Y641D02*
X3Y641D01*
X0Y640D02*
X3Y640D01*
X0Y639D02*
X3Y639D01*
X0Y638D02*
X3Y638D01*
X0Y637D02*
X3Y637D01*
X0Y636D02*
X3Y636D01*
X0Y635D02*
X3Y635D01*
X0Y634D02*
X3Y634D01*
X0Y633D02*
X3Y633D01*
X0Y632D02*
X3Y632D01*
X0Y631D02*
X3Y631D01*
X0Y630D02*
X3Y630D01*
X0Y629D02*
X3Y629D01*
X0Y628D02*
X3Y628D01*
X0Y627D02*
X3Y627D01*
X0Y626D02*
X3Y626D01*
X0Y625D02*
X3Y625D01*
X0Y624D02*
X3Y624D01*
X0Y623D02*
X3Y623D01*
X0Y622D02*
X3Y622D01*
X0Y621D02*
X3Y621D01*
X0Y620D02*
X3Y620D01*
X0Y619D02*
X3Y619D01*
X0Y618D02*
X3Y618D01*
X0Y617D02*
X3Y617D01*
X0Y616D02*
X3Y616D01*
X0Y615D02*
X3Y615D01*
X0Y614D02*
X3Y614D01*
X0Y613D02*
X3Y613D01*
X0Y612D02*
X3Y612D01*
X0Y611D02*
X3Y611D01*
X0Y610D02*
X3Y610D01*
X0Y609D02*
X3Y609D01*
X0Y608D02*
X3Y608D01*
X0Y607D02*
X3Y607D01*
X0Y606D02*
X3Y606D01*
X0Y605D02*
X3Y605D01*
X0Y604D02*
X3Y604D01*
X0Y603D02*
X3Y603D01*
X0Y602D02*
X3Y602D01*
X0Y601D02*
X3Y601D01*
X0Y600D02*
X3Y600D01*
X0Y599D02*
X3Y599D01*
X0Y598D02*
X3Y598D01*
X0Y597D02*
X3Y597D01*
X0Y596D02*
X3Y596D01*
X0Y595D02*
X3Y595D01*
X0Y594D02*
X3Y594D01*
X0Y593D02*
X3Y593D01*
X0Y592D02*
X3Y592D01*
X0Y591D02*
X3Y591D01*
X0Y590D02*
X3Y590D01*
X0Y589D02*
X3Y589D01*
X0Y588D02*
X3Y588D01*
X0Y587D02*
X3Y587D01*
X0Y586D02*
X3Y586D01*
X0Y585D02*
X3Y585D01*
X0Y584D02*
X3Y584D01*
X0Y583D02*
X3Y583D01*
X0Y582D02*
X3Y582D01*
X0Y581D02*
X3Y581D01*
X0Y580D02*
X3Y580D01*
X0Y579D02*
X3Y579D01*
X0Y578D02*
X3Y578D01*
X0Y577D02*
X3Y577D01*
X0Y576D02*
X3Y576D01*
X0Y575D02*
X3Y575D01*
X0Y574D02*
X3Y574D01*
X0Y573D02*
X3Y573D01*
X0Y572D02*
X3Y572D01*
X0Y571D02*
X3Y571D01*
X0Y570D02*
X3Y570D01*
X0Y569D02*
X3Y569D01*
X0Y568D02*
X3Y568D01*
X0Y567D02*
X3Y567D01*
X0Y566D02*
X3Y566D01*
X0Y565D02*
X3Y565D01*
X0Y564D02*
X3Y564D01*
X0Y563D02*
X3Y563D01*
X0Y562D02*
X3Y562D01*
X0Y561D02*
X3Y561D01*
X0Y560D02*
X3Y560D01*
X0Y559D02*
X3Y559D01*
X0Y558D02*
X3Y558D01*
X0Y557D02*
X3Y557D01*
X0Y556D02*
X3Y556D01*
X0Y555D02*
X3Y555D01*
X0Y554D02*
X3Y554D01*
X0Y553D02*
X3Y553D01*
X0Y552D02*
X3Y552D01*
X0Y551D02*
X3Y551D01*
X0Y550D02*
X3Y550D01*
X0Y549D02*
X3Y549D01*
X0Y548D02*
X3Y548D01*
X0Y547D02*
X3Y547D01*
X0Y546D02*
X3Y546D01*
X0Y545D02*
X3Y545D01*
X0Y544D02*
X3Y544D01*
X0Y543D02*
X3Y543D01*
X0Y542D02*
X3Y542D01*
X0Y541D02*
X3Y541D01*
X0Y540D02*
X3Y540D01*
X0Y539D02*
X3Y539D01*
X0Y538D02*
X3Y538D01*
X0Y537D02*
X3Y537D01*
X0Y536D02*
X3Y536D01*
X0Y535D02*
X3Y535D01*
X0Y534D02*
X3Y534D01*
X0Y533D02*
X3Y533D01*
X0Y532D02*
X3Y532D01*
X0Y531D02*
X3Y531D01*
X0Y530D02*
X3Y530D01*
X0Y529D02*
X3Y529D01*
X0Y528D02*
X3Y528D01*
X0Y527D02*
X3Y527D01*
X0Y526D02*
X3Y526D01*
X0Y525D02*
X3Y525D01*
X0Y524D02*
X3Y524D01*
X0Y523D02*
X3Y523D01*
X0Y522D02*
X3Y522D01*
X0Y521D02*
X3Y521D01*
X0Y520D02*
X3Y520D01*
X0Y519D02*
X3Y519D01*
X0Y518D02*
X3Y518D01*
X0Y517D02*
X3Y517D01*
X0Y516D02*
X3Y516D01*
X0Y515D02*
X3Y515D01*
X0Y514D02*
X3Y514D01*
X0Y513D02*
X3Y513D01*
X0Y512D02*
X3Y512D01*
X0Y511D02*
X3Y511D01*
X0Y510D02*
X3Y510D01*
X0Y509D02*
X3Y509D01*
X0Y508D02*
X3Y508D01*
X0Y507D02*
X3Y507D01*
X0Y506D02*
X3Y506D01*
X0Y505D02*
X3Y505D01*
X0Y504D02*
X3Y504D01*
X0Y503D02*
X3Y503D01*
X0Y502D02*
X3Y502D01*
X0Y501D02*
X3Y501D01*
X0Y500D02*
X3Y500D01*
X0Y499D02*
X3Y499D01*
X0Y498D02*
X3Y498D01*
X0Y497D02*
X3Y497D01*
X0Y496D02*
X3Y496D01*
X0Y495D02*
X3Y495D01*
X0Y494D02*
X3Y494D01*
X0Y493D02*
X3Y493D01*
X0Y492D02*
X3Y492D01*
X0Y491D02*
X3Y491D01*
X0Y490D02*
X3Y490D01*
X0Y489D02*
X3Y489D01*
X0Y488D02*
X3Y488D01*
X0Y487D02*
X3Y487D01*
X0Y486D02*
X3Y486D01*
X0Y485D02*
X3Y485D01*
X0Y484D02*
X3Y484D01*
X0Y483D02*
X3Y483D01*
X0Y482D02*
X3Y482D01*
X0Y481D02*
X3Y481D01*
X0Y480D02*
X3Y480D01*
X0Y479D02*
X3Y479D01*
X0Y478D02*
X3Y478D01*
X0Y477D02*
X3Y477D01*
X0Y476D02*
X3Y476D01*
X0Y475D02*
X3Y475D01*
X0Y474D02*
X3Y474D01*
X0Y473D02*
X3Y473D01*
X0Y472D02*
X3Y472D01*
X0Y471D02*
X3Y471D01*
X0Y470D02*
X3Y470D01*
X0Y469D02*
X3Y469D01*
X0Y468D02*
X3Y468D01*
X0Y467D02*
X3Y467D01*
X0Y466D02*
X3Y466D01*
X0Y465D02*
X3Y465D01*
X0Y464D02*
X3Y464D01*
X0Y463D02*
X3Y463D01*
X0Y462D02*
X3Y462D01*
X0Y461D02*
X3Y461D01*
X0Y460D02*
X3Y460D01*
X0Y459D02*
X3Y459D01*
X0Y458D02*
X3Y458D01*
X0Y457D02*
X3Y457D01*
X0Y456D02*
X3Y456D01*
X0Y455D02*
X3Y455D01*
X0Y454D02*
X3Y454D01*
X0Y453D02*
X3Y453D01*
X0Y452D02*
X3Y452D01*
X0Y451D02*
X3Y451D01*
X0Y450D02*
X3Y450D01*
X0Y449D02*
X3Y449D01*
X0Y448D02*
X3Y448D01*
X0Y447D02*
X3Y447D01*
X0Y446D02*
X3Y446D01*
X0Y445D02*
X3Y445D01*
X0Y444D02*
X3Y444D01*
X0Y443D02*
X3Y443D01*
X0Y442D02*
X3Y442D01*
X0Y441D02*
X3Y441D01*
X0Y440D02*
X3Y440D01*
X0Y439D02*
X3Y439D01*
X0Y438D02*
X3Y438D01*
X0Y437D02*
X3Y437D01*
X0Y436D02*
X3Y436D01*
X0Y435D02*
X3Y435D01*
X0Y434D02*
X3Y434D01*
X0Y433D02*
X3Y433D01*
X0Y432D02*
X3Y432D01*
X0Y431D02*
X3Y431D01*
X0Y430D02*
X3Y430D01*
X0Y429D02*
X3Y429D01*
X3027Y429D02*
X3034Y429D01*
X0Y428D02*
X3Y428D01*
X3027Y428D02*
X3034Y428D01*
X0Y427D02*
X3Y427D01*
X3027Y427D02*
X3034Y427D01*
X0Y426D02*
X3Y426D01*
X3027Y426D02*
X3034Y426D01*
X0Y425D02*
X3Y425D01*
X3027Y425D02*
X3034Y425D01*
X0Y424D02*
X3Y424D01*
X3027Y424D02*
X3034Y424D01*
X0Y423D02*
X3Y423D01*
X3027Y423D02*
X3034Y423D01*
X0Y422D02*
X3Y422D01*
X3027Y422D02*
X3034Y422D01*
X0Y421D02*
X3Y421D01*
X3027Y421D02*
X3034Y421D01*
X0Y420D02*
X3Y420D01*
X3027Y420D02*
X3034Y420D01*
X0Y419D02*
X3Y419D01*
X3027Y419D02*
X3034Y419D01*
X0Y418D02*
X3Y418D01*
X3027Y418D02*
X3034Y418D01*
X0Y417D02*
X3Y417D01*
X3027Y417D02*
X3034Y417D01*
X0Y416D02*
X3Y416D01*
X3027Y416D02*
X3034Y416D01*
X0Y415D02*
X3Y415D01*
X3027Y415D02*
X3034Y415D01*
X0Y414D02*
X3Y414D01*
X3027Y414D02*
X3034Y414D01*
X0Y413D02*
X3Y413D01*
X3027Y413D02*
X3034Y413D01*
X0Y412D02*
X3Y412D01*
X3027Y412D02*
X3034Y412D01*
X0Y411D02*
X3Y411D01*
X3027Y411D02*
X3034Y411D01*
X0Y410D02*
X3Y410D01*
X3027Y410D02*
X3034Y410D01*
X0Y409D02*
X3Y409D01*
X3027Y409D02*
X3034Y409D01*
X0Y408D02*
X3Y408D01*
X3027Y408D02*
X3034Y408D01*
X0Y407D02*
X3Y407D01*
X3027Y407D02*
X3034Y407D01*
X0Y406D02*
X3Y406D01*
X3027Y406D02*
X3034Y406D01*
X0Y405D02*
X3Y405D01*
X3027Y405D02*
X3034Y405D01*
X0Y404D02*
X3Y404D01*
X3027Y404D02*
X3034Y404D01*
X0Y403D02*
X3Y403D01*
X3027Y403D02*
X3034Y403D01*
X0Y402D02*
X3Y402D01*
X3027Y402D02*
X3034Y402D01*
X0Y401D02*
X3Y401D01*
X3027Y401D02*
X3034Y401D01*
X0Y400D02*
X3Y400D01*
X3027Y400D02*
X3034Y400D01*
X0Y399D02*
X3Y399D01*
X3027Y399D02*
X3034Y399D01*
X0Y398D02*
X3Y398D01*
X3027Y398D02*
X3034Y398D01*
X0Y397D02*
X3Y397D01*
X3027Y397D02*
X3034Y397D01*
X0Y396D02*
X3Y396D01*
X3027Y396D02*
X3034Y396D01*
X0Y395D02*
X3Y395D01*
X3027Y395D02*
X3034Y395D01*
X0Y394D02*
X3Y394D01*
X3027Y394D02*
X3034Y394D01*
X0Y393D02*
X3Y393D01*
X3027Y393D02*
X3034Y393D01*
X0Y392D02*
X3Y392D01*
X3027Y392D02*
X3034Y392D01*
X0Y391D02*
X3Y391D01*
X3027Y391D02*
X3034Y391D01*
X0Y390D02*
X3Y390D01*
X3027Y390D02*
X3034Y390D01*
X0Y389D02*
X3Y389D01*
X3027Y389D02*
X3034Y389D01*
X0Y388D02*
X3Y388D01*
X3027Y388D02*
X3034Y388D01*
X0Y387D02*
X3Y387D01*
X3027Y387D02*
X3034Y387D01*
X0Y386D02*
X3Y386D01*
X3027Y386D02*
X3034Y386D01*
X0Y385D02*
X3Y385D01*
X3027Y385D02*
X3034Y385D01*
X0Y384D02*
X3Y384D01*
X3027Y384D02*
X3034Y384D01*
X0Y383D02*
X3Y383D01*
X3027Y383D02*
X3034Y383D01*
X0Y382D02*
X3Y382D01*
X3027Y382D02*
X3034Y382D01*
X0Y381D02*
X3Y381D01*
X3027Y381D02*
X3034Y381D01*
X0Y380D02*
X3Y380D01*
X3027Y380D02*
X3034Y380D01*
X0Y379D02*
X3Y379D01*
X3027Y379D02*
X3034Y379D01*
X0Y378D02*
X3Y378D01*
X3027Y378D02*
X3034Y378D01*
X0Y377D02*
X3Y377D01*
X3027Y377D02*
X3034Y377D01*
X0Y376D02*
X3Y376D01*
X3027Y376D02*
X3034Y376D01*
X0Y375D02*
X3Y375D01*
X3027Y375D02*
X3034Y375D01*
X0Y374D02*
X3Y374D01*
X3027Y374D02*
X3034Y374D01*
X0Y373D02*
X3Y373D01*
X3027Y373D02*
X3034Y373D01*
X0Y372D02*
X3Y372D01*
X3027Y372D02*
X3034Y372D01*
X0Y371D02*
X3Y371D01*
X3027Y371D02*
X3034Y371D01*
X0Y370D02*
X3Y370D01*
X3027Y370D02*
X3034Y370D01*
X0Y369D02*
X3Y369D01*
X3027Y369D02*
X3034Y369D01*
X0Y368D02*
X3Y368D01*
X3027Y368D02*
X3034Y368D01*
X0Y367D02*
X3Y367D01*
X3027Y367D02*
X3034Y367D01*
X0Y366D02*
X3Y366D01*
X3027Y366D02*
X3034Y366D01*
X0Y365D02*
X3Y365D01*
X3027Y365D02*
X3034Y365D01*
X0Y364D02*
X3Y364D01*
X3027Y364D02*
X3034Y364D01*
X0Y363D02*
X3Y363D01*
X3027Y363D02*
X3034Y363D01*
X0Y362D02*
X3Y362D01*
X3027Y362D02*
X3034Y362D01*
X0Y361D02*
X3Y361D01*
X3027Y361D02*
X3034Y361D01*
X0Y360D02*
X3Y360D01*
X3027Y360D02*
X3034Y360D01*
X0Y359D02*
X3Y359D01*
X3027Y359D02*
X3034Y359D01*
X0Y358D02*
X3Y358D01*
X3027Y358D02*
X3034Y358D01*
X0Y357D02*
X3Y357D01*
X3027Y357D02*
X3034Y357D01*
X0Y356D02*
X3Y356D01*
X3027Y356D02*
X3034Y356D01*
X0Y355D02*
X3Y355D01*
X3027Y355D02*
X3034Y355D01*
X0Y354D02*
X3Y354D01*
X3027Y354D02*
X3034Y354D01*
X0Y353D02*
X3Y353D01*
X3027Y353D02*
X3034Y353D01*
X0Y352D02*
X3Y352D01*
X3027Y352D02*
X3034Y352D01*
X0Y351D02*
X3Y351D01*
X3027Y351D02*
X3034Y351D01*
X0Y350D02*
X3Y350D01*
X3027Y350D02*
X3034Y350D01*
X0Y349D02*
X3Y349D01*
X3027Y349D02*
X3034Y349D01*
X0Y348D02*
X3Y348D01*
X3027Y348D02*
X3034Y348D01*
X0Y347D02*
X3Y347D01*
X3027Y347D02*
X3034Y347D01*
X0Y346D02*
X3Y346D01*
X3027Y346D02*
X3034Y346D01*
X0Y345D02*
X3Y345D01*
X3027Y345D02*
X3034Y345D01*
X0Y344D02*
X3Y344D01*
X3027Y344D02*
X3034Y344D01*
X0Y343D02*
X3Y343D01*
X3027Y343D02*
X3034Y343D01*
X0Y342D02*
X3Y342D01*
X3027Y342D02*
X3034Y342D01*
X0Y341D02*
X3Y341D01*
X3027Y341D02*
X3034Y341D01*
X0Y340D02*
X3Y340D01*
X3027Y340D02*
X3034Y340D01*
X0Y339D02*
X3Y339D01*
X3027Y339D02*
X3034Y339D01*
X0Y338D02*
X3Y338D01*
X3027Y338D02*
X3034Y338D01*
X0Y337D02*
X3Y337D01*
X3027Y337D02*
X3034Y337D01*
X0Y336D02*
X3Y336D01*
X3027Y336D02*
X3034Y336D01*
X0Y335D02*
X3Y335D01*
X3027Y335D02*
X3034Y335D01*
X0Y334D02*
X3Y334D01*
X3027Y334D02*
X3034Y334D01*
X0Y333D02*
X3Y333D01*
X3027Y333D02*
X3034Y333D01*
X0Y332D02*
X3Y332D01*
X3027Y332D02*
X3034Y332D01*
X0Y331D02*
X3Y331D01*
X3027Y331D02*
X3034Y331D01*
X0Y330D02*
X3Y330D01*
X3027Y330D02*
X3034Y330D01*
X0Y329D02*
X3Y329D01*
X3027Y329D02*
X3034Y329D01*
X0Y328D02*
X3Y328D01*
X3027Y328D02*
X3034Y328D01*
X0Y327D02*
X3Y327D01*
X3027Y327D02*
X3034Y327D01*
X0Y326D02*
X3Y326D01*
X3027Y326D02*
X3034Y326D01*
X0Y325D02*
X3Y325D01*
X3027Y325D02*
X3034Y325D01*
X0Y324D02*
X3Y324D01*
X3027Y324D02*
X3034Y324D01*
X0Y323D02*
X3Y323D01*
X3027Y323D02*
X3034Y323D01*
X0Y322D02*
X3Y322D01*
X3027Y322D02*
X3034Y322D01*
X0Y321D02*
X3Y321D01*
X3027Y321D02*
X3034Y321D01*
X0Y320D02*
X3Y320D01*
X3027Y320D02*
X3034Y320D01*
X0Y319D02*
X3Y319D01*
X3027Y319D02*
X3034Y319D01*
X0Y318D02*
X3Y318D01*
X3027Y318D02*
X3034Y318D01*
X0Y317D02*
X3Y317D01*
X3027Y317D02*
X3034Y317D01*
X0Y316D02*
X3Y316D01*
X3027Y316D02*
X3034Y316D01*
X0Y315D02*
X3Y315D01*
X3027Y315D02*
X3034Y315D01*
X0Y314D02*
X3Y314D01*
X3027Y314D02*
X3034Y314D01*
X0Y313D02*
X3Y313D01*
X3027Y313D02*
X3034Y313D01*
X0Y312D02*
X3Y312D01*
X3027Y312D02*
X3034Y312D01*
X0Y311D02*
X3Y311D01*
X3027Y311D02*
X3034Y311D01*
X0Y310D02*
X3Y310D01*
X3027Y310D02*
X3034Y310D01*
X0Y309D02*
X3Y309D01*
X3027Y309D02*
X3034Y309D01*
X0Y308D02*
X3Y308D01*
X3027Y308D02*
X3034Y308D01*
X0Y307D02*
X3Y307D01*
X3027Y307D02*
X3034Y307D01*
X0Y306D02*
X3Y306D01*
X3027Y306D02*
X3034Y306D01*
X0Y305D02*
X3Y305D01*
X3027Y305D02*
X3034Y305D01*
X0Y304D02*
X3Y304D01*
X3027Y304D02*
X3034Y304D01*
X0Y303D02*
X3Y303D01*
X3027Y303D02*
X3034Y303D01*
X0Y302D02*
X3Y302D01*
X3027Y302D02*
X3034Y302D01*
X0Y301D02*
X3Y301D01*
X3027Y301D02*
X3034Y301D01*
X0Y300D02*
X3Y300D01*
X3027Y300D02*
X3034Y300D01*
X0Y299D02*
X3Y299D01*
X3027Y299D02*
X3034Y299D01*
X0Y298D02*
X3Y298D01*
X3027Y298D02*
X3034Y298D01*
X0Y297D02*
X3Y297D01*
X3027Y297D02*
X3034Y297D01*
X0Y296D02*
X3Y296D01*
X3027Y296D02*
X3034Y296D01*
X0Y295D02*
X3Y295D01*
X3027Y295D02*
X3034Y295D01*
X0Y294D02*
X3Y294D01*
X3027Y294D02*
X3034Y294D01*
X0Y293D02*
X3Y293D01*
X3027Y293D02*
X3034Y293D01*
X0Y292D02*
X3Y292D01*
X3027Y292D02*
X3034Y292D01*
X0Y291D02*
X3Y291D01*
X3027Y291D02*
X3034Y291D01*
X0Y290D02*
X3Y290D01*
X3027Y290D02*
X3034Y290D01*
X0Y289D02*
X3Y289D01*
X3027Y289D02*
X3034Y289D01*
X0Y288D02*
X3Y288D01*
X3027Y288D02*
X3034Y288D01*
X0Y287D02*
X3Y287D01*
X3027Y287D02*
X3034Y287D01*
X0Y286D02*
X3Y286D01*
X3027Y286D02*
X3034Y286D01*
X0Y285D02*
X3Y285D01*
X3027Y285D02*
X3034Y285D01*
X0Y284D02*
X3Y284D01*
X3027Y284D02*
X3034Y284D01*
X0Y283D02*
X3Y283D01*
X3027Y283D02*
X3034Y283D01*
X0Y282D02*
X3Y282D01*
X3027Y282D02*
X3034Y282D01*
X0Y281D02*
X3Y281D01*
X3027Y281D02*
X3034Y281D01*
X0Y280D02*
X3Y280D01*
X3027Y280D02*
X3034Y280D01*
X0Y279D02*
X3Y279D01*
X3027Y279D02*
X3034Y279D01*
X0Y278D02*
X3Y278D01*
X3027Y278D02*
X3034Y278D01*
X0Y277D02*
X3Y277D01*
X3027Y277D02*
X3034Y277D01*
X0Y276D02*
X3Y276D01*
X3027Y276D02*
X3034Y276D01*
X0Y275D02*
X3Y275D01*
X3027Y275D02*
X3034Y275D01*
X0Y274D02*
X3Y274D01*
X3027Y274D02*
X3034Y274D01*
X0Y273D02*
X3Y273D01*
X3027Y273D02*
X3034Y273D01*
X0Y272D02*
X3Y272D01*
X3027Y272D02*
X3034Y272D01*
X0Y271D02*
X3Y271D01*
X3027Y271D02*
X3034Y271D01*
X0Y270D02*
X3Y270D01*
X3027Y270D02*
X3034Y270D01*
X0Y269D02*
X3Y269D01*
X3027Y269D02*
X3034Y269D01*
X0Y268D02*
X3Y268D01*
X3027Y268D02*
X3034Y268D01*
X0Y267D02*
X3Y267D01*
X3027Y267D02*
X3034Y267D01*
X0Y266D02*
X3Y266D01*
X3027Y266D02*
X3034Y266D01*
X0Y265D02*
X3Y265D01*
X3027Y265D02*
X3034Y265D01*
X0Y264D02*
X3Y264D01*
X3027Y264D02*
X3034Y264D01*
X0Y263D02*
X3Y263D01*
X3027Y263D02*
X3034Y263D01*
X0Y262D02*
X3Y262D01*
X3027Y262D02*
X3034Y262D01*
X0Y261D02*
X3Y261D01*
X3027Y261D02*
X3034Y261D01*
X0Y260D02*
X3Y260D01*
X3027Y260D02*
X3034Y260D01*
X0Y259D02*
X3Y259D01*
X3027Y259D02*
X3034Y259D01*
X0Y258D02*
X3Y258D01*
X3027Y258D02*
X3034Y258D01*
X0Y257D02*
X3Y257D01*
X3027Y257D02*
X3034Y257D01*
X0Y256D02*
X3Y256D01*
X3027Y256D02*
X3034Y256D01*
X0Y255D02*
X3Y255D01*
X3027Y255D02*
X3034Y255D01*
X0Y254D02*
X3Y254D01*
X3027Y254D02*
X3034Y254D01*
X0Y253D02*
X3Y253D01*
X3027Y253D02*
X3034Y253D01*
X0Y252D02*
X3Y252D01*
X3027Y252D02*
X3034Y252D01*
X0Y251D02*
X3Y251D01*
X3027Y251D02*
X3034Y251D01*
X0Y250D02*
X3Y250D01*
X3027Y250D02*
X3034Y250D01*
X0Y249D02*
X3Y249D01*
X3027Y249D02*
X3034Y249D01*
X0Y248D02*
X3Y248D01*
X3027Y248D02*
X3034Y248D01*
X0Y247D02*
X3Y247D01*
X3027Y247D02*
X3034Y247D01*
X0Y246D02*
X3Y246D01*
X3027Y246D02*
X3034Y246D01*
X0Y245D02*
X3Y245D01*
X3027Y245D02*
X3034Y245D01*
X0Y244D02*
X3Y244D01*
X3027Y244D02*
X3034Y244D01*
X0Y243D02*
X3Y243D01*
X3027Y243D02*
X3034Y243D01*
X0Y242D02*
X3Y242D01*
X3027Y242D02*
X3034Y242D01*
X0Y241D02*
X3Y241D01*
X3027Y241D02*
X3034Y241D01*
X0Y240D02*
X3Y240D01*
X3027Y240D02*
X3034Y240D01*
X0Y239D02*
X3Y239D01*
X3027Y239D02*
X3034Y239D01*
X0Y238D02*
X3Y238D01*
X3027Y238D02*
X3034Y238D01*
X0Y237D02*
X3Y237D01*
X3027Y237D02*
X3034Y237D01*
X0Y236D02*
X3Y236D01*
X3027Y236D02*
X3034Y236D01*
X0Y235D02*
X3Y235D01*
X3027Y235D02*
X3034Y235D01*
X0Y234D02*
X3Y234D01*
X3027Y234D02*
X3034Y234D01*
X0Y233D02*
X3Y233D01*
X3027Y233D02*
X3034Y233D01*
X0Y232D02*
X3Y232D01*
X3027Y232D02*
X3034Y232D01*
X0Y231D02*
X3Y231D01*
X3027Y231D02*
X3034Y231D01*
X0Y230D02*
X3Y230D01*
X3027Y230D02*
X3034Y230D01*
X0Y229D02*
X3Y229D01*
X3027Y229D02*
X3034Y229D01*
X0Y228D02*
X3Y228D01*
X3027Y228D02*
X3034Y228D01*
X0Y227D02*
X3Y227D01*
X3027Y227D02*
X3034Y227D01*
X0Y226D02*
X3Y226D01*
X3027Y226D02*
X3034Y226D01*
X0Y225D02*
X3Y225D01*
X3027Y225D02*
X3034Y225D01*
X0Y224D02*
X3Y224D01*
X3027Y224D02*
X3034Y224D01*
X0Y223D02*
X3Y223D01*
X3027Y223D02*
X3034Y223D01*
X0Y222D02*
X3Y222D01*
X3027Y222D02*
X3034Y222D01*
X0Y221D02*
X3Y221D01*
X3027Y221D02*
X3034Y221D01*
X0Y220D02*
X3Y220D01*
X3027Y220D02*
X3034Y220D01*
X0Y219D02*
X3Y219D01*
X3027Y219D02*
X3034Y219D01*
X0Y218D02*
X3Y218D01*
X3027Y218D02*
X3034Y218D01*
X0Y217D02*
X3Y217D01*
X3027Y217D02*
X3034Y217D01*
X0Y216D02*
X3Y216D01*
X3027Y216D02*
X3034Y216D01*
X0Y215D02*
X3Y215D01*
X3027Y215D02*
X3034Y215D01*
X0Y214D02*
X3Y214D01*
X3027Y214D02*
X3034Y214D01*
X0Y213D02*
X3Y213D01*
X3027Y213D02*
X3034Y213D01*
X0Y212D02*
X3Y212D01*
X3027Y212D02*
X3034Y212D01*
X0Y211D02*
X3Y211D01*
X3027Y211D02*
X3034Y211D01*
X0Y210D02*
X3Y210D01*
X3027Y210D02*
X3034Y210D01*
X0Y209D02*
X3Y209D01*
X3027Y209D02*
X3034Y209D01*
X0Y208D02*
X3Y208D01*
X3027Y208D02*
X3034Y208D01*
X0Y207D02*
X3Y207D01*
X3027Y207D02*
X3034Y207D01*
X0Y206D02*
X3Y206D01*
X3027Y206D02*
X3034Y206D01*
X0Y205D02*
X3Y205D01*
X3027Y205D02*
X3034Y205D01*
X0Y204D02*
X3Y204D01*
X3027Y204D02*
X3034Y204D01*
X0Y203D02*
X3Y203D01*
X3027Y203D02*
X3034Y203D01*
X0Y202D02*
X3Y202D01*
X3027Y202D02*
X3034Y202D01*
X0Y201D02*
X3Y201D01*
X3027Y201D02*
X3034Y201D01*
X0Y200D02*
X3Y200D01*
X3027Y200D02*
X3034Y200D01*
X0Y199D02*
X3Y199D01*
X3027Y199D02*
X3034Y199D01*
X0Y198D02*
X3Y198D01*
X3027Y198D02*
X3034Y198D01*
X0Y197D02*
X3Y197D01*
X3027Y197D02*
X3034Y197D01*
X0Y196D02*
X3Y196D01*
X3027Y196D02*
X3034Y196D01*
X0Y195D02*
X3Y195D01*
X3027Y195D02*
X3034Y195D01*
X0Y194D02*
X3Y194D01*
X3027Y194D02*
X3034Y194D01*
X0Y193D02*
X3Y193D01*
X3027Y193D02*
X3034Y193D01*
X0Y192D02*
X3Y192D01*
X3027Y192D02*
X3034Y192D01*
X0Y191D02*
X3Y191D01*
X3027Y191D02*
X3034Y191D01*
X0Y190D02*
X3Y190D01*
X3027Y190D02*
X3034Y190D01*
X0Y189D02*
X3Y189D01*
X3027Y189D02*
X3034Y189D01*
X0Y188D02*
X3Y188D01*
X3027Y188D02*
X3034Y188D01*
X0Y187D02*
X3Y187D01*
X3027Y187D02*
X3034Y187D01*
X0Y186D02*
X3Y186D01*
X3027Y186D02*
X3034Y186D01*
X0Y185D02*
X3Y185D01*
X3027Y185D02*
X3034Y185D01*
X0Y184D02*
X3Y184D01*
X3027Y184D02*
X3034Y184D01*
X0Y183D02*
X3Y183D01*
X3027Y183D02*
X3034Y183D01*
X0Y182D02*
X3Y182D01*
X3027Y182D02*
X3034Y182D01*
X0Y181D02*
X3Y181D01*
X3027Y181D02*
X3034Y181D01*
X0Y180D02*
X3Y180D01*
X3027Y180D02*
X3034Y180D01*
X0Y179D02*
X3Y179D01*
X3027Y179D02*
X3034Y179D01*
X0Y178D02*
X3Y178D01*
X3027Y178D02*
X3034Y178D01*
X0Y177D02*
X3Y177D01*
X3027Y177D02*
X3034Y177D01*
X0Y176D02*
X3Y176D01*
X3027Y176D02*
X3034Y176D01*
X0Y175D02*
X3Y175D01*
X3027Y175D02*
X3034Y175D01*
X0Y174D02*
X3Y174D01*
X3027Y174D02*
X3034Y174D01*
X0Y173D02*
X3Y173D01*
X3027Y173D02*
X3034Y173D01*
X0Y172D02*
X3Y172D01*
X3027Y172D02*
X3034Y172D01*
X0Y171D02*
X3Y171D01*
X3027Y171D02*
X3034Y171D01*
X0Y170D02*
X3Y170D01*
X3027Y170D02*
X3034Y170D01*
X0Y169D02*
X3Y169D01*
X3027Y169D02*
X3034Y169D01*
X0Y168D02*
X3Y168D01*
X3027Y168D02*
X3034Y168D01*
X0Y167D02*
X3Y167D01*
X3027Y167D02*
X3034Y167D01*
X0Y166D02*
X3Y166D01*
X3027Y166D02*
X3034Y166D01*
X0Y165D02*
X3Y165D01*
X3027Y165D02*
X3034Y165D01*
X0Y164D02*
X3Y164D01*
X3027Y164D02*
X3034Y164D01*
X0Y163D02*
X3Y163D01*
X3027Y163D02*
X3034Y163D01*
X0Y162D02*
X3Y162D01*
X3027Y162D02*
X3034Y162D01*
X0Y161D02*
X3Y161D01*
X3027Y161D02*
X3034Y161D01*
X0Y160D02*
X3Y160D01*
X3027Y160D02*
X3034Y160D01*
X0Y159D02*
X3Y159D01*
X3027Y159D02*
X3034Y159D01*
X0Y158D02*
X3Y158D01*
X3027Y158D02*
X3034Y158D01*
X0Y157D02*
X3Y157D01*
X3027Y157D02*
X3034Y157D01*
X0Y156D02*
X3Y156D01*
X3027Y156D02*
X3034Y156D01*
X0Y155D02*
X3Y155D01*
X3027Y155D02*
X3034Y155D01*
X0Y154D02*
X3Y154D01*
X3027Y154D02*
X3034Y154D01*
X0Y153D02*
X3Y153D01*
X3027Y153D02*
X3034Y153D01*
X0Y152D02*
X3Y152D01*
X3027Y152D02*
X3034Y152D01*
X0Y151D02*
X3Y151D01*
X3027Y151D02*
X3034Y151D01*
X0Y150D02*
X3Y150D01*
X3027Y150D02*
X3034Y150D01*
X0Y149D02*
X3Y149D01*
X3027Y149D02*
X3034Y149D01*
X0Y148D02*
X3Y148D01*
X3027Y148D02*
X3034Y148D01*
X0Y147D02*
X3Y147D01*
X3027Y147D02*
X3034Y147D01*
X0Y146D02*
X3Y146D01*
X3027Y146D02*
X3034Y146D01*
X0Y145D02*
X3Y145D01*
X3027Y145D02*
X3034Y145D01*
X0Y144D02*
X3Y144D01*
X3027Y144D02*
X3034Y144D01*
X0Y143D02*
X3Y143D01*
X3027Y143D02*
X3034Y143D01*
X0Y142D02*
X3Y142D01*
X3027Y142D02*
X3034Y142D01*
X0Y141D02*
X3Y141D01*
X3027Y141D02*
X3034Y141D01*
X0Y140D02*
X3Y140D01*
X3027Y140D02*
X3034Y140D01*
X0Y139D02*
X3Y139D01*
X3027Y139D02*
X3034Y139D01*
X0Y138D02*
X3Y138D01*
X3027Y138D02*
X3034Y138D01*
X0Y137D02*
X3Y137D01*
X3027Y137D02*
X3034Y137D01*
X0Y136D02*
X3Y136D01*
X3027Y136D02*
X3034Y136D01*
X0Y135D02*
X3Y135D01*
X3027Y135D02*
X3034Y135D01*
X0Y134D02*
X3Y134D01*
X3027Y134D02*
X3034Y134D01*
X0Y133D02*
X3Y133D01*
X3027Y133D02*
X3034Y133D01*
X0Y132D02*
X3Y132D01*
X3027Y132D02*
X3034Y132D01*
X0Y131D02*
X3Y131D01*
X3027Y131D02*
X3034Y131D01*
X0Y130D02*
X3Y130D01*
X3027Y130D02*
X3034Y130D01*
X0Y129D02*
X3Y129D01*
X3027Y129D02*
X3034Y129D01*
X0Y128D02*
X3Y128D01*
X3027Y128D02*
X3034Y128D01*
X0Y127D02*
X3Y127D01*
X3027Y127D02*
X3034Y127D01*
X0Y126D02*
X3Y126D01*
X3027Y126D02*
X3034Y126D01*
X0Y125D02*
X3Y125D01*
X3027Y125D02*
X3034Y125D01*
X0Y124D02*
X3Y124D01*
X3027Y124D02*
X3034Y124D01*
X0Y123D02*
X3Y123D01*
X3027Y123D02*
X3034Y123D01*
X0Y122D02*
X3Y122D01*
X3027Y122D02*
X3034Y122D01*
X0Y121D02*
X3Y121D01*
X3027Y121D02*
X3034Y121D01*
X0Y120D02*
X3Y120D01*
X3027Y120D02*
X3034Y120D01*
X0Y119D02*
X3Y119D01*
X3027Y119D02*
X3034Y119D01*
X0Y118D02*
X3Y118D01*
X3027Y118D02*
X3034Y118D01*
X0Y117D02*
X3Y117D01*
X3027Y117D02*
X3034Y117D01*
X0Y116D02*
X3Y116D01*
X3027Y116D02*
X3034Y116D01*
X0Y115D02*
X3Y115D01*
X3027Y115D02*
X3034Y115D01*
X0Y114D02*
X3Y114D01*
X3027Y114D02*
X3034Y114D01*
X0Y113D02*
X3Y113D01*
X3027Y113D02*
X3034Y113D01*
X0Y112D02*
X3Y112D01*
X3027Y112D02*
X3034Y112D01*
X0Y111D02*
X3Y111D01*
X3027Y111D02*
X3034Y111D01*
X0Y110D02*
X3Y110D01*
X3027Y110D02*
X3034Y110D01*
X0Y109D02*
X3Y109D01*
X3027Y109D02*
X3034Y109D01*
X0Y108D02*
X3Y108D01*
X3027Y108D02*
X3034Y108D01*
X0Y107D02*
X3Y107D01*
X3027Y107D02*
X3034Y107D01*
X0Y106D02*
X3Y106D01*
X3027Y106D02*
X3034Y106D01*
X0Y105D02*
X3Y105D01*
X3027Y105D02*
X3034Y105D01*
X0Y104D02*
X3Y104D01*
X3027Y104D02*
X3034Y104D01*
X0Y103D02*
X3Y103D01*
X3027Y103D02*
X3034Y103D01*
X0Y102D02*
X3Y102D01*
X3027Y102D02*
X3034Y102D01*
X0Y101D02*
X3Y101D01*
X3027Y101D02*
X3034Y101D01*
X0Y100D02*
X3Y100D01*
X3027Y100D02*
X3034Y100D01*
X0Y99D02*
X3Y99D01*
X3027Y99D02*
X3034Y99D01*
X0Y98D02*
X3Y98D01*
X3027Y98D02*
X3034Y98D01*
X0Y97D02*
X3Y97D01*
X3027Y97D02*
X3034Y97D01*
X0Y96D02*
X3Y96D01*
X3027Y96D02*
X3034Y96D01*
X0Y95D02*
X3Y95D01*
X3027Y95D02*
X3034Y95D01*
X0Y94D02*
X3Y94D01*
X3027Y94D02*
X3034Y94D01*
X0Y93D02*
X3Y93D01*
X3027Y93D02*
X3034Y93D01*
X0Y92D02*
X3Y92D01*
X3027Y92D02*
X3034Y92D01*
X0Y91D02*
X3Y91D01*
X3027Y91D02*
X3034Y91D01*
X0Y90D02*
X3Y90D01*
X3027Y90D02*
X3034Y90D01*
X0Y89D02*
X3Y89D01*
X3027Y89D02*
X3034Y89D01*
X0Y88D02*
X3Y88D01*
X3027Y88D02*
X3034Y88D01*
X0Y87D02*
X3Y87D01*
X3027Y87D02*
X3034Y87D01*
X0Y86D02*
X3Y86D01*
X3027Y86D02*
X3034Y86D01*
X0Y85D02*
X3Y85D01*
X3027Y85D02*
X3034Y85D01*
X0Y84D02*
X3Y84D01*
X3027Y84D02*
X3034Y84D01*
X0Y83D02*
X3Y83D01*
X3027Y83D02*
X3034Y83D01*
X0Y82D02*
X3Y82D01*
X3027Y82D02*
X3034Y82D01*
X0Y81D02*
X3Y81D01*
X3027Y81D02*
X3034Y81D01*
X0Y80D02*
X3Y80D01*
X3027Y80D02*
X3034Y80D01*
X0Y79D02*
X3Y79D01*
X3027Y79D02*
X3034Y79D01*
X0Y78D02*
X3Y78D01*
X3027Y78D02*
X3034Y78D01*
X0Y77D02*
X3Y77D01*
X3027Y77D02*
X3034Y77D01*
X0Y76D02*
X3Y76D01*
X3027Y76D02*
X3034Y76D01*
X0Y75D02*
X3Y75D01*
X3027Y75D02*
X3034Y75D01*
X0Y74D02*
X3Y74D01*
X3027Y74D02*
X3034Y74D01*
X0Y73D02*
X3Y73D01*
X3027Y73D02*
X3034Y73D01*
X0Y72D02*
X3Y72D01*
X3027Y72D02*
X3034Y72D01*
X0Y71D02*
X3Y71D01*
X3027Y71D02*
X3034Y71D01*
X0Y70D02*
X3Y70D01*
X3027Y70D02*
X3034Y70D01*
X0Y69D02*
X3Y69D01*
X3027Y69D02*
X3034Y69D01*
X0Y68D02*
X3Y68D01*
X3027Y68D02*
X3034Y68D01*
X0Y67D02*
X3Y67D01*
X3027Y67D02*
X3034Y67D01*
X0Y66D02*
X3Y66D01*
X3027Y66D02*
X3034Y66D01*
X0Y65D02*
X3Y65D01*
X3027Y65D02*
X3034Y65D01*
X0Y64D02*
X3Y64D01*
X3027Y64D02*
X3034Y64D01*
X0Y63D02*
X3Y63D01*
X3027Y63D02*
X3034Y63D01*
X0Y62D02*
X3Y62D01*
X3027Y62D02*
X3034Y62D01*
X0Y61D02*
X3Y61D01*
X3027Y61D02*
X3034Y61D01*
X0Y60D02*
X3Y60D01*
X3027Y60D02*
X3034Y60D01*
X0Y59D02*
X3Y59D01*
X3027Y59D02*
X3034Y59D01*
X0Y58D02*
X3Y58D01*
X3027Y58D02*
X3034Y58D01*
X0Y57D02*
X3Y57D01*
X3027Y57D02*
X3034Y57D01*
X0Y56D02*
X3Y56D01*
X3027Y56D02*
X3034Y56D01*
X0Y55D02*
X3Y55D01*
X3027Y55D02*
X3034Y55D01*
X0Y54D02*
X3Y54D01*
X3027Y54D02*
X3034Y54D01*
X0Y53D02*
X3Y53D01*
X3027Y53D02*
X3034Y53D01*
X0Y52D02*
X3Y52D01*
X3027Y52D02*
X3034Y52D01*
X0Y51D02*
X3Y51D01*
X3027Y51D02*
X3034Y51D01*
X0Y50D02*
X3Y50D01*
X3027Y50D02*
X3034Y50D01*
X0Y49D02*
X3Y49D01*
X3027Y49D02*
X3034Y49D01*
X0Y48D02*
X3Y48D01*
X3027Y48D02*
X3034Y48D01*
X0Y47D02*
X3Y47D01*
X3027Y47D02*
X3034Y47D01*
X0Y46D02*
X3Y46D01*
X3027Y46D02*
X3034Y46D01*
X0Y45D02*
X3Y45D01*
X3027Y45D02*
X3034Y45D01*
X0Y44D02*
X3Y44D01*
X3027Y44D02*
X3034Y44D01*
X0Y43D02*
X3Y43D01*
X3027Y43D02*
X3034Y43D01*
X0Y42D02*
X3Y42D01*
X3027Y42D02*
X3034Y42D01*
X0Y41D02*
X3Y41D01*
X3027Y41D02*
X3034Y41D01*
X0Y40D02*
X3Y40D01*
X3027Y40D02*
X3034Y40D01*
X0Y39D02*
X3Y39D01*
X3027Y39D02*
X3034Y39D01*
X0Y38D02*
X3Y38D01*
X3027Y38D02*
X3034Y38D01*
X0Y37D02*
X3Y37D01*
X3027Y37D02*
X3034Y37D01*
X0Y36D02*
X3Y36D01*
X3027Y36D02*
X3034Y36D01*
X0Y35D02*
X3Y35D01*
X3027Y35D02*
X3034Y35D01*
X0Y34D02*
X3Y34D01*
X3027Y34D02*
X3034Y34D01*
X0Y33D02*
X3Y33D01*
X3027Y33D02*
X3034Y33D01*
X0Y32D02*
X3Y32D01*
X3027Y32D02*
X3034Y32D01*
X0Y31D02*
X3Y31D01*
X3027Y31D02*
X3034Y31D01*
X0Y30D02*
X3Y30D01*
X3027Y30D02*
X3034Y30D01*
X0Y29D02*
X3Y29D01*
X3027Y29D02*
X3034Y29D01*
X0Y28D02*
X3Y28D01*
X3027Y28D02*
X3034Y28D01*
X0Y27D02*
X3Y27D01*
X3027Y27D02*
X3034Y27D01*
X0Y26D02*
X3Y26D01*
X3027Y26D02*
X3034Y26D01*
X0Y25D02*
X3Y25D01*
X3027Y25D02*
X3034Y25D01*
X0Y24D02*
X3Y24D01*
X3027Y24D02*
X3034Y24D01*
X0Y23D02*
X3Y23D01*
X3027Y23D02*
X3034Y23D01*
X0Y22D02*
X3Y22D01*
X3027Y22D02*
X3034Y22D01*
X0Y21D02*
X3Y21D01*
X3027Y21D02*
X3034Y21D01*
X0Y20D02*
X3Y20D01*
X3027Y20D02*
X3034Y20D01*
X0Y19D02*
X3Y19D01*
X3027Y19D02*
X3034Y19D01*
X0Y18D02*
X3Y18D01*
X3027Y18D02*
X3034Y18D01*
X0Y17D02*
X3Y17D01*
X3027Y17D02*
X3034Y17D01*
X0Y16D02*
X3Y16D01*
X3027Y16D02*
X3034Y16D01*
X0Y15D02*
X3Y15D01*
X3027Y15D02*
X3034Y15D01*
X0Y14D02*
X3Y14D01*
X3027Y14D02*
X3034Y14D01*
X0Y13D02*
X3Y13D01*
X3027Y13D02*
X3034Y13D01*
X0Y12D02*
X3Y12D01*
X3027Y12D02*
X3034Y12D01*
X0Y11D02*
X3Y11D01*
X3027Y11D02*
X3034Y11D01*
X0Y10D02*
X3Y10D01*
X3027Y10D02*
X3034Y10D01*
X0Y9D02*
X3Y9D01*
X3027Y9D02*
X3034Y9D01*
X0Y8D02*
X3Y8D01*
X3027Y8D02*
X3034Y8D01*
X0Y7D02*
X3Y7D01*
X3027Y7D02*
X3034Y7D01*
X0Y6D02*
X3Y6D01*
X3027Y6D02*
X3034Y6D01*
X0Y5D02*
X3Y5D01*
X3027Y5D02*
X3034Y5D01*
X0Y4D02*
X3034Y4D01*
X0Y3D02*
X3034Y3D01*
X0Y2D02*
X3034Y2D01*
X0Y1D02*
X3034Y1D01*
X0Y0D02*
X3034Y0D01*
X0Y-1D02*
X3034Y-1D01*
D02*
G04 End of Silk1*
M02*