G04 MADE WITH FRITZING*
G04 WWW.FRITZING.ORG*
G04 DOUBLE SIDED*
G04 HOLES PLATED*
G04 CONTOUR ON CENTER OF CONTOUR VECTOR*
%ASAXBY*%
%FSLAX23Y23*%
%MOIN*%
%OFA0B0*%
%SFA1.0B1.0*%
%ADD10C,0.078000*%
%ADD11C,0.039370*%
%ADD12C,0.075000*%
%ADD13C,0.070000*%
%ADD14C,0.024000*%
%LNCOPPER1*%
G90*
G70*
G54D10*
X2711Y1347D03*
X2811Y1347D03*
X2911Y1347D03*
X3011Y1347D03*
X3111Y1347D03*
X2711Y1347D03*
X2811Y1347D03*
X2911Y1347D03*
X3011Y1347D03*
X3111Y1347D03*
X3111Y1247D03*
X3011Y1247D03*
X2911Y1247D03*
X2811Y1247D03*
X2711Y1247D03*
X2711Y1347D03*
X2811Y1347D03*
X2911Y1347D03*
X3011Y1347D03*
X3111Y1347D03*
X2711Y1347D03*
X2811Y1347D03*
X2911Y1347D03*
X3011Y1347D03*
X3111Y1347D03*
X3111Y1247D03*
X3011Y1247D03*
X2911Y1247D03*
X2811Y1247D03*
X2711Y1247D03*
G54D11*
X1161Y597D03*
X1261Y1172D03*
X1661Y1297D03*
X286Y122D03*
X1111Y422D03*
G54D10*
X911Y297D03*
X1011Y297D03*
X1111Y297D03*
X1211Y297D03*
X1311Y297D03*
X1411Y297D03*
X1511Y297D03*
X911Y297D03*
X1011Y297D03*
X1111Y297D03*
X1211Y297D03*
X1311Y297D03*
X1411Y297D03*
X1511Y297D03*
X1511Y197D03*
X1411Y197D03*
X1311Y197D03*
X1211Y197D03*
X1111Y197D03*
X1011Y197D03*
X911Y197D03*
X911Y297D03*
X1011Y297D03*
X1111Y297D03*
X1211Y297D03*
X1311Y297D03*
X1411Y297D03*
X1511Y297D03*
X911Y297D03*
X1011Y297D03*
X1111Y297D03*
X1211Y297D03*
X1311Y297D03*
X1411Y297D03*
X1511Y297D03*
X1511Y197D03*
X1411Y197D03*
X1311Y197D03*
X1211Y197D03*
X1111Y197D03*
X1011Y197D03*
X911Y197D03*
G54D12*
X2136Y1422D03*
X1736Y1422D03*
X2136Y1422D03*
X1736Y1422D03*
X2136Y1297D03*
X1736Y1297D03*
X2136Y1297D03*
X1736Y1297D03*
G54D13*
X1361Y1297D03*
X1261Y1297D03*
X1361Y1297D03*
X1261Y1297D03*
X1261Y1422D03*
X1361Y1422D03*
X1261Y1422D03*
X1361Y1422D03*
G54D12*
X211Y122D03*
X211Y522D03*
X211Y122D03*
X211Y522D03*
X211Y597D03*
X211Y997D03*
X211Y597D03*
X211Y997D03*
X86Y522D03*
X86Y122D03*
X86Y522D03*
X86Y122D03*
X2261Y122D03*
X2661Y122D03*
X2261Y122D03*
X2661Y122D03*
X1686Y197D03*
X2086Y197D03*
X1686Y197D03*
X2086Y197D03*
X2086Y322D03*
X1686Y322D03*
X2086Y322D03*
X1686Y322D03*
X2661Y247D03*
X2261Y247D03*
X2661Y247D03*
X2261Y247D03*
X2261Y397D03*
X2661Y397D03*
X2261Y397D03*
X2661Y397D03*
G54D11*
X2811Y1047D03*
X4011Y797D03*
X2911Y997D03*
X4261Y1047D03*
X1511Y797D03*
X2111Y847D03*
X1661Y1197D03*
X3411Y797D03*
X2311Y697D03*
X2161Y597D03*
X3711Y797D03*
X2511Y1147D03*
X4661Y1047D03*
X3361Y1247D03*
X2311Y1272D03*
X3261Y1147D03*
X2511Y1247D03*
X2911Y1147D03*
G54D14*
X2811Y1397D02*
X2759Y1445D01*
D02*
X2211Y1421D02*
X2164Y1421D01*
D02*
X2237Y1446D02*
X2211Y1421D01*
D02*
X2811Y1377D02*
X2811Y1397D01*
D02*
X2759Y1445D02*
X2237Y1446D01*
D02*
X2386Y1347D02*
X2359Y1371D01*
D02*
X1344Y1317D02*
X1277Y1401D01*
D02*
X1707Y1422D02*
X1387Y1422D01*
D02*
X1707Y1297D02*
X1680Y1297D01*
D02*
X1261Y1271D02*
X1261Y1191D01*
D02*
X2681Y1347D02*
X2386Y1347D01*
D02*
X2359Y1371D02*
X2262Y1371D01*
D02*
X2186Y1298D02*
X2164Y1297D01*
D02*
X2262Y1371D02*
X2186Y1298D01*
D02*
X87Y948D02*
X86Y550D01*
D02*
X137Y995D02*
X87Y948D01*
D02*
X2161Y497D02*
X2241Y417D01*
D02*
X2161Y578D02*
X2161Y497D01*
D02*
X182Y996D02*
X137Y995D01*
D02*
X211Y550D02*
X211Y568D01*
D02*
X2211Y97D02*
X2085Y97D01*
D02*
X2085Y97D02*
X2086Y168D01*
D02*
X2161Y245D02*
X2232Y246D01*
D02*
X2235Y109D02*
X2211Y97D01*
D02*
X2106Y301D02*
X2161Y245D01*
D02*
X2661Y275D02*
X2661Y368D01*
D02*
X1686Y225D02*
X1686Y293D01*
D02*
X1360Y1071D02*
X1361Y1271D01*
D02*
X787Y696D02*
X711Y772D01*
D02*
X711Y923D02*
X761Y970D01*
D02*
X1259Y970D02*
X1360Y1071D01*
D02*
X761Y970D02*
X1259Y970D01*
D02*
X711Y772D02*
X711Y923D01*
D02*
X1061Y696D02*
X787Y696D01*
D02*
X1147Y610D02*
X1061Y696D01*
D02*
X635Y197D02*
X561Y123D01*
D02*
X909Y397D02*
X910Y327D01*
D02*
X87Y797D02*
X235Y797D01*
D02*
X285Y447D02*
X231Y501D01*
D02*
X285Y223D02*
X285Y447D01*
D02*
X462Y497D02*
X509Y447D01*
D02*
X862Y447D02*
X909Y397D01*
D02*
X881Y197D02*
X635Y197D01*
D02*
X561Y123D02*
X386Y122D01*
D02*
X411Y696D02*
X462Y646D01*
D02*
X235Y797D02*
X336Y696D01*
D02*
X509Y447D02*
X862Y447D01*
D02*
X386Y122D02*
X285Y223D01*
D02*
X86Y550D02*
X87Y797D01*
D02*
X462Y646D02*
X462Y497D01*
D02*
X336Y696D02*
X411Y696D01*
D02*
X1260Y1153D02*
X1259Y1071D01*
D02*
X1212Y1021D02*
X361Y1021D01*
D02*
X267Y122D02*
X239Y122D01*
D02*
X361Y1021D02*
X311Y970D01*
D02*
X311Y822D02*
X361Y772D01*
D02*
X610Y772D02*
X787Y595D01*
D02*
X787Y595D02*
X884Y595D01*
D02*
X884Y595D02*
X1010Y447D01*
D02*
X361Y772D02*
X610Y772D01*
D02*
X311Y970D02*
X311Y822D01*
D02*
X1259Y1071D02*
X1212Y1021D01*
D02*
X1111Y267D02*
X1111Y227D01*
D02*
X2066Y342D02*
X1987Y423D01*
D02*
X1211Y267D02*
X1211Y227D01*
D02*
X1561Y423D02*
X1509Y371D01*
D02*
X1509Y371D02*
X1510Y327D01*
D02*
X1987Y423D02*
X1561Y423D01*
D02*
X1010Y447D02*
X1011Y327D01*
D02*
X1210Y327D02*
X1209Y549D01*
D02*
X1541Y197D02*
X1657Y197D01*
D02*
X1487Y1297D02*
X1487Y1097D01*
D02*
X1379Y1403D02*
X1487Y1297D01*
D02*
X1410Y327D02*
X1409Y397D01*
D02*
X1409Y145D02*
X1410Y167D01*
D02*
X2086Y168D02*
X2087Y97D01*
D02*
X2587Y49D02*
X1209Y49D01*
D02*
X1209Y49D02*
X1210Y167D01*
D02*
X2640Y102D02*
X2587Y49D01*
D02*
X161Y49D02*
X1209Y49D01*
D02*
X1209Y49D02*
X1210Y167D01*
D02*
X106Y102D02*
X161Y49D01*
D02*
X1209Y549D02*
X1174Y583D01*
D02*
X1309Y397D02*
X1310Y327D01*
D02*
X1387Y471D02*
X1309Y397D01*
D02*
X1387Y997D02*
X1387Y471D01*
D02*
X1487Y1097D02*
X1387Y997D01*
D02*
X1461Y97D02*
X1409Y145D01*
D02*
X2087Y97D02*
X1461Y97D01*
D02*
X1409Y397D02*
X1509Y497D01*
D02*
X1509Y497D02*
X2035Y497D01*
D02*
X2035Y497D02*
X2209Y323D01*
D02*
X2209Y323D02*
X2661Y323D01*
D02*
X2661Y323D02*
X2661Y275D01*
D02*
X1111Y327D02*
X1111Y403D01*
D02*
X2813Y1145D02*
X2811Y1066D01*
D02*
X2811Y1217D02*
X2813Y1145D01*
D02*
X3342Y1247D02*
X3211Y1247D01*
D02*
X3211Y1247D02*
X3141Y1247D01*
D02*
X2530Y1247D02*
X2711Y1247D01*
D02*
X2911Y1217D02*
X2911Y1166D01*
D02*
X4209Y945D02*
X4109Y1045D01*
D02*
X4210Y847D02*
X4209Y945D01*
D02*
X4163Y795D02*
X4210Y847D01*
D02*
X4030Y796D02*
X4163Y795D01*
D02*
X2936Y1071D02*
X2886Y1071D01*
D02*
X3010Y1046D02*
X2936Y1071D01*
D02*
X2886Y1071D02*
X2829Y1053D01*
D02*
X4109Y1045D02*
X3010Y1046D01*
D02*
X2109Y795D02*
X2111Y797D01*
D02*
X2110Y828D02*
X2109Y795D01*
D02*
X2111Y747D02*
X2061Y697D01*
D02*
X2061Y697D02*
X1486Y696D01*
D02*
X2111Y797D02*
X2111Y747D01*
D02*
X1486Y696D02*
X1436Y746D01*
D02*
X1660Y1172D02*
X1660Y1178D01*
D02*
X1436Y948D02*
X1660Y1172D01*
D02*
X1436Y746D02*
X1436Y948D01*
D02*
X3392Y797D02*
X2111Y797D01*
D02*
X2211Y696D02*
X2161Y646D01*
D02*
X2161Y646D02*
X2161Y616D01*
D02*
X2292Y697D02*
X2211Y696D01*
D02*
X2811Y1146D02*
X2530Y1147D01*
D02*
X2811Y1066D02*
X2811Y1146D01*
D02*
X3261Y1097D02*
X4209Y1097D01*
D02*
X3261Y1128D02*
X3261Y1097D01*
D02*
X4209Y1097D02*
X4247Y1060D01*
D02*
X4509Y1445D02*
X4661Y1297D01*
D02*
X4661Y1297D02*
X4661Y1066D01*
D02*
X3011Y1397D02*
X3062Y1445D01*
D02*
X3011Y1377D02*
X3011Y1397D01*
D02*
X3062Y1445D02*
X4509Y1445D01*
D02*
X3261Y1097D02*
X3261Y1128D01*
D02*
X3011Y1197D02*
X3111Y1097D01*
D02*
X3111Y1097D02*
X3261Y1097D01*
D02*
X3011Y1217D02*
X3011Y1197D01*
D02*
X1711Y847D02*
X1711Y998D01*
D02*
X2309Y1046D02*
X2311Y1253D01*
D02*
X1711Y998D02*
X1763Y1046D01*
D02*
X1530Y796D02*
X1659Y795D01*
D02*
X1763Y1046D02*
X2309Y1046D01*
D02*
X1659Y795D02*
X1711Y847D01*
D02*
X2785Y970D02*
X2660Y1046D01*
D02*
X2660Y1046D02*
X2309Y1046D01*
D02*
X2309Y1046D02*
X2311Y1253D01*
D02*
X2835Y970D02*
X2785Y970D01*
D02*
X2893Y990D02*
X2835Y970D01*
D02*
X3712Y695D02*
X3711Y778D01*
D02*
X4509Y695D02*
X3712Y695D01*
D02*
X4561Y747D02*
X4509Y695D01*
D02*
X4086Y1347D02*
X4409Y1023D01*
D02*
X4409Y1023D02*
X4509Y1023D01*
D02*
X4509Y1023D02*
X4561Y971D01*
D02*
X3141Y1347D02*
X4086Y1347D01*
D02*
X4561Y971D02*
X4561Y747D01*
D02*
X3712Y695D02*
X2330Y697D01*
D02*
X3711Y778D02*
X3712Y695D01*
G04 End of Copper1*
M02*